  0
SECTION
  2
HEADER
  9
$ACADVER
  1
AC1009
  9
$FILLMODE
 70
1
  9
$EXTMIN
 10
-2.7527
 20
0.0000
 30
0.0000
  9
$EXTMAX
 10
30.4165
 20
16.0020
 30
0.0000
  0
ENDSEC
  0
SECTION
  2
TABLES
  0
TABLE
  2
LTYPE
 70
1
  0
LTYPE
  2
CONTINUOUS
 70
64
  3
Solid line
 72
65
 73
0
 40
0
  0
ENDTAB
  0
TABLE
  2
LAYER
 70
255
  0
LAYER
  2
1
 70
64
 62
22
  6
CONTINUOUS
  0
LAYER
  2
16
 70
64
 62
175
  6
CONTINUOUS
  0
LAYER
  2
17
 70
64
 62
82
  6
CONTINUOUS
  0
LAYER
  2
18
 70
64
 62
82
  6
CONTINUOUS
  0
LAYER
  2
19
 70
64
 62
53
  6
CONTINUOUS
  0
LAYER
  2
20
 70
64
 62
7
  6
CONTINUOUS
  0
LAYER
  2
21
 70
64
 62
253
  6
CONTINUOUS
  0
LAYER
  2
22
 70
64
 62
253
  6
CONTINUOUS
  0
LAYER
  2
23
 70
64
 62
7
  6
CONTINUOUS
  0
LAYER
  2
24
 70
64
 62
7
  6
CONTINUOUS
  0
LAYER
  2
25
 70
64
 62
253
  6
CONTINUOUS
  0
LAYER
  2
26
 70
64
 62
253
  6
CONTINUOUS
  0
LAYER
  2
27
 70
64
 62
253
  6
CONTINUOUS
  0
LAYER
  2
28
 70
64
 62
253
  6
CONTINUOUS
  0
LAYER
  2
39
 70
64
 62
22
  6
CONTINUOUS
  0
LAYER
  2
40
 70
64
 62
175
  6
CONTINUOUS
  0
LAYER
  2
41
 70
64
 62
22
  6
CONTINUOUS
  0
LAYER
  2
42
 70
64
 62
175
  6
CONTINUOUS
  0
LAYER
  2
43
 70
64
 62
82
  6
CONTINUOUS
  0
LAYER
  2
45
 70
64
 62
253
  6
CONTINUOUS
  0
LAYER
  2
48
 70
64
 62
253
  6
CONTINUOUS
  0
LAYER
  2
49
 70
64
 62
253
  6
CONTINUOUS
  0
LAYER
  2
51
 70
64
 62
253
  6
CONTINUOUS
  0
LAYER
  2
52
 70
64
 62
253
  6
CONTINUOUS
  0
LAYER
  2
101
 70
64
 62
1
  6
CONTINUOUS
  0
LAYER
  2
102
 70
64
 62
253
  6
CONTINUOUS
  0
LAYER
  2
103
 70
64
 62
253
  6
CONTINUOUS
  0
LAYER
  2
104
 70
64
 62
251
  6
CONTINUOUS
  0
LAYER
  2
105
 70
64
 62
253
  6
CONTINUOUS
  0
LAYER
  2
106
 70
64
 62
253
  6
CONTINUOUS
  0
LAYER
  2
107
 70
64
 62
253
  6
CONTINUOUS
  0
LAYER
  2
108
 70
64
 62
3
  6
CONTINUOUS
  0
LAYER
  2
109
 70
64
 62
4
  6
CONTINUOUS
  0
LAYER
  2
110
 70
64
 62
253
  6
CONTINUOUS
  0
LAYER
  2
111
 70
64
 62
253
  6
CONTINUOUS
  0
LAYER
  2
112
 70
64
 62
253
  6
CONTINUOUS
  0
LAYER
  2
113
 70
64
 62
22
  6
CONTINUOUS
  0
LAYER
  2
116
 70
64
 62
5
  6
CONTINUOUS
  0
LAYER
  2
121
 70
64
 62
253
  6
CONTINUOUS
  0
LAYER
  2
122
 70
64
 62
253
  6
CONTINUOUS
  0
LAYER
  2
123
 70
64
 62
253
  6
CONTINUOUS
  0
LAYER
  2
124
 70
64
 62
253
  6
CONTINUOUS
  0
LAYER
  2
125
 70
64
 62
253
  6
CONTINUOUS
  0
LAYER
  2
126
 70
64
 62
253
  6
CONTINUOUS
  0
LAYER
  2
127
 70
64
 62
253
  6
CONTINUOUS
  0
LAYER
  2
128
 70
64
 62
253
  6
CONTINUOUS
  0
LAYER
  2
131
 70
64
 62
253
  6
CONTINUOUS
  0
LAYER
  2
132
 70
64
 62
253
  6
CONTINUOUS
  0
LAYER
  2
144
 70
64
 62
253
  6
CONTINUOUS
  0
LAYER
  2
150
 70
64
 62
253
  6
CONTINUOUS
  0
LAYER
  2
151
 70
64
 62
253
  6
CONTINUOUS
  0
LAYER
  2
152
 70
64
 62
253
  6
CONTINUOUS
  0
LAYER
  2
153
 70
64
 62
253
  6
CONTINUOUS
  0
LAYER
  2
154
 70
64
 62
253
  6
CONTINUOUS
  0
LAYER
  2
155
 70
64
 62
253
  6
CONTINUOUS
  0
LAYER
  2
199
 70
64
 62
253
  6
CONTINUOUS
  0
LAYER
  2
200
 70
64
 62
175
  6
CONTINUOUS
  0
LAYER
  2
201
 70
64
 62
82
  6
CONTINUOUS
  0
LAYER
  2
202
 70
64
 62
140
  6
CONTINUOUS
  0
LAYER
  2
203
 70
64
 62
22
  6
CONTINUOUS
  0
LAYER
  2
204
 70
64
 62
213
  6
CONTINUOUS
  0
LAYER
  2
205
 70
64
 62
53
  6
CONTINUOUS
  0
LAYER
  2
206
 70
64
 62
253
  6
CONTINUOUS
  0
LAYER
  2
207
 70
64
 62
250
  6
CONTINUOUS
  0
LAYER
  2
208
 70
64
 62
5
  6
CONTINUOUS
  0
LAYER
  2
209
 70
64
 62
253
  6
CONTINUOUS
  0
LAYER
  2
210
 70
64
 62
253
  6
CONTINUOUS
  0
LAYER
  2
211
 70
64
 62
253
  6
CONTINUOUS
  0
LAYER
  2
212
 70
64
 62
253
  6
CONTINUOUS
  0
LAYER
  2
213
 70
64
 62
253
  6
CONTINUOUS
  0
LAYER
  2
214
 70
64
 62
253
  6
CONTINUOUS
  0
LAYER
  2
215
 70
64
 62
253
  6
CONTINUOUS
  0
LAYER
  2
216
 70
64
 62
253
  6
CONTINUOUS
  0
LAYER
  2
248
 70
64
 62
253
  6
CONTINUOUS
  0
LAYER
  2
249
 70
64
 62
253
  6
CONTINUOUS
  0
LAYER
  2
254
 70
64
 62
253
  6
CONTINUOUS
  0
ENDTAB
  0
ENDSEC
  0
SECTION
  2
BLOCKS
  0
BLOCK
  8
0
  2
RECT
 70
64
 10
0.0000
 20
0.0000
 30
0.0000
  3
RECT
  0
SOLID
  8
0
 10
-0.5000
 20
-0.5000
 30
0.0000
 11
0.5000
 21
-0.5000
 31
0.0000
 12
-0.5000
 22
0.5000
 32
0.0000
 13
0.5000
 23
0.5000
 33
0.0000
  0
ENDBLK
  8
0
  0
BLOCK
  8
0
  2
PIE
 70
64
 10
0.0000
 20
0.0000
 30
0.0000
  3
PIE
  0
POLYLINE
  8
0
 66
1
 10
0.0000
 20
0.0000
 30
0.0000
 40
0.5000
 41
0.5000
 70
0
  0
VERTEX
  8
0
 10
0.0000
 20
-0.2500
 30
0.0000
 42
1.0000
  0
VERTEX
  8
0
 10
0.0000
 20
0.2500
 30
0.0000
 42
1.0000
  0
VERTEX
  8
0
 10
0.0000
 20
-0.2500
 30
0.0000
  0
SEQEND
  8
0
  0
ENDBLK
  8
0
  0
BLOCK
  8
0
  2
OCTAGONP
 70
64
 10
0.0000
 20
0.0000
 30
0.0000
  3
OCTAGONP
  0
POLYLINE
  8
0
 66
1
 10
0.0000
 20
0.0000
 30
0.0000
 40
0.5000
 41
0.5000
 70
0
  0
VERTEX
  8
0
 10
-0.2500
 20
-0.1036
 30
0.0000
  0
VERTEX
  8
0
 10
-0.2500
 20
0.1036
 30
0.0000
  0
VERTEX
  8
0
 10
-0.1036
 20
0.2500
 30
0.0000
  0
VERTEX
  8
0
 10
0.1036
 20
0.2500
 30
0.0000
  0
VERTEX
  8
0
 10
0.2500
 20
0.1036
 30
0.0000
  0
VERTEX
  8
0
 10
0.2500
 20
-0.1036
 30
0.0000
  0
VERTEX
  8
0
 10
0.1036
 20
-0.2500
 30
0.0000
  0
VERTEX
  8
0
 10
-0.1036
 20
-0.2500
 30
0.0000
  0
VERTEX
  8
0
 10
-0.2500
 20
-0.1036
 30
0.0000
  0
VERTEX
  8
0
 10
-0.2500
 20
0.1036
 30
0.0000
  0
SEQEND
  8
0
  0
ENDBLK
  8
0
  0
BLOCK
  8
0
  2
SQUAREP
 70
64
 10
0.0000
 20
0.0000
 30
0.0000
  3
SQUAREP
  0
SOLID
  8
0
 10
-0.5000
 20
-0.5000
 30
0.0000
 11
0.5000
 21
-0.5000
 31
0.0000
 12
-0.5000
 22
0.5000
 32
0.0000
 13
0.5000
 23
0.5000
 33
0.0000
  0
ENDBLK
  8
0
  0
BLOCK
  8
0
  2
ROUNDP
 70
64
 10
0.0000
 20
0.0000
 30
0.0000
  3
ROUNDP
  0
POLYLINE
  8
0
 66
1
 10
0.0000
 20
0.0000
 30
0.0000
 40
0.5000
 41
0.5000
 70
0
  0
VERTEX
  8
0
 10
0.0000
 20
-0.2500
 30
0.0000
 42
1.0000
  0
VERTEX
  8
0
 10
0.0000
 20
0.2500
 30
0.0000
 42
1.0000
  0
VERTEX
  8
0
 10
0.0000
 20
-0.2500
 30
0.0000
  0
SEQEND
  8
0
  0
ENDBLK
  8
0
  0
BLOCK
  8
0
  2
ANNULUSP
 70
64
 10
0.0000
 20
0.0000
 30
0.0000
  3
ANNULUSP
  0
POLYLINE
  8
0
 66
1
 10
0.0000
 20
0.0000
 30
0.0000
 40
0.5000
 41
0.5000
 70
0
  0
VERTEX
  8
0
 10
0.0000
 20
-0.2500
 30
0.0000
 42
1.0000
  0
VERTEX
  8
0
 10
0.0000
 20
0.2500
 30
0.0000
 42
1.0000
  0
VERTEX
  8
0
 10
0.0000
 20
-0.2500
 30
0.0000
  0
SEQEND
  8
0
  0
ENDBLK
  8
0
  0
BLOCK
  8
0
  2
THERMALP
 70
64
 10
0.0000
 20
0.0000
 30
0.0000
  3
THERMALP
  0
POLYLINE
  8
0
 66
1
 10
0.0000
 20
0.0000
 30
0.0000
 40
0.1000
 41
0.1000
 70
0
  0
VERTEX
  8
0
 10
-0.2379
 20
0.4500
 30
0.0000
  0
VERTEX
  8
0
 10
0.2379
 20
0.4500
 30
0.0000
  0
SEQEND
  8
0
  0
POLYLINE
  8
0
 66
1
 10
0.0000
 20
0.0000
 30
0.0000
 40
0.0500
 41
0.0500
 70
0
  0
VERTEX
  8
0
 10
0.2379
 20
0.4250
 30
0.0000
 42
1.0000
  0
VERTEX
  8
0
 10
0.2379
 20
0.4750
 30
0.0000
  0
SEQEND
  8
0
  0
POLYLINE
  8
0
 66
1
 10
0.0000
 20
0.0000
 30
0.0000
 40
0.0500
 41
0.0500
 70
0
  0
VERTEX
  8
0
 10
-0.2379
 20
0.4750
 30
0.0000
 42
1.0000
  0
VERTEX
  8
0
 10
-0.2379
 20
0.4250
 30
0.0000
  0
SEQEND
  8
0
  0
POLYLINE
  8
0
 66
1
 10
0.0000
 20
0.0000
 30
0.0000
 40
0.1000
 41
0.1000
 70
0
  0
VERTEX
  8
0
 10
0.4500
 20
0.2379
 30
0.0000
  0
VERTEX
  8
0
 10
0.4500
 20
-0.2379
 30
0.0000
  0
SEQEND
  8
0
  0
POLYLINE
  8
0
 66
1
 10
0.0000
 20
0.0000
 30
0.0000
 40
0.0500
 41
0.0500
 70
0
  0
VERTEX
  8
0
 10
0.4250
 20
-0.2379
 30
0.0000
 42
1.0000
  0
VERTEX
  8
0
 10
0.4750
 20
-0.2379
 30
0.0000
  0
SEQEND
  8
0
  0
POLYLINE
  8
0
 66
1
 10
0.0000
 20
0.0000
 30
0.0000
 40
0.0500
 41
0.0500
 70
0
  0
VERTEX
  8
0
 10
0.4750
 20
0.2379
 30
0.0000
 42
1.0000
  0
VERTEX
  8
0
 10
0.4250
 20
0.2379
 30
0.0000
  0
SEQEND
  8
0
  0
POLYLINE
  8
0
 66
1
 10
0.0000
 20
0.0000
 30
0.0000
 40
0.1000
 41
0.1000
 70
0
  0
VERTEX
  8
0
 10
0.2379
 20
-0.4500
 30
0.0000
  0
VERTEX
  8
0
 10
-0.2379
 20
-0.4500
 30
0.0000
  0
SEQEND
  8
0
  0
POLYLINE
  8
0
 66
1
 10
0.0000
 20
0.0000
 30
0.0000
 40
0.0500
 41
0.0500
 70
0
  0
VERTEX
  8
0
 10
-0.2379
 20
-0.4250
 30
0.0000
 42
1.0000
  0
VERTEX
  8
0
 10
-0.2379
 20
-0.4750
 30
0.0000
  0
SEQEND
  8
0
  0
POLYLINE
  8
0
 66
1
 10
0.0000
 20
0.0000
 30
0.0000
 40
0.0500
 41
0.0500
 70
0
  0
VERTEX
  8
0
 10
0.2379
 20
-0.4750
 30
0.0000
 42
1.0000
  0
VERTEX
  8
0
 10
0.2379
 20
-0.4250
 30
0.0000
  0
SEQEND
  8
0
  0
POLYLINE
  8
0
 66
1
 10
0.0000
 20
0.0000
 30
0.0000
 40
0.1000
 41
0.1000
 70
0
  0
VERTEX
  8
0
 10
-0.4500
 20
-0.2379
 30
0.0000
  0
VERTEX
  8
0
 10
-0.4500
 20
0.2379
 30
0.0000
  0
SEQEND
  8
0
  0
POLYLINE
  8
0
 66
1
 10
0.0000
 20
0.0000
 30
0.0000
 40
0.0500
 41
0.0500
 70
0
  0
VERTEX
  8
0
 10
-0.4250
 20
0.2379
 30
0.0000
 42
1.0000
  0
VERTEX
  8
0
 10
-0.4750
 20
0.2379
 30
0.0000
  0
SEQEND
  8
0
  0
POLYLINE
  8
0
 66
1
 10
0.0000
 20
0.0000
 30
0.0000
 40
0.0500
 41
0.0500
 70
0
  0
VERTEX
  8
0
 10
-0.4750
 20
-0.2379
 30
0.0000
 42
1.0000
  0
VERTEX
  8
0
 10
-0.4250
 20
-0.2379
 30
0.0000
  0
SEQEND
  8
0
  0
ENDBLK
  8
0
  0
BLOCK
  8
0
  2
OCTAGONV
 70
64
 10
0.0000
 20
0.0000
 30
0.0000
  3
OCTAGONV
  0
POLYLINE
  8
0
 66
1
 10
0.0000
 20
0.0000
 30
0.0000
 40
0.5000
 41
0.5000
 70
0
  0
VERTEX
  8
0
 10
-0.2500
 20
-0.1036
 30
0.0000
  0
VERTEX
  8
0
 10
-0.2500
 20
0.1036
 30
0.0000
  0
VERTEX
  8
0
 10
-0.1036
 20
0.2500
 30
0.0000
  0
VERTEX
  8
0
 10
0.1036
 20
0.2500
 30
0.0000
  0
VERTEX
  8
0
 10
0.2500
 20
0.1036
 30
0.0000
  0
VERTEX
  8
0
 10
0.2500
 20
-0.1036
 30
0.0000
  0
VERTEX
  8
0
 10
0.1036
 20
-0.2500
 30
0.0000
  0
VERTEX
  8
0
 10
-0.1036
 20
-0.2500
 30
0.0000
  0
VERTEX
  8
0
 10
-0.2500
 20
-0.1036
 30
0.0000
  0
VERTEX
  8
0
 10
-0.2500
 20
0.1036
 30
0.0000
  0
SEQEND
  8
0
  0
ENDBLK
  8
0
  0
BLOCK
  8
0
  2
SQUAREV
 70
64
 10
0.0000
 20
0.0000
 30
0.0000
  3
SQUAREV
  0
SOLID
  8
0
 10
-0.5000
 20
-0.5000
 30
0.0000
 11
0.5000
 21
-0.5000
 31
0.0000
 12
-0.5000
 22
0.5000
 32
0.0000
 13
0.5000
 23
0.5000
 33
0.0000
  0
ENDBLK
  8
0
  0
BLOCK
  8
0
  2
ROUNDV
 70
64
 10
0.0000
 20
0.0000
 30
0.0000
  3
ROUNDV
  0
POLYLINE
  8
0
 66
1
 10
0.0000
 20
0.0000
 30
0.0000
 40
0.5000
 41
0.5000
 70
0
  0
VERTEX
  8
0
 10
0.0000
 20
-0.2500
 30
0.0000
 42
1.0000
  0
VERTEX
  8
0
 10
0.0000
 20
0.2500
 30
0.0000
 42
1.0000
  0
VERTEX
  8
0
 10
0.0000
 20
-0.2500
 30
0.0000
  0
SEQEND
  8
0
  0
ENDBLK
  8
0
  0
BLOCK
  8
0
  2
ANNULUSV
 70
64
 10
0.0000
 20
0.0000
 30
0.0000
  3
ANNULUSV
  0
POLYLINE
  8
0
 66
1
 10
0.0000
 20
0.0000
 30
0.0000
 40
0.5000
 41
0.5000
 70
0
  0
VERTEX
  8
0
 10
0.0000
 20
-0.2500
 30
0.0000
 42
1.0000
  0
VERTEX
  8
0
 10
0.0000
 20
0.2500
 30
0.0000
 42
1.0000
  0
VERTEX
  8
0
 10
0.0000
 20
-0.2500
 30
0.0000
  0
SEQEND
  8
0
  0
ENDBLK
  8
0
  0
BLOCK
  8
0
  2
THERMALV
 70
64
 10
0.0000
 20
0.0000
 30
0.0000
  3
THERMALV
  0
POLYLINE
  8
0
 66
1
 10
0.0000
 20
0.0000
 30
0.0000
 40
0.1000
 41
0.1000
 70
0
  0
VERTEX
  8
0
 10
-0.2379
 20
0.4500
 30
0.0000
  0
VERTEX
  8
0
 10
0.2379
 20
0.4500
 30
0.0000
  0
SEQEND
  8
0
  0
POLYLINE
  8
0
 66
1
 10
0.0000
 20
0.0000
 30
0.0000
 40
0.0500
 41
0.0500
 70
0
  0
VERTEX
  8
0
 10
0.2379
 20
0.4250
 30
0.0000
 42
1.0000
  0
VERTEX
  8
0
 10
0.2379
 20
0.4750
 30
0.0000
  0
SEQEND
  8
0
  0
POLYLINE
  8
0
 66
1
 10
0.0000
 20
0.0000
 30
0.0000
 40
0.0500
 41
0.0500
 70
0
  0
VERTEX
  8
0
 10
-0.2379
 20
0.4750
 30
0.0000
 42
1.0000
  0
VERTEX
  8
0
 10
-0.2379
 20
0.4250
 30
0.0000
  0
SEQEND
  8
0
  0
POLYLINE
  8
0
 66
1
 10
0.0000
 20
0.0000
 30
0.0000
 40
0.1000
 41
0.1000
 70
0
  0
VERTEX
  8
0
 10
0.4500
 20
0.2379
 30
0.0000
  0
VERTEX
  8
0
 10
0.4500
 20
-0.2379
 30
0.0000
  0
SEQEND
  8
0
  0
POLYLINE
  8
0
 66
1
 10
0.0000
 20
0.0000
 30
0.0000
 40
0.0500
 41
0.0500
 70
0
  0
VERTEX
  8
0
 10
0.4250
 20
-0.2379
 30
0.0000
 42
1.0000
  0
VERTEX
  8
0
 10
0.4750
 20
-0.2379
 30
0.0000
  0
SEQEND
  8
0
  0
POLYLINE
  8
0
 66
1
 10
0.0000
 20
0.0000
 30
0.0000
 40
0.0500
 41
0.0500
 70
0
  0
VERTEX
  8
0
 10
0.4750
 20
0.2379
 30
0.0000
 42
1.0000
  0
VERTEX
  8
0
 10
0.4250
 20
0.2379
 30
0.0000
  0
SEQEND
  8
0
  0
POLYLINE
  8
0
 66
1
 10
0.0000
 20
0.0000
 30
0.0000
 40
0.1000
 41
0.1000
 70
0
  0
VERTEX
  8
0
 10
0.2379
 20
-0.4500
 30
0.0000
  0
VERTEX
  8
0
 10
-0.2379
 20
-0.4500
 30
0.0000
  0
SEQEND
  8
0
  0
POLYLINE
  8
0
 66
1
 10
0.0000
 20
0.0000
 30
0.0000
 40
0.0500
 41
0.0500
 70
0
  0
VERTEX
  8
0
 10
-0.2379
 20
-0.4250
 30
0.0000
 42
1.0000
  0
VERTEX
  8
0
 10
-0.2379
 20
-0.4750
 30
0.0000
  0
SEQEND
  8
0
  0
POLYLINE
  8
0
 66
1
 10
0.0000
 20
0.0000
 30
0.0000
 40
0.0500
 41
0.0500
 70
0
  0
VERTEX
  8
0
 10
0.2379
 20
-0.4750
 30
0.0000
 42
1.0000
  0
VERTEX
  8
0
 10
0.2379
 20
-0.4250
 30
0.0000
  0
SEQEND
  8
0
  0
POLYLINE
  8
0
 66
1
 10
0.0000
 20
0.0000
 30
0.0000
 40
0.1000
 41
0.1000
 70
0
  0
VERTEX
  8
0
 10
-0.4500
 20
-0.2379
 30
0.0000
  0
VERTEX
  8
0
 10
-0.4500
 20
0.2379
 30
0.0000
  0
SEQEND
  8
0
  0
POLYLINE
  8
0
 66
1
 10
0.0000
 20
0.0000
 30
0.0000
 40
0.0500
 41
0.0500
 70
0
  0
VERTEX
  8
0
 10
-0.4250
 20
0.2379
 30
0.0000
 42
1.0000
  0
VERTEX
  8
0
 10
-0.4750
 20
0.2379
 30
0.0000
  0
SEQEND
  8
0
  0
POLYLINE
  8
0
 66
1
 10
0.0000
 20
0.0000
 30
0.0000
 40
0.0500
 41
0.0500
 70
0
  0
VERTEX
  8
0
 10
-0.4750
 20
-0.2379
 30
0.0000
 42
1.0000
  0
VERTEX
  8
0
 10
-0.4250
 20
-0.2379
 30
0.0000
  0
SEQEND
  8
0
  0
ENDBLK
  8
0
  0
BLOCK
  8
0
  2
LONGP100
 70
64
 10
0.0000
 20
0.0000
 30
0.0000
  3
LONGP100
  0
POLYLINE
  8
0
 66
1
 10
0.0000
 20
0.0000
 30
0.0000
 40
1.0000
 41
1.0000
 70
0
  0
VERTEX
  8
0
 10
-0.5000
 20
0.0000
 30
0.0000
  0
VERTEX
  8
0
 10
0.5000
 20
0.0000
 30
0.0000
  0
SEQEND
  8
0
  0
POLYLINE
  8
0
 66
1
 10
0.0000
 20
0.0000
 30
0.0000
 40
0.5000
 41
0.5000
 70
0
  0
VERTEX
  8
0
 10
0.5000
 20
-0.2500
 30
0.0000
 42
1.0000
  0
VERTEX
  8
0
 10
0.5000
 20
0.2500
 30
0.0000
  0
SEQEND
  8
0
  0
POLYLINE
  8
0
 66
1
 10
0.0000
 20
0.0000
 30
0.0000
 40
0.5000
 41
0.5000
 70
0
  0
VERTEX
  8
0
 10
-0.5000
 20
0.2500
 30
0.0000
 42
1.0000
  0
VERTEX
  8
0
 10
-0.5000
 20
-0.2500
 30
0.0000
  0
SEQEND
  8
0
  0
ENDBLK
  8
0
  0
ENDSEC
  0
SECTION
  2
ENTITIES
  0
LINE
  8
20
 10
18.5420
 20
0.0000
 30
0.0000
 11
28.5090
 21
0.0000
 31
0.0000
  0
LINE
  8
20
 10
28.5090
 20
0.0000
 30
0.0000
 11
28.5090
 21
16.0020
 31
0.0000
  0
LINE
  8
20
 10
17.0434
 20
12.7000
 30
0.0000
 11
17.0180
 21
12.7000
 31
0.0000
  0
LINE
  8
20
 10
17.0180
 20
12.7000
 30
0.0000
 11
0.0000
 21
12.7000
 31
0.0000
  0
LINE
  8
20
 10
0.0000
 20
12.7000
 30
0.0000
 11
0.0000
 21
3.3020
 31
0.0000
  0
LINE
  8
20
 10
0.0000
 20
3.3020
 30
0.0000
 11
17.0180
 21
3.3020
 31
0.0000
  0
LINE
  8
20
 10
18.5420
 20
16.0020
 30
0.0000
 11
28.5090
 21
16.0020
 31
0.0000
  0
POLYLINE
  8
21
 66
1
 10
0.0000
 20
0.0000
 30
0.0000
 40
0.2540
 41
0.2540
 70
0
  0
VERTEX
  8
21
 10
17.0942
 20
12.4460
 30
0.0000
  0
VERTEX
  8
21
 10
17.0942
 20
3.5560
 30
0.0000
  0
SEQEND
  8
0
  0
POLYLINE
  8
21
 66
1
 10
0.0000
 20
0.0000
 30
0.0000
 40
0.1270
 41
0.1270
 70
0
  0
VERTEX
  8
21
 10
17.0307
 20
3.5560
 30
0.0000
 42
1.0000
  0
VERTEX
  8
21
 10
17.1577
 20
3.5560
 30
0.0000
  0
SEQEND
  8
0
  0
POLYLINE
  8
21
 66
1
 10
0.0000
 20
0.0000
 30
0.0000
 40
0.1270
 41
0.1270
 70
0
  0
VERTEX
  8
21
 10
17.1577
 20
12.4460
 30
0.0000
 42
1.0000
  0
VERTEX
  8
21
 10
17.0307
 20
12.4460
 30
0.0000
  0
SEQEND
  8
0
  0
LINE
  8
20
 10
17.0180
 20
12.7000
 30
0.0000
 11
18.5420
 21
14.0970
 31
0.0000
  0
LINE
  8
20
 10
18.5420
 20
14.0970
 30
0.0000
 11
18.5420
 21
16.0020
 31
0.0000
  0
LINE
  8
20
 10
17.0180
 20
3.3020
 30
0.0000
 11
18.5420
 21
1.9050
 31
0.0000
  0
LINE
  8
20
 10
18.5420
 20
1.9050
 30
0.0000
 11
18.5420
 21
0.0000
 31
0.0000
  0
POLYLINE
  8
25
 66
1
 10
0.0000
 20
0.0000
 30
0.0000
 40
0.0762
 41
0.0762
 70
0
  0
VERTEX
  8
25
 10
9.4196
 20
11.7015
 30
0.0000
  0
VERTEX
  8
25
 10
9.2967
 20
11.8243
 30
0.0000
  0
SEQEND
  8
0
  0
POLYLINE
  8
25
 66
1
 10
0.0000
 20
0.0000
 30
0.0000
 40
0.0381
 41
0.0381
 70
0
  0
VERTEX
  8
25
 10
9.3102
 20
11.8378
 30
0.0000
 42
1.0000
  0
VERTEX
  8
25
 10
9.2832
 20
11.8109
 30
0.0000
  0
SEQEND
  8
0
  0
POLYLINE
  8
25
 66
1
 10
0.0000
 20
0.0000
 30
0.0000
 40
0.0381
 41
0.0381
 70
0
  0
VERTEX
  8
25
 10
9.4061
 20
11.6880
 30
0.0000
 42
1.0000
  0
VERTEX
  8
25
 10
9.4331
 20
11.7149
 30
0.0000
  0
SEQEND
  8
0
  0
POLYLINE
  8
25
 66
1
 10
0.0000
 20
0.0000
 30
0.0000
 40
0.0762
 41
0.0762
 70
0
  0
VERTEX
  8
25
 10
9.2967
 20
11.8243
 30
0.0000
  0
VERTEX
  8
25
 10
9.0510
 20
11.8243
 30
0.0000
  0
SEQEND
  8
0
  0
POLYLINE
  8
25
 66
1
 10
0.0000
 20
0.0000
 30
0.0000
 40
0.0381
 41
0.0381
 70
0
  0
VERTEX
  8
25
 10
9.0510
 20
11.8434
 30
0.0000
 42
1.0000
  0
VERTEX
  8
25
 10
9.0510
 20
11.8053
 30
0.0000
  0
SEQEND
  8
0
  0
POLYLINE
  8
25
 66
1
 10
0.0000
 20
0.0000
 30
0.0000
 40
0.0381
 41
0.0381
 70
0
  0
VERTEX
  8
25
 10
9.2967
 20
11.8053
 30
0.0000
 42
1.0000
  0
VERTEX
  8
25
 10
9.2967
 20
11.8434
 30
0.0000
  0
SEQEND
  8
0
  0
POLYLINE
  8
25
 66
1
 10
0.0000
 20
0.0000
 30
0.0000
 40
0.0762
 41
0.0762
 70
0
  0
VERTEX
  8
25
 10
9.0510
 20
11.8243
 30
0.0000
  0
VERTEX
  8
25
 10
8.9281
 20
11.7015
 30
0.0000
  0
SEQEND
  8
0
  0
POLYLINE
  8
25
 66
1
 10
0.0000
 20
0.0000
 30
0.0000
 40
0.0381
 41
0.0381
 70
0
  0
VERTEX
  8
25
 10
8.9146
 20
11.7149
 30
0.0000
 42
1.0000
  0
VERTEX
  8
25
 10
8.9416
 20
11.6880
 30
0.0000
  0
SEQEND
  8
0
  0
POLYLINE
  8
25
 66
1
 10
0.0000
 20
0.0000
 30
0.0000
 40
0.0381
 41
0.0381
 70
0
  0
VERTEX
  8
25
 10
9.0644
 20
11.8109
 30
0.0000
 42
1.0000
  0
VERTEX
  8
25
 10
9.0375
 20
11.8378
 30
0.0000
  0
SEQEND
  8
0
  0
POLYLINE
  8
25
 66
1
 10
0.0000
 20
0.0000
 30
0.0000
 40
0.0762
 41
0.0762
 70
0
  0
VERTEX
  8
25
 10
8.9281
 20
11.7015
 30
0.0000
  0
VERTEX
  8
25
 10
8.9281
 20
11.2100
 30
0.0000
  0
SEQEND
  8
0
  0
POLYLINE
  8
25
 66
1
 10
0.0000
 20
0.0000
 30
0.0000
 40
0.0381
 41
0.0381
 70
0
  0
VERTEX
  8
25
 10
8.9091
 20
11.2100
 30
0.0000
 42
1.0000
  0
VERTEX
  8
25
 10
8.9472
 20
11.2100
 30
0.0000
  0
SEQEND
  8
0
  0
POLYLINE
  8
25
 66
1
 10
0.0000
 20
0.0000
 30
0.0000
 40
0.0381
 41
0.0381
 70
0
  0
VERTEX
  8
25
 10
8.9472
 20
11.7015
 30
0.0000
 42
1.0000
  0
VERTEX
  8
25
 10
8.9091
 20
11.7015
 30
0.0000
  0
SEQEND
  8
0
  0
POLYLINE
  8
25
 66
1
 10
0.0000
 20
0.0000
 30
0.0000
 40
0.0762
 41
0.0762
 70
0
  0
VERTEX
  8
25
 10
8.9281
 20
11.2100
 30
0.0000
  0
VERTEX
  8
25
 10
9.0510
 20
11.0871
 30
0.0000
  0
SEQEND
  8
0
  0
POLYLINE
  8
25
 66
1
 10
0.0000
 20
0.0000
 30
0.0000
 40
0.0381
 41
0.0381
 70
0
  0
VERTEX
  8
25
 10
9.0375
 20
11.0736
 30
0.0000
 42
1.0000
  0
VERTEX
  8
25
 10
9.0644
 20
11.1006
 30
0.0000
  0
SEQEND
  8
0
  0
POLYLINE
  8
25
 66
1
 10
0.0000
 20
0.0000
 30
0.0000
 40
0.0381
 41
0.0381
 70
0
  0
VERTEX
  8
25
 10
8.9416
 20
11.2234
 30
0.0000
 42
1.0000
  0
VERTEX
  8
25
 10
8.9146
 20
11.1965
 30
0.0000
  0
SEQEND
  8
0
  0
POLYLINE
  8
25
 66
1
 10
0.0000
 20
0.0000
 30
0.0000
 40
0.0762
 41
0.0762
 70
0
  0
VERTEX
  8
25
 10
9.0510
 20
11.0871
 30
0.0000
  0
VERTEX
  8
25
 10
9.2967
 20
11.0871
 30
0.0000
  0
SEQEND
  8
0
  0
POLYLINE
  8
25
 66
1
 10
0.0000
 20
0.0000
 30
0.0000
 40
0.0381
 41
0.0381
 70
0
  0
VERTEX
  8
25
 10
9.2967
 20
11.0681
 30
0.0000
 42
1.0000
  0
VERTEX
  8
25
 10
9.2967
 20
11.1062
 30
0.0000
  0
SEQEND
  8
0
  0
POLYLINE
  8
25
 66
1
 10
0.0000
 20
0.0000
 30
0.0000
 40
0.0381
 41
0.0381
 70
0
  0
VERTEX
  8
25
 10
9.0510
 20
11.1062
 30
0.0000
 42
1.0000
  0
VERTEX
  8
25
 10
9.0510
 20
11.0681
 30
0.0000
  0
SEQEND
  8
0
  0
POLYLINE
  8
25
 66
1
 10
0.0000
 20
0.0000
 30
0.0000
 40
0.0762
 41
0.0762
 70
0
  0
VERTEX
  8
25
 10
9.2967
 20
11.0871
 30
0.0000
  0
VERTEX
  8
25
 10
9.4196
 20
11.2100
 30
0.0000
  0
SEQEND
  8
0
  0
POLYLINE
  8
25
 66
1
 10
0.0000
 20
0.0000
 30
0.0000
 40
0.0381
 41
0.0381
 70
0
  0
VERTEX
  8
25
 10
9.4331
 20
11.1965
 30
0.0000
 42
1.0000
  0
VERTEX
  8
25
 10
9.4061
 20
11.2234
 30
0.0000
  0
SEQEND
  8
0
  0
POLYLINE
  8
25
 66
1
 10
0.0000
 20
0.0000
 30
0.0000
 40
0.0381
 41
0.0381
 70
0
  0
VERTEX
  8
25
 10
9.2832
 20
11.1006
 30
0.0000
 42
1.0000
  0
VERTEX
  8
25
 10
9.3102
 20
11.0736
 30
0.0000
  0
SEQEND
  8
0
  0
POLYLINE
  8
25
 66
1
 10
0.0000
 20
0.0000
 30
0.0000
 40
0.0762
 41
0.0762
 70
0
  0
VERTEX
  8
25
 10
9.4196
 20
11.2100
 30
0.0000
  0
VERTEX
  8
25
 10
9.4196
 20
11.4557
 30
0.0000
  0
SEQEND
  8
0
  0
POLYLINE
  8
25
 66
1
 10
0.0000
 20
0.0000
 30
0.0000
 40
0.0381
 41
0.0381
 70
0
  0
VERTEX
  8
25
 10
9.4386
 20
11.4557
 30
0.0000
 42
1.0000
  0
VERTEX
  8
25
 10
9.4005
 20
11.4557
 30
0.0000
  0
SEQEND
  8
0
  0
POLYLINE
  8
25
 66
1
 10
0.0000
 20
0.0000
 30
0.0000
 40
0.0381
 41
0.0381
 70
0
  0
VERTEX
  8
25
 10
9.4005
 20
11.2100
 30
0.0000
 42
1.0000
  0
VERTEX
  8
25
 10
9.4386
 20
11.2100
 30
0.0000
  0
SEQEND
  8
0
  0
POLYLINE
  8
25
 66
1
 10
0.0000
 20
0.0000
 30
0.0000
 40
0.0762
 41
0.0762
 70
0
  0
VERTEX
  8
25
 10
9.4196
 20
11.4557
 30
0.0000
  0
VERTEX
  8
25
 10
9.1738
 20
11.4557
 30
0.0000
  0
SEQEND
  8
0
  0
POLYLINE
  8
25
 66
1
 10
0.0000
 20
0.0000
 30
0.0000
 40
0.0381
 41
0.0381
 70
0
  0
VERTEX
  8
25
 10
9.1738
 20
11.4748
 30
0.0000
 42
1.0000
  0
VERTEX
  8
25
 10
9.1738
 20
11.4367
 30
0.0000
  0
SEQEND
  8
0
  0
POLYLINE
  8
25
 66
1
 10
0.0000
 20
0.0000
 30
0.0000
 40
0.0381
 41
0.0381
 70
0
  0
VERTEX
  8
25
 10
9.4196
 20
11.4367
 30
0.0000
 42
1.0000
  0
VERTEX
  8
25
 10
9.4196
 20
11.4748
 30
0.0000
  0
SEQEND
  8
0
  0
POLYLINE
  8
25
 66
1
 10
0.0000
 20
0.0000
 30
0.0000
 40
0.0762
 41
0.0762
 70
0
  0
VERTEX
  8
25
 10
9.6765
 20
11.0871
 30
0.0000
  0
VERTEX
  8
25
 10
9.6765
 20
11.8243
 30
0.0000
  0
SEQEND
  8
0
  0
POLYLINE
  8
25
 66
1
 10
0.0000
 20
0.0000
 30
0.0000
 40
0.0381
 41
0.0381
 70
0
  0
VERTEX
  8
25
 10
9.6956
 20
11.8243
 30
0.0000
 42
1.0000
  0
VERTEX
  8
25
 10
9.6575
 20
11.8243
 30
0.0000
  0
SEQEND
  8
0
  0
POLYLINE
  8
25
 66
1
 10
0.0000
 20
0.0000
 30
0.0000
 40
0.0381
 41
0.0381
 70
0
  0
VERTEX
  8
25
 10
9.6575
 20
11.0871
 30
0.0000
 42
1.0000
  0
VERTEX
  8
25
 10
9.6956
 20
11.0871
 30
0.0000
  0
SEQEND
  8
0
  0
POLYLINE
  8
25
 66
1
 10
0.0000
 20
0.0000
 30
0.0000
 40
0.0762
 41
0.0762
 70
0
  0
VERTEX
  8
25
 10
9.6765
 20
11.8243
 30
0.0000
  0
VERTEX
  8
25
 10
10.1680
 20
11.0871
 30
0.0000
  0
SEQEND
  8
0
  0
POLYLINE
  8
25
 66
1
 10
0.0000
 20
0.0000
 30
0.0000
 40
0.0381
 41
0.0381
 70
0
  0
VERTEX
  8
25
 10
10.1521
 20
11.0765
 30
0.0000
 42
1.0000
  0
VERTEX
  8
25
 10
10.1839
 20
11.0977
 30
0.0000
  0
SEQEND
  8
0
  0
POLYLINE
  8
25
 66
1
 10
0.0000
 20
0.0000
 30
0.0000
 40
0.0381
 41
0.0381
 70
0
  0
VERTEX
  8
25
 10
9.6924
 20
11.8349
 30
0.0000
 42
1.0000
  0
VERTEX
  8
25
 10
9.6607
 20
11.8138
 30
0.0000
  0
SEQEND
  8
0
  0
POLYLINE
  8
25
 66
1
 10
0.0000
 20
0.0000
 30
0.0000
 40
0.0762
 41
0.0762
 70
0
  0
VERTEX
  8
25
 10
10.1680
 20
11.0871
 30
0.0000
  0
VERTEX
  8
25
 10
10.1680
 20
11.8243
 30
0.0000
  0
SEQEND
  8
0
  0
POLYLINE
  8
25
 66
1
 10
0.0000
 20
0.0000
 30
0.0000
 40
0.0381
 41
0.0381
 70
0
  0
VERTEX
  8
25
 10
10.1871
 20
11.8243
 30
0.0000
 42
1.0000
  0
VERTEX
  8
25
 10
10.1490
 20
11.8243
 30
0.0000
  0
SEQEND
  8
0
  0
POLYLINE
  8
25
 66
1
 10
0.0000
 20
0.0000
 30
0.0000
 40
0.0381
 41
0.0381
 70
0
  0
VERTEX
  8
25
 10
10.1490
 20
11.0871
 30
0.0000
 42
1.0000
  0
VERTEX
  8
25
 10
10.1871
 20
11.0871
 30
0.0000
  0
SEQEND
  8
0
  0
POLYLINE
  8
25
 66
1
 10
0.0000
 20
0.0000
 30
0.0000
 40
0.0762
 41
0.0762
 70
0
  0
VERTEX
  8
25
 10
10.4249
 20
11.8243
 30
0.0000
  0
VERTEX
  8
25
 10
10.4249
 20
11.0871
 30
0.0000
  0
SEQEND
  8
0
  0
POLYLINE
  8
25
 66
1
 10
0.0000
 20
0.0000
 30
0.0000
 40
0.0381
 41
0.0381
 70
0
  0
VERTEX
  8
25
 10
10.4059
 20
11.0871
 30
0.0000
 42
1.0000
  0
VERTEX
  8
25
 10
10.4440
 20
11.0871
 30
0.0000
  0
SEQEND
  8
0
  0
POLYLINE
  8
25
 66
1
 10
0.0000
 20
0.0000
 30
0.0000
 40
0.0381
 41
0.0381
 70
0
  0
VERTEX
  8
25
 10
10.4440
 20
11.8243
 30
0.0000
 42
1.0000
  0
VERTEX
  8
25
 10
10.4059
 20
11.8243
 30
0.0000
  0
SEQEND
  8
0
  0
POLYLINE
  8
25
 66
1
 10
0.0000
 20
0.0000
 30
0.0000
 40
0.0762
 41
0.0762
 70
0
  0
VERTEX
  8
25
 10
10.4249
 20
11.0871
 30
0.0000
  0
VERTEX
  8
25
 10
10.7935
 20
11.0871
 30
0.0000
  0
SEQEND
  8
0
  0
POLYLINE
  8
25
 66
1
 10
0.0000
 20
0.0000
 30
0.0000
 40
0.0381
 41
0.0381
 70
0
  0
VERTEX
  8
25
 10
10.7935
 20
11.0681
 30
0.0000
 42
1.0000
  0
VERTEX
  8
25
 10
10.7935
 20
11.1062
 30
0.0000
  0
SEQEND
  8
0
  0
POLYLINE
  8
25
 66
1
 10
0.0000
 20
0.0000
 30
0.0000
 40
0.0381
 41
0.0381
 70
0
  0
VERTEX
  8
25
 10
10.4249
 20
11.1062
 30
0.0000
 42
1.0000
  0
VERTEX
  8
25
 10
10.4249
 20
11.0681
 30
0.0000
  0
SEQEND
  8
0
  0
POLYLINE
  8
25
 66
1
 10
0.0000
 20
0.0000
 30
0.0000
 40
0.0762
 41
0.0762
 70
0
  0
VERTEX
  8
25
 10
10.7935
 20
11.0871
 30
0.0000
  0
VERTEX
  8
25
 10
10.9164
 20
11.2100
 30
0.0000
  0
SEQEND
  8
0
  0
POLYLINE
  8
25
 66
1
 10
0.0000
 20
0.0000
 30
0.0000
 40
0.0381
 41
0.0381
 70
0
  0
VERTEX
  8
25
 10
10.9299
 20
11.1965
 30
0.0000
 42
1.0000
  0
VERTEX
  8
25
 10
10.9029
 20
11.2234
 30
0.0000
  0
SEQEND
  8
0
  0
POLYLINE
  8
25
 66
1
 10
0.0000
 20
0.0000
 30
0.0000
 40
0.0381
 41
0.0381
 70
0
  0
VERTEX
  8
25
 10
10.7801
 20
11.1006
 30
0.0000
 42
1.0000
  0
VERTEX
  8
25
 10
10.8070
 20
11.0736
 30
0.0000
  0
SEQEND
  8
0
  0
POLYLINE
  8
25
 66
1
 10
0.0000
 20
0.0000
 30
0.0000
 40
0.0762
 41
0.0762
 70
0
  0
VERTEX
  8
25
 10
10.9164
 20
11.2100
 30
0.0000
  0
VERTEX
  8
25
 10
10.9164
 20
11.7015
 30
0.0000
  0
SEQEND
  8
0
  0
POLYLINE
  8
25
 66
1
 10
0.0000
 20
0.0000
 30
0.0000
 40
0.0381
 41
0.0381
 70
0
  0
VERTEX
  8
25
 10
10.9355
 20
11.7015
 30
0.0000
 42
1.0000
  0
VERTEX
  8
25
 10
10.8974
 20
11.7015
 30
0.0000
  0
SEQEND
  8
0
  0
POLYLINE
  8
25
 66
1
 10
0.0000
 20
0.0000
 30
0.0000
 40
0.0381
 41
0.0381
 70
0
  0
VERTEX
  8
25
 10
10.8974
 20
11.2100
 30
0.0000
 42
1.0000
  0
VERTEX
  8
25
 10
10.9355
 20
11.2100
 30
0.0000
  0
SEQEND
  8
0
  0
POLYLINE
  8
25
 66
1
 10
0.0000
 20
0.0000
 30
0.0000
 40
0.0762
 41
0.0762
 70
0
  0
VERTEX
  8
25
 10
10.9164
 20
11.7015
 30
0.0000
  0
VERTEX
  8
25
 10
10.7935
 20
11.8243
 30
0.0000
  0
SEQEND
  8
0
  0
POLYLINE
  8
25
 66
1
 10
0.0000
 20
0.0000
 30
0.0000
 40
0.0381
 41
0.0381
 70
0
  0
VERTEX
  8
25
 10
10.8070
 20
11.8378
 30
0.0000
 42
1.0000
  0
VERTEX
  8
25
 10
10.7801
 20
11.8109
 30
0.0000
  0
SEQEND
  8
0
  0
POLYLINE
  8
25
 66
1
 10
0.0000
 20
0.0000
 30
0.0000
 40
0.0381
 41
0.0381
 70
0
  0
VERTEX
  8
25
 10
10.9029
 20
11.6880
 30
0.0000
 42
1.0000
  0
VERTEX
  8
25
 10
10.9299
 20
11.7149
 30
0.0000
  0
SEQEND
  8
0
  0
POLYLINE
  8
25
 66
1
 10
0.0000
 20
0.0000
 30
0.0000
 40
0.0762
 41
0.0762
 70
0
  0
VERTEX
  8
25
 10
10.7935
 20
11.8243
 30
0.0000
  0
VERTEX
  8
25
 10
10.4249
 20
11.8243
 30
0.0000
  0
SEQEND
  8
0
  0
POLYLINE
  8
25
 66
1
 10
0.0000
 20
0.0000
 30
0.0000
 40
0.0381
 41
0.0381
 70
0
  0
VERTEX
  8
25
 10
10.4249
 20
11.8434
 30
0.0000
 42
1.0000
  0
VERTEX
  8
25
 10
10.4249
 20
11.8053
 30
0.0000
  0
SEQEND
  8
0
  0
POLYLINE
  8
25
 66
1
 10
0.0000
 20
0.0000
 30
0.0000
 40
0.0381
 41
0.0381
 70
0
  0
VERTEX
  8
25
 10
10.7935
 20
11.8053
 30
0.0000
 42
1.0000
  0
VERTEX
  8
25
 10
10.7935
 20
11.8434
 30
0.0000
  0
SEQEND
  8
0
  0
POLYLINE
  8
25
 66
1
 10
0.0000
 20
0.0000
 30
0.0000
 40
0.0762
 41
0.0762
 70
0
  0
VERTEX
  8
25
 10
3.2131
 20
10.3003
 30
0.0000
  0
VERTEX
  8
25
 10
3.2131
 20
9.5631
 30
0.0000
  0
SEQEND
  8
0
  0
POLYLINE
  8
25
 66
1
 10
0.0000
 20
0.0000
 30
0.0000
 40
0.0381
 41
0.0381
 70
0
  0
VERTEX
  8
25
 10
3.1941
 20
9.5631
 30
0.0000
 42
1.0000
  0
VERTEX
  8
25
 10
3.2322
 20
9.5631
 30
0.0000
  0
SEQEND
  8
0
  0
POLYLINE
  8
25
 66
1
 10
0.0000
 20
0.0000
 30
0.0000
 40
0.0381
 41
0.0381
 70
0
  0
VERTEX
  8
25
 10
3.2322
 20
10.3003
 30
0.0000
 42
1.0000
  0
VERTEX
  8
25
 10
3.1941
 20
10.3003
 30
0.0000
  0
SEQEND
  8
0
  0
POLYLINE
  8
25
 66
1
 10
0.0000
 20
0.0000
 30
0.0000
 40
0.0762
 41
0.0762
 70
0
  0
VERTEX
  8
25
 10
3.2131
 20
9.5631
 30
0.0000
  0
VERTEX
  8
25
 10
3.5817
 20
9.5631
 30
0.0000
  0
SEQEND
  8
0
  0
POLYLINE
  8
25
 66
1
 10
0.0000
 20
0.0000
 30
0.0000
 40
0.0381
 41
0.0381
 70
0
  0
VERTEX
  8
25
 10
3.5817
 20
9.5441
 30
0.0000
 42
1.0000
  0
VERTEX
  8
25
 10
3.5817
 20
9.5822
 30
0.0000
  0
SEQEND
  8
0
  0
POLYLINE
  8
25
 66
1
 10
0.0000
 20
0.0000
 30
0.0000
 40
0.0381
 41
0.0381
 70
0
  0
VERTEX
  8
25
 10
3.2131
 20
9.5822
 30
0.0000
 42
1.0000
  0
VERTEX
  8
25
 10
3.2131
 20
9.5441
 30
0.0000
  0
SEQEND
  8
0
  0
POLYLINE
  8
25
 66
1
 10
0.0000
 20
0.0000
 30
0.0000
 40
0.0762
 41
0.0762
 70
0
  0
VERTEX
  8
25
 10
3.5817
 20
9.5631
 30
0.0000
  0
VERTEX
  8
25
 10
3.7046
 20
9.6860
 30
0.0000
  0
SEQEND
  8
0
  0
POLYLINE
  8
25
 66
1
 10
0.0000
 20
0.0000
 30
0.0000
 40
0.0381
 41
0.0381
 70
0
  0
VERTEX
  8
25
 10
3.7181
 20
9.6725
 30
0.0000
 42
1.0000
  0
VERTEX
  8
25
 10
3.6911
 20
9.6994
 30
0.0000
  0
SEQEND
  8
0
  0
POLYLINE
  8
25
 66
1
 10
0.0000
 20
0.0000
 30
0.0000
 40
0.0381
 41
0.0381
 70
0
  0
VERTEX
  8
25
 10
3.5682
 20
9.5766
 30
0.0000
 42
1.0000
  0
VERTEX
  8
25
 10
3.5952
 20
9.5496
 30
0.0000
  0
SEQEND
  8
0
  0
POLYLINE
  8
25
 66
1
 10
0.0000
 20
0.0000
 30
0.0000
 40
0.0762
 41
0.0762
 70
0
  0
VERTEX
  8
25
 10
3.7046
 20
9.6860
 30
0.0000
  0
VERTEX
  8
25
 10
3.7046
 20
10.1775
 30
0.0000
  0
SEQEND
  8
0
  0
POLYLINE
  8
25
 66
1
 10
0.0000
 20
0.0000
 30
0.0000
 40
0.0381
 41
0.0381
 70
0
  0
VERTEX
  8
25
 10
3.7236
 20
10.1775
 30
0.0000
 42
1.0000
  0
VERTEX
  8
25
 10
3.6855
 20
10.1775
 30
0.0000
  0
SEQEND
  8
0
  0
POLYLINE
  8
25
 66
1
 10
0.0000
 20
0.0000
 30
0.0000
 40
0.0381
 41
0.0381
 70
0
  0
VERTEX
  8
25
 10
3.6855
 20
9.6860
 30
0.0000
 42
1.0000
  0
VERTEX
  8
25
 10
3.7236
 20
9.6860
 30
0.0000
  0
SEQEND
  8
0
  0
POLYLINE
  8
25
 66
1
 10
0.0000
 20
0.0000
 30
0.0000
 40
0.0762
 41
0.0762
 70
0
  0
VERTEX
  8
25
 10
3.7046
 20
10.1775
 30
0.0000
  0
VERTEX
  8
25
 10
3.5817
 20
10.3003
 30
0.0000
  0
SEQEND
  8
0
  0
POLYLINE
  8
25
 66
1
 10
0.0000
 20
0.0000
 30
0.0000
 40
0.0381
 41
0.0381
 70
0
  0
VERTEX
  8
25
 10
3.5952
 20
10.3138
 30
0.0000
 42
1.0000
  0
VERTEX
  8
25
 10
3.5682
 20
10.2869
 30
0.0000
  0
SEQEND
  8
0
  0
POLYLINE
  8
25
 66
1
 10
0.0000
 20
0.0000
 30
0.0000
 40
0.0381
 41
0.0381
 70
0
  0
VERTEX
  8
25
 10
3.6911
 20
10.1640
 30
0.0000
 42
1.0000
  0
VERTEX
  8
25
 10
3.7181
 20
10.1909
 30
0.0000
  0
SEQEND
  8
0
  0
POLYLINE
  8
25
 66
1
 10
0.0000
 20
0.0000
 30
0.0000
 40
0.0762
 41
0.0762
 70
0
  0
VERTEX
  8
25
 10
3.5817
 20
10.3003
 30
0.0000
  0
VERTEX
  8
25
 10
3.2131
 20
10.3003
 30
0.0000
  0
SEQEND
  8
0
  0
POLYLINE
  8
25
 66
1
 10
0.0000
 20
0.0000
 30
0.0000
 40
0.0381
 41
0.0381
 70
0
  0
VERTEX
  8
25
 10
3.2131
 20
10.3194
 30
0.0000
 42
1.0000
  0
VERTEX
  8
25
 10
3.2131
 20
10.2813
 30
0.0000
  0
SEQEND
  8
0
  0
POLYLINE
  8
25
 66
1
 10
0.0000
 20
0.0000
 30
0.0000
 40
0.0381
 41
0.0381
 70
0
  0
VERTEX
  8
25
 10
3.5817
 20
10.2813
 30
0.0000
 42
1.0000
  0
VERTEX
  8
25
 10
3.5817
 20
10.3194
 30
0.0000
  0
SEQEND
  8
0
  0
POLYLINE
  8
25
 66
1
 10
0.0000
 20
0.0000
 30
0.0000
 40
0.0762
 41
0.0762
 70
0
  0
VERTEX
  8
25
 10
3.9615
 20
9.9317
 30
0.0000
  0
VERTEX
  8
25
 10
4.4530
 20
9.9317
 30
0.0000
  0
SEQEND
  8
0
  0
POLYLINE
  8
25
 66
1
 10
0.0000
 20
0.0000
 30
0.0000
 40
0.0381
 41
0.0381
 70
0
  0
VERTEX
  8
25
 10
4.4530
 20
9.9127
 30
0.0000
 42
1.0000
  0
VERTEX
  8
25
 10
4.4530
 20
9.9508
 30
0.0000
  0
SEQEND
  8
0
  0
POLYLINE
  8
25
 66
1
 10
0.0000
 20
0.0000
 30
0.0000
 40
0.0381
 41
0.0381
 70
0
  0
VERTEX
  8
25
 10
3.9615
 20
9.9508
 30
0.0000
 42
1.0000
  0
VERTEX
  8
25
 10
3.9615
 20
9.9127
 30
0.0000
  0
SEQEND
  8
0
  0
POLYLINE
  8
25
 66
1
 10
0.0000
 20
0.0000
 30
0.0000
 40
0.0762
 41
0.0762
 70
0
  0
VERTEX
  8
25
 10
4.2073
 20
10.1775
 30
0.0000
  0
VERTEX
  8
25
 10
4.2073
 20
9.6860
 30
0.0000
  0
SEQEND
  8
0
  0
POLYLINE
  8
25
 66
1
 10
0.0000
 20
0.0000
 30
0.0000
 40
0.0381
 41
0.0381
 70
0
  0
VERTEX
  8
25
 10
4.1882
 20
9.6860
 30
0.0000
 42
1.0000
  0
VERTEX
  8
25
 10
4.2263
 20
9.6860
 30
0.0000
  0
SEQEND
  8
0
  0
POLYLINE
  8
25
 66
1
 10
0.0000
 20
0.0000
 30
0.0000
 40
0.0381
 41
0.0381
 70
0
  0
VERTEX
  8
25
 10
4.2263
 20
10.1775
 30
0.0000
 42
1.0000
  0
VERTEX
  8
25
 10
4.1882
 20
10.1775
 30
0.0000
  0
SEQEND
  8
0
  0
POLYLINE
  8
25
 66
1
 10
0.0000
 20
0.0000
 30
0.0000
 40
0.0762
 41
0.0762
 70
0
  0
VERTEX
  8
25
 10
5.4583
 20
9.5631
 30
0.0000
  0
VERTEX
  8
25
 10
5.9498
 20
10.3003
 30
0.0000
  0
SEQEND
  8
0
  0
POLYLINE
  8
25
 66
1
 10
0.0000
 20
0.0000
 30
0.0000
 40
0.0381
 41
0.0381
 70
0
  0
VERTEX
  8
25
 10
5.9657
 20
10.2898
 30
0.0000
 42
1.0000
  0
VERTEX
  8
25
 10
5.9340
 20
10.3109
 30
0.0000
  0
SEQEND
  8
0
  0
POLYLINE
  8
25
 66
1
 10
0.0000
 20
0.0000
 30
0.0000
 40
0.0381
 41
0.0381
 70
0
  0
VERTEX
  8
25
 10
5.4425
 20
9.5737
 30
0.0000
 42
1.0000
  0
VERTEX
  8
25
 10
5.4742
 20
9.5525
 30
0.0000
  0
SEQEND
  8
0
  0
POLYLINE
  8
25
 66
1
 10
0.0000
 20
0.0000
 30
0.0000
 40
0.0762
 41
0.0762
 70
0
  0
VERTEX
  8
25
 10
6.9552
 20
9.5631
 30
0.0000
  0
VERTEX
  8
25
 10
7.2009
 20
9.5631
 30
0.0000
  0
SEQEND
  8
0
  0
POLYLINE
  8
25
 66
1
 10
0.0000
 20
0.0000
 30
0.0000
 40
0.0381
 41
0.0381
 70
0
  0
VERTEX
  8
25
 10
7.2009
 20
9.5441
 30
0.0000
 42
1.0000
  0
VERTEX
  8
25
 10
7.2009
 20
9.5822
 30
0.0000
  0
SEQEND
  8
0
  0
POLYLINE
  8
25
 66
1
 10
0.0000
 20
0.0000
 30
0.0000
 40
0.0381
 41
0.0381
 70
0
  0
VERTEX
  8
25
 10
6.9552
 20
9.5822
 30
0.0000
 42
1.0000
  0
VERTEX
  8
25
 10
6.9552
 20
9.5441
 30
0.0000
  0
SEQEND
  8
0
  0
POLYLINE
  8
25
 66
1
 10
0.0000
 20
0.0000
 30
0.0000
 40
0.0762
 41
0.0762
 70
0
  0
VERTEX
  8
25
 10
7.0780
 20
9.5631
 30
0.0000
  0
VERTEX
  8
25
 10
7.0780
 20
10.3003
 30
0.0000
  0
SEQEND
  8
0
  0
POLYLINE
  8
25
 66
1
 10
0.0000
 20
0.0000
 30
0.0000
 40
0.0381
 41
0.0381
 70
0
  0
VERTEX
  8
25
 10
7.0971
 20
10.3003
 30
0.0000
 42
1.0000
  0
VERTEX
  8
25
 10
7.0590
 20
10.3003
 30
0.0000
  0
SEQEND
  8
0
  0
POLYLINE
  8
25
 66
1
 10
0.0000
 20
0.0000
 30
0.0000
 40
0.0381
 41
0.0381
 70
0
  0
VERTEX
  8
25
 10
7.0590
 20
9.5631
 30
0.0000
 42
1.0000
  0
VERTEX
  8
25
 10
7.0971
 20
9.5631
 30
0.0000
  0
SEQEND
  8
0
  0
POLYLINE
  8
25
 66
1
 10
0.0000
 20
0.0000
 30
0.0000
 40
0.0762
 41
0.0762
 70
0
  0
VERTEX
  8
25
 10
6.9552
 20
10.3003
 30
0.0000
  0
VERTEX
  8
25
 10
7.2009
 20
10.3003
 30
0.0000
  0
SEQEND
  8
0
  0
POLYLINE
  8
25
 66
1
 10
0.0000
 20
0.0000
 30
0.0000
 40
0.0381
 41
0.0381
 70
0
  0
VERTEX
  8
25
 10
7.2009
 20
10.2813
 30
0.0000
 42
1.0000
  0
VERTEX
  8
25
 10
7.2009
 20
10.3194
 30
0.0000
  0
SEQEND
  8
0
  0
POLYLINE
  8
25
 66
1
 10
0.0000
 20
0.0000
 30
0.0000
 40
0.0381
 41
0.0381
 70
0
  0
VERTEX
  8
25
 10
6.9552
 20
10.3194
 30
0.0000
 42
1.0000
  0
VERTEX
  8
25
 10
6.9552
 20
10.2813
 30
0.0000
  0
SEQEND
  8
0
  0
POLYLINE
  8
25
 66
1
 10
0.0000
 20
0.0000
 30
0.0000
 40
0.0762
 41
0.0762
 70
0
  0
VERTEX
  8
25
 10
7.4541
 20
9.5631
 30
0.0000
  0
VERTEX
  8
25
 10
7.4541
 20
10.3003
 30
0.0000
  0
SEQEND
  8
0
  0
POLYLINE
  8
25
 66
1
 10
0.0000
 20
0.0000
 30
0.0000
 40
0.0381
 41
0.0381
 70
0
  0
VERTEX
  8
25
 10
7.4732
 20
10.3003
 30
0.0000
 42
1.0000
  0
VERTEX
  8
25
 10
7.4351
 20
10.3003
 30
0.0000
  0
SEQEND
  8
0
  0
POLYLINE
  8
25
 66
1
 10
0.0000
 20
0.0000
 30
0.0000
 40
0.0381
 41
0.0381
 70
0
  0
VERTEX
  8
25
 10
7.4351
 20
9.5631
 30
0.0000
 42
1.0000
  0
VERTEX
  8
25
 10
7.4732
 20
9.5631
 30
0.0000
  0
SEQEND
  8
0
  0
POLYLINE
  8
25
 66
1
 10
0.0000
 20
0.0000
 30
0.0000
 40
0.0762
 41
0.0762
 70
0
  0
VERTEX
  8
25
 10
7.4541
 20
10.3003
 30
0.0000
  0
VERTEX
  8
25
 10
7.9456
 20
9.5631
 30
0.0000
  0
SEQEND
  8
0
  0
POLYLINE
  8
25
 66
1
 10
0.0000
 20
0.0000
 30
0.0000
 40
0.0381
 41
0.0381
 70
0
  0
VERTEX
  8
25
 10
7.9298
 20
9.5525
 30
0.0000
 42
1.0000
  0
VERTEX
  8
25
 10
7.9615
 20
9.5737
 30
0.0000
  0
SEQEND
  8
0
  0
POLYLINE
  8
25
 66
1
 10
0.0000
 20
0.0000
 30
0.0000
 40
0.0381
 41
0.0381
 70
0
  0
VERTEX
  8
25
 10
7.4700
 20
10.3109
 30
0.0000
 42
1.0000
  0
VERTEX
  8
25
 10
7.4383
 20
10.2898
 30
0.0000
  0
SEQEND
  8
0
  0
POLYLINE
  8
25
 66
1
 10
0.0000
 20
0.0000
 30
0.0000
 40
0.0762
 41
0.0762
 70
0
  0
VERTEX
  8
25
 10
7.9456
 20
9.5631
 30
0.0000
  0
VERTEX
  8
25
 10
7.9456
 20
10.3003
 30
0.0000
  0
SEQEND
  8
0
  0
POLYLINE
  8
25
 66
1
 10
0.0000
 20
0.0000
 30
0.0000
 40
0.0381
 41
0.0381
 70
0
  0
VERTEX
  8
25
 10
7.9647
 20
10.3003
 30
0.0000
 42
1.0000
  0
VERTEX
  8
25
 10
7.9266
 20
10.3003
 30
0.0000
  0
SEQEND
  8
0
  0
POLYLINE
  8
25
 66
1
 10
0.0000
 20
0.0000
 30
0.0000
 40
0.0381
 41
0.0381
 70
0
  0
VERTEX
  8
25
 10
7.9266
 20
9.5631
 30
0.0000
 42
1.0000
  0
VERTEX
  8
25
 10
7.9647
 20
9.5631
 30
0.0000
  0
SEQEND
  8
0
  0
POLYLINE
  8
25
 66
1
 10
0.0000
 20
0.0000
 30
0.0000
 40
0.0762
 41
0.0762
 70
0
  0
VERTEX
  8
25
 10
8.2025
 20
9.6860
 30
0.0000
  0
VERTEX
  8
25
 10
8.2025
 20
10.1775
 30
0.0000
  0
SEQEND
  8
0
  0
POLYLINE
  8
25
 66
1
 10
0.0000
 20
0.0000
 30
0.0000
 40
0.0381
 41
0.0381
 70
0
  0
VERTEX
  8
25
 10
8.2216
 20
10.1775
 30
0.0000
 42
1.0000
  0
VERTEX
  8
25
 10
8.1835
 20
10.1775
 30
0.0000
  0
SEQEND
  8
0
  0
POLYLINE
  8
25
 66
1
 10
0.0000
 20
0.0000
 30
0.0000
 40
0.0381
 41
0.0381
 70
0
  0
VERTEX
  8
25
 10
8.1835
 20
9.6860
 30
0.0000
 42
1.0000
  0
VERTEX
  8
25
 10
8.2216
 20
9.6860
 30
0.0000
  0
SEQEND
  8
0
  0
POLYLINE
  8
25
 66
1
 10
0.0000
 20
0.0000
 30
0.0000
 40
0.0762
 41
0.0762
 70
0
  0
VERTEX
  8
25
 10
8.2025
 20
10.1775
 30
0.0000
  0
VERTEX
  8
25
 10
8.3254
 20
10.3003
 30
0.0000
  0
SEQEND
  8
0
  0
POLYLINE
  8
25
 66
1
 10
0.0000
 20
0.0000
 30
0.0000
 40
0.0381
 41
0.0381
 70
0
  0
VERTEX
  8
25
 10
8.3389
 20
10.2869
 30
0.0000
 42
1.0000
  0
VERTEX
  8
25
 10
8.3119
 20
10.3138
 30
0.0000
  0
SEQEND
  8
0
  0
POLYLINE
  8
25
 66
1
 10
0.0000
 20
0.0000
 30
0.0000
 40
0.0381
 41
0.0381
 70
0
  0
VERTEX
  8
25
 10
8.1891
 20
10.1909
 30
0.0000
 42
1.0000
  0
VERTEX
  8
25
 10
8.2160
 20
10.1640
 30
0.0000
  0
SEQEND
  8
0
  0
POLYLINE
  8
25
 66
1
 10
0.0000
 20
0.0000
 30
0.0000
 40
0.0762
 41
0.0762
 70
0
  0
VERTEX
  8
25
 10
8.3254
 20
10.3003
 30
0.0000
  0
VERTEX
  8
25
 10
8.5712
 20
10.3003
 30
0.0000
  0
SEQEND
  8
0
  0
POLYLINE
  8
25
 66
1
 10
0.0000
 20
0.0000
 30
0.0000
 40
0.0381
 41
0.0381
 70
0
  0
VERTEX
  8
25
 10
8.5712
 20
10.2813
 30
0.0000
 42
1.0000
  0
VERTEX
  8
25
 10
8.5712
 20
10.3194
 30
0.0000
  0
SEQEND
  8
0
  0
POLYLINE
  8
25
 66
1
 10
0.0000
 20
0.0000
 30
0.0000
 40
0.0381
 41
0.0381
 70
0
  0
VERTEX
  8
25
 10
8.3254
 20
10.3194
 30
0.0000
 42
1.0000
  0
VERTEX
  8
25
 10
8.3254
 20
10.2813
 30
0.0000
  0
SEQEND
  8
0
  0
POLYLINE
  8
25
 66
1
 10
0.0000
 20
0.0000
 30
0.0000
 40
0.0762
 41
0.0762
 70
0
  0
VERTEX
  8
25
 10
8.5712
 20
10.3003
 30
0.0000
  0
VERTEX
  8
25
 10
8.6940
 20
10.1775
 30
0.0000
  0
SEQEND
  8
0
  0
POLYLINE
  8
25
 66
1
 10
0.0000
 20
0.0000
 30
0.0000
 40
0.0381
 41
0.0381
 70
0
  0
VERTEX
  8
25
 10
8.6806
 20
10.1640
 30
0.0000
 42
1.0000
  0
VERTEX
  8
25
 10
8.7075
 20
10.1909
 30
0.0000
  0
SEQEND
  8
0
  0
POLYLINE
  8
25
 66
1
 10
0.0000
 20
0.0000
 30
0.0000
 40
0.0381
 41
0.0381
 70
0
  0
VERTEX
  8
25
 10
8.5846
 20
10.3138
 30
0.0000
 42
1.0000
  0
VERTEX
  8
25
 10
8.5577
 20
10.2869
 30
0.0000
  0
SEQEND
  8
0
  0
POLYLINE
  8
25
 66
1
 10
0.0000
 20
0.0000
 30
0.0000
 40
0.0762
 41
0.0762
 70
0
  0
VERTEX
  8
25
 10
8.6940
 20
10.1775
 30
0.0000
  0
VERTEX
  8
25
 10
8.6940
 20
9.6860
 30
0.0000
  0
SEQEND
  8
0
  0
POLYLINE
  8
25
 66
1
 10
0.0000
 20
0.0000
 30
0.0000
 40
0.0381
 41
0.0381
 70
0
  0
VERTEX
  8
25
 10
8.6750
 20
9.6860
 30
0.0000
 42
1.0000
  0
VERTEX
  8
25
 10
8.7131
 20
9.6860
 30
0.0000
  0
SEQEND
  8
0
  0
POLYLINE
  8
25
 66
1
 10
0.0000
 20
0.0000
 30
0.0000
 40
0.0381
 41
0.0381
 70
0
  0
VERTEX
  8
25
 10
8.7131
 20
10.1775
 30
0.0000
 42
1.0000
  0
VERTEX
  8
25
 10
8.6750
 20
10.1775
 30
0.0000
  0
SEQEND
  8
0
  0
POLYLINE
  8
25
 66
1
 10
0.0000
 20
0.0000
 30
0.0000
 40
0.0762
 41
0.0762
 70
0
  0
VERTEX
  8
25
 10
8.6940
 20
9.6860
 30
0.0000
  0
VERTEX
  8
25
 10
8.5712
 20
9.5631
 30
0.0000
  0
SEQEND
  8
0
  0
POLYLINE
  8
25
 66
1
 10
0.0000
 20
0.0000
 30
0.0000
 40
0.0381
 41
0.0381
 70
0
  0
VERTEX
  8
25
 10
8.5577
 20
9.5766
 30
0.0000
 42
1.0000
  0
VERTEX
  8
25
 10
8.5846
 20
9.5496
 30
0.0000
  0
SEQEND
  8
0
  0
POLYLINE
  8
25
 66
1
 10
0.0000
 20
0.0000
 30
0.0000
 40
0.0381
 41
0.0381
 70
0
  0
VERTEX
  8
25
 10
8.7075
 20
9.6725
 30
0.0000
 42
1.0000
  0
VERTEX
  8
25
 10
8.6806
 20
9.6994
 30
0.0000
  0
SEQEND
  8
0
  0
POLYLINE
  8
25
 66
1
 10
0.0000
 20
0.0000
 30
0.0000
 40
0.0762
 41
0.0762
 70
0
  0
VERTEX
  8
25
 10
8.5712
 20
9.5631
 30
0.0000
  0
VERTEX
  8
25
 10
8.3254
 20
9.5631
 30
0.0000
  0
SEQEND
  8
0
  0
POLYLINE
  8
25
 66
1
 10
0.0000
 20
0.0000
 30
0.0000
 40
0.0381
 41
0.0381
 70
0
  0
VERTEX
  8
25
 10
8.3254
 20
9.5822
 30
0.0000
 42
1.0000
  0
VERTEX
  8
25
 10
8.3254
 20
9.5441
 30
0.0000
  0
SEQEND
  8
0
  0
POLYLINE
  8
25
 66
1
 10
0.0000
 20
0.0000
 30
0.0000
 40
0.0381
 41
0.0381
 70
0
  0
VERTEX
  8
25
 10
8.5712
 20
9.5441
 30
0.0000
 42
1.0000
  0
VERTEX
  8
25
 10
8.5712
 20
9.5822
 30
0.0000
  0
SEQEND
  8
0
  0
POLYLINE
  8
25
 66
1
 10
0.0000
 20
0.0000
 30
0.0000
 40
0.0762
 41
0.0762
 70
0
  0
VERTEX
  8
25
 10
8.3254
 20
9.5631
 30
0.0000
  0
VERTEX
  8
25
 10
8.2025
 20
9.6860
 30
0.0000
  0
SEQEND
  8
0
  0
POLYLINE
  8
25
 66
1
 10
0.0000
 20
0.0000
 30
0.0000
 40
0.0381
 41
0.0381
 70
0
  0
VERTEX
  8
25
 10
8.2160
 20
9.6994
 30
0.0000
 42
1.0000
  0
VERTEX
  8
25
 10
8.1891
 20
9.6725
 30
0.0000
  0
SEQEND
  8
0
  0
POLYLINE
  8
25
 66
1
 10
0.0000
 20
0.0000
 30
0.0000
 40
0.0381
 41
0.0381
 70
0
  0
VERTEX
  8
25
 10
8.3119
 20
9.5496
 30
0.0000
 42
1.0000
  0
VERTEX
  8
25
 10
8.3389
 20
9.5766
 30
0.0000
  0
SEQEND
  8
0
  0
POLYLINE
  8
25
 66
1
 10
0.0000
 20
0.0000
 30
0.0000
 40
0.0762
 41
0.0762
 70
0
  0
VERTEX
  8
25
 10
8.2025
 20
9.6860
 30
0.0000
  0
VERTEX
  8
25
 10
8.6940
 20
10.1775
 30
0.0000
  0
SEQEND
  8
0
  0
POLYLINE
  8
25
 66
1
 10
0.0000
 20
0.0000
 30
0.0000
 40
0.0381
 41
0.0381
 70
0
  0
VERTEX
  8
25
 10
8.7075
 20
10.1640
 30
0.0000
 42
1.0000
  0
VERTEX
  8
25
 10
8.6806
 20
10.1909
 30
0.0000
  0
SEQEND
  8
0
  0
POLYLINE
  8
25
 66
1
 10
0.0000
 20
0.0000
 30
0.0000
 40
0.0381
 41
0.0381
 70
0
  0
VERTEX
  8
25
 10
8.1891
 20
9.6994
 30
0.0000
 42
1.0000
  0
VERTEX
  8
25
 10
8.2160
 20
9.6725
 30
0.0000
  0
SEQEND
  8
0
  0
POLYLINE
  8
25
 66
1
 10
0.0000
 20
0.0000
 30
0.0000
 40
0.0762
 41
0.0762
 70
0
  0
VERTEX
  8
25
 10
3.4671
 20
8.2683
 30
0.0000
  0
VERTEX
  8
25
 10
3.4671
 20
7.5311
 30
0.0000
  0
SEQEND
  8
0
  0
POLYLINE
  8
25
 66
1
 10
0.0000
 20
0.0000
 30
0.0000
 40
0.0381
 41
0.0381
 70
0
  0
VERTEX
  8
25
 10
3.4481
 20
7.5311
 30
0.0000
 42
1.0000
  0
VERTEX
  8
25
 10
3.4862
 20
7.5311
 30
0.0000
  0
SEQEND
  8
0
  0
POLYLINE
  8
25
 66
1
 10
0.0000
 20
0.0000
 30
0.0000
 40
0.0381
 41
0.0381
 70
0
  0
VERTEX
  8
25
 10
3.4862
 20
8.2683
 30
0.0000
 42
1.0000
  0
VERTEX
  8
25
 10
3.4481
 20
8.2683
 30
0.0000
  0
SEQEND
  8
0
  0
POLYLINE
  8
25
 66
1
 10
0.0000
 20
0.0000
 30
0.0000
 40
0.0762
 41
0.0762
 70
0
  0
VERTEX
  8
25
 10
3.4671
 20
7.5311
 30
0.0000
  0
VERTEX
  8
25
 10
3.8357
 20
7.5311
 30
0.0000
  0
SEQEND
  8
0
  0
POLYLINE
  8
25
 66
1
 10
0.0000
 20
0.0000
 30
0.0000
 40
0.0381
 41
0.0381
 70
0
  0
VERTEX
  8
25
 10
3.8357
 20
7.5121
 30
0.0000
 42
1.0000
  0
VERTEX
  8
25
 10
3.8357
 20
7.5502
 30
0.0000
  0
SEQEND
  8
0
  0
POLYLINE
  8
25
 66
1
 10
0.0000
 20
0.0000
 30
0.0000
 40
0.0381
 41
0.0381
 70
0
  0
VERTEX
  8
25
 10
3.4671
 20
7.5502
 30
0.0000
 42
1.0000
  0
VERTEX
  8
25
 10
3.4671
 20
7.5121
 30
0.0000
  0
SEQEND
  8
0
  0
POLYLINE
  8
25
 66
1
 10
0.0000
 20
0.0000
 30
0.0000
 40
0.0762
 41
0.0762
 70
0
  0
VERTEX
  8
25
 10
3.8357
 20
7.5311
 30
0.0000
  0
VERTEX
  8
25
 10
3.9586
 20
7.6540
 30
0.0000
  0
SEQEND
  8
0
  0
POLYLINE
  8
25
 66
1
 10
0.0000
 20
0.0000
 30
0.0000
 40
0.0381
 41
0.0381
 70
0
  0
VERTEX
  8
25
 10
3.9721
 20
7.6405
 30
0.0000
 42
1.0000
  0
VERTEX
  8
25
 10
3.9451
 20
7.6674
 30
0.0000
  0
SEQEND
  8
0
  0
POLYLINE
  8
25
 66
1
 10
0.0000
 20
0.0000
 30
0.0000
 40
0.0381
 41
0.0381
 70
0
  0
VERTEX
  8
25
 10
3.8222
 20
7.5446
 30
0.0000
 42
1.0000
  0
VERTEX
  8
25
 10
3.8492
 20
7.5176
 30
0.0000
  0
SEQEND
  8
0
  0
POLYLINE
  8
25
 66
1
 10
0.0000
 20
0.0000
 30
0.0000
 40
0.0762
 41
0.0762
 70
0
  0
VERTEX
  8
25
 10
3.9586
 20
7.6540
 30
0.0000
  0
VERTEX
  8
25
 10
3.9586
 20
8.1455
 30
0.0000
  0
SEQEND
  8
0
  0
POLYLINE
  8
25
 66
1
 10
0.0000
 20
0.0000
 30
0.0000
 40
0.0381
 41
0.0381
 70
0
  0
VERTEX
  8
25
 10
3.9776
 20
8.1455
 30
0.0000
 42
1.0000
  0
VERTEX
  8
25
 10
3.9395
 20
8.1455
 30
0.0000
  0
SEQEND
  8
0
  0
POLYLINE
  8
25
 66
1
 10
0.0000
 20
0.0000
 30
0.0000
 40
0.0381
 41
0.0381
 70
0
  0
VERTEX
  8
25
 10
3.9395
 20
7.6540
 30
0.0000
 42
1.0000
  0
VERTEX
  8
25
 10
3.9776
 20
7.6540
 30
0.0000
  0
SEQEND
  8
0
  0
POLYLINE
  8
25
 66
1
 10
0.0000
 20
0.0000
 30
0.0000
 40
0.0762
 41
0.0762
 70
0
  0
VERTEX
  8
25
 10
3.9586
 20
8.1455
 30
0.0000
  0
VERTEX
  8
25
 10
3.8357
 20
8.2683
 30
0.0000
  0
SEQEND
  8
0
  0
POLYLINE
  8
25
 66
1
 10
0.0000
 20
0.0000
 30
0.0000
 40
0.0381
 41
0.0381
 70
0
  0
VERTEX
  8
25
 10
3.8492
 20
8.2818
 30
0.0000
 42
1.0000
  0
VERTEX
  8
25
 10
3.8222
 20
8.2549
 30
0.0000
  0
SEQEND
  8
0
  0
POLYLINE
  8
25
 66
1
 10
0.0000
 20
0.0000
 30
0.0000
 40
0.0381
 41
0.0381
 70
0
  0
VERTEX
  8
25
 10
3.9451
 20
8.1320
 30
0.0000
 42
1.0000
  0
VERTEX
  8
25
 10
3.9721
 20
8.1589
 30
0.0000
  0
SEQEND
  8
0
  0
POLYLINE
  8
25
 66
1
 10
0.0000
 20
0.0000
 30
0.0000
 40
0.0762
 41
0.0762
 70
0
  0
VERTEX
  8
25
 10
3.8357
 20
8.2683
 30
0.0000
  0
VERTEX
  8
25
 10
3.4671
 20
8.2683
 30
0.0000
  0
SEQEND
  8
0
  0
POLYLINE
  8
25
 66
1
 10
0.0000
 20
0.0000
 30
0.0000
 40
0.0381
 41
0.0381
 70
0
  0
VERTEX
  8
25
 10
3.4671
 20
8.2874
 30
0.0000
 42
1.0000
  0
VERTEX
  8
25
 10
3.4671
 20
8.2493
 30
0.0000
  0
SEQEND
  8
0
  0
POLYLINE
  8
25
 66
1
 10
0.0000
 20
0.0000
 30
0.0000
 40
0.0381
 41
0.0381
 70
0
  0
VERTEX
  8
25
 10
3.8357
 20
8.2493
 30
0.0000
 42
1.0000
  0
VERTEX
  8
25
 10
3.8357
 20
8.2874
 30
0.0000
  0
SEQEND
  8
0
  0
POLYLINE
  8
25
 66
1
 10
0.0000
 20
0.0000
 30
0.0000
 40
0.0762
 41
0.0762
 70
0
  0
VERTEX
  8
25
 10
4.2155
 20
7.8997
 30
0.0000
  0
VERTEX
  8
25
 10
4.7070
 20
7.8997
 30
0.0000
  0
SEQEND
  8
0
  0
POLYLINE
  8
25
 66
1
 10
0.0000
 20
0.0000
 30
0.0000
 40
0.0381
 41
0.0381
 70
0
  0
VERTEX
  8
25
 10
4.7070
 20
7.8807
 30
0.0000
 42
1.0000
  0
VERTEX
  8
25
 10
4.7070
 20
7.9188
 30
0.0000
  0
SEQEND
  8
0
  0
POLYLINE
  8
25
 66
1
 10
0.0000
 20
0.0000
 30
0.0000
 40
0.0381
 41
0.0381
 70
0
  0
VERTEX
  8
25
 10
4.2155
 20
7.9188
 30
0.0000
 42
1.0000
  0
VERTEX
  8
25
 10
4.2155
 20
7.8807
 30
0.0000
  0
SEQEND
  8
0
  0
POLYLINE
  8
25
 66
1
 10
0.0000
 20
0.0000
 30
0.0000
 40
0.0762
 41
0.0762
 70
0
  0
VERTEX
  8
25
 10
5.7123
 20
7.5311
 30
0.0000
  0
VERTEX
  8
25
 10
6.2038
 20
8.2683
 30
0.0000
  0
SEQEND
  8
0
  0
POLYLINE
  8
25
 66
1
 10
0.0000
 20
0.0000
 30
0.0000
 40
0.0381
 41
0.0381
 70
0
  0
VERTEX
  8
25
 10
6.2197
 20
8.2578
 30
0.0000
 42
1.0000
  0
VERTEX
  8
25
 10
6.1880
 20
8.2789
 30
0.0000
  0
SEQEND
  8
0
  0
POLYLINE
  8
25
 66
1
 10
0.0000
 20
0.0000
 30
0.0000
 40
0.0381
 41
0.0381
 70
0
  0
VERTEX
  8
25
 10
5.6965
 20
7.5417
 30
0.0000
 42
1.0000
  0
VERTEX
  8
25
 10
5.7282
 20
7.5205
 30
0.0000
  0
SEQEND
  8
0
  0
POLYLINE
  8
25
 66
1
 10
0.0000
 20
0.0000
 30
0.0000
 40
0.0762
 41
0.0762
 70
0
  0
VERTEX
  8
25
 10
7.2092
 20
7.5311
 30
0.0000
  0
VERTEX
  8
25
 10
7.4549
 20
7.5311
 30
0.0000
  0
SEQEND
  8
0
  0
POLYLINE
  8
25
 66
1
 10
0.0000
 20
0.0000
 30
0.0000
 40
0.0381
 41
0.0381
 70
0
  0
VERTEX
  8
25
 10
7.4549
 20
7.5121
 30
0.0000
 42
1.0000
  0
VERTEX
  8
25
 10
7.4549
 20
7.5502
 30
0.0000
  0
SEQEND
  8
0
  0
POLYLINE
  8
25
 66
1
 10
0.0000
 20
0.0000
 30
0.0000
 40
0.0381
 41
0.0381
 70
0
  0
VERTEX
  8
25
 10
7.2092
 20
7.5502
 30
0.0000
 42
1.0000
  0
VERTEX
  8
25
 10
7.2092
 20
7.5121
 30
0.0000
  0
SEQEND
  8
0
  0
POLYLINE
  8
25
 66
1
 10
0.0000
 20
0.0000
 30
0.0000
 40
0.0762
 41
0.0762
 70
0
  0
VERTEX
  8
25
 10
7.3320
 20
7.5311
 30
0.0000
  0
VERTEX
  8
25
 10
7.3320
 20
8.2683
 30
0.0000
  0
SEQEND
  8
0
  0
POLYLINE
  8
25
 66
1
 10
0.0000
 20
0.0000
 30
0.0000
 40
0.0381
 41
0.0381
 70
0
  0
VERTEX
  8
25
 10
7.3511
 20
8.2683
 30
0.0000
 42
1.0000
  0
VERTEX
  8
25
 10
7.3130
 20
8.2683
 30
0.0000
  0
SEQEND
  8
0
  0
POLYLINE
  8
25
 66
1
 10
0.0000
 20
0.0000
 30
0.0000
 40
0.0381
 41
0.0381
 70
0
  0
VERTEX
  8
25
 10
7.3130
 20
7.5311
 30
0.0000
 42
1.0000
  0
VERTEX
  8
25
 10
7.3511
 20
7.5311
 30
0.0000
  0
SEQEND
  8
0
  0
POLYLINE
  8
25
 66
1
 10
0.0000
 20
0.0000
 30
0.0000
 40
0.0762
 41
0.0762
 70
0
  0
VERTEX
  8
25
 10
7.2092
 20
8.2683
 30
0.0000
  0
VERTEX
  8
25
 10
7.4549
 20
8.2683
 30
0.0000
  0
SEQEND
  8
0
  0
POLYLINE
  8
25
 66
1
 10
0.0000
 20
0.0000
 30
0.0000
 40
0.0381
 41
0.0381
 70
0
  0
VERTEX
  8
25
 10
7.4549
 20
8.2493
 30
0.0000
 42
1.0000
  0
VERTEX
  8
25
 10
7.4549
 20
8.2874
 30
0.0000
  0
SEQEND
  8
0
  0
POLYLINE
  8
25
 66
1
 10
0.0000
 20
0.0000
 30
0.0000
 40
0.0381
 41
0.0381
 70
0
  0
VERTEX
  8
25
 10
7.2092
 20
8.2874
 30
0.0000
 42
1.0000
  0
VERTEX
  8
25
 10
7.2092
 20
8.2493
 30
0.0000
  0
SEQEND
  8
0
  0
POLYLINE
  8
25
 66
1
 10
0.0000
 20
0.0000
 30
0.0000
 40
0.0762
 41
0.0762
 70
0
  0
VERTEX
  8
25
 10
7.7081
 20
7.5311
 30
0.0000
  0
VERTEX
  8
25
 10
7.7081
 20
8.2683
 30
0.0000
  0
SEQEND
  8
0
  0
POLYLINE
  8
25
 66
1
 10
0.0000
 20
0.0000
 30
0.0000
 40
0.0381
 41
0.0381
 70
0
  0
VERTEX
  8
25
 10
7.7272
 20
8.2683
 30
0.0000
 42
1.0000
  0
VERTEX
  8
25
 10
7.6891
 20
8.2683
 30
0.0000
  0
SEQEND
  8
0
  0
POLYLINE
  8
25
 66
1
 10
0.0000
 20
0.0000
 30
0.0000
 40
0.0381
 41
0.0381
 70
0
  0
VERTEX
  8
25
 10
7.6891
 20
7.5311
 30
0.0000
 42
1.0000
  0
VERTEX
  8
25
 10
7.7272
 20
7.5311
 30
0.0000
  0
SEQEND
  8
0
  0
POLYLINE
  8
25
 66
1
 10
0.0000
 20
0.0000
 30
0.0000
 40
0.0762
 41
0.0762
 70
0
  0
VERTEX
  8
25
 10
7.7081
 20
8.2683
 30
0.0000
  0
VERTEX
  8
25
 10
8.1996
 20
7.5311
 30
0.0000
  0
SEQEND
  8
0
  0
POLYLINE
  8
25
 66
1
 10
0.0000
 20
0.0000
 30
0.0000
 40
0.0381
 41
0.0381
 70
0
  0
VERTEX
  8
25
 10
8.1838
 20
7.5205
 30
0.0000
 42
1.0000
  0
VERTEX
  8
25
 10
8.2155
 20
7.5417
 30
0.0000
  0
SEQEND
  8
0
  0
POLYLINE
  8
25
 66
1
 10
0.0000
 20
0.0000
 30
0.0000
 40
0.0381
 41
0.0381
 70
0
  0
VERTEX
  8
25
 10
7.7240
 20
8.2789
 30
0.0000
 42
1.0000
  0
VERTEX
  8
25
 10
7.6923
 20
8.2578
 30
0.0000
  0
SEQEND
  8
0
  0
POLYLINE
  8
25
 66
1
 10
0.0000
 20
0.0000
 30
0.0000
 40
0.0762
 41
0.0762
 70
0
  0
VERTEX
  8
25
 10
8.1996
 20
7.5311
 30
0.0000
  0
VERTEX
  8
25
 10
8.1996
 20
8.2683
 30
0.0000
  0
SEQEND
  8
0
  0
POLYLINE
  8
25
 66
1
 10
0.0000
 20
0.0000
 30
0.0000
 40
0.0381
 41
0.0381
 70
0
  0
VERTEX
  8
25
 10
8.2187
 20
8.2683
 30
0.0000
 42
1.0000
  0
VERTEX
  8
25
 10
8.1806
 20
8.2683
 30
0.0000
  0
SEQEND
  8
0
  0
POLYLINE
  8
25
 66
1
 10
0.0000
 20
0.0000
 30
0.0000
 40
0.0381
 41
0.0381
 70
0
  0
VERTEX
  8
25
 10
8.1806
 20
7.5311
 30
0.0000
 42
1.0000
  0
VERTEX
  8
25
 10
8.2187
 20
7.5311
 30
0.0000
  0
SEQEND
  8
0
  0
POLYLINE
  8
25
 66
1
 10
0.0000
 20
0.0000
 30
0.0000
 40
0.0762
 41
0.0762
 70
0
  0
VERTEX
  8
25
 10
8.4565
 20
8.0226
 30
0.0000
  0
VERTEX
  8
25
 10
8.7023
 20
8.2683
 30
0.0000
  0
SEQEND
  8
0
  0
POLYLINE
  8
25
 66
1
 10
0.0000
 20
0.0000
 30
0.0000
 40
0.0381
 41
0.0381
 70
0
  0
VERTEX
  8
25
 10
8.7157
 20
8.2549
 30
0.0000
 42
1.0000
  0
VERTEX
  8
25
 10
8.6888
 20
8.2818
 30
0.0000
  0
SEQEND
  8
0
  0
POLYLINE
  8
25
 66
1
 10
0.0000
 20
0.0000
 30
0.0000
 40
0.0381
 41
0.0381
 70
0
  0
VERTEX
  8
25
 10
8.4431
 20
8.0361
 30
0.0000
 42
1.0000
  0
VERTEX
  8
25
 10
8.4700
 20
8.0091
 30
0.0000
  0
SEQEND
  8
0
  0
POLYLINE
  8
25
 66
1
 10
0.0000
 20
0.0000
 30
0.0000
 40
0.0762
 41
0.0762
 70
0
  0
VERTEX
  8
25
 10
8.7023
 20
8.2683
 30
0.0000
  0
VERTEX
  8
25
 10
8.7023
 20
7.5311
 30
0.0000
  0
SEQEND
  8
0
  0
POLYLINE
  8
25
 66
1
 10
0.0000
 20
0.0000
 30
0.0000
 40
0.0381
 41
0.0381
 70
0
  0
VERTEX
  8
25
 10
8.6832
 20
7.5311
 30
0.0000
 42
1.0000
  0
VERTEX
  8
25
 10
8.7213
 20
7.5311
 30
0.0000
  0
SEQEND
  8
0
  0
POLYLINE
  8
25
 66
1
 10
0.0000
 20
0.0000
 30
0.0000
 40
0.0381
 41
0.0381
 70
0
  0
VERTEX
  8
25
 10
8.7213
 20
8.2683
 30
0.0000
 42
1.0000
  0
VERTEX
  8
25
 10
8.6832
 20
8.2683
 30
0.0000
  0
SEQEND
  8
0
  0
POLYLINE
  8
25
 66
1
 10
0.0000
 20
0.0000
 30
0.0000
 40
0.0762
 41
0.0762
 70
0
  0
VERTEX
  8
25
 10
8.4565
 20
7.5311
 30
0.0000
  0
VERTEX
  8
25
 10
8.9480
 20
7.5311
 30
0.0000
  0
SEQEND
  8
0
  0
POLYLINE
  8
25
 66
1
 10
0.0000
 20
0.0000
 30
0.0000
 40
0.0381
 41
0.0381
 70
0
  0
VERTEX
  8
25
 10
8.9480
 20
7.5121
 30
0.0000
 42
1.0000
  0
VERTEX
  8
25
 10
8.9480
 20
7.5502
 30
0.0000
  0
SEQEND
  8
0
  0
POLYLINE
  8
25
 66
1
 10
0.0000
 20
0.0000
 30
0.0000
 40
0.0381
 41
0.0381
 70
0
  0
VERTEX
  8
25
 10
8.4565
 20
7.5502
 30
0.0000
 42
1.0000
  0
VERTEX
  8
25
 10
8.4565
 20
7.5121
 30
0.0000
  0
SEQEND
  8
0
  0
POLYLINE
  8
25
 66
1
 10
0.0000
 20
0.0000
 30
0.0000
 40
0.0762
 41
0.0762
 70
0
  0
VERTEX
  8
25
 10
4.1021
 20
5.9865
 30
0.0000
  0
VERTEX
  8
25
 10
4.2250
 20
6.1093
 30
0.0000
  0
SEQEND
  8
0
  0
POLYLINE
  8
25
 66
1
 10
0.0000
 20
0.0000
 30
0.0000
 40
0.0381
 41
0.0381
 70
0
  0
VERTEX
  8
25
 10
4.2384
 20
6.0959
 30
0.0000
 42
1.0000
  0
VERTEX
  8
25
 10
4.2115
 20
6.1228
 30
0.0000
  0
SEQEND
  8
0
  0
POLYLINE
  8
25
 66
1
 10
0.0000
 20
0.0000
 30
0.0000
 40
0.0381
 41
0.0381
 70
0
  0
VERTEX
  8
25
 10
4.0886
 20
5.9999
 30
0.0000
 42
1.0000
  0
VERTEX
  8
25
 10
4.1156
 20
5.9730
 30
0.0000
  0
SEQEND
  8
0
  0
POLYLINE
  8
25
 66
1
 10
0.0000
 20
0.0000
 30
0.0000
 40
0.0762
 41
0.0762
 70
0
  0
VERTEX
  8
25
 10
4.2250
 20
6.1093
 30
0.0000
  0
VERTEX
  8
25
 10
4.4707
 20
6.1093
 30
0.0000
  0
SEQEND
  8
0
  0
POLYLINE
  8
25
 66
1
 10
0.0000
 20
0.0000
 30
0.0000
 40
0.0381
 41
0.0381
 70
0
  0
VERTEX
  8
25
 10
4.4707
 20
6.0903
 30
0.0000
 42
1.0000
  0
VERTEX
  8
25
 10
4.4707
 20
6.1284
 30
0.0000
  0
SEQEND
  8
0
  0
POLYLINE
  8
25
 66
1
 10
0.0000
 20
0.0000
 30
0.0000
 40
0.0381
 41
0.0381
 70
0
  0
VERTEX
  8
25
 10
4.2250
 20
6.1284
 30
0.0000
 42
1.0000
  0
VERTEX
  8
25
 10
4.2250
 20
6.0903
 30
0.0000
  0
SEQEND
  8
0
  0
POLYLINE
  8
25
 66
1
 10
0.0000
 20
0.0000
 30
0.0000
 40
0.0762
 41
0.0762
 70
0
  0
VERTEX
  8
25
 10
4.4707
 20
6.1093
 30
0.0000
  0
VERTEX
  8
25
 10
4.5936
 20
5.9865
 30
0.0000
  0
SEQEND
  8
0
  0
POLYLINE
  8
25
 66
1
 10
0.0000
 20
0.0000
 30
0.0000
 40
0.0381
 41
0.0381
 70
0
  0
VERTEX
  8
25
 10
4.5801
 20
5.9730
 30
0.0000
 42
1.0000
  0
VERTEX
  8
25
 10
4.6071
 20
5.9999
 30
0.0000
  0
SEQEND
  8
0
  0
POLYLINE
  8
25
 66
1
 10
0.0000
 20
0.0000
 30
0.0000
 40
0.0381
 41
0.0381
 70
0
  0
VERTEX
  8
25
 10
4.4842
 20
6.1228
 30
0.0000
 42
1.0000
  0
VERTEX
  8
25
 10
4.4572
 20
6.0959
 30
0.0000
  0
SEQEND
  8
0
  0
POLYLINE
  8
25
 66
1
 10
0.0000
 20
0.0000
 30
0.0000
 40
0.0762
 41
0.0762
 70
0
  0
VERTEX
  8
25
 10
4.5936
 20
5.9865
 30
0.0000
  0
VERTEX
  8
25
 10
4.5936
 20
5.8636
 30
0.0000
  0
SEQEND
  8
0
  0
POLYLINE
  8
25
 66
1
 10
0.0000
 20
0.0000
 30
0.0000
 40
0.0381
 41
0.0381
 70
0
  0
VERTEX
  8
25
 10
4.5745
 20
5.8636
 30
0.0000
 42
1.0000
  0
VERTEX
  8
25
 10
4.6126
 20
5.8636
 30
0.0000
  0
SEQEND
  8
0
  0
POLYLINE
  8
25
 66
1
 10
0.0000
 20
0.0000
 30
0.0000
 40
0.0381
 41
0.0381
 70
0
  0
VERTEX
  8
25
 10
4.6126
 20
5.9865
 30
0.0000
 42
1.0000
  0
VERTEX
  8
25
 10
4.5745
 20
5.9865
 30
0.0000
  0
SEQEND
  8
0
  0
POLYLINE
  8
25
 66
1
 10
0.0000
 20
0.0000
 30
0.0000
 40
0.0762
 41
0.0762
 70
0
  0
VERTEX
  8
25
 10
4.5936
 20
5.8636
 30
0.0000
  0
VERTEX
  8
25
 10
4.4707
 20
5.7407
 30
0.0000
  0
SEQEND
  8
0
  0
POLYLINE
  8
25
 66
1
 10
0.0000
 20
0.0000
 30
0.0000
 40
0.0381
 41
0.0381
 70
0
  0
VERTEX
  8
25
 10
4.4572
 20
5.7542
 30
0.0000
 42
1.0000
  0
VERTEX
  8
25
 10
4.4842
 20
5.7272
 30
0.0000
  0
SEQEND
  8
0
  0
POLYLINE
  8
25
 66
1
 10
0.0000
 20
0.0000
 30
0.0000
 40
0.0381
 41
0.0381
 70
0
  0
VERTEX
  8
25
 10
4.6071
 20
5.8501
 30
0.0000
 42
1.0000
  0
VERTEX
  8
25
 10
4.5801
 20
5.8771
 30
0.0000
  0
SEQEND
  8
0
  0
POLYLINE
  8
25
 66
1
 10
0.0000
 20
0.0000
 30
0.0000
 40
0.0762
 41
0.0762
 70
0
  0
VERTEX
  8
25
 10
4.4707
 20
5.7407
 30
0.0000
  0
VERTEX
  8
25
 10
4.3478
 20
5.7407
 30
0.0000
  0
SEQEND
  8
0
  0
POLYLINE
  8
25
 66
1
 10
0.0000
 20
0.0000
 30
0.0000
 40
0.0381
 41
0.0381
 70
0
  0
VERTEX
  8
25
 10
4.3478
 20
5.7598
 30
0.0000
 42
1.0000
  0
VERTEX
  8
25
 10
4.3478
 20
5.7217
 30
0.0000
  0
SEQEND
  8
0
  0
POLYLINE
  8
25
 66
1
 10
0.0000
 20
0.0000
 30
0.0000
 40
0.0381
 41
0.0381
 70
0
  0
VERTEX
  8
25
 10
4.4707
 20
5.7217
 30
0.0000
 42
1.0000
  0
VERTEX
  8
25
 10
4.4707
 20
5.7598
 30
0.0000
  0
SEQEND
  8
0
  0
POLYLINE
  8
25
 66
1
 10
0.0000
 20
0.0000
 30
0.0000
 40
0.0762
 41
0.0762
 70
0
  0
VERTEX
  8
25
 10
4.4707
 20
5.7407
 30
0.0000
  0
VERTEX
  8
25
 10
4.5936
 20
5.6178
 30
0.0000
  0
SEQEND
  8
0
  0
POLYLINE
  8
25
 66
1
 10
0.0000
 20
0.0000
 30
0.0000
 40
0.0381
 41
0.0381
 70
0
  0
VERTEX
  8
25
 10
4.5801
 20
5.6044
 30
0.0000
 42
1.0000
  0
VERTEX
  8
25
 10
4.6071
 20
5.6313
 30
0.0000
  0
SEQEND
  8
0
  0
POLYLINE
  8
25
 66
1
 10
0.0000
 20
0.0000
 30
0.0000
 40
0.0381
 41
0.0381
 70
0
  0
VERTEX
  8
25
 10
4.4842
 20
5.7542
 30
0.0000
 42
1.0000
  0
VERTEX
  8
25
 10
4.4572
 20
5.7272
 30
0.0000
  0
SEQEND
  8
0
  0
POLYLINE
  8
25
 66
1
 10
0.0000
 20
0.0000
 30
0.0000
 40
0.0762
 41
0.0762
 70
0
  0
VERTEX
  8
25
 10
4.5936
 20
5.6178
 30
0.0000
  0
VERTEX
  8
25
 10
4.5936
 20
5.4950
 30
0.0000
  0
SEQEND
  8
0
  0
POLYLINE
  8
25
 66
1
 10
0.0000
 20
0.0000
 30
0.0000
 40
0.0381
 41
0.0381
 70
0
  0
VERTEX
  8
25
 10
4.5745
 20
5.4950
 30
0.0000
 42
1.0000
  0
VERTEX
  8
25
 10
4.6126
 20
5.4950
 30
0.0000
  0
SEQEND
  8
0
  0
POLYLINE
  8
25
 66
1
 10
0.0000
 20
0.0000
 30
0.0000
 40
0.0381
 41
0.0381
 70
0
  0
VERTEX
  8
25
 10
4.6126
 20
5.6178
 30
0.0000
 42
1.0000
  0
VERTEX
  8
25
 10
4.5745
 20
5.6178
 30
0.0000
  0
SEQEND
  8
0
  0
POLYLINE
  8
25
 66
1
 10
0.0000
 20
0.0000
 30
0.0000
 40
0.0762
 41
0.0762
 70
0
  0
VERTEX
  8
25
 10
4.5936
 20
5.4950
 30
0.0000
  0
VERTEX
  8
25
 10
4.4707
 20
5.3721
 30
0.0000
  0
SEQEND
  8
0
  0
POLYLINE
  8
25
 66
1
 10
0.0000
 20
0.0000
 30
0.0000
 40
0.0381
 41
0.0381
 70
0
  0
VERTEX
  8
25
 10
4.4572
 20
5.3856
 30
0.0000
 42
1.0000
  0
VERTEX
  8
25
 10
4.4842
 20
5.3586
 30
0.0000
  0
SEQEND
  8
0
  0
POLYLINE
  8
25
 66
1
 10
0.0000
 20
0.0000
 30
0.0000
 40
0.0381
 41
0.0381
 70
0
  0
VERTEX
  8
25
 10
4.6071
 20
5.4815
 30
0.0000
 42
1.0000
  0
VERTEX
  8
25
 10
4.5801
 20
5.5084
 30
0.0000
  0
SEQEND
  8
0
  0
POLYLINE
  8
25
 66
1
 10
0.0000
 20
0.0000
 30
0.0000
 40
0.0762
 41
0.0762
 70
0
  0
VERTEX
  8
25
 10
4.4707
 20
5.3721
 30
0.0000
  0
VERTEX
  8
25
 10
4.2250
 20
5.3721
 30
0.0000
  0
SEQEND
  8
0
  0
POLYLINE
  8
25
 66
1
 10
0.0000
 20
0.0000
 30
0.0000
 40
0.0381
 41
0.0381
 70
0
  0
VERTEX
  8
25
 10
4.2250
 20
5.3912
 30
0.0000
 42
1.0000
  0
VERTEX
  8
25
 10
4.2250
 20
5.3531
 30
0.0000
  0
SEQEND
  8
0
  0
POLYLINE
  8
25
 66
1
 10
0.0000
 20
0.0000
 30
0.0000
 40
0.0381
 41
0.0381
 70
0
  0
VERTEX
  8
25
 10
4.4707
 20
5.3531
 30
0.0000
 42
1.0000
  0
VERTEX
  8
25
 10
4.4707
 20
5.3912
 30
0.0000
  0
SEQEND
  8
0
  0
POLYLINE
  8
25
 66
1
 10
0.0000
 20
0.0000
 30
0.0000
 40
0.0762
 41
0.0762
 70
0
  0
VERTEX
  8
25
 10
4.2250
 20
5.3721
 30
0.0000
  0
VERTEX
  8
25
 10
4.1021
 20
5.4950
 30
0.0000
  0
SEQEND
  8
0
  0
POLYLINE
  8
25
 66
1
 10
0.0000
 20
0.0000
 30
0.0000
 40
0.0381
 41
0.0381
 70
0
  0
VERTEX
  8
25
 10
4.1156
 20
5.5084
 30
0.0000
 42
1.0000
  0
VERTEX
  8
25
 10
4.0886
 20
5.4815
 30
0.0000
  0
SEQEND
  8
0
  0
POLYLINE
  8
25
 66
1
 10
0.0000
 20
0.0000
 30
0.0000
 40
0.0381
 41
0.0381
 70
0
  0
VERTEX
  8
25
 10
4.2115
 20
5.3586
 30
0.0000
 42
1.0000
  0
VERTEX
  8
25
 10
4.2384
 20
5.3856
 30
0.0000
  0
SEQEND
  8
0
  0
POLYLINE
  8
25
 66
1
 10
0.0000
 20
0.0000
 30
0.0000
 40
0.0762
 41
0.0762
 70
0
  0
VERTEX
  8
25
 10
4.8505
 20
5.3721
 30
0.0000
  0
VERTEX
  8
25
 10
4.8505
 20
5.4950
 30
0.0000
  0
SEQEND
  8
0
  0
POLYLINE
  8
25
 66
1
 10
0.0000
 20
0.0000
 30
0.0000
 40
0.0381
 41
0.0381
 70
0
  0
VERTEX
  8
25
 10
4.8696
 20
5.4950
 30
0.0000
 42
1.0000
  0
VERTEX
  8
25
 10
4.8315
 20
5.4950
 30
0.0000
  0
SEQEND
  8
0
  0
POLYLINE
  8
25
 66
1
 10
0.0000
 20
0.0000
 30
0.0000
 40
0.0381
 41
0.0381
 70
0
  0
VERTEX
  8
25
 10
4.8315
 20
5.3721
 30
0.0000
 42
1.0000
  0
VERTEX
  8
25
 10
4.8696
 20
5.3721
 30
0.0000
  0
SEQEND
  8
0
  0
POLYLINE
  8
25
 66
1
 10
0.0000
 20
0.0000
 30
0.0000
 40
0.0762
 41
0.0762
 70
0
  0
VERTEX
  8
25
 10
4.8505
 20
5.4950
 30
0.0000
  0
VERTEX
  8
25
 10
4.9734
 20
5.4950
 30
0.0000
  0
SEQEND
  8
0
  0
POLYLINE
  8
25
 66
1
 10
0.0000
 20
0.0000
 30
0.0000
 40
0.0381
 41
0.0381
 70
0
  0
VERTEX
  8
25
 10
4.9734
 20
5.4759
 30
0.0000
 42
1.0000
  0
VERTEX
  8
25
 10
4.9734
 20
5.5140
 30
0.0000
  0
SEQEND
  8
0
  0
POLYLINE
  8
25
 66
1
 10
0.0000
 20
0.0000
 30
0.0000
 40
0.0381
 41
0.0381
 70
0
  0
VERTEX
  8
25
 10
4.8505
 20
5.5140
 30
0.0000
 42
1.0000
  0
VERTEX
  8
25
 10
4.8505
 20
5.4759
 30
0.0000
  0
SEQEND
  8
0
  0
POLYLINE
  8
25
 66
1
 10
0.0000
 20
0.0000
 30
0.0000
 40
0.0762
 41
0.0762
 70
0
  0
VERTEX
  8
25
 10
4.9734
 20
5.4950
 30
0.0000
  0
VERTEX
  8
25
 10
4.9734
 20
5.3721
 30
0.0000
  0
SEQEND
  8
0
  0
POLYLINE
  8
25
 66
1
 10
0.0000
 20
0.0000
 30
0.0000
 40
0.0381
 41
0.0381
 70
0
  0
VERTEX
  8
25
 10
4.9543
 20
5.3721
 30
0.0000
 42
1.0000
  0
VERTEX
  8
25
 10
4.9924
 20
5.3721
 30
0.0000
  0
SEQEND
  8
0
  0
POLYLINE
  8
25
 66
1
 10
0.0000
 20
0.0000
 30
0.0000
 40
0.0381
 41
0.0381
 70
0
  0
VERTEX
  8
25
 10
4.9924
 20
5.4950
 30
0.0000
 42
1.0000
  0
VERTEX
  8
25
 10
4.9543
 20
5.4950
 30
0.0000
  0
SEQEND
  8
0
  0
POLYLINE
  8
25
 66
1
 10
0.0000
 20
0.0000
 30
0.0000
 40
0.0762
 41
0.0762
 70
0
  0
VERTEX
  8
25
 10
4.9734
 20
5.3721
 30
0.0000
  0
VERTEX
  8
25
 10
4.8505
 20
5.3721
 30
0.0000
  0
SEQEND
  8
0
  0
POLYLINE
  8
25
 66
1
 10
0.0000
 20
0.0000
 30
0.0000
 40
0.0381
 41
0.0381
 70
0
  0
VERTEX
  8
25
 10
4.8505
 20
5.3912
 30
0.0000
 42
1.0000
  0
VERTEX
  8
25
 10
4.8505
 20
5.3531
 30
0.0000
  0
SEQEND
  8
0
  0
POLYLINE
  8
25
 66
1
 10
0.0000
 20
0.0000
 30
0.0000
 40
0.0381
 41
0.0381
 70
0
  0
VERTEX
  8
25
 10
4.9734
 20
5.3531
 30
0.0000
 42
1.0000
  0
VERTEX
  8
25
 10
4.9734
 20
5.3912
 30
0.0000
  0
SEQEND
  8
0
  0
POLYLINE
  8
25
 66
1
 10
0.0000
 20
0.0000
 30
0.0000
 40
0.0762
 41
0.0762
 70
0
  0
VERTEX
  8
25
 10
5.2247
 20
5.9865
 30
0.0000
  0
VERTEX
  8
25
 10
5.3476
 20
6.1093
 30
0.0000
  0
SEQEND
  8
0
  0
POLYLINE
  8
25
 66
1
 10
0.0000
 20
0.0000
 30
0.0000
 40
0.0381
 41
0.0381
 70
0
  0
VERTEX
  8
25
 10
5.3611
 20
6.0959
 30
0.0000
 42
1.0000
  0
VERTEX
  8
25
 10
5.3341
 20
6.1228
 30
0.0000
  0
SEQEND
  8
0
  0
POLYLINE
  8
25
 66
1
 10
0.0000
 20
0.0000
 30
0.0000
 40
0.0381
 41
0.0381
 70
0
  0
VERTEX
  8
25
 10
5.2113
 20
5.9999
 30
0.0000
 42
1.0000
  0
VERTEX
  8
25
 10
5.2382
 20
5.9730
 30
0.0000
  0
SEQEND
  8
0
  0
POLYLINE
  8
25
 66
1
 10
0.0000
 20
0.0000
 30
0.0000
 40
0.0762
 41
0.0762
 70
0
  0
VERTEX
  8
25
 10
5.3476
 20
6.1093
 30
0.0000
  0
VERTEX
  8
25
 10
5.5933
 20
6.1093
 30
0.0000
  0
SEQEND
  8
0
  0
POLYLINE
  8
25
 66
1
 10
0.0000
 20
0.0000
 30
0.0000
 40
0.0381
 41
0.0381
 70
0
  0
VERTEX
  8
25
 10
5.5933
 20
6.0903
 30
0.0000
 42
1.0000
  0
VERTEX
  8
25
 10
5.5933
 20
6.1284
 30
0.0000
  0
SEQEND
  8
0
  0
POLYLINE
  8
25
 66
1
 10
0.0000
 20
0.0000
 30
0.0000
 40
0.0381
 41
0.0381
 70
0
  0
VERTEX
  8
25
 10
5.3476
 20
6.1284
 30
0.0000
 42
1.0000
  0
VERTEX
  8
25
 10
5.3476
 20
6.0903
 30
0.0000
  0
SEQEND
  8
0
  0
POLYLINE
  8
25
 66
1
 10
0.0000
 20
0.0000
 30
0.0000
 40
0.0762
 41
0.0762
 70
0
  0
VERTEX
  8
25
 10
5.5933
 20
6.1093
 30
0.0000
  0
VERTEX
  8
25
 10
5.7162
 20
5.9865
 30
0.0000
  0
SEQEND
  8
0
  0
POLYLINE
  8
25
 66
1
 10
0.0000
 20
0.0000
 30
0.0000
 40
0.0381
 41
0.0381
 70
0
  0
VERTEX
  8
25
 10
5.7027
 20
5.9730
 30
0.0000
 42
1.0000
  0
VERTEX
  8
25
 10
5.7297
 20
5.9999
 30
0.0000
  0
SEQEND
  8
0
  0
POLYLINE
  8
25
 66
1
 10
0.0000
 20
0.0000
 30
0.0000
 40
0.0381
 41
0.0381
 70
0
  0
VERTEX
  8
25
 10
5.6068
 20
6.1228
 30
0.0000
 42
1.0000
  0
VERTEX
  8
25
 10
5.5799
 20
6.0959
 30
0.0000
  0
SEQEND
  8
0
  0
POLYLINE
  8
25
 66
1
 10
0.0000
 20
0.0000
 30
0.0000
 40
0.0762
 41
0.0762
 70
0
  0
VERTEX
  8
25
 10
5.7162
 20
5.9865
 30
0.0000
  0
VERTEX
  8
25
 10
5.7162
 20
5.8636
 30
0.0000
  0
SEQEND
  8
0
  0
POLYLINE
  8
25
 66
1
 10
0.0000
 20
0.0000
 30
0.0000
 40
0.0381
 41
0.0381
 70
0
  0
VERTEX
  8
25
 10
5.6972
 20
5.8636
 30
0.0000
 42
1.0000
  0
VERTEX
  8
25
 10
5.7353
 20
5.8636
 30
0.0000
  0
SEQEND
  8
0
  0
POLYLINE
  8
25
 66
1
 10
0.0000
 20
0.0000
 30
0.0000
 40
0.0381
 41
0.0381
 70
0
  0
VERTEX
  8
25
 10
5.7353
 20
5.9865
 30
0.0000
 42
1.0000
  0
VERTEX
  8
25
 10
5.6972
 20
5.9865
 30
0.0000
  0
SEQEND
  8
0
  0
POLYLINE
  8
25
 66
1
 10
0.0000
 20
0.0000
 30
0.0000
 40
0.0762
 41
0.0762
 70
0
  0
VERTEX
  8
25
 10
5.7162
 20
5.8636
 30
0.0000
  0
VERTEX
  8
25
 10
5.5933
 20
5.7407
 30
0.0000
  0
SEQEND
  8
0
  0
POLYLINE
  8
25
 66
1
 10
0.0000
 20
0.0000
 30
0.0000
 40
0.0381
 41
0.0381
 70
0
  0
VERTEX
  8
25
 10
5.5799
 20
5.7542
 30
0.0000
 42
1.0000
  0
VERTEX
  8
25
 10
5.6068
 20
5.7272
 30
0.0000
  0
SEQEND
  8
0
  0
POLYLINE
  8
25
 66
1
 10
0.0000
 20
0.0000
 30
0.0000
 40
0.0381
 41
0.0381
 70
0
  0
VERTEX
  8
25
 10
5.7297
 20
5.8501
 30
0.0000
 42
1.0000
  0
VERTEX
  8
25
 10
5.7027
 20
5.8771
 30
0.0000
  0
SEQEND
  8
0
  0
POLYLINE
  8
25
 66
1
 10
0.0000
 20
0.0000
 30
0.0000
 40
0.0762
 41
0.0762
 70
0
  0
VERTEX
  8
25
 10
5.5933
 20
5.7407
 30
0.0000
  0
VERTEX
  8
25
 10
5.4705
 20
5.7407
 30
0.0000
  0
SEQEND
  8
0
  0
POLYLINE
  8
25
 66
1
 10
0.0000
 20
0.0000
 30
0.0000
 40
0.0381
 41
0.0381
 70
0
  0
VERTEX
  8
25
 10
5.4705
 20
5.7598
 30
0.0000
 42
1.0000
  0
VERTEX
  8
25
 10
5.4705
 20
5.7217
 30
0.0000
  0
SEQEND
  8
0
  0
POLYLINE
  8
25
 66
1
 10
0.0000
 20
0.0000
 30
0.0000
 40
0.0381
 41
0.0381
 70
0
  0
VERTEX
  8
25
 10
5.5933
 20
5.7217
 30
0.0000
 42
1.0000
  0
VERTEX
  8
25
 10
5.5933
 20
5.7598
 30
0.0000
  0
SEQEND
  8
0
  0
POLYLINE
  8
25
 66
1
 10
0.0000
 20
0.0000
 30
0.0000
 40
0.0762
 41
0.0762
 70
0
  0
VERTEX
  8
25
 10
5.5933
 20
5.7407
 30
0.0000
  0
VERTEX
  8
25
 10
5.7162
 20
5.6178
 30
0.0000
  0
SEQEND
  8
0
  0
POLYLINE
  8
25
 66
1
 10
0.0000
 20
0.0000
 30
0.0000
 40
0.0381
 41
0.0381
 70
0
  0
VERTEX
  8
25
 10
5.7027
 20
5.6044
 30
0.0000
 42
1.0000
  0
VERTEX
  8
25
 10
5.7297
 20
5.6313
 30
0.0000
  0
SEQEND
  8
0
  0
POLYLINE
  8
25
 66
1
 10
0.0000
 20
0.0000
 30
0.0000
 40
0.0381
 41
0.0381
 70
0
  0
VERTEX
  8
25
 10
5.6068
 20
5.7542
 30
0.0000
 42
1.0000
  0
VERTEX
  8
25
 10
5.5799
 20
5.7272
 30
0.0000
  0
SEQEND
  8
0
  0
POLYLINE
  8
25
 66
1
 10
0.0000
 20
0.0000
 30
0.0000
 40
0.0762
 41
0.0762
 70
0
  0
VERTEX
  8
25
 10
5.7162
 20
5.6178
 30
0.0000
  0
VERTEX
  8
25
 10
5.7162
 20
5.4950
 30
0.0000
  0
SEQEND
  8
0
  0
POLYLINE
  8
25
 66
1
 10
0.0000
 20
0.0000
 30
0.0000
 40
0.0381
 41
0.0381
 70
0
  0
VERTEX
  8
25
 10
5.6972
 20
5.4950
 30
0.0000
 42
1.0000
  0
VERTEX
  8
25
 10
5.7353
 20
5.4950
 30
0.0000
  0
SEQEND
  8
0
  0
POLYLINE
  8
25
 66
1
 10
0.0000
 20
0.0000
 30
0.0000
 40
0.0381
 41
0.0381
 70
0
  0
VERTEX
  8
25
 10
5.7353
 20
5.6178
 30
0.0000
 42
1.0000
  0
VERTEX
  8
25
 10
5.6972
 20
5.6178
 30
0.0000
  0
SEQEND
  8
0
  0
POLYLINE
  8
25
 66
1
 10
0.0000
 20
0.0000
 30
0.0000
 40
0.0762
 41
0.0762
 70
0
  0
VERTEX
  8
25
 10
5.7162
 20
5.4950
 30
0.0000
  0
VERTEX
  8
25
 10
5.5933
 20
5.3721
 30
0.0000
  0
SEQEND
  8
0
  0
POLYLINE
  8
25
 66
1
 10
0.0000
 20
0.0000
 30
0.0000
 40
0.0381
 41
0.0381
 70
0
  0
VERTEX
  8
25
 10
5.5799
 20
5.3856
 30
0.0000
 42
1.0000
  0
VERTEX
  8
25
 10
5.6068
 20
5.3586
 30
0.0000
  0
SEQEND
  8
0
  0
POLYLINE
  8
25
 66
1
 10
0.0000
 20
0.0000
 30
0.0000
 40
0.0381
 41
0.0381
 70
0
  0
VERTEX
  8
25
 10
5.7297
 20
5.4815
 30
0.0000
 42
1.0000
  0
VERTEX
  8
25
 10
5.7027
 20
5.5084
 30
0.0000
  0
SEQEND
  8
0
  0
POLYLINE
  8
25
 66
1
 10
0.0000
 20
0.0000
 30
0.0000
 40
0.0762
 41
0.0762
 70
0
  0
VERTEX
  8
25
 10
5.5933
 20
5.3721
 30
0.0000
  0
VERTEX
  8
25
 10
5.3476
 20
5.3721
 30
0.0000
  0
SEQEND
  8
0
  0
POLYLINE
  8
25
 66
1
 10
0.0000
 20
0.0000
 30
0.0000
 40
0.0381
 41
0.0381
 70
0
  0
VERTEX
  8
25
 10
5.3476
 20
5.3912
 30
0.0000
 42
1.0000
  0
VERTEX
  8
25
 10
5.3476
 20
5.3531
 30
0.0000
  0
SEQEND
  8
0
  0
POLYLINE
  8
25
 66
1
 10
0.0000
 20
0.0000
 30
0.0000
 40
0.0381
 41
0.0381
 70
0
  0
VERTEX
  8
25
 10
5.5933
 20
5.3531
 30
0.0000
 42
1.0000
  0
VERTEX
  8
25
 10
5.5933
 20
5.3912
 30
0.0000
  0
SEQEND
  8
0
  0
POLYLINE
  8
25
 66
1
 10
0.0000
 20
0.0000
 30
0.0000
 40
0.0762
 41
0.0762
 70
0
  0
VERTEX
  8
25
 10
5.3476
 20
5.3721
 30
0.0000
  0
VERTEX
  8
25
 10
5.2247
 20
5.4950
 30
0.0000
  0
SEQEND
  8
0
  0
POLYLINE
  8
25
 66
1
 10
0.0000
 20
0.0000
 30
0.0000
 40
0.0381
 41
0.0381
 70
0
  0
VERTEX
  8
25
 10
5.2382
 20
5.5084
 30
0.0000
 42
1.0000
  0
VERTEX
  8
25
 10
5.2113
 20
5.4815
 30
0.0000
  0
SEQEND
  8
0
  0
POLYLINE
  8
25
 66
1
 10
0.0000
 20
0.0000
 30
0.0000
 40
0.0381
 41
0.0381
 70
0
  0
VERTEX
  8
25
 10
5.3341
 20
5.3586
 30
0.0000
 42
1.0000
  0
VERTEX
  8
25
 10
5.3611
 20
5.3856
 30
0.0000
  0
SEQEND
  8
0
  0
POLYLINE
  8
25
 66
1
 10
0.0000
 20
0.0000
 30
0.0000
 40
0.0762
 41
0.0762
 70
0
  0
VERTEX
  8
25
 10
5.9731
 20
6.1093
 30
0.0000
  0
VERTEX
  8
25
 10
5.9731
 20
5.6178
 30
0.0000
  0
SEQEND
  8
0
  0
POLYLINE
  8
25
 66
1
 10
0.0000
 20
0.0000
 30
0.0000
 40
0.0381
 41
0.0381
 70
0
  0
VERTEX
  8
25
 10
5.9541
 20
5.6178
 30
0.0000
 42
1.0000
  0
VERTEX
  8
25
 10
5.9922
 20
5.6178
 30
0.0000
  0
SEQEND
  8
0
  0
POLYLINE
  8
25
 66
1
 10
0.0000
 20
0.0000
 30
0.0000
 40
0.0381
 41
0.0381
 70
0
  0
VERTEX
  8
25
 10
5.9922
 20
6.1093
 30
0.0000
 42
1.0000
  0
VERTEX
  8
25
 10
5.9541
 20
6.1093
 30
0.0000
  0
SEQEND
  8
0
  0
POLYLINE
  8
25
 66
1
 10
0.0000
 20
0.0000
 30
0.0000
 40
0.0762
 41
0.0762
 70
0
  0
VERTEX
  8
25
 10
5.9731
 20
5.6178
 30
0.0000
  0
VERTEX
  8
25
 10
6.2189
 20
5.3721
 30
0.0000
  0
SEQEND
  8
0
  0
POLYLINE
  8
25
 66
1
 10
0.0000
 20
0.0000
 30
0.0000
 40
0.0381
 41
0.0381
 70
0
  0
VERTEX
  8
25
 10
6.2054
 20
5.3586
 30
0.0000
 42
1.0000
  0
VERTEX
  8
25
 10
6.2323
 20
5.3856
 30
0.0000
  0
SEQEND
  8
0
  0
POLYLINE
  8
25
 66
1
 10
0.0000
 20
0.0000
 30
0.0000
 40
0.0381
 41
0.0381
 70
0
  0
VERTEX
  8
25
 10
5.9866
 20
5.6313
 30
0.0000
 42
1.0000
  0
VERTEX
  8
25
 10
5.9597
 20
5.6044
 30
0.0000
  0
SEQEND
  8
0
  0
POLYLINE
  8
25
 66
1
 10
0.0000
 20
0.0000
 30
0.0000
 40
0.0762
 41
0.0762
 70
0
  0
VERTEX
  8
25
 10
6.2189
 20
5.3721
 30
0.0000
  0
VERTEX
  8
25
 10
6.4646
 20
5.6178
 30
0.0000
  0
SEQEND
  8
0
  0
POLYLINE
  8
25
 66
1
 10
0.0000
 20
0.0000
 30
0.0000
 40
0.0381
 41
0.0381
 70
0
  0
VERTEX
  8
25
 10
6.4781
 20
5.6044
 30
0.0000
 42
1.0000
  0
VERTEX
  8
25
 10
6.4512
 20
5.6313
 30
0.0000
  0
SEQEND
  8
0
  0
POLYLINE
  8
25
 66
1
 10
0.0000
 20
0.0000
 30
0.0000
 40
0.0381
 41
0.0381
 70
0
  0
VERTEX
  8
25
 10
6.2054
 20
5.3856
 30
0.0000
 42
1.0000
  0
VERTEX
  8
25
 10
6.2323
 20
5.3586
 30
0.0000
  0
SEQEND
  8
0
  0
POLYLINE
  8
25
 66
1
 10
0.0000
 20
0.0000
 30
0.0000
 40
0.0762
 41
0.0762
 70
0
  0
VERTEX
  8
25
 10
6.4646
 20
5.6178
 30
0.0000
  0
VERTEX
  8
25
 10
6.4646
 20
6.1093
 30
0.0000
  0
SEQEND
  8
0
  0
POLYLINE
  8
25
 66
1
 10
0.0000
 20
0.0000
 30
0.0000
 40
0.0381
 41
0.0381
 70
0
  0
VERTEX
  8
25
 10
6.4837
 20
6.1093
 30
0.0000
 42
1.0000
  0
VERTEX
  8
25
 10
6.4456
 20
6.1093
 30
0.0000
  0
SEQEND
  8
0
  0
POLYLINE
  8
25
 66
1
 10
0.0000
 20
0.0000
 30
0.0000
 40
0.0381
 41
0.0381
 70
0
  0
VERTEX
  8
25
 10
6.4456
 20
5.6178
 30
0.0000
 42
1.0000
  0
VERTEX
  8
25
 10
6.4837
 20
5.6178
 30
0.0000
  0
SEQEND
  8
0
  0
POLYLINE
  8
26
 66
1
 10
0.0000
 20
0.0000
 30
0.0000
 40
0.0762
 41
0.0762
 70
0
  0
VERTEX
  8
26
 10
22.5844
 20
10.1775
 30
0.0000
  0
VERTEX
  8
26
 10
22.7073
 20
10.3003
 30
0.0000
  0
SEQEND
  8
0
  0
POLYLINE
  8
26
 66
1
 10
0.0000
 20
0.0000
 30
0.0000
 40
0.0381
 41
0.0381
 70
0
  0
VERTEX
  8
26
 10
22.7208
 20
10.2869
 30
0.0000
 42
1.0000
  0
VERTEX
  8
26
 10
22.6938
 20
10.3138
 30
0.0000
  0
SEQEND
  8
0
  0
POLYLINE
  8
26
 66
1
 10
0.0000
 20
0.0000
 30
0.0000
 40
0.0381
 41
0.0381
 70
0
  0
VERTEX
  8
26
 10
22.5709
 20
10.1909
 30
0.0000
 42
1.0000
  0
VERTEX
  8
26
 10
22.5979
 20
10.1640
 30
0.0000
  0
SEQEND
  8
0
  0
POLYLINE
  8
26
 66
1
 10
0.0000
 20
0.0000
 30
0.0000
 40
0.0762
 41
0.0762
 70
0
  0
VERTEX
  8
26
 10
22.7073
 20
10.3003
 30
0.0000
  0
VERTEX
  8
26
 10
22.9530
 20
10.3003
 30
0.0000
  0
SEQEND
  8
0
  0
POLYLINE
  8
26
 66
1
 10
0.0000
 20
0.0000
 30
0.0000
 40
0.0381
 41
0.0381
 70
0
  0
VERTEX
  8
26
 10
22.9530
 20
10.2813
 30
0.0000
 42
1.0000
  0
VERTEX
  8
26
 10
22.9530
 20
10.3194
 30
0.0000
  0
SEQEND
  8
0
  0
POLYLINE
  8
26
 66
1
 10
0.0000
 20
0.0000
 30
0.0000
 40
0.0381
 41
0.0381
 70
0
  0
VERTEX
  8
26
 10
22.7073
 20
10.3194
 30
0.0000
 42
1.0000
  0
VERTEX
  8
26
 10
22.7073
 20
10.2813
 30
0.0000
  0
SEQEND
  8
0
  0
POLYLINE
  8
26
 66
1
 10
0.0000
 20
0.0000
 30
0.0000
 40
0.0762
 41
0.0762
 70
0
  0
VERTEX
  8
26
 10
22.9530
 20
10.3003
 30
0.0000
  0
VERTEX
  8
26
 10
23.0759
 20
10.1775
 30
0.0000
  0
SEQEND
  8
0
  0
POLYLINE
  8
26
 66
1
 10
0.0000
 20
0.0000
 30
0.0000
 40
0.0381
 41
0.0381
 70
0
  0
VERTEX
  8
26
 10
23.0624
 20
10.1640
 30
0.0000
 42
1.0000
  0
VERTEX
  8
26
 10
23.0894
 20
10.1909
 30
0.0000
  0
SEQEND
  8
0
  0
POLYLINE
  8
26
 66
1
 10
0.0000
 20
0.0000
 30
0.0000
 40
0.0381
 41
0.0381
 70
0
  0
VERTEX
  8
26
 10
22.9665
 20
10.3138
 30
0.0000
 42
1.0000
  0
VERTEX
  8
26
 10
22.9396
 20
10.2869
 30
0.0000
  0
SEQEND
  8
0
  0
POLYLINE
  8
26
 66
1
 10
0.0000
 20
0.0000
 30
0.0000
 40
0.0762
 41
0.0762
 70
0
  0
VERTEX
  8
26
 10
23.0759
 20
10.1775
 30
0.0000
  0
VERTEX
  8
26
 10
23.0759
 20
9.6860
 30
0.0000
  0
SEQEND
  8
0
  0
POLYLINE
  8
26
 66
1
 10
0.0000
 20
0.0000
 30
0.0000
 40
0.0381
 41
0.0381
 70
0
  0
VERTEX
  8
26
 10
23.0569
 20
9.6860
 30
0.0000
 42
1.0000
  0
VERTEX
  8
26
 10
23.0950
 20
9.6860
 30
0.0000
  0
SEQEND
  8
0
  0
POLYLINE
  8
26
 66
1
 10
0.0000
 20
0.0000
 30
0.0000
 40
0.0381
 41
0.0381
 70
0
  0
VERTEX
  8
26
 10
23.0950
 20
10.1775
 30
0.0000
 42
1.0000
  0
VERTEX
  8
26
 10
23.0569
 20
10.1775
 30
0.0000
  0
SEQEND
  8
0
  0
POLYLINE
  8
26
 66
1
 10
0.0000
 20
0.0000
 30
0.0000
 40
0.0762
 41
0.0762
 70
0
  0
VERTEX
  8
26
 10
23.0759
 20
9.6860
 30
0.0000
  0
VERTEX
  8
26
 10
22.9530
 20
9.5631
 30
0.0000
  0
SEQEND
  8
0
  0
POLYLINE
  8
26
 66
1
 10
0.0000
 20
0.0000
 30
0.0000
 40
0.0381
 41
0.0381
 70
0
  0
VERTEX
  8
26
 10
22.9396
 20
9.5766
 30
0.0000
 42
1.0000
  0
VERTEX
  8
26
 10
22.9665
 20
9.5496
 30
0.0000
  0
SEQEND
  8
0
  0
POLYLINE
  8
26
 66
1
 10
0.0000
 20
0.0000
 30
0.0000
 40
0.0381
 41
0.0381
 70
0
  0
VERTEX
  8
26
 10
23.0894
 20
9.6725
 30
0.0000
 42
1.0000
  0
VERTEX
  8
26
 10
23.0624
 20
9.6994
 30
0.0000
  0
SEQEND
  8
0
  0
POLYLINE
  8
26
 66
1
 10
0.0000
 20
0.0000
 30
0.0000
 40
0.0762
 41
0.0762
 70
0
  0
VERTEX
  8
26
 10
22.9530
 20
9.5631
 30
0.0000
  0
VERTEX
  8
26
 10
22.7073
 20
9.5631
 30
0.0000
  0
SEQEND
  8
0
  0
POLYLINE
  8
26
 66
1
 10
0.0000
 20
0.0000
 30
0.0000
 40
0.0381
 41
0.0381
 70
0
  0
VERTEX
  8
26
 10
22.7073
 20
9.5822
 30
0.0000
 42
1.0000
  0
VERTEX
  8
26
 10
22.7073
 20
9.5441
 30
0.0000
  0
SEQEND
  8
0
  0
POLYLINE
  8
26
 66
1
 10
0.0000
 20
0.0000
 30
0.0000
 40
0.0381
 41
0.0381
 70
0
  0
VERTEX
  8
26
 10
22.9530
 20
9.5441
 30
0.0000
 42
1.0000
  0
VERTEX
  8
26
 10
22.9530
 20
9.5822
 30
0.0000
  0
SEQEND
  8
0
  0
POLYLINE
  8
26
 66
1
 10
0.0000
 20
0.0000
 30
0.0000
 40
0.0762
 41
0.0762
 70
0
  0
VERTEX
  8
26
 10
22.7073
 20
9.5631
 30
0.0000
  0
VERTEX
  8
26
 10
22.5844
 20
9.6860
 30
0.0000
  0
SEQEND
  8
0
  0
POLYLINE
  8
26
 66
1
 10
0.0000
 20
0.0000
 30
0.0000
 40
0.0381
 41
0.0381
 70
0
  0
VERTEX
  8
26
 10
22.5979
 20
9.6994
 30
0.0000
 42
1.0000
  0
VERTEX
  8
26
 10
22.5709
 20
9.6725
 30
0.0000
  0
SEQEND
  8
0
  0
POLYLINE
  8
26
 66
1
 10
0.0000
 20
0.0000
 30
0.0000
 40
0.0381
 41
0.0381
 70
0
  0
VERTEX
  8
26
 10
22.6938
 20
9.5496
 30
0.0000
 42
1.0000
  0
VERTEX
  8
26
 10
22.7208
 20
9.5766
 30
0.0000
  0
SEQEND
  8
0
  0
POLYLINE
  8
26
 66
1
 10
0.0000
 20
0.0000
 30
0.0000
 40
0.0762
 41
0.0762
 70
0
  0
VERTEX
  8
26
 10
22.5844
 20
9.6860
 30
0.0000
  0
VERTEX
  8
26
 10
22.5844
 20
9.9317
 30
0.0000
  0
SEQEND
  8
0
  0
POLYLINE
  8
26
 66
1
 10
0.0000
 20
0.0000
 30
0.0000
 40
0.0381
 41
0.0381
 70
0
  0
VERTEX
  8
26
 10
22.6035
 20
9.9317
 30
0.0000
 42
1.0000
  0
VERTEX
  8
26
 10
22.5654
 20
9.9317
 30
0.0000
  0
SEQEND
  8
0
  0
POLYLINE
  8
26
 66
1
 10
0.0000
 20
0.0000
 30
0.0000
 40
0.0381
 41
0.0381
 70
0
  0
VERTEX
  8
26
 10
22.5654
 20
9.6860
 30
0.0000
 42
1.0000
  0
VERTEX
  8
26
 10
22.6035
 20
9.6860
 30
0.0000
  0
SEQEND
  8
0
  0
POLYLINE
  8
26
 66
1
 10
0.0000
 20
0.0000
 30
0.0000
 40
0.0762
 41
0.0762
 70
0
  0
VERTEX
  8
26
 10
22.5844
 20
9.9317
 30
0.0000
  0
VERTEX
  8
26
 10
22.8302
 20
9.9317
 30
0.0000
  0
SEQEND
  8
0
  0
POLYLINE
  8
26
 66
1
 10
0.0000
 20
0.0000
 30
0.0000
 40
0.0381
 41
0.0381
 70
0
  0
VERTEX
  8
26
 10
22.8302
 20
9.9127
 30
0.0000
 42
1.0000
  0
VERTEX
  8
26
 10
22.8302
 20
9.9508
 30
0.0000
  0
SEQEND
  8
0
  0
POLYLINE
  8
26
 66
1
 10
0.0000
 20
0.0000
 30
0.0000
 40
0.0381
 41
0.0381
 70
0
  0
VERTEX
  8
26
 10
22.5844
 20
9.9508
 30
0.0000
 42
1.0000
  0
VERTEX
  8
26
 10
22.5844
 20
9.9127
 30
0.0000
  0
SEQEND
  8
0
  0
POLYLINE
  8
26
 66
1
 10
0.0000
 20
0.0000
 30
0.0000
 40
0.0762
 41
0.0762
 70
0
  0
VERTEX
  8
26
 10
22.3275
 20
9.5631
 30
0.0000
  0
VERTEX
  8
26
 10
22.3275
 20
10.3003
 30
0.0000
  0
SEQEND
  8
0
  0
POLYLINE
  8
26
 66
1
 10
0.0000
 20
0.0000
 30
0.0000
 40
0.0381
 41
0.0381
 70
0
  0
VERTEX
  8
26
 10
22.3465
 20
10.3003
 30
0.0000
 42
1.0000
  0
VERTEX
  8
26
 10
22.3084
 20
10.3003
 30
0.0000
  0
SEQEND
  8
0
  0
POLYLINE
  8
26
 66
1
 10
0.0000
 20
0.0000
 30
0.0000
 40
0.0381
 41
0.0381
 70
0
  0
VERTEX
  8
26
 10
22.3084
 20
9.5631
 30
0.0000
 42
1.0000
  0
VERTEX
  8
26
 10
22.3465
 20
9.5631
 30
0.0000
  0
SEQEND
  8
0
  0
POLYLINE
  8
26
 66
1
 10
0.0000
 20
0.0000
 30
0.0000
 40
0.0762
 41
0.0762
 70
0
  0
VERTEX
  8
26
 10
22.3275
 20
10.3003
 30
0.0000
  0
VERTEX
  8
26
 10
21.8360
 20
9.5631
 30
0.0000
  0
SEQEND
  8
0
  0
POLYLINE
  8
26
 66
1
 10
0.0000
 20
0.0000
 30
0.0000
 40
0.0381
 41
0.0381
 70
0
  0
VERTEX
  8
26
 10
21.8201
 20
9.5737
 30
0.0000
 42
1.0000
  0
VERTEX
  8
26
 10
21.8519
 20
9.5525
 30
0.0000
  0
SEQEND
  8
0
  0
POLYLINE
  8
26
 66
1
 10
0.0000
 20
0.0000
 30
0.0000
 40
0.0381
 41
0.0381
 70
0
  0
VERTEX
  8
26
 10
22.3433
 20
10.2898
 30
0.0000
 42
1.0000
  0
VERTEX
  8
26
 10
22.3116
 20
10.3109
 30
0.0000
  0
SEQEND
  8
0
  0
POLYLINE
  8
26
 66
1
 10
0.0000
 20
0.0000
 30
0.0000
 40
0.0762
 41
0.0762
 70
0
  0
VERTEX
  8
26
 10
21.8360
 20
9.5631
 30
0.0000
  0
VERTEX
  8
26
 10
21.8360
 20
10.3003
 30
0.0000
  0
SEQEND
  8
0
  0
POLYLINE
  8
26
 66
1
 10
0.0000
 20
0.0000
 30
0.0000
 40
0.0381
 41
0.0381
 70
0
  0
VERTEX
  8
26
 10
21.8551
 20
10.3003
 30
0.0000
 42
1.0000
  0
VERTEX
  8
26
 10
21.8170
 20
10.3003
 30
0.0000
  0
SEQEND
  8
0
  0
POLYLINE
  8
26
 66
1
 10
0.0000
 20
0.0000
 30
0.0000
 40
0.0381
 41
0.0381
 70
0
  0
VERTEX
  8
26
 10
21.8170
 20
9.5631
 30
0.0000
 42
1.0000
  0
VERTEX
  8
26
 10
21.8551
 20
9.5631
 30
0.0000
  0
SEQEND
  8
0
  0
POLYLINE
  8
26
 66
1
 10
0.0000
 20
0.0000
 30
0.0000
 40
0.0762
 41
0.0762
 70
0
  0
VERTEX
  8
26
 10
21.5791
 20
10.3003
 30
0.0000
  0
VERTEX
  8
26
 10
21.5791
 20
9.5631
 30
0.0000
  0
SEQEND
  8
0
  0
POLYLINE
  8
26
 66
1
 10
0.0000
 20
0.0000
 30
0.0000
 40
0.0381
 41
0.0381
 70
0
  0
VERTEX
  8
26
 10
21.5600
 20
9.5631
 30
0.0000
 42
1.0000
  0
VERTEX
  8
26
 10
21.5981
 20
9.5631
 30
0.0000
  0
SEQEND
  8
0
  0
POLYLINE
  8
26
 66
1
 10
0.0000
 20
0.0000
 30
0.0000
 40
0.0381
 41
0.0381
 70
0
  0
VERTEX
  8
26
 10
21.5981
 20
10.3003
 30
0.0000
 42
1.0000
  0
VERTEX
  8
26
 10
21.5600
 20
10.3003
 30
0.0000
  0
SEQEND
  8
0
  0
POLYLINE
  8
26
 66
1
 10
0.0000
 20
0.0000
 30
0.0000
 40
0.0762
 41
0.0762
 70
0
  0
VERTEX
  8
26
 10
21.5791
 20
9.5631
 30
0.0000
  0
VERTEX
  8
26
 10
21.2105
 20
9.5631
 30
0.0000
  0
SEQEND
  8
0
  0
POLYLINE
  8
26
 66
1
 10
0.0000
 20
0.0000
 30
0.0000
 40
0.0381
 41
0.0381
 70
0
  0
VERTEX
  8
26
 10
21.2105
 20
9.5822
 30
0.0000
 42
1.0000
  0
VERTEX
  8
26
 10
21.2105
 20
9.5441
 30
0.0000
  0
SEQEND
  8
0
  0
POLYLINE
  8
26
 66
1
 10
0.0000
 20
0.0000
 30
0.0000
 40
0.0381
 41
0.0381
 70
0
  0
VERTEX
  8
26
 10
21.5791
 20
9.5441
 30
0.0000
 42
1.0000
  0
VERTEX
  8
26
 10
21.5791
 20
9.5822
 30
0.0000
  0
SEQEND
  8
0
  0
POLYLINE
  8
26
 66
1
 10
0.0000
 20
0.0000
 30
0.0000
 40
0.0762
 41
0.0762
 70
0
  0
VERTEX
  8
26
 10
21.2105
 20
9.5631
 30
0.0000
  0
VERTEX
  8
26
 10
21.0876
 20
9.6860
 30
0.0000
  0
SEQEND
  8
0
  0
POLYLINE
  8
26
 66
1
 10
0.0000
 20
0.0000
 30
0.0000
 40
0.0381
 41
0.0381
 70
0
  0
VERTEX
  8
26
 10
21.1011
 20
9.6994
 30
0.0000
 42
1.0000
  0
VERTEX
  8
26
 10
21.0741
 20
9.6725
 30
0.0000
  0
SEQEND
  8
0
  0
POLYLINE
  8
26
 66
1
 10
0.0000
 20
0.0000
 30
0.0000
 40
0.0381
 41
0.0381
 70
0
  0
VERTEX
  8
26
 10
21.1970
 20
9.5496
 30
0.0000
 42
1.0000
  0
VERTEX
  8
26
 10
21.2239
 20
9.5766
 30
0.0000
  0
SEQEND
  8
0
  0
POLYLINE
  8
26
 66
1
 10
0.0000
 20
0.0000
 30
0.0000
 40
0.0762
 41
0.0762
 70
0
  0
VERTEX
  8
26
 10
21.0876
 20
9.6860
 30
0.0000
  0
VERTEX
  8
26
 10
21.0876
 20
10.1775
 30
0.0000
  0
SEQEND
  8
0
  0
POLYLINE
  8
26
 66
1
 10
0.0000
 20
0.0000
 30
0.0000
 40
0.0381
 41
0.0381
 70
0
  0
VERTEX
  8
26
 10
21.1066
 20
10.1775
 30
0.0000
 42
1.0000
  0
VERTEX
  8
26
 10
21.0685
 20
10.1775
 30
0.0000
  0
SEQEND
  8
0
  0
POLYLINE
  8
26
 66
1
 10
0.0000
 20
0.0000
 30
0.0000
 40
0.0381
 41
0.0381
 70
0
  0
VERTEX
  8
26
 10
21.0685
 20
9.6860
 30
0.0000
 42
1.0000
  0
VERTEX
  8
26
 10
21.1066
 20
9.6860
 30
0.0000
  0
SEQEND
  8
0
  0
POLYLINE
  8
26
 66
1
 10
0.0000
 20
0.0000
 30
0.0000
 40
0.0762
 41
0.0762
 70
0
  0
VERTEX
  8
26
 10
21.0876
 20
10.1775
 30
0.0000
  0
VERTEX
  8
26
 10
21.2105
 20
10.3003
 30
0.0000
  0
SEQEND
  8
0
  0
POLYLINE
  8
26
 66
1
 10
0.0000
 20
0.0000
 30
0.0000
 40
0.0381
 41
0.0381
 70
0
  0
VERTEX
  8
26
 10
21.2239
 20
10.2869
 30
0.0000
 42
1.0000
  0
VERTEX
  8
26
 10
21.1970
 20
10.3138
 30
0.0000
  0
SEQEND
  8
0
  0
POLYLINE
  8
26
 66
1
 10
0.0000
 20
0.0000
 30
0.0000
 40
0.0381
 41
0.0381
 70
0
  0
VERTEX
  8
26
 10
21.0741
 20
10.1909
 30
0.0000
 42
1.0000
  0
VERTEX
  8
26
 10
21.1011
 20
10.1640
 30
0.0000
  0
SEQEND
  8
0
  0
POLYLINE
  8
26
 66
1
 10
0.0000
 20
0.0000
 30
0.0000
 40
0.0762
 41
0.0762
 70
0
  0
VERTEX
  8
26
 10
21.2105
 20
10.3003
 30
0.0000
  0
VERTEX
  8
26
 10
21.5791
 20
10.3003
 30
0.0000
  0
SEQEND
  8
0
  0
POLYLINE
  8
26
 66
1
 10
0.0000
 20
0.0000
 30
0.0000
 40
0.0381
 41
0.0381
 70
0
  0
VERTEX
  8
26
 10
21.5791
 20
10.2813
 30
0.0000
 42
1.0000
  0
VERTEX
  8
26
 10
21.5791
 20
10.3194
 30
0.0000
  0
SEQEND
  8
0
  0
POLYLINE
  8
26
 66
1
 10
0.0000
 20
0.0000
 30
0.0000
 40
0.0381
 41
0.0381
 70
0
  0
VERTEX
  8
26
 10
21.2105
 20
10.3194
 30
0.0000
 42
1.0000
  0
VERTEX
  8
26
 10
21.2105
 20
10.2813
 30
0.0000
  0
SEQEND
  8
0
  0
POLYLINE
  8
26
 66
1
 10
0.0000
 20
0.0000
 30
0.0000
 40
0.0762
 41
0.0762
 70
0
  0
VERTEX
  8
26
 10
25.1079
 20
6.4903
 30
0.0000
  0
VERTEX
  8
26
 10
25.1079
 20
5.7531
 30
0.0000
  0
SEQEND
  8
0
  0
POLYLINE
  8
26
 66
1
 10
0.0000
 20
0.0000
 30
0.0000
 40
0.0381
 41
0.0381
 70
0
  0
VERTEX
  8
26
 10
25.0889
 20
5.7531
 30
0.0000
 42
1.0000
  0
VERTEX
  8
26
 10
25.1270
 20
5.7531
 30
0.0000
  0
SEQEND
  8
0
  0
POLYLINE
  8
26
 66
1
 10
0.0000
 20
0.0000
 30
0.0000
 40
0.0381
 41
0.0381
 70
0
  0
VERTEX
  8
26
 10
25.1270
 20
6.4903
 30
0.0000
 42
1.0000
  0
VERTEX
  8
26
 10
25.0889
 20
6.4903
 30
0.0000
  0
SEQEND
  8
0
  0
POLYLINE
  8
26
 66
1
 10
0.0000
 20
0.0000
 30
0.0000
 40
0.0762
 41
0.0762
 70
0
  0
VERTEX
  8
26
 10
25.1079
 20
5.7531
 30
0.0000
  0
VERTEX
  8
26
 10
24.7393
 20
5.7531
 30
0.0000
  0
SEQEND
  8
0
  0
POLYLINE
  8
26
 66
1
 10
0.0000
 20
0.0000
 30
0.0000
 40
0.0381
 41
0.0381
 70
0
  0
VERTEX
  8
26
 10
24.7393
 20
5.7721
 30
0.0000
 42
1.0000
  0
VERTEX
  8
26
 10
24.7393
 20
5.7340
 30
0.0000
  0
SEQEND
  8
0
  0
POLYLINE
  8
26
 66
1
 10
0.0000
 20
0.0000
 30
0.0000
 40
0.0381
 41
0.0381
 70
0
  0
VERTEX
  8
26
 10
25.1079
 20
5.7340
 30
0.0000
 42
1.0000
  0
VERTEX
  8
26
 10
25.1079
 20
5.7721
 30
0.0000
  0
SEQEND
  8
0
  0
POLYLINE
  8
26
 66
1
 10
0.0000
 20
0.0000
 30
0.0000
 40
0.0762
 41
0.0762
 70
0
  0
VERTEX
  8
26
 10
24.7393
 20
5.7531
 30
0.0000
  0
VERTEX
  8
26
 10
24.6164
 20
5.8760
 30
0.0000
  0
SEQEND
  8
0
  0
POLYLINE
  8
26
 66
1
 10
0.0000
 20
0.0000
 30
0.0000
 40
0.0381
 41
0.0381
 70
0
  0
VERTEX
  8
26
 10
24.6299
 20
5.8894
 30
0.0000
 42
1.0000
  0
VERTEX
  8
26
 10
24.6029
 20
5.8625
 30
0.0000
  0
SEQEND
  8
0
  0
POLYLINE
  8
26
 66
1
 10
0.0000
 20
0.0000
 30
0.0000
 40
0.0381
 41
0.0381
 70
0
  0
VERTEX
  8
26
 10
24.7258
 20
5.7396
 30
0.0000
 42
1.0000
  0
VERTEX
  8
26
 10
24.7528
 20
5.7666
 30
0.0000
  0
SEQEND
  8
0
  0
POLYLINE
  8
26
 66
1
 10
0.0000
 20
0.0000
 30
0.0000
 40
0.0762
 41
0.0762
 70
0
  0
VERTEX
  8
26
 10
24.6164
 20
5.8760
 30
0.0000
  0
VERTEX
  8
26
 10
24.6164
 20
6.3675
 30
0.0000
  0
SEQEND
  8
0
  0
POLYLINE
  8
26
 66
1
 10
0.0000
 20
0.0000
 30
0.0000
 40
0.0381
 41
0.0381
 70
0
  0
VERTEX
  8
26
 10
24.6355
 20
6.3675
 30
0.0000
 42
1.0000
  0
VERTEX
  8
26
 10
24.5974
 20
6.3675
 30
0.0000
  0
SEQEND
  8
0
  0
POLYLINE
  8
26
 66
1
 10
0.0000
 20
0.0000
 30
0.0000
 40
0.0381
 41
0.0381
 70
0
  0
VERTEX
  8
26
 10
24.5974
 20
5.8760
 30
0.0000
 42
1.0000
  0
VERTEX
  8
26
 10
24.6355
 20
5.8760
 30
0.0000
  0
SEQEND
  8
0
  0
POLYLINE
  8
26
 66
1
 10
0.0000
 20
0.0000
 30
0.0000
 40
0.0762
 41
0.0762
 70
0
  0
VERTEX
  8
26
 10
24.6164
 20
6.3675
 30
0.0000
  0
VERTEX
  8
26
 10
24.7393
 20
6.4903
 30
0.0000
  0
SEQEND
  8
0
  0
POLYLINE
  8
26
 66
1
 10
0.0000
 20
0.0000
 30
0.0000
 40
0.0381
 41
0.0381
 70
0
  0
VERTEX
  8
26
 10
24.7528
 20
6.4769
 30
0.0000
 42
1.0000
  0
VERTEX
  8
26
 10
24.7258
 20
6.5038
 30
0.0000
  0
SEQEND
  8
0
  0
POLYLINE
  8
26
 66
1
 10
0.0000
 20
0.0000
 30
0.0000
 40
0.0381
 41
0.0381
 70
0
  0
VERTEX
  8
26
 10
24.6029
 20
6.3809
 30
0.0000
 42
1.0000
  0
VERTEX
  8
26
 10
24.6299
 20
6.3540
 30
0.0000
  0
SEQEND
  8
0
  0
POLYLINE
  8
26
 66
1
 10
0.0000
 20
0.0000
 30
0.0000
 40
0.0762
 41
0.0762
 70
0
  0
VERTEX
  8
26
 10
24.7393
 20
6.4903
 30
0.0000
  0
VERTEX
  8
26
 10
25.1079
 20
6.4903
 30
0.0000
  0
SEQEND
  8
0
  0
POLYLINE
  8
26
 66
1
 10
0.0000
 20
0.0000
 30
0.0000
 40
0.0381
 41
0.0381
 70
0
  0
VERTEX
  8
26
 10
25.1079
 20
6.4713
 30
0.0000
 42
1.0000
  0
VERTEX
  8
26
 10
25.1079
 20
6.5094
 30
0.0000
  0
SEQEND
  8
0
  0
POLYLINE
  8
26
 66
1
 10
0.0000
 20
0.0000
 30
0.0000
 40
0.0381
 41
0.0381
 70
0
  0
VERTEX
  8
26
 10
24.7393
 20
6.5094
 30
0.0000
 42
1.0000
  0
VERTEX
  8
26
 10
24.7393
 20
6.4713
 30
0.0000
  0
SEQEND
  8
0
  0
POLYLINE
  8
26
 66
1
 10
0.0000
 20
0.0000
 30
0.0000
 40
0.0762
 41
0.0762
 70
0
  0
VERTEX
  8
26
 10
24.3595
 20
6.1217
 30
0.0000
  0
VERTEX
  8
26
 10
23.8680
 20
6.1217
 30
0.0000
  0
SEQEND
  8
0
  0
POLYLINE
  8
26
 66
1
 10
0.0000
 20
0.0000
 30
0.0000
 40
0.0381
 41
0.0381
 70
0
  0
VERTEX
  8
26
 10
23.8680
 20
6.1408
 30
0.0000
 42
1.0000
  0
VERTEX
  8
26
 10
23.8680
 20
6.1027
 30
0.0000
  0
SEQEND
  8
0
  0
POLYLINE
  8
26
 66
1
 10
0.0000
 20
0.0000
 30
0.0000
 40
0.0381
 41
0.0381
 70
0
  0
VERTEX
  8
26
 10
24.3595
 20
6.1027
 30
0.0000
 42
1.0000
  0
VERTEX
  8
26
 10
24.3595
 20
6.1408
 30
0.0000
  0
SEQEND
  8
0
  0
POLYLINE
  8
26
 66
1
 10
0.0000
 20
0.0000
 30
0.0000
 40
0.0762
 41
0.0762
 70
0
  0
VERTEX
  8
26
 10
24.1137
 20
6.3675
 30
0.0000
  0
VERTEX
  8
26
 10
24.1137
 20
5.8760
 30
0.0000
  0
SEQEND
  8
0
  0
POLYLINE
  8
26
 66
1
 10
0.0000
 20
0.0000
 30
0.0000
 40
0.0381
 41
0.0381
 70
0
  0
VERTEX
  8
26
 10
24.0947
 20
5.8760
 30
0.0000
 42
1.0000
  0
VERTEX
  8
26
 10
24.1328
 20
5.8760
 30
0.0000
  0
SEQEND
  8
0
  0
POLYLINE
  8
26
 66
1
 10
0.0000
 20
0.0000
 30
0.0000
 40
0.0381
 41
0.0381
 70
0
  0
VERTEX
  8
26
 10
24.1328
 20
6.3675
 30
0.0000
 42
1.0000
  0
VERTEX
  8
26
 10
24.0947
 20
6.3675
 30
0.0000
  0
SEQEND
  8
0
  0
POLYLINE
  8
26
 66
1
 10
0.0000
 20
0.0000
 30
0.0000
 40
0.0762
 41
0.0762
 70
0
  0
VERTEX
  8
26
 10
23.6111
 20
5.7531
 30
0.0000
  0
VERTEX
  8
26
 10
23.1196
 20
6.4903
 30
0.0000
  0
SEQEND
  8
0
  0
POLYLINE
  8
26
 66
1
 10
0.0000
 20
0.0000
 30
0.0000
 40
0.0381
 41
0.0381
 70
0
  0
VERTEX
  8
26
 10
23.1354
 20
6.5009
 30
0.0000
 42
1.0000
  0
VERTEX
  8
26
 10
23.1037
 20
6.4798
 30
0.0000
  0
SEQEND
  8
0
  0
POLYLINE
  8
26
 66
1
 10
0.0000
 20
0.0000
 30
0.0000
 40
0.0381
 41
0.0381
 70
0
  0
VERTEX
  8
26
 10
23.5952
 20
5.7425
 30
0.0000
 42
1.0000
  0
VERTEX
  8
26
 10
23.6269
 20
5.7637
 30
0.0000
  0
SEQEND
  8
0
  0
POLYLINE
  8
26
 66
1
 10
0.0000
 20
0.0000
 30
0.0000
 40
0.0762
 41
0.0762
 70
0
  0
VERTEX
  8
26
 10
22.8627
 20
5.7531
 30
0.0000
  0
VERTEX
  8
26
 10
22.6169
 20
5.7531
 30
0.0000
  0
SEQEND
  8
0
  0
POLYLINE
  8
26
 66
1
 10
0.0000
 20
0.0000
 30
0.0000
 40
0.0381
 41
0.0381
 70
0
  0
VERTEX
  8
26
 10
22.6169
 20
5.7721
 30
0.0000
 42
1.0000
  0
VERTEX
  8
26
 10
22.6169
 20
5.7340
 30
0.0000
  0
SEQEND
  8
0
  0
POLYLINE
  8
26
 66
1
 10
0.0000
 20
0.0000
 30
0.0000
 40
0.0381
 41
0.0381
 70
0
  0
VERTEX
  8
26
 10
22.8627
 20
5.7340
 30
0.0000
 42
1.0000
  0
VERTEX
  8
26
 10
22.8627
 20
5.7721
 30
0.0000
  0
SEQEND
  8
0
  0
POLYLINE
  8
26
 66
1
 10
0.0000
 20
0.0000
 30
0.0000
 40
0.0762
 41
0.0762
 70
0
  0
VERTEX
  8
26
 10
22.7398
 20
5.7531
 30
0.0000
  0
VERTEX
  8
26
 10
22.7398
 20
6.4903
 30
0.0000
  0
SEQEND
  8
0
  0
POLYLINE
  8
26
 66
1
 10
0.0000
 20
0.0000
 30
0.0000
 40
0.0381
 41
0.0381
 70
0
  0
VERTEX
  8
26
 10
22.7588
 20
6.4903
 30
0.0000
 42
1.0000
  0
VERTEX
  8
26
 10
22.7207
 20
6.4903
 30
0.0000
  0
SEQEND
  8
0
  0
POLYLINE
  8
26
 66
1
 10
0.0000
 20
0.0000
 30
0.0000
 40
0.0381
 41
0.0381
 70
0
  0
VERTEX
  8
26
 10
22.7207
 20
5.7531
 30
0.0000
 42
1.0000
  0
VERTEX
  8
26
 10
22.7588
 20
5.7531
 30
0.0000
  0
SEQEND
  8
0
  0
POLYLINE
  8
26
 66
1
 10
0.0000
 20
0.0000
 30
0.0000
 40
0.0762
 41
0.0762
 70
0
  0
VERTEX
  8
26
 10
22.8627
 20
6.4903
 30
0.0000
  0
VERTEX
  8
26
 10
22.6169
 20
6.4903
 30
0.0000
  0
SEQEND
  8
0
  0
POLYLINE
  8
26
 66
1
 10
0.0000
 20
0.0000
 30
0.0000
 40
0.0381
 41
0.0381
 70
0
  0
VERTEX
  8
26
 10
22.6169
 20
6.5094
 30
0.0000
 42
1.0000
  0
VERTEX
  8
26
 10
22.6169
 20
6.4713
 30
0.0000
  0
SEQEND
  8
0
  0
POLYLINE
  8
26
 66
1
 10
0.0000
 20
0.0000
 30
0.0000
 40
0.0381
 41
0.0381
 70
0
  0
VERTEX
  8
26
 10
22.8627
 20
6.4713
 30
0.0000
 42
1.0000
  0
VERTEX
  8
26
 10
22.8627
 20
6.5094
 30
0.0000
  0
SEQEND
  8
0
  0
POLYLINE
  8
26
 66
1
 10
0.0000
 20
0.0000
 30
0.0000
 40
0.0762
 41
0.0762
 70
0
  0
VERTEX
  8
26
 10
22.3637
 20
5.7531
 30
0.0000
  0
VERTEX
  8
26
 10
22.3637
 20
6.4903
 30
0.0000
  0
SEQEND
  8
0
  0
POLYLINE
  8
26
 66
1
 10
0.0000
 20
0.0000
 30
0.0000
 40
0.0381
 41
0.0381
 70
0
  0
VERTEX
  8
26
 10
22.3828
 20
6.4903
 30
0.0000
 42
1.0000
  0
VERTEX
  8
26
 10
22.3447
 20
6.4903
 30
0.0000
  0
SEQEND
  8
0
  0
POLYLINE
  8
26
 66
1
 10
0.0000
 20
0.0000
 30
0.0000
 40
0.0381
 41
0.0381
 70
0
  0
VERTEX
  8
26
 10
22.3447
 20
5.7531
 30
0.0000
 42
1.0000
  0
VERTEX
  8
26
 10
22.3828
 20
5.7531
 30
0.0000
  0
SEQEND
  8
0
  0
POLYLINE
  8
26
 66
1
 10
0.0000
 20
0.0000
 30
0.0000
 40
0.0762
 41
0.0762
 70
0
  0
VERTEX
  8
26
 10
22.3637
 20
6.4903
 30
0.0000
  0
VERTEX
  8
26
 10
21.8722
 20
5.7531
 30
0.0000
  0
SEQEND
  8
0
  0
POLYLINE
  8
26
 66
1
 10
0.0000
 20
0.0000
 30
0.0000
 40
0.0381
 41
0.0381
 70
0
  0
VERTEX
  8
26
 10
21.8564
 20
5.7637
 30
0.0000
 42
1.0000
  0
VERTEX
  8
26
 10
21.8881
 20
5.7425
 30
0.0000
  0
SEQEND
  8
0
  0
POLYLINE
  8
26
 66
1
 10
0.0000
 20
0.0000
 30
0.0000
 40
0.0381
 41
0.0381
 70
0
  0
VERTEX
  8
26
 10
22.3796
 20
6.4798
 30
0.0000
 42
1.0000
  0
VERTEX
  8
26
 10
22.3479
 20
6.5009
 30
0.0000
  0
SEQEND
  8
0
  0
POLYLINE
  8
26
 66
1
 10
0.0000
 20
0.0000
 30
0.0000
 40
0.0762
 41
0.0762
 70
0
  0
VERTEX
  8
26
 10
21.8722
 20
5.7531
 30
0.0000
  0
VERTEX
  8
26
 10
21.8722
 20
6.4903
 30
0.0000
  0
SEQEND
  8
0
  0
POLYLINE
  8
26
 66
1
 10
0.0000
 20
0.0000
 30
0.0000
 40
0.0381
 41
0.0381
 70
0
  0
VERTEX
  8
26
 10
21.8913
 20
6.4903
 30
0.0000
 42
1.0000
  0
VERTEX
  8
26
 10
21.8532
 20
6.4903
 30
0.0000
  0
SEQEND
  8
0
  0
POLYLINE
  8
26
 66
1
 10
0.0000
 20
0.0000
 30
0.0000
 40
0.0381
 41
0.0381
 70
0
  0
VERTEX
  8
26
 10
21.8532
 20
5.7531
 30
0.0000
 42
1.0000
  0
VERTEX
  8
26
 10
21.8913
 20
5.7531
 30
0.0000
  0
SEQEND
  8
0
  0
POLYLINE
  8
26
 66
1
 10
0.0000
 20
0.0000
 30
0.0000
 40
0.0762
 41
0.0762
 70
0
  0
VERTEX
  8
26
 10
21.6153
 20
5.8760
 30
0.0000
  0
VERTEX
  8
26
 10
21.6153
 20
6.3675
 30
0.0000
  0
SEQEND
  8
0
  0
POLYLINE
  8
26
 66
1
 10
0.0000
 20
0.0000
 30
0.0000
 40
0.0381
 41
0.0381
 70
0
  0
VERTEX
  8
26
 10
21.6343
 20
6.3675
 30
0.0000
 42
1.0000
  0
VERTEX
  8
26
 10
21.5962
 20
6.3675
 30
0.0000
  0
SEQEND
  8
0
  0
POLYLINE
  8
26
 66
1
 10
0.0000
 20
0.0000
 30
0.0000
 40
0.0381
 41
0.0381
 70
0
  0
VERTEX
  8
26
 10
21.5962
 20
5.8760
 30
0.0000
 42
1.0000
  0
VERTEX
  8
26
 10
21.6343
 20
5.8760
 30
0.0000
  0
SEQEND
  8
0
  0
POLYLINE
  8
26
 66
1
 10
0.0000
 20
0.0000
 30
0.0000
 40
0.0762
 41
0.0762
 70
0
  0
VERTEX
  8
26
 10
21.6153
 20
6.3675
 30
0.0000
  0
VERTEX
  8
26
 10
21.4924
 20
6.4903
 30
0.0000
  0
SEQEND
  8
0
  0
POLYLINE
  8
26
 66
1
 10
0.0000
 20
0.0000
 30
0.0000
 40
0.0381
 41
0.0381
 70
0
  0
VERTEX
  8
26
 10
21.5059
 20
6.5038
 30
0.0000
 42
1.0000
  0
VERTEX
  8
26
 10
21.4790
 20
6.4769
 30
0.0000
  0
SEQEND
  8
0
  0
POLYLINE
  8
26
 66
1
 10
0.0000
 20
0.0000
 30
0.0000
 40
0.0381
 41
0.0381
 70
0
  0
VERTEX
  8
26
 10
21.6018
 20
6.3540
 30
0.0000
 42
1.0000
  0
VERTEX
  8
26
 10
21.6288
 20
6.3809
 30
0.0000
  0
SEQEND
  8
0
  0
POLYLINE
  8
26
 66
1
 10
0.0000
 20
0.0000
 30
0.0000
 40
0.0762
 41
0.0762
 70
0
  0
VERTEX
  8
26
 10
21.4924
 20
6.4903
 30
0.0000
  0
VERTEX
  8
26
 10
21.2467
 20
6.4903
 30
0.0000
  0
SEQEND
  8
0
  0
POLYLINE
  8
26
 66
1
 10
0.0000
 20
0.0000
 30
0.0000
 40
0.0381
 41
0.0381
 70
0
  0
VERTEX
  8
26
 10
21.2467
 20
6.5094
 30
0.0000
 42
1.0000
  0
VERTEX
  8
26
 10
21.2467
 20
6.4713
 30
0.0000
  0
SEQEND
  8
0
  0
POLYLINE
  8
26
 66
1
 10
0.0000
 20
0.0000
 30
0.0000
 40
0.0381
 41
0.0381
 70
0
  0
VERTEX
  8
26
 10
21.4924
 20
6.4713
 30
0.0000
 42
1.0000
  0
VERTEX
  8
26
 10
21.4924
 20
6.5094
 30
0.0000
  0
SEQEND
  8
0
  0
POLYLINE
  8
26
 66
1
 10
0.0000
 20
0.0000
 30
0.0000
 40
0.0762
 41
0.0762
 70
0
  0
VERTEX
  8
26
 10
21.2467
 20
6.4903
 30
0.0000
  0
VERTEX
  8
26
 10
21.1238
 20
6.3675
 30
0.0000
  0
SEQEND
  8
0
  0
POLYLINE
  8
26
 66
1
 10
0.0000
 20
0.0000
 30
0.0000
 40
0.0381
 41
0.0381
 70
0
  0
VERTEX
  8
26
 10
21.1103
 20
6.3809
 30
0.0000
 42
1.0000
  0
VERTEX
  8
26
 10
21.1373
 20
6.3540
 30
0.0000
  0
SEQEND
  8
0
  0
POLYLINE
  8
26
 66
1
 10
0.0000
 20
0.0000
 30
0.0000
 40
0.0381
 41
0.0381
 70
0
  0
VERTEX
  8
26
 10
21.2602
 20
6.4769
 30
0.0000
 42
1.0000
  0
VERTEX
  8
26
 10
21.2332
 20
6.5038
 30
0.0000
  0
SEQEND
  8
0
  0
POLYLINE
  8
26
 66
1
 10
0.0000
 20
0.0000
 30
0.0000
 40
0.0762
 41
0.0762
 70
0
  0
VERTEX
  8
26
 10
21.1238
 20
6.3675
 30
0.0000
  0
VERTEX
  8
26
 10
21.1238
 20
5.8760
 30
0.0000
  0
SEQEND
  8
0
  0
POLYLINE
  8
26
 66
1
 10
0.0000
 20
0.0000
 30
0.0000
 40
0.0381
 41
0.0381
 70
0
  0
VERTEX
  8
26
 10
21.1048
 20
5.8760
 30
0.0000
 42
1.0000
  0
VERTEX
  8
26
 10
21.1429
 20
5.8760
 30
0.0000
  0
SEQEND
  8
0
  0
POLYLINE
  8
26
 66
1
 10
0.0000
 20
0.0000
 30
0.0000
 40
0.0381
 41
0.0381
 70
0
  0
VERTEX
  8
26
 10
21.1429
 20
6.3675
 30
0.0000
 42
1.0000
  0
VERTEX
  8
26
 10
21.1048
 20
6.3675
 30
0.0000
  0
SEQEND
  8
0
  0
POLYLINE
  8
26
 66
1
 10
0.0000
 20
0.0000
 30
0.0000
 40
0.0762
 41
0.0762
 70
0
  0
VERTEX
  8
26
 10
21.1238
 20
5.8760
 30
0.0000
  0
VERTEX
  8
26
 10
21.2467
 20
5.7531
 30
0.0000
  0
SEQEND
  8
0
  0
POLYLINE
  8
26
 66
1
 10
0.0000
 20
0.0000
 30
0.0000
 40
0.0381
 41
0.0381
 70
0
  0
VERTEX
  8
26
 10
21.2332
 20
5.7396
 30
0.0000
 42
1.0000
  0
VERTEX
  8
26
 10
21.2602
 20
5.7666
 30
0.0000
  0
SEQEND
  8
0
  0
POLYLINE
  8
26
 66
1
 10
0.0000
 20
0.0000
 30
0.0000
 40
0.0381
 41
0.0381
 70
0
  0
VERTEX
  8
26
 10
21.1373
 20
5.8894
 30
0.0000
 42
1.0000
  0
VERTEX
  8
26
 10
21.1103
 20
5.8625
 30
0.0000
  0
SEQEND
  8
0
  0
POLYLINE
  8
26
 66
1
 10
0.0000
 20
0.0000
 30
0.0000
 40
0.0762
 41
0.0762
 70
0
  0
VERTEX
  8
26
 10
21.2467
 20
5.7531
 30
0.0000
  0
VERTEX
  8
26
 10
21.4924
 20
5.7531
 30
0.0000
  0
SEQEND
  8
0
  0
POLYLINE
  8
26
 66
1
 10
0.0000
 20
0.0000
 30
0.0000
 40
0.0381
 41
0.0381
 70
0
  0
VERTEX
  8
26
 10
21.4924
 20
5.7340
 30
0.0000
 42
1.0000
  0
VERTEX
  8
26
 10
21.4924
 20
5.7721
 30
0.0000
  0
SEQEND
  8
0
  0
POLYLINE
  8
26
 66
1
 10
0.0000
 20
0.0000
 30
0.0000
 40
0.0381
 41
0.0381
 70
0
  0
VERTEX
  8
26
 10
21.2467
 20
5.7721
 30
0.0000
 42
1.0000
  0
VERTEX
  8
26
 10
21.2467
 20
5.7340
 30
0.0000
  0
SEQEND
  8
0
  0
POLYLINE
  8
26
 66
1
 10
0.0000
 20
0.0000
 30
0.0000
 40
0.0762
 41
0.0762
 70
0
  0
VERTEX
  8
26
 10
21.4924
 20
5.7531
 30
0.0000
  0
VERTEX
  8
26
 10
21.6153
 20
5.8760
 30
0.0000
  0
SEQEND
  8
0
  0
POLYLINE
  8
26
 66
1
 10
0.0000
 20
0.0000
 30
0.0000
 40
0.0381
 41
0.0381
 70
0
  0
VERTEX
  8
26
 10
21.6288
 20
5.8625
 30
0.0000
 42
1.0000
  0
VERTEX
  8
26
 10
21.6018
 20
5.8894
 30
0.0000
  0
SEQEND
  8
0
  0
POLYLINE
  8
26
 66
1
 10
0.0000
 20
0.0000
 30
0.0000
 40
0.0381
 41
0.0381
 70
0
  0
VERTEX
  8
26
 10
21.4790
 20
5.7666
 30
0.0000
 42
1.0000
  0
VERTEX
  8
26
 10
21.5059
 20
5.7396
 30
0.0000
  0
SEQEND
  8
0
  0
POLYLINE
  8
26
 66
1
 10
0.0000
 20
0.0000
 30
0.0000
 40
0.0762
 41
0.0762
 70
0
  0
VERTEX
  8
26
 10
21.6153
 20
5.8760
 30
0.0000
  0
VERTEX
  8
26
 10
21.1238
 20
6.3675
 30
0.0000
  0
SEQEND
  8
0
  0
POLYLINE
  8
26
 66
1
 10
0.0000
 20
0.0000
 30
0.0000
 40
0.0381
 41
0.0381
 70
0
  0
VERTEX
  8
26
 10
21.1373
 20
6.3809
 30
0.0000
 42
1.0000
  0
VERTEX
  8
26
 10
21.1103
 20
6.3540
 30
0.0000
  0
SEQEND
  8
0
  0
POLYLINE
  8
26
 66
1
 10
0.0000
 20
0.0000
 30
0.0000
 40
0.0381
 41
0.0381
 70
0
  0
VERTEX
  8
26
 10
21.6018
 20
5.8625
 30
0.0000
 42
1.0000
  0
VERTEX
  8
26
 10
21.6288
 20
5.8894
 30
0.0000
  0
SEQEND
  8
0
  0
POLYLINE
  8
26
 66
1
 10
0.0000
 20
0.0000
 30
0.0000
 40
0.0762
 41
0.0762
 70
0
  0
VERTEX
  8
26
 10
18.5039
 20
11.6973
 30
0.0000
  0
VERTEX
  8
26
 10
18.5039
 20
10.9601
 30
0.0000
  0
SEQEND
  8
0
  0
POLYLINE
  8
26
 66
1
 10
0.0000
 20
0.0000
 30
0.0000
 40
0.0381
 41
0.0381
 70
0
  0
VERTEX
  8
26
 10
18.4849
 20
10.9601
 30
0.0000
 42
1.0000
  0
VERTEX
  8
26
 10
18.5230
 20
10.9601
 30
0.0000
  0
SEQEND
  8
0
  0
POLYLINE
  8
26
 66
1
 10
0.0000
 20
0.0000
 30
0.0000
 40
0.0381
 41
0.0381
 70
0
  0
VERTEX
  8
26
 10
18.5230
 20
11.6973
 30
0.0000
 42
1.0000
  0
VERTEX
  8
26
 10
18.4849
 20
11.6973
 30
0.0000
  0
SEQEND
  8
0
  0
POLYLINE
  8
26
 66
1
 10
0.0000
 20
0.0000
 30
0.0000
 40
0.0762
 41
0.0762
 70
0
  0
VERTEX
  8
26
 10
18.5039
 20
10.9601
 30
0.0000
  0
VERTEX
  8
26
 10
18.1353
 20
10.9601
 30
0.0000
  0
SEQEND
  8
0
  0
POLYLINE
  8
26
 66
1
 10
0.0000
 20
0.0000
 30
0.0000
 40
0.0381
 41
0.0381
 70
0
  0
VERTEX
  8
26
 10
18.1353
 20
10.9792
 30
0.0000
 42
1.0000
  0
VERTEX
  8
26
 10
18.1353
 20
10.9411
 30
0.0000
  0
SEQEND
  8
0
  0
POLYLINE
  8
26
 66
1
 10
0.0000
 20
0.0000
 30
0.0000
 40
0.0381
 41
0.0381
 70
0
  0
VERTEX
  8
26
 10
18.5039
 20
10.9411
 30
0.0000
 42
1.0000
  0
VERTEX
  8
26
 10
18.5039
 20
10.9792
 30
0.0000
  0
SEQEND
  8
0
  0
POLYLINE
  8
26
 66
1
 10
0.0000
 20
0.0000
 30
0.0000
 40
0.0762
 41
0.0762
 70
0
  0
VERTEX
  8
26
 10
18.1353
 20
10.9601
 30
0.0000
  0
VERTEX
  8
26
 10
18.0124
 20
11.0830
 30
0.0000
  0
SEQEND
  8
0
  0
POLYLINE
  8
26
 66
1
 10
0.0000
 20
0.0000
 30
0.0000
 40
0.0381
 41
0.0381
 70
0
  0
VERTEX
  8
26
 10
18.0259
 20
11.0964
 30
0.0000
 42
1.0000
  0
VERTEX
  8
26
 10
17.9989
 20
11.0695
 30
0.0000
  0
SEQEND
  8
0
  0
POLYLINE
  8
26
 66
1
 10
0.0000
 20
0.0000
 30
0.0000
 40
0.0381
 41
0.0381
 70
0
  0
VERTEX
  8
26
 10
18.1218
 20
10.9466
 30
0.0000
 42
1.0000
  0
VERTEX
  8
26
 10
18.1488
 20
10.9736
 30
0.0000
  0
SEQEND
  8
0
  0
POLYLINE
  8
26
 66
1
 10
0.0000
 20
0.0000
 30
0.0000
 40
0.0762
 41
0.0762
 70
0
  0
VERTEX
  8
26
 10
18.0124
 20
11.0830
 30
0.0000
  0
VERTEX
  8
26
 10
18.0124
 20
11.5745
 30
0.0000
  0
SEQEND
  8
0
  0
POLYLINE
  8
26
 66
1
 10
0.0000
 20
0.0000
 30
0.0000
 40
0.0381
 41
0.0381
 70
0
  0
VERTEX
  8
26
 10
18.0315
 20
11.5745
 30
0.0000
 42
1.0000
  0
VERTEX
  8
26
 10
17.9934
 20
11.5745
 30
0.0000
  0
SEQEND
  8
0
  0
POLYLINE
  8
26
 66
1
 10
0.0000
 20
0.0000
 30
0.0000
 40
0.0381
 41
0.0381
 70
0
  0
VERTEX
  8
26
 10
17.9934
 20
11.0830
 30
0.0000
 42
1.0000
  0
VERTEX
  8
26
 10
18.0315
 20
11.0830
 30
0.0000
  0
SEQEND
  8
0
  0
POLYLINE
  8
26
 66
1
 10
0.0000
 20
0.0000
 30
0.0000
 40
0.0762
 41
0.0762
 70
0
  0
VERTEX
  8
26
 10
18.0124
 20
11.5745
 30
0.0000
  0
VERTEX
  8
26
 10
18.1353
 20
11.6973
 30
0.0000
  0
SEQEND
  8
0
  0
POLYLINE
  8
26
 66
1
 10
0.0000
 20
0.0000
 30
0.0000
 40
0.0381
 41
0.0381
 70
0
  0
VERTEX
  8
26
 10
18.1488
 20
11.6839
 30
0.0000
 42
1.0000
  0
VERTEX
  8
26
 10
18.1218
 20
11.7108
 30
0.0000
  0
SEQEND
  8
0
  0
POLYLINE
  8
26
 66
1
 10
0.0000
 20
0.0000
 30
0.0000
 40
0.0381
 41
0.0381
 70
0
  0
VERTEX
  8
26
 10
17.9989
 20
11.5879
 30
0.0000
 42
1.0000
  0
VERTEX
  8
26
 10
18.0259
 20
11.5610
 30
0.0000
  0
SEQEND
  8
0
  0
POLYLINE
  8
26
 66
1
 10
0.0000
 20
0.0000
 30
0.0000
 40
0.0762
 41
0.0762
 70
0
  0
VERTEX
  8
26
 10
18.1353
 20
11.6973
 30
0.0000
  0
VERTEX
  8
26
 10
18.5039
 20
11.6973
 30
0.0000
  0
SEQEND
  8
0
  0
POLYLINE
  8
26
 66
1
 10
0.0000
 20
0.0000
 30
0.0000
 40
0.0381
 41
0.0381
 70
0
  0
VERTEX
  8
26
 10
18.5039
 20
11.6783
 30
0.0000
 42
1.0000
  0
VERTEX
  8
26
 10
18.5039
 20
11.7164
 30
0.0000
  0
SEQEND
  8
0
  0
POLYLINE
  8
26
 66
1
 10
0.0000
 20
0.0000
 30
0.0000
 40
0.0381
 41
0.0381
 70
0
  0
VERTEX
  8
26
 10
18.1353
 20
11.7164
 30
0.0000
 42
1.0000
  0
VERTEX
  8
26
 10
18.1353
 20
11.6783
 30
0.0000
  0
SEQEND
  8
0
  0
POLYLINE
  8
26
 66
1
 10
0.0000
 20
0.0000
 30
0.0000
 40
0.0762
 41
0.0762
 70
0
  0
VERTEX
  8
26
 10
17.7555
 20
11.3287
 30
0.0000
  0
VERTEX
  8
26
 10
17.2640
 20
11.3287
 30
0.0000
  0
SEQEND
  8
0
  0
POLYLINE
  8
26
 66
1
 10
0.0000
 20
0.0000
 30
0.0000
 40
0.0381
 41
0.0381
 70
0
  0
VERTEX
  8
26
 10
17.2640
 20
11.3478
 30
0.0000
 42
1.0000
  0
VERTEX
  8
26
 10
17.2640
 20
11.3097
 30
0.0000
  0
SEQEND
  8
0
  0
POLYLINE
  8
26
 66
1
 10
0.0000
 20
0.0000
 30
0.0000
 40
0.0381
 41
0.0381
 70
0
  0
VERTEX
  8
26
 10
17.7555
 20
11.3097
 30
0.0000
 42
1.0000
  0
VERTEX
  8
26
 10
17.7555
 20
11.3478
 30
0.0000
  0
SEQEND
  8
0
  0
POLYLINE
  8
26
 66
1
 10
0.0000
 20
0.0000
 30
0.0000
 40
0.0762
 41
0.0762
 70
0
  0
VERTEX
  8
26
 10
17.0071
 20
10.9601
 30
0.0000
  0
VERTEX
  8
26
 10
16.5156
 20
11.6973
 30
0.0000
  0
SEQEND
  8
0
  0
POLYLINE
  8
26
 66
1
 10
0.0000
 20
0.0000
 30
0.0000
 40
0.0381
 41
0.0381
 70
0
  0
VERTEX
  8
26
 10
16.5314
 20
11.7079
 30
0.0000
 42
1.0000
  0
VERTEX
  8
26
 10
16.4997
 20
11.6868
 30
0.0000
  0
SEQEND
  8
0
  0
POLYLINE
  8
26
 66
1
 10
0.0000
 20
0.0000
 30
0.0000
 40
0.0381
 41
0.0381
 70
0
  0
VERTEX
  8
26
 10
16.9912
 20
10.9495
 30
0.0000
 42
1.0000
  0
VERTEX
  8
26
 10
17.0229
 20
10.9707
 30
0.0000
  0
SEQEND
  8
0
  0
POLYLINE
  8
26
 66
1
 10
0.0000
 20
0.0000
 30
0.0000
 40
0.0762
 41
0.0762
 70
0
  0
VERTEX
  8
26
 10
16.2587
 20
10.9601
 30
0.0000
  0
VERTEX
  8
26
 10
16.0129
 20
10.9601
 30
0.0000
  0
SEQEND
  8
0
  0
POLYLINE
  8
26
 66
1
 10
0.0000
 20
0.0000
 30
0.0000
 40
0.0381
 41
0.0381
 70
0
  0
VERTEX
  8
26
 10
16.0129
 20
10.9792
 30
0.0000
 42
1.0000
  0
VERTEX
  8
26
 10
16.0129
 20
10.9411
 30
0.0000
  0
SEQEND
  8
0
  0
POLYLINE
  8
26
 66
1
 10
0.0000
 20
0.0000
 30
0.0000
 40
0.0381
 41
0.0381
 70
0
  0
VERTEX
  8
26
 10
16.2587
 20
10.9411
 30
0.0000
 42
1.0000
  0
VERTEX
  8
26
 10
16.2587
 20
10.9792
 30
0.0000
  0
SEQEND
  8
0
  0
POLYLINE
  8
26
 66
1
 10
0.0000
 20
0.0000
 30
0.0000
 40
0.0762
 41
0.0762
 70
0
  0
VERTEX
  8
26
 10
16.1358
 20
10.9601
 30
0.0000
  0
VERTEX
  8
26
 10
16.1358
 20
11.6973
 30
0.0000
  0
SEQEND
  8
0
  0
POLYLINE
  8
26
 66
1
 10
0.0000
 20
0.0000
 30
0.0000
 40
0.0381
 41
0.0381
 70
0
  0
VERTEX
  8
26
 10
16.1548
 20
11.6973
 30
0.0000
 42
1.0000
  0
VERTEX
  8
26
 10
16.1167
 20
11.6973
 30
0.0000
  0
SEQEND
  8
0
  0
POLYLINE
  8
26
 66
1
 10
0.0000
 20
0.0000
 30
0.0000
 40
0.0381
 41
0.0381
 70
0
  0
VERTEX
  8
26
 10
16.1167
 20
10.9601
 30
0.0000
 42
1.0000
  0
VERTEX
  8
26
 10
16.1548
 20
10.9601
 30
0.0000
  0
SEQEND
  8
0
  0
POLYLINE
  8
26
 66
1
 10
0.0000
 20
0.0000
 30
0.0000
 40
0.0762
 41
0.0762
 70
0
  0
VERTEX
  8
26
 10
16.2587
 20
11.6973
 30
0.0000
  0
VERTEX
  8
26
 10
16.0129
 20
11.6973
 30
0.0000
  0
SEQEND
  8
0
  0
POLYLINE
  8
26
 66
1
 10
0.0000
 20
0.0000
 30
0.0000
 40
0.0381
 41
0.0381
 70
0
  0
VERTEX
  8
26
 10
16.0129
 20
11.7164
 30
0.0000
 42
1.0000
  0
VERTEX
  8
26
 10
16.0129
 20
11.6783
 30
0.0000
  0
SEQEND
  8
0
  0
POLYLINE
  8
26
 66
1
 10
0.0000
 20
0.0000
 30
0.0000
 40
0.0381
 41
0.0381
 70
0
  0
VERTEX
  8
26
 10
16.2587
 20
11.6783
 30
0.0000
 42
1.0000
  0
VERTEX
  8
26
 10
16.2587
 20
11.7164
 30
0.0000
  0
SEQEND
  8
0
  0
POLYLINE
  8
26
 66
1
 10
0.0000
 20
0.0000
 30
0.0000
 40
0.0762
 41
0.0762
 70
0
  0
VERTEX
  8
26
 10
15.7597
 20
10.9601
 30
0.0000
  0
VERTEX
  8
26
 10
15.7597
 20
11.6973
 30
0.0000
  0
SEQEND
  8
0
  0
POLYLINE
  8
26
 66
1
 10
0.0000
 20
0.0000
 30
0.0000
 40
0.0381
 41
0.0381
 70
0
  0
VERTEX
  8
26
 10
15.7788
 20
11.6973
 30
0.0000
 42
1.0000
  0
VERTEX
  8
26
 10
15.7407
 20
11.6973
 30
0.0000
  0
SEQEND
  8
0
  0
POLYLINE
  8
26
 66
1
 10
0.0000
 20
0.0000
 30
0.0000
 40
0.0381
 41
0.0381
 70
0
  0
VERTEX
  8
26
 10
15.7407
 20
10.9601
 30
0.0000
 42
1.0000
  0
VERTEX
  8
26
 10
15.7788
 20
10.9601
 30
0.0000
  0
SEQEND
  8
0
  0
POLYLINE
  8
26
 66
1
 10
0.0000
 20
0.0000
 30
0.0000
 40
0.0762
 41
0.0762
 70
0
  0
VERTEX
  8
26
 10
15.7597
 20
11.6973
 30
0.0000
  0
VERTEX
  8
26
 10
15.2682
 20
10.9601
 30
0.0000
  0
SEQEND
  8
0
  0
POLYLINE
  8
26
 66
1
 10
0.0000
 20
0.0000
 30
0.0000
 40
0.0381
 41
0.0381
 70
0
  0
VERTEX
  8
26
 10
15.2524
 20
10.9707
 30
0.0000
 42
1.0000
  0
VERTEX
  8
26
 10
15.2841
 20
10.9495
 30
0.0000
  0
SEQEND
  8
0
  0
POLYLINE
  8
26
 66
1
 10
0.0000
 20
0.0000
 30
0.0000
 40
0.0381
 41
0.0381
 70
0
  0
VERTEX
  8
26
 10
15.7756
 20
11.6868
 30
0.0000
 42
1.0000
  0
VERTEX
  8
26
 10
15.7439
 20
11.7079
 30
0.0000
  0
SEQEND
  8
0
  0
POLYLINE
  8
26
 66
1
 10
0.0000
 20
0.0000
 30
0.0000
 40
0.0762
 41
0.0762
 70
0
  0
VERTEX
  8
26
 10
15.2682
 20
10.9601
 30
0.0000
  0
VERTEX
  8
26
 10
15.2682
 20
11.6973
 30
0.0000
  0
SEQEND
  8
0
  0
POLYLINE
  8
26
 66
1
 10
0.0000
 20
0.0000
 30
0.0000
 40
0.0381
 41
0.0381
 70
0
  0
VERTEX
  8
26
 10
15.2873
 20
11.6973
 30
0.0000
 42
1.0000
  0
VERTEX
  8
26
 10
15.2492
 20
11.6973
 30
0.0000
  0
SEQEND
  8
0
  0
POLYLINE
  8
26
 66
1
 10
0.0000
 20
0.0000
 30
0.0000
 40
0.0381
 41
0.0381
 70
0
  0
VERTEX
  8
26
 10
15.2492
 20
10.9601
 30
0.0000
 42
1.0000
  0
VERTEX
  8
26
 10
15.2873
 20
10.9601
 30
0.0000
  0
SEQEND
  8
0
  0
POLYLINE
  8
26
 66
1
 10
0.0000
 20
0.0000
 30
0.0000
 40
0.0762
 41
0.0762
 70
0
  0
VERTEX
  8
26
 10
15.0113
 20
11.4516
 30
0.0000
  0
VERTEX
  8
26
 10
14.7656
 20
11.6973
 30
0.0000
  0
SEQEND
  8
0
  0
POLYLINE
  8
26
 66
1
 10
0.0000
 20
0.0000
 30
0.0000
 40
0.0381
 41
0.0381
 70
0
  0
VERTEX
  8
26
 10
14.7790
 20
11.7108
 30
0.0000
 42
1.0000
  0
VERTEX
  8
26
 10
14.7521
 20
11.6839
 30
0.0000
  0
SEQEND
  8
0
  0
POLYLINE
  8
26
 66
1
 10
0.0000
 20
0.0000
 30
0.0000
 40
0.0381
 41
0.0381
 70
0
  0
VERTEX
  8
26
 10
14.9978
 20
11.4381
 30
0.0000
 42
1.0000
  0
VERTEX
  8
26
 10
15.0248
 20
11.4651
 30
0.0000
  0
SEQEND
  8
0
  0
POLYLINE
  8
26
 66
1
 10
0.0000
 20
0.0000
 30
0.0000
 40
0.0762
 41
0.0762
 70
0
  0
VERTEX
  8
26
 10
14.7656
 20
11.6973
 30
0.0000
  0
VERTEX
  8
26
 10
14.7656
 20
10.9601
 30
0.0000
  0
SEQEND
  8
0
  0
POLYLINE
  8
26
 66
1
 10
0.0000
 20
0.0000
 30
0.0000
 40
0.0381
 41
0.0381
 70
0
  0
VERTEX
  8
26
 10
14.7465
 20
10.9601
 30
0.0000
 42
1.0000
  0
VERTEX
  8
26
 10
14.7846
 20
10.9601
 30
0.0000
  0
SEQEND
  8
0
  0
POLYLINE
  8
26
 66
1
 10
0.0000
 20
0.0000
 30
0.0000
 40
0.0381
 41
0.0381
 70
0
  0
VERTEX
  8
26
 10
14.7846
 20
11.6973
 30
0.0000
 42
1.0000
  0
VERTEX
  8
26
 10
14.7465
 20
11.6973
 30
0.0000
  0
SEQEND
  8
0
  0
POLYLINE
  8
26
 66
1
 10
0.0000
 20
0.0000
 30
0.0000
 40
0.0762
 41
0.0762
 70
0
  0
VERTEX
  8
26
 10
15.0113
 20
10.9601
 30
0.0000
  0
VERTEX
  8
26
 10
14.5198
 20
10.9601
 30
0.0000
  0
SEQEND
  8
0
  0
POLYLINE
  8
26
 66
1
 10
0.0000
 20
0.0000
 30
0.0000
 40
0.0381
 41
0.0381
 70
0
  0
VERTEX
  8
26
 10
14.5198
 20
10.9792
 30
0.0000
 42
1.0000
  0
VERTEX
  8
26
 10
14.5198
 20
10.9411
 30
0.0000
  0
SEQEND
  8
0
  0
POLYLINE
  8
26
 66
1
 10
0.0000
 20
0.0000
 30
0.0000
 40
0.0381
 41
0.0381
 70
0
  0
VERTEX
  8
26
 10
15.0113
 20
10.9411
 30
0.0000
 42
1.0000
  0
VERTEX
  8
26
 10
15.0113
 20
10.9792
 30
0.0000
  0
SEQEND
  8
0
  0
POLYLINE
  8
26
 66
1
 10
0.0000
 20
0.0000
 30
0.0000
 40
0.0762
 41
0.0762
 70
0
  0
VERTEX
  8
26
 10
18.5039
 20
5.0975
 30
0.0000
  0
VERTEX
  8
26
 10
18.3810
 20
5.2203
 30
0.0000
  0
SEQEND
  8
0
  0
POLYLINE
  8
26
 66
1
 10
0.0000
 20
0.0000
 30
0.0000
 40
0.0381
 41
0.0381
 70
0
  0
VERTEX
  8
26
 10
18.3945
 20
5.2338
 30
0.0000
 42
1.0000
  0
VERTEX
  8
26
 10
18.3676
 20
5.2069
 30
0.0000
  0
SEQEND
  8
0
  0
POLYLINE
  8
26
 66
1
 10
0.0000
 20
0.0000
 30
0.0000
 40
0.0381
 41
0.0381
 70
0
  0
VERTEX
  8
26
 10
18.4904
 20
5.0840
 30
0.0000
 42
1.0000
  0
VERTEX
  8
26
 10
18.5174
 20
5.1109
 30
0.0000
  0
SEQEND
  8
0
  0
POLYLINE
  8
26
 66
1
 10
0.0000
 20
0.0000
 30
0.0000
 40
0.0762
 41
0.0762
 70
0
  0
VERTEX
  8
26
 10
18.3810
 20
5.2203
 30
0.0000
  0
VERTEX
  8
26
 10
18.1353
 20
5.2203
 30
0.0000
  0
SEQEND
  8
0
  0
POLYLINE
  8
26
 66
1
 10
0.0000
 20
0.0000
 30
0.0000
 40
0.0381
 41
0.0381
 70
0
  0
VERTEX
  8
26
 10
18.1353
 20
5.2394
 30
0.0000
 42
1.0000
  0
VERTEX
  8
26
 10
18.1353
 20
5.2013
 30
0.0000
  0
SEQEND
  8
0
  0
POLYLINE
  8
26
 66
1
 10
0.0000
 20
0.0000
 30
0.0000
 40
0.0381
 41
0.0381
 70
0
  0
VERTEX
  8
26
 10
18.3810
 20
5.2013
 30
0.0000
 42
1.0000
  0
VERTEX
  8
26
 10
18.3810
 20
5.2394
 30
0.0000
  0
SEQEND
  8
0
  0
POLYLINE
  8
26
 66
1
 10
0.0000
 20
0.0000
 30
0.0000
 40
0.0762
 41
0.0762
 70
0
  0
VERTEX
  8
26
 10
18.1353
 20
5.2203
 30
0.0000
  0
VERTEX
  8
26
 10
18.0124
 20
5.0975
 30
0.0000
  0
SEQEND
  8
0
  0
POLYLINE
  8
26
 66
1
 10
0.0000
 20
0.0000
 30
0.0000
 40
0.0381
 41
0.0381
 70
0
  0
VERTEX
  8
26
 10
17.9989
 20
5.1109
 30
0.0000
 42
1.0000
  0
VERTEX
  8
26
 10
18.0259
 20
5.0840
 30
0.0000
  0
SEQEND
  8
0
  0
POLYLINE
  8
26
 66
1
 10
0.0000
 20
0.0000
 30
0.0000
 40
0.0381
 41
0.0381
 70
0
  0
VERTEX
  8
26
 10
18.1488
 20
5.2069
 30
0.0000
 42
1.0000
  0
VERTEX
  8
26
 10
18.1218
 20
5.2338
 30
0.0000
  0
SEQEND
  8
0
  0
POLYLINE
  8
26
 66
1
 10
0.0000
 20
0.0000
 30
0.0000
 40
0.0762
 41
0.0762
 70
0
  0
VERTEX
  8
26
 10
18.0124
 20
5.0975
 30
0.0000
  0
VERTEX
  8
26
 10
18.0124
 20
4.9746
 30
0.0000
  0
SEQEND
  8
0
  0
POLYLINE
  8
26
 66
1
 10
0.0000
 20
0.0000
 30
0.0000
 40
0.0381
 41
0.0381
 70
0
  0
VERTEX
  8
26
 10
17.9934
 20
4.9746
 30
0.0000
 42
1.0000
  0
VERTEX
  8
26
 10
18.0315
 20
4.9746
 30
0.0000
  0
SEQEND
  8
0
  0
POLYLINE
  8
26
 66
1
 10
0.0000
 20
0.0000
 30
0.0000
 40
0.0381
 41
0.0381
 70
0
  0
VERTEX
  8
26
 10
18.0315
 20
5.0975
 30
0.0000
 42
1.0000
  0
VERTEX
  8
26
 10
17.9934
 20
5.0975
 30
0.0000
  0
SEQEND
  8
0
  0
POLYLINE
  8
26
 66
1
 10
0.0000
 20
0.0000
 30
0.0000
 40
0.0762
 41
0.0762
 70
0
  0
VERTEX
  8
26
 10
18.0124
 20
4.9746
 30
0.0000
  0
VERTEX
  8
26
 10
18.1353
 20
4.8517
 30
0.0000
  0
SEQEND
  8
0
  0
POLYLINE
  8
26
 66
1
 10
0.0000
 20
0.0000
 30
0.0000
 40
0.0381
 41
0.0381
 70
0
  0
VERTEX
  8
26
 10
18.1218
 20
4.8382
 30
0.0000
 42
1.0000
  0
VERTEX
  8
26
 10
18.1488
 20
4.8652
 30
0.0000
  0
SEQEND
  8
0
  0
POLYLINE
  8
26
 66
1
 10
0.0000
 20
0.0000
 30
0.0000
 40
0.0381
 41
0.0381
 70
0
  0
VERTEX
  8
26
 10
18.0259
 20
4.9881
 30
0.0000
 42
1.0000
  0
VERTEX
  8
26
 10
17.9989
 20
4.9611
 30
0.0000
  0
SEQEND
  8
0
  0
POLYLINE
  8
26
 66
1
 10
0.0000
 20
0.0000
 30
0.0000
 40
0.0762
 41
0.0762
 70
0
  0
VERTEX
  8
26
 10
18.1353
 20
4.8517
 30
0.0000
  0
VERTEX
  8
26
 10
18.2582
 20
4.8517
 30
0.0000
  0
SEQEND
  8
0
  0
POLYLINE
  8
26
 66
1
 10
0.0000
 20
0.0000
 30
0.0000
 40
0.0381
 41
0.0381
 70
0
  0
VERTEX
  8
26
 10
18.2582
 20
4.8327
 30
0.0000
 42
1.0000
  0
VERTEX
  8
26
 10
18.2582
 20
4.8708
 30
0.0000
  0
SEQEND
  8
0
  0
POLYLINE
  8
26
 66
1
 10
0.0000
 20
0.0000
 30
0.0000
 40
0.0381
 41
0.0381
 70
0
  0
VERTEX
  8
26
 10
18.1353
 20
4.8708
 30
0.0000
 42
1.0000
  0
VERTEX
  8
26
 10
18.1353
 20
4.8327
 30
0.0000
  0
SEQEND
  8
0
  0
POLYLINE
  8
26
 66
1
 10
0.0000
 20
0.0000
 30
0.0000
 40
0.0762
 41
0.0762
 70
0
  0
VERTEX
  8
26
 10
18.1353
 20
4.8517
 30
0.0000
  0
VERTEX
  8
26
 10
18.0124
 20
4.7288
 30
0.0000
  0
SEQEND
  8
0
  0
POLYLINE
  8
26
 66
1
 10
0.0000
 20
0.0000
 30
0.0000
 40
0.0381
 41
0.0381
 70
0
  0
VERTEX
  8
26
 10
17.9989
 20
4.7423
 30
0.0000
 42
1.0000
  0
VERTEX
  8
26
 10
18.0259
 20
4.7154
 30
0.0000
  0
SEQEND
  8
0
  0
POLYLINE
  8
26
 66
1
 10
0.0000
 20
0.0000
 30
0.0000
 40
0.0381
 41
0.0381
 70
0
  0
VERTEX
  8
26
 10
18.1488
 20
4.8382
 30
0.0000
 42
1.0000
  0
VERTEX
  8
26
 10
18.1218
 20
4.8652
 30
0.0000
  0
SEQEND
  8
0
  0
POLYLINE
  8
26
 66
1
 10
0.0000
 20
0.0000
 30
0.0000
 40
0.0762
 41
0.0762
 70
0
  0
VERTEX
  8
26
 10
18.0124
 20
4.7288
 30
0.0000
  0
VERTEX
  8
26
 10
18.0124
 20
4.6060
 30
0.0000
  0
SEQEND
  8
0
  0
POLYLINE
  8
26
 66
1
 10
0.0000
 20
0.0000
 30
0.0000
 40
0.0381
 41
0.0381
 70
0
  0
VERTEX
  8
26
 10
17.9934
 20
4.6060
 30
0.0000
 42
1.0000
  0
VERTEX
  8
26
 10
18.0315
 20
4.6060
 30
0.0000
  0
SEQEND
  8
0
  0
POLYLINE
  8
26
 66
1
 10
0.0000
 20
0.0000
 30
0.0000
 40
0.0381
 41
0.0381
 70
0
  0
VERTEX
  8
26
 10
18.0315
 20
4.7288
 30
0.0000
 42
1.0000
  0
VERTEX
  8
26
 10
17.9934
 20
4.7288
 30
0.0000
  0
SEQEND
  8
0
  0
POLYLINE
  8
26
 66
1
 10
0.0000
 20
0.0000
 30
0.0000
 40
0.0762
 41
0.0762
 70
0
  0
VERTEX
  8
26
 10
18.0124
 20
4.6060
 30
0.0000
  0
VERTEX
  8
26
 10
18.1353
 20
4.4831
 30
0.0000
  0
SEQEND
  8
0
  0
POLYLINE
  8
26
 66
1
 10
0.0000
 20
0.0000
 30
0.0000
 40
0.0381
 41
0.0381
 70
0
  0
VERTEX
  8
26
 10
18.1218
 20
4.4696
 30
0.0000
 42
1.0000
  0
VERTEX
  8
26
 10
18.1488
 20
4.4966
 30
0.0000
  0
SEQEND
  8
0
  0
POLYLINE
  8
26
 66
1
 10
0.0000
 20
0.0000
 30
0.0000
 40
0.0381
 41
0.0381
 70
0
  0
VERTEX
  8
26
 10
18.0259
 20
4.6194
 30
0.0000
 42
1.0000
  0
VERTEX
  8
26
 10
17.9989
 20
4.5925
 30
0.0000
  0
SEQEND
  8
0
  0
POLYLINE
  8
26
 66
1
 10
0.0000
 20
0.0000
 30
0.0000
 40
0.0762
 41
0.0762
 70
0
  0
VERTEX
  8
26
 10
18.1353
 20
4.4831
 30
0.0000
  0
VERTEX
  8
26
 10
18.3810
 20
4.4831
 30
0.0000
  0
SEQEND
  8
0
  0
POLYLINE
  8
26
 66
1
 10
0.0000
 20
0.0000
 30
0.0000
 40
0.0381
 41
0.0381
 70
0
  0
VERTEX
  8
26
 10
18.3810
 20
4.4641
 30
0.0000
 42
1.0000
  0
VERTEX
  8
26
 10
18.3810
 20
4.5022
 30
0.0000
  0
SEQEND
  8
0
  0
POLYLINE
  8
26
 66
1
 10
0.0000
 20
0.0000
 30
0.0000
 40
0.0381
 41
0.0381
 70
0
  0
VERTEX
  8
26
 10
18.1353
 20
4.5022
 30
0.0000
 42
1.0000
  0
VERTEX
  8
26
 10
18.1353
 20
4.4641
 30
0.0000
  0
SEQEND
  8
0
  0
POLYLINE
  8
26
 66
1
 10
0.0000
 20
0.0000
 30
0.0000
 40
0.0762
 41
0.0762
 70
0
  0
VERTEX
  8
26
 10
18.3810
 20
4.4831
 30
0.0000
  0
VERTEX
  8
26
 10
18.5039
 20
4.6060
 30
0.0000
  0
SEQEND
  8
0
  0
POLYLINE
  8
26
 66
1
 10
0.0000
 20
0.0000
 30
0.0000
 40
0.0381
 41
0.0381
 70
0
  0
VERTEX
  8
26
 10
18.5174
 20
4.5925
 30
0.0000
 42
1.0000
  0
VERTEX
  8
26
 10
18.4904
 20
4.6194
 30
0.0000
  0
SEQEND
  8
0
  0
POLYLINE
  8
26
 66
1
 10
0.0000
 20
0.0000
 30
0.0000
 40
0.0381
 41
0.0381
 70
0
  0
VERTEX
  8
26
 10
18.3676
 20
4.4966
 30
0.0000
 42
1.0000
  0
VERTEX
  8
26
 10
18.3945
 20
4.4696
 30
0.0000
  0
SEQEND
  8
0
  0
POLYLINE
  8
26
 66
1
 10
0.0000
 20
0.0000
 30
0.0000
 40
0.0762
 41
0.0762
 70
0
  0
VERTEX
  8
26
 10
17.7555
 20
4.4831
 30
0.0000
  0
VERTEX
  8
26
 10
17.7555
 20
4.6060
 30
0.0000
  0
SEQEND
  8
0
  0
POLYLINE
  8
26
 66
1
 10
0.0000
 20
0.0000
 30
0.0000
 40
0.0381
 41
0.0381
 70
0
  0
VERTEX
  8
26
 10
17.7745
 20
4.6060
 30
0.0000
 42
1.0000
  0
VERTEX
  8
26
 10
17.7364
 20
4.6060
 30
0.0000
  0
SEQEND
  8
0
  0
POLYLINE
  8
26
 66
1
 10
0.0000
 20
0.0000
 30
0.0000
 40
0.0381
 41
0.0381
 70
0
  0
VERTEX
  8
26
 10
17.7364
 20
4.4831
 30
0.0000
 42
1.0000
  0
VERTEX
  8
26
 10
17.7745
 20
4.4831
 30
0.0000
  0
SEQEND
  8
0
  0
POLYLINE
  8
26
 66
1
 10
0.0000
 20
0.0000
 30
0.0000
 40
0.0762
 41
0.0762
 70
0
  0
VERTEX
  8
26
 10
17.7555
 20
4.6060
 30
0.0000
  0
VERTEX
  8
26
 10
17.6326
 20
4.6060
 30
0.0000
  0
SEQEND
  8
0
  0
POLYLINE
  8
26
 66
1
 10
0.0000
 20
0.0000
 30
0.0000
 40
0.0381
 41
0.0381
 70
0
  0
VERTEX
  8
26
 10
17.6326
 20
4.6250
 30
0.0000
 42
1.0000
  0
VERTEX
  8
26
 10
17.6326
 20
4.5869
 30
0.0000
  0
SEQEND
  8
0
  0
POLYLINE
  8
26
 66
1
 10
0.0000
 20
0.0000
 30
0.0000
 40
0.0381
 41
0.0381
 70
0
  0
VERTEX
  8
26
 10
17.7555
 20
4.5869
 30
0.0000
 42
1.0000
  0
VERTEX
  8
26
 10
17.7555
 20
4.6250
 30
0.0000
  0
SEQEND
  8
0
  0
POLYLINE
  8
26
 66
1
 10
0.0000
 20
0.0000
 30
0.0000
 40
0.0762
 41
0.0762
 70
0
  0
VERTEX
  8
26
 10
17.6326
 20
4.6060
 30
0.0000
  0
VERTEX
  8
26
 10
17.6326
 20
4.4831
 30
0.0000
  0
SEQEND
  8
0
  0
POLYLINE
  8
26
 66
1
 10
0.0000
 20
0.0000
 30
0.0000
 40
0.0381
 41
0.0381
 70
0
  0
VERTEX
  8
26
 10
17.6136
 20
4.4831
 30
0.0000
 42
1.0000
  0
VERTEX
  8
26
 10
17.6517
 20
4.4831
 30
0.0000
  0
SEQEND
  8
0
  0
POLYLINE
  8
26
 66
1
 10
0.0000
 20
0.0000
 30
0.0000
 40
0.0381
 41
0.0381
 70
0
  0
VERTEX
  8
26
 10
17.6517
 20
4.6060
 30
0.0000
 42
1.0000
  0
VERTEX
  8
26
 10
17.6136
 20
4.6060
 30
0.0000
  0
SEQEND
  8
0
  0
POLYLINE
  8
26
 66
1
 10
0.0000
 20
0.0000
 30
0.0000
 40
0.0762
 41
0.0762
 70
0
  0
VERTEX
  8
26
 10
17.6326
 20
4.4831
 30
0.0000
  0
VERTEX
  8
26
 10
17.7555
 20
4.4831
 30
0.0000
  0
SEQEND
  8
0
  0
POLYLINE
  8
26
 66
1
 10
0.0000
 20
0.0000
 30
0.0000
 40
0.0381
 41
0.0381
 70
0
  0
VERTEX
  8
26
 10
17.7555
 20
4.4641
 30
0.0000
 42
1.0000
  0
VERTEX
  8
26
 10
17.7555
 20
4.5022
 30
0.0000
  0
SEQEND
  8
0
  0
POLYLINE
  8
26
 66
1
 10
0.0000
 20
0.0000
 30
0.0000
 40
0.0381
 41
0.0381
 70
0
  0
VERTEX
  8
26
 10
17.6326
 20
4.5022
 30
0.0000
 42
1.0000
  0
VERTEX
  8
26
 10
17.6326
 20
4.4641
 30
0.0000
  0
SEQEND
  8
0
  0
POLYLINE
  8
26
 66
1
 10
0.0000
 20
0.0000
 30
0.0000
 40
0.0762
 41
0.0762
 70
0
  0
VERTEX
  8
26
 10
17.3813
 20
5.0975
 30
0.0000
  0
VERTEX
  8
26
 10
17.2584
 20
5.2203
 30
0.0000
  0
SEQEND
  8
0
  0
POLYLINE
  8
26
 66
1
 10
0.0000
 20
0.0000
 30
0.0000
 40
0.0381
 41
0.0381
 70
0
  0
VERTEX
  8
26
 10
17.2719
 20
5.2338
 30
0.0000
 42
1.0000
  0
VERTEX
  8
26
 10
17.2449
 20
5.2069
 30
0.0000
  0
SEQEND
  8
0
  0
POLYLINE
  8
26
 66
1
 10
0.0000
 20
0.0000
 30
0.0000
 40
0.0381
 41
0.0381
 70
0
  0
VERTEX
  8
26
 10
17.3678
 20
5.0840
 30
0.0000
 42
1.0000
  0
VERTEX
  8
26
 10
17.3947
 20
5.1109
 30
0.0000
  0
SEQEND
  8
0
  0
POLYLINE
  8
26
 66
1
 10
0.0000
 20
0.0000
 30
0.0000
 40
0.0762
 41
0.0762
 70
0
  0
VERTEX
  8
26
 10
17.2584
 20
5.2203
 30
0.0000
  0
VERTEX
  8
26
 10
17.0127
 20
5.2203
 30
0.0000
  0
SEQEND
  8
0
  0
POLYLINE
  8
26
 66
1
 10
0.0000
 20
0.0000
 30
0.0000
 40
0.0381
 41
0.0381
 70
0
  0
VERTEX
  8
26
 10
17.0127
 20
5.2394
 30
0.0000
 42
1.0000
  0
VERTEX
  8
26
 10
17.0127
 20
5.2013
 30
0.0000
  0
SEQEND
  8
0
  0
POLYLINE
  8
26
 66
1
 10
0.0000
 20
0.0000
 30
0.0000
 40
0.0381
 41
0.0381
 70
0
  0
VERTEX
  8
26
 10
17.2584
 20
5.2013
 30
0.0000
 42
1.0000
  0
VERTEX
  8
26
 10
17.2584
 20
5.2394
 30
0.0000
  0
SEQEND
  8
0
  0
POLYLINE
  8
26
 66
1
 10
0.0000
 20
0.0000
 30
0.0000
 40
0.0762
 41
0.0762
 70
0
  0
VERTEX
  8
26
 10
17.0127
 20
5.2203
 30
0.0000
  0
VERTEX
  8
26
 10
16.8898
 20
5.0975
 30
0.0000
  0
SEQEND
  8
0
  0
POLYLINE
  8
26
 66
1
 10
0.0000
 20
0.0000
 30
0.0000
 40
0.0381
 41
0.0381
 70
0
  0
VERTEX
  8
26
 10
16.8763
 20
5.1109
 30
0.0000
 42
1.0000
  0
VERTEX
  8
26
 10
16.9033
 20
5.0840
 30
0.0000
  0
SEQEND
  8
0
  0
POLYLINE
  8
26
 66
1
 10
0.0000
 20
0.0000
 30
0.0000
 40
0.0381
 41
0.0381
 70
0
  0
VERTEX
  8
26
 10
17.0261
 20
5.2069
 30
0.0000
 42
1.0000
  0
VERTEX
  8
26
 10
16.9992
 20
5.2338
 30
0.0000
  0
SEQEND
  8
0
  0
POLYLINE
  8
26
 66
1
 10
0.0000
 20
0.0000
 30
0.0000
 40
0.0762
 41
0.0762
 70
0
  0
VERTEX
  8
26
 10
16.8898
 20
5.0975
 30
0.0000
  0
VERTEX
  8
26
 10
16.8898
 20
4.9746
 30
0.0000
  0
SEQEND
  8
0
  0
POLYLINE
  8
26
 66
1
 10
0.0000
 20
0.0000
 30
0.0000
 40
0.0381
 41
0.0381
 70
0
  0
VERTEX
  8
26
 10
16.8707
 20
4.9746
 30
0.0000
 42
1.0000
  0
VERTEX
  8
26
 10
16.9088
 20
4.9746
 30
0.0000
  0
SEQEND
  8
0
  0
POLYLINE
  8
26
 66
1
 10
0.0000
 20
0.0000
 30
0.0000
 40
0.0381
 41
0.0381
 70
0
  0
VERTEX
  8
26
 10
16.9088
 20
5.0975
 30
0.0000
 42
1.0000
  0
VERTEX
  8
26
 10
16.8707
 20
5.0975
 30
0.0000
  0
SEQEND
  8
0
  0
POLYLINE
  8
26
 66
1
 10
0.0000
 20
0.0000
 30
0.0000
 40
0.0762
 41
0.0762
 70
0
  0
VERTEX
  8
26
 10
16.8898
 20
4.9746
 30
0.0000
  0
VERTEX
  8
26
 10
17.0127
 20
4.8517
 30
0.0000
  0
SEQEND
  8
0
  0
POLYLINE
  8
26
 66
1
 10
0.0000
 20
0.0000
 30
0.0000
 40
0.0381
 41
0.0381
 70
0
  0
VERTEX
  8
26
 10
16.9992
 20
4.8382
 30
0.0000
 42
1.0000
  0
VERTEX
  8
26
 10
17.0261
 20
4.8652
 30
0.0000
  0
SEQEND
  8
0
  0
POLYLINE
  8
26
 66
1
 10
0.0000
 20
0.0000
 30
0.0000
 40
0.0381
 41
0.0381
 70
0
  0
VERTEX
  8
26
 10
16.9033
 20
4.9881
 30
0.0000
 42
1.0000
  0
VERTEX
  8
26
 10
16.8763
 20
4.9611
 30
0.0000
  0
SEQEND
  8
0
  0
POLYLINE
  8
26
 66
1
 10
0.0000
 20
0.0000
 30
0.0000
 40
0.0762
 41
0.0762
 70
0
  0
VERTEX
  8
26
 10
17.0127
 20
4.8517
 30
0.0000
  0
VERTEX
  8
26
 10
17.1355
 20
4.8517
 30
0.0000
  0
SEQEND
  8
0
  0
POLYLINE
  8
26
 66
1
 10
0.0000
 20
0.0000
 30
0.0000
 40
0.0381
 41
0.0381
 70
0
  0
VERTEX
  8
26
 10
17.1355
 20
4.8327
 30
0.0000
 42
1.0000
  0
VERTEX
  8
26
 10
17.1355
 20
4.8708
 30
0.0000
  0
SEQEND
  8
0
  0
POLYLINE
  8
26
 66
1
 10
0.0000
 20
0.0000
 30
0.0000
 40
0.0381
 41
0.0381
 70
0
  0
VERTEX
  8
26
 10
17.0127
 20
4.8708
 30
0.0000
 42
1.0000
  0
VERTEX
  8
26
 10
17.0127
 20
4.8327
 30
0.0000
  0
SEQEND
  8
0
  0
POLYLINE
  8
26
 66
1
 10
0.0000
 20
0.0000
 30
0.0000
 40
0.0762
 41
0.0762
 70
0
  0
VERTEX
  8
26
 10
17.0127
 20
4.8517
 30
0.0000
  0
VERTEX
  8
26
 10
16.8898
 20
4.7288
 30
0.0000
  0
SEQEND
  8
0
  0
POLYLINE
  8
26
 66
1
 10
0.0000
 20
0.0000
 30
0.0000
 40
0.0381
 41
0.0381
 70
0
  0
VERTEX
  8
26
 10
16.8763
 20
4.7423
 30
0.0000
 42
1.0000
  0
VERTEX
  8
26
 10
16.9033
 20
4.7154
 30
0.0000
  0
SEQEND
  8
0
  0
POLYLINE
  8
26
 66
1
 10
0.0000
 20
0.0000
 30
0.0000
 40
0.0381
 41
0.0381
 70
0
  0
VERTEX
  8
26
 10
17.0261
 20
4.8382
 30
0.0000
 42
1.0000
  0
VERTEX
  8
26
 10
16.9992
 20
4.8652
 30
0.0000
  0
SEQEND
  8
0
  0
POLYLINE
  8
26
 66
1
 10
0.0000
 20
0.0000
 30
0.0000
 40
0.0762
 41
0.0762
 70
0
  0
VERTEX
  8
26
 10
16.8898
 20
4.7288
 30
0.0000
  0
VERTEX
  8
26
 10
16.8898
 20
4.6060
 30
0.0000
  0
SEQEND
  8
0
  0
POLYLINE
  8
26
 66
1
 10
0.0000
 20
0.0000
 30
0.0000
 40
0.0381
 41
0.0381
 70
0
  0
VERTEX
  8
26
 10
16.8707
 20
4.6060
 30
0.0000
 42
1.0000
  0
VERTEX
  8
26
 10
16.9088
 20
4.6060
 30
0.0000
  0
SEQEND
  8
0
  0
POLYLINE
  8
26
 66
1
 10
0.0000
 20
0.0000
 30
0.0000
 40
0.0381
 41
0.0381
 70
0
  0
VERTEX
  8
26
 10
16.9088
 20
4.7288
 30
0.0000
 42
1.0000
  0
VERTEX
  8
26
 10
16.8707
 20
4.7288
 30
0.0000
  0
SEQEND
  8
0
  0
POLYLINE
  8
26
 66
1
 10
0.0000
 20
0.0000
 30
0.0000
 40
0.0762
 41
0.0762
 70
0
  0
VERTEX
  8
26
 10
16.8898
 20
4.6060
 30
0.0000
  0
VERTEX
  8
26
 10
17.0127
 20
4.4831
 30
0.0000
  0
SEQEND
  8
0
  0
POLYLINE
  8
26
 66
1
 10
0.0000
 20
0.0000
 30
0.0000
 40
0.0381
 41
0.0381
 70
0
  0
VERTEX
  8
26
 10
16.9992
 20
4.4696
 30
0.0000
 42
1.0000
  0
VERTEX
  8
26
 10
17.0261
 20
4.4966
 30
0.0000
  0
SEQEND
  8
0
  0
POLYLINE
  8
26
 66
1
 10
0.0000
 20
0.0000
 30
0.0000
 40
0.0381
 41
0.0381
 70
0
  0
VERTEX
  8
26
 10
16.9033
 20
4.6194
 30
0.0000
 42
1.0000
  0
VERTEX
  8
26
 10
16.8763
 20
4.5925
 30
0.0000
  0
SEQEND
  8
0
  0
POLYLINE
  8
26
 66
1
 10
0.0000
 20
0.0000
 30
0.0000
 40
0.0762
 41
0.0762
 70
0
  0
VERTEX
  8
26
 10
17.0127
 20
4.4831
 30
0.0000
  0
VERTEX
  8
26
 10
17.2584
 20
4.4831
 30
0.0000
  0
SEQEND
  8
0
  0
POLYLINE
  8
26
 66
1
 10
0.0000
 20
0.0000
 30
0.0000
 40
0.0381
 41
0.0381
 70
0
  0
VERTEX
  8
26
 10
17.2584
 20
4.4641
 30
0.0000
 42
1.0000
  0
VERTEX
  8
26
 10
17.2584
 20
4.5022
 30
0.0000
  0
SEQEND
  8
0
  0
POLYLINE
  8
26
 66
1
 10
0.0000
 20
0.0000
 30
0.0000
 40
0.0381
 41
0.0381
 70
0
  0
VERTEX
  8
26
 10
17.0127
 20
4.5022
 30
0.0000
 42
1.0000
  0
VERTEX
  8
26
 10
17.0127
 20
4.4641
 30
0.0000
  0
SEQEND
  8
0
  0
POLYLINE
  8
26
 66
1
 10
0.0000
 20
0.0000
 30
0.0000
 40
0.0762
 41
0.0762
 70
0
  0
VERTEX
  8
26
 10
17.2584
 20
4.4831
 30
0.0000
  0
VERTEX
  8
26
 10
17.3813
 20
4.6060
 30
0.0000
  0
SEQEND
  8
0
  0
POLYLINE
  8
26
 66
1
 10
0.0000
 20
0.0000
 30
0.0000
 40
0.0381
 41
0.0381
 70
0
  0
VERTEX
  8
26
 10
17.3947
 20
4.5925
 30
0.0000
 42
1.0000
  0
VERTEX
  8
26
 10
17.3678
 20
4.6194
 30
0.0000
  0
SEQEND
  8
0
  0
POLYLINE
  8
26
 66
1
 10
0.0000
 20
0.0000
 30
0.0000
 40
0.0381
 41
0.0381
 70
0
  0
VERTEX
  8
26
 10
17.2449
 20
4.4966
 30
0.0000
 42
1.0000
  0
VERTEX
  8
26
 10
17.2719
 20
4.4696
 30
0.0000
  0
SEQEND
  8
0
  0
POLYLINE
  8
26
 66
1
 10
0.0000
 20
0.0000
 30
0.0000
 40
0.0762
 41
0.0762
 70
0
  0
VERTEX
  8
26
 10
16.6329
 20
5.2203
 30
0.0000
  0
VERTEX
  8
26
 10
16.6329
 20
4.7288
 30
0.0000
  0
SEQEND
  8
0
  0
POLYLINE
  8
26
 66
1
 10
0.0000
 20
0.0000
 30
0.0000
 40
0.0381
 41
0.0381
 70
0
  0
VERTEX
  8
26
 10
16.6138
 20
4.7288
 30
0.0000
 42
1.0000
  0
VERTEX
  8
26
 10
16.6519
 20
4.7288
 30
0.0000
  0
SEQEND
  8
0
  0
POLYLINE
  8
26
 66
1
 10
0.0000
 20
0.0000
 30
0.0000
 40
0.0381
 41
0.0381
 70
0
  0
VERTEX
  8
26
 10
16.6519
 20
5.2203
 30
0.0000
 42
1.0000
  0
VERTEX
  8
26
 10
16.6138
 20
5.2203
 30
0.0000
  0
SEQEND
  8
0
  0
POLYLINE
  8
26
 66
1
 10
0.0000
 20
0.0000
 30
0.0000
 40
0.0762
 41
0.0762
 70
0
  0
VERTEX
  8
26
 10
16.6329
 20
4.7288
 30
0.0000
  0
VERTEX
  8
26
 10
16.3871
 20
4.4831
 30
0.0000
  0
SEQEND
  8
0
  0
POLYLINE
  8
26
 66
1
 10
0.0000
 20
0.0000
 30
0.0000
 40
0.0381
 41
0.0381
 70
0
  0
VERTEX
  8
26
 10
16.3737
 20
4.4966
 30
0.0000
 42
1.0000
  0
VERTEX
  8
26
 10
16.4006
 20
4.4696
 30
0.0000
  0
SEQEND
  8
0
  0
POLYLINE
  8
26
 66
1
 10
0.0000
 20
0.0000
 30
0.0000
 40
0.0381
 41
0.0381
 70
0
  0
VERTEX
  8
26
 10
16.6463
 20
4.7154
 30
0.0000
 42
1.0000
  0
VERTEX
  8
26
 10
16.6194
 20
4.7423
 30
0.0000
  0
SEQEND
  8
0
  0
POLYLINE
  8
26
 66
1
 10
0.0000
 20
0.0000
 30
0.0000
 40
0.0762
 41
0.0762
 70
0
  0
VERTEX
  8
26
 10
16.3871
 20
4.4831
 30
0.0000
  0
VERTEX
  8
26
 10
16.1414
 20
4.7288
 30
0.0000
  0
SEQEND
  8
0
  0
POLYLINE
  8
26
 66
1
 10
0.0000
 20
0.0000
 30
0.0000
 40
0.0381
 41
0.0381
 70
0
  0
VERTEX
  8
26
 10
16.1548
 20
4.7423
 30
0.0000
 42
1.0000
  0
VERTEX
  8
26
 10
16.1279
 20
4.7154
 30
0.0000
  0
SEQEND
  8
0
  0
POLYLINE
  8
26
 66
1
 10
0.0000
 20
0.0000
 30
0.0000
 40
0.0381
 41
0.0381
 70
0
  0
VERTEX
  8
26
 10
16.3737
 20
4.4696
 30
0.0000
 42
1.0000
  0
VERTEX
  8
26
 10
16.4006
 20
4.4966
 30
0.0000
  0
SEQEND
  8
0
  0
POLYLINE
  8
26
 66
1
 10
0.0000
 20
0.0000
 30
0.0000
 40
0.0762
 41
0.0762
 70
0
  0
VERTEX
  8
26
 10
16.1414
 20
4.7288
 30
0.0000
  0
VERTEX
  8
26
 10
16.1414
 20
5.2203
 30
0.0000
  0
SEQEND
  8
0
  0
POLYLINE
  8
26
 66
1
 10
0.0000
 20
0.0000
 30
0.0000
 40
0.0381
 41
0.0381
 70
0
  0
VERTEX
  8
26
 10
16.1604
 20
5.2203
 30
0.0000
 42
1.0000
  0
VERTEX
  8
26
 10
16.1223
 20
5.2203
 30
0.0000
  0
SEQEND
  8
0
  0
POLYLINE
  8
26
 66
1
 10
0.0000
 20
0.0000
 30
0.0000
 40
0.0381
 41
0.0381
 70
0
  0
VERTEX
  8
26
 10
16.1223
 20
4.7288
 30
0.0000
 42
1.0000
  0
VERTEX
  8
26
 10
16.1604
 20
4.7288
 30
0.0000
  0
SEQEND
  8
0
  0
CIRCLE
  8
20
 10
13.9700
 20
10.1854
 30
0.0000
 40
0.5000
  0
CIRCLE
  8
20
 10
13.9700
 20
5.7658
 30
0.0000
 40
0.5000
  0
POINT
  8
23
 10
4.9520
 20
8.0010
 30
0.0000
  0
POLYLINE
  8
51
 66
1
 10
0.0000
 20
0.0000
 30
0.0000
 40
0.1270
 41
0.1270
 70
0
  0
VERTEX
  8
51
 10
-0.0480
 20
14.0010
 30
0.0000
  0
VERTEX
  8
51
 10
8.6520
 20
14.0010
 30
0.0000
  0
SEQEND
  8
0
  0
POLYLINE
  8
51
 66
1
 10
0.0000
 20
0.0000
 30
0.0000
 40
0.0635
 41
0.0635
 70
0
  0
VERTEX
  8
51
 10
8.6520
 20
13.9693
 30
0.0000
 42
1.0000
  0
VERTEX
  8
51
 10
8.6520
 20
14.0328
 30
0.0000
  0
SEQEND
  8
0
  0
POLYLINE
  8
51
 66
1
 10
0.0000
 20
0.0000
 30
0.0000
 40
0.0635
 41
0.0635
 70
0
  0
VERTEX
  8
51
 10
-0.0480
 20
14.0328
 30
0.0000
 42
1.0000
  0
VERTEX
  8
51
 10
-0.0480
 20
13.9693
 30
0.0000
  0
SEQEND
  8
0
  0
POLYLINE
  8
51
 66
1
 10
0.0000
 20
0.0000
 30
0.0000
 40
0.1270
 41
0.1270
 70
0
  0
VERTEX
  8
51
 10
8.6520
 20
14.0010
 30
0.0000
  0
VERTEX
  8
51
 10
8.6520
 20
12.8343
 30
0.0000
  0
SEQEND
  8
0
  0
POLYLINE
  8
51
 66
1
 10
0.0000
 20
0.0000
 30
0.0000
 40
0.0635
 41
0.0635
 70
0
  0
VERTEX
  8
51
 10
8.6202
 20
12.8343
 30
0.0000
 42
1.0000
  0
VERTEX
  8
51
 10
8.6837
 20
12.8343
 30
0.0000
  0
SEQEND
  8
0
  0
POLYLINE
  8
51
 66
1
 10
0.0000
 20
0.0000
 30
0.0000
 40
0.0635
 41
0.0635
 70
0
  0
VERTEX
  8
51
 10
8.6837
 20
14.0010
 30
0.0000
 42
1.0000
  0
VERTEX
  8
51
 10
8.6202
 20
14.0010
 30
0.0000
  0
SEQEND
  8
0
  0
POLYLINE
  8
51
 66
1
 10
0.0000
 20
0.0000
 30
0.0000
 40
0.1270
 41
0.1270
 70
0
  0
VERTEX
  8
51
 10
8.6520
 20
11.8343
 30
0.0000
  0
VERTEX
  8
51
 10
8.6520
 20
10.6677
 30
0.0000
  0
SEQEND
  8
0
  0
POLYLINE
  8
51
 66
1
 10
0.0000
 20
0.0000
 30
0.0000
 40
0.0635
 41
0.0635
 70
0
  0
VERTEX
  8
51
 10
8.6202
 20
10.6677
 30
0.0000
 42
1.0000
  0
VERTEX
  8
51
 10
8.6837
 20
10.6677
 30
0.0000
  0
SEQEND
  8
0
  0
POLYLINE
  8
51
 66
1
 10
0.0000
 20
0.0000
 30
0.0000
 40
0.0635
 41
0.0635
 70
0
  0
VERTEX
  8
51
 10
8.6837
 20
11.8343
 30
0.0000
 42
1.0000
  0
VERTEX
  8
51
 10
8.6202
 20
11.8343
 30
0.0000
  0
SEQEND
  8
0
  0
POLYLINE
  8
51
 66
1
 10
0.0000
 20
0.0000
 30
0.0000
 40
0.1270
 41
0.1270
 70
0
  0
VERTEX
  8
51
 10
8.6520
 20
9.6677
 30
0.0000
  0
VERTEX
  8
51
 10
8.6520
 20
8.5010
 30
0.0000
  0
SEQEND
  8
0
  0
POLYLINE
  8
51
 66
1
 10
0.0000
 20
0.0000
 30
0.0000
 40
0.0635
 41
0.0635
 70
0
  0
VERTEX
  8
51
 10
8.6202
 20
8.5010
 30
0.0000
 42
1.0000
  0
VERTEX
  8
51
 10
8.6837
 20
8.5010
 30
0.0000
  0
SEQEND
  8
0
  0
POLYLINE
  8
51
 66
1
 10
0.0000
 20
0.0000
 30
0.0000
 40
0.0635
 41
0.0635
 70
0
  0
VERTEX
  8
51
 10
8.6837
 20
9.6677
 30
0.0000
 42
1.0000
  0
VERTEX
  8
51
 10
8.6202
 20
9.6677
 30
0.0000
  0
SEQEND
  8
0
  0
POLYLINE
  8
51
 66
1
 10
0.0000
 20
0.0000
 30
0.0000
 40
0.1270
 41
0.1270
 70
0
  0
VERTEX
  8
51
 10
8.6520
 20
7.5010
 30
0.0000
  0
VERTEX
  8
51
 10
8.6520
 20
6.3343
 30
0.0000
  0
SEQEND
  8
0
  0
POLYLINE
  8
51
 66
1
 10
0.0000
 20
0.0000
 30
0.0000
 40
0.0635
 41
0.0635
 70
0
  0
VERTEX
  8
51
 10
8.6202
 20
6.3343
 30
0.0000
 42
1.0000
  0
VERTEX
  8
51
 10
8.6837
 20
6.3343
 30
0.0000
  0
SEQEND
  8
0
  0
POLYLINE
  8
51
 66
1
 10
0.0000
 20
0.0000
 30
0.0000
 40
0.0635
 41
0.0635
 70
0
  0
VERTEX
  8
51
 10
8.6837
 20
7.5010
 30
0.0000
 42
1.0000
  0
VERTEX
  8
51
 10
8.6202
 20
7.5010
 30
0.0000
  0
SEQEND
  8
0
  0
POLYLINE
  8
51
 66
1
 10
0.0000
 20
0.0000
 30
0.0000
 40
0.1270
 41
0.1270
 70
0
  0
VERTEX
  8
51
 10
8.6520
 20
5.3343
 30
0.0000
  0
VERTEX
  8
51
 10
8.6520
 20
4.1677
 30
0.0000
  0
SEQEND
  8
0
  0
POLYLINE
  8
51
 66
1
 10
0.0000
 20
0.0000
 30
0.0000
 40
0.0635
 41
0.0635
 70
0
  0
VERTEX
  8
51
 10
8.6202
 20
4.1677
 30
0.0000
 42
1.0000
  0
VERTEX
  8
51
 10
8.6837
 20
4.1677
 30
0.0000
  0
SEQEND
  8
0
  0
POLYLINE
  8
51
 66
1
 10
0.0000
 20
0.0000
 30
0.0000
 40
0.0635
 41
0.0635
 70
0
  0
VERTEX
  8
51
 10
8.6837
 20
5.3343
 30
0.0000
 42
1.0000
  0
VERTEX
  8
51
 10
8.6202
 20
5.3343
 30
0.0000
  0
SEQEND
  8
0
  0
POLYLINE
  8
51
 66
1
 10
0.0000
 20
0.0000
 30
0.0000
 40
0.1270
 41
0.1270
 70
0
  0
VERTEX
  8
51
 10
8.6520
 20
3.1677
 30
0.0000
  0
VERTEX
  8
51
 10
8.6520
 20
2.0010
 30
0.0000
  0
SEQEND
  8
0
  0
POLYLINE
  8
51
 66
1
 10
0.0000
 20
0.0000
 30
0.0000
 40
0.0635
 41
0.0635
 70
0
  0
VERTEX
  8
51
 10
8.6202
 20
2.0010
 30
0.0000
 42
1.0000
  0
VERTEX
  8
51
 10
8.6837
 20
2.0010
 30
0.0000
  0
SEQEND
  8
0
  0
POLYLINE
  8
51
 66
1
 10
0.0000
 20
0.0000
 30
0.0000
 40
0.0635
 41
0.0635
 70
0
  0
VERTEX
  8
51
 10
8.6837
 20
3.1677
 30
0.0000
 42
1.0000
  0
VERTEX
  8
51
 10
8.6202
 20
3.1677
 30
0.0000
  0
SEQEND
  8
0
  0
POLYLINE
  8
51
 66
1
 10
0.0000
 20
0.0000
 30
0.0000
 40
0.1270
 41
0.1270
 70
0
  0
VERTEX
  8
51
 10
8.6520
 20
2.0010
 30
0.0000
  0
VERTEX
  8
51
 10
-0.0480
 20
2.0010
 30
0.0000
  0
SEQEND
  8
0
  0
POLYLINE
  8
51
 66
1
 10
0.0000
 20
0.0000
 30
0.0000
 40
0.0635
 41
0.0635
 70
0
  0
VERTEX
  8
51
 10
-0.0480
 20
2.0328
 30
0.0000
 42
1.0000
  0
VERTEX
  8
51
 10
-0.0480
 20
1.9692
 30
0.0000
  0
SEQEND
  8
0
  0
POLYLINE
  8
51
 66
1
 10
0.0000
 20
0.0000
 30
0.0000
 40
0.0635
 41
0.0635
 70
0
  0
VERTEX
  8
51
 10
8.6520
 20
1.9692
 30
0.0000
 42
1.0000
  0
VERTEX
  8
51
 10
8.6520
 20
2.0328
 30
0.0000
  0
SEQEND
  8
0
  0
POLYLINE
  8
51
 66
1
 10
0.0000
 20
0.0000
 30
0.0000
 40
0.1270
 41
0.1270
 70
0
  0
VERTEX
  8
51
 10
-0.0480
 20
2.0010
 30
0.0000
  0
VERTEX
  8
51
 10
-0.0480
 20
14.0010
 30
0.0000
  0
SEQEND
  8
0
  0
POLYLINE
  8
51
 66
1
 10
0.0000
 20
0.0000
 30
0.0000
 40
0.0635
 41
0.0635
 70
0
  0
VERTEX
  8
51
 10
-0.0163
 20
14.0010
 30
0.0000
 42
1.0000
  0
VERTEX
  8
51
 10
-0.0798
 20
14.0010
 30
0.0000
  0
SEQEND
  8
0
  0
POLYLINE
  8
51
 66
1
 10
0.0000
 20
0.0000
 30
0.0000
 40
0.0635
 41
0.0635
 70
0
  0
VERTEX
  8
51
 10
-0.0798
 20
2.0010
 30
0.0000
 42
1.0000
  0
VERTEX
  8
51
 10
-0.0163
 20
2.0010
 30
0.0000
  0
SEQEND
  8
0
  0
POLYLINE
  8
48
 66
1
 10
0.0000
 20
0.0000
 30
0.0000
 40
0.0762
 41
0.0762
 70
0
  0
VERTEX
  8
48
 10
-2.2200
 20
4.8562
 30
0.0000
  0
VERTEX
  8
48
 10
-2.3767
 20
4.6994
 30
0.0000
  0
SEQEND
  8
0
  0
POLYLINE
  8
48
 66
1
 10
0.0000
 20
0.0000
 30
0.0000
 40
0.0381
 41
0.0381
 70
0
  0
VERTEX
  8
48
 10
-2.3902
 20
4.7129
 30
0.0000
 42
1.0000
  0
VERTEX
  8
48
 10
-2.3632
 20
4.6859
 30
0.0000
  0
SEQEND
  8
0
  0
POLYLINE
  8
48
 66
1
 10
0.0000
 20
0.0000
 30
0.0000
 40
0.0381
 41
0.0381
 70
0
  0
VERTEX
  8
48
 10
-2.2065
 20
4.8427
 30
0.0000
 42
1.0000
  0
VERTEX
  8
48
 10
-2.2334
 20
4.8696
 30
0.0000
  0
SEQEND
  8
0
  0
POLYLINE
  8
48
 66
1
 10
0.0000
 20
0.0000
 30
0.0000
 40
0.0762
 41
0.0762
 70
0
  0
VERTEX
  8
48
 10
-2.3767
 20
4.6994
 30
0.0000
  0
VERTEX
  8
48
 10
-2.3767
 20
4.3859
 30
0.0000
  0
SEQEND
  8
0
  0
POLYLINE
  8
48
 66
1
 10
0.0000
 20
0.0000
 30
0.0000
 40
0.0381
 41
0.0381
 70
0
  0
VERTEX
  8
48
 10
-2.3958
 20
4.3859
 30
0.0000
 42
1.0000
  0
VERTEX
  8
48
 10
-2.3577
 20
4.3859
 30
0.0000
  0
SEQEND
  8
0
  0
POLYLINE
  8
48
 66
1
 10
0.0000
 20
0.0000
 30
0.0000
 40
0.0381
 41
0.0381
 70
0
  0
VERTEX
  8
48
 10
-2.3577
 20
4.6994
 30
0.0000
 42
1.0000
  0
VERTEX
  8
48
 10
-2.3958
 20
4.6994
 30
0.0000
  0
SEQEND
  8
0
  0
POLYLINE
  8
48
 66
1
 10
0.0000
 20
0.0000
 30
0.0000
 40
0.0762
 41
0.0762
 70
0
  0
VERTEX
  8
48
 10
-2.3767
 20
4.3859
 30
0.0000
  0
VERTEX
  8
48
 10
-2.2200
 20
4.2291
 30
0.0000
  0
SEQEND
  8
0
  0
POLYLINE
  8
48
 66
1
 10
0.0000
 20
0.0000
 30
0.0000
 40
0.0381
 41
0.0381
 70
0
  0
VERTEX
  8
48
 10
-2.2334
 20
4.2156
 30
0.0000
 42
1.0000
  0
VERTEX
  8
48
 10
-2.2065
 20
4.2426
 30
0.0000
  0
SEQEND
  8
0
  0
POLYLINE
  8
48
 66
1
 10
0.0000
 20
0.0000
 30
0.0000
 40
0.0381
 41
0.0381
 70
0
  0
VERTEX
  8
48
 10
-2.3632
 20
4.3993
 30
0.0000
 42
1.0000
  0
VERTEX
  8
48
 10
-2.3902
 20
4.3724
 30
0.0000
  0
SEQEND
  8
0
  0
POLYLINE
  8
48
 66
1
 10
0.0000
 20
0.0000
 30
0.0000
 40
0.0762
 41
0.0762
 70
0
  0
VERTEX
  8
48
 10
-2.2200
 20
4.2291
 30
0.0000
  0
VERTEX
  8
48
 10
-1.5929
 20
4.2291
 30
0.0000
  0
SEQEND
  8
0
  0
POLYLINE
  8
48
 66
1
 10
0.0000
 20
0.0000
 30
0.0000
 40
0.0381
 41
0.0381
 70
0
  0
VERTEX
  8
48
 10
-1.5929
 20
4.2100
 30
0.0000
 42
1.0000
  0
VERTEX
  8
48
 10
-1.5929
 20
4.2481
 30
0.0000
  0
SEQEND
  8
0
  0
POLYLINE
  8
48
 66
1
 10
0.0000
 20
0.0000
 30
0.0000
 40
0.0381
 41
0.0381
 70
0
  0
VERTEX
  8
48
 10
-2.2200
 20
4.2481
 30
0.0000
 42
1.0000
  0
VERTEX
  8
48
 10
-2.2200
 20
4.2100
 30
0.0000
  0
SEQEND
  8
0
  0
POLYLINE
  8
48
 66
1
 10
0.0000
 20
0.0000
 30
0.0000
 40
0.0762
 41
0.0762
 70
0
  0
VERTEX
  8
48
 10
-1.5929
 20
4.2291
 30
0.0000
  0
VERTEX
  8
48
 10
-1.4361
 20
4.3859
 30
0.0000
  0
SEQEND
  8
0
  0
POLYLINE
  8
48
 66
1
 10
0.0000
 20
0.0000
 30
0.0000
 40
0.0381
 41
0.0381
 70
0
  0
VERTEX
  8
48
 10
-1.4226
 20
4.3724
 30
0.0000
 42
1.0000
  0
VERTEX
  8
48
 10
-1.4496
 20
4.3993
 30
0.0000
  0
SEQEND
  8
0
  0
POLYLINE
  8
48
 66
1
 10
0.0000
 20
0.0000
 30
0.0000
 40
0.0381
 41
0.0381
 70
0
  0
VERTEX
  8
48
 10
-1.6064
 20
4.2426
 30
0.0000
 42
1.0000
  0
VERTEX
  8
48
 10
-1.5794
 20
4.2156
 30
0.0000
  0
SEQEND
  8
0
  0
POLYLINE
  8
48
 66
1
 10
0.0000
 20
0.0000
 30
0.0000
 40
0.0762
 41
0.0762
 70
0
  0
VERTEX
  8
48
 10
-1.4361
 20
4.3859
 30
0.0000
  0
VERTEX
  8
48
 10
-1.4361
 20
4.6994
 30
0.0000
  0
SEQEND
  8
0
  0
POLYLINE
  8
48
 66
1
 10
0.0000
 20
0.0000
 30
0.0000
 40
0.0381
 41
0.0381
 70
0
  0
VERTEX
  8
48
 10
-1.4171
 20
4.6994
 30
0.0000
 42
1.0000
  0
VERTEX
  8
48
 10
-1.4552
 20
4.6994
 30
0.0000
  0
SEQEND
  8
0
  0
POLYLINE
  8
48
 66
1
 10
0.0000
 20
0.0000
 30
0.0000
 40
0.0381
 41
0.0381
 70
0
  0
VERTEX
  8
48
 10
-1.4552
 20
4.3859
 30
0.0000
 42
1.0000
  0
VERTEX
  8
48
 10
-1.4171
 20
4.3859
 30
0.0000
  0
SEQEND
  8
0
  0
POLYLINE
  8
48
 66
1
 10
0.0000
 20
0.0000
 30
0.0000
 40
0.0762
 41
0.0762
 70
0
  0
VERTEX
  8
48
 10
-1.4361
 20
4.6994
 30
0.0000
  0
VERTEX
  8
48
 10
-1.5929
 20
4.8562
 30
0.0000
  0
SEQEND
  8
0
  0
POLYLINE
  8
48
 66
1
 10
0.0000
 20
0.0000
 30
0.0000
 40
0.0381
 41
0.0381
 70
0
  0
VERTEX
  8
48
 10
-1.5794
 20
4.8696
 30
0.0000
 42
1.0000
  0
VERTEX
  8
48
 10
-1.6064
 20
4.8427
 30
0.0000
  0
SEQEND
  8
0
  0
POLYLINE
  8
48
 66
1
 10
0.0000
 20
0.0000
 30
0.0000
 40
0.0381
 41
0.0381
 70
0
  0
VERTEX
  8
48
 10
-1.4496
 20
4.6859
 30
0.0000
 42
1.0000
  0
VERTEX
  8
48
 10
-1.4226
 20
4.7129
 30
0.0000
  0
SEQEND
  8
0
  0
POLYLINE
  8
48
 66
1
 10
0.0000
 20
0.0000
 30
0.0000
 40
0.0762
 41
0.0762
 70
0
  0
VERTEX
  8
48
 10
-2.0632
 20
5.3214
 30
0.0000
  0
VERTEX
  8
48
 10
-2.0632
 20
5.6349
 30
0.0000
  0
SEQEND
  8
0
  0
POLYLINE
  8
48
 66
1
 10
0.0000
 20
0.0000
 30
0.0000
 40
0.0381
 41
0.0381
 70
0
  0
VERTEX
  8
48
 10
-2.0441
 20
5.6349
 30
0.0000
 42
1.0000
  0
VERTEX
  8
48
 10
-2.0822
 20
5.6349
 30
0.0000
  0
SEQEND
  8
0
  0
POLYLINE
  8
48
 66
1
 10
0.0000
 20
0.0000
 30
0.0000
 40
0.0381
 41
0.0381
 70
0
  0
VERTEX
  8
48
 10
-2.0822
 20
5.3214
 30
0.0000
 42
1.0000
  0
VERTEX
  8
48
 10
-2.0441
 20
5.3214
 30
0.0000
  0
SEQEND
  8
0
  0
POLYLINE
  8
48
 66
1
 10
0.0000
 20
0.0000
 30
0.0000
 40
0.0762
 41
0.0762
 70
0
  0
VERTEX
  8
48
 10
-2.0632
 20
5.6349
 30
0.0000
  0
VERTEX
  8
48
 10
-1.9064
 20
5.7917
 30
0.0000
  0
SEQEND
  8
0
  0
POLYLINE
  8
48
 66
1
 10
0.0000
 20
0.0000
 30
0.0000
 40
0.0381
 41
0.0381
 70
0
  0
VERTEX
  8
48
 10
-1.8929
 20
5.7782
 30
0.0000
 42
1.0000
  0
VERTEX
  8
48
 10
-1.9199
 20
5.8052
 30
0.0000
  0
SEQEND
  8
0
  0
POLYLINE
  8
48
 66
1
 10
0.0000
 20
0.0000
 30
0.0000
 40
0.0381
 41
0.0381
 70
0
  0
VERTEX
  8
48
 10
-2.0767
 20
5.6484
 30
0.0000
 42
1.0000
  0
VERTEX
  8
48
 10
-2.0497
 20
5.6214
 30
0.0000
  0
SEQEND
  8
0
  0
POLYLINE
  8
48
 66
1
 10
0.0000
 20
0.0000
 30
0.0000
 40
0.0762
 41
0.0762
 70
0
  0
VERTEX
  8
48
 10
-1.9064
 20
5.7917
 30
0.0000
  0
VERTEX
  8
48
 10
-1.4361
 20
5.7917
 30
0.0000
  0
SEQEND
  8
0
  0
POLYLINE
  8
48
 66
1
 10
0.0000
 20
0.0000
 30
0.0000
 40
0.0381
 41
0.0381
 70
0
  0
VERTEX
  8
48
 10
-1.4361
 20
5.7726
 30
0.0000
 42
1.0000
  0
VERTEX
  8
48
 10
-1.4361
 20
5.8107
 30
0.0000
  0
SEQEND
  8
0
  0
POLYLINE
  8
48
 66
1
 10
0.0000
 20
0.0000
 30
0.0000
 40
0.0381
 41
0.0381
 70
0
  0
VERTEX
  8
48
 10
-1.9064
 20
5.8107
 30
0.0000
 42
1.0000
  0
VERTEX
  8
48
 10
-1.9064
 20
5.7726
 30
0.0000
  0
SEQEND
  8
0
  0
POLYLINE
  8
48
 66
1
 10
0.0000
 20
0.0000
 30
0.0000
 40
0.0762
 41
0.0762
 70
0
  0
VERTEX
  8
48
 10
-1.4361
 20
5.7917
 30
0.0000
  0
VERTEX
  8
48
 10
-1.4361
 20
5.3214
 30
0.0000
  0
SEQEND
  8
0
  0
POLYLINE
  8
48
 66
1
 10
0.0000
 20
0.0000
 30
0.0000
 40
0.0381
 41
0.0381
 70
0
  0
VERTEX
  8
48
 10
-1.4552
 20
5.3214
 30
0.0000
 42
1.0000
  0
VERTEX
  8
48
 10
-1.4171
 20
5.3214
 30
0.0000
  0
SEQEND
  8
0
  0
POLYLINE
  8
48
 66
1
 10
0.0000
 20
0.0000
 30
0.0000
 40
0.0381
 41
0.0381
 70
0
  0
VERTEX
  8
48
 10
-1.4171
 20
5.7917
 30
0.0000
 42
1.0000
  0
VERTEX
  8
48
 10
-1.4552
 20
5.7917
 30
0.0000
  0
SEQEND
  8
0
  0
POLYLINE
  8
48
 66
1
 10
0.0000
 20
0.0000
 30
0.0000
 40
0.0762
 41
0.0762
 70
0
  0
VERTEX
  8
48
 10
-1.4361
 20
5.3214
 30
0.0000
  0
VERTEX
  8
48
 10
-1.5929
 20
5.1646
 30
0.0000
  0
SEQEND
  8
0
  0
POLYLINE
  8
48
 66
1
 10
0.0000
 20
0.0000
 30
0.0000
 40
0.0381
 41
0.0381
 70
0
  0
VERTEX
  8
48
 10
-1.6064
 20
5.1781
 30
0.0000
 42
1.0000
  0
VERTEX
  8
48
 10
-1.5794
 20
5.1511
 30
0.0000
  0
SEQEND
  8
0
  0
POLYLINE
  8
48
 66
1
 10
0.0000
 20
0.0000
 30
0.0000
 40
0.0381
 41
0.0381
 70
0
  0
VERTEX
  8
48
 10
-1.4226
 20
5.3079
 30
0.0000
 42
1.0000
  0
VERTEX
  8
48
 10
-1.4496
 20
5.3349
 30
0.0000
  0
SEQEND
  8
0
  0
POLYLINE
  8
48
 66
1
 10
0.0000
 20
0.0000
 30
0.0000
 40
0.0762
 41
0.0762
 70
0
  0
VERTEX
  8
48
 10
-1.5929
 20
5.1646
 30
0.0000
  0
VERTEX
  8
48
 10
-1.7497
 20
5.3214
 30
0.0000
  0
SEQEND
  8
0
  0
POLYLINE
  8
48
 66
1
 10
0.0000
 20
0.0000
 30
0.0000
 40
0.0381
 41
0.0381
 70
0
  0
VERTEX
  8
48
 10
-1.7362
 20
5.3349
 30
0.0000
 42
1.0000
  0
VERTEX
  8
48
 10
-1.7631
 20
5.3079
 30
0.0000
  0
SEQEND
  8
0
  0
POLYLINE
  8
48
 66
1
 10
0.0000
 20
0.0000
 30
0.0000
 40
0.0381
 41
0.0381
 70
0
  0
VERTEX
  8
48
 10
-1.6064
 20
5.1511
 30
0.0000
 42
1.0000
  0
VERTEX
  8
48
 10
-1.5794
 20
5.1781
 30
0.0000
  0
SEQEND
  8
0
  0
POLYLINE
  8
48
 66
1
 10
0.0000
 20
0.0000
 30
0.0000
 40
0.0762
 41
0.0762
 70
0
  0
VERTEX
  8
48
 10
-1.7497
 20
5.3214
 30
0.0000
  0
VERTEX
  8
48
 10
-1.7497
 20
5.7917
 30
0.0000
  0
SEQEND
  8
0
  0
POLYLINE
  8
48
 66
1
 10
0.0000
 20
0.0000
 30
0.0000
 40
0.0381
 41
0.0381
 70
0
  0
VERTEX
  8
48
 10
-1.7306
 20
5.7917
 30
0.0000
 42
1.0000
  0
VERTEX
  8
48
 10
-1.7687
 20
5.7917
 30
0.0000
  0
SEQEND
  8
0
  0
POLYLINE
  8
48
 66
1
 10
0.0000
 20
0.0000
 30
0.0000
 40
0.0381
 41
0.0381
 70
0
  0
VERTEX
  8
48
 10
-1.7687
 20
5.3214
 30
0.0000
 42
1.0000
  0
VERTEX
  8
48
 10
-1.7306
 20
5.3214
 30
0.0000
  0
SEQEND
  8
0
  0
POLYLINE
  8
48
 66
1
 10
0.0000
 20
0.0000
 30
0.0000
 40
0.0762
 41
0.0762
 70
0
  0
VERTEX
  8
48
 10
-1.4361
 20
6.1001
 30
0.0000
  0
VERTEX
  8
48
 10
-2.0632
 20
6.1001
 30
0.0000
  0
SEQEND
  8
0
  0
POLYLINE
  8
48
 66
1
 10
0.0000
 20
0.0000
 30
0.0000
 40
0.0381
 41
0.0381
 70
0
  0
VERTEX
  8
48
 10
-2.0632
 20
6.1192
 30
0.0000
 42
1.0000
  0
VERTEX
  8
48
 10
-2.0632
 20
6.0811
 30
0.0000
  0
SEQEND
  8
0
  0
POLYLINE
  8
48
 66
1
 10
0.0000
 20
0.0000
 30
0.0000
 40
0.0381
 41
0.0381
 70
0
  0
VERTEX
  8
48
 10
-1.4361
 20
6.0811
 30
0.0000
 42
1.0000
  0
VERTEX
  8
48
 10
-1.4361
 20
6.1192
 30
0.0000
  0
SEQEND
  8
0
  0
POLYLINE
  8
48
 66
1
 10
0.0000
 20
0.0000
 30
0.0000
 40
0.0762
 41
0.0762
 70
0
  0
VERTEX
  8
48
 10
-1.7497
 20
6.1001
 30
0.0000
  0
VERTEX
  8
48
 10
-2.0632
 20
6.4137
 30
0.0000
  0
SEQEND
  8
0
  0
POLYLINE
  8
48
 66
1
 10
0.0000
 20
0.0000
 30
0.0000
 40
0.0381
 41
0.0381
 70
0
  0
VERTEX
  8
48
 10
-2.0497
 20
6.4271
 30
0.0000
 42
1.0000
  0
VERTEX
  8
48
 10
-2.0767
 20
6.4002
 30
0.0000
  0
SEQEND
  8
0
  0
POLYLINE
  8
48
 66
1
 10
0.0000
 20
0.0000
 30
0.0000
 40
0.0381
 41
0.0381
 70
0
  0
VERTEX
  8
48
 10
-1.7631
 20
6.0867
 30
0.0000
 42
1.0000
  0
VERTEX
  8
48
 10
-1.7362
 20
6.1136
 30
0.0000
  0
SEQEND
  8
0
  0
POLYLINE
  8
48
 66
1
 10
0.0000
 20
0.0000
 30
0.0000
 40
0.0762
 41
0.0762
 70
0
  0
VERTEX
  8
48
 10
-2.0632
 20
6.4137
 30
0.0000
  0
VERTEX
  8
48
 10
-2.0632
 20
6.5704
 30
0.0000
  0
SEQEND
  8
0
  0
POLYLINE
  8
48
 66
1
 10
0.0000
 20
0.0000
 30
0.0000
 40
0.0381
 41
0.0381
 70
0
  0
VERTEX
  8
48
 10
-2.0441
 20
6.5704
 30
0.0000
 42
1.0000
  0
VERTEX
  8
48
 10
-2.0822
 20
6.5704
 30
0.0000
  0
SEQEND
  8
0
  0
POLYLINE
  8
48
 66
1
 10
0.0000
 20
0.0000
 30
0.0000
 40
0.0381
 41
0.0381
 70
0
  0
VERTEX
  8
48
 10
-2.0822
 20
6.4137
 30
0.0000
 42
1.0000
  0
VERTEX
  8
48
 10
-2.0441
 20
6.4137
 30
0.0000
  0
SEQEND
  8
0
  0
POLYLINE
  8
48
 66
1
 10
0.0000
 20
0.0000
 30
0.0000
 40
0.0762
 41
0.0762
 70
0
  0
VERTEX
  8
48
 10
-2.3767
 20
7.5068
 30
0.0000
  0
VERTEX
  8
48
 10
-1.4361
 20
7.5068
 30
0.0000
  0
SEQEND
  8
0
  0
POLYLINE
  8
48
 66
1
 10
0.0000
 20
0.0000
 30
0.0000
 40
0.0381
 41
0.0381
 70
0
  0
VERTEX
  8
48
 10
-1.4361
 20
7.4878
 30
0.0000
 42
1.0000
  0
VERTEX
  8
48
 10
-1.4361
 20
7.5259
 30
0.0000
  0
SEQEND
  8
0
  0
POLYLINE
  8
48
 66
1
 10
0.0000
 20
0.0000
 30
0.0000
 40
0.0381
 41
0.0381
 70
0
  0
VERTEX
  8
48
 10
-2.3767
 20
7.5259
 30
0.0000
 42
1.0000
  0
VERTEX
  8
48
 10
-2.3767
 20
7.4878
 30
0.0000
  0
SEQEND
  8
0
  0
POLYLINE
  8
48
 66
1
 10
0.0000
 20
0.0000
 30
0.0000
 40
0.0762
 41
0.0762
 70
0
  0
VERTEX
  8
48
 10
-1.4361
 20
7.5068
 30
0.0000
  0
VERTEX
  8
48
 10
-1.4361
 20
7.0365
 30
0.0000
  0
SEQEND
  8
0
  0
POLYLINE
  8
48
 66
1
 10
0.0000
 20
0.0000
 30
0.0000
 40
0.0381
 41
0.0381
 70
0
  0
VERTEX
  8
48
 10
-1.4552
 20
7.0365
 30
0.0000
 42
1.0000
  0
VERTEX
  8
48
 10
-1.4171
 20
7.0365
 30
0.0000
  0
SEQEND
  8
0
  0
POLYLINE
  8
48
 66
1
 10
0.0000
 20
0.0000
 30
0.0000
 40
0.0381
 41
0.0381
 70
0
  0
VERTEX
  8
48
 10
-1.4171
 20
7.5068
 30
0.0000
 42
1.0000
  0
VERTEX
  8
48
 10
-1.4552
 20
7.5068
 30
0.0000
  0
SEQEND
  8
0
  0
POLYLINE
  8
48
 66
1
 10
0.0000
 20
0.0000
 30
0.0000
 40
0.0762
 41
0.0762
 70
0
  0
VERTEX
  8
48
 10
-1.4361
 20
7.0365
 30
0.0000
  0
VERTEX
  8
48
 10
-1.5929
 20
6.8797
 30
0.0000
  0
SEQEND
  8
0
  0
POLYLINE
  8
48
 66
1
 10
0.0000
 20
0.0000
 30
0.0000
 40
0.0381
 41
0.0381
 70
0
  0
VERTEX
  8
48
 10
-1.6064
 20
6.8932
 30
0.0000
 42
1.0000
  0
VERTEX
  8
48
 10
-1.5794
 20
6.8663
 30
0.0000
  0
SEQEND
  8
0
  0
POLYLINE
  8
48
 66
1
 10
0.0000
 20
0.0000
 30
0.0000
 40
0.0381
 41
0.0381
 70
0
  0
VERTEX
  8
48
 10
-1.4226
 20
7.0230
 30
0.0000
 42
1.0000
  0
VERTEX
  8
48
 10
-1.4496
 20
7.0500
 30
0.0000
  0
SEQEND
  8
0
  0
POLYLINE
  8
48
 66
1
 10
0.0000
 20
0.0000
 30
0.0000
 40
0.0762
 41
0.0762
 70
0
  0
VERTEX
  8
48
 10
-1.5929
 20
6.8797
 30
0.0000
  0
VERTEX
  8
48
 10
-1.9064
 20
6.8797
 30
0.0000
  0
SEQEND
  8
0
  0
POLYLINE
  8
48
 66
1
 10
0.0000
 20
0.0000
 30
0.0000
 40
0.0381
 41
0.0381
 70
0
  0
VERTEX
  8
48
 10
-1.9064
 20
6.8988
 30
0.0000
 42
1.0000
  0
VERTEX
  8
48
 10
-1.9064
 20
6.8607
 30
0.0000
  0
SEQEND
  8
0
  0
POLYLINE
  8
48
 66
1
 10
0.0000
 20
0.0000
 30
0.0000
 40
0.0381
 41
0.0381
 70
0
  0
VERTEX
  8
48
 10
-1.5929
 20
6.8607
 30
0.0000
 42
1.0000
  0
VERTEX
  8
48
 10
-1.5929
 20
6.8988
 30
0.0000
  0
SEQEND
  8
0
  0
POLYLINE
  8
48
 66
1
 10
0.0000
 20
0.0000
 30
0.0000
 40
0.0762
 41
0.0762
 70
0
  0
VERTEX
  8
48
 10
-1.9064
 20
6.8797
 30
0.0000
  0
VERTEX
  8
48
 10
-2.0632
 20
7.0365
 30
0.0000
  0
SEQEND
  8
0
  0
POLYLINE
  8
48
 66
1
 10
0.0000
 20
0.0000
 30
0.0000
 40
0.0381
 41
0.0381
 70
0
  0
VERTEX
  8
48
 10
-2.0497
 20
7.0500
 30
0.0000
 42
1.0000
  0
VERTEX
  8
48
 10
-2.0767
 20
7.0230
 30
0.0000
  0
SEQEND
  8
0
  0
POLYLINE
  8
48
 66
1
 10
0.0000
 20
0.0000
 30
0.0000
 40
0.0381
 41
0.0381
 70
0
  0
VERTEX
  8
48
 10
-1.9199
 20
6.8663
 30
0.0000
 42
1.0000
  0
VERTEX
  8
48
 10
-1.8929
 20
6.8932
 30
0.0000
  0
SEQEND
  8
0
  0
POLYLINE
  8
48
 66
1
 10
0.0000
 20
0.0000
 30
0.0000
 40
0.0762
 41
0.0762
 70
0
  0
VERTEX
  8
48
 10
-2.0632
 20
7.0365
 30
0.0000
  0
VERTEX
  8
48
 10
-2.0632
 20
7.5068
 30
0.0000
  0
SEQEND
  8
0
  0
POLYLINE
  8
48
 66
1
 10
0.0000
 20
0.0000
 30
0.0000
 40
0.0381
 41
0.0381
 70
0
  0
VERTEX
  8
48
 10
-2.0441
 20
7.5068
 30
0.0000
 42
1.0000
  0
VERTEX
  8
48
 10
-2.0822
 20
7.5068
 30
0.0000
  0
SEQEND
  8
0
  0
POLYLINE
  8
48
 66
1
 10
0.0000
 20
0.0000
 30
0.0000
 40
0.0381
 41
0.0381
 70
0
  0
VERTEX
  8
48
 10
-2.0822
 20
7.0365
 30
0.0000
 42
1.0000
  0
VERTEX
  8
48
 10
-2.0441
 20
7.0365
 30
0.0000
  0
SEQEND
  8
0
  0
POLYLINE
  8
48
 66
1
 10
0.0000
 20
0.0000
 30
0.0000
 40
0.0762
 41
0.0762
 70
0
  0
VERTEX
  8
48
 10
-1.4361
 20
9.2211
 30
0.0000
  0
VERTEX
  8
48
 10
-1.4361
 20
8.9075
 30
0.0000
  0
SEQEND
  8
0
  0
POLYLINE
  8
48
 66
1
 10
0.0000
 20
0.0000
 30
0.0000
 40
0.0381
 41
0.0381
 70
0
  0
VERTEX
  8
48
 10
-1.4552
 20
8.9075
 30
0.0000
 42
1.0000
  0
VERTEX
  8
48
 10
-1.4171
 20
8.9075
 30
0.0000
  0
SEQEND
  8
0
  0
POLYLINE
  8
48
 66
1
 10
0.0000
 20
0.0000
 30
0.0000
 40
0.0381
 41
0.0381
 70
0
  0
VERTEX
  8
48
 10
-1.4171
 20
9.2211
 30
0.0000
 42
1.0000
  0
VERTEX
  8
48
 10
-1.4552
 20
9.2211
 30
0.0000
  0
SEQEND
  8
0
  0
POLYLINE
  8
48
 66
1
 10
0.0000
 20
0.0000
 30
0.0000
 40
0.0762
 41
0.0762
 70
0
  0
VERTEX
  8
48
 10
-1.4361
 20
8.9075
 30
0.0000
  0
VERTEX
  8
48
 10
-1.5929
 20
8.7508
 30
0.0000
  0
SEQEND
  8
0
  0
POLYLINE
  8
48
 66
1
 10
0.0000
 20
0.0000
 30
0.0000
 40
0.0381
 41
0.0381
 70
0
  0
VERTEX
  8
48
 10
-1.6064
 20
8.7642
 30
0.0000
 42
1.0000
  0
VERTEX
  8
48
 10
-1.5794
 20
8.7373
 30
0.0000
  0
SEQEND
  8
0
  0
POLYLINE
  8
48
 66
1
 10
0.0000
 20
0.0000
 30
0.0000
 40
0.0381
 41
0.0381
 70
0
  0
VERTEX
  8
48
 10
-1.4226
 20
8.8941
 30
0.0000
 42
1.0000
  0
VERTEX
  8
48
 10
-1.4496
 20
8.9210
 30
0.0000
  0
SEQEND
  8
0
  0
POLYLINE
  8
48
 66
1
 10
0.0000
 20
0.0000
 30
0.0000
 40
0.0762
 41
0.0762
 70
0
  0
VERTEX
  8
48
 10
-1.5929
 20
8.7508
 30
0.0000
  0
VERTEX
  8
48
 10
-1.9064
 20
8.7508
 30
0.0000
  0
SEQEND
  8
0
  0
POLYLINE
  8
48
 66
1
 10
0.0000
 20
0.0000
 30
0.0000
 40
0.0381
 41
0.0381
 70
0
  0
VERTEX
  8
48
 10
-1.9064
 20
8.7698
 30
0.0000
 42
1.0000
  0
VERTEX
  8
48
 10
-1.9064
 20
8.7317
 30
0.0000
  0
SEQEND
  8
0
  0
POLYLINE
  8
48
 66
1
 10
0.0000
 20
0.0000
 30
0.0000
 40
0.0381
 41
0.0381
 70
0
  0
VERTEX
  8
48
 10
-1.5929
 20
8.7317
 30
0.0000
 42
1.0000
  0
VERTEX
  8
48
 10
-1.5929
 20
8.7698
 30
0.0000
  0
SEQEND
  8
0
  0
POLYLINE
  8
48
 66
1
 10
0.0000
 20
0.0000
 30
0.0000
 40
0.0762
 41
0.0762
 70
0
  0
VERTEX
  8
48
 10
-1.9064
 20
8.7508
 30
0.0000
  0
VERTEX
  8
48
 10
-2.0632
 20
8.9075
 30
0.0000
  0
SEQEND
  8
0
  0
POLYLINE
  8
48
 66
1
 10
0.0000
 20
0.0000
 30
0.0000
 40
0.0381
 41
0.0381
 70
0
  0
VERTEX
  8
48
 10
-2.0497
 20
8.9210
 30
0.0000
 42
1.0000
  0
VERTEX
  8
48
 10
-2.0767
 20
8.8941
 30
0.0000
  0
SEQEND
  8
0
  0
POLYLINE
  8
48
 66
1
 10
0.0000
 20
0.0000
 30
0.0000
 40
0.0381
 41
0.0381
 70
0
  0
VERTEX
  8
48
 10
-1.9199
 20
8.7373
 30
0.0000
 42
1.0000
  0
VERTEX
  8
48
 10
-1.8929
 20
8.7642
 30
0.0000
  0
SEQEND
  8
0
  0
POLYLINE
  8
48
 66
1
 10
0.0000
 20
0.0000
 30
0.0000
 40
0.0762
 41
0.0762
 70
0
  0
VERTEX
  8
48
 10
-2.0632
 20
8.9075
 30
0.0000
  0
VERTEX
  8
48
 10
-2.0632
 20
9.2211
 30
0.0000
  0
SEQEND
  8
0
  0
POLYLINE
  8
48
 66
1
 10
0.0000
 20
0.0000
 30
0.0000
 40
0.0381
 41
0.0381
 70
0
  0
VERTEX
  8
48
 10
-2.0441
 20
9.2211
 30
0.0000
 42
1.0000
  0
VERTEX
  8
48
 10
-2.0822
 20
9.2211
 30
0.0000
  0
SEQEND
  8
0
  0
POLYLINE
  8
48
 66
1
 10
0.0000
 20
0.0000
 30
0.0000
 40
0.0381
 41
0.0381
 70
0
  0
VERTEX
  8
48
 10
-2.0822
 20
8.9075
 30
0.0000
 42
1.0000
  0
VERTEX
  8
48
 10
-2.0441
 20
8.9075
 30
0.0000
  0
SEQEND
  8
0
  0
POLYLINE
  8
48
 66
1
 10
0.0000
 20
0.0000
 30
0.0000
 40
0.0762
 41
0.0762
 70
0
  0
VERTEX
  8
48
 10
-2.0632
 20
9.2211
 30
0.0000
  0
VERTEX
  8
48
 10
-1.9064
 20
9.3778
 30
0.0000
  0
SEQEND
  8
0
  0
POLYLINE
  8
48
 66
1
 10
0.0000
 20
0.0000
 30
0.0000
 40
0.0381
 41
0.0381
 70
0
  0
VERTEX
  8
48
 10
-1.8929
 20
9.3644
 30
0.0000
 42
1.0000
  0
VERTEX
  8
48
 10
-1.9199
 20
9.3913
 30
0.0000
  0
SEQEND
  8
0
  0
POLYLINE
  8
48
 66
1
 10
0.0000
 20
0.0000
 30
0.0000
 40
0.0381
 41
0.0381
 70
0
  0
VERTEX
  8
48
 10
-2.0767
 20
9.2345
 30
0.0000
 42
1.0000
  0
VERTEX
  8
48
 10
-2.0497
 20
9.2076
 30
0.0000
  0
SEQEND
  8
0
  0
POLYLINE
  8
48
 66
1
 10
0.0000
 20
0.0000
 30
0.0000
 40
0.0762
 41
0.0762
 70
0
  0
VERTEX
  8
48
 10
-1.9064
 20
9.3778
 30
0.0000
  0
VERTEX
  8
48
 10
-1.7497
 20
9.3778
 30
0.0000
  0
SEQEND
  8
0
  0
POLYLINE
  8
48
 66
1
 10
0.0000
 20
0.0000
 30
0.0000
 40
0.0381
 41
0.0381
 70
0
  0
VERTEX
  8
48
 10
-1.7497
 20
9.3588
 30
0.0000
 42
1.0000
  0
VERTEX
  8
48
 10
-1.7497
 20
9.3969
 30
0.0000
  0
SEQEND
  8
0
  0
POLYLINE
  8
48
 66
1
 10
0.0000
 20
0.0000
 30
0.0000
 40
0.0381
 41
0.0381
 70
0
  0
VERTEX
  8
48
 10
-1.9064
 20
9.3969
 30
0.0000
 42
1.0000
  0
VERTEX
  8
48
 10
-1.9064
 20
9.3588
 30
0.0000
  0
SEQEND
  8
0
  0
POLYLINE
  8
48
 66
1
 10
0.0000
 20
0.0000
 30
0.0000
 40
0.0762
 41
0.0762
 70
0
  0
VERTEX
  8
48
 10
-1.7497
 20
9.3778
 30
0.0000
  0
VERTEX
  8
48
 10
-1.7497
 20
8.7508
 30
0.0000
  0
SEQEND
  8
0
  0
POLYLINE
  8
48
 66
1
 10
0.0000
 20
0.0000
 30
0.0000
 40
0.0381
 41
0.0381
 70
0
  0
VERTEX
  8
48
 10
-1.7687
 20
8.7508
 30
0.0000
 42
1.0000
  0
VERTEX
  8
48
 10
-1.7306
 20
8.7508
 30
0.0000
  0
SEQEND
  8
0
  0
POLYLINE
  8
48
 66
1
 10
0.0000
 20
0.0000
 30
0.0000
 40
0.0381
 41
0.0381
 70
0
  0
VERTEX
  8
48
 10
-1.7306
 20
9.3778
 30
0.0000
 42
1.0000
  0
VERTEX
  8
48
 10
-1.7687
 20
9.3778
 30
0.0000
  0
SEQEND
  8
0
  0
POLYLINE
  8
48
 66
1
 10
0.0000
 20
0.0000
 30
0.0000
 40
0.0762
 41
0.0762
 70
0
  0
VERTEX
  8
48
 10
-2.3767
 20
10.3134
 30
0.0000
  0
VERTEX
  8
48
 10
-1.4361
 20
10.3134
 30
0.0000
  0
SEQEND
  8
0
  0
POLYLINE
  8
48
 66
1
 10
0.0000
 20
0.0000
 30
0.0000
 40
0.0381
 41
0.0381
 70
0
  0
VERTEX
  8
48
 10
-1.4361
 20
10.2943
 30
0.0000
 42
1.0000
  0
VERTEX
  8
48
 10
-1.4361
 20
10.3324
 30
0.0000
  0
SEQEND
  8
0
  0
POLYLINE
  8
48
 66
1
 10
0.0000
 20
0.0000
 30
0.0000
 40
0.0381
 41
0.0381
 70
0
  0
VERTEX
  8
48
 10
-2.3767
 20
10.3324
 30
0.0000
 42
1.0000
  0
VERTEX
  8
48
 10
-2.3767
 20
10.2943
 30
0.0000
  0
SEQEND
  8
0
  0
POLYLINE
  8
48
 66
1
 10
0.0000
 20
0.0000
 30
0.0000
 40
0.0762
 41
0.0762
 70
0
  0
VERTEX
  8
48
 10
-1.4361
 20
10.3134
 30
0.0000
  0
VERTEX
  8
48
 10
-1.4361
 20
9.8431
 30
0.0000
  0
SEQEND
  8
0
  0
POLYLINE
  8
48
 66
1
 10
0.0000
 20
0.0000
 30
0.0000
 40
0.0381
 41
0.0381
 70
0
  0
VERTEX
  8
48
 10
-1.4552
 20
9.8431
 30
0.0000
 42
1.0000
  0
VERTEX
  8
48
 10
-1.4171
 20
9.8431
 30
0.0000
  0
SEQEND
  8
0
  0
POLYLINE
  8
48
 66
1
 10
0.0000
 20
0.0000
 30
0.0000
 40
0.0381
 41
0.0381
 70
0
  0
VERTEX
  8
48
 10
-1.4171
 20
10.3134
 30
0.0000
 42
1.0000
  0
VERTEX
  8
48
 10
-1.4552
 20
10.3134
 30
0.0000
  0
SEQEND
  8
0
  0
POLYLINE
  8
48
 66
1
 10
0.0000
 20
0.0000
 30
0.0000
 40
0.0762
 41
0.0762
 70
0
  0
VERTEX
  8
48
 10
-1.4361
 20
9.8431
 30
0.0000
  0
VERTEX
  8
48
 10
-1.5929
 20
9.6863
 30
0.0000
  0
SEQEND
  8
0
  0
POLYLINE
  8
48
 66
1
 10
0.0000
 20
0.0000
 30
0.0000
 40
0.0381
 41
0.0381
 70
0
  0
VERTEX
  8
48
 10
-1.6064
 20
9.6998
 30
0.0000
 42
1.0000
  0
VERTEX
  8
48
 10
-1.5794
 20
9.6728
 30
0.0000
  0
SEQEND
  8
0
  0
POLYLINE
  8
48
 66
1
 10
0.0000
 20
0.0000
 30
0.0000
 40
0.0381
 41
0.0381
 70
0
  0
VERTEX
  8
48
 10
-1.4226
 20
9.8296
 30
0.0000
 42
1.0000
  0
VERTEX
  8
48
 10
-1.4496
 20
9.8565
 30
0.0000
  0
SEQEND
  8
0
  0
POLYLINE
  8
48
 66
1
 10
0.0000
 20
0.0000
 30
0.0000
 40
0.0762
 41
0.0762
 70
0
  0
VERTEX
  8
48
 10
-1.5929
 20
9.6863
 30
0.0000
  0
VERTEX
  8
48
 10
-1.9064
 20
9.6863
 30
0.0000
  0
SEQEND
  8
0
  0
POLYLINE
  8
48
 66
1
 10
0.0000
 20
0.0000
 30
0.0000
 40
0.0381
 41
0.0381
 70
0
  0
VERTEX
  8
48
 10
-1.9064
 20
9.7053
 30
0.0000
 42
1.0000
  0
VERTEX
  8
48
 10
-1.9064
 20
9.6672
 30
0.0000
  0
SEQEND
  8
0
  0
POLYLINE
  8
48
 66
1
 10
0.0000
 20
0.0000
 30
0.0000
 40
0.0381
 41
0.0381
 70
0
  0
VERTEX
  8
48
 10
-1.5929
 20
9.6672
 30
0.0000
 42
1.0000
  0
VERTEX
  8
48
 10
-1.5929
 20
9.7053
 30
0.0000
  0
SEQEND
  8
0
  0
POLYLINE
  8
48
 66
1
 10
0.0000
 20
0.0000
 30
0.0000
 40
0.0762
 41
0.0762
 70
0
  0
VERTEX
  8
48
 10
-1.9064
 20
9.6863
 30
0.0000
  0
VERTEX
  8
48
 10
-2.0632
 20
9.8431
 30
0.0000
  0
SEQEND
  8
0
  0
POLYLINE
  8
48
 66
1
 10
0.0000
 20
0.0000
 30
0.0000
 40
0.0381
 41
0.0381
 70
0
  0
VERTEX
  8
48
 10
-2.0497
 20
9.8565
 30
0.0000
 42
1.0000
  0
VERTEX
  8
48
 10
-2.0767
 20
9.8296
 30
0.0000
  0
SEQEND
  8
0
  0
POLYLINE
  8
48
 66
1
 10
0.0000
 20
0.0000
 30
0.0000
 40
0.0381
 41
0.0381
 70
0
  0
VERTEX
  8
48
 10
-1.9199
 20
9.6728
 30
0.0000
 42
1.0000
  0
VERTEX
  8
48
 10
-1.8929
 20
9.6998
 30
0.0000
  0
SEQEND
  8
0
  0
POLYLINE
  8
48
 66
1
 10
0.0000
 20
0.0000
 30
0.0000
 40
0.0762
 41
0.0762
 70
0
  0
VERTEX
  8
48
 10
-2.0632
 20
9.8431
 30
0.0000
  0
VERTEX
  8
48
 10
-2.0632
 20
10.3134
 30
0.0000
  0
SEQEND
  8
0
  0
POLYLINE
  8
48
 66
1
 10
0.0000
 20
0.0000
 30
0.0000
 40
0.0381
 41
0.0381
 70
0
  0
VERTEX
  8
48
 10
-2.0441
 20
10.3134
 30
0.0000
 42
1.0000
  0
VERTEX
  8
48
 10
-2.0822
 20
10.3134
 30
0.0000
  0
SEQEND
  8
0
  0
POLYLINE
  8
48
 66
1
 10
0.0000
 20
0.0000
 30
0.0000
 40
0.0381
 41
0.0381
 70
0
  0
VERTEX
  8
48
 10
-2.0822
 20
9.8431
 30
0.0000
 42
1.0000
  0
VERTEX
  8
48
 10
-2.0441
 20
9.8431
 30
0.0000
  0
SEQEND
  8
0
  0
POLYLINE
  8
48
 66
1
 10
0.0000
 20
0.0000
 30
0.0000
 40
0.0762
 41
0.0762
 70
0
  0
VERTEX
  8
48
 10
-1.1226
 20
10.9353
 30
0.0000
  0
VERTEX
  8
48
 10
-1.1226
 20
11.0921
 30
0.0000
  0
SEQEND
  8
0
  0
POLYLINE
  8
48
 66
1
 10
0.0000
 20
0.0000
 30
0.0000
 40
0.0381
 41
0.0381
 70
0
  0
VERTEX
  8
48
 10
-1.1035
 20
11.0921
 30
0.0000
 42
1.0000
  0
VERTEX
  8
48
 10
-1.1416
 20
11.0921
 30
0.0000
  0
SEQEND
  8
0
  0
POLYLINE
  8
48
 66
1
 10
0.0000
 20
0.0000
 30
0.0000
 40
0.0381
 41
0.0381
 70
0
  0
VERTEX
  8
48
 10
-1.1416
 20
10.9353
 30
0.0000
 42
1.0000
  0
VERTEX
  8
48
 10
-1.1035
 20
10.9353
 30
0.0000
  0
SEQEND
  8
0
  0
POLYLINE
  8
48
 66
1
 10
0.0000
 20
0.0000
 30
0.0000
 40
0.0762
 41
0.0762
 70
0
  0
VERTEX
  8
48
 10
-1.1226
 20
11.0921
 30
0.0000
  0
VERTEX
  8
48
 10
-1.2793
 20
11.2489
 30
0.0000
  0
SEQEND
  8
0
  0
POLYLINE
  8
48
 66
1
 10
0.0000
 20
0.0000
 30
0.0000
 40
0.0381
 41
0.0381
 70
0
  0
VERTEX
  8
48
 10
-1.2659
 20
11.2623
 30
0.0000
 42
1.0000
  0
VERTEX
  8
48
 10
-1.2928
 20
11.2354
 30
0.0000
  0
SEQEND
  8
0
  0
POLYLINE
  8
48
 66
1
 10
0.0000
 20
0.0000
 30
0.0000
 40
0.0381
 41
0.0381
 70
0
  0
VERTEX
  8
48
 10
-1.1361
 20
11.0786
 30
0.0000
 42
1.0000
  0
VERTEX
  8
48
 10
-1.1091
 20
11.1056
 30
0.0000
  0
SEQEND
  8
0
  0
POLYLINE
  8
48
 66
1
 10
0.0000
 20
0.0000
 30
0.0000
 40
0.0762
 41
0.0762
 70
0
  0
VERTEX
  8
48
 10
-1.2793
 20
11.2489
 30
0.0000
  0
VERTEX
  8
48
 10
-2.0632
 20
11.2489
 30
0.0000
  0
SEQEND
  8
0
  0
POLYLINE
  8
48
 66
1
 10
0.0000
 20
0.0000
 30
0.0000
 40
0.0381
 41
0.0381
 70
0
  0
VERTEX
  8
48
 10
-2.0632
 20
11.2679
 30
0.0000
 42
1.0000
  0
VERTEX
  8
48
 10
-2.0632
 20
11.2298
 30
0.0000
  0
SEQEND
  8
0
  0
POLYLINE
  8
48
 66
1
 10
0.0000
 20
0.0000
 30
0.0000
 40
0.0381
 41
0.0381
 70
0
  0
VERTEX
  8
48
 10
-1.2793
 20
11.2298
 30
0.0000
 42
1.0000
  0
VERTEX
  8
48
 10
-1.2793
 20
11.2679
 30
0.0000
  0
SEQEND
  8
0
  0
POLYLINE
  8
48
 66
1
 10
0.0000
 20
0.0000
 30
0.0000
 40
0.0762
 41
0.0762
 70
0
  0
VERTEX
  8
48
 10
-2.0632
 20
11.2489
 30
0.0000
  0
VERTEX
  8
48
 10
-2.0632
 20
10.7786
 30
0.0000
  0
SEQEND
  8
0
  0
POLYLINE
  8
48
 66
1
 10
0.0000
 20
0.0000
 30
0.0000
 40
0.0381
 41
0.0381
 70
0
  0
VERTEX
  8
48
 10
-2.0822
 20
10.7786
 30
0.0000
 42
1.0000
  0
VERTEX
  8
48
 10
-2.0441
 20
10.7786
 30
0.0000
  0
SEQEND
  8
0
  0
POLYLINE
  8
48
 66
1
 10
0.0000
 20
0.0000
 30
0.0000
 40
0.0381
 41
0.0381
 70
0
  0
VERTEX
  8
48
 10
-2.0441
 20
11.2489
 30
0.0000
 42
1.0000
  0
VERTEX
  8
48
 10
-2.0822
 20
11.2489
 30
0.0000
  0
SEQEND
  8
0
  0
POLYLINE
  8
48
 66
1
 10
0.0000
 20
0.0000
 30
0.0000
 40
0.0762
 41
0.0762
 70
0
  0
VERTEX
  8
48
 10
-2.0632
 20
10.7786
 30
0.0000
  0
VERTEX
  8
48
 10
-1.9064
 20
10.6218
 30
0.0000
  0
SEQEND
  8
0
  0
POLYLINE
  8
48
 66
1
 10
0.0000
 20
0.0000
 30
0.0000
 40
0.0381
 41
0.0381
 70
0
  0
VERTEX
  8
48
 10
-1.9199
 20
10.6083
 30
0.0000
 42
1.0000
  0
VERTEX
  8
48
 10
-1.8929
 20
10.6353
 30
0.0000
  0
SEQEND
  8
0
  0
POLYLINE
  8
48
 66
1
 10
0.0000
 20
0.0000
 30
0.0000
 40
0.0381
 41
0.0381
 70
0
  0
VERTEX
  8
48
 10
-2.0497
 20
10.7920
 30
0.0000
 42
1.0000
  0
VERTEX
  8
48
 10
-2.0767
 20
10.7651
 30
0.0000
  0
SEQEND
  8
0
  0
POLYLINE
  8
48
 66
1
 10
0.0000
 20
0.0000
 30
0.0000
 40
0.0762
 41
0.0762
 70
0
  0
VERTEX
  8
48
 10
-1.9064
 20
10.6218
 30
0.0000
  0
VERTEX
  8
48
 10
-1.5929
 20
10.6218
 30
0.0000
  0
SEQEND
  8
0
  0
POLYLINE
  8
48
 66
1
 10
0.0000
 20
0.0000
 30
0.0000
 40
0.0381
 41
0.0381
 70
0
  0
VERTEX
  8
48
 10
-1.5929
 20
10.6028
 30
0.0000
 42
1.0000
  0
VERTEX
  8
48
 10
-1.5929
 20
10.6409
 30
0.0000
  0
SEQEND
  8
0
  0
POLYLINE
  8
48
 66
1
 10
0.0000
 20
0.0000
 30
0.0000
 40
0.0381
 41
0.0381
 70
0
  0
VERTEX
  8
48
 10
-1.9064
 20
10.6409
 30
0.0000
 42
1.0000
  0
VERTEX
  8
48
 10
-1.9064
 20
10.6028
 30
0.0000
  0
SEQEND
  8
0
  0
POLYLINE
  8
48
 66
1
 10
0.0000
 20
0.0000
 30
0.0000
 40
0.0762
 41
0.0762
 70
0
  0
VERTEX
  8
48
 10
-1.5929
 20
10.6218
 30
0.0000
  0
VERTEX
  8
48
 10
-1.4361
 20
10.7786
 30
0.0000
  0
SEQEND
  8
0
  0
POLYLINE
  8
48
 66
1
 10
0.0000
 20
0.0000
 30
0.0000
 40
0.0381
 41
0.0381
 70
0
  0
VERTEX
  8
48
 10
-1.4226
 20
10.7651
 30
0.0000
 42
1.0000
  0
VERTEX
  8
48
 10
-1.4496
 20
10.7920
 30
0.0000
  0
SEQEND
  8
0
  0
POLYLINE
  8
48
 66
1
 10
0.0000
 20
0.0000
 30
0.0000
 40
0.0381
 41
0.0381
 70
0
  0
VERTEX
  8
48
 10
-1.6064
 20
10.6353
 30
0.0000
 42
1.0000
  0
VERTEX
  8
48
 10
-1.5794
 20
10.6083
 30
0.0000
  0
SEQEND
  8
0
  0
POLYLINE
  8
48
 66
1
 10
0.0000
 20
0.0000
 30
0.0000
 40
0.0762
 41
0.0762
 70
0
  0
VERTEX
  8
48
 10
-1.4361
 20
10.7786
 30
0.0000
  0
VERTEX
  8
48
 10
-1.4361
 20
11.2489
 30
0.0000
  0
SEQEND
  8
0
  0
POLYLINE
  8
48
 66
1
 10
0.0000
 20
0.0000
 30
0.0000
 40
0.0381
 41
0.0381
 70
0
  0
VERTEX
  8
48
 10
-1.4171
 20
11.2489
 30
0.0000
 42
1.0000
  0
VERTEX
  8
48
 10
-1.4552
 20
11.2489
 30
0.0000
  0
SEQEND
  8
0
  0
POLYLINE
  8
48
 66
1
 10
0.0000
 20
0.0000
 30
0.0000
 40
0.0381
 41
0.0381
 70
0
  0
VERTEX
  8
48
 10
-1.4552
 20
10.7786
 30
0.0000
 42
1.0000
  0
VERTEX
  8
48
 10
-1.4171
 20
10.7786
 30
0.0000
  0
SEQEND
  8
0
  0
POLYLINE
  8
48
 66
1
 10
0.0000
 20
0.0000
 30
0.0000
 40
0.0762
 41
0.0762
 70
0
  0
VERTEX
  8
48
 10
-1.4361
 20
12.0276
 30
0.0000
  0
VERTEX
  8
48
 10
-1.4361
 20
11.7141
 30
0.0000
  0
SEQEND
  8
0
  0
POLYLINE
  8
48
 66
1
 10
0.0000
 20
0.0000
 30
0.0000
 40
0.0381
 41
0.0381
 70
0
  0
VERTEX
  8
48
 10
-1.4552
 20
11.7141
 30
0.0000
 42
1.0000
  0
VERTEX
  8
48
 10
-1.4171
 20
11.7141
 30
0.0000
  0
SEQEND
  8
0
  0
POLYLINE
  8
48
 66
1
 10
0.0000
 20
0.0000
 30
0.0000
 40
0.0381
 41
0.0381
 70
0
  0
VERTEX
  8
48
 10
-1.4171
 20
12.0276
 30
0.0000
 42
1.0000
  0
VERTEX
  8
48
 10
-1.4552
 20
12.0276
 30
0.0000
  0
SEQEND
  8
0
  0
POLYLINE
  8
48
 66
1
 10
0.0000
 20
0.0000
 30
0.0000
 40
0.0762
 41
0.0762
 70
0
  0
VERTEX
  8
48
 10
-1.4361
 20
11.7141
 30
0.0000
  0
VERTEX
  8
48
 10
-1.5929
 20
11.5573
 30
0.0000
  0
SEQEND
  8
0
  0
POLYLINE
  8
48
 66
1
 10
0.0000
 20
0.0000
 30
0.0000
 40
0.0381
 41
0.0381
 70
0
  0
VERTEX
  8
48
 10
-1.6064
 20
11.5708
 30
0.0000
 42
1.0000
  0
VERTEX
  8
48
 10
-1.5794
 20
11.5439
 30
0.0000
  0
SEQEND
  8
0
  0
POLYLINE
  8
48
 66
1
 10
0.0000
 20
0.0000
 30
0.0000
 40
0.0381
 41
0.0381
 70
0
  0
VERTEX
  8
48
 10
-1.4226
 20
11.7006
 30
0.0000
 42
1.0000
  0
VERTEX
  8
48
 10
-1.4496
 20
11.7276
 30
0.0000
  0
SEQEND
  8
0
  0
POLYLINE
  8
48
 66
1
 10
0.0000
 20
0.0000
 30
0.0000
 40
0.0762
 41
0.0762
 70
0
  0
VERTEX
  8
48
 10
-1.5929
 20
11.5573
 30
0.0000
  0
VERTEX
  8
48
 10
-1.9064
 20
11.5573
 30
0.0000
  0
SEQEND
  8
0
  0
POLYLINE
  8
48
 66
1
 10
0.0000
 20
0.0000
 30
0.0000
 40
0.0381
 41
0.0381
 70
0
  0
VERTEX
  8
48
 10
-1.9064
 20
11.5764
 30
0.0000
 42
1.0000
  0
VERTEX
  8
48
 10
-1.9064
 20
11.5383
 30
0.0000
  0
SEQEND
  8
0
  0
POLYLINE
  8
48
 66
1
 10
0.0000
 20
0.0000
 30
0.0000
 40
0.0381
 41
0.0381
 70
0
  0
VERTEX
  8
48
 10
-1.5929
 20
11.5383
 30
0.0000
 42
1.0000
  0
VERTEX
  8
48
 10
-1.5929
 20
11.5764
 30
0.0000
  0
SEQEND
  8
0
  0
POLYLINE
  8
48
 66
1
 10
0.0000
 20
0.0000
 30
0.0000
 40
0.0762
 41
0.0762
 70
0
  0
VERTEX
  8
48
 10
-1.9064
 20
11.5573
 30
0.0000
  0
VERTEX
  8
48
 10
-2.0632
 20
11.7141
 30
0.0000
  0
SEQEND
  8
0
  0
POLYLINE
  8
48
 66
1
 10
0.0000
 20
0.0000
 30
0.0000
 40
0.0381
 41
0.0381
 70
0
  0
VERTEX
  8
48
 10
-2.0497
 20
11.7276
 30
0.0000
 42
1.0000
  0
VERTEX
  8
48
 10
-2.0767
 20
11.7006
 30
0.0000
  0
SEQEND
  8
0
  0
POLYLINE
  8
48
 66
1
 10
0.0000
 20
0.0000
 30
0.0000
 40
0.0381
 41
0.0381
 70
0
  0
VERTEX
  8
48
 10
-1.9199
 20
11.5439
 30
0.0000
 42
1.0000
  0
VERTEX
  8
48
 10
-1.8929
 20
11.5708
 30
0.0000
  0
SEQEND
  8
0
  0
POLYLINE
  8
48
 66
1
 10
0.0000
 20
0.0000
 30
0.0000
 40
0.0762
 41
0.0762
 70
0
  0
VERTEX
  8
48
 10
-2.0632
 20
11.7141
 30
0.0000
  0
VERTEX
  8
48
 10
-2.0632
 20
12.0276
 30
0.0000
  0
SEQEND
  8
0
  0
POLYLINE
  8
48
 66
1
 10
0.0000
 20
0.0000
 30
0.0000
 40
0.0381
 41
0.0381
 70
0
  0
VERTEX
  8
48
 10
-2.0441
 20
12.0276
 30
0.0000
 42
1.0000
  0
VERTEX
  8
48
 10
-2.0822
 20
12.0276
 30
0.0000
  0
SEQEND
  8
0
  0
POLYLINE
  8
48
 66
1
 10
0.0000
 20
0.0000
 30
0.0000
 40
0.0381
 41
0.0381
 70
0
  0
VERTEX
  8
48
 10
-2.0822
 20
11.7141
 30
0.0000
 42
1.0000
  0
VERTEX
  8
48
 10
-2.0441
 20
11.7141
 30
0.0000
  0
SEQEND
  8
0
  0
POLYLINE
  8
48
 66
1
 10
0.0000
 20
0.0000
 30
0.0000
 40
0.0762
 41
0.0762
 70
0
  0
VERTEX
  8
48
 10
-2.0632
 20
12.0276
 30
0.0000
  0
VERTEX
  8
48
 10
-1.9064
 20
12.1844
 30
0.0000
  0
SEQEND
  8
0
  0
POLYLINE
  8
48
 66
1
 10
0.0000
 20
0.0000
 30
0.0000
 40
0.0381
 41
0.0381
 70
0
  0
VERTEX
  8
48
 10
-1.8929
 20
12.1709
 30
0.0000
 42
1.0000
  0
VERTEX
  8
48
 10
-1.9199
 20
12.1979
 30
0.0000
  0
SEQEND
  8
0
  0
POLYLINE
  8
48
 66
1
 10
0.0000
 20
0.0000
 30
0.0000
 40
0.0381
 41
0.0381
 70
0
  0
VERTEX
  8
48
 10
-2.0767
 20
12.0411
 30
0.0000
 42
1.0000
  0
VERTEX
  8
48
 10
-2.0497
 20
12.0142
 30
0.0000
  0
SEQEND
  8
0
  0
POLYLINE
  8
48
 66
1
 10
0.0000
 20
0.0000
 30
0.0000
 40
0.0762
 41
0.0762
 70
0
  0
VERTEX
  8
48
 10
-1.9064
 20
12.1844
 30
0.0000
  0
VERTEX
  8
48
 10
-1.7497
 20
12.1844
 30
0.0000
  0
SEQEND
  8
0
  0
POLYLINE
  8
48
 66
1
 10
0.0000
 20
0.0000
 30
0.0000
 40
0.0381
 41
0.0381
 70
0
  0
VERTEX
  8
48
 10
-1.7497
 20
12.1653
 30
0.0000
 42
1.0000
  0
VERTEX
  8
48
 10
-1.7497
 20
12.2034
 30
0.0000
  0
SEQEND
  8
0
  0
POLYLINE
  8
48
 66
1
 10
0.0000
 20
0.0000
 30
0.0000
 40
0.0381
 41
0.0381
 70
0
  0
VERTEX
  8
48
 10
-1.9064
 20
12.2034
 30
0.0000
 42
1.0000
  0
VERTEX
  8
48
 10
-1.9064
 20
12.1653
 30
0.0000
  0
SEQEND
  8
0
  0
POLYLINE
  8
48
 66
1
 10
0.0000
 20
0.0000
 30
0.0000
 40
0.0762
 41
0.0762
 70
0
  0
VERTEX
  8
48
 10
-1.7497
 20
12.1844
 30
0.0000
  0
VERTEX
  8
48
 10
-1.7497
 20
11.5573
 30
0.0000
  0
SEQEND
  8
0
  0
POLYLINE
  8
48
 66
1
 10
0.0000
 20
0.0000
 30
0.0000
 40
0.0381
 41
0.0381
 70
0
  0
VERTEX
  8
48
 10
-1.7687
 20
11.5573
 30
0.0000
 42
1.0000
  0
VERTEX
  8
48
 10
-1.7306
 20
11.5573
 30
0.0000
  0
SEQEND
  8
0
  0
POLYLINE
  8
48
 66
1
 10
0.0000
 20
0.0000
 30
0.0000
 40
0.0381
 41
0.0381
 70
0
  0
VERTEX
  8
48
 10
-1.7306
 20
12.1844
 30
0.0000
 42
1.0000
  0
VERTEX
  8
48
 10
-1.7687
 20
12.1844
 30
0.0000
  0
SEQEND
  8
0
  0
INSERT
  8
1
  2
RECT
 10
4.7520
 20
4.5010
 30
0.0000
 41
7.5000
 42
1.5000
 43
1.0000
 50
0.0000
  0
INSERT
  8
1
  2
RECT
 10
4.7520
 20
11.5010
 30
0.0000
 41
7.5000
 42
1.5000
 43
1.0000
 50
0.0000
  0
INSERT
  8
1
  2
RECT
 10
5.2520
 20
7.0010
 30
0.0000
 41
6.5000
 42
1.0000
 43
1.0000
 50
0.0000
  0
INSERT
  8
1
  2
RECT
 10
5.2520
 20
9.0010
 30
0.0000
 41
6.5000
 42
1.0000
 43
1.0000
 50
0.0000
  0
POINT
  8
23
 10
24.0030
 20
8.0000
 30
0.0000
  0
POLYLINE
  8
51
 66
1
 10
0.0000
 20
0.0000
 30
0.0000
 40
0.1270
 41
0.1270
 70
0
  0
VERTEX
  8
51
 10
30.3530
 20
15.3660
 30
0.0000
  0
VERTEX
  8
51
 10
17.6530
 20
15.3660
 30
0.0000
  0
SEQEND
  8
0
  0
POLYLINE
  8
51
 66
1
 10
0.0000
 20
0.0000
 30
0.0000
 40
0.0635
 41
0.0635
 70
0
  0
VERTEX
  8
51
 10
17.6530
 20
15.3977
 30
0.0000
 42
1.0000
  0
VERTEX
  8
51
 10
17.6530
 20
15.3342
 30
0.0000
  0
SEQEND
  8
0
  0
POLYLINE
  8
51
 66
1
 10
0.0000
 20
0.0000
 30
0.0000
 40
0.0635
 41
0.0635
 70
0
  0
VERTEX
  8
51
 10
30.3530
 20
15.3342
 30
0.0000
 42
1.0000
  0
VERTEX
  8
51
 10
30.3530
 20
15.3977
 30
0.0000
  0
SEQEND
  8
0
  0
POLYLINE
  8
51
 66
1
 10
0.0000
 20
0.0000
 30
0.0000
 40
0.1270
 41
0.1270
 70
0
  0
VERTEX
  8
51
 10
17.6530
 20
15.3660
 30
0.0000
  0
VERTEX
  8
51
 10
17.6530
 20
0.6340
 30
0.0000
  0
SEQEND
  8
0
  0
POLYLINE
  8
51
 66
1
 10
0.0000
 20
0.0000
 30
0.0000
 40
0.0635
 41
0.0635
 70
0
  0
VERTEX
  8
51
 10
17.6213
 20
0.6340
 30
0.0000
 42
1.0000
  0
VERTEX
  8
51
 10
17.6848
 20
0.6340
 30
0.0000
  0
SEQEND
  8
0
  0
POLYLINE
  8
51
 66
1
 10
0.0000
 20
0.0000
 30
0.0000
 40
0.0635
 41
0.0635
 70
0
  0
VERTEX
  8
51
 10
17.6848
 20
15.3660
 30
0.0000
 42
1.0000
  0
VERTEX
  8
51
 10
17.6213
 20
15.3660
 30
0.0000
  0
SEQEND
  8
0
  0
POLYLINE
  8
51
 66
1
 10
0.0000
 20
0.0000
 30
0.0000
 40
0.1270
 41
0.1270
 70
0
  0
VERTEX
  8
51
 10
17.6530
 20
0.6340
 30
0.0000
  0
VERTEX
  8
51
 10
30.3530
 20
0.6340
 30
0.0000
  0
SEQEND
  8
0
  0
POLYLINE
  8
51
 66
1
 10
0.0000
 20
0.0000
 30
0.0000
 40
0.0635
 41
0.0635
 70
0
  0
VERTEX
  8
51
 10
30.3530
 20
0.6022
 30
0.0000
 42
1.0000
  0
VERTEX
  8
51
 10
30.3530
 20
0.6657
 30
0.0000
  0
SEQEND
  8
0
  0
POLYLINE
  8
51
 66
1
 10
0.0000
 20
0.0000
 30
0.0000
 40
0.0635
 41
0.0635
 70
0
  0
VERTEX
  8
51
 10
17.6530
 20
0.6657
 30
0.0000
 42
1.0000
  0
VERTEX
  8
51
 10
17.6530
 20
0.6022
 30
0.0000
  0
SEQEND
  8
0
  0
POLYLINE
  8
51
 66
1
 10
0.0000
 20
0.0000
 30
0.0000
 40
0.1270
 41
0.1270
 70
0
  0
VERTEX
  8
51
 10
30.3530
 20
0.6340
 30
0.0000
  0
VERTEX
  8
51
 10
30.3530
 20
15.3660
 30
0.0000
  0
SEQEND
  8
0
  0
POLYLINE
  8
51
 66
1
 10
0.0000
 20
0.0000
 30
0.0000
 40
0.0635
 41
0.0635
 70
0
  0
VERTEX
  8
51
 10
30.3848
 20
15.3660
 30
0.0000
 42
1.0000
  0
VERTEX
  8
51
 10
30.3213
 20
15.3660
 30
0.0000
  0
SEQEND
  8
0
  0
POLYLINE
  8
51
 66
1
 10
0.0000
 20
0.0000
 30
0.0000
 40
0.0635
 41
0.0635
 70
0
  0
VERTEX
  8
51
 10
30.3213
 20
0.6340
 30
0.0000
 42
1.0000
  0
VERTEX
  8
51
 10
30.3848
 20
0.6340
 30
0.0000
  0
SEQEND
  8
0
  0
CIRCLE
  8
20
 10
25.6350
 20
14.4770
 30
0.0000
 40
0.4000
  0
CIRCLE
  8
20
 10
25.2350
 20
14.4770
 30
0.0000
 40
0.4000
  0
CIRCLE
  8
20
 10
26.4350
 20
14.4770
 30
0.0000
 40
0.4000
  0
CIRCLE
  8
20
 10
26.8350
 20
14.4770
 30
0.0000
 40
0.4000
  0
CIRCLE
  8
20
 10
25.6350
 20
1.5230
 30
0.0000
 40
0.4000
  0
CIRCLE
  8
20
 10
25.2350
 20
1.5230
 30
0.0000
 40
0.4000
  0
CIRCLE
  8
20
 10
26.4350
 20
1.5230
 30
0.0000
 40
0.4000
  0
CIRCLE
  8
20
 10
26.8350
 20
1.5230
 30
0.0000
 40
0.4000
  0
CIRCLE
  8
20
 10
20.3518
 20
1.5230
 30
0.0000
 40
0.4000
  0
CIRCLE
  8
20
 10
19.9518
 20
1.5230
 30
0.0000
 40
0.4000
  0
CIRCLE
  8
20
 10
21.1518
 20
1.5230
 30
0.0000
 40
0.4000
  0
CIRCLE
  8
20
 10
21.5518
 20
1.5230
 30
0.0000
 40
0.4000
  0
CIRCLE
  8
20
 10
20.3518
 20
14.4770
 30
0.0000
 40
0.4000
  0
CIRCLE
  8
20
 10
19.9518
 20
14.4770
 30
0.0000
 40
0.4000
  0
CIRCLE
  8
20
 10
21.1518
 20
14.4770
 30
0.0000
 40
0.4000
  0
CIRCLE
  8
20
 10
21.5518
 20
14.4770
 30
0.0000
 40
0.4000
  0
INSERT
  8
17
  2
ROUNDP
 10
18.2626
 20
9.9050
 30
0.0000
 41
1.3208
 42
1.3208
 43
1.0000
 50
270.0000
  0
INSERT
  8
17
  2
ROUNDP
 10
18.2626
 20
9.9050
 30
0.0000
 41
1.3208
 42
1.3208
 43
1.0000
 50
270.0000
  0
INSERT
  8
17
  2
ROUNDP
 10
20.1676
 20
9.9050
 30
0.0000
 41
1.3208
 42
1.3208
 43
1.0000
 50
270.0000
  0
INSERT
  8
17
  2
ROUNDP
 10
20.1676
 20
9.9050
 30
0.0000
 41
1.3208
 42
1.3208
 43
1.0000
 50
270.0000
  0
INSERT
  8
17
  2
ROUNDP
 10
18.2626
 20
8.0000
 30
0.0000
 41
1.3208
 42
1.3208
 43
1.0000
 50
270.0000
  0
INSERT
  8
17
  2
ROUNDP
 10
18.2626
 20
8.0000
 30
0.0000
 41
1.3208
 42
1.3208
 43
1.0000
 50
270.0000
  0
INSERT
  8
17
  2
ROUNDP
 10
20.1676
 20
8.0000
 30
0.0000
 41
1.3208
 42
1.3208
 43
1.0000
 50
270.0000
  0
INSERT
  8
17
  2
ROUNDP
 10
20.1676
 20
8.0000
 30
0.0000
 41
1.3208
 42
1.3208
 43
1.0000
 50
270.0000
  0
INSERT
  8
17
  2
ROUNDP
 10
18.2626
 20
6.0950
 30
0.0000
 41
1.3208
 42
1.3208
 43
1.0000
 50
0.0000
  0
INSERT
  8
17
  2
ROUNDP
 10
18.2626
 20
6.0950
 30
0.0000
 41
1.3208
 42
1.3208
 43
1.0000
 50
0.0000
  0
INSERT
  8
17
  2
ROUNDP
 10
20.1676
 20
6.0950
 30
0.0000
 41
1.3208
 42
1.3208
 43
1.0000
 50
0.0000
  0
INSERT
  8
17
  2
ROUNDP
 10
20.1676
 20
6.0950
 30
0.0000
 41
1.3208
 42
1.3208
 43
1.0000
 50
0.0000
  0
INSERT
  8
17
  2
LONGP100
 10
20.7518
 20
14.4770
 30
0.0000
 41
1.7780
 42
1.7780
 43
1.0000
 50
0.0000
  0
INSERT
  8
17
  2
LONGP100
 10
20.7518
 20
14.4770
 30
0.0000
 41
1.7780
 42
1.7780
 43
1.0000
 50
0.0000
  0
INSERT
  8
17
  2
LONGP100
 10
26.0350
 20
14.4770
 30
0.0000
 41
1.7780
 42
1.7780
 43
1.0000
 50
0.0000
  0
INSERT
  8
17
  2
LONGP100
 10
26.0350
 20
14.4770
 30
0.0000
 41
1.7780
 42
1.7780
 43
1.0000
 50
0.0000
  0
INSERT
  8
17
  2
LONGP100
 10
26.0350
 20
1.5230
 30
0.0000
 41
1.7780
 42
1.7780
 43
1.0000
 50
0.0000
  0
INSERT
  8
17
  2
LONGP100
 10
26.0350
 20
1.5230
 30
0.0000
 41
1.7780
 42
1.7780
 43
1.0000
 50
0.0000
  0
INSERT
  8
17
  2
LONGP100
 10
20.7518
 20
1.5230
 30
0.0000
 41
1.7780
 42
1.7780
 43
1.0000
 50
0.0000
  0
INSERT
  8
17
  2
LONGP100
 10
20.7518
 20
1.5230
 30
0.0000
 41
1.7780
 42
1.7780
 43
1.0000
 50
0.0000
  0
POLYLINE
  8
1
 66
1
 10
0.0000
 20
0.0000
 30
0.0000
 40
0.4064
 41
0.4064
 70
0
  0
VERTEX
  8
1
 10
5.2520
 20
9.0010
 30
0.0000
  0
VERTEX
  8
1
 10
11.4140
 20
9.0010
 30
0.0000
  0
SEQEND
  8
0
  0
POLYLINE
  8
1
 66
1
 10
0.0000
 20
0.0000
 30
0.0000
 40
0.2032
 41
0.2032
 70
0
  0
VERTEX
  8
1
 10
11.4140
 20
8.8994
 30
0.0000
 42
1.0000
  0
VERTEX
  8
1
 10
11.4140
 20
9.1026
 30
0.0000
  0
SEQEND
  8
0
  0
POLYLINE
  8
1
 66
1
 10
0.0000
 20
0.0000
 30
0.0000
 40
0.2032
 41
0.2032
 70
0
  0
VERTEX
  8
1
 10
5.2520
 20
9.1026
 30
0.0000
 42
1.0000
  0
VERTEX
  8
1
 10
5.2520
 20
8.8994
 30
0.0000
  0
SEQEND
  8
0
  0
POLYLINE
  8
1
 66
1
 10
0.0000
 20
0.0000
 30
0.0000
 40
0.4064
 41
0.4064
 70
0
  0
VERTEX
  8
1
 10
11.4140
 20
9.0010
 30
0.0000
  0
VERTEX
  8
1
 10
11.4300
 20
9.0170
 30
0.0000
  0
SEQEND
  8
0
  0
POLYLINE
  8
1
 66
1
 10
0.0000
 20
0.0000
 30
0.0000
 40
0.2032
 41
0.2032
 70
0
  0
VERTEX
  8
1
 10
11.5018
 20
8.9452
 30
0.0000
 42
1.0000
  0
VERTEX
  8
1
 10
11.3582
 20
9.0888
 30
0.0000
  0
SEQEND
  8
0
  0
POLYLINE
  8
1
 66
1
 10
0.0000
 20
0.0000
 30
0.0000
 40
0.2032
 41
0.2032
 70
0
  0
VERTEX
  8
1
 10
11.3422
 20
9.0728
 30
0.0000
 42
1.0000
  0
VERTEX
  8
1
 10
11.4858
 20
8.9292
 30
0.0000
  0
SEQEND
  8
0
  0
POLYLINE
  8
16
 66
1
 10
0.0000
 20
0.0000
 30
0.0000
 40
0.4064
 41
0.4064
 70
0
  0
VERTEX
  8
16
 10
11.4300
 20
9.0170
 30
0.0000
  0
VERTEX
  8
16
 10
11.4300
 20
8.8900
 30
0.0000
  0
SEQEND
  8
0
  0
POLYLINE
  8
16
 66
1
 10
0.0000
 20
0.0000
 30
0.0000
 40
0.2032
 41
0.2032
 70
0
  0
VERTEX
  8
16
 10
11.3284
 20
8.8900
 30
0.0000
 42
1.0000
  0
VERTEX
  8
16
 10
11.5316
 20
8.8900
 30
0.0000
  0
SEQEND
  8
0
  0
POLYLINE
  8
16
 66
1
 10
0.0000
 20
0.0000
 30
0.0000
 40
0.2032
 41
0.2032
 70
0
  0
VERTEX
  8
16
 10
11.5316
 20
9.0170
 30
0.0000
 42
1.0000
  0
VERTEX
  8
16
 10
11.3284
 20
9.0170
 30
0.0000
  0
SEQEND
  8
0
  0
LINE
  8
19
 10
16.0020
 20
4.3180
 30
0.0000
 11
18.3906
 21
4.3180
 31
0.0000
  0
LINE
  8
19
 10
18.3906
 20
4.3180
 30
0.0000
 11
20.1676
 21
6.0950
 31
0.0000
  0
POLYLINE
  8
16
 66
1
 10
0.0000
 20
0.0000
 30
0.0000
 40
0.4064
 41
0.4064
 70
0
  0
VERTEX
  8
16
 10
11.4300
 20
8.8900
 30
0.0000
  0
VERTEX
  8
16
 10
13.9700
 20
8.8900
 30
0.0000
  0
SEQEND
  8
0
  0
POLYLINE
  8
16
 66
1
 10
0.0000
 20
0.0000
 30
0.0000
 40
0.2032
 41
0.2032
 70
0
  0
VERTEX
  8
16
 10
13.9700
 20
8.7884
 30
0.0000
 42
1.0000
  0
VERTEX
  8
16
 10
13.9700
 20
8.9916
 30
0.0000
  0
SEQEND
  8
0
  0
POLYLINE
  8
16
 66
1
 10
0.0000
 20
0.0000
 30
0.0000
 40
0.2032
 41
0.2032
 70
0
  0
VERTEX
  8
16
 10
11.4300
 20
8.9916
 30
0.0000
 42
1.0000
  0
VERTEX
  8
16
 10
11.4300
 20
8.7884
 30
0.0000
  0
SEQEND
  8
0
  0
POLYLINE
  8
16
 66
1
 10
0.0000
 20
0.0000
 30
0.0000
 40
0.4064
 41
0.4064
 70
0
  0
VERTEX
  8
16
 10
13.9700
 20
8.8900
 30
0.0000
  0
VERTEX
  8
16
 10
16.5100
 20
6.3500
 30
0.0000
  0
SEQEND
  8
0
  0
POLYLINE
  8
16
 66
1
 10
0.0000
 20
0.0000
 30
0.0000
 40
0.2032
 41
0.2032
 70
0
  0
VERTEX
  8
16
 10
16.4382
 20
6.2782
 30
0.0000
 42
1.0000
  0
VERTEX
  8
16
 10
16.5818
 20
6.4218
 30
0.0000
  0
SEQEND
  8
0
  0
POLYLINE
  8
16
 66
1
 10
0.0000
 20
0.0000
 30
0.0000
 40
0.2032
 41
0.2032
 70
0
  0
VERTEX
  8
16
 10
14.0418
 20
8.9618
 30
0.0000
 42
1.0000
  0
VERTEX
  8
16
 10
13.8982
 20
8.8182
 30
0.0000
  0
SEQEND
  8
0
  0
POLYLINE
  8
16
 66
1
 10
0.0000
 20
0.0000
 30
0.0000
 40
0.4064
 41
0.4064
 70
0
  0
VERTEX
  8
16
 10
16.5100
 20
6.3500
 30
0.0000
  0
VERTEX
  8
16
 10
16.5100
 20
4.9530
 30
0.0000
  0
SEQEND
  8
0
  0
POLYLINE
  8
16
 66
1
 10
0.0000
 20
0.0000
 30
0.0000
 40
0.2032
 41
0.2032
 70
0
  0
VERTEX
  8
16
 10
16.4084
 20
4.9530
 30
0.0000
 42
1.0000
  0
VERTEX
  8
16
 10
16.6116
 20
4.9530
 30
0.0000
  0
SEQEND
  8
0
  0
POLYLINE
  8
16
 66
1
 10
0.0000
 20
0.0000
 30
0.0000
 40
0.2032
 41
0.2032
 70
0
  0
VERTEX
  8
16
 10
16.6116
 20
6.3500
 30
0.0000
 42
1.0000
  0
VERTEX
  8
16
 10
16.4084
 20
6.3500
 30
0.0000
  0
SEQEND
  8
0
  0
POLYLINE
  8
16
 66
1
 10
0.0000
 20
0.0000
 30
0.0000
 40
0.4064
 41
0.4064
 70
0
  0
VERTEX
  8
16
 10
16.5100
 20
4.9530
 30
0.0000
  0
VERTEX
  8
16
 10
17.5260
 20
3.9370
 30
0.0000
  0
SEQEND
  8
0
  0
POLYLINE
  8
16
 66
1
 10
0.0000
 20
0.0000
 30
0.0000
 40
0.2032
 41
0.2032
 70
0
  0
VERTEX
  8
16
 10
17.4542
 20
3.8652
 30
0.0000
 42
1.0000
  0
VERTEX
  8
16
 10
17.5978
 20
4.0088
 30
0.0000
  0
SEQEND
  8
0
  0
POLYLINE
  8
16
 66
1
 10
0.0000
 20
0.0000
 30
0.0000
 40
0.2032
 41
0.2032
 70
0
  0
VERTEX
  8
16
 10
16.5818
 20
5.0248
 30
0.0000
 42
1.0000
  0
VERTEX
  8
16
 10
16.4382
 20
4.8812
 30
0.0000
  0
SEQEND
  8
0
  0
POLYLINE
  8
16
 66
1
 10
0.0000
 20
0.0000
 30
0.0000
 40
0.4064
 41
0.4064
 70
0
  0
VERTEX
  8
16
 10
17.5260
 20
3.9370
 30
0.0000
  0
VERTEX
  8
16
 10
18.0096
 20
3.9370
 30
0.0000
  0
SEQEND
  8
0
  0
POLYLINE
  8
16
 66
1
 10
0.0000
 20
0.0000
 30
0.0000
 40
0.2032
 41
0.2032
 70
0
  0
VERTEX
  8
16
 10
18.0096
 20
3.8354
 30
0.0000
 42
1.0000
  0
VERTEX
  8
16
 10
18.0096
 20
4.0386
 30
0.0000
  0
SEQEND
  8
0
  0
POLYLINE
  8
16
 66
1
 10
0.0000
 20
0.0000
 30
0.0000
 40
0.2032
 41
0.2032
 70
0
  0
VERTEX
  8
16
 10
17.5260
 20
4.0386
 30
0.0000
 42
1.0000
  0
VERTEX
  8
16
 10
17.5260
 20
3.8354
 30
0.0000
  0
SEQEND
  8
0
  0
POLYLINE
  8
16
 66
1
 10
0.0000
 20
0.0000
 30
0.0000
 40
0.4064
 41
0.4064
 70
0
  0
VERTEX
  8
16
 10
18.0096
 20
3.9370
 30
0.0000
  0
VERTEX
  8
16
 10
20.1676
 20
6.0950
 30
0.0000
  0
SEQEND
  8
0
  0
POLYLINE
  8
16
 66
1
 10
0.0000
 20
0.0000
 30
0.0000
 40
0.2032
 41
0.2032
 70
0
  0
VERTEX
  8
16
 10
20.2394
 20
6.0231
 30
0.0000
 42
1.0000
  0
VERTEX
  8
16
 10
20.0958
 20
6.1668
 30
0.0000
  0
SEQEND
  8
0
  0
POLYLINE
  8
16
 66
1
 10
0.0000
 20
0.0000
 30
0.0000
 40
0.2032
 41
0.2032
 70
0
  0
VERTEX
  8
16
 10
17.9378
 20
4.0088
 30
0.0000
 42
1.0000
  0
VERTEX
  8
16
 10
18.0815
 20
3.8652
 30
0.0000
  0
SEQEND
  8
0
  0
INSERT
  8
18
  2
ROUNDV
 10
11.4300
 20
9.0170
 30
0.0000
 41
1.1080
 42
1.1080
 43
1.0000
 50
0.0000
  0
INSERT
  8
18
  2
ROUNDV
 10
11.4300
 20
9.0170
 30
0.0000
 41
1.1080
 42
1.1080
 43
1.0000
 50
0.0000
  0
POLYLINE
  8
1
 66
1
 10
0.0000
 20
0.0000
 30
0.0000
 40
0.3048
 41
0.3048
 70
0
  0
VERTEX
  8
1
 10
5.2520
 20
7.0010
 30
0.0000
  0
VERTEX
  8
1
 10
8.2075
 20
6.9375
 30
0.0000
  0
SEQEND
  8
0
  0
POLYLINE
  8
1
 66
1
 10
0.0000
 20
0.0000
 30
0.0000
 40
0.1524
 41
0.1524
 70
0
  0
VERTEX
  8
1
 10
8.2059
 20
6.8613
 30
0.0000
 42
1.0000
  0
VERTEX
  8
1
 10
8.2091
 20
7.0137
 30
0.0000
  0
SEQEND
  8
0
  0
POLYLINE
  8
1
 66
1
 10
0.0000
 20
0.0000
 30
0.0000
 40
0.1524
 41
0.1524
 70
0
  0
VERTEX
  8
1
 10
5.2536
 20
7.0772
 30
0.0000
 42
1.0000
  0
VERTEX
  8
1
 10
5.2503
 20
6.9248
 30
0.0000
  0
SEQEND
  8
0
  0
POLYLINE
  8
1
 66
1
 10
0.0000
 20
0.0000
 30
0.0000
 40
0.4064
 41
0.4064
 70
0
  0
VERTEX
  8
1
 10
8.2075
 20
6.9375
 30
0.0000
  0
VERTEX
  8
1
 10
13.4145
 20
6.9375
 30
0.0000
  0
SEQEND
  8
0
  0
POLYLINE
  8
1
 66
1
 10
0.0000
 20
0.0000
 30
0.0000
 40
0.2032
 41
0.2032
 70
0
  0
VERTEX
  8
1
 10
13.4145
 20
6.8359
 30
0.0000
 42
1.0000
  0
VERTEX
  8
1
 10
13.4145
 20
7.0391
 30
0.0000
  0
SEQEND
  8
0
  0
POLYLINE
  8
1
 66
1
 10
0.0000
 20
0.0000
 30
0.0000
 40
0.2032
 41
0.2032
 70
0
  0
VERTEX
  8
1
 10
8.2075
 20
7.0391
 30
0.0000
 42
1.0000
  0
VERTEX
  8
1
 10
8.2075
 20
6.8359
 30
0.0000
  0
SEQEND
  8
0
  0
POLYLINE
  8
1
 66
1
 10
0.0000
 20
0.0000
 30
0.0000
 40
0.4064
 41
0.4064
 70
0
  0
VERTEX
  8
1
 10
13.4145
 20
6.9375
 30
0.0000
  0
VERTEX
  8
1
 10
16.3830
 20
9.9060
 30
0.0000
  0
SEQEND
  8
0
  0
POLYLINE
  8
1
 66
1
 10
0.0000
 20
0.0000
 30
0.0000
 40
0.2032
 41
0.2032
 70
0
  0
VERTEX
  8
1
 10
16.4548
 20
9.8342
 30
0.0000
 42
1.0000
  0
VERTEX
  8
1
 10
16.3112
 20
9.9778
 30
0.0000
  0
SEQEND
  8
0
  0
POLYLINE
  8
1
 66
1
 10
0.0000
 20
0.0000
 30
0.0000
 40
0.2032
 41
0.2032
 70
0
  0
VERTEX
  8
1
 10
13.3427
 20
7.0093
 30
0.0000
 42
1.0000
  0
VERTEX
  8
1
 10
13.4863
 20
6.8657
 30
0.0000
  0
SEQEND
  8
0
  0
POLYLINE
  8
1
 66
1
 10
0.0000
 20
0.0000
 30
0.0000
 40
0.4064
 41
0.4064
 70
0
  0
VERTEX
  8
1
 10
16.3830
 20
9.9060
 30
0.0000
  0
VERTEX
  8
1
 10
18.2616
 20
9.9060
 30
0.0000
  0
SEQEND
  8
0
  0
POLYLINE
  8
1
 66
1
 10
0.0000
 20
0.0000
 30
0.0000
 40
0.2032
 41
0.2032
 70
0
  0
VERTEX
  8
1
 10
18.2616
 20
9.8044
 30
0.0000
 42
1.0000
  0
VERTEX
  8
1
 10
18.2616
 20
10.0076
 30
0.0000
  0
SEQEND
  8
0
  0
POLYLINE
  8
1
 66
1
 10
0.0000
 20
0.0000
 30
0.0000
 40
0.2032
 41
0.2032
 70
0
  0
VERTEX
  8
1
 10
16.3830
 20
10.0076
 30
0.0000
 42
1.0000
  0
VERTEX
  8
1
 10
16.3830
 20
9.8044
 30
0.0000
  0
SEQEND
  8
0
  0
POLYLINE
  8
1
 66
1
 10
0.0000
 20
0.0000
 30
0.0000
 40
0.4064
 41
0.4064
 70
0
  0
VERTEX
  8
1
 10
18.2616
 20
9.9060
 30
0.0000
  0
VERTEX
  8
1
 10
18.2626
 20
9.9050
 30
0.0000
  0
SEQEND
  8
0
  0
POLYLINE
  8
1
 66
1
 10
0.0000
 20
0.0000
 30
0.0000
 40
0.2032
 41
0.2032
 70
0
  0
VERTEX
  8
1
 10
18.1908
 20
9.8331
 30
0.0000
 42
1.0000
  0
VERTEX
  8
1
 10
18.3344
 20
9.9768
 30
0.0000
  0
SEQEND
  8
0
  0
POLYLINE
  8
1
 66
1
 10
0.0000
 20
0.0000
 30
0.0000
 40
0.2032
 41
0.2032
 70
0
  0
VERTEX
  8
1
 10
18.3334
 20
9.9778
 30
0.0000
 42
1.0000
  0
VERTEX
  8
1
 10
18.1897
 20
9.8342
 30
0.0000
  0
SEQEND
  8
0
  0
POLYLINE
  8
1
 66
1
 10
0.0000
 20
0.0000
 30
0.0000
 40
0.4064
 41
0.4064
 70
0
  0
VERTEX
  8
1
 10
4.7520
 20
11.5010
 30
0.0000
  0
VERTEX
  8
1
 10
18.5716
 20
11.5010
 30
0.0000
  0
SEQEND
  8
0
  0
POLYLINE
  8
1
 66
1
 10
0.0000
 20
0.0000
 30
0.0000
 40
0.2032
 41
0.2032
 70
0
  0
VERTEX
  8
1
 10
18.5716
 20
11.3994
 30
0.0000
 42
1.0000
  0
VERTEX
  8
1
 10
18.5716
 20
11.6026
 30
0.0000
  0
SEQEND
  8
0
  0
POLYLINE
  8
1
 66
1
 10
0.0000
 20
0.0000
 30
0.0000
 40
0.2032
 41
0.2032
 70
0
  0
VERTEX
  8
1
 10
4.7520
 20
11.6026
 30
0.0000
 42
1.0000
  0
VERTEX
  8
1
 10
4.7520
 20
11.3994
 30
0.0000
  0
SEQEND
  8
0
  0
POLYLINE
  8
1
 66
1
 10
0.0000
 20
0.0000
 30
0.0000
 40
0.4064
 41
0.4064
 70
0
  0
VERTEX
  8
1
 10
18.5716
 20
11.5010
 30
0.0000
  0
VERTEX
  8
1
 10
20.1676
 20
9.9050
 30
0.0000
  0
SEQEND
  8
0
  0
POLYLINE
  8
1
 66
1
 10
0.0000
 20
0.0000
 30
0.0000
 40
0.2032
 41
0.2032
 70
0
  0
VERTEX
  8
1
 10
20.0958
 20
9.8331
 30
0.0000
 42
1.0000
  0
VERTEX
  8
1
 10
20.2394
 20
9.9768
 30
0.0000
  0
SEQEND
  8
0
  0
POLYLINE
  8
1
 66
1
 10
0.0000
 20
0.0000
 30
0.0000
 40
0.2032
 41
0.2032
 70
0
  0
VERTEX
  8
1
 10
18.6434
 20
11.5728
 30
0.0000
 42
1.0000
  0
VERTEX
  8
1
 10
18.4997
 20
11.4292
 30
0.0000
  0
SEQEND
  8
0
  0
POLYLINE
  8
1
 66
1
 10
0.0000
 20
0.0000
 30
0.0000
 40
0.4064
 41
0.4064
 70
0
  0
VERTEX
  8
1
 10
4.7520
 20
4.5010
 30
0.0000
  0
VERTEX
  8
1
 10
16.6686
 20
4.5010
 30
0.0000
  0
SEQEND
  8
0
  0
POLYLINE
  8
1
 66
1
 10
0.0000
 20
0.0000
 30
0.0000
 40
0.2032
 41
0.2032
 70
0
  0
VERTEX
  8
1
 10
16.6686
 20
4.3994
 30
0.0000
 42
1.0000
  0
VERTEX
  8
1
 10
16.6686
 20
4.6026
 30
0.0000
  0
SEQEND
  8
0
  0
POLYLINE
  8
1
 66
1
 10
0.0000
 20
0.0000
 30
0.0000
 40
0.2032
 41
0.2032
 70
0
  0
VERTEX
  8
1
 10
4.7520
 20
4.6026
 30
0.0000
 42
1.0000
  0
VERTEX
  8
1
 10
4.7520
 20
4.3994
 30
0.0000
  0
SEQEND
  8
0
  0
POLYLINE
  8
1
 66
1
 10
0.0000
 20
0.0000
 30
0.0000
 40
0.4064
 41
0.4064
 70
0
  0
VERTEX
  8
1
 10
16.6686
 20
4.5010
 30
0.0000
  0
VERTEX
  8
1
 10
18.2626
 20
6.0950
 30
0.0000
  0
SEQEND
  8
0
  0
POLYLINE
  8
1
 66
1
 10
0.0000
 20
0.0000
 30
0.0000
 40
0.2032
 41
0.2032
 70
0
  0
VERTEX
  8
1
 10
18.3344
 20
6.0231
 30
0.0000
 42
1.0000
  0
VERTEX
  8
1
 10
18.1908
 20
6.1668
 30
0.0000
  0
SEQEND
  8
0
  0
POLYLINE
  8
1
 66
1
 10
0.0000
 20
0.0000
 30
0.0000
 40
0.2032
 41
0.2032
 70
0
  0
VERTEX
  8
1
 10
16.5968
 20
4.5728
 30
0.0000
 42
1.0000
  0
VERTEX
  8
1
 10
16.7405
 20
4.4292
 30
0.0000
  0
SEQEND
  8
0
  0
ENDSEC
  0
EOF
