G75*
%MOIN*%
%OFA0B0*%
%FSLAX24Y24*%
%IPPOS*%
%LPD*%
%AMOC8*
5,1,8,0,0,1.08239X$1,22.5*
%
%ADD10C,0.0000*%
%ADD11C,0.0030*%
%ADD12C,0.0010*%
%ADD13C,0.0120*%
%ADD14C,0.0050*%
D10*
X001635Y000777D02*
X001635Y008023D01*
X010855Y008023D01*
X010855Y000777D01*
X001635Y000777D01*
X002834Y002029D02*
X002836Y002054D01*
X002842Y002079D01*
X002851Y002103D01*
X002864Y002125D01*
X002881Y002145D01*
X002900Y002162D01*
X002921Y002176D01*
X002945Y002186D01*
X002969Y002193D01*
X002995Y002196D01*
X003020Y002195D01*
X003045Y002190D01*
X003069Y002181D01*
X003092Y002169D01*
X003112Y002154D01*
X003130Y002135D01*
X003145Y002114D01*
X003156Y002091D01*
X003164Y002067D01*
X003168Y002042D01*
X003168Y002016D01*
X003164Y001991D01*
X003156Y001967D01*
X003145Y001944D01*
X003130Y001923D01*
X003112Y001904D01*
X003092Y001889D01*
X003069Y001877D01*
X003045Y001868D01*
X003020Y001863D01*
X002995Y001862D01*
X002969Y001865D01*
X002945Y001872D01*
X002921Y001882D01*
X002900Y001896D01*
X002881Y001913D01*
X002864Y001933D01*
X002851Y001955D01*
X002842Y001979D01*
X002836Y002004D01*
X002834Y002029D01*
X002834Y003525D02*
X002836Y003550D01*
X002842Y003575D01*
X002851Y003599D01*
X002864Y003621D01*
X002881Y003641D01*
X002900Y003658D01*
X002921Y003672D01*
X002945Y003682D01*
X002969Y003689D01*
X002995Y003692D01*
X003020Y003691D01*
X003045Y003686D01*
X003069Y003677D01*
X003092Y003665D01*
X003112Y003650D01*
X003130Y003631D01*
X003145Y003610D01*
X003156Y003587D01*
X003164Y003563D01*
X003168Y003538D01*
X003168Y003512D01*
X003164Y003487D01*
X003156Y003463D01*
X003145Y003440D01*
X003130Y003419D01*
X003112Y003400D01*
X003092Y003385D01*
X003069Y003373D01*
X003045Y003364D01*
X003020Y003359D01*
X002995Y003358D01*
X002969Y003361D01*
X002945Y003368D01*
X002921Y003378D01*
X002900Y003392D01*
X002881Y003409D01*
X002864Y003429D01*
X002851Y003451D01*
X002842Y003475D01*
X002836Y003500D01*
X002834Y003525D01*
X002685Y006377D02*
X002687Y006427D01*
X002693Y006477D01*
X002703Y006527D01*
X002716Y006575D01*
X002733Y006623D01*
X002754Y006669D01*
X002778Y006713D01*
X002806Y006755D01*
X002837Y006795D01*
X002871Y006832D01*
X002908Y006867D01*
X002947Y006898D01*
X002988Y006927D01*
X003032Y006952D01*
X003078Y006974D01*
X003125Y006992D01*
X003173Y007006D01*
X003222Y007017D01*
X003272Y007024D01*
X003322Y007027D01*
X003373Y007026D01*
X003423Y007021D01*
X003473Y007012D01*
X003521Y007000D01*
X003569Y006983D01*
X003615Y006963D01*
X003660Y006940D01*
X003703Y006913D01*
X003743Y006883D01*
X003781Y006850D01*
X003816Y006814D01*
X003849Y006775D01*
X003878Y006734D01*
X003904Y006691D01*
X003927Y006646D01*
X003946Y006599D01*
X003961Y006551D01*
X003973Y006502D01*
X003981Y006452D01*
X003985Y006402D01*
X003985Y006352D01*
X003981Y006302D01*
X003973Y006252D01*
X003961Y006203D01*
X003946Y006155D01*
X003927Y006108D01*
X003904Y006063D01*
X003878Y006020D01*
X003849Y005979D01*
X003816Y005940D01*
X003781Y005904D01*
X003743Y005871D01*
X003703Y005841D01*
X003660Y005814D01*
X003615Y005791D01*
X003569Y005771D01*
X003521Y005754D01*
X003473Y005742D01*
X003423Y005733D01*
X003373Y005728D01*
X003322Y005727D01*
X003272Y005730D01*
X003222Y005737D01*
X003173Y005748D01*
X003125Y005762D01*
X003078Y005780D01*
X003032Y005802D01*
X002988Y005827D01*
X002947Y005856D01*
X002908Y005887D01*
X002871Y005922D01*
X002837Y005959D01*
X002806Y005999D01*
X002778Y006041D01*
X002754Y006085D01*
X002733Y006131D01*
X002716Y006179D01*
X002703Y006227D01*
X002693Y006277D01*
X002687Y006327D01*
X002685Y006377D01*
D11*
X005249Y005779D02*
X005620Y005779D01*
X005620Y005656D02*
X005620Y005903D01*
X005373Y005656D02*
X005249Y005779D01*
X005249Y005534D02*
X005620Y005534D01*
X005249Y005288D01*
X005620Y005288D01*
X005620Y005165D02*
X005620Y005042D01*
X005620Y005104D02*
X005249Y005104D01*
X005249Y005165D02*
X005249Y005042D01*
X005311Y003903D02*
X005558Y003656D01*
X005620Y003718D01*
X005620Y003841D01*
X005558Y003903D01*
X005311Y003903D01*
X005249Y003841D01*
X005249Y003718D01*
X005311Y003656D01*
X005558Y003656D01*
X005620Y003534D02*
X005249Y003534D01*
X005249Y003288D02*
X005620Y003534D01*
X005620Y003288D02*
X005249Y003288D01*
X005249Y003165D02*
X005249Y003042D01*
X005249Y003104D02*
X005620Y003104D01*
X005620Y003165D02*
X005620Y003042D01*
X005558Y002025D02*
X005311Y002025D01*
X005249Y001964D01*
X005249Y001779D01*
X005620Y001779D01*
X005620Y001964D01*
X005558Y002025D01*
X005620Y001657D02*
X005249Y001657D01*
X005249Y001410D02*
X005620Y001657D01*
X005620Y001410D02*
X005249Y001410D01*
X005311Y001289D02*
X005249Y001227D01*
X005249Y001104D01*
X005311Y001042D01*
X005558Y001042D01*
X005620Y001104D01*
X005620Y001227D01*
X005558Y001289D01*
X005434Y001289D01*
X005434Y001165D01*
X005311Y006942D02*
X005249Y007004D01*
X005249Y007127D01*
X005311Y007189D01*
X005373Y007189D01*
X005434Y007127D01*
X005496Y007189D01*
X005558Y007189D01*
X005620Y007127D01*
X005620Y007004D01*
X005558Y006942D01*
X005434Y007065D02*
X005434Y007127D01*
X005496Y007310D02*
X005249Y007310D01*
X005249Y007557D02*
X005496Y007557D01*
X005620Y007434D01*
X005496Y007310D01*
X005558Y007679D02*
X005620Y007740D01*
X005620Y007864D01*
X005558Y007925D01*
X005496Y007925D01*
X005434Y007864D01*
X005434Y007802D01*
X005434Y007864D02*
X005373Y007925D01*
X005311Y007925D01*
X005249Y007864D01*
X005249Y007740D01*
X005311Y007679D01*
D12*
X001984Y005282D02*
X001984Y005132D01*
X001934Y005132D02*
X002034Y005132D01*
X001934Y005232D02*
X001984Y005282D01*
X001887Y005257D02*
X001887Y005207D01*
X001862Y005182D01*
X001787Y005182D01*
X001787Y005132D02*
X001787Y005282D01*
X001862Y005282D01*
X001887Y005257D01*
X001740Y005282D02*
X001690Y005282D01*
X001715Y005282D02*
X001715Y005157D01*
X001690Y005132D01*
X001665Y005132D01*
X001640Y005157D01*
D13*
X002922Y004352D02*
X002922Y004349D01*
X003309Y004349D01*
X003316Y004352D02*
X003316Y003958D01*
X003316Y001596D02*
X003316Y001202D01*
X002922Y001202D01*
D14*
X005924Y000125D02*
X010845Y000125D01*
X010845Y008629D01*
X005924Y008629D01*
X005924Y000125D01*
M02*
