G75*
%MOIN*%
%OFA0B0*%
%FSLAX24Y24*%
%IPPOS*%
%LPD*%
%AMOC8*
5,1,8,0,0,1.08239X$1,22.5*
%
%ADD10C,0.0000*%
%ADD11C,0.0020*%
D10*
X018566Y002833D02*
X018566Y011183D01*
X020566Y013183D02*
X020653Y013181D01*
X020740Y013175D01*
X020827Y013166D01*
X020913Y013153D01*
X020999Y013136D01*
X021084Y013115D01*
X021167Y013090D01*
X021250Y013062D01*
X021331Y013031D01*
X021411Y012996D01*
X021489Y012957D01*
X021566Y012915D01*
X021641Y012870D01*
X021713Y012821D01*
X021784Y012770D01*
X021852Y012715D01*
X021917Y012658D01*
X021980Y012597D01*
X022041Y012534D01*
X022098Y012469D01*
X022153Y012401D01*
X022204Y012330D01*
X022253Y012258D01*
X022298Y012183D01*
X022340Y012106D01*
X022379Y012028D01*
X022414Y011948D01*
X022445Y011867D01*
X022473Y011784D01*
X022498Y011701D01*
X022519Y011616D01*
X022536Y011530D01*
X022549Y011444D01*
X022558Y011357D01*
X022564Y011270D01*
X022566Y011183D01*
X022566Y002833D01*
X018566Y002833D01*
X018566Y011183D02*
X018568Y011270D01*
X018574Y011357D01*
X018583Y011444D01*
X018596Y011530D01*
X018613Y011616D01*
X018634Y011701D01*
X018659Y011784D01*
X018687Y011867D01*
X018718Y011948D01*
X018753Y012028D01*
X018792Y012106D01*
X018834Y012183D01*
X018879Y012258D01*
X018928Y012330D01*
X018979Y012401D01*
X019034Y012469D01*
X019091Y012534D01*
X019152Y012597D01*
X019215Y012658D01*
X019280Y012715D01*
X019348Y012770D01*
X019419Y012821D01*
X019491Y012870D01*
X019566Y012915D01*
X019643Y012957D01*
X019721Y012996D01*
X019801Y013031D01*
X019882Y013062D01*
X019965Y013090D01*
X020048Y013115D01*
X020133Y013136D01*
X020219Y013153D01*
X020305Y013166D01*
X020392Y013175D01*
X020479Y013181D01*
X020566Y013183D01*
X019916Y012033D02*
X019918Y012083D01*
X019924Y012133D01*
X019934Y012183D01*
X019947Y012231D01*
X019964Y012279D01*
X019985Y012325D01*
X020009Y012369D01*
X020037Y012411D01*
X020068Y012451D01*
X020102Y012488D01*
X020139Y012523D01*
X020178Y012554D01*
X020219Y012583D01*
X020263Y012608D01*
X020309Y012630D01*
X020356Y012648D01*
X020404Y012662D01*
X020453Y012673D01*
X020503Y012680D01*
X020553Y012683D01*
X020604Y012682D01*
X020654Y012677D01*
X020704Y012668D01*
X020752Y012656D01*
X020800Y012639D01*
X020846Y012619D01*
X020891Y012596D01*
X020934Y012569D01*
X020974Y012539D01*
X021012Y012506D01*
X021047Y012470D01*
X021080Y012431D01*
X021109Y012390D01*
X021135Y012347D01*
X021158Y012302D01*
X021177Y012255D01*
X021192Y012207D01*
X021204Y012158D01*
X021212Y012108D01*
X021216Y012058D01*
X021216Y012008D01*
X021212Y011958D01*
X021204Y011908D01*
X021192Y011859D01*
X021177Y011811D01*
X021158Y011764D01*
X021135Y011719D01*
X021109Y011676D01*
X021080Y011635D01*
X021047Y011596D01*
X021012Y011560D01*
X020974Y011527D01*
X020934Y011497D01*
X020891Y011470D01*
X020846Y011447D01*
X020800Y011427D01*
X020752Y011410D01*
X020704Y011398D01*
X020654Y011389D01*
X020604Y011384D01*
X020553Y011383D01*
X020503Y011386D01*
X020453Y011393D01*
X020404Y011404D01*
X020356Y011418D01*
X020309Y011436D01*
X020263Y011458D01*
X020219Y011483D01*
X020178Y011512D01*
X020139Y011543D01*
X020102Y011578D01*
X020068Y011615D01*
X020037Y011655D01*
X020009Y011697D01*
X019985Y011741D01*
X019964Y011787D01*
X019947Y011835D01*
X019934Y011883D01*
X019924Y011933D01*
X019918Y011983D01*
X019916Y012033D01*
D11*
X019907Y007174D02*
X019953Y007127D01*
X019907Y007174D02*
X019813Y007174D01*
X019766Y007127D01*
X019766Y007080D01*
X019953Y006893D01*
X019766Y006893D01*
X019863Y006824D02*
X020003Y006824D01*
X020003Y006543D01*
X019863Y006543D01*
X019816Y006590D01*
X019816Y006777D01*
X019863Y006824D01*
X020043Y006893D02*
X020043Y007174D01*
X020230Y007174D02*
X020230Y006893D01*
X020136Y006987D01*
X020043Y006893D01*
X020093Y006824D02*
X020093Y006543D01*
X020280Y006824D01*
X020280Y006543D01*
X020369Y006590D02*
X020369Y006683D01*
X020462Y006683D01*
X020369Y006590D02*
X020416Y006543D01*
X020509Y006543D01*
X020556Y006590D01*
X020556Y006777D01*
X020509Y006824D01*
X020416Y006824D01*
X020369Y006777D01*
X020366Y006893D02*
X020459Y006893D01*
X020506Y006940D01*
X020459Y007033D02*
X020366Y007033D01*
X020319Y006987D01*
X020319Y006940D01*
X020366Y006893D01*
X020459Y007033D02*
X020506Y007080D01*
X020506Y007127D01*
X020459Y007174D01*
X020366Y007174D01*
X020319Y007127D01*
X020910Y007174D02*
X020910Y006893D01*
X020910Y006824D02*
X020910Y006543D01*
X021093Y006590D02*
X021139Y006543D01*
X021233Y006543D01*
X021280Y006590D01*
X021369Y006543D02*
X021462Y006637D01*
X021416Y006637D02*
X021556Y006637D01*
X021556Y006543D02*
X021556Y006824D01*
X021416Y006824D01*
X021369Y006777D01*
X021369Y006683D01*
X021416Y006637D01*
X021280Y006730D02*
X021233Y006683D01*
X021139Y006683D01*
X021093Y006637D01*
X021093Y006590D01*
X021280Y006730D02*
X021280Y006777D01*
X021233Y006824D01*
X021139Y006824D01*
X021093Y006777D01*
X021003Y006824D02*
X020816Y006824D01*
X020816Y006893D02*
X021003Y006893D01*
X021093Y006893D02*
X021093Y007174D01*
X021003Y007080D02*
X020910Y007174D01*
X021280Y007174D02*
X021280Y006893D01*
X021186Y006987D01*
X021093Y006893D01*
X021369Y006940D02*
X021416Y006893D01*
X021509Y006893D01*
X021556Y006940D01*
X021509Y007033D02*
X021416Y007033D01*
X021369Y006987D01*
X021369Y006940D01*
X021509Y007033D02*
X021556Y007080D01*
X021556Y007127D01*
X021509Y007174D01*
X021416Y007174D01*
X021369Y007127D01*
M02*
