G75*
%MOIN*%
%OFA0B0*%
%FSLAX24Y24*%
%IPPOS*%
%LPD*%
%AMOC8*
5,1,8,0,0,1.08239X$1,22.5*
%
%ADD10C,0.0000*%
%ADD11C,0.0080*%
D10*
X005930Y000100D02*
X005930Y006399D01*
X013804Y006399D01*
X013804Y000100D01*
X005930Y000100D01*
X006609Y000887D02*
X006611Y000912D01*
X006617Y000936D01*
X006626Y000958D01*
X006639Y000979D01*
X006655Y000998D01*
X006674Y001014D01*
X006695Y001027D01*
X006717Y001036D01*
X006741Y001042D01*
X006766Y001044D01*
X006791Y001042D01*
X006815Y001036D01*
X006837Y001027D01*
X006858Y001014D01*
X006877Y000998D01*
X006893Y000979D01*
X006906Y000958D01*
X006915Y000936D01*
X006921Y000912D01*
X006923Y000887D01*
X006921Y000862D01*
X006915Y000838D01*
X006906Y000816D01*
X006893Y000795D01*
X006877Y000776D01*
X006858Y000760D01*
X006837Y000747D01*
X006815Y000738D01*
X006791Y000732D01*
X006766Y000730D01*
X006741Y000732D01*
X006717Y000738D01*
X006695Y000747D01*
X006674Y000760D01*
X006655Y000776D01*
X006639Y000795D01*
X006626Y000816D01*
X006617Y000838D01*
X006611Y000862D01*
X006609Y000887D01*
X006766Y000887D02*
X006768Y000912D01*
X006774Y000936D01*
X006783Y000958D01*
X006796Y000979D01*
X006812Y000998D01*
X006831Y001014D01*
X006852Y001027D01*
X006874Y001036D01*
X006898Y001042D01*
X006923Y001044D01*
X006948Y001042D01*
X006972Y001036D01*
X006994Y001027D01*
X007015Y001014D01*
X007034Y000998D01*
X007050Y000979D01*
X007063Y000958D01*
X007072Y000936D01*
X007078Y000912D01*
X007080Y000887D01*
X007078Y000862D01*
X007072Y000838D01*
X007063Y000816D01*
X007050Y000795D01*
X007034Y000776D01*
X007015Y000760D01*
X006994Y000747D01*
X006972Y000738D01*
X006948Y000732D01*
X006923Y000730D01*
X006898Y000732D01*
X006874Y000738D01*
X006852Y000747D01*
X006831Y000760D01*
X006812Y000776D01*
X006796Y000795D01*
X006783Y000816D01*
X006774Y000838D01*
X006768Y000862D01*
X006766Y000887D01*
X007081Y000887D02*
X007083Y000912D01*
X007089Y000936D01*
X007098Y000958D01*
X007111Y000979D01*
X007127Y000998D01*
X007146Y001014D01*
X007167Y001027D01*
X007189Y001036D01*
X007213Y001042D01*
X007238Y001044D01*
X007263Y001042D01*
X007287Y001036D01*
X007309Y001027D01*
X007330Y001014D01*
X007349Y000998D01*
X007365Y000979D01*
X007378Y000958D01*
X007387Y000936D01*
X007393Y000912D01*
X007395Y000887D01*
X007393Y000862D01*
X007387Y000838D01*
X007378Y000816D01*
X007365Y000795D01*
X007349Y000776D01*
X007330Y000760D01*
X007309Y000747D01*
X007287Y000738D01*
X007263Y000732D01*
X007238Y000730D01*
X007213Y000732D01*
X007189Y000738D01*
X007167Y000747D01*
X007146Y000760D01*
X007127Y000776D01*
X007111Y000795D01*
X007098Y000816D01*
X007089Y000838D01*
X007083Y000862D01*
X007081Y000887D01*
X007239Y000887D02*
X007241Y000912D01*
X007247Y000936D01*
X007256Y000958D01*
X007269Y000979D01*
X007285Y000998D01*
X007304Y001014D01*
X007325Y001027D01*
X007347Y001036D01*
X007371Y001042D01*
X007396Y001044D01*
X007421Y001042D01*
X007445Y001036D01*
X007467Y001027D01*
X007488Y001014D01*
X007507Y000998D01*
X007523Y000979D01*
X007536Y000958D01*
X007545Y000936D01*
X007551Y000912D01*
X007553Y000887D01*
X007551Y000862D01*
X007545Y000838D01*
X007536Y000816D01*
X007523Y000795D01*
X007507Y000776D01*
X007488Y000760D01*
X007467Y000747D01*
X007445Y000738D01*
X007421Y000732D01*
X007396Y000730D01*
X007371Y000732D01*
X007347Y000738D01*
X007325Y000747D01*
X007304Y000760D01*
X007285Y000776D01*
X007269Y000795D01*
X007256Y000816D01*
X007247Y000838D01*
X007241Y000862D01*
X007239Y000887D01*
X010128Y000700D02*
X010130Y000725D01*
X010136Y000749D01*
X010145Y000771D01*
X010158Y000792D01*
X010174Y000811D01*
X010193Y000827D01*
X010214Y000840D01*
X010236Y000849D01*
X010260Y000855D01*
X010285Y000857D01*
X010310Y000855D01*
X010334Y000849D01*
X010356Y000840D01*
X010377Y000827D01*
X010396Y000811D01*
X010412Y000792D01*
X010425Y000771D01*
X010434Y000749D01*
X010440Y000725D01*
X010442Y000700D01*
X010440Y000675D01*
X010434Y000651D01*
X010425Y000629D01*
X010412Y000608D01*
X010396Y000589D01*
X010377Y000573D01*
X010356Y000560D01*
X010334Y000551D01*
X010310Y000545D01*
X010285Y000543D01*
X010260Y000545D01*
X010236Y000551D01*
X010214Y000560D01*
X010193Y000573D01*
X010174Y000589D01*
X010158Y000608D01*
X010145Y000629D01*
X010136Y000651D01*
X010130Y000675D01*
X010128Y000700D01*
X010286Y000700D02*
X010288Y000725D01*
X010294Y000749D01*
X010303Y000771D01*
X010316Y000792D01*
X010332Y000811D01*
X010351Y000827D01*
X010372Y000840D01*
X010394Y000849D01*
X010418Y000855D01*
X010443Y000857D01*
X010468Y000855D01*
X010492Y000849D01*
X010514Y000840D01*
X010535Y000827D01*
X010554Y000811D01*
X010570Y000792D01*
X010583Y000771D01*
X010592Y000749D01*
X010598Y000725D01*
X010600Y000700D01*
X010598Y000675D01*
X010592Y000651D01*
X010583Y000629D01*
X010570Y000608D01*
X010554Y000589D01*
X010535Y000573D01*
X010514Y000560D01*
X010492Y000551D01*
X010468Y000545D01*
X010443Y000543D01*
X010418Y000545D01*
X010394Y000551D01*
X010372Y000560D01*
X010351Y000573D01*
X010332Y000589D01*
X010316Y000608D01*
X010303Y000629D01*
X010294Y000651D01*
X010288Y000675D01*
X010286Y000700D01*
X010601Y000700D02*
X010603Y000725D01*
X010609Y000749D01*
X010618Y000771D01*
X010631Y000792D01*
X010647Y000811D01*
X010666Y000827D01*
X010687Y000840D01*
X010709Y000849D01*
X010733Y000855D01*
X010758Y000857D01*
X010783Y000855D01*
X010807Y000849D01*
X010829Y000840D01*
X010850Y000827D01*
X010869Y000811D01*
X010885Y000792D01*
X010898Y000771D01*
X010907Y000749D01*
X010913Y000725D01*
X010915Y000700D01*
X010913Y000675D01*
X010907Y000651D01*
X010898Y000629D01*
X010885Y000608D01*
X010869Y000589D01*
X010850Y000573D01*
X010829Y000560D01*
X010807Y000551D01*
X010783Y000545D01*
X010758Y000543D01*
X010733Y000545D01*
X010709Y000551D01*
X010687Y000560D01*
X010666Y000573D01*
X010647Y000589D01*
X010631Y000608D01*
X010618Y000629D01*
X010609Y000651D01*
X010603Y000675D01*
X010601Y000700D01*
X010758Y000700D02*
X010760Y000725D01*
X010766Y000749D01*
X010775Y000771D01*
X010788Y000792D01*
X010804Y000811D01*
X010823Y000827D01*
X010844Y000840D01*
X010866Y000849D01*
X010890Y000855D01*
X010915Y000857D01*
X010940Y000855D01*
X010964Y000849D01*
X010986Y000840D01*
X011007Y000827D01*
X011026Y000811D01*
X011042Y000792D01*
X011055Y000771D01*
X011064Y000749D01*
X011070Y000725D01*
X011072Y000700D01*
X011070Y000675D01*
X011064Y000651D01*
X011055Y000629D01*
X011042Y000608D01*
X011026Y000589D01*
X011007Y000573D01*
X010986Y000560D01*
X010964Y000551D01*
X010940Y000545D01*
X010915Y000543D01*
X010890Y000545D01*
X010866Y000551D01*
X010844Y000560D01*
X010823Y000573D01*
X010804Y000589D01*
X010788Y000608D01*
X010775Y000629D01*
X010766Y000651D01*
X010760Y000675D01*
X010758Y000700D01*
X012208Y000700D02*
X012210Y000725D01*
X012216Y000749D01*
X012225Y000771D01*
X012238Y000792D01*
X012254Y000811D01*
X012273Y000827D01*
X012294Y000840D01*
X012316Y000849D01*
X012340Y000855D01*
X012365Y000857D01*
X012390Y000855D01*
X012414Y000849D01*
X012436Y000840D01*
X012457Y000827D01*
X012476Y000811D01*
X012492Y000792D01*
X012505Y000771D01*
X012514Y000749D01*
X012520Y000725D01*
X012522Y000700D01*
X012520Y000675D01*
X012514Y000651D01*
X012505Y000629D01*
X012492Y000608D01*
X012476Y000589D01*
X012457Y000573D01*
X012436Y000560D01*
X012414Y000551D01*
X012390Y000545D01*
X012365Y000543D01*
X012340Y000545D01*
X012316Y000551D01*
X012294Y000560D01*
X012273Y000573D01*
X012254Y000589D01*
X012238Y000608D01*
X012225Y000629D01*
X012216Y000651D01*
X012210Y000675D01*
X012208Y000700D01*
X012366Y000700D02*
X012368Y000725D01*
X012374Y000749D01*
X012383Y000771D01*
X012396Y000792D01*
X012412Y000811D01*
X012431Y000827D01*
X012452Y000840D01*
X012474Y000849D01*
X012498Y000855D01*
X012523Y000857D01*
X012548Y000855D01*
X012572Y000849D01*
X012594Y000840D01*
X012615Y000827D01*
X012634Y000811D01*
X012650Y000792D01*
X012663Y000771D01*
X012672Y000749D01*
X012678Y000725D01*
X012680Y000700D01*
X012678Y000675D01*
X012672Y000651D01*
X012663Y000629D01*
X012650Y000608D01*
X012634Y000589D01*
X012615Y000573D01*
X012594Y000560D01*
X012572Y000551D01*
X012548Y000545D01*
X012523Y000543D01*
X012498Y000545D01*
X012474Y000551D01*
X012452Y000560D01*
X012431Y000573D01*
X012412Y000589D01*
X012396Y000608D01*
X012383Y000629D01*
X012374Y000651D01*
X012368Y000675D01*
X012366Y000700D01*
X012681Y000700D02*
X012683Y000725D01*
X012689Y000749D01*
X012698Y000771D01*
X012711Y000792D01*
X012727Y000811D01*
X012746Y000827D01*
X012767Y000840D01*
X012789Y000849D01*
X012813Y000855D01*
X012838Y000857D01*
X012863Y000855D01*
X012887Y000849D01*
X012909Y000840D01*
X012930Y000827D01*
X012949Y000811D01*
X012965Y000792D01*
X012978Y000771D01*
X012987Y000749D01*
X012993Y000725D01*
X012995Y000700D01*
X012993Y000675D01*
X012987Y000651D01*
X012978Y000629D01*
X012965Y000608D01*
X012949Y000589D01*
X012930Y000573D01*
X012909Y000560D01*
X012887Y000551D01*
X012863Y000545D01*
X012838Y000543D01*
X012813Y000545D01*
X012789Y000551D01*
X012767Y000560D01*
X012746Y000573D01*
X012727Y000589D01*
X012711Y000608D01*
X012698Y000629D01*
X012689Y000651D01*
X012683Y000675D01*
X012681Y000700D01*
X012838Y000700D02*
X012840Y000725D01*
X012846Y000749D01*
X012855Y000771D01*
X012868Y000792D01*
X012884Y000811D01*
X012903Y000827D01*
X012924Y000840D01*
X012946Y000849D01*
X012970Y000855D01*
X012995Y000857D01*
X013020Y000855D01*
X013044Y000849D01*
X013066Y000840D01*
X013087Y000827D01*
X013106Y000811D01*
X013122Y000792D01*
X013135Y000771D01*
X013144Y000749D01*
X013150Y000725D01*
X013152Y000700D01*
X013150Y000675D01*
X013144Y000651D01*
X013135Y000629D01*
X013122Y000608D01*
X013106Y000589D01*
X013087Y000573D01*
X013066Y000560D01*
X013044Y000551D01*
X013020Y000545D01*
X012995Y000543D01*
X012970Y000545D01*
X012946Y000551D01*
X012924Y000560D01*
X012903Y000573D01*
X012884Y000589D01*
X012868Y000608D01*
X012855Y000629D01*
X012846Y000651D01*
X012840Y000675D01*
X012838Y000700D01*
X006853Y002344D02*
X006855Y002375D01*
X006861Y002406D01*
X006870Y002436D01*
X006883Y002465D01*
X006900Y002492D01*
X006920Y002516D01*
X006942Y002538D01*
X006968Y002557D01*
X006995Y002573D01*
X007024Y002585D01*
X007054Y002594D01*
X007085Y002599D01*
X007117Y002600D01*
X007148Y002597D01*
X007179Y002590D01*
X007209Y002580D01*
X007237Y002566D01*
X007263Y002548D01*
X007287Y002528D01*
X007308Y002504D01*
X007327Y002479D01*
X007342Y002451D01*
X007353Y002422D01*
X007361Y002391D01*
X007365Y002360D01*
X007365Y002328D01*
X007361Y002297D01*
X007353Y002266D01*
X007342Y002237D01*
X007327Y002209D01*
X007308Y002184D01*
X007287Y002160D01*
X007263Y002140D01*
X007237Y002122D01*
X007209Y002108D01*
X007179Y002098D01*
X007148Y002091D01*
X007117Y002088D01*
X007085Y002089D01*
X007054Y002094D01*
X007024Y002103D01*
X006995Y002115D01*
X006968Y002131D01*
X006942Y002150D01*
X006920Y002172D01*
X006900Y002196D01*
X006883Y002223D01*
X006870Y002252D01*
X006861Y002282D01*
X006855Y002313D01*
X006853Y002344D01*
X006853Y004155D02*
X006855Y004186D01*
X006861Y004217D01*
X006870Y004247D01*
X006883Y004276D01*
X006900Y004303D01*
X006920Y004327D01*
X006942Y004349D01*
X006968Y004368D01*
X006995Y004384D01*
X007024Y004396D01*
X007054Y004405D01*
X007085Y004410D01*
X007117Y004411D01*
X007148Y004408D01*
X007179Y004401D01*
X007209Y004391D01*
X007237Y004377D01*
X007263Y004359D01*
X007287Y004339D01*
X007308Y004315D01*
X007327Y004290D01*
X007342Y004262D01*
X007353Y004233D01*
X007361Y004202D01*
X007365Y004171D01*
X007365Y004139D01*
X007361Y004108D01*
X007353Y004077D01*
X007342Y004048D01*
X007327Y004020D01*
X007308Y003995D01*
X007287Y003971D01*
X007263Y003951D01*
X007237Y003933D01*
X007209Y003919D01*
X007179Y003909D01*
X007148Y003902D01*
X007117Y003899D01*
X007085Y003900D01*
X007054Y003905D01*
X007024Y003914D01*
X006995Y003926D01*
X006968Y003942D01*
X006942Y003961D01*
X006920Y003983D01*
X006900Y004007D01*
X006883Y004034D01*
X006870Y004063D01*
X006861Y004093D01*
X006855Y004124D01*
X006853Y004155D01*
X006766Y005612D02*
X006768Y005637D01*
X006774Y005661D01*
X006783Y005683D01*
X006796Y005704D01*
X006812Y005723D01*
X006831Y005739D01*
X006852Y005752D01*
X006874Y005761D01*
X006898Y005767D01*
X006923Y005769D01*
X006948Y005767D01*
X006972Y005761D01*
X006994Y005752D01*
X007015Y005739D01*
X007034Y005723D01*
X007050Y005704D01*
X007063Y005683D01*
X007072Y005661D01*
X007078Y005637D01*
X007080Y005612D01*
X007078Y005587D01*
X007072Y005563D01*
X007063Y005541D01*
X007050Y005520D01*
X007034Y005501D01*
X007015Y005485D01*
X006994Y005472D01*
X006972Y005463D01*
X006948Y005457D01*
X006923Y005455D01*
X006898Y005457D01*
X006874Y005463D01*
X006852Y005472D01*
X006831Y005485D01*
X006812Y005501D01*
X006796Y005520D01*
X006783Y005541D01*
X006774Y005563D01*
X006768Y005587D01*
X006766Y005612D01*
X006609Y005612D02*
X006611Y005637D01*
X006617Y005661D01*
X006626Y005683D01*
X006639Y005704D01*
X006655Y005723D01*
X006674Y005739D01*
X006695Y005752D01*
X006717Y005761D01*
X006741Y005767D01*
X006766Y005769D01*
X006791Y005767D01*
X006815Y005761D01*
X006837Y005752D01*
X006858Y005739D01*
X006877Y005723D01*
X006893Y005704D01*
X006906Y005683D01*
X006915Y005661D01*
X006921Y005637D01*
X006923Y005612D01*
X006921Y005587D01*
X006915Y005563D01*
X006906Y005541D01*
X006893Y005520D01*
X006877Y005501D01*
X006858Y005485D01*
X006837Y005472D01*
X006815Y005463D01*
X006791Y005457D01*
X006766Y005455D01*
X006741Y005457D01*
X006717Y005463D01*
X006695Y005472D01*
X006674Y005485D01*
X006655Y005501D01*
X006639Y005520D01*
X006626Y005541D01*
X006617Y005563D01*
X006611Y005587D01*
X006609Y005612D01*
X007081Y005612D02*
X007083Y005637D01*
X007089Y005661D01*
X007098Y005683D01*
X007111Y005704D01*
X007127Y005723D01*
X007146Y005739D01*
X007167Y005752D01*
X007189Y005761D01*
X007213Y005767D01*
X007238Y005769D01*
X007263Y005767D01*
X007287Y005761D01*
X007309Y005752D01*
X007330Y005739D01*
X007349Y005723D01*
X007365Y005704D01*
X007378Y005683D01*
X007387Y005661D01*
X007393Y005637D01*
X007395Y005612D01*
X007393Y005587D01*
X007387Y005563D01*
X007378Y005541D01*
X007365Y005520D01*
X007349Y005501D01*
X007330Y005485D01*
X007309Y005472D01*
X007287Y005463D01*
X007263Y005457D01*
X007238Y005455D01*
X007213Y005457D01*
X007189Y005463D01*
X007167Y005472D01*
X007146Y005485D01*
X007127Y005501D01*
X007111Y005520D01*
X007098Y005541D01*
X007089Y005563D01*
X007083Y005587D01*
X007081Y005612D01*
X007239Y005612D02*
X007241Y005637D01*
X007247Y005661D01*
X007256Y005683D01*
X007269Y005704D01*
X007285Y005723D01*
X007304Y005739D01*
X007325Y005752D01*
X007347Y005761D01*
X007371Y005767D01*
X007396Y005769D01*
X007421Y005767D01*
X007445Y005761D01*
X007467Y005752D01*
X007488Y005739D01*
X007507Y005723D01*
X007523Y005704D01*
X007536Y005683D01*
X007545Y005661D01*
X007551Y005637D01*
X007553Y005612D01*
X007551Y005587D01*
X007545Y005563D01*
X007536Y005541D01*
X007523Y005520D01*
X007507Y005501D01*
X007488Y005485D01*
X007467Y005472D01*
X007445Y005463D01*
X007421Y005457D01*
X007396Y005455D01*
X007371Y005457D01*
X007347Y005463D01*
X007325Y005472D01*
X007304Y005485D01*
X007285Y005501D01*
X007269Y005520D01*
X007256Y005541D01*
X007247Y005563D01*
X007241Y005587D01*
X007239Y005612D01*
X010128Y005800D02*
X010130Y005825D01*
X010136Y005849D01*
X010145Y005871D01*
X010158Y005892D01*
X010174Y005911D01*
X010193Y005927D01*
X010214Y005940D01*
X010236Y005949D01*
X010260Y005955D01*
X010285Y005957D01*
X010310Y005955D01*
X010334Y005949D01*
X010356Y005940D01*
X010377Y005927D01*
X010396Y005911D01*
X010412Y005892D01*
X010425Y005871D01*
X010434Y005849D01*
X010440Y005825D01*
X010442Y005800D01*
X010440Y005775D01*
X010434Y005751D01*
X010425Y005729D01*
X010412Y005708D01*
X010396Y005689D01*
X010377Y005673D01*
X010356Y005660D01*
X010334Y005651D01*
X010310Y005645D01*
X010285Y005643D01*
X010260Y005645D01*
X010236Y005651D01*
X010214Y005660D01*
X010193Y005673D01*
X010174Y005689D01*
X010158Y005708D01*
X010145Y005729D01*
X010136Y005751D01*
X010130Y005775D01*
X010128Y005800D01*
X010286Y005800D02*
X010288Y005825D01*
X010294Y005849D01*
X010303Y005871D01*
X010316Y005892D01*
X010332Y005911D01*
X010351Y005927D01*
X010372Y005940D01*
X010394Y005949D01*
X010418Y005955D01*
X010443Y005957D01*
X010468Y005955D01*
X010492Y005949D01*
X010514Y005940D01*
X010535Y005927D01*
X010554Y005911D01*
X010570Y005892D01*
X010583Y005871D01*
X010592Y005849D01*
X010598Y005825D01*
X010600Y005800D01*
X010598Y005775D01*
X010592Y005751D01*
X010583Y005729D01*
X010570Y005708D01*
X010554Y005689D01*
X010535Y005673D01*
X010514Y005660D01*
X010492Y005651D01*
X010468Y005645D01*
X010443Y005643D01*
X010418Y005645D01*
X010394Y005651D01*
X010372Y005660D01*
X010351Y005673D01*
X010332Y005689D01*
X010316Y005708D01*
X010303Y005729D01*
X010294Y005751D01*
X010288Y005775D01*
X010286Y005800D01*
X010601Y005800D02*
X010603Y005825D01*
X010609Y005849D01*
X010618Y005871D01*
X010631Y005892D01*
X010647Y005911D01*
X010666Y005927D01*
X010687Y005940D01*
X010709Y005949D01*
X010733Y005955D01*
X010758Y005957D01*
X010783Y005955D01*
X010807Y005949D01*
X010829Y005940D01*
X010850Y005927D01*
X010869Y005911D01*
X010885Y005892D01*
X010898Y005871D01*
X010907Y005849D01*
X010913Y005825D01*
X010915Y005800D01*
X010913Y005775D01*
X010907Y005751D01*
X010898Y005729D01*
X010885Y005708D01*
X010869Y005689D01*
X010850Y005673D01*
X010829Y005660D01*
X010807Y005651D01*
X010783Y005645D01*
X010758Y005643D01*
X010733Y005645D01*
X010709Y005651D01*
X010687Y005660D01*
X010666Y005673D01*
X010647Y005689D01*
X010631Y005708D01*
X010618Y005729D01*
X010609Y005751D01*
X010603Y005775D01*
X010601Y005800D01*
X010758Y005800D02*
X010760Y005825D01*
X010766Y005849D01*
X010775Y005871D01*
X010788Y005892D01*
X010804Y005911D01*
X010823Y005927D01*
X010844Y005940D01*
X010866Y005949D01*
X010890Y005955D01*
X010915Y005957D01*
X010940Y005955D01*
X010964Y005949D01*
X010986Y005940D01*
X011007Y005927D01*
X011026Y005911D01*
X011042Y005892D01*
X011055Y005871D01*
X011064Y005849D01*
X011070Y005825D01*
X011072Y005800D01*
X011070Y005775D01*
X011064Y005751D01*
X011055Y005729D01*
X011042Y005708D01*
X011026Y005689D01*
X011007Y005673D01*
X010986Y005660D01*
X010964Y005651D01*
X010940Y005645D01*
X010915Y005643D01*
X010890Y005645D01*
X010866Y005651D01*
X010844Y005660D01*
X010823Y005673D01*
X010804Y005689D01*
X010788Y005708D01*
X010775Y005729D01*
X010766Y005751D01*
X010760Y005775D01*
X010758Y005800D01*
X012208Y005800D02*
X012210Y005825D01*
X012216Y005849D01*
X012225Y005871D01*
X012238Y005892D01*
X012254Y005911D01*
X012273Y005927D01*
X012294Y005940D01*
X012316Y005949D01*
X012340Y005955D01*
X012365Y005957D01*
X012390Y005955D01*
X012414Y005949D01*
X012436Y005940D01*
X012457Y005927D01*
X012476Y005911D01*
X012492Y005892D01*
X012505Y005871D01*
X012514Y005849D01*
X012520Y005825D01*
X012522Y005800D01*
X012520Y005775D01*
X012514Y005751D01*
X012505Y005729D01*
X012492Y005708D01*
X012476Y005689D01*
X012457Y005673D01*
X012436Y005660D01*
X012414Y005651D01*
X012390Y005645D01*
X012365Y005643D01*
X012340Y005645D01*
X012316Y005651D01*
X012294Y005660D01*
X012273Y005673D01*
X012254Y005689D01*
X012238Y005708D01*
X012225Y005729D01*
X012216Y005751D01*
X012210Y005775D01*
X012208Y005800D01*
X012366Y005800D02*
X012368Y005825D01*
X012374Y005849D01*
X012383Y005871D01*
X012396Y005892D01*
X012412Y005911D01*
X012431Y005927D01*
X012452Y005940D01*
X012474Y005949D01*
X012498Y005955D01*
X012523Y005957D01*
X012548Y005955D01*
X012572Y005949D01*
X012594Y005940D01*
X012615Y005927D01*
X012634Y005911D01*
X012650Y005892D01*
X012663Y005871D01*
X012672Y005849D01*
X012678Y005825D01*
X012680Y005800D01*
X012678Y005775D01*
X012672Y005751D01*
X012663Y005729D01*
X012650Y005708D01*
X012634Y005689D01*
X012615Y005673D01*
X012594Y005660D01*
X012572Y005651D01*
X012548Y005645D01*
X012523Y005643D01*
X012498Y005645D01*
X012474Y005651D01*
X012452Y005660D01*
X012431Y005673D01*
X012412Y005689D01*
X012396Y005708D01*
X012383Y005729D01*
X012374Y005751D01*
X012368Y005775D01*
X012366Y005800D01*
X012681Y005800D02*
X012683Y005825D01*
X012689Y005849D01*
X012698Y005871D01*
X012711Y005892D01*
X012727Y005911D01*
X012746Y005927D01*
X012767Y005940D01*
X012789Y005949D01*
X012813Y005955D01*
X012838Y005957D01*
X012863Y005955D01*
X012887Y005949D01*
X012909Y005940D01*
X012930Y005927D01*
X012949Y005911D01*
X012965Y005892D01*
X012978Y005871D01*
X012987Y005849D01*
X012993Y005825D01*
X012995Y005800D01*
X012993Y005775D01*
X012987Y005751D01*
X012978Y005729D01*
X012965Y005708D01*
X012949Y005689D01*
X012930Y005673D01*
X012909Y005660D01*
X012887Y005651D01*
X012863Y005645D01*
X012838Y005643D01*
X012813Y005645D01*
X012789Y005651D01*
X012767Y005660D01*
X012746Y005673D01*
X012727Y005689D01*
X012711Y005708D01*
X012698Y005729D01*
X012689Y005751D01*
X012683Y005775D01*
X012681Y005800D01*
X012838Y005800D02*
X012840Y005825D01*
X012846Y005849D01*
X012855Y005871D01*
X012868Y005892D01*
X012884Y005911D01*
X012903Y005927D01*
X012924Y005940D01*
X012946Y005949D01*
X012970Y005955D01*
X012995Y005957D01*
X013020Y005955D01*
X013044Y005949D01*
X013066Y005940D01*
X013087Y005927D01*
X013106Y005911D01*
X013122Y005892D01*
X013135Y005871D01*
X013144Y005849D01*
X013150Y005825D01*
X013152Y005800D01*
X013150Y005775D01*
X013144Y005751D01*
X013135Y005729D01*
X013122Y005708D01*
X013106Y005689D01*
X013087Y005673D01*
X013066Y005660D01*
X013044Y005651D01*
X013020Y005645D01*
X012995Y005643D01*
X012970Y005645D01*
X012946Y005651D01*
X012924Y005660D01*
X012903Y005673D01*
X012884Y005689D01*
X012868Y005708D01*
X012855Y005729D01*
X012846Y005751D01*
X012840Y005775D01*
X012838Y005800D01*
D11*
X007542Y004824D02*
X007542Y001675D01*
X006360Y000887D02*
X005880Y000887D01*
X005880Y005612D01*
X006360Y005612D01*
M02*
