G75*
%MOIN*%
%OFA0B0*%
%FSLAX24Y24*%
%IPPOS*%
%LPD*%
%AMOC8*
5,1,8,0,0,1.08239X$1,22.5*
%
%ADD10R,0.0984X0.0315*%
%ADD11C,0.0700*%
%ADD12C,0.0520*%
%ADD13C,0.0160*%
D10*
X008191Y001872D03*
X008191Y002845D03*
X008191Y003654D03*
X008191Y004648D03*
D11*
X007431Y000887D02*
X006731Y000887D01*
X010250Y000700D02*
X010950Y000700D01*
X012330Y000700D02*
X013030Y000700D01*
X007431Y005612D02*
X006731Y005612D01*
X010250Y005800D02*
X010950Y005800D01*
X012330Y005800D02*
X013030Y005800D01*
D12*
X010370Y004000D03*
X009620Y004000D03*
X009620Y003250D03*
X010370Y003250D03*
X010370Y002500D03*
X009620Y002500D03*
D13*
X009080Y002450D02*
X009080Y002710D01*
X009620Y003250D01*
X010370Y003250D02*
X010371Y003250D01*
X011180Y003250D01*
X011530Y003600D01*
X011530Y004200D01*
X011030Y004700D01*
X009480Y004700D01*
X008434Y003654D01*
X008191Y003654D01*
X008466Y002845D02*
X009620Y004000D01*
X008628Y004648D02*
X008191Y004648D01*
X008628Y004648D02*
X009230Y005250D01*
X011080Y005250D01*
X012030Y004300D01*
X012030Y003000D01*
X011530Y002500D01*
X010371Y002500D01*
X010370Y002500D01*
X009080Y002450D02*
X008502Y001872D01*
X008191Y001872D01*
X008191Y002845D02*
X008466Y002845D01*
M02*
