%
M48
M72
T01C0.0280
T02C0.0315
T03C0.0512
%
T01
X9620Y2500
X10370Y2500
X10370Y3250
X9620Y3250
X9620Y4000
X10370Y4000
T02
X6766Y887
X6923Y887
X7081Y887
X7238Y887
X7396Y887
X10285Y700
X10443Y700
X10600Y700
X10758Y700
X10915Y700
X12365Y700
X12523Y700
X12680Y700
X12838Y700
X12995Y700
X7396Y5612
X7238Y5612
X7081Y5612
X6923Y5612
X6766Y5612
X10285Y5800
X10443Y5800
X10600Y5800
X10758Y5800
X10915Y5800
X12365Y5800
X12523Y5800
X12680Y5800
X12838Y5800
X12995Y5800
T03
X7109Y4155
X7109Y2344
M30
