G75*
%MOIN*%
%OFA0B0*%
%FSLAX24Y24*%
%IPPOS*%
%LPD*%
%AMOC8*
5,1,8,0,0,1.08239X$1,22.5*
%
%ADD10C,0.0000*%
%ADD11C,0.0030*%
%ADD12C,0.0040*%
%ADD13R,0.0079X0.0079*%
%ADD14R,0.0059X0.0098*%
%ADD15C,0.0020*%
%ADD16C,0.0080*%
%ADD17C,0.0010*%
%ADD18R,0.0300X0.0180*%
%ADD19R,0.0180X0.0300*%
D10*
X000140Y000100D02*
X000140Y008100D01*
X002440Y010600D02*
X004440Y010600D01*
X002790Y009400D02*
X002792Y009450D01*
X002798Y009500D01*
X002808Y009550D01*
X002821Y009598D01*
X002838Y009646D01*
X002859Y009692D01*
X002883Y009736D01*
X002911Y009778D01*
X002942Y009818D01*
X002976Y009855D01*
X003013Y009890D01*
X003052Y009921D01*
X003093Y009950D01*
X003137Y009975D01*
X003183Y009997D01*
X003230Y010015D01*
X003278Y010029D01*
X003327Y010040D01*
X003377Y010047D01*
X003427Y010050D01*
X003478Y010049D01*
X003528Y010044D01*
X003578Y010035D01*
X003626Y010023D01*
X003674Y010006D01*
X003720Y009986D01*
X003765Y009963D01*
X003808Y009936D01*
X003848Y009906D01*
X003886Y009873D01*
X003921Y009837D01*
X003954Y009798D01*
X003983Y009757D01*
X004009Y009714D01*
X004032Y009669D01*
X004051Y009622D01*
X004066Y009574D01*
X004078Y009525D01*
X004086Y009475D01*
X004090Y009425D01*
X004090Y009375D01*
X004086Y009325D01*
X004078Y009275D01*
X004066Y009226D01*
X004051Y009178D01*
X004032Y009131D01*
X004009Y009086D01*
X003983Y009043D01*
X003954Y009002D01*
X003921Y008963D01*
X003886Y008927D01*
X003848Y008894D01*
X003808Y008864D01*
X003765Y008837D01*
X003720Y008814D01*
X003674Y008794D01*
X003626Y008777D01*
X003578Y008765D01*
X003528Y008756D01*
X003478Y008751D01*
X003427Y008750D01*
X003377Y008753D01*
X003327Y008760D01*
X003278Y008771D01*
X003230Y008785D01*
X003183Y008803D01*
X003137Y008825D01*
X003093Y008850D01*
X003052Y008879D01*
X003013Y008910D01*
X002976Y008945D01*
X002942Y008982D01*
X002911Y009022D01*
X002883Y009064D01*
X002859Y009108D01*
X002838Y009154D01*
X002821Y009202D01*
X002808Y009250D01*
X002798Y009300D01*
X002792Y009350D01*
X002790Y009400D01*
X002440Y010600D02*
X002343Y010594D01*
X002247Y010584D01*
X002151Y010570D01*
X002056Y010553D01*
X001962Y010531D01*
X001869Y010506D01*
X001776Y010477D01*
X001685Y010445D01*
X001595Y010409D01*
X001507Y010369D01*
X001421Y010325D01*
X001336Y010279D01*
X001253Y010228D01*
X001173Y010175D01*
X001094Y010118D01*
X001018Y010059D01*
X000945Y009996D01*
X000874Y009930D01*
X000805Y009862D01*
X000740Y009790D01*
X000677Y009717D01*
X000618Y009640D01*
X000561Y009562D01*
X000508Y009481D01*
X000458Y009398D01*
X000412Y009313D01*
X000369Y009227D01*
X000329Y009138D01*
X000293Y009049D01*
X000261Y008958D01*
X000232Y008865D01*
X000207Y008772D01*
X000186Y008677D01*
X000169Y008582D01*
X000155Y008486D01*
X000146Y008390D01*
X000140Y008293D01*
X000138Y008197D01*
X000140Y008100D01*
X004440Y010600D02*
X004536Y010593D01*
X004632Y010581D01*
X004727Y010566D01*
X004822Y010547D01*
X004915Y010524D01*
X005008Y010498D01*
X005100Y010468D01*
X005190Y010434D01*
X005279Y010397D01*
X005366Y010356D01*
X005452Y010313D01*
X005536Y010265D01*
X005618Y010215D01*
X005698Y010161D01*
X005776Y010104D01*
X005852Y010044D01*
X005925Y009981D01*
X005995Y009916D01*
X006064Y009848D01*
X006129Y009777D01*
X006191Y009703D01*
X006251Y009627D01*
X006307Y009549D01*
X006361Y009469D01*
X006411Y009387D01*
X006458Y009302D01*
X006501Y009216D01*
X006541Y009129D01*
X006578Y009040D01*
X006611Y008949D01*
X006641Y008857D01*
X006667Y008765D01*
X006689Y008671D01*
X006708Y008576D01*
X006723Y008481D01*
X006734Y008385D01*
X006741Y008289D01*
X006745Y008193D01*
X006744Y008096D01*
X006740Y008000D01*
X006740Y000100D01*
X000140Y000100D01*
D11*
X000653Y001365D02*
X000750Y001365D01*
X000798Y001413D01*
X000900Y001365D02*
X000900Y001655D01*
X000900Y001510D02*
X001093Y001510D01*
X001093Y001655D02*
X001093Y001365D01*
X001194Y001413D02*
X001243Y001365D01*
X001339Y001365D01*
X001388Y001413D01*
X001388Y001510D01*
X001291Y001510D01*
X001194Y001607D02*
X001194Y001413D01*
X001194Y001607D02*
X001243Y001655D01*
X001339Y001655D01*
X001388Y001607D01*
X001489Y001510D02*
X001682Y001510D01*
X001805Y001413D02*
X001853Y001365D01*
X001950Y001365D01*
X001998Y001413D01*
X002100Y001365D02*
X002100Y001655D01*
X001998Y001607D02*
X001950Y001655D01*
X001853Y001655D01*
X001805Y001607D01*
X001805Y001413D01*
X002100Y001510D02*
X002293Y001510D01*
X002394Y001413D02*
X002443Y001365D01*
X002539Y001365D01*
X002588Y001413D01*
X002588Y001510D01*
X002491Y001510D01*
X002394Y001607D02*
X002443Y001655D01*
X002539Y001655D01*
X002588Y001607D01*
X002689Y001510D02*
X002882Y001510D01*
X002786Y001607D02*
X002786Y001413D01*
X003155Y001365D02*
X003155Y001655D01*
X003300Y001655D01*
X003348Y001607D01*
X003348Y001510D01*
X003300Y001462D01*
X003155Y001462D01*
X003252Y001462D02*
X003348Y001365D01*
X003450Y001365D02*
X003643Y001655D01*
X003744Y001510D02*
X003938Y001510D01*
X004055Y001365D02*
X004248Y001365D01*
X004350Y001365D02*
X004543Y001365D01*
X004644Y001365D02*
X004789Y001365D01*
X004838Y001413D01*
X004838Y001607D01*
X004789Y001655D01*
X004644Y001655D01*
X004644Y001365D01*
X004446Y001510D02*
X004350Y001510D01*
X004350Y001655D02*
X004350Y001365D01*
X004350Y001655D02*
X004543Y001655D01*
X004939Y001510D02*
X005132Y001510D01*
X005036Y001607D02*
X005036Y001413D01*
X005405Y001760D02*
X005598Y001760D01*
X005502Y001857D02*
X005502Y001663D01*
X004055Y001655D02*
X004055Y001365D01*
X003643Y001365D02*
X003450Y001655D01*
X002394Y001607D02*
X002394Y001413D01*
X002293Y001365D02*
X002293Y001655D01*
X000798Y001607D02*
X000750Y001655D01*
X000653Y001655D01*
X000605Y001607D01*
X000605Y001413D01*
X000653Y001365D01*
X000552Y002463D02*
X000552Y002657D01*
X000648Y002560D02*
X000455Y002560D01*
X001252Y005063D02*
X001252Y005257D01*
X001348Y005160D02*
X001155Y005160D01*
X001150Y008165D02*
X001053Y008165D01*
X001005Y008213D01*
X001102Y008310D02*
X001150Y008310D01*
X001198Y008262D01*
X001198Y008213D01*
X001150Y008165D01*
X001150Y008310D02*
X001198Y008358D01*
X001198Y008407D01*
X001150Y008455D01*
X001053Y008455D01*
X001005Y008407D01*
X001300Y008455D02*
X001300Y008262D01*
X001396Y008165D01*
X001493Y008262D01*
X001493Y008455D01*
X001594Y008407D02*
X001643Y008455D01*
X001739Y008455D01*
X001788Y008407D01*
X001788Y008358D01*
X001739Y008310D01*
X001788Y008262D01*
X001788Y008213D01*
X001739Y008165D01*
X001643Y008165D01*
X001594Y008213D01*
X001691Y008310D02*
X001739Y008310D01*
X002155Y008455D02*
X002348Y008455D01*
X002450Y008455D02*
X002643Y008165D01*
X002744Y008310D02*
X002938Y008310D01*
X003005Y008310D02*
X003150Y008310D01*
X003198Y008262D01*
X003198Y008213D01*
X003150Y008165D01*
X003005Y008165D01*
X003005Y008455D01*
X003150Y008455D01*
X003198Y008407D01*
X003198Y008358D01*
X003150Y008310D01*
X003300Y008455D02*
X003493Y008455D01*
X003594Y008455D02*
X003788Y008165D01*
X003788Y008455D01*
X003594Y008455D02*
X003594Y008165D01*
X003396Y008165D02*
X003396Y008455D01*
X004005Y008407D02*
X004005Y008213D01*
X004053Y008165D01*
X004150Y008165D01*
X004198Y008213D01*
X004198Y008310D01*
X004102Y008310D01*
X004005Y008407D02*
X004053Y008455D01*
X004150Y008455D01*
X004198Y008407D01*
X004300Y008455D02*
X004493Y008165D01*
X004493Y008455D01*
X004594Y008455D02*
X004739Y008455D01*
X004788Y008407D01*
X004788Y008213D01*
X004739Y008165D01*
X004594Y008165D01*
X004594Y008455D01*
X004300Y008455D02*
X004300Y008165D01*
X002643Y008455D02*
X002450Y008165D01*
X002252Y008165D02*
X002252Y008455D01*
X005405Y005210D02*
X005598Y005210D01*
X005502Y005307D02*
X005502Y005113D01*
D12*
X005554Y005657D02*
X005521Y005658D01*
X005489Y005661D01*
X005457Y005669D01*
X005427Y005680D01*
X005398Y005694D01*
X005370Y005711D01*
X005345Y005732D01*
X005322Y005755D01*
X005301Y005780D01*
X005284Y005808D01*
X005270Y005837D01*
X005259Y005867D01*
X005251Y005899D01*
X005248Y005931D01*
X005247Y005964D01*
X005526Y006243D02*
X005559Y006242D01*
X005591Y006239D01*
X005623Y006231D01*
X005653Y006220D01*
X005682Y006206D01*
X005710Y006189D01*
X005735Y006168D01*
X005758Y006145D01*
X005779Y006120D01*
X005796Y006092D01*
X005810Y006063D01*
X005821Y006033D01*
X005829Y006001D01*
X005832Y005969D01*
X005833Y005936D01*
X005554Y002743D02*
X005521Y002742D01*
X005489Y002739D01*
X005457Y002731D01*
X005427Y002720D01*
X005398Y002706D01*
X005370Y002689D01*
X005345Y002668D01*
X005322Y002645D01*
X005301Y002620D01*
X005284Y002592D01*
X005270Y002563D01*
X005259Y002533D01*
X005251Y002501D01*
X005248Y002469D01*
X005247Y002436D01*
X005526Y002157D02*
X005559Y002158D01*
X005591Y002161D01*
X005623Y002169D01*
X005653Y002180D01*
X005682Y002194D01*
X005710Y002211D01*
X005735Y002232D01*
X005758Y002255D01*
X005779Y002280D01*
X005796Y002308D01*
X005810Y002337D01*
X005821Y002367D01*
X005829Y002399D01*
X005832Y002431D01*
X005833Y002464D01*
X001633Y002436D02*
X001632Y002469D01*
X001629Y002501D01*
X001621Y002533D01*
X001610Y002563D01*
X001596Y002592D01*
X001579Y002620D01*
X001558Y002645D01*
X001535Y002668D01*
X001510Y002689D01*
X001482Y002706D01*
X001453Y002720D01*
X001423Y002731D01*
X001391Y002739D01*
X001359Y002742D01*
X001326Y002743D01*
X001047Y002464D02*
X001048Y002431D01*
X001051Y002399D01*
X001059Y002367D01*
X001070Y002337D01*
X001084Y002308D01*
X001101Y002280D01*
X001122Y002255D01*
X001145Y002232D01*
X001170Y002211D01*
X001198Y002194D01*
X001227Y002180D01*
X001257Y002169D01*
X001289Y002161D01*
X001321Y002158D01*
X001354Y002157D01*
X001047Y005936D02*
X001048Y005969D01*
X001051Y006001D01*
X001059Y006033D01*
X001070Y006063D01*
X001084Y006092D01*
X001101Y006120D01*
X001122Y006145D01*
X001145Y006168D01*
X001170Y006189D01*
X001198Y006206D01*
X001227Y006220D01*
X001257Y006231D01*
X001289Y006239D01*
X001321Y006242D01*
X001354Y006243D01*
X001633Y005964D02*
X001632Y005931D01*
X001629Y005899D01*
X001621Y005867D01*
X001610Y005837D01*
X001596Y005808D01*
X001579Y005780D01*
X001558Y005755D01*
X001535Y005732D01*
X001510Y005711D01*
X001482Y005694D01*
X001453Y005680D01*
X001423Y005669D01*
X001391Y005661D01*
X001359Y005658D01*
X001326Y005657D01*
D13*
G36*
X001395Y005950D02*
X001340Y005895D01*
X001285Y005950D01*
X001340Y006005D01*
X001395Y005950D01*
G37*
G36*
X001340Y002395D02*
X001285Y002450D01*
X001340Y002505D01*
X001395Y002450D01*
X001340Y002395D01*
G37*
G36*
X005595Y002450D02*
X005540Y002395D01*
X005485Y002450D01*
X005540Y002505D01*
X005595Y002450D01*
G37*
G36*
X005540Y006005D02*
X005595Y005950D01*
X005540Y005895D01*
X005485Y005950D01*
X005540Y006005D01*
G37*
D14*
G36*
X005568Y006311D02*
X005609Y006270D01*
X005540Y006201D01*
X005499Y006242D01*
X005568Y006311D01*
G37*
G36*
X005901Y002422D02*
X005860Y002381D01*
X005791Y002450D01*
X005832Y002491D01*
X005901Y002422D01*
G37*
G36*
X001701Y005922D02*
X001660Y005881D01*
X001591Y005950D01*
X001632Y005991D01*
X001701Y005922D01*
G37*
G36*
X001312Y002089D02*
X001271Y002130D01*
X001340Y002199D01*
X001381Y002158D01*
X001312Y002089D01*
G37*
D15*
X001770Y002741D02*
X001667Y002845D01*
X001822Y003000D01*
X001770Y003053D02*
X001510Y003001D01*
X001458Y003053D02*
X001458Y003157D01*
X001484Y003131D02*
X001406Y003209D01*
X001354Y003157D02*
X001510Y003313D01*
X001588Y003235D01*
X001588Y003183D01*
X001536Y003131D01*
X001484Y003131D01*
X001666Y003157D02*
X001614Y002897D01*
X001823Y002688D02*
X001927Y002585D01*
X001979Y002532D02*
X002057Y002454D01*
X002109Y002454D01*
X002213Y002558D01*
X002213Y002610D01*
X002135Y002688D01*
X001979Y002532D01*
X001953Y002714D02*
X001901Y002766D01*
X001979Y002844D02*
X001823Y002688D01*
X001979Y002844D02*
X002082Y002740D01*
X000435Y005716D02*
X000279Y005872D01*
X000227Y005820D02*
X000331Y005924D01*
X000383Y005976D02*
X000643Y005924D01*
X000695Y005977D02*
X000799Y006080D01*
X000852Y006133D02*
X000955Y006237D01*
X001008Y006289D02*
X001086Y006367D01*
X001086Y006419D01*
X000982Y006523D01*
X000930Y006523D01*
X000852Y006445D01*
X001008Y006289D01*
X000826Y006263D02*
X000774Y006211D01*
X000696Y006289D02*
X000800Y006392D01*
X000696Y006289D02*
X000852Y006133D01*
X000695Y005977D02*
X000540Y006132D01*
X000487Y006080D02*
X000539Y005820D01*
X004577Y002370D02*
X004707Y002240D01*
X004759Y002240D01*
X004811Y002292D01*
X004811Y002344D01*
X004681Y002474D01*
X004759Y002500D02*
X004785Y002474D01*
X004837Y002474D01*
X004889Y002526D01*
X004941Y002526D01*
X004967Y002500D01*
X004967Y002448D01*
X004915Y002396D01*
X004863Y002396D01*
X004759Y002500D02*
X004759Y002552D01*
X004811Y002604D01*
X004863Y002604D01*
X004890Y002682D02*
X005045Y002527D01*
X005149Y002630D01*
X005202Y002683D02*
X005046Y002839D01*
X005124Y002916D01*
X005176Y002916D01*
X005228Y002865D01*
X005228Y002813D01*
X005150Y002735D01*
X005202Y002787D02*
X005305Y002787D01*
X005358Y002839D02*
X005202Y002995D01*
X005358Y002839D02*
X005462Y002943D01*
X005514Y002995D02*
X005618Y003099D01*
X005670Y003152D02*
X005748Y003230D01*
X005748Y003281D01*
X005644Y003385D01*
X005593Y003385D01*
X005515Y003307D01*
X005670Y003152D01*
X005488Y003125D02*
X005436Y003073D01*
X005358Y003151D02*
X005514Y002995D01*
X005358Y003151D02*
X005462Y003255D01*
X005019Y002656D02*
X004968Y002605D01*
X004890Y002682D02*
X004993Y002786D01*
X006306Y005802D02*
X006228Y005879D01*
X006384Y006035D01*
X006462Y005957D01*
X006462Y005905D01*
X006358Y005802D01*
X006306Y005802D01*
X006176Y005932D02*
X006072Y006036D01*
X006228Y006191D01*
X006331Y006088D01*
X006202Y006062D02*
X006150Y006114D01*
X006019Y006088D02*
X005916Y006192D01*
X006071Y006348D01*
X005993Y006374D02*
X005993Y006426D01*
X005941Y006478D01*
X005889Y006478D01*
X005785Y006374D01*
X005785Y006322D01*
X005837Y006270D01*
X005889Y006270D01*
X005941Y006322D01*
X005889Y006374D01*
X005785Y006479D02*
X005681Y006582D01*
X005680Y006687D02*
X005680Y006739D01*
X005628Y006791D01*
X005577Y006791D01*
X005473Y006687D01*
X005473Y006635D01*
X005525Y006583D01*
X005577Y006583D01*
X005603Y006505D02*
X005759Y006660D01*
X005863Y006556D02*
X005707Y006401D01*
D16*
X004940Y007300D02*
X004940Y007800D01*
X004690Y008050D01*
X004190Y008050D01*
X003940Y007800D01*
X003690Y008050D01*
X003190Y008050D01*
X002940Y007800D01*
X002690Y008050D01*
X002190Y008050D01*
X001940Y007800D01*
X001690Y008050D01*
X001190Y008050D01*
X000940Y007800D01*
X000940Y007300D01*
X001190Y007050D01*
X001690Y007050D01*
X001940Y007300D01*
X002190Y007050D01*
X002690Y007050D01*
X002940Y007300D01*
X003190Y007050D01*
X003690Y007050D01*
X003940Y007300D01*
X004190Y007050D01*
X004690Y007050D01*
X004940Y007300D01*
X004690Y001300D02*
X004190Y001300D01*
X003940Y001050D01*
X003690Y001300D01*
X003190Y001300D01*
X002940Y001050D01*
X002690Y001300D01*
X002190Y001300D01*
X001940Y001050D01*
X001690Y001300D01*
X001190Y001300D01*
X000940Y001050D01*
X000940Y000550D01*
X001190Y000300D01*
X001690Y000300D01*
X001940Y000550D01*
X002190Y000300D01*
X002690Y000300D01*
X002940Y000550D01*
X003190Y000300D01*
X003690Y000300D01*
X003940Y000550D01*
X004190Y000300D01*
X004690Y000300D01*
X004940Y000550D01*
X004940Y001050D01*
X004690Y001300D01*
D17*
X004747Y003939D02*
X004747Y004014D01*
X004772Y004039D01*
X004822Y004039D01*
X004847Y004014D01*
X004847Y003939D01*
X004897Y003939D02*
X004747Y003939D01*
X004847Y003989D02*
X004897Y004039D01*
X004897Y004087D02*
X004797Y004187D01*
X004772Y004187D01*
X004747Y004162D01*
X004747Y004112D01*
X004772Y004087D01*
X004897Y004087D02*
X004897Y004187D01*
X005291Y007140D02*
X005291Y007215D01*
X005316Y007240D01*
X005366Y007240D01*
X005391Y007215D01*
X005391Y007140D01*
X005441Y007140D02*
X005291Y007140D01*
X005391Y007190D02*
X005441Y007240D01*
X005441Y007288D02*
X005441Y007388D01*
X005441Y007338D02*
X005291Y007338D01*
X005341Y007288D01*
X002145Y004533D02*
X001995Y004533D01*
X002070Y004458D01*
X002070Y004558D01*
X002070Y004410D02*
X002020Y004410D01*
X001995Y004385D01*
X001995Y004310D01*
X002145Y004310D01*
X002095Y004310D02*
X002095Y004385D01*
X002070Y004410D01*
X002095Y004360D02*
X002145Y004410D01*
D18*
X001690Y004250D03*
X005202Y004284D03*
X005746Y007485D03*
D19*
X003390Y001900D03*
M02*
