G75*
%MOIN*%
%OFA0B0*%
%FSLAX24Y24*%
%IPPOS*%
%LPD*%
%AMOC8*
5,1,8,0,0,1.08239X$1,22.5*
%
%ADD10R,0.0630X0.0710*%
%ADD11R,0.0512X0.0610*%
%ADD12R,0.0394X0.0433*%
%ADD13R,0.0433X0.0394*%
D10*
G36*
X001708Y001581D02*
X001263Y002026D01*
X001764Y002527D01*
X002209Y002082D01*
X001708Y001581D01*
G37*
G36*
X000916Y002373D02*
X000471Y002818D01*
X000972Y003319D01*
X001417Y002874D01*
X000916Y002373D01*
G37*
G36*
X001417Y005526D02*
X000972Y005081D01*
X000471Y005582D01*
X000916Y006027D01*
X001417Y005526D01*
G37*
G36*
X002209Y006318D02*
X001764Y005873D01*
X001263Y006374D01*
X001708Y006819D01*
X002209Y006318D01*
G37*
G36*
X005172Y006819D02*
X005617Y006374D01*
X005116Y005873D01*
X004671Y006318D01*
X005172Y006819D01*
G37*
G36*
X005964Y006027D02*
X006409Y005582D01*
X005908Y005081D01*
X005463Y005526D01*
X005964Y006027D01*
G37*
G36*
X006409Y002818D02*
X005964Y002373D01*
X005463Y002874D01*
X005908Y003319D01*
X006409Y002818D01*
G37*
G36*
X005617Y002026D02*
X005172Y001581D01*
X004671Y002082D01*
X005116Y002527D01*
X005617Y002026D01*
G37*
D11*
X004326Y002675D03*
X002554Y002675D03*
X002554Y005825D03*
X004326Y005825D03*
D12*
X005202Y004619D03*
X005202Y003950D03*
X005746Y007151D03*
X005746Y007820D03*
X001690Y004585D03*
X001690Y003915D03*
D13*
X003055Y001900D03*
X003725Y001900D03*
M02*
