%
M48
M72
T01C0.0280
T02C0.0315
%
T01
X5874Y2500
X6624Y2500
X6624Y3250
X5874Y3250
X5874Y4000
X6624Y4000
T02
X6696Y5800
X6854Y5800
X7011Y5800
X7169Y5800
X6539Y5800
X8619Y5800
X8776Y5800
X8934Y5800
X9091Y5800
X9249Y5800
X9249Y700
X9091Y700
X8934Y700
X8776Y700
X8619Y700
X7169Y700
X7011Y700
X6854Y700
X6696Y700
X6539Y700
M30
