G75*
%MOIN*%
%OFA0B0*%
%FSLAX24Y24*%
%IPPOS*%
%LPD*%
%AMOC8*
5,1,8,0,0,1.08239X$1,22.5*
%
%ADD10C,0.0000*%
D10*
X001184Y000850D02*
X005534Y000850D01*
X006284Y000100D01*
X010058Y000100D01*
X010058Y006400D01*
X010054Y006400D02*
X006334Y006400D01*
X005534Y005600D01*
X001184Y005600D01*
X001184Y000850D01*
X006382Y000700D02*
X006384Y000725D01*
X006390Y000749D01*
X006399Y000771D01*
X006412Y000792D01*
X006428Y000811D01*
X006447Y000827D01*
X006468Y000840D01*
X006490Y000849D01*
X006514Y000855D01*
X006539Y000857D01*
X006564Y000855D01*
X006588Y000849D01*
X006610Y000840D01*
X006631Y000827D01*
X006650Y000811D01*
X006666Y000792D01*
X006679Y000771D01*
X006688Y000749D01*
X006694Y000725D01*
X006696Y000700D01*
X006694Y000675D01*
X006688Y000651D01*
X006679Y000629D01*
X006666Y000608D01*
X006650Y000589D01*
X006631Y000573D01*
X006610Y000560D01*
X006588Y000551D01*
X006564Y000545D01*
X006539Y000543D01*
X006514Y000545D01*
X006490Y000551D01*
X006468Y000560D01*
X006447Y000573D01*
X006428Y000589D01*
X006412Y000608D01*
X006399Y000629D01*
X006390Y000651D01*
X006384Y000675D01*
X006382Y000700D01*
X006539Y000700D02*
X006541Y000725D01*
X006547Y000749D01*
X006556Y000771D01*
X006569Y000792D01*
X006585Y000811D01*
X006604Y000827D01*
X006625Y000840D01*
X006647Y000849D01*
X006671Y000855D01*
X006696Y000857D01*
X006721Y000855D01*
X006745Y000849D01*
X006767Y000840D01*
X006788Y000827D01*
X006807Y000811D01*
X006823Y000792D01*
X006836Y000771D01*
X006845Y000749D01*
X006851Y000725D01*
X006853Y000700D01*
X006851Y000675D01*
X006845Y000651D01*
X006836Y000629D01*
X006823Y000608D01*
X006807Y000589D01*
X006788Y000573D01*
X006767Y000560D01*
X006745Y000551D01*
X006721Y000545D01*
X006696Y000543D01*
X006671Y000545D01*
X006647Y000551D01*
X006625Y000560D01*
X006604Y000573D01*
X006585Y000589D01*
X006569Y000608D01*
X006556Y000629D01*
X006547Y000651D01*
X006541Y000675D01*
X006539Y000700D01*
X006854Y000700D02*
X006856Y000725D01*
X006862Y000749D01*
X006871Y000771D01*
X006884Y000792D01*
X006900Y000811D01*
X006919Y000827D01*
X006940Y000840D01*
X006962Y000849D01*
X006986Y000855D01*
X007011Y000857D01*
X007036Y000855D01*
X007060Y000849D01*
X007082Y000840D01*
X007103Y000827D01*
X007122Y000811D01*
X007138Y000792D01*
X007151Y000771D01*
X007160Y000749D01*
X007166Y000725D01*
X007168Y000700D01*
X007166Y000675D01*
X007160Y000651D01*
X007151Y000629D01*
X007138Y000608D01*
X007122Y000589D01*
X007103Y000573D01*
X007082Y000560D01*
X007060Y000551D01*
X007036Y000545D01*
X007011Y000543D01*
X006986Y000545D01*
X006962Y000551D01*
X006940Y000560D01*
X006919Y000573D01*
X006900Y000589D01*
X006884Y000608D01*
X006871Y000629D01*
X006862Y000651D01*
X006856Y000675D01*
X006854Y000700D01*
X007012Y000700D02*
X007014Y000725D01*
X007020Y000749D01*
X007029Y000771D01*
X007042Y000792D01*
X007058Y000811D01*
X007077Y000827D01*
X007098Y000840D01*
X007120Y000849D01*
X007144Y000855D01*
X007169Y000857D01*
X007194Y000855D01*
X007218Y000849D01*
X007240Y000840D01*
X007261Y000827D01*
X007280Y000811D01*
X007296Y000792D01*
X007309Y000771D01*
X007318Y000749D01*
X007324Y000725D01*
X007326Y000700D01*
X007324Y000675D01*
X007318Y000651D01*
X007309Y000629D01*
X007296Y000608D01*
X007280Y000589D01*
X007261Y000573D01*
X007240Y000560D01*
X007218Y000551D01*
X007194Y000545D01*
X007169Y000543D01*
X007144Y000545D01*
X007120Y000551D01*
X007098Y000560D01*
X007077Y000573D01*
X007058Y000589D01*
X007042Y000608D01*
X007029Y000629D01*
X007020Y000651D01*
X007014Y000675D01*
X007012Y000700D01*
X008462Y000700D02*
X008464Y000725D01*
X008470Y000749D01*
X008479Y000771D01*
X008492Y000792D01*
X008508Y000811D01*
X008527Y000827D01*
X008548Y000840D01*
X008570Y000849D01*
X008594Y000855D01*
X008619Y000857D01*
X008644Y000855D01*
X008668Y000849D01*
X008690Y000840D01*
X008711Y000827D01*
X008730Y000811D01*
X008746Y000792D01*
X008759Y000771D01*
X008768Y000749D01*
X008774Y000725D01*
X008776Y000700D01*
X008774Y000675D01*
X008768Y000651D01*
X008759Y000629D01*
X008746Y000608D01*
X008730Y000589D01*
X008711Y000573D01*
X008690Y000560D01*
X008668Y000551D01*
X008644Y000545D01*
X008619Y000543D01*
X008594Y000545D01*
X008570Y000551D01*
X008548Y000560D01*
X008527Y000573D01*
X008508Y000589D01*
X008492Y000608D01*
X008479Y000629D01*
X008470Y000651D01*
X008464Y000675D01*
X008462Y000700D01*
X008619Y000700D02*
X008621Y000725D01*
X008627Y000749D01*
X008636Y000771D01*
X008649Y000792D01*
X008665Y000811D01*
X008684Y000827D01*
X008705Y000840D01*
X008727Y000849D01*
X008751Y000855D01*
X008776Y000857D01*
X008801Y000855D01*
X008825Y000849D01*
X008847Y000840D01*
X008868Y000827D01*
X008887Y000811D01*
X008903Y000792D01*
X008916Y000771D01*
X008925Y000749D01*
X008931Y000725D01*
X008933Y000700D01*
X008931Y000675D01*
X008925Y000651D01*
X008916Y000629D01*
X008903Y000608D01*
X008887Y000589D01*
X008868Y000573D01*
X008847Y000560D01*
X008825Y000551D01*
X008801Y000545D01*
X008776Y000543D01*
X008751Y000545D01*
X008727Y000551D01*
X008705Y000560D01*
X008684Y000573D01*
X008665Y000589D01*
X008649Y000608D01*
X008636Y000629D01*
X008627Y000651D01*
X008621Y000675D01*
X008619Y000700D01*
X008934Y000700D02*
X008936Y000725D01*
X008942Y000749D01*
X008951Y000771D01*
X008964Y000792D01*
X008980Y000811D01*
X008999Y000827D01*
X009020Y000840D01*
X009042Y000849D01*
X009066Y000855D01*
X009091Y000857D01*
X009116Y000855D01*
X009140Y000849D01*
X009162Y000840D01*
X009183Y000827D01*
X009202Y000811D01*
X009218Y000792D01*
X009231Y000771D01*
X009240Y000749D01*
X009246Y000725D01*
X009248Y000700D01*
X009246Y000675D01*
X009240Y000651D01*
X009231Y000629D01*
X009218Y000608D01*
X009202Y000589D01*
X009183Y000573D01*
X009162Y000560D01*
X009140Y000551D01*
X009116Y000545D01*
X009091Y000543D01*
X009066Y000545D01*
X009042Y000551D01*
X009020Y000560D01*
X008999Y000573D01*
X008980Y000589D01*
X008964Y000608D01*
X008951Y000629D01*
X008942Y000651D01*
X008936Y000675D01*
X008934Y000700D01*
X009092Y000700D02*
X009094Y000725D01*
X009100Y000749D01*
X009109Y000771D01*
X009122Y000792D01*
X009138Y000811D01*
X009157Y000827D01*
X009178Y000840D01*
X009200Y000849D01*
X009224Y000855D01*
X009249Y000857D01*
X009274Y000855D01*
X009298Y000849D01*
X009320Y000840D01*
X009341Y000827D01*
X009360Y000811D01*
X009376Y000792D01*
X009389Y000771D01*
X009398Y000749D01*
X009404Y000725D01*
X009406Y000700D01*
X009404Y000675D01*
X009398Y000651D01*
X009389Y000629D01*
X009376Y000608D01*
X009360Y000589D01*
X009341Y000573D01*
X009320Y000560D01*
X009298Y000551D01*
X009274Y000545D01*
X009249Y000543D01*
X009224Y000545D01*
X009200Y000551D01*
X009178Y000560D01*
X009157Y000573D01*
X009138Y000589D01*
X009122Y000608D01*
X009109Y000629D01*
X009100Y000651D01*
X009094Y000675D01*
X009092Y000700D01*
X008934Y005800D02*
X008936Y005825D01*
X008942Y005849D01*
X008951Y005871D01*
X008964Y005892D01*
X008980Y005911D01*
X008999Y005927D01*
X009020Y005940D01*
X009042Y005949D01*
X009066Y005955D01*
X009091Y005957D01*
X009116Y005955D01*
X009140Y005949D01*
X009162Y005940D01*
X009183Y005927D01*
X009202Y005911D01*
X009218Y005892D01*
X009231Y005871D01*
X009240Y005849D01*
X009246Y005825D01*
X009248Y005800D01*
X009246Y005775D01*
X009240Y005751D01*
X009231Y005729D01*
X009218Y005708D01*
X009202Y005689D01*
X009183Y005673D01*
X009162Y005660D01*
X009140Y005651D01*
X009116Y005645D01*
X009091Y005643D01*
X009066Y005645D01*
X009042Y005651D01*
X009020Y005660D01*
X008999Y005673D01*
X008980Y005689D01*
X008964Y005708D01*
X008951Y005729D01*
X008942Y005751D01*
X008936Y005775D01*
X008934Y005800D01*
X008619Y005800D02*
X008621Y005825D01*
X008627Y005849D01*
X008636Y005871D01*
X008649Y005892D01*
X008665Y005911D01*
X008684Y005927D01*
X008705Y005940D01*
X008727Y005949D01*
X008751Y005955D01*
X008776Y005957D01*
X008801Y005955D01*
X008825Y005949D01*
X008847Y005940D01*
X008868Y005927D01*
X008887Y005911D01*
X008903Y005892D01*
X008916Y005871D01*
X008925Y005849D01*
X008931Y005825D01*
X008933Y005800D01*
X008931Y005775D01*
X008925Y005751D01*
X008916Y005729D01*
X008903Y005708D01*
X008887Y005689D01*
X008868Y005673D01*
X008847Y005660D01*
X008825Y005651D01*
X008801Y005645D01*
X008776Y005643D01*
X008751Y005645D01*
X008727Y005651D01*
X008705Y005660D01*
X008684Y005673D01*
X008665Y005689D01*
X008649Y005708D01*
X008636Y005729D01*
X008627Y005751D01*
X008621Y005775D01*
X008619Y005800D01*
X008462Y005800D02*
X008464Y005825D01*
X008470Y005849D01*
X008479Y005871D01*
X008492Y005892D01*
X008508Y005911D01*
X008527Y005927D01*
X008548Y005940D01*
X008570Y005949D01*
X008594Y005955D01*
X008619Y005957D01*
X008644Y005955D01*
X008668Y005949D01*
X008690Y005940D01*
X008711Y005927D01*
X008730Y005911D01*
X008746Y005892D01*
X008759Y005871D01*
X008768Y005849D01*
X008774Y005825D01*
X008776Y005800D01*
X008774Y005775D01*
X008768Y005751D01*
X008759Y005729D01*
X008746Y005708D01*
X008730Y005689D01*
X008711Y005673D01*
X008690Y005660D01*
X008668Y005651D01*
X008644Y005645D01*
X008619Y005643D01*
X008594Y005645D01*
X008570Y005651D01*
X008548Y005660D01*
X008527Y005673D01*
X008508Y005689D01*
X008492Y005708D01*
X008479Y005729D01*
X008470Y005751D01*
X008464Y005775D01*
X008462Y005800D01*
X009092Y005800D02*
X009094Y005825D01*
X009100Y005849D01*
X009109Y005871D01*
X009122Y005892D01*
X009138Y005911D01*
X009157Y005927D01*
X009178Y005940D01*
X009200Y005949D01*
X009224Y005955D01*
X009249Y005957D01*
X009274Y005955D01*
X009298Y005949D01*
X009320Y005940D01*
X009341Y005927D01*
X009360Y005911D01*
X009376Y005892D01*
X009389Y005871D01*
X009398Y005849D01*
X009404Y005825D01*
X009406Y005800D01*
X009404Y005775D01*
X009398Y005751D01*
X009389Y005729D01*
X009376Y005708D01*
X009360Y005689D01*
X009341Y005673D01*
X009320Y005660D01*
X009298Y005651D01*
X009274Y005645D01*
X009249Y005643D01*
X009224Y005645D01*
X009200Y005651D01*
X009178Y005660D01*
X009157Y005673D01*
X009138Y005689D01*
X009122Y005708D01*
X009109Y005729D01*
X009100Y005751D01*
X009094Y005775D01*
X009092Y005800D01*
X007012Y005800D02*
X007014Y005825D01*
X007020Y005849D01*
X007029Y005871D01*
X007042Y005892D01*
X007058Y005911D01*
X007077Y005927D01*
X007098Y005940D01*
X007120Y005949D01*
X007144Y005955D01*
X007169Y005957D01*
X007194Y005955D01*
X007218Y005949D01*
X007240Y005940D01*
X007261Y005927D01*
X007280Y005911D01*
X007296Y005892D01*
X007309Y005871D01*
X007318Y005849D01*
X007324Y005825D01*
X007326Y005800D01*
X007324Y005775D01*
X007318Y005751D01*
X007309Y005729D01*
X007296Y005708D01*
X007280Y005689D01*
X007261Y005673D01*
X007240Y005660D01*
X007218Y005651D01*
X007194Y005645D01*
X007169Y005643D01*
X007144Y005645D01*
X007120Y005651D01*
X007098Y005660D01*
X007077Y005673D01*
X007058Y005689D01*
X007042Y005708D01*
X007029Y005729D01*
X007020Y005751D01*
X007014Y005775D01*
X007012Y005800D01*
X006854Y005800D02*
X006856Y005825D01*
X006862Y005849D01*
X006871Y005871D01*
X006884Y005892D01*
X006900Y005911D01*
X006919Y005927D01*
X006940Y005940D01*
X006962Y005949D01*
X006986Y005955D01*
X007011Y005957D01*
X007036Y005955D01*
X007060Y005949D01*
X007082Y005940D01*
X007103Y005927D01*
X007122Y005911D01*
X007138Y005892D01*
X007151Y005871D01*
X007160Y005849D01*
X007166Y005825D01*
X007168Y005800D01*
X007166Y005775D01*
X007160Y005751D01*
X007151Y005729D01*
X007138Y005708D01*
X007122Y005689D01*
X007103Y005673D01*
X007082Y005660D01*
X007060Y005651D01*
X007036Y005645D01*
X007011Y005643D01*
X006986Y005645D01*
X006962Y005651D01*
X006940Y005660D01*
X006919Y005673D01*
X006900Y005689D01*
X006884Y005708D01*
X006871Y005729D01*
X006862Y005751D01*
X006856Y005775D01*
X006854Y005800D01*
X006539Y005800D02*
X006541Y005825D01*
X006547Y005849D01*
X006556Y005871D01*
X006569Y005892D01*
X006585Y005911D01*
X006604Y005927D01*
X006625Y005940D01*
X006647Y005949D01*
X006671Y005955D01*
X006696Y005957D01*
X006721Y005955D01*
X006745Y005949D01*
X006767Y005940D01*
X006788Y005927D01*
X006807Y005911D01*
X006823Y005892D01*
X006836Y005871D01*
X006845Y005849D01*
X006851Y005825D01*
X006853Y005800D01*
X006851Y005775D01*
X006845Y005751D01*
X006836Y005729D01*
X006823Y005708D01*
X006807Y005689D01*
X006788Y005673D01*
X006767Y005660D01*
X006745Y005651D01*
X006721Y005645D01*
X006696Y005643D01*
X006671Y005645D01*
X006647Y005651D01*
X006625Y005660D01*
X006604Y005673D01*
X006585Y005689D01*
X006569Y005708D01*
X006556Y005729D01*
X006547Y005751D01*
X006541Y005775D01*
X006539Y005800D01*
X006382Y005800D02*
X006384Y005825D01*
X006390Y005849D01*
X006399Y005871D01*
X006412Y005892D01*
X006428Y005911D01*
X006447Y005927D01*
X006468Y005940D01*
X006490Y005949D01*
X006514Y005955D01*
X006539Y005957D01*
X006564Y005955D01*
X006588Y005949D01*
X006610Y005940D01*
X006631Y005927D01*
X006650Y005911D01*
X006666Y005892D01*
X006679Y005871D01*
X006688Y005849D01*
X006694Y005825D01*
X006696Y005800D01*
X006694Y005775D01*
X006688Y005751D01*
X006679Y005729D01*
X006666Y005708D01*
X006650Y005689D01*
X006631Y005673D01*
X006610Y005660D01*
X006588Y005651D01*
X006564Y005645D01*
X006539Y005643D01*
X006514Y005645D01*
X006490Y005651D01*
X006468Y005660D01*
X006447Y005673D01*
X006428Y005689D01*
X006412Y005708D01*
X006399Y005729D01*
X006390Y005751D01*
X006384Y005775D01*
X006382Y005800D01*
M02*
