  0
SECTION
  2
HEADER
  9
$ACADVER
  1
AC1009
  9
$FILLMODE
 70
1
  9
$EXTMIN
 10
-7.9505
 20
0.0000
 30
0.0000
  9
$EXTMAX
 10
16.0000
 20
20.0000
 30
0.0000
  0
ENDSEC
  0
SECTION
  2
TABLES
  0
TABLE
  2
LTYPE
 70
1
  0
LTYPE
  2
CONTINUOUS
 70
64
  3
Solid line
 72
65
 73
0
 40
0
  0
ENDTAB
  0
TABLE
  2
LAYER
 70
255
  0
LAYER
  2
1
 70
64
 62
22
  6
CONTINUOUS
  0
LAYER
  2
16
 70
64
 62
175
  6
CONTINUOUS
  0
LAYER
  2
17
 70
64
 62
82
  6
CONTINUOUS
  0
LAYER
  2
18
 70
64
 62
82
  6
CONTINUOUS
  0
LAYER
  2
19
 70
64
 62
53
  6
CONTINUOUS
  0
LAYER
  2
20
 70
64
 62
7
  6
CONTINUOUS
  0
LAYER
  2
21
 70
64
 62
253
  6
CONTINUOUS
  0
LAYER
  2
22
 70
64
 62
253
  6
CONTINUOUS
  0
LAYER
  2
23
 70
64
 62
7
  6
CONTINUOUS
  0
LAYER
  2
24
 70
64
 62
7
  6
CONTINUOUS
  0
LAYER
  2
25
 70
64
 62
253
  6
CONTINUOUS
  0
LAYER
  2
26
 70
64
 62
253
  6
CONTINUOUS
  0
LAYER
  2
27
 70
64
 62
253
  6
CONTINUOUS
  0
LAYER
  2
28
 70
64
 62
253
  6
CONTINUOUS
  0
LAYER
  2
39
 70
64
 62
22
  6
CONTINUOUS
  0
LAYER
  2
40
 70
64
 62
175
  6
CONTINUOUS
  0
LAYER
  2
41
 70
64
 62
22
  6
CONTINUOUS
  0
LAYER
  2
42
 70
64
 62
175
  6
CONTINUOUS
  0
LAYER
  2
43
 70
64
 62
82
  6
CONTINUOUS
  0
LAYER
  2
48
 70
64
 62
253
  6
CONTINUOUS
  0
LAYER
  2
49
 70
64
 62
253
  6
CONTINUOUS
  0
LAYER
  2
51
 70
64
 62
253
  6
CONTINUOUS
  0
LAYER
  2
52
 70
64
 62
253
  6
CONTINUOUS
  0
LAYER
  2
101
 70
64
 62
1
  6
CONTINUOUS
  0
LAYER
  2
102
 70
64
 62
253
  6
CONTINUOUS
  0
LAYER
  2
103
 70
64
 62
253
  6
CONTINUOUS
  0
LAYER
  2
104
 70
64
 62
251
  6
CONTINUOUS
  0
LAYER
  2
105
 70
64
 62
253
  6
CONTINUOUS
  0
LAYER
  2
106
 70
64
 62
253
  6
CONTINUOUS
  0
LAYER
  2
107
 70
64
 62
253
  6
CONTINUOUS
  0
LAYER
  2
108
 70
64
 62
3
  6
CONTINUOUS
  0
LAYER
  2
109
 70
64
 62
4
  6
CONTINUOUS
  0
LAYER
  2
110
 70
64
 62
253
  6
CONTINUOUS
  0
LAYER
  2
111
 70
64
 62
253
  6
CONTINUOUS
  0
LAYER
  2
112
 70
64
 62
253
  6
CONTINUOUS
  0
LAYER
  2
113
 70
64
 62
22
  6
CONTINUOUS
  0
LAYER
  2
116
 70
64
 62
5
  6
CONTINUOUS
  0
LAYER
  2
121
 70
64
 62
253
  6
CONTINUOUS
  0
LAYER
  2
122
 70
64
 62
253
  6
CONTINUOUS
  0
LAYER
  2
123
 70
64
 62
253
  6
CONTINUOUS
  0
LAYER
  2
124
 70
64
 62
253
  6
CONTINUOUS
  0
LAYER
  2
125
 70
64
 62
253
  6
CONTINUOUS
  0
LAYER
  2
126
 70
64
 62
253
  6
CONTINUOUS
  0
LAYER
  2
127
 70
64
 62
253
  6
CONTINUOUS
  0
LAYER
  2
128
 70
64
 62
253
  6
CONTINUOUS
  0
LAYER
  2
131
 70
64
 62
253
  6
CONTINUOUS
  0
LAYER
  2
132
 70
64
 62
253
  6
CONTINUOUS
  0
LAYER
  2
144
 70
64
 62
253
  6
CONTINUOUS
  0
LAYER
  2
150
 70
64
 62
253
  6
CONTINUOUS
  0
LAYER
  2
151
 70
64
 62
253
  6
CONTINUOUS
  0
LAYER
  2
152
 70
64
 62
253
  6
CONTINUOUS
  0
LAYER
  2
153
 70
64
 62
253
  6
CONTINUOUS
  0
LAYER
  2
154
 70
64
 62
253
  6
CONTINUOUS
  0
LAYER
  2
155
 70
64
 62
253
  6
CONTINUOUS
  0
LAYER
  2
199
 70
64
 62
253
  6
CONTINUOUS
  0
LAYER
  2
200
 70
64
 62
175
  6
CONTINUOUS
  0
LAYER
  2
201
 70
64
 62
82
  6
CONTINUOUS
  0
LAYER
  2
202
 70
64
 62
140
  6
CONTINUOUS
  0
LAYER
  2
203
 70
64
 62
22
  6
CONTINUOUS
  0
LAYER
  2
204
 70
64
 62
213
  6
CONTINUOUS
  0
LAYER
  2
205
 70
64
 62
53
  6
CONTINUOUS
  0
LAYER
  2
206
 70
64
 62
253
  6
CONTINUOUS
  0
LAYER
  2
207
 70
64
 62
250
  6
CONTINUOUS
  0
LAYER
  2
208
 70
64
 62
5
  6
CONTINUOUS
  0
LAYER
  2
209
 70
64
 62
253
  6
CONTINUOUS
  0
LAYER
  2
210
 70
64
 62
253
  6
CONTINUOUS
  0
LAYER
  2
211
 70
64
 62
253
  6
CONTINUOUS
  0
LAYER
  2
212
 70
64
 62
253
  6
CONTINUOUS
  0
LAYER
  2
213
 70
64
 62
253
  6
CONTINUOUS
  0
LAYER
  2
214
 70
64
 62
253
  6
CONTINUOUS
  0
LAYER
  2
215
 70
64
 62
253
  6
CONTINUOUS
  0
LAYER
  2
216
 70
64
 62
253
  6
CONTINUOUS
  0
LAYER
  2
248
 70
64
 62
253
  6
CONTINUOUS
  0
LAYER
  2
249
 70
64
 62
253
  6
CONTINUOUS
  0
LAYER
  2
254
 70
64
 62
253
  6
CONTINUOUS
  0
ENDTAB
  0
ENDSEC
  0
SECTION
  2
BLOCKS
  0
BLOCK
  8
0
  2
RECT
 70
64
 10
0.0000
 20
0.0000
 30
0.0000
  3
RECT
  0
SOLID
  8
0
 10
-0.5000
 20
-0.5000
 30
0.0000
 11
0.5000
 21
-0.5000
 31
0.0000
 12
-0.5000
 22
0.5000
 32
0.0000
 13
0.5000
 23
0.5000
 33
0.0000
  0
ENDBLK
  8
0
  0
BLOCK
  8
0
  2
PIE
 70
64
 10
0.0000
 20
0.0000
 30
0.0000
  3
PIE
  0
POLYLINE
  8
0
 66
1
 10
0.0000
 20
0.0000
 30
0.0000
 40
0.5000
 41
0.5000
 70
0
  0
VERTEX
  8
0
 10
0.0000
 20
-0.2500
 30
0.0000
 42
1.0000
  0
VERTEX
  8
0
 10
0.0000
 20
0.2500
 30
0.0000
 42
1.0000
  0
VERTEX
  8
0
 10
0.0000
 20
-0.2500
 30
0.0000
  0
SEQEND
  8
0
  0
ENDBLK
  8
0
  0
BLOCK
  8
0
  2
OCTAGONP
 70
64
 10
0.0000
 20
0.0000
 30
0.0000
  3
OCTAGONP
  0
POLYLINE
  8
0
 66
1
 10
0.0000
 20
0.0000
 30
0.0000
 40
0.5000
 41
0.5000
 70
0
  0
VERTEX
  8
0
 10
-0.2500
 20
-0.1036
 30
0.0000
  0
VERTEX
  8
0
 10
-0.2500
 20
0.1036
 30
0.0000
  0
VERTEX
  8
0
 10
-0.1036
 20
0.2500
 30
0.0000
  0
VERTEX
  8
0
 10
0.1036
 20
0.2500
 30
0.0000
  0
VERTEX
  8
0
 10
0.2500
 20
0.1036
 30
0.0000
  0
VERTEX
  8
0
 10
0.2500
 20
-0.1036
 30
0.0000
  0
VERTEX
  8
0
 10
0.1036
 20
-0.2500
 30
0.0000
  0
VERTEX
  8
0
 10
-0.1036
 20
-0.2500
 30
0.0000
  0
VERTEX
  8
0
 10
-0.2500
 20
-0.1036
 30
0.0000
  0
VERTEX
  8
0
 10
-0.2500
 20
0.1036
 30
0.0000
  0
SEQEND
  8
0
  0
ENDBLK
  8
0
  0
BLOCK
  8
0
  2
SQUAREP
 70
64
 10
0.0000
 20
0.0000
 30
0.0000
  3
SQUAREP
  0
SOLID
  8
0
 10
-0.5000
 20
-0.5000
 30
0.0000
 11
0.5000
 21
-0.5000
 31
0.0000
 12
-0.5000
 22
0.5000
 32
0.0000
 13
0.5000
 23
0.5000
 33
0.0000
  0
ENDBLK
  8
0
  0
BLOCK
  8
0
  2
ROUNDP
 70
64
 10
0.0000
 20
0.0000
 30
0.0000
  3
ROUNDP
  0
POLYLINE
  8
0
 66
1
 10
0.0000
 20
0.0000
 30
0.0000
 40
0.5000
 41
0.5000
 70
0
  0
VERTEX
  8
0
 10
0.0000
 20
-0.2500
 30
0.0000
 42
1.0000
  0
VERTEX
  8
0
 10
0.0000
 20
0.2500
 30
0.0000
 42
1.0000
  0
VERTEX
  8
0
 10
0.0000
 20
-0.2500
 30
0.0000
  0
SEQEND
  8
0
  0
ENDBLK
  8
0
  0
BLOCK
  8
0
  2
ANNULUSP
 70
64
 10
0.0000
 20
0.0000
 30
0.0000
  3
ANNULUSP
  0
POLYLINE
  8
0
 66
1
 10
0.0000
 20
0.0000
 30
0.0000
 40
0.5000
 41
0.5000
 70
0
  0
VERTEX
  8
0
 10
0.0000
 20
-0.2500
 30
0.0000
 42
1.0000
  0
VERTEX
  8
0
 10
0.0000
 20
0.2500
 30
0.0000
 42
1.0000
  0
VERTEX
  8
0
 10
0.0000
 20
-0.2500
 30
0.0000
  0
SEQEND
  8
0
  0
ENDBLK
  8
0
  0
BLOCK
  8
0
  2
THERMALP
 70
64
 10
0.0000
 20
0.0000
 30
0.0000
  3
THERMALP
  0
POLYLINE
  8
0
 66
1
 10
0.0000
 20
0.0000
 30
0.0000
 40
0.1000
 41
0.1000
 70
0
  0
VERTEX
  8
0
 10
-0.2379
 20
0.4500
 30
0.0000
  0
VERTEX
  8
0
 10
0.2379
 20
0.4500
 30
0.0000
  0
SEQEND
  8
0
  0
POLYLINE
  8
0
 66
1
 10
0.0000
 20
0.0000
 30
0.0000
 40
0.0500
 41
0.0500
 70
0
  0
VERTEX
  8
0
 10
0.2379
 20
0.4250
 30
0.0000
 42
1.0000
  0
VERTEX
  8
0
 10
0.2379
 20
0.4750
 30
0.0000
  0
SEQEND
  8
0
  0
POLYLINE
  8
0
 66
1
 10
0.0000
 20
0.0000
 30
0.0000
 40
0.0500
 41
0.0500
 70
0
  0
VERTEX
  8
0
 10
-0.2379
 20
0.4750
 30
0.0000
 42
1.0000
  0
VERTEX
  8
0
 10
-0.2379
 20
0.4250
 30
0.0000
  0
SEQEND
  8
0
  0
POLYLINE
  8
0
 66
1
 10
0.0000
 20
0.0000
 30
0.0000
 40
0.1000
 41
0.1000
 70
0
  0
VERTEX
  8
0
 10
0.4500
 20
0.2379
 30
0.0000
  0
VERTEX
  8
0
 10
0.4500
 20
-0.2379
 30
0.0000
  0
SEQEND
  8
0
  0
POLYLINE
  8
0
 66
1
 10
0.0000
 20
0.0000
 30
0.0000
 40
0.0500
 41
0.0500
 70
0
  0
VERTEX
  8
0
 10
0.4250
 20
-0.2379
 30
0.0000
 42
1.0000
  0
VERTEX
  8
0
 10
0.4750
 20
-0.2379
 30
0.0000
  0
SEQEND
  8
0
  0
POLYLINE
  8
0
 66
1
 10
0.0000
 20
0.0000
 30
0.0000
 40
0.0500
 41
0.0500
 70
0
  0
VERTEX
  8
0
 10
0.4750
 20
0.2379
 30
0.0000
 42
1.0000
  0
VERTEX
  8
0
 10
0.4250
 20
0.2379
 30
0.0000
  0
SEQEND
  8
0
  0
POLYLINE
  8
0
 66
1
 10
0.0000
 20
0.0000
 30
0.0000
 40
0.1000
 41
0.1000
 70
0
  0
VERTEX
  8
0
 10
0.2379
 20
-0.4500
 30
0.0000
  0
VERTEX
  8
0
 10
-0.2379
 20
-0.4500
 30
0.0000
  0
SEQEND
  8
0
  0
POLYLINE
  8
0
 66
1
 10
0.0000
 20
0.0000
 30
0.0000
 40
0.0500
 41
0.0500
 70
0
  0
VERTEX
  8
0
 10
-0.2379
 20
-0.4250
 30
0.0000
 42
1.0000
  0
VERTEX
  8
0
 10
-0.2379
 20
-0.4750
 30
0.0000
  0
SEQEND
  8
0
  0
POLYLINE
  8
0
 66
1
 10
0.0000
 20
0.0000
 30
0.0000
 40
0.0500
 41
0.0500
 70
0
  0
VERTEX
  8
0
 10
0.2379
 20
-0.4750
 30
0.0000
 42
1.0000
  0
VERTEX
  8
0
 10
0.2379
 20
-0.4250
 30
0.0000
  0
SEQEND
  8
0
  0
POLYLINE
  8
0
 66
1
 10
0.0000
 20
0.0000
 30
0.0000
 40
0.1000
 41
0.1000
 70
0
  0
VERTEX
  8
0
 10
-0.4500
 20
-0.2379
 30
0.0000
  0
VERTEX
  8
0
 10
-0.4500
 20
0.2379
 30
0.0000
  0
SEQEND
  8
0
  0
POLYLINE
  8
0
 66
1
 10
0.0000
 20
0.0000
 30
0.0000
 40
0.0500
 41
0.0500
 70
0
  0
VERTEX
  8
0
 10
-0.4250
 20
0.2379
 30
0.0000
 42
1.0000
  0
VERTEX
  8
0
 10
-0.4750
 20
0.2379
 30
0.0000
  0
SEQEND
  8
0
  0
POLYLINE
  8
0
 66
1
 10
0.0000
 20
0.0000
 30
0.0000
 40
0.0500
 41
0.0500
 70
0
  0
VERTEX
  8
0
 10
-0.4750
 20
-0.2379
 30
0.0000
 42
1.0000
  0
VERTEX
  8
0
 10
-0.4250
 20
-0.2379
 30
0.0000
  0
SEQEND
  8
0
  0
ENDBLK
  8
0
  0
BLOCK
  8
0
  2
OCTAGONV
 70
64
 10
0.0000
 20
0.0000
 30
0.0000
  3
OCTAGONV
  0
POLYLINE
  8
0
 66
1
 10
0.0000
 20
0.0000
 30
0.0000
 40
0.5000
 41
0.5000
 70
0
  0
VERTEX
  8
0
 10
-0.2500
 20
-0.1036
 30
0.0000
  0
VERTEX
  8
0
 10
-0.2500
 20
0.1036
 30
0.0000
  0
VERTEX
  8
0
 10
-0.1036
 20
0.2500
 30
0.0000
  0
VERTEX
  8
0
 10
0.1036
 20
0.2500
 30
0.0000
  0
VERTEX
  8
0
 10
0.2500
 20
0.1036
 30
0.0000
  0
VERTEX
  8
0
 10
0.2500
 20
-0.1036
 30
0.0000
  0
VERTEX
  8
0
 10
0.1036
 20
-0.2500
 30
0.0000
  0
VERTEX
  8
0
 10
-0.1036
 20
-0.2500
 30
0.0000
  0
VERTEX
  8
0
 10
-0.2500
 20
-0.1036
 30
0.0000
  0
VERTEX
  8
0
 10
-0.2500
 20
0.1036
 30
0.0000
  0
SEQEND
  8
0
  0
ENDBLK
  8
0
  0
BLOCK
  8
0
  2
SQUAREV
 70
64
 10
0.0000
 20
0.0000
 30
0.0000
  3
SQUAREV
  0
SOLID
  8
0
 10
-0.5000
 20
-0.5000
 30
0.0000
 11
0.5000
 21
-0.5000
 31
0.0000
 12
-0.5000
 22
0.5000
 32
0.0000
 13
0.5000
 23
0.5000
 33
0.0000
  0
ENDBLK
  8
0
  0
BLOCK
  8
0
  2
ROUNDV
 70
64
 10
0.0000
 20
0.0000
 30
0.0000
  3
ROUNDV
  0
POLYLINE
  8
0
 66
1
 10
0.0000
 20
0.0000
 30
0.0000
 40
0.5000
 41
0.5000
 70
0
  0
VERTEX
  8
0
 10
0.0000
 20
-0.2500
 30
0.0000
 42
1.0000
  0
VERTEX
  8
0
 10
0.0000
 20
0.2500
 30
0.0000
 42
1.0000
  0
VERTEX
  8
0
 10
0.0000
 20
-0.2500
 30
0.0000
  0
SEQEND
  8
0
  0
ENDBLK
  8
0
  0
BLOCK
  8
0
  2
ANNULUSV
 70
64
 10
0.0000
 20
0.0000
 30
0.0000
  3
ANNULUSV
  0
POLYLINE
  8
0
 66
1
 10
0.0000
 20
0.0000
 30
0.0000
 40
0.5000
 41
0.5000
 70
0
  0
VERTEX
  8
0
 10
0.0000
 20
-0.2500
 30
0.0000
 42
1.0000
  0
VERTEX
  8
0
 10
0.0000
 20
0.2500
 30
0.0000
 42
1.0000
  0
VERTEX
  8
0
 10
0.0000
 20
-0.2500
 30
0.0000
  0
SEQEND
  8
0
  0
ENDBLK
  8
0
  0
BLOCK
  8
0
  2
THERMALV
 70
64
 10
0.0000
 20
0.0000
 30
0.0000
  3
THERMALV
  0
POLYLINE
  8
0
 66
1
 10
0.0000
 20
0.0000
 30
0.0000
 40
0.1000
 41
0.1000
 70
0
  0
VERTEX
  8
0
 10
-0.2379
 20
0.4500
 30
0.0000
  0
VERTEX
  8
0
 10
0.2379
 20
0.4500
 30
0.0000
  0
SEQEND
  8
0
  0
POLYLINE
  8
0
 66
1
 10
0.0000
 20
0.0000
 30
0.0000
 40
0.0500
 41
0.0500
 70
0
  0
VERTEX
  8
0
 10
0.2379
 20
0.4250
 30
0.0000
 42
1.0000
  0
VERTEX
  8
0
 10
0.2379
 20
0.4750
 30
0.0000
  0
SEQEND
  8
0
  0
POLYLINE
  8
0
 66
1
 10
0.0000
 20
0.0000
 30
0.0000
 40
0.0500
 41
0.0500
 70
0
  0
VERTEX
  8
0
 10
-0.2379
 20
0.4750
 30
0.0000
 42
1.0000
  0
VERTEX
  8
0
 10
-0.2379
 20
0.4250
 30
0.0000
  0
SEQEND
  8
0
  0
POLYLINE
  8
0
 66
1
 10
0.0000
 20
0.0000
 30
0.0000
 40
0.1000
 41
0.1000
 70
0
  0
VERTEX
  8
0
 10
0.4500
 20
0.2379
 30
0.0000
  0
VERTEX
  8
0
 10
0.4500
 20
-0.2379
 30
0.0000
  0
SEQEND
  8
0
  0
POLYLINE
  8
0
 66
1
 10
0.0000
 20
0.0000
 30
0.0000
 40
0.0500
 41
0.0500
 70
0
  0
VERTEX
  8
0
 10
0.4250
 20
-0.2379
 30
0.0000
 42
1.0000
  0
VERTEX
  8
0
 10
0.4750
 20
-0.2379
 30
0.0000
  0
SEQEND
  8
0
  0
POLYLINE
  8
0
 66
1
 10
0.0000
 20
0.0000
 30
0.0000
 40
0.0500
 41
0.0500
 70
0
  0
VERTEX
  8
0
 10
0.4750
 20
0.2379
 30
0.0000
 42
1.0000
  0
VERTEX
  8
0
 10
0.4250
 20
0.2379
 30
0.0000
  0
SEQEND
  8
0
  0
POLYLINE
  8
0
 66
1
 10
0.0000
 20
0.0000
 30
0.0000
 40
0.1000
 41
0.1000
 70
0
  0
VERTEX
  8
0
 10
0.2379
 20
-0.4500
 30
0.0000
  0
VERTEX
  8
0
 10
-0.2379
 20
-0.4500
 30
0.0000
  0
SEQEND
  8
0
  0
POLYLINE
  8
0
 66
1
 10
0.0000
 20
0.0000
 30
0.0000
 40
0.0500
 41
0.0500
 70
0
  0
VERTEX
  8
0
 10
-0.2379
 20
-0.4250
 30
0.0000
 42
1.0000
  0
VERTEX
  8
0
 10
-0.2379
 20
-0.4750
 30
0.0000
  0
SEQEND
  8
0
  0
POLYLINE
  8
0
 66
1
 10
0.0000
 20
0.0000
 30
0.0000
 40
0.0500
 41
0.0500
 70
0
  0
VERTEX
  8
0
 10
0.2379
 20
-0.4750
 30
0.0000
 42
1.0000
  0
VERTEX
  8
0
 10
0.2379
 20
-0.4250
 30
0.0000
  0
SEQEND
  8
0
  0
POLYLINE
  8
0
 66
1
 10
0.0000
 20
0.0000
 30
0.0000
 40
0.1000
 41
0.1000
 70
0
  0
VERTEX
  8
0
 10
-0.4500
 20
-0.2379
 30
0.0000
  0
VERTEX
  8
0
 10
-0.4500
 20
0.2379
 30
0.0000
  0
SEQEND
  8
0
  0
POLYLINE
  8
0
 66
1
 10
0.0000
 20
0.0000
 30
0.0000
 40
0.0500
 41
0.0500
 70
0
  0
VERTEX
  8
0
 10
-0.4250
 20
0.2379
 30
0.0000
 42
1.0000
  0
VERTEX
  8
0
 10
-0.4750
 20
0.2379
 30
0.0000
  0
SEQEND
  8
0
  0
POLYLINE
  8
0
 66
1
 10
0.0000
 20
0.0000
 30
0.0000
 40
0.0500
 41
0.0500
 70
0
  0
VERTEX
  8
0
 10
-0.4750
 20
-0.2379
 30
0.0000
 42
1.0000
  0
VERTEX
  8
0
 10
-0.4250
 20
-0.2379
 30
0.0000
  0
SEQEND
  8
0
  0
ENDBLK
  8
0
  0
ENDSEC
  0
SECTION
  2
ENTITIES
  0
LINE
  8
20
 10
3.0000
 20
0.0000
 30
0.0000
 11
9.5000
 21
0.0000
 31
0.0000
  0
LINE
  8
20
 10
9.5000
 20
20.0000
 30
0.0000
 11
3.0000
 21
20.0000
 31
0.0000
  0
LINE
  8
20
 10
0.0000
 20
17.0000
 30
0.0000
 11
0.0000
 21
7.2000
 31
0.0000
  0
ARC
  8
20
 10
9.5000
 20
13.5000
 30
0.0000
 40
6.5000
 50
0.0000
 51
90.0000
  0
LINE
  8
20
 10
16.0000
 20
13.5000
 30
0.0000
 11
16.0000
 21
6.5000
 31
0.0000
  0
ARC
  8
20
 10
9.5000
 20
6.5000
 30
0.0000
 40
6.5000
 50
270.0000
 51
0.0000
  0
ARC
  8
20
 10
3.0000
 20
17.0000
 30
0.0000
 40
3.0000
 50
90.0000
 51
180.0000
  0
ARC
  8
20
 10
3.0000
 20
3.0000
 30
0.0000
 40
3.0000
 50
180.0000
 51
270.0000
  0
LINE
  8
20
 10
0.0000
 20
3.0000
 30
0.0000
 11
0.0000
 21
7.2000
 31
0.0000
  0
POLYLINE
  8
21
 66
1
 10
0.0000
 20
0.0000
 30
0.0000
 40
0.0508
 41
0.0508
 70
0
  0
VERTEX
  8
21
 10
15.1181
 20
13.5143
 30
0.0000
  0
VERTEX
  8
21
 10
15.0249
 20
13.4211
 30
0.0000
  0
SEQEND
  8
0
  0
POLYLINE
  8
21
 66
1
 10
0.0000
 20
0.0000
 30
0.0000
 40
0.0254
 41
0.0254
 70
0
  0
VERTEX
  8
21
 10
15.0159
 20
13.4301
 30
0.0000
 42
1.0000
  0
VERTEX
  8
21
 10
15.0339
 20
13.4121
 30
0.0000
  0
SEQEND
  8
0
  0
POLYLINE
  8
21
 66
1
 10
0.0000
 20
0.0000
 30
0.0000
 40
0.0254
 41
0.0254
 70
0
  0
VERTEX
  8
21
 10
15.1271
 20
13.5053
 30
0.0000
 42
1.0000
  0
VERTEX
  8
21
 10
15.1092
 20
13.5233
 30
0.0000
  0
SEQEND
  8
0
  0
POLYLINE
  8
21
 66
1
 10
0.0000
 20
0.0000
 30
0.0000
 40
0.0508
 41
0.0508
 70
0
  0
VERTEX
  8
21
 10
15.0249
 20
13.4211
 30
0.0000
  0
VERTEX
  8
21
 10
15.0249
 20
13.2347
 30
0.0000
  0
SEQEND
  8
0
  0
POLYLINE
  8
21
 66
1
 10
0.0000
 20
0.0000
 30
0.0000
 40
0.0254
 41
0.0254
 70
0
  0
VERTEX
  8
21
 10
15.0122
 20
13.2347
 30
0.0000
 42
1.0000
  0
VERTEX
  8
21
 10
15.0376
 20
13.2347
 30
0.0000
  0
SEQEND
  8
0
  0
POLYLINE
  8
21
 66
1
 10
0.0000
 20
0.0000
 30
0.0000
 40
0.0254
 41
0.0254
 70
0
  0
VERTEX
  8
21
 10
15.0376
 20
13.4211
 30
0.0000
 42
1.0000
  0
VERTEX
  8
21
 10
15.0122
 20
13.4211
 30
0.0000
  0
SEQEND
  8
0
  0
POLYLINE
  8
21
 66
1
 10
0.0000
 20
0.0000
 30
0.0000
 40
0.0508
 41
0.0508
 70
0
  0
VERTEX
  8
21
 10
15.0249
 20
13.2347
 30
0.0000
  0
VERTEX
  8
21
 10
15.1181
 20
13.1415
 30
0.0000
  0
SEQEND
  8
0
  0
POLYLINE
  8
21
 66
1
 10
0.0000
 20
0.0000
 30
0.0000
 40
0.0254
 41
0.0254
 70
0
  0
VERTEX
  8
21
 10
15.1092
 20
13.1325
 30
0.0000
 42
1.0000
  0
VERTEX
  8
21
 10
15.1271
 20
13.1504
 30
0.0000
  0
SEQEND
  8
0
  0
POLYLINE
  8
21
 66
1
 10
0.0000
 20
0.0000
 30
0.0000
 40
0.0254
 41
0.0254
 70
0
  0
VERTEX
  8
21
 10
15.0339
 20
13.2437
 30
0.0000
 42
1.0000
  0
VERTEX
  8
21
 10
15.0159
 20
13.2257
 30
0.0000
  0
SEQEND
  8
0
  0
POLYLINE
  8
21
 66
1
 10
0.0000
 20
0.0000
 30
0.0000
 40
0.0508
 41
0.0508
 70
0
  0
VERTEX
  8
21
 10
15.1181
 20
13.1415
 30
0.0000
  0
VERTEX
  8
21
 10
15.4910
 20
13.1415
 30
0.0000
  0
SEQEND
  8
0
  0
POLYLINE
  8
21
 66
1
 10
0.0000
 20
0.0000
 30
0.0000
 40
0.0254
 41
0.0254
 70
0
  0
VERTEX
  8
21
 10
15.4910
 20
13.1288
 30
0.0000
 42
1.0000
  0
VERTEX
  8
21
 10
15.4910
 20
13.1542
 30
0.0000
  0
SEQEND
  8
0
  0
POLYLINE
  8
21
 66
1
 10
0.0000
 20
0.0000
 30
0.0000
 40
0.0254
 41
0.0254
 70
0
  0
VERTEX
  8
21
 10
15.1181
 20
13.1542
 30
0.0000
 42
1.0000
  0
VERTEX
  8
21
 10
15.1181
 20
13.1288
 30
0.0000
  0
SEQEND
  8
0
  0
POLYLINE
  8
21
 66
1
 10
0.0000
 20
0.0000
 30
0.0000
 40
0.0508
 41
0.0508
 70
0
  0
VERTEX
  8
21
 10
15.4910
 20
13.1415
 30
0.0000
  0
VERTEX
  8
21
 10
15.5842
 20
13.2347
 30
0.0000
  0
SEQEND
  8
0
  0
POLYLINE
  8
21
 66
1
 10
0.0000
 20
0.0000
 30
0.0000
 40
0.0254
 41
0.0254
 70
0
  0
VERTEX
  8
21
 10
15.5932
 20
13.2257
 30
0.0000
 42
1.0000
  0
VERTEX
  8
21
 10
15.5752
 20
13.2437
 30
0.0000
  0
SEQEND
  8
0
  0
POLYLINE
  8
21
 66
1
 10
0.0000
 20
0.0000
 30
0.0000
 40
0.0254
 41
0.0254
 70
0
  0
VERTEX
  8
21
 10
15.4820
 20
13.1504
 30
0.0000
 42
1.0000
  0
VERTEX
  8
21
 10
15.5000
 20
13.1325
 30
0.0000
  0
SEQEND
  8
0
  0
POLYLINE
  8
21
 66
1
 10
0.0000
 20
0.0000
 30
0.0000
 40
0.0508
 41
0.0508
 70
0
  0
VERTEX
  8
21
 10
15.5842
 20
13.2347
 30
0.0000
  0
VERTEX
  8
21
 10
15.5842
 20
13.4211
 30
0.0000
  0
SEQEND
  8
0
  0
POLYLINE
  8
21
 66
1
 10
0.0000
 20
0.0000
 30
0.0000
 40
0.0254
 41
0.0254
 70
0
  0
VERTEX
  8
21
 10
15.5969
 20
13.4211
 30
0.0000
 42
1.0000
  0
VERTEX
  8
21
 10
15.5715
 20
13.4211
 30
0.0000
  0
SEQEND
  8
0
  0
POLYLINE
  8
21
 66
1
 10
0.0000
 20
0.0000
 30
0.0000
 40
0.0254
 41
0.0254
 70
0
  0
VERTEX
  8
21
 10
15.5715
 20
13.2347
 30
0.0000
 42
1.0000
  0
VERTEX
  8
21
 10
15.5969
 20
13.2347
 30
0.0000
  0
SEQEND
  8
0
  0
POLYLINE
  8
21
 66
1
 10
0.0000
 20
0.0000
 30
0.0000
 40
0.0508
 41
0.0508
 70
0
  0
VERTEX
  8
21
 10
15.5842
 20
13.4211
 30
0.0000
  0
VERTEX
  8
21
 10
15.4910
 20
13.5143
 30
0.0000
  0
SEQEND
  8
0
  0
POLYLINE
  8
21
 66
1
 10
0.0000
 20
0.0000
 30
0.0000
 40
0.0254
 41
0.0254
 70
0
  0
VERTEX
  8
21
 10
15.5000
 20
13.5233
 30
0.0000
 42
1.0000
  0
VERTEX
  8
21
 10
15.4820
 20
13.5053
 30
0.0000
  0
SEQEND
  8
0
  0
POLYLINE
  8
21
 66
1
 10
0.0000
 20
0.0000
 30
0.0000
 40
0.0254
 41
0.0254
 70
0
  0
VERTEX
  8
21
 10
15.5752
 20
13.4121
 30
0.0000
 42
1.0000
  0
VERTEX
  8
21
 10
15.5932
 20
13.4301
 30
0.0000
  0
SEQEND
  8
0
  0
POLYLINE
  8
21
 66
1
 10
0.0000
 20
0.0000
 30
0.0000
 40
0.0508
 41
0.0508
 70
0
  0
VERTEX
  8
21
 10
15.4910
 20
13.5143
 30
0.0000
  0
VERTEX
  8
21
 10
15.3046
 20
13.5143
 30
0.0000
  0
SEQEND
  8
0
  0
POLYLINE
  8
21
 66
1
 10
0.0000
 20
0.0000
 30
0.0000
 40
0.0254
 41
0.0254
 70
0
  0
VERTEX
  8
21
 10
15.3046
 20
13.5270
 30
0.0000
 42
1.0000
  0
VERTEX
  8
21
 10
15.3046
 20
13.5016
 30
0.0000
  0
SEQEND
  8
0
  0
POLYLINE
  8
21
 66
1
 10
0.0000
 20
0.0000
 30
0.0000
 40
0.0254
 41
0.0254
 70
0
  0
VERTEX
  8
21
 10
15.4910
 20
13.5016
 30
0.0000
 42
1.0000
  0
VERTEX
  8
21
 10
15.4910
 20
13.5270
 30
0.0000
  0
SEQEND
  8
0
  0
POLYLINE
  8
21
 66
1
 10
0.0000
 20
0.0000
 30
0.0000
 40
0.0508
 41
0.0508
 70
0
  0
VERTEX
  8
21
 10
15.3046
 20
13.5143
 30
0.0000
  0
VERTEX
  8
21
 10
15.3046
 20
13.3279
 30
0.0000
  0
SEQEND
  8
0
  0
POLYLINE
  8
21
 66
1
 10
0.0000
 20
0.0000
 30
0.0000
 40
0.0254
 41
0.0254
 70
0
  0
VERTEX
  8
21
 10
15.2919
 20
13.3279
 30
0.0000
 42
1.0000
  0
VERTEX
  8
21
 10
15.3173
 20
13.3279
 30
0.0000
  0
SEQEND
  8
0
  0
POLYLINE
  8
21
 66
1
 10
0.0000
 20
0.0000
 30
0.0000
 40
0.0254
 41
0.0254
 70
0
  0
VERTEX
  8
21
 10
15.3173
 20
13.5143
 30
0.0000
 42
1.0000
  0
VERTEX
  8
21
 10
15.2919
 20
13.5143
 30
0.0000
  0
SEQEND
  8
0
  0
POLYLINE
  8
21
 66
1
 10
0.0000
 20
0.0000
 30
0.0000
 40
0.0508
 41
0.0508
 70
0
  0
VERTEX
  8
21
 10
15.5842
 20
13.7028
 30
0.0000
  0
VERTEX
  8
21
 10
15.0249
 20
13.7028
 30
0.0000
  0
SEQEND
  8
0
  0
POLYLINE
  8
21
 66
1
 10
0.0000
 20
0.0000
 30
0.0000
 40
0.0254
 41
0.0254
 70
0
  0
VERTEX
  8
21
 10
15.0249
 20
13.7155
 30
0.0000
 42
1.0000
  0
VERTEX
  8
21
 10
15.0249
 20
13.6901
 30
0.0000
  0
SEQEND
  8
0
  0
POLYLINE
  8
21
 66
1
 10
0.0000
 20
0.0000
 30
0.0000
 40
0.0254
 41
0.0254
 70
0
  0
VERTEX
  8
21
 10
15.5842
 20
13.6901
 30
0.0000
 42
1.0000
  0
VERTEX
  8
21
 10
15.5842
 20
13.7155
 30
0.0000
  0
SEQEND
  8
0
  0
POLYLINE
  8
21
 66
1
 10
0.0000
 20
0.0000
 30
0.0000
 40
0.0508
 41
0.0508
 70
0
  0
VERTEX
  8
21
 10
15.0249
 20
13.7028
 30
0.0000
  0
VERTEX
  8
21
 10
15.5842
 20
14.0756
 30
0.0000
  0
SEQEND
  8
0
  0
POLYLINE
  8
21
 66
1
 10
0.0000
 20
0.0000
 30
0.0000
 40
0.0254
 41
0.0254
 70
0
  0
VERTEX
  8
21
 10
15.5912
 20
14.0651
 30
0.0000
 42
1.0000
  0
VERTEX
  8
21
 10
15.5772
 20
14.0862
 30
0.0000
  0
SEQEND
  8
0
  0
POLYLINE
  8
21
 66
1
 10
0.0000
 20
0.0000
 30
0.0000
 40
0.0254
 41
0.0254
 70
0
  0
VERTEX
  8
21
 10
15.0179
 20
13.7133
 30
0.0000
 42
1.0000
  0
VERTEX
  8
21
 10
15.0320
 20
13.6922
 30
0.0000
  0
SEQEND
  8
0
  0
POLYLINE
  8
21
 66
1
 10
0.0000
 20
0.0000
 30
0.0000
 40
0.0508
 41
0.0508
 70
0
  0
VERTEX
  8
21
 10
15.5842
 20
14.0756
 30
0.0000
  0
VERTEX
  8
21
 10
15.0249
 20
14.0756
 30
0.0000
  0
SEQEND
  8
0
  0
POLYLINE
  8
21
 66
1
 10
0.0000
 20
0.0000
 30
0.0000
 40
0.0254
 41
0.0254
 70
0
  0
VERTEX
  8
21
 10
15.0249
 20
14.0883
 30
0.0000
 42
1.0000
  0
VERTEX
  8
21
 10
15.0249
 20
14.0629
 30
0.0000
  0
SEQEND
  8
0
  0
POLYLINE
  8
21
 66
1
 10
0.0000
 20
0.0000
 30
0.0000
 40
0.0254
 41
0.0254
 70
0
  0
VERTEX
  8
21
 10
15.5842
 20
14.0629
 30
0.0000
 42
1.0000
  0
VERTEX
  8
21
 10
15.5842
 20
14.0883
 30
0.0000
  0
SEQEND
  8
0
  0
POLYLINE
  8
21
 66
1
 10
0.0000
 20
0.0000
 30
0.0000
 40
0.0508
 41
0.0508
 70
0
  0
VERTEX
  8
21
 10
15.0249
 20
14.2641
 30
0.0000
  0
VERTEX
  8
21
 10
15.5842
 20
14.2641
 30
0.0000
  0
SEQEND
  8
0
  0
POLYLINE
  8
21
 66
1
 10
0.0000
 20
0.0000
 30
0.0000
 40
0.0254
 41
0.0254
 70
0
  0
VERTEX
  8
21
 10
15.5842
 20
14.2514
 30
0.0000
 42
1.0000
  0
VERTEX
  8
21
 10
15.5842
 20
14.2768
 30
0.0000
  0
SEQEND
  8
0
  0
POLYLINE
  8
21
 66
1
 10
0.0000
 20
0.0000
 30
0.0000
 40
0.0254
 41
0.0254
 70
0
  0
VERTEX
  8
21
 10
15.0249
 20
14.2768
 30
0.0000
 42
1.0000
  0
VERTEX
  8
21
 10
15.0249
 20
14.2514
 30
0.0000
  0
SEQEND
  8
0
  0
POLYLINE
  8
21
 66
1
 10
0.0000
 20
0.0000
 30
0.0000
 40
0.0508
 41
0.0508
 70
0
  0
VERTEX
  8
21
 10
15.5842
 20
14.2641
 30
0.0000
  0
VERTEX
  8
21
 10
15.5842
 20
14.5437
 30
0.0000
  0
SEQEND
  8
0
  0
POLYLINE
  8
21
 66
1
 10
0.0000
 20
0.0000
 30
0.0000
 40
0.0254
 41
0.0254
 70
0
  0
VERTEX
  8
21
 10
15.5969
 20
14.5437
 30
0.0000
 42
1.0000
  0
VERTEX
  8
21
 10
15.5715
 20
14.5437
 30
0.0000
  0
SEQEND
  8
0
  0
POLYLINE
  8
21
 66
1
 10
0.0000
 20
0.0000
 30
0.0000
 40
0.0254
 41
0.0254
 70
0
  0
VERTEX
  8
21
 10
15.5715
 20
14.2641
 30
0.0000
 42
1.0000
  0
VERTEX
  8
21
 10
15.5969
 20
14.2641
 30
0.0000
  0
SEQEND
  8
0
  0
POLYLINE
  8
21
 66
1
 10
0.0000
 20
0.0000
 30
0.0000
 40
0.0508
 41
0.0508
 70
0
  0
VERTEX
  8
21
 10
15.5842
 20
14.5437
 30
0.0000
  0
VERTEX
  8
21
 10
15.4910
 20
14.6369
 30
0.0000
  0
SEQEND
  8
0
  0
POLYLINE
  8
21
 66
1
 10
0.0000
 20
0.0000
 30
0.0000
 40
0.0254
 41
0.0254
 70
0
  0
VERTEX
  8
21
 10
15.5000
 20
14.6459
 30
0.0000
 42
1.0000
  0
VERTEX
  8
21
 10
15.4820
 20
14.6280
 30
0.0000
  0
SEQEND
  8
0
  0
POLYLINE
  8
21
 66
1
 10
0.0000
 20
0.0000
 30
0.0000
 40
0.0254
 41
0.0254
 70
0
  0
VERTEX
  8
21
 10
15.5752
 20
14.5347
 30
0.0000
 42
1.0000
  0
VERTEX
  8
21
 10
15.5932
 20
14.5527
 30
0.0000
  0
SEQEND
  8
0
  0
POLYLINE
  8
21
 66
1
 10
0.0000
 20
0.0000
 30
0.0000
 40
0.0508
 41
0.0508
 70
0
  0
VERTEX
  8
21
 10
15.4910
 20
14.6369
 30
0.0000
  0
VERTEX
  8
21
 10
15.1181
 20
14.6369
 30
0.0000
  0
SEQEND
  8
0
  0
POLYLINE
  8
21
 66
1
 10
0.0000
 20
0.0000
 30
0.0000
 40
0.0254
 41
0.0254
 70
0
  0
VERTEX
  8
21
 10
15.1181
 20
14.6496
 30
0.0000
 42
1.0000
  0
VERTEX
  8
21
 10
15.1181
 20
14.6242
 30
0.0000
  0
SEQEND
  8
0
  0
POLYLINE
  8
21
 66
1
 10
0.0000
 20
0.0000
 30
0.0000
 40
0.0254
 41
0.0254
 70
0
  0
VERTEX
  8
21
 10
15.4910
 20
14.6242
 30
0.0000
 42
1.0000
  0
VERTEX
  8
21
 10
15.4910
 20
14.6496
 30
0.0000
  0
SEQEND
  8
0
  0
POLYLINE
  8
21
 66
1
 10
0.0000
 20
0.0000
 30
0.0000
 40
0.0508
 41
0.0508
 70
0
  0
VERTEX
  8
21
 10
15.1181
 20
14.6369
 30
0.0000
  0
VERTEX
  8
21
 10
15.0249
 20
14.5437
 30
0.0000
  0
SEQEND
  8
0
  0
POLYLINE
  8
21
 66
1
 10
0.0000
 20
0.0000
 30
0.0000
 40
0.0254
 41
0.0254
 70
0
  0
VERTEX
  8
21
 10
15.0159
 20
14.5527
 30
0.0000
 42
1.0000
  0
VERTEX
  8
21
 10
15.0339
 20
14.5347
 30
0.0000
  0
SEQEND
  8
0
  0
POLYLINE
  8
21
 66
1
 10
0.0000
 20
0.0000
 30
0.0000
 40
0.0254
 41
0.0254
 70
0
  0
VERTEX
  8
21
 10
15.1271
 20
14.6280
 30
0.0000
 42
1.0000
  0
VERTEX
  8
21
 10
15.1092
 20
14.6459
 30
0.0000
  0
SEQEND
  8
0
  0
POLYLINE
  8
21
 66
1
 10
0.0000
 20
0.0000
 30
0.0000
 40
0.0508
 41
0.0508
 70
0
  0
VERTEX
  8
21
 10
15.0249
 20
14.5437
 30
0.0000
  0
VERTEX
  8
21
 10
15.0249
 20
14.2641
 30
0.0000
  0
SEQEND
  8
0
  0
POLYLINE
  8
21
 66
1
 10
0.0000
 20
0.0000
 30
0.0000
 40
0.0254
 41
0.0254
 70
0
  0
VERTEX
  8
21
 10
15.0122
 20
14.2641
 30
0.0000
 42
1.0000
  0
VERTEX
  8
21
 10
15.0376
 20
14.2641
 30
0.0000
  0
SEQEND
  8
0
  0
POLYLINE
  8
21
 66
1
 10
0.0000
 20
0.0000
 30
0.0000
 40
0.0254
 41
0.0254
 70
0
  0
VERTEX
  8
21
 10
15.0376
 20
14.5437
 30
0.0000
 42
1.0000
  0
VERTEX
  8
21
 10
15.0122
 20
14.5437
 30
0.0000
  0
SEQEND
  8
0
  0
POLYLINE
  8
21
 66
1
 10
0.0000
 20
0.0000
 30
0.0000
 40
0.0508
 41
0.0508
 70
0
  0
VERTEX
  8
21
 10
15.1181
 20
10.3415
 30
0.0000
  0
VERTEX
  8
21
 10
15.0249
 20
10.4347
 30
0.0000
  0
SEQEND
  8
0
  0
POLYLINE
  8
21
 66
1
 10
0.0000
 20
0.0000
 30
0.0000
 40
0.0254
 41
0.0254
 70
0
  0
VERTEX
  8
21
 10
15.0339
 20
10.4437
 30
0.0000
 42
1.0000
  0
VERTEX
  8
21
 10
15.0159
 20
10.4257
 30
0.0000
  0
SEQEND
  8
0
  0
POLYLINE
  8
21
 66
1
 10
0.0000
 20
0.0000
 30
0.0000
 40
0.0254
 41
0.0254
 70
0
  0
VERTEX
  8
21
 10
15.1092
 20
10.3325
 30
0.0000
 42
1.0000
  0
VERTEX
  8
21
 10
15.1271
 20
10.3504
 30
0.0000
  0
SEQEND
  8
0
  0
POLYLINE
  8
21
 66
1
 10
0.0000
 20
0.0000
 30
0.0000
 40
0.0508
 41
0.0508
 70
0
  0
VERTEX
  8
21
 10
15.0249
 20
10.4347
 30
0.0000
  0
VERTEX
  8
21
 10
15.0249
 20
10.6211
 30
0.0000
  0
SEQEND
  8
0
  0
POLYLINE
  8
21
 66
1
 10
0.0000
 20
0.0000
 30
0.0000
 40
0.0254
 41
0.0254
 70
0
  0
VERTEX
  8
21
 10
15.0376
 20
10.6211
 30
0.0000
 42
1.0000
  0
VERTEX
  8
21
 10
15.0122
 20
10.6211
 30
0.0000
  0
SEQEND
  8
0
  0
POLYLINE
  8
21
 66
1
 10
0.0000
 20
0.0000
 30
0.0000
 40
0.0254
 41
0.0254
 70
0
  0
VERTEX
  8
21
 10
15.0122
 20
10.4347
 30
0.0000
 42
1.0000
  0
VERTEX
  8
21
 10
15.0376
 20
10.4347
 30
0.0000
  0
SEQEND
  8
0
  0
POLYLINE
  8
21
 66
1
 10
0.0000
 20
0.0000
 30
0.0000
 40
0.0508
 41
0.0508
 70
0
  0
VERTEX
  8
21
 10
15.0249
 20
10.6211
 30
0.0000
  0
VERTEX
  8
21
 10
15.1181
 20
10.7143
 30
0.0000
  0
SEQEND
  8
0
  0
POLYLINE
  8
21
 66
1
 10
0.0000
 20
0.0000
 30
0.0000
 40
0.0254
 41
0.0254
 70
0
  0
VERTEX
  8
21
 10
15.1271
 20
10.7053
 30
0.0000
 42
1.0000
  0
VERTEX
  8
21
 10
15.1092
 20
10.7233
 30
0.0000
  0
SEQEND
  8
0
  0
POLYLINE
  8
21
 66
1
 10
0.0000
 20
0.0000
 30
0.0000
 40
0.0254
 41
0.0254
 70
0
  0
VERTEX
  8
21
 10
15.0159
 20
10.6301
 30
0.0000
 42
1.0000
  0
VERTEX
  8
21
 10
15.0339
 20
10.6121
 30
0.0000
  0
SEQEND
  8
0
  0
POLYLINE
  8
21
 66
1
 10
0.0000
 20
0.0000
 30
0.0000
 40
0.0508
 41
0.0508
 70
0
  0
VERTEX
  8
21
 10
15.1181
 20
10.7143
 30
0.0000
  0
VERTEX
  8
21
 10
15.2114
 20
10.7143
 30
0.0000
  0
SEQEND
  8
0
  0
POLYLINE
  8
21
 66
1
 10
0.0000
 20
0.0000
 30
0.0000
 40
0.0254
 41
0.0254
 70
0
  0
VERTEX
  8
21
 10
15.2114
 20
10.7016
 30
0.0000
 42
1.0000
  0
VERTEX
  8
21
 10
15.2114
 20
10.7270
 30
0.0000
  0
SEQEND
  8
0
  0
POLYLINE
  8
21
 66
1
 10
0.0000
 20
0.0000
 30
0.0000
 40
0.0254
 41
0.0254
 70
0
  0
VERTEX
  8
21
 10
15.1181
 20
10.7270
 30
0.0000
 42
1.0000
  0
VERTEX
  8
21
 10
15.1181
 20
10.7016
 30
0.0000
  0
SEQEND
  8
0
  0
POLYLINE
  8
21
 66
1
 10
0.0000
 20
0.0000
 30
0.0000
 40
0.0508
 41
0.0508
 70
0
  0
VERTEX
  8
21
 10
15.2114
 20
10.7143
 30
0.0000
  0
VERTEX
  8
21
 10
15.3046
 20
10.6211
 30
0.0000
  0
SEQEND
  8
0
  0
POLYLINE
  8
21
 66
1
 10
0.0000
 20
0.0000
 30
0.0000
 40
0.0254
 41
0.0254
 70
0
  0
VERTEX
  8
21
 10
15.2956
 20
10.6121
 30
0.0000
 42
1.0000
  0
VERTEX
  8
21
 10
15.3135
 20
10.6301
 30
0.0000
  0
SEQEND
  8
0
  0
POLYLINE
  8
21
 66
1
 10
0.0000
 20
0.0000
 30
0.0000
 40
0.0254
 41
0.0254
 70
0
  0
VERTEX
  8
21
 10
15.2203
 20
10.7233
 30
0.0000
 42
1.0000
  0
VERTEX
  8
21
 10
15.2024
 20
10.7053
 30
0.0000
  0
SEQEND
  8
0
  0
POLYLINE
  8
21
 66
1
 10
0.0000
 20
0.0000
 30
0.0000
 40
0.0508
 41
0.0508
 70
0
  0
VERTEX
  8
21
 10
15.3046
 20
10.6211
 30
0.0000
  0
VERTEX
  8
21
 10
15.3046
 20
10.5279
 30
0.0000
  0
SEQEND
  8
0
  0
POLYLINE
  8
21
 66
1
 10
0.0000
 20
0.0000
 30
0.0000
 40
0.0254
 41
0.0254
 70
0
  0
VERTEX
  8
21
 10
15.2919
 20
10.5279
 30
0.0000
 42
1.0000
  0
VERTEX
  8
21
 10
15.3173
 20
10.5279
 30
0.0000
  0
SEQEND
  8
0
  0
POLYLINE
  8
21
 66
1
 10
0.0000
 20
0.0000
 30
0.0000
 40
0.0254
 41
0.0254
 70
0
  0
VERTEX
  8
21
 10
15.3173
 20
10.6211
 30
0.0000
 42
1.0000
  0
VERTEX
  8
21
 10
15.2919
 20
10.6211
 30
0.0000
  0
SEQEND
  8
0
  0
POLYLINE
  8
21
 66
1
 10
0.0000
 20
0.0000
 30
0.0000
 40
0.0508
 41
0.0508
 70
0
  0
VERTEX
  8
21
 10
15.3046
 20
10.6211
 30
0.0000
  0
VERTEX
  8
21
 10
15.3978
 20
10.7143
 30
0.0000
  0
SEQEND
  8
0
  0
POLYLINE
  8
21
 66
1
 10
0.0000
 20
0.0000
 30
0.0000
 40
0.0254
 41
0.0254
 70
0
  0
VERTEX
  8
21
 10
15.4068
 20
10.7053
 30
0.0000
 42
1.0000
  0
VERTEX
  8
21
 10
15.3888
 20
10.7233
 30
0.0000
  0
SEQEND
  8
0
  0
POLYLINE
  8
21
 66
1
 10
0.0000
 20
0.0000
 30
0.0000
 40
0.0254
 41
0.0254
 70
0
  0
VERTEX
  8
21
 10
15.2956
 20
10.6301
 30
0.0000
 42
1.0000
  0
VERTEX
  8
21
 10
15.3135
 20
10.6121
 30
0.0000
  0
SEQEND
  8
0
  0
POLYLINE
  8
21
 66
1
 10
0.0000
 20
0.0000
 30
0.0000
 40
0.0508
 41
0.0508
 70
0
  0
VERTEX
  8
21
 10
15.3978
 20
10.7143
 30
0.0000
  0
VERTEX
  8
21
 10
15.4910
 20
10.7143
 30
0.0000
  0
SEQEND
  8
0
  0
POLYLINE
  8
21
 66
1
 10
0.0000
 20
0.0000
 30
0.0000
 40
0.0254
 41
0.0254
 70
0
  0
VERTEX
  8
21
 10
15.4910
 20
10.7016
 30
0.0000
 42
1.0000
  0
VERTEX
  8
21
 10
15.4910
 20
10.7270
 30
0.0000
  0
SEQEND
  8
0
  0
POLYLINE
  8
21
 66
1
 10
0.0000
 20
0.0000
 30
0.0000
 40
0.0254
 41
0.0254
 70
0
  0
VERTEX
  8
21
 10
15.3978
 20
10.7270
 30
0.0000
 42
1.0000
  0
VERTEX
  8
21
 10
15.3978
 20
10.7016
 30
0.0000
  0
SEQEND
  8
0
  0
POLYLINE
  8
21
 66
1
 10
0.0000
 20
0.0000
 30
0.0000
 40
0.0508
 41
0.0508
 70
0
  0
VERTEX
  8
21
 10
15.4910
 20
10.7143
 30
0.0000
  0
VERTEX
  8
21
 10
15.5842
 20
10.6211
 30
0.0000
  0
SEQEND
  8
0
  0
POLYLINE
  8
21
 66
1
 10
0.0000
 20
0.0000
 30
0.0000
 40
0.0254
 41
0.0254
 70
0
  0
VERTEX
  8
21
 10
15.5752
 20
10.6121
 30
0.0000
 42
1.0000
  0
VERTEX
  8
21
 10
15.5932
 20
10.6301
 30
0.0000
  0
SEQEND
  8
0
  0
POLYLINE
  8
21
 66
1
 10
0.0000
 20
0.0000
 30
0.0000
 40
0.0254
 41
0.0254
 70
0
  0
VERTEX
  8
21
 10
15.5000
 20
10.7233
 30
0.0000
 42
1.0000
  0
VERTEX
  8
21
 10
15.4820
 20
10.7053
 30
0.0000
  0
SEQEND
  8
0
  0
POLYLINE
  8
21
 66
1
 10
0.0000
 20
0.0000
 30
0.0000
 40
0.0508
 41
0.0508
 70
0
  0
VERTEX
  8
21
 10
15.5842
 20
10.6211
 30
0.0000
  0
VERTEX
  8
21
 10
15.5842
 20
10.4347
 30
0.0000
  0
SEQEND
  8
0
  0
POLYLINE
  8
21
 66
1
 10
0.0000
 20
0.0000
 30
0.0000
 40
0.0254
 41
0.0254
 70
0
  0
VERTEX
  8
21
 10
15.5715
 20
10.4347
 30
0.0000
 42
1.0000
  0
VERTEX
  8
21
 10
15.5969
 20
10.4347
 30
0.0000
  0
SEQEND
  8
0
  0
POLYLINE
  8
21
 66
1
 10
0.0000
 20
0.0000
 30
0.0000
 40
0.0254
 41
0.0254
 70
0
  0
VERTEX
  8
21
 10
15.5969
 20
10.6211
 30
0.0000
 42
1.0000
  0
VERTEX
  8
21
 10
15.5715
 20
10.6211
 30
0.0000
  0
SEQEND
  8
0
  0
POLYLINE
  8
21
 66
1
 10
0.0000
 20
0.0000
 30
0.0000
 40
0.0508
 41
0.0508
 70
0
  0
VERTEX
  8
21
 10
15.5842
 20
10.4347
 30
0.0000
  0
VERTEX
  8
21
 10
15.4910
 20
10.3415
 30
0.0000
  0
SEQEND
  8
0
  0
POLYLINE
  8
21
 66
1
 10
0.0000
 20
0.0000
 30
0.0000
 40
0.0254
 41
0.0254
 70
0
  0
VERTEX
  8
21
 10
15.4820
 20
10.3504
 30
0.0000
 42
1.0000
  0
VERTEX
  8
21
 10
15.5000
 20
10.3325
 30
0.0000
  0
SEQEND
  8
0
  0
POLYLINE
  8
21
 66
1
 10
0.0000
 20
0.0000
 30
0.0000
 40
0.0254
 41
0.0254
 70
0
  0
VERTEX
  8
21
 10
15.5932
 20
10.4257
 30
0.0000
 42
1.0000
  0
VERTEX
  8
21
 10
15.5752
 20
10.4437
 30
0.0000
  0
SEQEND
  8
0
  0
POLYLINE
  8
21
 66
1
 10
0.0000
 20
0.0000
 30
0.0000
 40
0.0508
 41
0.0508
 70
0
  0
VERTEX
  8
21
 10
15.0249
 20
10.9028
 30
0.0000
  0
VERTEX
  8
21
 10
15.3978
 20
10.9028
 30
0.0000
  0
SEQEND
  8
0
  0
POLYLINE
  8
21
 66
1
 10
0.0000
 20
0.0000
 30
0.0000
 40
0.0254
 41
0.0254
 70
0
  0
VERTEX
  8
21
 10
15.3978
 20
10.8901
 30
0.0000
 42
1.0000
  0
VERTEX
  8
21
 10
15.3978
 20
10.9155
 30
0.0000
  0
SEQEND
  8
0
  0
POLYLINE
  8
21
 66
1
 10
0.0000
 20
0.0000
 30
0.0000
 40
0.0254
 41
0.0254
 70
0
  0
VERTEX
  8
21
 10
15.0249
 20
10.9155
 30
0.0000
 42
1.0000
  0
VERTEX
  8
21
 10
15.0249
 20
10.8901
 30
0.0000
  0
SEQEND
  8
0
  0
POLYLINE
  8
21
 66
1
 10
0.0000
 20
0.0000
 30
0.0000
 40
0.0508
 41
0.0508
 70
0
  0
VERTEX
  8
21
 10
15.3978
 20
10.9028
 30
0.0000
  0
VERTEX
  8
21
 10
15.5842
 20
11.0892
 30
0.0000
  0
SEQEND
  8
0
  0
POLYLINE
  8
21
 66
1
 10
0.0000
 20
0.0000
 30
0.0000
 40
0.0254
 41
0.0254
 70
0
  0
VERTEX
  8
21
 10
15.5932
 20
11.0802
 30
0.0000
 42
1.0000
  0
VERTEX
  8
21
 10
15.5752
 20
11.0982
 30
0.0000
  0
SEQEND
  8
0
  0
POLYLINE
  8
21
 66
1
 10
0.0000
 20
0.0000
 30
0.0000
 40
0.0254
 41
0.0254
 70
0
  0
VERTEX
  8
21
 10
15.3888
 20
10.9118
 30
0.0000
 42
1.0000
  0
VERTEX
  8
21
 10
15.4068
 20
10.8938
 30
0.0000
  0
SEQEND
  8
0
  0
POLYLINE
  8
21
 66
1
 10
0.0000
 20
0.0000
 30
0.0000
 40
0.0508
 41
0.0508
 70
0
  0
VERTEX
  8
21
 10
15.5842
 20
11.0892
 30
0.0000
  0
VERTEX
  8
21
 10
15.3978
 20
11.2756
 30
0.0000
  0
SEQEND
  8
0
  0
POLYLINE
  8
21
 66
1
 10
0.0000
 20
0.0000
 30
0.0000
 40
0.0254
 41
0.0254
 70
0
  0
VERTEX
  8
21
 10
15.4068
 20
11.2846
 30
0.0000
 42
1.0000
  0
VERTEX
  8
21
 10
15.3888
 20
11.2666
 30
0.0000
  0
SEQEND
  8
0
  0
POLYLINE
  8
21
 66
1
 10
0.0000
 20
0.0000
 30
0.0000
 40
0.0254
 41
0.0254
 70
0
  0
VERTEX
  8
21
 10
15.5752
 20
11.0802
 30
0.0000
 42
1.0000
  0
VERTEX
  8
21
 10
15.5932
 20
11.0982
 30
0.0000
  0
SEQEND
  8
0
  0
POLYLINE
  8
21
 66
1
 10
0.0000
 20
0.0000
 30
0.0000
 40
0.0508
 41
0.0508
 70
0
  0
VERTEX
  8
21
 10
15.3978
 20
11.2756
 30
0.0000
  0
VERTEX
  8
21
 10
15.0249
 20
11.2756
 30
0.0000
  0
SEQEND
  8
0
  0
POLYLINE
  8
21
 66
1
 10
0.0000
 20
0.0000
 30
0.0000
 40
0.0254
 41
0.0254
 70
0
  0
VERTEX
  8
21
 10
15.0249
 20
11.2883
 30
0.0000
 42
1.0000
  0
VERTEX
  8
21
 10
15.0249
 20
11.2629
 30
0.0000
  0
SEQEND
  8
0
  0
POLYLINE
  8
21
 66
1
 10
0.0000
 20
0.0000
 30
0.0000
 40
0.0254
 41
0.0254
 70
0
  0
VERTEX
  8
21
 10
15.3978
 20
11.2629
 30
0.0000
 42
1.0000
  0
VERTEX
  8
21
 10
15.3978
 20
11.2883
 30
0.0000
  0
SEQEND
  8
0
  0
POLYLINE
  8
21
 66
1
 10
0.0000
 20
0.0000
 30
0.0000
 40
0.0508
 41
0.0508
 70
0
  0
VERTEX
  8
21
 10
15.1181
 20
11.4641
 30
0.0000
  0
VERTEX
  8
21
 10
15.0249
 20
11.5573
 30
0.0000
  0
SEQEND
  8
0
  0
POLYLINE
  8
21
 66
1
 10
0.0000
 20
0.0000
 30
0.0000
 40
0.0254
 41
0.0254
 70
0
  0
VERTEX
  8
21
 10
15.0339
 20
11.5663
 30
0.0000
 42
1.0000
  0
VERTEX
  8
21
 10
15.0159
 20
11.5483
 30
0.0000
  0
SEQEND
  8
0
  0
POLYLINE
  8
21
 66
1
 10
0.0000
 20
0.0000
 30
0.0000
 40
0.0254
 41
0.0254
 70
0
  0
VERTEX
  8
21
 10
15.1092
 20
11.4551
 30
0.0000
 42
1.0000
  0
VERTEX
  8
21
 10
15.1271
 20
11.4731
 30
0.0000
  0
SEQEND
  8
0
  0
POLYLINE
  8
21
 66
1
 10
0.0000
 20
0.0000
 30
0.0000
 40
0.0508
 41
0.0508
 70
0
  0
VERTEX
  8
21
 10
15.0249
 20
11.5573
 30
0.0000
  0
VERTEX
  8
21
 10
15.0249
 20
11.7437
 30
0.0000
  0
SEQEND
  8
0
  0
POLYLINE
  8
21
 66
1
 10
0.0000
 20
0.0000
 30
0.0000
 40
0.0254
 41
0.0254
 70
0
  0
VERTEX
  8
21
 10
15.0376
 20
11.7437
 30
0.0000
 42
1.0000
  0
VERTEX
  8
21
 10
15.0122
 20
11.7437
 30
0.0000
  0
SEQEND
  8
0
  0
POLYLINE
  8
21
 66
1
 10
0.0000
 20
0.0000
 30
0.0000
 40
0.0254
 41
0.0254
 70
0
  0
VERTEX
  8
21
 10
15.0122
 20
11.5573
 30
0.0000
 42
1.0000
  0
VERTEX
  8
21
 10
15.0376
 20
11.5573
 30
0.0000
  0
SEQEND
  8
0
  0
POLYLINE
  8
21
 66
1
 10
0.0000
 20
0.0000
 30
0.0000
 40
0.0508
 41
0.0508
 70
0
  0
VERTEX
  8
21
 10
15.0249
 20
11.7437
 30
0.0000
  0
VERTEX
  8
21
 10
15.1181
 20
11.8369
 30
0.0000
  0
SEQEND
  8
0
  0
POLYLINE
  8
21
 66
1
 10
0.0000
 20
0.0000
 30
0.0000
 40
0.0254
 41
0.0254
 70
0
  0
VERTEX
  8
21
 10
15.1271
 20
11.8280
 30
0.0000
 42
1.0000
  0
VERTEX
  8
21
 10
15.1092
 20
11.8459
 30
0.0000
  0
SEQEND
  8
0
  0
POLYLINE
  8
21
 66
1
 10
0.0000
 20
0.0000
 30
0.0000
 40
0.0254
 41
0.0254
 70
0
  0
VERTEX
  8
21
 10
15.0159
 20
11.7527
 30
0.0000
 42
1.0000
  0
VERTEX
  8
21
 10
15.0339
 20
11.7347
 30
0.0000
  0
SEQEND
  8
0
  0
POLYLINE
  8
21
 66
1
 10
0.0000
 20
0.0000
 30
0.0000
 40
0.0508
 41
0.0508
 70
0
  0
VERTEX
  8
21
 10
15.1181
 20
11.8369
 30
0.0000
  0
VERTEX
  8
21
 10
15.2114
 20
11.8369
 30
0.0000
  0
SEQEND
  8
0
  0
POLYLINE
  8
21
 66
1
 10
0.0000
 20
0.0000
 30
0.0000
 40
0.0254
 41
0.0254
 70
0
  0
VERTEX
  8
21
 10
15.2114
 20
11.8242
 30
0.0000
 42
1.0000
  0
VERTEX
  8
21
 10
15.2114
 20
11.8496
 30
0.0000
  0
SEQEND
  8
0
  0
POLYLINE
  8
21
 66
1
 10
0.0000
 20
0.0000
 30
0.0000
 40
0.0254
 41
0.0254
 70
0
  0
VERTEX
  8
21
 10
15.1181
 20
11.8496
 30
0.0000
 42
1.0000
  0
VERTEX
  8
21
 10
15.1181
 20
11.8242
 30
0.0000
  0
SEQEND
  8
0
  0
POLYLINE
  8
21
 66
1
 10
0.0000
 20
0.0000
 30
0.0000
 40
0.0508
 41
0.0508
 70
0
  0
VERTEX
  8
21
 10
15.2114
 20
11.8369
 30
0.0000
  0
VERTEX
  8
21
 10
15.3046
 20
11.7437
 30
0.0000
  0
SEQEND
  8
0
  0
POLYLINE
  8
21
 66
1
 10
0.0000
 20
0.0000
 30
0.0000
 40
0.0254
 41
0.0254
 70
0
  0
VERTEX
  8
21
 10
15.2956
 20
11.7347
 30
0.0000
 42
1.0000
  0
VERTEX
  8
21
 10
15.3135
 20
11.7527
 30
0.0000
  0
SEQEND
  8
0
  0
POLYLINE
  8
21
 66
1
 10
0.0000
 20
0.0000
 30
0.0000
 40
0.0254
 41
0.0254
 70
0
  0
VERTEX
  8
21
 10
15.2203
 20
11.8459
 30
0.0000
 42
1.0000
  0
VERTEX
  8
21
 10
15.2024
 20
11.8280
 30
0.0000
  0
SEQEND
  8
0
  0
POLYLINE
  8
21
 66
1
 10
0.0000
 20
0.0000
 30
0.0000
 40
0.0508
 41
0.0508
 70
0
  0
VERTEX
  8
21
 10
15.3046
 20
11.7437
 30
0.0000
  0
VERTEX
  8
21
 10
15.3046
 20
11.6505
 30
0.0000
  0
SEQEND
  8
0
  0
POLYLINE
  8
21
 66
1
 10
0.0000
 20
0.0000
 30
0.0000
 40
0.0254
 41
0.0254
 70
0
  0
VERTEX
  8
21
 10
15.2919
 20
11.6505
 30
0.0000
 42
1.0000
  0
VERTEX
  8
21
 10
15.3173
 20
11.6505
 30
0.0000
  0
SEQEND
  8
0
  0
POLYLINE
  8
21
 66
1
 10
0.0000
 20
0.0000
 30
0.0000
 40
0.0254
 41
0.0254
 70
0
  0
VERTEX
  8
21
 10
15.3173
 20
11.7437
 30
0.0000
 42
1.0000
  0
VERTEX
  8
21
 10
15.2919
 20
11.7437
 30
0.0000
  0
SEQEND
  8
0
  0
POLYLINE
  8
21
 66
1
 10
0.0000
 20
0.0000
 30
0.0000
 40
0.0508
 41
0.0508
 70
0
  0
VERTEX
  8
21
 10
15.3046
 20
11.7437
 30
0.0000
  0
VERTEX
  8
21
 10
15.3978
 20
11.8369
 30
0.0000
  0
SEQEND
  8
0
  0
POLYLINE
  8
21
 66
1
 10
0.0000
 20
0.0000
 30
0.0000
 40
0.0254
 41
0.0254
 70
0
  0
VERTEX
  8
21
 10
15.4068
 20
11.8280
 30
0.0000
 42
1.0000
  0
VERTEX
  8
21
 10
15.3888
 20
11.8459
 30
0.0000
  0
SEQEND
  8
0
  0
POLYLINE
  8
21
 66
1
 10
0.0000
 20
0.0000
 30
0.0000
 40
0.0254
 41
0.0254
 70
0
  0
VERTEX
  8
21
 10
15.2956
 20
11.7527
 30
0.0000
 42
1.0000
  0
VERTEX
  8
21
 10
15.3135
 20
11.7347
 30
0.0000
  0
SEQEND
  8
0
  0
POLYLINE
  8
21
 66
1
 10
0.0000
 20
0.0000
 30
0.0000
 40
0.0508
 41
0.0508
 70
0
  0
VERTEX
  8
21
 10
15.3978
 20
11.8369
 30
0.0000
  0
VERTEX
  8
21
 10
15.4910
 20
11.8369
 30
0.0000
  0
SEQEND
  8
0
  0
POLYLINE
  8
21
 66
1
 10
0.0000
 20
0.0000
 30
0.0000
 40
0.0254
 41
0.0254
 70
0
  0
VERTEX
  8
21
 10
15.4910
 20
11.8242
 30
0.0000
 42
1.0000
  0
VERTEX
  8
21
 10
15.4910
 20
11.8496
 30
0.0000
  0
SEQEND
  8
0
  0
POLYLINE
  8
21
 66
1
 10
0.0000
 20
0.0000
 30
0.0000
 40
0.0254
 41
0.0254
 70
0
  0
VERTEX
  8
21
 10
15.3978
 20
11.8496
 30
0.0000
 42
1.0000
  0
VERTEX
  8
21
 10
15.3978
 20
11.8242
 30
0.0000
  0
SEQEND
  8
0
  0
POLYLINE
  8
21
 66
1
 10
0.0000
 20
0.0000
 30
0.0000
 40
0.0508
 41
0.0508
 70
0
  0
VERTEX
  8
21
 10
15.4910
 20
11.8369
 30
0.0000
  0
VERTEX
  8
21
 10
15.5842
 20
11.7437
 30
0.0000
  0
SEQEND
  8
0
  0
POLYLINE
  8
21
 66
1
 10
0.0000
 20
0.0000
 30
0.0000
 40
0.0254
 41
0.0254
 70
0
  0
VERTEX
  8
21
 10
15.5752
 20
11.7347
 30
0.0000
 42
1.0000
  0
VERTEX
  8
21
 10
15.5932
 20
11.7527
 30
0.0000
  0
SEQEND
  8
0
  0
POLYLINE
  8
21
 66
1
 10
0.0000
 20
0.0000
 30
0.0000
 40
0.0254
 41
0.0254
 70
0
  0
VERTEX
  8
21
 10
15.5000
 20
11.8459
 30
0.0000
 42
1.0000
  0
VERTEX
  8
21
 10
15.4820
 20
11.8280
 30
0.0000
  0
SEQEND
  8
0
  0
POLYLINE
  8
21
 66
1
 10
0.0000
 20
0.0000
 30
0.0000
 40
0.0508
 41
0.0508
 70
0
  0
VERTEX
  8
21
 10
15.5842
 20
11.7437
 30
0.0000
  0
VERTEX
  8
21
 10
15.5842
 20
11.5573
 30
0.0000
  0
SEQEND
  8
0
  0
POLYLINE
  8
21
 66
1
 10
0.0000
 20
0.0000
 30
0.0000
 40
0.0254
 41
0.0254
 70
0
  0
VERTEX
  8
21
 10
15.5715
 20
11.5573
 30
0.0000
 42
1.0000
  0
VERTEX
  8
21
 10
15.5969
 20
11.5573
 30
0.0000
  0
SEQEND
  8
0
  0
POLYLINE
  8
21
 66
1
 10
0.0000
 20
0.0000
 30
0.0000
 40
0.0254
 41
0.0254
 70
0
  0
VERTEX
  8
21
 10
15.5969
 20
11.7437
 30
0.0000
 42
1.0000
  0
VERTEX
  8
21
 10
15.5715
 20
11.7437
 30
0.0000
  0
SEQEND
  8
0
  0
POLYLINE
  8
21
 66
1
 10
0.0000
 20
0.0000
 30
0.0000
 40
0.0508
 41
0.0508
 70
0
  0
VERTEX
  8
21
 10
15.5842
 20
11.5573
 30
0.0000
  0
VERTEX
  8
21
 10
15.4910
 20
11.4641
 30
0.0000
  0
SEQEND
  8
0
  0
POLYLINE
  8
21
 66
1
 10
0.0000
 20
0.0000
 30
0.0000
 40
0.0254
 41
0.0254
 70
0
  0
VERTEX
  8
21
 10
15.4820
 20
11.4731
 30
0.0000
 42
1.0000
  0
VERTEX
  8
21
 10
15.5000
 20
11.4551
 30
0.0000
  0
SEQEND
  8
0
  0
POLYLINE
  8
21
 66
1
 10
0.0000
 20
0.0000
 30
0.0000
 40
0.0254
 41
0.0254
 70
0
  0
VERTEX
  8
21
 10
15.5932
 20
11.5483
 30
0.0000
 42
1.0000
  0
VERTEX
  8
21
 10
15.5752
 20
11.5663
 30
0.0000
  0
SEQEND
  8
0
  0
POLYLINE
  8
21
 66
1
 10
0.0000
 20
0.0000
 30
0.0000
 40
0.0508
 41
0.0508
 70
0
  0
VERTEX
  8
21
 10
15.5842
 20
8.0286
 30
0.0000
  0
VERTEX
  8
21
 10
15.5842
 20
8.2150
 30
0.0000
  0
SEQEND
  8
0
  0
POLYLINE
  8
21
 66
1
 10
0.0000
 20
0.0000
 30
0.0000
 40
0.0254
 41
0.0254
 70
0
  0
VERTEX
  8
21
 10
15.5969
 20
8.2150
 30
0.0000
 42
1.0000
  0
VERTEX
  8
21
 10
15.5715
 20
8.2150
 30
0.0000
  0
SEQEND
  8
0
  0
POLYLINE
  8
21
 66
1
 10
0.0000
 20
0.0000
 30
0.0000
 40
0.0254
 41
0.0254
 70
0
  0
VERTEX
  8
21
 10
15.5715
 20
8.0286
 30
0.0000
 42
1.0000
  0
VERTEX
  8
21
 10
15.5969
 20
8.0286
 30
0.0000
  0
SEQEND
  8
0
  0
POLYLINE
  8
21
 66
1
 10
0.0000
 20
0.0000
 30
0.0000
 40
0.0508
 41
0.0508
 70
0
  0
VERTEX
  8
21
 10
15.5842
 20
8.1218
 30
0.0000
  0
VERTEX
  8
21
 10
15.0249
 20
8.1218
 30
0.0000
  0
SEQEND
  8
0
  0
POLYLINE
  8
21
 66
1
 10
0.0000
 20
0.0000
 30
0.0000
 40
0.0254
 41
0.0254
 70
0
  0
VERTEX
  8
21
 10
15.0249
 20
8.1345
 30
0.0000
 42
1.0000
  0
VERTEX
  8
21
 10
15.0249
 20
8.1091
 30
0.0000
  0
SEQEND
  8
0
  0
POLYLINE
  8
21
 66
1
 10
0.0000
 20
0.0000
 30
0.0000
 40
0.0254
 41
0.0254
 70
0
  0
VERTEX
  8
21
 10
15.5842
 20
8.1091
 30
0.0000
 42
1.0000
  0
VERTEX
  8
21
 10
15.5842
 20
8.1345
 30
0.0000
  0
SEQEND
  8
0
  0
POLYLINE
  8
21
 66
1
 10
0.0000
 20
0.0000
 30
0.0000
 40
0.0508
 41
0.0508
 70
0
  0
VERTEX
  8
21
 10
15.0249
 20
8.0286
 30
0.0000
  0
VERTEX
  8
21
 10
15.0249
 20
8.2150
 30
0.0000
  0
SEQEND
  8
0
  0
POLYLINE
  8
21
 66
1
 10
0.0000
 20
0.0000
 30
0.0000
 40
0.0254
 41
0.0254
 70
0
  0
VERTEX
  8
21
 10
15.0376
 20
8.2150
 30
0.0000
 42
1.0000
  0
VERTEX
  8
21
 10
15.0122
 20
8.2150
 30
0.0000
  0
SEQEND
  8
0
  0
POLYLINE
  8
21
 66
1
 10
0.0000
 20
0.0000
 30
0.0000
 40
0.0254
 41
0.0254
 70
0
  0
VERTEX
  8
21
 10
15.0122
 20
8.0286
 30
0.0000
 42
1.0000
  0
VERTEX
  8
21
 10
15.0376
 20
8.0286
 30
0.0000
  0
SEQEND
  8
0
  0
POLYLINE
  8
21
 66
1
 10
0.0000
 20
0.0000
 30
0.0000
 40
0.0508
 41
0.0508
 70
0
  0
VERTEX
  8
21
 10
15.5842
 20
8.4028
 30
0.0000
  0
VERTEX
  8
21
 10
15.0249
 20
8.4028
 30
0.0000
  0
SEQEND
  8
0
  0
POLYLINE
  8
21
 66
1
 10
0.0000
 20
0.0000
 30
0.0000
 40
0.0254
 41
0.0254
 70
0
  0
VERTEX
  8
21
 10
15.0249
 20
8.4155
 30
0.0000
 42
1.0000
  0
VERTEX
  8
21
 10
15.0249
 20
8.3901
 30
0.0000
  0
SEQEND
  8
0
  0
POLYLINE
  8
21
 66
1
 10
0.0000
 20
0.0000
 30
0.0000
 40
0.0254
 41
0.0254
 70
0
  0
VERTEX
  8
21
 10
15.5842
 20
8.3901
 30
0.0000
 42
1.0000
  0
VERTEX
  8
21
 10
15.5842
 20
8.4155
 30
0.0000
  0
SEQEND
  8
0
  0
POLYLINE
  8
21
 66
1
 10
0.0000
 20
0.0000
 30
0.0000
 40
0.0508
 41
0.0508
 70
0
  0
VERTEX
  8
21
 10
15.0249
 20
8.4028
 30
0.0000
  0
VERTEX
  8
21
 10
15.5842
 20
8.7756
 30
0.0000
  0
SEQEND
  8
0
  0
POLYLINE
  8
21
 66
1
 10
0.0000
 20
0.0000
 30
0.0000
 40
0.0254
 41
0.0254
 70
0
  0
VERTEX
  8
21
 10
15.5912
 20
8.7651
 30
0.0000
 42
1.0000
  0
VERTEX
  8
21
 10
15.5772
 20
8.7862
 30
0.0000
  0
SEQEND
  8
0
  0
POLYLINE
  8
21
 66
1
 10
0.0000
 20
0.0000
 30
0.0000
 40
0.0254
 41
0.0254
 70
0
  0
VERTEX
  8
21
 10
15.0179
 20
8.4133
 30
0.0000
 42
1.0000
  0
VERTEX
  8
21
 10
15.0320
 20
8.3922
 30
0.0000
  0
SEQEND
  8
0
  0
POLYLINE
  8
21
 66
1
 10
0.0000
 20
0.0000
 30
0.0000
 40
0.0508
 41
0.0508
 70
0
  0
VERTEX
  8
21
 10
15.5842
 20
8.7756
 30
0.0000
  0
VERTEX
  8
21
 10
15.0249
 20
8.7756
 30
0.0000
  0
SEQEND
  8
0
  0
POLYLINE
  8
21
 66
1
 10
0.0000
 20
0.0000
 30
0.0000
 40
0.0254
 41
0.0254
 70
0
  0
VERTEX
  8
21
 10
15.0249
 20
8.7883
 30
0.0000
 42
1.0000
  0
VERTEX
  8
21
 10
15.0249
 20
8.7629
 30
0.0000
  0
SEQEND
  8
0
  0
POLYLINE
  8
21
 66
1
 10
0.0000
 20
0.0000
 30
0.0000
 40
0.0254
 41
0.0254
 70
0
  0
VERTEX
  8
21
 10
15.5842
 20
8.7629
 30
0.0000
 42
1.0000
  0
VERTEX
  8
21
 10
15.5842
 20
8.7883
 30
0.0000
  0
SEQEND
  8
0
  0
POLYLINE
  8
21
 66
1
 10
0.0000
 20
0.0000
 30
0.0000
 40
0.0508
 41
0.0508
 70
0
  0
VERTEX
  8
21
 10
15.2114
 20
8.9641
 30
0.0000
  0
VERTEX
  8
21
 10
15.0249
 20
9.1505
 30
0.0000
  0
SEQEND
  8
0
  0
POLYLINE
  8
21
 66
1
 10
0.0000
 20
0.0000
 30
0.0000
 40
0.0254
 41
0.0254
 70
0
  0
VERTEX
  8
21
 10
15.0339
 20
9.1595
 30
0.0000
 42
1.0000
  0
VERTEX
  8
21
 10
15.0159
 20
9.1415
 30
0.0000
  0
SEQEND
  8
0
  0
POLYLINE
  8
21
 66
1
 10
0.0000
 20
0.0000
 30
0.0000
 40
0.0254
 41
0.0254
 70
0
  0
VERTEX
  8
21
 10
15.2024
 20
8.9551
 30
0.0000
 42
1.0000
  0
VERTEX
  8
21
 10
15.2203
 20
8.9731
 30
0.0000
  0
SEQEND
  8
0
  0
POLYLINE
  8
21
 66
1
 10
0.0000
 20
0.0000
 30
0.0000
 40
0.0508
 41
0.0508
 70
0
  0
VERTEX
  8
21
 10
15.0249
 20
9.1505
 30
0.0000
  0
VERTEX
  8
21
 10
15.5842
 20
9.1505
 30
0.0000
  0
SEQEND
  8
0
  0
POLYLINE
  8
21
 66
1
 10
0.0000
 20
0.0000
 30
0.0000
 40
0.0254
 41
0.0254
 70
0
  0
VERTEX
  8
21
 10
15.5842
 20
9.1378
 30
0.0000
 42
1.0000
  0
VERTEX
  8
21
 10
15.5842
 20
9.1632
 30
0.0000
  0
SEQEND
  8
0
  0
POLYLINE
  8
21
 66
1
 10
0.0000
 20
0.0000
 30
0.0000
 40
0.0254
 41
0.0254
 70
0
  0
VERTEX
  8
21
 10
15.0249
 20
9.1632
 30
0.0000
 42
1.0000
  0
VERTEX
  8
21
 10
15.0249
 20
9.1378
 30
0.0000
  0
SEQEND
  8
0
  0
POLYLINE
  8
21
 66
1
 10
0.0000
 20
0.0000
 30
0.0000
 40
0.0508
 41
0.0508
 70
0
  0
VERTEX
  8
21
 10
15.5842
 20
8.9641
 30
0.0000
  0
VERTEX
  8
21
 10
15.5842
 20
9.3369
 30
0.0000
  0
SEQEND
  8
0
  0
POLYLINE
  8
21
 66
1
 10
0.0000
 20
0.0000
 30
0.0000
 40
0.0254
 41
0.0254
 70
0
  0
VERTEX
  8
21
 10
15.5969
 20
9.3369
 30
0.0000
 42
1.0000
  0
VERTEX
  8
21
 10
15.5715
 20
9.3369
 30
0.0000
  0
SEQEND
  8
0
  0
POLYLINE
  8
21
 66
1
 10
0.0000
 20
0.0000
 30
0.0000
 40
0.0254
 41
0.0254
 70
0
  0
VERTEX
  8
21
 10
15.5715
 20
8.9641
 30
0.0000
 42
1.0000
  0
VERTEX
  8
21
 10
15.5969
 20
8.9641
 30
0.0000
  0
SEQEND
  8
0
  0
POLYLINE
  8
21
 66
1
 10
0.0000
 20
0.0000
 30
0.0000
 40
0.0508
 41
0.0508
 70
0
  0
VERTEX
  8
21
 10
15.5842
 20
5.4286
 30
0.0000
  0
VERTEX
  8
21
 10
15.5842
 20
5.6150
 30
0.0000
  0
SEQEND
  8
0
  0
POLYLINE
  8
21
 66
1
 10
0.0000
 20
0.0000
 30
0.0000
 40
0.0254
 41
0.0254
 70
0
  0
VERTEX
  8
21
 10
15.5969
 20
5.6150
 30
0.0000
 42
1.0000
  0
VERTEX
  8
21
 10
15.5715
 20
5.6150
 30
0.0000
  0
SEQEND
  8
0
  0
POLYLINE
  8
21
 66
1
 10
0.0000
 20
0.0000
 30
0.0000
 40
0.0254
 41
0.0254
 70
0
  0
VERTEX
  8
21
 10
15.5715
 20
5.4286
 30
0.0000
 42
1.0000
  0
VERTEX
  8
21
 10
15.5969
 20
5.4286
 30
0.0000
  0
SEQEND
  8
0
  0
POLYLINE
  8
21
 66
1
 10
0.0000
 20
0.0000
 30
0.0000
 40
0.0508
 41
0.0508
 70
0
  0
VERTEX
  8
21
 10
15.5842
 20
5.5218
 30
0.0000
  0
VERTEX
  8
21
 10
15.0249
 20
5.5218
 30
0.0000
  0
SEQEND
  8
0
  0
POLYLINE
  8
21
 66
1
 10
0.0000
 20
0.0000
 30
0.0000
 40
0.0254
 41
0.0254
 70
0
  0
VERTEX
  8
21
 10
15.0249
 20
5.5345
 30
0.0000
 42
1.0000
  0
VERTEX
  8
21
 10
15.0249
 20
5.5091
 30
0.0000
  0
SEQEND
  8
0
  0
POLYLINE
  8
21
 66
1
 10
0.0000
 20
0.0000
 30
0.0000
 40
0.0254
 41
0.0254
 70
0
  0
VERTEX
  8
21
 10
15.5842
 20
5.5091
 30
0.0000
 42
1.0000
  0
VERTEX
  8
21
 10
15.5842
 20
5.5345
 30
0.0000
  0
SEQEND
  8
0
  0
POLYLINE
  8
21
 66
1
 10
0.0000
 20
0.0000
 30
0.0000
 40
0.0508
 41
0.0508
 70
0
  0
VERTEX
  8
21
 10
15.0249
 20
5.4286
 30
0.0000
  0
VERTEX
  8
21
 10
15.0249
 20
5.6150
 30
0.0000
  0
SEQEND
  8
0
  0
POLYLINE
  8
21
 66
1
 10
0.0000
 20
0.0000
 30
0.0000
 40
0.0254
 41
0.0254
 70
0
  0
VERTEX
  8
21
 10
15.0376
 20
5.6150
 30
0.0000
 42
1.0000
  0
VERTEX
  8
21
 10
15.0122
 20
5.6150
 30
0.0000
  0
SEQEND
  8
0
  0
POLYLINE
  8
21
 66
1
 10
0.0000
 20
0.0000
 30
0.0000
 40
0.0254
 41
0.0254
 70
0
  0
VERTEX
  8
21
 10
15.0122
 20
5.4286
 30
0.0000
 42
1.0000
  0
VERTEX
  8
21
 10
15.0376
 20
5.4286
 30
0.0000
  0
SEQEND
  8
0
  0
POLYLINE
  8
21
 66
1
 10
0.0000
 20
0.0000
 30
0.0000
 40
0.0508
 41
0.0508
 70
0
  0
VERTEX
  8
21
 10
15.5842
 20
5.8028
 30
0.0000
  0
VERTEX
  8
21
 10
15.0249
 20
5.8028
 30
0.0000
  0
SEQEND
  8
0
  0
POLYLINE
  8
21
 66
1
 10
0.0000
 20
0.0000
 30
0.0000
 40
0.0254
 41
0.0254
 70
0
  0
VERTEX
  8
21
 10
15.0249
 20
5.8155
 30
0.0000
 42
1.0000
  0
VERTEX
  8
21
 10
15.0249
 20
5.7901
 30
0.0000
  0
SEQEND
  8
0
  0
POLYLINE
  8
21
 66
1
 10
0.0000
 20
0.0000
 30
0.0000
 40
0.0254
 41
0.0254
 70
0
  0
VERTEX
  8
21
 10
15.5842
 20
5.7901
 30
0.0000
 42
1.0000
  0
VERTEX
  8
21
 10
15.5842
 20
5.8155
 30
0.0000
  0
SEQEND
  8
0
  0
POLYLINE
  8
21
 66
1
 10
0.0000
 20
0.0000
 30
0.0000
 40
0.0508
 41
0.0508
 70
0
  0
VERTEX
  8
21
 10
15.0249
 20
5.8028
 30
0.0000
  0
VERTEX
  8
21
 10
15.5842
 20
6.1756
 30
0.0000
  0
SEQEND
  8
0
  0
POLYLINE
  8
21
 66
1
 10
0.0000
 20
0.0000
 30
0.0000
 40
0.0254
 41
0.0254
 70
0
  0
VERTEX
  8
21
 10
15.5912
 20
6.1651
 30
0.0000
 42
1.0000
  0
VERTEX
  8
21
 10
15.5772
 20
6.1862
 30
0.0000
  0
SEQEND
  8
0
  0
POLYLINE
  8
21
 66
1
 10
0.0000
 20
0.0000
 30
0.0000
 40
0.0254
 41
0.0254
 70
0
  0
VERTEX
  8
21
 10
15.0179
 20
5.8133
 30
0.0000
 42
1.0000
  0
VERTEX
  8
21
 10
15.0320
 20
5.7922
 30
0.0000
  0
SEQEND
  8
0
  0
POLYLINE
  8
21
 66
1
 10
0.0000
 20
0.0000
 30
0.0000
 40
0.0508
 41
0.0508
 70
0
  0
VERTEX
  8
21
 10
15.5842
 20
6.1756
 30
0.0000
  0
VERTEX
  8
21
 10
15.0249
 20
6.1756
 30
0.0000
  0
SEQEND
  8
0
  0
POLYLINE
  8
21
 66
1
 10
0.0000
 20
0.0000
 30
0.0000
 40
0.0254
 41
0.0254
 70
0
  0
VERTEX
  8
21
 10
15.0249
 20
6.1883
 30
0.0000
 42
1.0000
  0
VERTEX
  8
21
 10
15.0249
 20
6.1629
 30
0.0000
  0
SEQEND
  8
0
  0
POLYLINE
  8
21
 66
1
 10
0.0000
 20
0.0000
 30
0.0000
 40
0.0254
 41
0.0254
 70
0
  0
VERTEX
  8
21
 10
15.5842
 20
6.1629
 30
0.0000
 42
1.0000
  0
VERTEX
  8
21
 10
15.5842
 20
6.1883
 30
0.0000
  0
SEQEND
  8
0
  0
POLYLINE
  8
21
 66
1
 10
0.0000
 20
0.0000
 30
0.0000
 40
0.0508
 41
0.0508
 70
0
  0
VERTEX
  8
21
 10
15.4910
 20
6.3641
 30
0.0000
  0
VERTEX
  8
21
 10
15.1181
 20
6.3641
 30
0.0000
  0
SEQEND
  8
0
  0
POLYLINE
  8
21
 66
1
 10
0.0000
 20
0.0000
 30
0.0000
 40
0.0254
 41
0.0254
 70
0
  0
VERTEX
  8
21
 10
15.1181
 20
6.3768
 30
0.0000
 42
1.0000
  0
VERTEX
  8
21
 10
15.1181
 20
6.3514
 30
0.0000
  0
SEQEND
  8
0
  0
POLYLINE
  8
21
 66
1
 10
0.0000
 20
0.0000
 30
0.0000
 40
0.0254
 41
0.0254
 70
0
  0
VERTEX
  8
21
 10
15.4910
 20
6.3514
 30
0.0000
 42
1.0000
  0
VERTEX
  8
21
 10
15.4910
 20
6.3768
 30
0.0000
  0
SEQEND
  8
0
  0
POLYLINE
  8
21
 66
1
 10
0.0000
 20
0.0000
 30
0.0000
 40
0.0508
 41
0.0508
 70
0
  0
VERTEX
  8
21
 10
15.1181
 20
6.3641
 30
0.0000
  0
VERTEX
  8
21
 10
15.0249
 20
6.4573
 30
0.0000
  0
SEQEND
  8
0
  0
POLYLINE
  8
21
 66
1
 10
0.0000
 20
0.0000
 30
0.0000
 40
0.0254
 41
0.0254
 70
0
  0
VERTEX
  8
21
 10
15.0339
 20
6.4663
 30
0.0000
 42
1.0000
  0
VERTEX
  8
21
 10
15.0159
 20
6.4483
 30
0.0000
  0
SEQEND
  8
0
  0
POLYLINE
  8
21
 66
1
 10
0.0000
 20
0.0000
 30
0.0000
 40
0.0254
 41
0.0254
 70
0
  0
VERTEX
  8
21
 10
15.1092
 20
6.3551
 30
0.0000
 42
1.0000
  0
VERTEX
  8
21
 10
15.1271
 20
6.3731
 30
0.0000
  0
SEQEND
  8
0
  0
POLYLINE
  8
21
 66
1
 10
0.0000
 20
0.0000
 30
0.0000
 40
0.0508
 41
0.0508
 70
0
  0
VERTEX
  8
21
 10
15.0249
 20
6.4573
 30
0.0000
  0
VERTEX
  8
21
 10
15.0249
 20
6.6437
 30
0.0000
  0
SEQEND
  8
0
  0
POLYLINE
  8
21
 66
1
 10
0.0000
 20
0.0000
 30
0.0000
 40
0.0254
 41
0.0254
 70
0
  0
VERTEX
  8
21
 10
15.0376
 20
6.6437
 30
0.0000
 42
1.0000
  0
VERTEX
  8
21
 10
15.0122
 20
6.6437
 30
0.0000
  0
SEQEND
  8
0
  0
POLYLINE
  8
21
 66
1
 10
0.0000
 20
0.0000
 30
0.0000
 40
0.0254
 41
0.0254
 70
0
  0
VERTEX
  8
21
 10
15.0122
 20
6.4573
 30
0.0000
 42
1.0000
  0
VERTEX
  8
21
 10
15.0376
 20
6.4573
 30
0.0000
  0
SEQEND
  8
0
  0
POLYLINE
  8
21
 66
1
 10
0.0000
 20
0.0000
 30
0.0000
 40
0.0508
 41
0.0508
 70
0
  0
VERTEX
  8
21
 10
15.0249
 20
6.6437
 30
0.0000
  0
VERTEX
  8
21
 10
15.1181
 20
6.7369
 30
0.0000
  0
SEQEND
  8
0
  0
POLYLINE
  8
21
 66
1
 10
0.0000
 20
0.0000
 30
0.0000
 40
0.0254
 41
0.0254
 70
0
  0
VERTEX
  8
21
 10
15.1271
 20
6.7280
 30
0.0000
 42
1.0000
  0
VERTEX
  8
21
 10
15.1092
 20
6.7459
 30
0.0000
  0
SEQEND
  8
0
  0
POLYLINE
  8
21
 66
1
 10
0.0000
 20
0.0000
 30
0.0000
 40
0.0254
 41
0.0254
 70
0
  0
VERTEX
  8
21
 10
15.0159
 20
6.6527
 30
0.0000
 42
1.0000
  0
VERTEX
  8
21
 10
15.0339
 20
6.6347
 30
0.0000
  0
SEQEND
  8
0
  0
POLYLINE
  8
21
 66
1
 10
0.0000
 20
0.0000
 30
0.0000
 40
0.0508
 41
0.0508
 70
0
  0
VERTEX
  8
21
 10
15.1181
 20
6.7369
 30
0.0000
  0
VERTEX
  8
21
 10
15.4910
 20
6.7369
 30
0.0000
  0
SEQEND
  8
0
  0
POLYLINE
  8
21
 66
1
 10
0.0000
 20
0.0000
 30
0.0000
 40
0.0254
 41
0.0254
 70
0
  0
VERTEX
  8
21
 10
15.4910
 20
6.7242
 30
0.0000
 42
1.0000
  0
VERTEX
  8
21
 10
15.4910
 20
6.7496
 30
0.0000
  0
SEQEND
  8
0
  0
POLYLINE
  8
21
 66
1
 10
0.0000
 20
0.0000
 30
0.0000
 40
0.0254
 41
0.0254
 70
0
  0
VERTEX
  8
21
 10
15.1181
 20
6.7496
 30
0.0000
 42
1.0000
  0
VERTEX
  8
21
 10
15.1181
 20
6.7242
 30
0.0000
  0
SEQEND
  8
0
  0
POLYLINE
  8
21
 66
1
 10
0.0000
 20
0.0000
 30
0.0000
 40
0.0508
 41
0.0508
 70
0
  0
VERTEX
  8
21
 10
15.4910
 20
6.7369
 30
0.0000
  0
VERTEX
  8
21
 10
15.5842
 20
6.6437
 30
0.0000
  0
SEQEND
  8
0
  0
POLYLINE
  8
21
 66
1
 10
0.0000
 20
0.0000
 30
0.0000
 40
0.0254
 41
0.0254
 70
0
  0
VERTEX
  8
21
 10
15.5752
 20
6.6347
 30
0.0000
 42
1.0000
  0
VERTEX
  8
21
 10
15.5932
 20
6.6527
 30
0.0000
  0
SEQEND
  8
0
  0
POLYLINE
  8
21
 66
1
 10
0.0000
 20
0.0000
 30
0.0000
 40
0.0254
 41
0.0254
 70
0
  0
VERTEX
  8
21
 10
15.5000
 20
6.7459
 30
0.0000
 42
1.0000
  0
VERTEX
  8
21
 10
15.4820
 20
6.7280
 30
0.0000
  0
SEQEND
  8
0
  0
POLYLINE
  8
21
 66
1
 10
0.0000
 20
0.0000
 30
0.0000
 40
0.0508
 41
0.0508
 70
0
  0
VERTEX
  8
21
 10
15.5842
 20
6.6437
 30
0.0000
  0
VERTEX
  8
21
 10
15.5842
 20
6.4573
 30
0.0000
  0
SEQEND
  8
0
  0
POLYLINE
  8
21
 66
1
 10
0.0000
 20
0.0000
 30
0.0000
 40
0.0254
 41
0.0254
 70
0
  0
VERTEX
  8
21
 10
15.5715
 20
6.4573
 30
0.0000
 42
1.0000
  0
VERTEX
  8
21
 10
15.5969
 20
6.4573
 30
0.0000
  0
SEQEND
  8
0
  0
POLYLINE
  8
21
 66
1
 10
0.0000
 20
0.0000
 30
0.0000
 40
0.0254
 41
0.0254
 70
0
  0
VERTEX
  8
21
 10
15.5969
 20
6.6437
 30
0.0000
 42
1.0000
  0
VERTEX
  8
21
 10
15.5715
 20
6.6437
 30
0.0000
  0
SEQEND
  8
0
  0
POLYLINE
  8
21
 66
1
 10
0.0000
 20
0.0000
 30
0.0000
 40
0.0508
 41
0.0508
 70
0
  0
VERTEX
  8
21
 10
15.5842
 20
6.4573
 30
0.0000
  0
VERTEX
  8
21
 10
15.4910
 20
6.3641
 30
0.0000
  0
SEQEND
  8
0
  0
POLYLINE
  8
21
 66
1
 10
0.0000
 20
0.0000
 30
0.0000
 40
0.0254
 41
0.0254
 70
0
  0
VERTEX
  8
21
 10
15.4820
 20
6.3731
 30
0.0000
 42
1.0000
  0
VERTEX
  8
21
 10
15.5000
 20
6.3551
 30
0.0000
  0
SEQEND
  8
0
  0
POLYLINE
  8
21
 66
1
 10
0.0000
 20
0.0000
 30
0.0000
 40
0.0254
 41
0.0254
 70
0
  0
VERTEX
  8
21
 10
15.5932
 20
6.4483
 30
0.0000
 42
1.0000
  0
VERTEX
  8
21
 10
15.5752
 20
6.4663
 30
0.0000
  0
SEQEND
  8
0
  0
POLYLINE
  8
21
 66
1
 10
0.0000
 20
0.0000
 30
0.0000
 40
0.0508
 41
0.0508
 70
0
  0
VERTEX
  8
21
 10
15.4910
 20
6.3641
 30
0.0000
  0
VERTEX
  8
21
 10
15.1181
 20
6.7369
 30
0.0000
  0
SEQEND
  8
0
  0
POLYLINE
  8
21
 66
1
 10
0.0000
 20
0.0000
 30
0.0000
 40
0.0254
 41
0.0254
 70
0
  0
VERTEX
  8
21
 10
15.1271
 20
6.7459
 30
0.0000
 42
1.0000
  0
VERTEX
  8
21
 10
15.1092
 20
6.7280
 30
0.0000
  0
SEQEND
  8
0
  0
POLYLINE
  8
21
 66
1
 10
0.0000
 20
0.0000
 30
0.0000
 40
0.0254
 41
0.0254
 70
0
  0
VERTEX
  8
21
 10
15.4820
 20
6.3551
 30
0.0000
 42
1.0000
  0
VERTEX
  8
21
 10
15.5000
 20
6.3731
 30
0.0000
  0
SEQEND
  8
0
  0
POLYLINE
  8
22
 66
1
 10
0.0000
 20
0.0000
 30
0.0000
 40
0.0508
 41
0.0508
 70
0
  0
VERTEX
  8
22
 10
11.3819
 20
13.5143
 30
0.0000
  0
VERTEX
  8
22
 10
11.4751
 20
13.4211
 30
0.0000
  0
SEQEND
  8
0
  0
POLYLINE
  8
22
 66
1
 10
0.0000
 20
0.0000
 30
0.0000
 40
0.0254
 41
0.0254
 70
0
  0
VERTEX
  8
22
 10
11.4661
 20
13.4121
 30
0.0000
 42
1.0000
  0
VERTEX
  8
22
 10
11.4841
 20
13.4301
 30
0.0000
  0
SEQEND
  8
0
  0
POLYLINE
  8
22
 66
1
 10
0.0000
 20
0.0000
 30
0.0000
 40
0.0254
 41
0.0254
 70
0
  0
VERTEX
  8
22
 10
11.3908
 20
13.5233
 30
0.0000
 42
1.0000
  0
VERTEX
  8
22
 10
11.3729
 20
13.5053
 30
0.0000
  0
SEQEND
  8
0
  0
POLYLINE
  8
22
 66
1
 10
0.0000
 20
0.0000
 30
0.0000
 40
0.0508
 41
0.0508
 70
0
  0
VERTEX
  8
22
 10
11.4751
 20
13.4211
 30
0.0000
  0
VERTEX
  8
22
 10
11.4751
 20
13.2347
 30
0.0000
  0
SEQEND
  8
0
  0
POLYLINE
  8
22
 66
1
 10
0.0000
 20
0.0000
 30
0.0000
 40
0.0254
 41
0.0254
 70
0
  0
VERTEX
  8
22
 10
11.4624
 20
13.2347
 30
0.0000
 42
1.0000
  0
VERTEX
  8
22
 10
11.4878
 20
13.2347
 30
0.0000
  0
SEQEND
  8
0
  0
POLYLINE
  8
22
 66
1
 10
0.0000
 20
0.0000
 30
0.0000
 40
0.0254
 41
0.0254
 70
0
  0
VERTEX
  8
22
 10
11.4878
 20
13.4211
 30
0.0000
 42
1.0000
  0
VERTEX
  8
22
 10
11.4624
 20
13.4211
 30
0.0000
  0
SEQEND
  8
0
  0
POLYLINE
  8
22
 66
1
 10
0.0000
 20
0.0000
 30
0.0000
 40
0.0508
 41
0.0508
 70
0
  0
VERTEX
  8
22
 10
11.4751
 20
13.2347
 30
0.0000
  0
VERTEX
  8
22
 10
11.3819
 20
13.1415
 30
0.0000
  0
SEQEND
  8
0
  0
POLYLINE
  8
22
 66
1
 10
0.0000
 20
0.0000
 30
0.0000
 40
0.0254
 41
0.0254
 70
0
  0
VERTEX
  8
22
 10
11.3729
 20
13.1504
 30
0.0000
 42
1.0000
  0
VERTEX
  8
22
 10
11.3908
 20
13.1325
 30
0.0000
  0
SEQEND
  8
0
  0
POLYLINE
  8
22
 66
1
 10
0.0000
 20
0.0000
 30
0.0000
 40
0.0254
 41
0.0254
 70
0
  0
VERTEX
  8
22
 10
11.4841
 20
13.2257
 30
0.0000
 42
1.0000
  0
VERTEX
  8
22
 10
11.4661
 20
13.2437
 30
0.0000
  0
SEQEND
  8
0
  0
POLYLINE
  8
22
 66
1
 10
0.0000
 20
0.0000
 30
0.0000
 40
0.0508
 41
0.0508
 70
0
  0
VERTEX
  8
22
 10
11.3819
 20
13.1415
 30
0.0000
  0
VERTEX
  8
22
 10
11.0090
 20
13.1415
 30
0.0000
  0
SEQEND
  8
0
  0
POLYLINE
  8
22
 66
1
 10
0.0000
 20
0.0000
 30
0.0000
 40
0.0254
 41
0.0254
 70
0
  0
VERTEX
  8
22
 10
11.0090
 20
13.1542
 30
0.0000
 42
1.0000
  0
VERTEX
  8
22
 10
11.0090
 20
13.1288
 30
0.0000
  0
SEQEND
  8
0
  0
POLYLINE
  8
22
 66
1
 10
0.0000
 20
0.0000
 30
0.0000
 40
0.0254
 41
0.0254
 70
0
  0
VERTEX
  8
22
 10
11.3819
 20
13.1288
 30
0.0000
 42
1.0000
  0
VERTEX
  8
22
 10
11.3819
 20
13.1542
 30
0.0000
  0
SEQEND
  8
0
  0
POLYLINE
  8
22
 66
1
 10
0.0000
 20
0.0000
 30
0.0000
 40
0.0508
 41
0.0508
 70
0
  0
VERTEX
  8
22
 10
11.0090
 20
13.1415
 30
0.0000
  0
VERTEX
  8
22
 10
10.9158
 20
13.2347
 30
0.0000
  0
SEQEND
  8
0
  0
POLYLINE
  8
22
 66
1
 10
0.0000
 20
0.0000
 30
0.0000
 40
0.0254
 41
0.0254
 70
0
  0
VERTEX
  8
22
 10
10.9248
 20
13.2437
 30
0.0000
 42
1.0000
  0
VERTEX
  8
22
 10
10.9068
 20
13.2257
 30
0.0000
  0
SEQEND
  8
0
  0
POLYLINE
  8
22
 66
1
 10
0.0000
 20
0.0000
 30
0.0000
 40
0.0254
 41
0.0254
 70
0
  0
VERTEX
  8
22
 10
11.0000
 20
13.1325
 30
0.0000
 42
1.0000
  0
VERTEX
  8
22
 10
11.0180
 20
13.1504
 30
0.0000
  0
SEQEND
  8
0
  0
POLYLINE
  8
22
 66
1
 10
0.0000
 20
0.0000
 30
0.0000
 40
0.0508
 41
0.0508
 70
0
  0
VERTEX
  8
22
 10
10.9158
 20
13.2347
 30
0.0000
  0
VERTEX
  8
22
 10
10.9158
 20
13.4211
 30
0.0000
  0
SEQEND
  8
0
  0
POLYLINE
  8
22
 66
1
 10
0.0000
 20
0.0000
 30
0.0000
 40
0.0254
 41
0.0254
 70
0
  0
VERTEX
  8
22
 10
10.9285
 20
13.4211
 30
0.0000
 42
1.0000
  0
VERTEX
  8
22
 10
10.9031
 20
13.4211
 30
0.0000
  0
SEQEND
  8
0
  0
POLYLINE
  8
22
 66
1
 10
0.0000
 20
0.0000
 30
0.0000
 40
0.0254
 41
0.0254
 70
0
  0
VERTEX
  8
22
 10
10.9031
 20
13.2347
 30
0.0000
 42
1.0000
  0
VERTEX
  8
22
 10
10.9285
 20
13.2347
 30
0.0000
  0
SEQEND
  8
0
  0
POLYLINE
  8
22
 66
1
 10
0.0000
 20
0.0000
 30
0.0000
 40
0.0508
 41
0.0508
 70
0
  0
VERTEX
  8
22
 10
10.9158
 20
13.4211
 30
0.0000
  0
VERTEX
  8
22
 10
11.0090
 20
13.5143
 30
0.0000
  0
SEQEND
  8
0
  0
POLYLINE
  8
22
 66
1
 10
0.0000
 20
0.0000
 30
0.0000
 40
0.0254
 41
0.0254
 70
0
  0
VERTEX
  8
22
 10
11.0180
 20
13.5053
 30
0.0000
 42
1.0000
  0
VERTEX
  8
22
 10
11.0000
 20
13.5233
 30
0.0000
  0
SEQEND
  8
0
  0
POLYLINE
  8
22
 66
1
 10
0.0000
 20
0.0000
 30
0.0000
 40
0.0254
 41
0.0254
 70
0
  0
VERTEX
  8
22
 10
10.9068
 20
13.4301
 30
0.0000
 42
1.0000
  0
VERTEX
  8
22
 10
10.9248
 20
13.4121
 30
0.0000
  0
SEQEND
  8
0
  0
POLYLINE
  8
22
 66
1
 10
0.0000
 20
0.0000
 30
0.0000
 40
0.0508
 41
0.0508
 70
0
  0
VERTEX
  8
22
 10
11.0090
 20
13.5143
 30
0.0000
  0
VERTEX
  8
22
 10
11.1954
 20
13.5143
 30
0.0000
  0
SEQEND
  8
0
  0
POLYLINE
  8
22
 66
1
 10
0.0000
 20
0.0000
 30
0.0000
 40
0.0254
 41
0.0254
 70
0
  0
VERTEX
  8
22
 10
11.1954
 20
13.5016
 30
0.0000
 42
1.0000
  0
VERTEX
  8
22
 10
11.1954
 20
13.5270
 30
0.0000
  0
SEQEND
  8
0
  0
POLYLINE
  8
22
 66
1
 10
0.0000
 20
0.0000
 30
0.0000
 40
0.0254
 41
0.0254
 70
0
  0
VERTEX
  8
22
 10
11.0090
 20
13.5270
 30
0.0000
 42
1.0000
  0
VERTEX
  8
22
 10
11.0090
 20
13.5016
 30
0.0000
  0
SEQEND
  8
0
  0
POLYLINE
  8
22
 66
1
 10
0.0000
 20
0.0000
 30
0.0000
 40
0.0508
 41
0.0508
 70
0
  0
VERTEX
  8
22
 10
11.1954
 20
13.5143
 30
0.0000
  0
VERTEX
  8
22
 10
11.1954
 20
13.3279
 30
0.0000
  0
SEQEND
  8
0
  0
POLYLINE
  8
22
 66
1
 10
0.0000
 20
0.0000
 30
0.0000
 40
0.0254
 41
0.0254
 70
0
  0
VERTEX
  8
22
 10
11.1827
 20
13.3279
 30
0.0000
 42
1.0000
  0
VERTEX
  8
22
 10
11.2081
 20
13.3279
 30
0.0000
  0
SEQEND
  8
0
  0
POLYLINE
  8
22
 66
1
 10
0.0000
 20
0.0000
 30
0.0000
 40
0.0254
 41
0.0254
 70
0
  0
VERTEX
  8
22
 10
11.2081
 20
13.5143
 30
0.0000
 42
1.0000
  0
VERTEX
  8
22
 10
11.1827
 20
13.5143
 30
0.0000
  0
SEQEND
  8
0
  0
POLYLINE
  8
22
 66
1
 10
0.0000
 20
0.0000
 30
0.0000
 40
0.0508
 41
0.0508
 70
0
  0
VERTEX
  8
22
 10
10.9158
 20
13.7028
 30
0.0000
  0
VERTEX
  8
22
 10
11.4751
 20
13.7028
 30
0.0000
  0
SEQEND
  8
0
  0
POLYLINE
  8
22
 66
1
 10
0.0000
 20
0.0000
 30
0.0000
 40
0.0254
 41
0.0254
 70
0
  0
VERTEX
  8
22
 10
11.4751
 20
13.6901
 30
0.0000
 42
1.0000
  0
VERTEX
  8
22
 10
11.4751
 20
13.7155
 30
0.0000
  0
SEQEND
  8
0
  0
POLYLINE
  8
22
 66
1
 10
0.0000
 20
0.0000
 30
0.0000
 40
0.0254
 41
0.0254
 70
0
  0
VERTEX
  8
22
 10
10.9158
 20
13.7155
 30
0.0000
 42
1.0000
  0
VERTEX
  8
22
 10
10.9158
 20
13.6901
 30
0.0000
  0
SEQEND
  8
0
  0
POLYLINE
  8
22
 66
1
 10
0.0000
 20
0.0000
 30
0.0000
 40
0.0508
 41
0.0508
 70
0
  0
VERTEX
  8
22
 10
11.4751
 20
13.7028
 30
0.0000
  0
VERTEX
  8
22
 10
10.9158
 20
14.0756
 30
0.0000
  0
SEQEND
  8
0
  0
POLYLINE
  8
22
 66
1
 10
0.0000
 20
0.0000
 30
0.0000
 40
0.0254
 41
0.0254
 70
0
  0
VERTEX
  8
22
 10
10.9228
 20
14.0862
 30
0.0000
 42
1.0000
  0
VERTEX
  8
22
 10
10.9088
 20
14.0651
 30
0.0000
  0
SEQEND
  8
0
  0
POLYLINE
  8
22
 66
1
 10
0.0000
 20
0.0000
 30
0.0000
 40
0.0254
 41
0.0254
 70
0
  0
VERTEX
  8
22
 10
11.4680
 20
13.6922
 30
0.0000
 42
1.0000
  0
VERTEX
  8
22
 10
11.4821
 20
13.7133
 30
0.0000
  0
SEQEND
  8
0
  0
POLYLINE
  8
22
 66
1
 10
0.0000
 20
0.0000
 30
0.0000
 40
0.0508
 41
0.0508
 70
0
  0
VERTEX
  8
22
 10
10.9158
 20
14.0756
 30
0.0000
  0
VERTEX
  8
22
 10
11.4751
 20
14.0756
 30
0.0000
  0
SEQEND
  8
0
  0
POLYLINE
  8
22
 66
1
 10
0.0000
 20
0.0000
 30
0.0000
 40
0.0254
 41
0.0254
 70
0
  0
VERTEX
  8
22
 10
11.4751
 20
14.0629
 30
0.0000
 42
1.0000
  0
VERTEX
  8
22
 10
11.4751
 20
14.0883
 30
0.0000
  0
SEQEND
  8
0
  0
POLYLINE
  8
22
 66
1
 10
0.0000
 20
0.0000
 30
0.0000
 40
0.0254
 41
0.0254
 70
0
  0
VERTEX
  8
22
 10
10.9158
 20
14.0883
 30
0.0000
 42
1.0000
  0
VERTEX
  8
22
 10
10.9158
 20
14.0629
 30
0.0000
  0
SEQEND
  8
0
  0
POLYLINE
  8
22
 66
1
 10
0.0000
 20
0.0000
 30
0.0000
 40
0.0508
 41
0.0508
 70
0
  0
VERTEX
  8
22
 10
11.4751
 20
14.2641
 30
0.0000
  0
VERTEX
  8
22
 10
10.9158
 20
14.2641
 30
0.0000
  0
SEQEND
  8
0
  0
POLYLINE
  8
22
 66
1
 10
0.0000
 20
0.0000
 30
0.0000
 40
0.0254
 41
0.0254
 70
0
  0
VERTEX
  8
22
 10
10.9158
 20
14.2768
 30
0.0000
 42
1.0000
  0
VERTEX
  8
22
 10
10.9158
 20
14.2514
 30
0.0000
  0
SEQEND
  8
0
  0
POLYLINE
  8
22
 66
1
 10
0.0000
 20
0.0000
 30
0.0000
 40
0.0254
 41
0.0254
 70
0
  0
VERTEX
  8
22
 10
11.4751
 20
14.2514
 30
0.0000
 42
1.0000
  0
VERTEX
  8
22
 10
11.4751
 20
14.2768
 30
0.0000
  0
SEQEND
  8
0
  0
POLYLINE
  8
22
 66
1
 10
0.0000
 20
0.0000
 30
0.0000
 40
0.0508
 41
0.0508
 70
0
  0
VERTEX
  8
22
 10
10.9158
 20
14.2641
 30
0.0000
  0
VERTEX
  8
22
 10
10.9158
 20
14.5437
 30
0.0000
  0
SEQEND
  8
0
  0
POLYLINE
  8
22
 66
1
 10
0.0000
 20
0.0000
 30
0.0000
 40
0.0254
 41
0.0254
 70
0
  0
VERTEX
  8
22
 10
10.9285
 20
14.5437
 30
0.0000
 42
1.0000
  0
VERTEX
  8
22
 10
10.9031
 20
14.5437
 30
0.0000
  0
SEQEND
  8
0
  0
POLYLINE
  8
22
 66
1
 10
0.0000
 20
0.0000
 30
0.0000
 40
0.0254
 41
0.0254
 70
0
  0
VERTEX
  8
22
 10
10.9031
 20
14.2641
 30
0.0000
 42
1.0000
  0
VERTEX
  8
22
 10
10.9285
 20
14.2641
 30
0.0000
  0
SEQEND
  8
0
  0
POLYLINE
  8
22
 66
1
 10
0.0000
 20
0.0000
 30
0.0000
 40
0.0508
 41
0.0508
 70
0
  0
VERTEX
  8
22
 10
10.9158
 20
14.5437
 30
0.0000
  0
VERTEX
  8
22
 10
11.0090
 20
14.6369
 30
0.0000
  0
SEQEND
  8
0
  0
POLYLINE
  8
22
 66
1
 10
0.0000
 20
0.0000
 30
0.0000
 40
0.0254
 41
0.0254
 70
0
  0
VERTEX
  8
22
 10
11.0180
 20
14.6280
 30
0.0000
 42
1.0000
  0
VERTEX
  8
22
 10
11.0000
 20
14.6459
 30
0.0000
  0
SEQEND
  8
0
  0
POLYLINE
  8
22
 66
1
 10
0.0000
 20
0.0000
 30
0.0000
 40
0.0254
 41
0.0254
 70
0
  0
VERTEX
  8
22
 10
10.9068
 20
14.5527
 30
0.0000
 42
1.0000
  0
VERTEX
  8
22
 10
10.9248
 20
14.5347
 30
0.0000
  0
SEQEND
  8
0
  0
POLYLINE
  8
22
 66
1
 10
0.0000
 20
0.0000
 30
0.0000
 40
0.0508
 41
0.0508
 70
0
  0
VERTEX
  8
22
 10
11.0090
 20
14.6369
 30
0.0000
  0
VERTEX
  8
22
 10
11.3819
 20
14.6369
 30
0.0000
  0
SEQEND
  8
0
  0
POLYLINE
  8
22
 66
1
 10
0.0000
 20
0.0000
 30
0.0000
 40
0.0254
 41
0.0254
 70
0
  0
VERTEX
  8
22
 10
11.3819
 20
14.6242
 30
0.0000
 42
1.0000
  0
VERTEX
  8
22
 10
11.3819
 20
14.6496
 30
0.0000
  0
SEQEND
  8
0
  0
POLYLINE
  8
22
 66
1
 10
0.0000
 20
0.0000
 30
0.0000
 40
0.0254
 41
0.0254
 70
0
  0
VERTEX
  8
22
 10
11.0090
 20
14.6496
 30
0.0000
 42
1.0000
  0
VERTEX
  8
22
 10
11.0090
 20
14.6242
 30
0.0000
  0
SEQEND
  8
0
  0
POLYLINE
  8
22
 66
1
 10
0.0000
 20
0.0000
 30
0.0000
 40
0.0508
 41
0.0508
 70
0
  0
VERTEX
  8
22
 10
11.3819
 20
14.6369
 30
0.0000
  0
VERTEX
  8
22
 10
11.4751
 20
14.5437
 30
0.0000
  0
SEQEND
  8
0
  0
POLYLINE
  8
22
 66
1
 10
0.0000
 20
0.0000
 30
0.0000
 40
0.0254
 41
0.0254
 70
0
  0
VERTEX
  8
22
 10
11.4661
 20
14.5347
 30
0.0000
 42
1.0000
  0
VERTEX
  8
22
 10
11.4841
 20
14.5527
 30
0.0000
  0
SEQEND
  8
0
  0
POLYLINE
  8
22
 66
1
 10
0.0000
 20
0.0000
 30
0.0000
 40
0.0254
 41
0.0254
 70
0
  0
VERTEX
  8
22
 10
11.3908
 20
14.6459
 30
0.0000
 42
1.0000
  0
VERTEX
  8
22
 10
11.3729
 20
14.6280
 30
0.0000
  0
SEQEND
  8
0
  0
POLYLINE
  8
22
 66
1
 10
0.0000
 20
0.0000
 30
0.0000
 40
0.0508
 41
0.0508
 70
0
  0
VERTEX
  8
22
 10
11.4751
 20
14.5437
 30
0.0000
  0
VERTEX
  8
22
 10
11.4751
 20
14.2641
 30
0.0000
  0
SEQEND
  8
0
  0
POLYLINE
  8
22
 66
1
 10
0.0000
 20
0.0000
 30
0.0000
 40
0.0254
 41
0.0254
 70
0
  0
VERTEX
  8
22
 10
11.4624
 20
14.2641
 30
0.0000
 42
1.0000
  0
VERTEX
  8
22
 10
11.4878
 20
14.2641
 30
0.0000
  0
SEQEND
  8
0
  0
POLYLINE
  8
22
 66
1
 10
0.0000
 20
0.0000
 30
0.0000
 40
0.0254
 41
0.0254
 70
0
  0
VERTEX
  8
22
 10
11.4878
 20
14.5437
 30
0.0000
 42
1.0000
  0
VERTEX
  8
22
 10
11.4624
 20
14.5437
 30
0.0000
  0
SEQEND
  8
0
  0
POLYLINE
  8
22
 66
1
 10
0.0000
 20
0.0000
 30
0.0000
 40
0.0508
 41
0.0508
 70
0
  0
VERTEX
  8
22
 10
11.3819
 20
10.3415
 30
0.0000
  0
VERTEX
  8
22
 10
11.4751
 20
10.4347
 30
0.0000
  0
SEQEND
  8
0
  0
POLYLINE
  8
22
 66
1
 10
0.0000
 20
0.0000
 30
0.0000
 40
0.0254
 41
0.0254
 70
0
  0
VERTEX
  8
22
 10
11.4841
 20
10.4257
 30
0.0000
 42
1.0000
  0
VERTEX
  8
22
 10
11.4661
 20
10.4437
 30
0.0000
  0
SEQEND
  8
0
  0
POLYLINE
  8
22
 66
1
 10
0.0000
 20
0.0000
 30
0.0000
 40
0.0254
 41
0.0254
 70
0
  0
VERTEX
  8
22
 10
11.3729
 20
10.3504
 30
0.0000
 42
1.0000
  0
VERTEX
  8
22
 10
11.3908
 20
10.3325
 30
0.0000
  0
SEQEND
  8
0
  0
POLYLINE
  8
22
 66
1
 10
0.0000
 20
0.0000
 30
0.0000
 40
0.0508
 41
0.0508
 70
0
  0
VERTEX
  8
22
 10
11.4751
 20
10.4347
 30
0.0000
  0
VERTEX
  8
22
 10
11.4751
 20
10.6211
 30
0.0000
  0
SEQEND
  8
0
  0
POLYLINE
  8
22
 66
1
 10
0.0000
 20
0.0000
 30
0.0000
 40
0.0254
 41
0.0254
 70
0
  0
VERTEX
  8
22
 10
11.4878
 20
10.6211
 30
0.0000
 42
1.0000
  0
VERTEX
  8
22
 10
11.4624
 20
10.6211
 30
0.0000
  0
SEQEND
  8
0
  0
POLYLINE
  8
22
 66
1
 10
0.0000
 20
0.0000
 30
0.0000
 40
0.0254
 41
0.0254
 70
0
  0
VERTEX
  8
22
 10
11.4624
 20
10.4347
 30
0.0000
 42
1.0000
  0
VERTEX
  8
22
 10
11.4878
 20
10.4347
 30
0.0000
  0
SEQEND
  8
0
  0
POLYLINE
  8
22
 66
1
 10
0.0000
 20
0.0000
 30
0.0000
 40
0.0508
 41
0.0508
 70
0
  0
VERTEX
  8
22
 10
11.4751
 20
10.6211
 30
0.0000
  0
VERTEX
  8
22
 10
11.3819
 20
10.7143
 30
0.0000
  0
SEQEND
  8
0
  0
POLYLINE
  8
22
 66
1
 10
0.0000
 20
0.0000
 30
0.0000
 40
0.0254
 41
0.0254
 70
0
  0
VERTEX
  8
22
 10
11.3908
 20
10.7233
 30
0.0000
 42
1.0000
  0
VERTEX
  8
22
 10
11.3729
 20
10.7053
 30
0.0000
  0
SEQEND
  8
0
  0
POLYLINE
  8
22
 66
1
 10
0.0000
 20
0.0000
 30
0.0000
 40
0.0254
 41
0.0254
 70
0
  0
VERTEX
  8
22
 10
11.4661
 20
10.6121
 30
0.0000
 42
1.0000
  0
VERTEX
  8
22
 10
11.4841
 20
10.6301
 30
0.0000
  0
SEQEND
  8
0
  0
POLYLINE
  8
22
 66
1
 10
0.0000
 20
0.0000
 30
0.0000
 40
0.0508
 41
0.0508
 70
0
  0
VERTEX
  8
22
 10
11.3819
 20
10.7143
 30
0.0000
  0
VERTEX
  8
22
 10
11.2887
 20
10.7143
 30
0.0000
  0
SEQEND
  8
0
  0
POLYLINE
  8
22
 66
1
 10
0.0000
 20
0.0000
 30
0.0000
 40
0.0254
 41
0.0254
 70
0
  0
VERTEX
  8
22
 10
11.2887
 20
10.7270
 30
0.0000
 42
1.0000
  0
VERTEX
  8
22
 10
11.2887
 20
10.7016
 30
0.0000
  0
SEQEND
  8
0
  0
POLYLINE
  8
22
 66
1
 10
0.0000
 20
0.0000
 30
0.0000
 40
0.0254
 41
0.0254
 70
0
  0
VERTEX
  8
22
 10
11.3819
 20
10.7016
 30
0.0000
 42
1.0000
  0
VERTEX
  8
22
 10
11.3819
 20
10.7270
 30
0.0000
  0
SEQEND
  8
0
  0
POLYLINE
  8
22
 66
1
 10
0.0000
 20
0.0000
 30
0.0000
 40
0.0508
 41
0.0508
 70
0
  0
VERTEX
  8
22
 10
11.2887
 20
10.7143
 30
0.0000
  0
VERTEX
  8
22
 10
11.1954
 20
10.6211
 30
0.0000
  0
SEQEND
  8
0
  0
POLYLINE
  8
22
 66
1
 10
0.0000
 20
0.0000
 30
0.0000
 40
0.0254
 41
0.0254
 70
0
  0
VERTEX
  8
22
 10
11.1865
 20
10.6301
 30
0.0000
 42
1.0000
  0
VERTEX
  8
22
 10
11.2044
 20
10.6121
 30
0.0000
  0
SEQEND
  8
0
  0
POLYLINE
  8
22
 66
1
 10
0.0000
 20
0.0000
 30
0.0000
 40
0.0254
 41
0.0254
 70
0
  0
VERTEX
  8
22
 10
11.2976
 20
10.7053
 30
0.0000
 42
1.0000
  0
VERTEX
  8
22
 10
11.2797
 20
10.7233
 30
0.0000
  0
SEQEND
  8
0
  0
POLYLINE
  8
22
 66
1
 10
0.0000
 20
0.0000
 30
0.0000
 40
0.0508
 41
0.0508
 70
0
  0
VERTEX
  8
22
 10
11.1954
 20
10.6211
 30
0.0000
  0
VERTEX
  8
22
 10
11.1954
 20
10.5279
 30
0.0000
  0
SEQEND
  8
0
  0
POLYLINE
  8
22
 66
1
 10
0.0000
 20
0.0000
 30
0.0000
 40
0.0254
 41
0.0254
 70
0
  0
VERTEX
  8
22
 10
11.1827
 20
10.5279
 30
0.0000
 42
1.0000
  0
VERTEX
  8
22
 10
11.2081
 20
10.5279
 30
0.0000
  0
SEQEND
  8
0
  0
POLYLINE
  8
22
 66
1
 10
0.0000
 20
0.0000
 30
0.0000
 40
0.0254
 41
0.0254
 70
0
  0
VERTEX
  8
22
 10
11.2081
 20
10.6211
 30
0.0000
 42
1.0000
  0
VERTEX
  8
22
 10
11.1827
 20
10.6211
 30
0.0000
  0
SEQEND
  8
0
  0
POLYLINE
  8
22
 66
1
 10
0.0000
 20
0.0000
 30
0.0000
 40
0.0508
 41
0.0508
 70
0
  0
VERTEX
  8
22
 10
11.1954
 20
10.6211
 30
0.0000
  0
VERTEX
  8
22
 10
11.1022
 20
10.7143
 30
0.0000
  0
SEQEND
  8
0
  0
POLYLINE
  8
22
 66
1
 10
0.0000
 20
0.0000
 30
0.0000
 40
0.0254
 41
0.0254
 70
0
  0
VERTEX
  8
22
 10
11.1112
 20
10.7233
 30
0.0000
 42
1.0000
  0
VERTEX
  8
22
 10
11.0932
 20
10.7053
 30
0.0000
  0
SEQEND
  8
0
  0
POLYLINE
  8
22
 66
1
 10
0.0000
 20
0.0000
 30
0.0000
 40
0.0254
 41
0.0254
 70
0
  0
VERTEX
  8
22
 10
11.1865
 20
10.6121
 30
0.0000
 42
1.0000
  0
VERTEX
  8
22
 10
11.2044
 20
10.6301
 30
0.0000
  0
SEQEND
  8
0
  0
POLYLINE
  8
22
 66
1
 10
0.0000
 20
0.0000
 30
0.0000
 40
0.0508
 41
0.0508
 70
0
  0
VERTEX
  8
22
 10
11.1022
 20
10.7143
 30
0.0000
  0
VERTEX
  8
22
 10
11.0090
 20
10.7143
 30
0.0000
  0
SEQEND
  8
0
  0
POLYLINE
  8
22
 66
1
 10
0.0000
 20
0.0000
 30
0.0000
 40
0.0254
 41
0.0254
 70
0
  0
VERTEX
  8
22
 10
11.0090
 20
10.7270
 30
0.0000
 42
1.0000
  0
VERTEX
  8
22
 10
11.0090
 20
10.7016
 30
0.0000
  0
SEQEND
  8
0
  0
POLYLINE
  8
22
 66
1
 10
0.0000
 20
0.0000
 30
0.0000
 40
0.0254
 41
0.0254
 70
0
  0
VERTEX
  8
22
 10
11.1022
 20
10.7016
 30
0.0000
 42
1.0000
  0
VERTEX
  8
22
 10
11.1022
 20
10.7270
 30
0.0000
  0
SEQEND
  8
0
  0
POLYLINE
  8
22
 66
1
 10
0.0000
 20
0.0000
 30
0.0000
 40
0.0508
 41
0.0508
 70
0
  0
VERTEX
  8
22
 10
11.0090
 20
10.7143
 30
0.0000
  0
VERTEX
  8
22
 10
10.9158
 20
10.6211
 30
0.0000
  0
SEQEND
  8
0
  0
POLYLINE
  8
22
 66
1
 10
0.0000
 20
0.0000
 30
0.0000
 40
0.0254
 41
0.0254
 70
0
  0
VERTEX
  8
22
 10
10.9068
 20
10.6301
 30
0.0000
 42
1.0000
  0
VERTEX
  8
22
 10
10.9248
 20
10.6121
 30
0.0000
  0
SEQEND
  8
0
  0
POLYLINE
  8
22
 66
1
 10
0.0000
 20
0.0000
 30
0.0000
 40
0.0254
 41
0.0254
 70
0
  0
VERTEX
  8
22
 10
11.0180
 20
10.7053
 30
0.0000
 42
1.0000
  0
VERTEX
  8
22
 10
11.0000
 20
10.7233
 30
0.0000
  0
SEQEND
  8
0
  0
POLYLINE
  8
22
 66
1
 10
0.0000
 20
0.0000
 30
0.0000
 40
0.0508
 41
0.0508
 70
0
  0
VERTEX
  8
22
 10
10.9158
 20
10.6211
 30
0.0000
  0
VERTEX
  8
22
 10
10.9158
 20
10.4347
 30
0.0000
  0
SEQEND
  8
0
  0
POLYLINE
  8
22
 66
1
 10
0.0000
 20
0.0000
 30
0.0000
 40
0.0254
 41
0.0254
 70
0
  0
VERTEX
  8
22
 10
10.9031
 20
10.4347
 30
0.0000
 42
1.0000
  0
VERTEX
  8
22
 10
10.9285
 20
10.4347
 30
0.0000
  0
SEQEND
  8
0
  0
POLYLINE
  8
22
 66
1
 10
0.0000
 20
0.0000
 30
0.0000
 40
0.0254
 41
0.0254
 70
0
  0
VERTEX
  8
22
 10
10.9285
 20
10.6211
 30
0.0000
 42
1.0000
  0
VERTEX
  8
22
 10
10.9031
 20
10.6211
 30
0.0000
  0
SEQEND
  8
0
  0
POLYLINE
  8
22
 66
1
 10
0.0000
 20
0.0000
 30
0.0000
 40
0.0508
 41
0.0508
 70
0
  0
VERTEX
  8
22
 10
10.9158
 20
10.4347
 30
0.0000
  0
VERTEX
  8
22
 10
11.0090
 20
10.3415
 30
0.0000
  0
SEQEND
  8
0
  0
POLYLINE
  8
22
 66
1
 10
0.0000
 20
0.0000
 30
0.0000
 40
0.0254
 41
0.0254
 70
0
  0
VERTEX
  8
22
 10
11.0000
 20
10.3325
 30
0.0000
 42
1.0000
  0
VERTEX
  8
22
 10
11.0180
 20
10.3504
 30
0.0000
  0
SEQEND
  8
0
  0
POLYLINE
  8
22
 66
1
 10
0.0000
 20
0.0000
 30
0.0000
 40
0.0254
 41
0.0254
 70
0
  0
VERTEX
  8
22
 10
10.9248
 20
10.4437
 30
0.0000
 42
1.0000
  0
VERTEX
  8
22
 10
10.9068
 20
10.4257
 30
0.0000
  0
SEQEND
  8
0
  0
POLYLINE
  8
22
 66
1
 10
0.0000
 20
0.0000
 30
0.0000
 40
0.0508
 41
0.0508
 70
0
  0
VERTEX
  8
22
 10
11.4751
 20
10.9028
 30
0.0000
  0
VERTEX
  8
22
 10
11.1022
 20
10.9028
 30
0.0000
  0
SEQEND
  8
0
  0
POLYLINE
  8
22
 66
1
 10
0.0000
 20
0.0000
 30
0.0000
 40
0.0254
 41
0.0254
 70
0
  0
VERTEX
  8
22
 10
11.1022
 20
10.9155
 30
0.0000
 42
1.0000
  0
VERTEX
  8
22
 10
11.1022
 20
10.8901
 30
0.0000
  0
SEQEND
  8
0
  0
POLYLINE
  8
22
 66
1
 10
0.0000
 20
0.0000
 30
0.0000
 40
0.0254
 41
0.0254
 70
0
  0
VERTEX
  8
22
 10
11.4751
 20
10.8901
 30
0.0000
 42
1.0000
  0
VERTEX
  8
22
 10
11.4751
 20
10.9155
 30
0.0000
  0
SEQEND
  8
0
  0
POLYLINE
  8
22
 66
1
 10
0.0000
 20
0.0000
 30
0.0000
 40
0.0508
 41
0.0508
 70
0
  0
VERTEX
  8
22
 10
11.1022
 20
10.9028
 30
0.0000
  0
VERTEX
  8
22
 10
10.9158
 20
11.0892
 30
0.0000
  0
SEQEND
  8
0
  0
POLYLINE
  8
22
 66
1
 10
0.0000
 20
0.0000
 30
0.0000
 40
0.0254
 41
0.0254
 70
0
  0
VERTEX
  8
22
 10
10.9248
 20
11.0982
 30
0.0000
 42
1.0000
  0
VERTEX
  8
22
 10
10.9068
 20
11.0802
 30
0.0000
  0
SEQEND
  8
0
  0
POLYLINE
  8
22
 66
1
 10
0.0000
 20
0.0000
 30
0.0000
 40
0.0254
 41
0.0254
 70
0
  0
VERTEX
  8
22
 10
11.0932
 20
10.8938
 30
0.0000
 42
1.0000
  0
VERTEX
  8
22
 10
11.1112
 20
10.9118
 30
0.0000
  0
SEQEND
  8
0
  0
POLYLINE
  8
22
 66
1
 10
0.0000
 20
0.0000
 30
0.0000
 40
0.0508
 41
0.0508
 70
0
  0
VERTEX
  8
22
 10
10.9158
 20
11.0892
 30
0.0000
  0
VERTEX
  8
22
 10
11.1022
 20
11.2756
 30
0.0000
  0
SEQEND
  8
0
  0
POLYLINE
  8
22
 66
1
 10
0.0000
 20
0.0000
 30
0.0000
 40
0.0254
 41
0.0254
 70
0
  0
VERTEX
  8
22
 10
11.1112
 20
11.2666
 30
0.0000
 42
1.0000
  0
VERTEX
  8
22
 10
11.0932
 20
11.2846
 30
0.0000
  0
SEQEND
  8
0
  0
POLYLINE
  8
22
 66
1
 10
0.0000
 20
0.0000
 30
0.0000
 40
0.0254
 41
0.0254
 70
0
  0
VERTEX
  8
22
 10
10.9068
 20
11.0982
 30
0.0000
 42
1.0000
  0
VERTEX
  8
22
 10
10.9248
 20
11.0802
 30
0.0000
  0
SEQEND
  8
0
  0
POLYLINE
  8
22
 66
1
 10
0.0000
 20
0.0000
 30
0.0000
 40
0.0508
 41
0.0508
 70
0
  0
VERTEX
  8
22
 10
11.1022
 20
11.2756
 30
0.0000
  0
VERTEX
  8
22
 10
11.4751
 20
11.2756
 30
0.0000
  0
SEQEND
  8
0
  0
POLYLINE
  8
22
 66
1
 10
0.0000
 20
0.0000
 30
0.0000
 40
0.0254
 41
0.0254
 70
0
  0
VERTEX
  8
22
 10
11.4751
 20
11.2629
 30
0.0000
 42
1.0000
  0
VERTEX
  8
22
 10
11.4751
 20
11.2883
 30
0.0000
  0
SEQEND
  8
0
  0
POLYLINE
  8
22
 66
1
 10
0.0000
 20
0.0000
 30
0.0000
 40
0.0254
 41
0.0254
 70
0
  0
VERTEX
  8
22
 10
11.1022
 20
11.2883
 30
0.0000
 42
1.0000
  0
VERTEX
  8
22
 10
11.1022
 20
11.2629
 30
0.0000
  0
SEQEND
  8
0
  0
POLYLINE
  8
22
 66
1
 10
0.0000
 20
0.0000
 30
0.0000
 40
0.0508
 41
0.0508
 70
0
  0
VERTEX
  8
22
 10
11.3819
 20
11.4641
 30
0.0000
  0
VERTEX
  8
22
 10
11.4751
 20
11.5573
 30
0.0000
  0
SEQEND
  8
0
  0
POLYLINE
  8
22
 66
1
 10
0.0000
 20
0.0000
 30
0.0000
 40
0.0254
 41
0.0254
 70
0
  0
VERTEX
  8
22
 10
11.4841
 20
11.5483
 30
0.0000
 42
1.0000
  0
VERTEX
  8
22
 10
11.4661
 20
11.5663
 30
0.0000
  0
SEQEND
  8
0
  0
POLYLINE
  8
22
 66
1
 10
0.0000
 20
0.0000
 30
0.0000
 40
0.0254
 41
0.0254
 70
0
  0
VERTEX
  8
22
 10
11.3729
 20
11.4731
 30
0.0000
 42
1.0000
  0
VERTEX
  8
22
 10
11.3908
 20
11.4551
 30
0.0000
  0
SEQEND
  8
0
  0
POLYLINE
  8
22
 66
1
 10
0.0000
 20
0.0000
 30
0.0000
 40
0.0508
 41
0.0508
 70
0
  0
VERTEX
  8
22
 10
11.4751
 20
11.5573
 30
0.0000
  0
VERTEX
  8
22
 10
11.4751
 20
11.7437
 30
0.0000
  0
SEQEND
  8
0
  0
POLYLINE
  8
22
 66
1
 10
0.0000
 20
0.0000
 30
0.0000
 40
0.0254
 41
0.0254
 70
0
  0
VERTEX
  8
22
 10
11.4878
 20
11.7437
 30
0.0000
 42
1.0000
  0
VERTEX
  8
22
 10
11.4624
 20
11.7437
 30
0.0000
  0
SEQEND
  8
0
  0
POLYLINE
  8
22
 66
1
 10
0.0000
 20
0.0000
 30
0.0000
 40
0.0254
 41
0.0254
 70
0
  0
VERTEX
  8
22
 10
11.4624
 20
11.5573
 30
0.0000
 42
1.0000
  0
VERTEX
  8
22
 10
11.4878
 20
11.5573
 30
0.0000
  0
SEQEND
  8
0
  0
POLYLINE
  8
22
 66
1
 10
0.0000
 20
0.0000
 30
0.0000
 40
0.0508
 41
0.0508
 70
0
  0
VERTEX
  8
22
 10
11.4751
 20
11.7437
 30
0.0000
  0
VERTEX
  8
22
 10
11.3819
 20
11.8369
 30
0.0000
  0
SEQEND
  8
0
  0
POLYLINE
  8
22
 66
1
 10
0.0000
 20
0.0000
 30
0.0000
 40
0.0254
 41
0.0254
 70
0
  0
VERTEX
  8
22
 10
11.3908
 20
11.8459
 30
0.0000
 42
1.0000
  0
VERTEX
  8
22
 10
11.3729
 20
11.8280
 30
0.0000
  0
SEQEND
  8
0
  0
POLYLINE
  8
22
 66
1
 10
0.0000
 20
0.0000
 30
0.0000
 40
0.0254
 41
0.0254
 70
0
  0
VERTEX
  8
22
 10
11.4661
 20
11.7347
 30
0.0000
 42
1.0000
  0
VERTEX
  8
22
 10
11.4841
 20
11.7527
 30
0.0000
  0
SEQEND
  8
0
  0
POLYLINE
  8
22
 66
1
 10
0.0000
 20
0.0000
 30
0.0000
 40
0.0508
 41
0.0508
 70
0
  0
VERTEX
  8
22
 10
11.3819
 20
11.8369
 30
0.0000
  0
VERTEX
  8
22
 10
11.2887
 20
11.8369
 30
0.0000
  0
SEQEND
  8
0
  0
POLYLINE
  8
22
 66
1
 10
0.0000
 20
0.0000
 30
0.0000
 40
0.0254
 41
0.0254
 70
0
  0
VERTEX
  8
22
 10
11.2887
 20
11.8496
 30
0.0000
 42
1.0000
  0
VERTEX
  8
22
 10
11.2887
 20
11.8242
 30
0.0000
  0
SEQEND
  8
0
  0
POLYLINE
  8
22
 66
1
 10
0.0000
 20
0.0000
 30
0.0000
 40
0.0254
 41
0.0254
 70
0
  0
VERTEX
  8
22
 10
11.3819
 20
11.8242
 30
0.0000
 42
1.0000
  0
VERTEX
  8
22
 10
11.3819
 20
11.8496
 30
0.0000
  0
SEQEND
  8
0
  0
POLYLINE
  8
22
 66
1
 10
0.0000
 20
0.0000
 30
0.0000
 40
0.0508
 41
0.0508
 70
0
  0
VERTEX
  8
22
 10
11.2887
 20
11.8369
 30
0.0000
  0
VERTEX
  8
22
 10
11.1954
 20
11.7437
 30
0.0000
  0
SEQEND
  8
0
  0
POLYLINE
  8
22
 66
1
 10
0.0000
 20
0.0000
 30
0.0000
 40
0.0254
 41
0.0254
 70
0
  0
VERTEX
  8
22
 10
11.1865
 20
11.7527
 30
0.0000
 42
1.0000
  0
VERTEX
  8
22
 10
11.2044
 20
11.7347
 30
0.0000
  0
SEQEND
  8
0
  0
POLYLINE
  8
22
 66
1
 10
0.0000
 20
0.0000
 30
0.0000
 40
0.0254
 41
0.0254
 70
0
  0
VERTEX
  8
22
 10
11.2976
 20
11.8280
 30
0.0000
 42
1.0000
  0
VERTEX
  8
22
 10
11.2797
 20
11.8459
 30
0.0000
  0
SEQEND
  8
0
  0
POLYLINE
  8
22
 66
1
 10
0.0000
 20
0.0000
 30
0.0000
 40
0.0508
 41
0.0508
 70
0
  0
VERTEX
  8
22
 10
11.1954
 20
11.7437
 30
0.0000
  0
VERTEX
  8
22
 10
11.1954
 20
11.6505
 30
0.0000
  0
SEQEND
  8
0
  0
POLYLINE
  8
22
 66
1
 10
0.0000
 20
0.0000
 30
0.0000
 40
0.0254
 41
0.0254
 70
0
  0
VERTEX
  8
22
 10
11.1827
 20
11.6505
 30
0.0000
 42
1.0000
  0
VERTEX
  8
22
 10
11.2081
 20
11.6505
 30
0.0000
  0
SEQEND
  8
0
  0
POLYLINE
  8
22
 66
1
 10
0.0000
 20
0.0000
 30
0.0000
 40
0.0254
 41
0.0254
 70
0
  0
VERTEX
  8
22
 10
11.2081
 20
11.7437
 30
0.0000
 42
1.0000
  0
VERTEX
  8
22
 10
11.1827
 20
11.7437
 30
0.0000
  0
SEQEND
  8
0
  0
POLYLINE
  8
22
 66
1
 10
0.0000
 20
0.0000
 30
0.0000
 40
0.0508
 41
0.0508
 70
0
  0
VERTEX
  8
22
 10
11.1954
 20
11.7437
 30
0.0000
  0
VERTEX
  8
22
 10
11.1022
 20
11.8369
 30
0.0000
  0
SEQEND
  8
0
  0
POLYLINE
  8
22
 66
1
 10
0.0000
 20
0.0000
 30
0.0000
 40
0.0254
 41
0.0254
 70
0
  0
VERTEX
  8
22
 10
11.1112
 20
11.8459
 30
0.0000
 42
1.0000
  0
VERTEX
  8
22
 10
11.0932
 20
11.8280
 30
0.0000
  0
SEQEND
  8
0
  0
POLYLINE
  8
22
 66
1
 10
0.0000
 20
0.0000
 30
0.0000
 40
0.0254
 41
0.0254
 70
0
  0
VERTEX
  8
22
 10
11.1865
 20
11.7347
 30
0.0000
 42
1.0000
  0
VERTEX
  8
22
 10
11.2044
 20
11.7527
 30
0.0000
  0
SEQEND
  8
0
  0
POLYLINE
  8
22
 66
1
 10
0.0000
 20
0.0000
 30
0.0000
 40
0.0508
 41
0.0508
 70
0
  0
VERTEX
  8
22
 10
11.1022
 20
11.8369
 30
0.0000
  0
VERTEX
  8
22
 10
11.0090
 20
11.8369
 30
0.0000
  0
SEQEND
  8
0
  0
POLYLINE
  8
22
 66
1
 10
0.0000
 20
0.0000
 30
0.0000
 40
0.0254
 41
0.0254
 70
0
  0
VERTEX
  8
22
 10
11.0090
 20
11.8496
 30
0.0000
 42
1.0000
  0
VERTEX
  8
22
 10
11.0090
 20
11.8242
 30
0.0000
  0
SEQEND
  8
0
  0
POLYLINE
  8
22
 66
1
 10
0.0000
 20
0.0000
 30
0.0000
 40
0.0254
 41
0.0254
 70
0
  0
VERTEX
  8
22
 10
11.1022
 20
11.8242
 30
0.0000
 42
1.0000
  0
VERTEX
  8
22
 10
11.1022
 20
11.8496
 30
0.0000
  0
SEQEND
  8
0
  0
POLYLINE
  8
22
 66
1
 10
0.0000
 20
0.0000
 30
0.0000
 40
0.0508
 41
0.0508
 70
0
  0
VERTEX
  8
22
 10
11.0090
 20
11.8369
 30
0.0000
  0
VERTEX
  8
22
 10
10.9158
 20
11.7437
 30
0.0000
  0
SEQEND
  8
0
  0
POLYLINE
  8
22
 66
1
 10
0.0000
 20
0.0000
 30
0.0000
 40
0.0254
 41
0.0254
 70
0
  0
VERTEX
  8
22
 10
10.9068
 20
11.7527
 30
0.0000
 42
1.0000
  0
VERTEX
  8
22
 10
10.9248
 20
11.7347
 30
0.0000
  0
SEQEND
  8
0
  0
POLYLINE
  8
22
 66
1
 10
0.0000
 20
0.0000
 30
0.0000
 40
0.0254
 41
0.0254
 70
0
  0
VERTEX
  8
22
 10
11.0180
 20
11.8280
 30
0.0000
 42
1.0000
  0
VERTEX
  8
22
 10
11.0000
 20
11.8459
 30
0.0000
  0
SEQEND
  8
0
  0
POLYLINE
  8
22
 66
1
 10
0.0000
 20
0.0000
 30
0.0000
 40
0.0508
 41
0.0508
 70
0
  0
VERTEX
  8
22
 10
10.9158
 20
11.7437
 30
0.0000
  0
VERTEX
  8
22
 10
10.9158
 20
11.5573
 30
0.0000
  0
SEQEND
  8
0
  0
POLYLINE
  8
22
 66
1
 10
0.0000
 20
0.0000
 30
0.0000
 40
0.0254
 41
0.0254
 70
0
  0
VERTEX
  8
22
 10
10.9031
 20
11.5573
 30
0.0000
 42
1.0000
  0
VERTEX
  8
22
 10
10.9285
 20
11.5573
 30
0.0000
  0
SEQEND
  8
0
  0
POLYLINE
  8
22
 66
1
 10
0.0000
 20
0.0000
 30
0.0000
 40
0.0254
 41
0.0254
 70
0
  0
VERTEX
  8
22
 10
10.9285
 20
11.7437
 30
0.0000
 42
1.0000
  0
VERTEX
  8
22
 10
10.9031
 20
11.7437
 30
0.0000
  0
SEQEND
  8
0
  0
POLYLINE
  8
22
 66
1
 10
0.0000
 20
0.0000
 30
0.0000
 40
0.0508
 41
0.0508
 70
0
  0
VERTEX
  8
22
 10
10.9158
 20
11.5573
 30
0.0000
  0
VERTEX
  8
22
 10
11.0090
 20
11.4641
 30
0.0000
  0
SEQEND
  8
0
  0
POLYLINE
  8
22
 66
1
 10
0.0000
 20
0.0000
 30
0.0000
 40
0.0254
 41
0.0254
 70
0
  0
VERTEX
  8
22
 10
11.0000
 20
11.4551
 30
0.0000
 42
1.0000
  0
VERTEX
  8
22
 10
11.0180
 20
11.4731
 30
0.0000
  0
SEQEND
  8
0
  0
POLYLINE
  8
22
 66
1
 10
0.0000
 20
0.0000
 30
0.0000
 40
0.0254
 41
0.0254
 70
0
  0
VERTEX
  8
22
 10
10.9248
 20
11.5663
 30
0.0000
 42
1.0000
  0
VERTEX
  8
22
 10
10.9068
 20
11.5483
 30
0.0000
  0
SEQEND
  8
0
  0
POLYLINE
  8
22
 66
1
 10
0.0000
 20
0.0000
 30
0.0000
 40
0.0508
 41
0.0508
 70
0
  0
VERTEX
  8
22
 10
10.9158
 20
8.0286
 30
0.0000
  0
VERTEX
  8
22
 10
10.9158
 20
8.2150
 30
0.0000
  0
SEQEND
  8
0
  0
POLYLINE
  8
22
 66
1
 10
0.0000
 20
0.0000
 30
0.0000
 40
0.0254
 41
0.0254
 70
0
  0
VERTEX
  8
22
 10
10.9285
 20
8.2150
 30
0.0000
 42
1.0000
  0
VERTEX
  8
22
 10
10.9031
 20
8.2150
 30
0.0000
  0
SEQEND
  8
0
  0
POLYLINE
  8
22
 66
1
 10
0.0000
 20
0.0000
 30
0.0000
 40
0.0254
 41
0.0254
 70
0
  0
VERTEX
  8
22
 10
10.9031
 20
8.0286
 30
0.0000
 42
1.0000
  0
VERTEX
  8
22
 10
10.9285
 20
8.0286
 30
0.0000
  0
SEQEND
  8
0
  0
POLYLINE
  8
22
 66
1
 10
0.0000
 20
0.0000
 30
0.0000
 40
0.0508
 41
0.0508
 70
0
  0
VERTEX
  8
22
 10
10.9158
 20
8.1218
 30
0.0000
  0
VERTEX
  8
22
 10
11.4751
 20
8.1218
 30
0.0000
  0
SEQEND
  8
0
  0
POLYLINE
  8
22
 66
1
 10
0.0000
 20
0.0000
 30
0.0000
 40
0.0254
 41
0.0254
 70
0
  0
VERTEX
  8
22
 10
11.4751
 20
8.1091
 30
0.0000
 42
1.0000
  0
VERTEX
  8
22
 10
11.4751
 20
8.1345
 30
0.0000
  0
SEQEND
  8
0
  0
POLYLINE
  8
22
 66
1
 10
0.0000
 20
0.0000
 30
0.0000
 40
0.0254
 41
0.0254
 70
0
  0
VERTEX
  8
22
 10
10.9158
 20
8.1345
 30
0.0000
 42
1.0000
  0
VERTEX
  8
22
 10
10.9158
 20
8.1091
 30
0.0000
  0
SEQEND
  8
0
  0
POLYLINE
  8
22
 66
1
 10
0.0000
 20
0.0000
 30
0.0000
 40
0.0508
 41
0.0508
 70
0
  0
VERTEX
  8
22
 10
11.4751
 20
8.0286
 30
0.0000
  0
VERTEX
  8
22
 10
11.4751
 20
8.2150
 30
0.0000
  0
SEQEND
  8
0
  0
POLYLINE
  8
22
 66
1
 10
0.0000
 20
0.0000
 30
0.0000
 40
0.0254
 41
0.0254
 70
0
  0
VERTEX
  8
22
 10
11.4878
 20
8.2150
 30
0.0000
 42
1.0000
  0
VERTEX
  8
22
 10
11.4624
 20
8.2150
 30
0.0000
  0
SEQEND
  8
0
  0
POLYLINE
  8
22
 66
1
 10
0.0000
 20
0.0000
 30
0.0000
 40
0.0254
 41
0.0254
 70
0
  0
VERTEX
  8
22
 10
11.4624
 20
8.0286
 30
0.0000
 42
1.0000
  0
VERTEX
  8
22
 10
11.4878
 20
8.0286
 30
0.0000
  0
SEQEND
  8
0
  0
POLYLINE
  8
22
 66
1
 10
0.0000
 20
0.0000
 30
0.0000
 40
0.0508
 41
0.0508
 70
0
  0
VERTEX
  8
22
 10
10.9158
 20
8.4028
 30
0.0000
  0
VERTEX
  8
22
 10
11.4751
 20
8.4028
 30
0.0000
  0
SEQEND
  8
0
  0
POLYLINE
  8
22
 66
1
 10
0.0000
 20
0.0000
 30
0.0000
 40
0.0254
 41
0.0254
 70
0
  0
VERTEX
  8
22
 10
11.4751
 20
8.3901
 30
0.0000
 42
1.0000
  0
VERTEX
  8
22
 10
11.4751
 20
8.4155
 30
0.0000
  0
SEQEND
  8
0
  0
POLYLINE
  8
22
 66
1
 10
0.0000
 20
0.0000
 30
0.0000
 40
0.0254
 41
0.0254
 70
0
  0
VERTEX
  8
22
 10
10.9158
 20
8.4155
 30
0.0000
 42
1.0000
  0
VERTEX
  8
22
 10
10.9158
 20
8.3901
 30
0.0000
  0
SEQEND
  8
0
  0
POLYLINE
  8
22
 66
1
 10
0.0000
 20
0.0000
 30
0.0000
 40
0.0508
 41
0.0508
 70
0
  0
VERTEX
  8
22
 10
11.4751
 20
8.4028
 30
0.0000
  0
VERTEX
  8
22
 10
10.9158
 20
8.7756
 30
0.0000
  0
SEQEND
  8
0
  0
POLYLINE
  8
22
 66
1
 10
0.0000
 20
0.0000
 30
0.0000
 40
0.0254
 41
0.0254
 70
0
  0
VERTEX
  8
22
 10
10.9228
 20
8.7862
 30
0.0000
 42
1.0000
  0
VERTEX
  8
22
 10
10.9088
 20
8.7651
 30
0.0000
  0
SEQEND
  8
0
  0
POLYLINE
  8
22
 66
1
 10
0.0000
 20
0.0000
 30
0.0000
 40
0.0254
 41
0.0254
 70
0
  0
VERTEX
  8
22
 10
11.4680
 20
8.3922
 30
0.0000
 42
1.0000
  0
VERTEX
  8
22
 10
11.4821
 20
8.4133
 30
0.0000
  0
SEQEND
  8
0
  0
POLYLINE
  8
22
 66
1
 10
0.0000
 20
0.0000
 30
0.0000
 40
0.0508
 41
0.0508
 70
0
  0
VERTEX
  8
22
 10
10.9158
 20
8.7756
 30
0.0000
  0
VERTEX
  8
22
 10
11.4751
 20
8.7756
 30
0.0000
  0
SEQEND
  8
0
  0
POLYLINE
  8
22
 66
1
 10
0.0000
 20
0.0000
 30
0.0000
 40
0.0254
 41
0.0254
 70
0
  0
VERTEX
  8
22
 10
11.4751
 20
8.7629
 30
0.0000
 42
1.0000
  0
VERTEX
  8
22
 10
11.4751
 20
8.7883
 30
0.0000
  0
SEQEND
  8
0
  0
POLYLINE
  8
22
 66
1
 10
0.0000
 20
0.0000
 30
0.0000
 40
0.0254
 41
0.0254
 70
0
  0
VERTEX
  8
22
 10
10.9158
 20
8.7883
 30
0.0000
 42
1.0000
  0
VERTEX
  8
22
 10
10.9158
 20
8.7629
 30
0.0000
  0
SEQEND
  8
0
  0
POLYLINE
  8
22
 66
1
 10
0.0000
 20
0.0000
 30
0.0000
 40
0.0508
 41
0.0508
 70
0
  0
VERTEX
  8
22
 10
11.2887
 20
8.9641
 30
0.0000
  0
VERTEX
  8
22
 10
11.4751
 20
9.1505
 30
0.0000
  0
SEQEND
  8
0
  0
POLYLINE
  8
22
 66
1
 10
0.0000
 20
0.0000
 30
0.0000
 40
0.0254
 41
0.0254
 70
0
  0
VERTEX
  8
22
 10
11.4841
 20
9.1415
 30
0.0000
 42
1.0000
  0
VERTEX
  8
22
 10
11.4661
 20
9.1595
 30
0.0000
  0
SEQEND
  8
0
  0
POLYLINE
  8
22
 66
1
 10
0.0000
 20
0.0000
 30
0.0000
 40
0.0254
 41
0.0254
 70
0
  0
VERTEX
  8
22
 10
11.2797
 20
8.9731
 30
0.0000
 42
1.0000
  0
VERTEX
  8
22
 10
11.2976
 20
8.9551
 30
0.0000
  0
SEQEND
  8
0
  0
POLYLINE
  8
22
 66
1
 10
0.0000
 20
0.0000
 30
0.0000
 40
0.0508
 41
0.0508
 70
0
  0
VERTEX
  8
22
 10
11.4751
 20
9.1505
 30
0.0000
  0
VERTEX
  8
22
 10
10.9158
 20
9.1505
 30
0.0000
  0
SEQEND
  8
0
  0
POLYLINE
  8
22
 66
1
 10
0.0000
 20
0.0000
 30
0.0000
 40
0.0254
 41
0.0254
 70
0
  0
VERTEX
  8
22
 10
10.9158
 20
9.1632
 30
0.0000
 42
1.0000
  0
VERTEX
  8
22
 10
10.9158
 20
9.1378
 30
0.0000
  0
SEQEND
  8
0
  0
POLYLINE
  8
22
 66
1
 10
0.0000
 20
0.0000
 30
0.0000
 40
0.0254
 41
0.0254
 70
0
  0
VERTEX
  8
22
 10
11.4751
 20
9.1378
 30
0.0000
 42
1.0000
  0
VERTEX
  8
22
 10
11.4751
 20
9.1632
 30
0.0000
  0
SEQEND
  8
0
  0
POLYLINE
  8
22
 66
1
 10
0.0000
 20
0.0000
 30
0.0000
 40
0.0508
 41
0.0508
 70
0
  0
VERTEX
  8
22
 10
10.9158
 20
8.9641
 30
0.0000
  0
VERTEX
  8
22
 10
10.9158
 20
9.3369
 30
0.0000
  0
SEQEND
  8
0
  0
POLYLINE
  8
22
 66
1
 10
0.0000
 20
0.0000
 30
0.0000
 40
0.0254
 41
0.0254
 70
0
  0
VERTEX
  8
22
 10
10.9285
 20
9.3369
 30
0.0000
 42
1.0000
  0
VERTEX
  8
22
 10
10.9031
 20
9.3369
 30
0.0000
  0
SEQEND
  8
0
  0
POLYLINE
  8
22
 66
1
 10
0.0000
 20
0.0000
 30
0.0000
 40
0.0254
 41
0.0254
 70
0
  0
VERTEX
  8
22
 10
10.9031
 20
8.9641
 30
0.0000
 42
1.0000
  0
VERTEX
  8
22
 10
10.9285
 20
8.9641
 30
0.0000
  0
SEQEND
  8
0
  0
POLYLINE
  8
22
 66
1
 10
0.0000
 20
0.0000
 30
0.0000
 40
0.0508
 41
0.0508
 70
0
  0
VERTEX
  8
22
 10
10.9158
 20
5.3286
 30
0.0000
  0
VERTEX
  8
22
 10
10.9158
 20
5.5150
 30
0.0000
  0
SEQEND
  8
0
  0
POLYLINE
  8
22
 66
1
 10
0.0000
 20
0.0000
 30
0.0000
 40
0.0254
 41
0.0254
 70
0
  0
VERTEX
  8
22
 10
10.9285
 20
5.5150
 30
0.0000
 42
1.0000
  0
VERTEX
  8
22
 10
10.9031
 20
5.5150
 30
0.0000
  0
SEQEND
  8
0
  0
POLYLINE
  8
22
 66
1
 10
0.0000
 20
0.0000
 30
0.0000
 40
0.0254
 41
0.0254
 70
0
  0
VERTEX
  8
22
 10
10.9031
 20
5.3286
 30
0.0000
 42
1.0000
  0
VERTEX
  8
22
 10
10.9285
 20
5.3286
 30
0.0000
  0
SEQEND
  8
0
  0
POLYLINE
  8
22
 66
1
 10
0.0000
 20
0.0000
 30
0.0000
 40
0.0508
 41
0.0508
 70
0
  0
VERTEX
  8
22
 10
10.9158
 20
5.4218
 30
0.0000
  0
VERTEX
  8
22
 10
11.4751
 20
5.4218
 30
0.0000
  0
SEQEND
  8
0
  0
POLYLINE
  8
22
 66
1
 10
0.0000
 20
0.0000
 30
0.0000
 40
0.0254
 41
0.0254
 70
0
  0
VERTEX
  8
22
 10
11.4751
 20
5.4091
 30
0.0000
 42
1.0000
  0
VERTEX
  8
22
 10
11.4751
 20
5.4345
 30
0.0000
  0
SEQEND
  8
0
  0
POLYLINE
  8
22
 66
1
 10
0.0000
 20
0.0000
 30
0.0000
 40
0.0254
 41
0.0254
 70
0
  0
VERTEX
  8
22
 10
10.9158
 20
5.4345
 30
0.0000
 42
1.0000
  0
VERTEX
  8
22
 10
10.9158
 20
5.4091
 30
0.0000
  0
SEQEND
  8
0
  0
POLYLINE
  8
22
 66
1
 10
0.0000
 20
0.0000
 30
0.0000
 40
0.0508
 41
0.0508
 70
0
  0
VERTEX
  8
22
 10
11.4751
 20
5.3286
 30
0.0000
  0
VERTEX
  8
22
 10
11.4751
 20
5.5150
 30
0.0000
  0
SEQEND
  8
0
  0
POLYLINE
  8
22
 66
1
 10
0.0000
 20
0.0000
 30
0.0000
 40
0.0254
 41
0.0254
 70
0
  0
VERTEX
  8
22
 10
11.4878
 20
5.5150
 30
0.0000
 42
1.0000
  0
VERTEX
  8
22
 10
11.4624
 20
5.5150
 30
0.0000
  0
SEQEND
  8
0
  0
POLYLINE
  8
22
 66
1
 10
0.0000
 20
0.0000
 30
0.0000
 40
0.0254
 41
0.0254
 70
0
  0
VERTEX
  8
22
 10
11.4624
 20
5.3286
 30
0.0000
 42
1.0000
  0
VERTEX
  8
22
 10
11.4878
 20
5.3286
 30
0.0000
  0
SEQEND
  8
0
  0
POLYLINE
  8
22
 66
1
 10
0.0000
 20
0.0000
 30
0.0000
 40
0.0508
 41
0.0508
 70
0
  0
VERTEX
  8
22
 10
10.9158
 20
5.7028
 30
0.0000
  0
VERTEX
  8
22
 10
11.4751
 20
5.7028
 30
0.0000
  0
SEQEND
  8
0
  0
POLYLINE
  8
22
 66
1
 10
0.0000
 20
0.0000
 30
0.0000
 40
0.0254
 41
0.0254
 70
0
  0
VERTEX
  8
22
 10
11.4751
 20
5.6901
 30
0.0000
 42
1.0000
  0
VERTEX
  8
22
 10
11.4751
 20
5.7155
 30
0.0000
  0
SEQEND
  8
0
  0
POLYLINE
  8
22
 66
1
 10
0.0000
 20
0.0000
 30
0.0000
 40
0.0254
 41
0.0254
 70
0
  0
VERTEX
  8
22
 10
10.9158
 20
5.7155
 30
0.0000
 42
1.0000
  0
VERTEX
  8
22
 10
10.9158
 20
5.6901
 30
0.0000
  0
SEQEND
  8
0
  0
POLYLINE
  8
22
 66
1
 10
0.0000
 20
0.0000
 30
0.0000
 40
0.0508
 41
0.0508
 70
0
  0
VERTEX
  8
22
 10
11.4751
 20
5.7028
 30
0.0000
  0
VERTEX
  8
22
 10
10.9158
 20
6.0756
 30
0.0000
  0
SEQEND
  8
0
  0
POLYLINE
  8
22
 66
1
 10
0.0000
 20
0.0000
 30
0.0000
 40
0.0254
 41
0.0254
 70
0
  0
VERTEX
  8
22
 10
10.9228
 20
6.0862
 30
0.0000
 42
1.0000
  0
VERTEX
  8
22
 10
10.9088
 20
6.0651
 30
0.0000
  0
SEQEND
  8
0
  0
POLYLINE
  8
22
 66
1
 10
0.0000
 20
0.0000
 30
0.0000
 40
0.0254
 41
0.0254
 70
0
  0
VERTEX
  8
22
 10
11.4680
 20
5.6922
 30
0.0000
 42
1.0000
  0
VERTEX
  8
22
 10
11.4821
 20
5.7133
 30
0.0000
  0
SEQEND
  8
0
  0
POLYLINE
  8
22
 66
1
 10
0.0000
 20
0.0000
 30
0.0000
 40
0.0508
 41
0.0508
 70
0
  0
VERTEX
  8
22
 10
10.9158
 20
6.0756
 30
0.0000
  0
VERTEX
  8
22
 10
11.4751
 20
6.0756
 30
0.0000
  0
SEQEND
  8
0
  0
POLYLINE
  8
22
 66
1
 10
0.0000
 20
0.0000
 30
0.0000
 40
0.0254
 41
0.0254
 70
0
  0
VERTEX
  8
22
 10
11.4751
 20
6.0629
 30
0.0000
 42
1.0000
  0
VERTEX
  8
22
 10
11.4751
 20
6.0883
 30
0.0000
  0
SEQEND
  8
0
  0
POLYLINE
  8
22
 66
1
 10
0.0000
 20
0.0000
 30
0.0000
 40
0.0254
 41
0.0254
 70
0
  0
VERTEX
  8
22
 10
10.9158
 20
6.0883
 30
0.0000
 42
1.0000
  0
VERTEX
  8
22
 10
10.9158
 20
6.0629
 30
0.0000
  0
SEQEND
  8
0
  0
POLYLINE
  8
22
 66
1
 10
0.0000
 20
0.0000
 30
0.0000
 40
0.0508
 41
0.0508
 70
0
  0
VERTEX
  8
22
 10
11.0090
 20
6.2641
 30
0.0000
  0
VERTEX
  8
22
 10
11.3819
 20
6.2641
 30
0.0000
  0
SEQEND
  8
0
  0
POLYLINE
  8
22
 66
1
 10
0.0000
 20
0.0000
 30
0.0000
 40
0.0254
 41
0.0254
 70
0
  0
VERTEX
  8
22
 10
11.3819
 20
6.2514
 30
0.0000
 42
1.0000
  0
VERTEX
  8
22
 10
11.3819
 20
6.2768
 30
0.0000
  0
SEQEND
  8
0
  0
POLYLINE
  8
22
 66
1
 10
0.0000
 20
0.0000
 30
0.0000
 40
0.0254
 41
0.0254
 70
0
  0
VERTEX
  8
22
 10
11.0090
 20
6.2768
 30
0.0000
 42
1.0000
  0
VERTEX
  8
22
 10
11.0090
 20
6.2514
 30
0.0000
  0
SEQEND
  8
0
  0
POLYLINE
  8
22
 66
1
 10
0.0000
 20
0.0000
 30
0.0000
 40
0.0508
 41
0.0508
 70
0
  0
VERTEX
  8
22
 10
11.3819
 20
6.2641
 30
0.0000
  0
VERTEX
  8
22
 10
11.4751
 20
6.3573
 30
0.0000
  0
SEQEND
  8
0
  0
POLYLINE
  8
22
 66
1
 10
0.0000
 20
0.0000
 30
0.0000
 40
0.0254
 41
0.0254
 70
0
  0
VERTEX
  8
22
 10
11.4841
 20
6.3483
 30
0.0000
 42
1.0000
  0
VERTEX
  8
22
 10
11.4661
 20
6.3663
 30
0.0000
  0
SEQEND
  8
0
  0
POLYLINE
  8
22
 66
1
 10
0.0000
 20
0.0000
 30
0.0000
 40
0.0254
 41
0.0254
 70
0
  0
VERTEX
  8
22
 10
11.3729
 20
6.2731
 30
0.0000
 42
1.0000
  0
VERTEX
  8
22
 10
11.3908
 20
6.2551
 30
0.0000
  0
SEQEND
  8
0
  0
POLYLINE
  8
22
 66
1
 10
0.0000
 20
0.0000
 30
0.0000
 40
0.0508
 41
0.0508
 70
0
  0
VERTEX
  8
22
 10
11.4751
 20
6.3573
 30
0.0000
  0
VERTEX
  8
22
 10
11.4751
 20
6.5437
 30
0.0000
  0
SEQEND
  8
0
  0
POLYLINE
  8
22
 66
1
 10
0.0000
 20
0.0000
 30
0.0000
 40
0.0254
 41
0.0254
 70
0
  0
VERTEX
  8
22
 10
11.4878
 20
6.5437
 30
0.0000
 42
1.0000
  0
VERTEX
  8
22
 10
11.4624
 20
6.5437
 30
0.0000
  0
SEQEND
  8
0
  0
POLYLINE
  8
22
 66
1
 10
0.0000
 20
0.0000
 30
0.0000
 40
0.0254
 41
0.0254
 70
0
  0
VERTEX
  8
22
 10
11.4624
 20
6.3573
 30
0.0000
 42
1.0000
  0
VERTEX
  8
22
 10
11.4878
 20
6.3573
 30
0.0000
  0
SEQEND
  8
0
  0
POLYLINE
  8
22
 66
1
 10
0.0000
 20
0.0000
 30
0.0000
 40
0.0508
 41
0.0508
 70
0
  0
VERTEX
  8
22
 10
11.4751
 20
6.5437
 30
0.0000
  0
VERTEX
  8
22
 10
11.3819
 20
6.6369
 30
0.0000
  0
SEQEND
  8
0
  0
POLYLINE
  8
22
 66
1
 10
0.0000
 20
0.0000
 30
0.0000
 40
0.0254
 41
0.0254
 70
0
  0
VERTEX
  8
22
 10
11.3908
 20
6.6459
 30
0.0000
 42
1.0000
  0
VERTEX
  8
22
 10
11.3729
 20
6.6280
 30
0.0000
  0
SEQEND
  8
0
  0
POLYLINE
  8
22
 66
1
 10
0.0000
 20
0.0000
 30
0.0000
 40
0.0254
 41
0.0254
 70
0
  0
VERTEX
  8
22
 10
11.4661
 20
6.5347
 30
0.0000
 42
1.0000
  0
VERTEX
  8
22
 10
11.4841
 20
6.5527
 30
0.0000
  0
SEQEND
  8
0
  0
POLYLINE
  8
22
 66
1
 10
0.0000
 20
0.0000
 30
0.0000
 40
0.0508
 41
0.0508
 70
0
  0
VERTEX
  8
22
 10
11.3819
 20
6.6369
 30
0.0000
  0
VERTEX
  8
22
 10
11.0090
 20
6.6369
 30
0.0000
  0
SEQEND
  8
0
  0
POLYLINE
  8
22
 66
1
 10
0.0000
 20
0.0000
 30
0.0000
 40
0.0254
 41
0.0254
 70
0
  0
VERTEX
  8
22
 10
11.0090
 20
6.6496
 30
0.0000
 42
1.0000
  0
VERTEX
  8
22
 10
11.0090
 20
6.6242
 30
0.0000
  0
SEQEND
  8
0
  0
POLYLINE
  8
22
 66
1
 10
0.0000
 20
0.0000
 30
0.0000
 40
0.0254
 41
0.0254
 70
0
  0
VERTEX
  8
22
 10
11.3819
 20
6.6242
 30
0.0000
 42
1.0000
  0
VERTEX
  8
22
 10
11.3819
 20
6.6496
 30
0.0000
  0
SEQEND
  8
0
  0
POLYLINE
  8
22
 66
1
 10
0.0000
 20
0.0000
 30
0.0000
 40
0.0508
 41
0.0508
 70
0
  0
VERTEX
  8
22
 10
11.0090
 20
6.6369
 30
0.0000
  0
VERTEX
  8
22
 10
10.9158
 20
6.5437
 30
0.0000
  0
SEQEND
  8
0
  0
POLYLINE
  8
22
 66
1
 10
0.0000
 20
0.0000
 30
0.0000
 40
0.0254
 41
0.0254
 70
0
  0
VERTEX
  8
22
 10
10.9068
 20
6.5527
 30
0.0000
 42
1.0000
  0
VERTEX
  8
22
 10
10.9248
 20
6.5347
 30
0.0000
  0
SEQEND
  8
0
  0
POLYLINE
  8
22
 66
1
 10
0.0000
 20
0.0000
 30
0.0000
 40
0.0254
 41
0.0254
 70
0
  0
VERTEX
  8
22
 10
11.0180
 20
6.6280
 30
0.0000
 42
1.0000
  0
VERTEX
  8
22
 10
11.0000
 20
6.6459
 30
0.0000
  0
SEQEND
  8
0
  0
POLYLINE
  8
22
 66
1
 10
0.0000
 20
0.0000
 30
0.0000
 40
0.0508
 41
0.0508
 70
0
  0
VERTEX
  8
22
 10
10.9158
 20
6.5437
 30
0.0000
  0
VERTEX
  8
22
 10
10.9158
 20
6.3573
 30
0.0000
  0
SEQEND
  8
0
  0
POLYLINE
  8
22
 66
1
 10
0.0000
 20
0.0000
 30
0.0000
 40
0.0254
 41
0.0254
 70
0
  0
VERTEX
  8
22
 10
10.9031
 20
6.3573
 30
0.0000
 42
1.0000
  0
VERTEX
  8
22
 10
10.9285
 20
6.3573
 30
0.0000
  0
SEQEND
  8
0
  0
POLYLINE
  8
22
 66
1
 10
0.0000
 20
0.0000
 30
0.0000
 40
0.0254
 41
0.0254
 70
0
  0
VERTEX
  8
22
 10
10.9285
 20
6.5437
 30
0.0000
 42
1.0000
  0
VERTEX
  8
22
 10
10.9031
 20
6.5437
 30
0.0000
  0
SEQEND
  8
0
  0
POLYLINE
  8
22
 66
1
 10
0.0000
 20
0.0000
 30
0.0000
 40
0.0508
 41
0.0508
 70
0
  0
VERTEX
  8
22
 10
10.9158
 20
6.3573
 30
0.0000
  0
VERTEX
  8
22
 10
11.0090
 20
6.2641
 30
0.0000
  0
SEQEND
  8
0
  0
POLYLINE
  8
22
 66
1
 10
0.0000
 20
0.0000
 30
0.0000
 40
0.0254
 41
0.0254
 70
0
  0
VERTEX
  8
22
 10
11.0000
 20
6.2551
 30
0.0000
 42
1.0000
  0
VERTEX
  8
22
 10
11.0180
 20
6.2731
 30
0.0000
  0
SEQEND
  8
0
  0
POLYLINE
  8
22
 66
1
 10
0.0000
 20
0.0000
 30
0.0000
 40
0.0254
 41
0.0254
 70
0
  0
VERTEX
  8
22
 10
10.9248
 20
6.3663
 30
0.0000
 42
1.0000
  0
VERTEX
  8
22
 10
10.9068
 20
6.3483
 30
0.0000
  0
SEQEND
  8
0
  0
POLYLINE
  8
22
 66
1
 10
0.0000
 20
0.0000
 30
0.0000
 40
0.0508
 41
0.0508
 70
0
  0
VERTEX
  8
22
 10
11.0090
 20
6.2641
 30
0.0000
  0
VERTEX
  8
22
 10
11.3819
 20
6.6369
 30
0.0000
  0
SEQEND
  8
0
  0
POLYLINE
  8
22
 66
1
 10
0.0000
 20
0.0000
 30
0.0000
 40
0.0254
 41
0.0254
 70
0
  0
VERTEX
  8
22
 10
11.3908
 20
6.6280
 30
0.0000
 42
1.0000
  0
VERTEX
  8
22
 10
11.3729
 20
6.6459
 30
0.0000
  0
SEQEND
  8
0
  0
POLYLINE
  8
22
 66
1
 10
0.0000
 20
0.0000
 30
0.0000
 40
0.0254
 41
0.0254
 70
0
  0
VERTEX
  8
22
 10
11.0000
 20
6.2731
 30
0.0000
 42
1.0000
  0
VERTEX
  8
22
 10
11.0180
 20
6.2551
 30
0.0000
  0
SEQEND
  8
0
  0
POINT
  8
23
 10
13.2000
 20
13.8000
 30
0.0000
  0
POLYLINE
  8
21
 66
1
 10
0.0000
 20
0.0000
 30
0.0000
 40
0.2032
 41
0.2032
 70
0
  0
VERTEX
  8
21
 10
14.4700
 20
6.8150
 30
0.0000
  0
VERTEX
  8
21
 10
14.4700
 20
5.5450
 30
0.0000
  0
SEQEND
  8
0
  0
POLYLINE
  8
21
 66
1
 10
0.0000
 20
0.0000
 30
0.0000
 40
0.1016
 41
0.1016
 70
0
  0
VERTEX
  8
21
 10
14.4192
 20
5.5450
 30
0.0000
 42
1.0000
  0
VERTEX
  8
21
 10
14.5208
 20
5.5450
 30
0.0000
  0
SEQEND
  8
0
  0
POLYLINE
  8
21
 66
1
 10
0.0000
 20
0.0000
 30
0.0000
 40
0.1016
 41
0.1016
 70
0
  0
VERTEX
  8
21
 10
14.5208
 20
6.8150
 30
0.0000
 42
1.0000
  0
VERTEX
  8
21
 10
14.4192
 20
6.8150
 30
0.0000
  0
SEQEND
  8
0
  0
POLYLINE
  8
21
 66
1
 10
0.0000
 20
0.0000
 30
0.0000
 40
0.2032
 41
0.2032
 70
0
  0
VERTEX
  8
21
 10
14.4700
 20
5.5450
 30
0.0000
  0
VERTEX
  8
21
 10
13.8350
 20
4.9100
 30
0.0000
  0
SEQEND
  8
0
  0
POLYLINE
  8
21
 66
1
 10
0.0000
 20
0.0000
 30
0.0000
 40
0.1016
 41
0.1016
 70
0
  0
VERTEX
  8
21
 10
13.7991
 20
4.9459
 30
0.0000
 42
1.0000
  0
VERTEX
  8
21
 10
13.8709
 20
4.8741
 30
0.0000
  0
SEQEND
  8
0
  0
POLYLINE
  8
21
 66
1
 10
0.0000
 20
0.0000
 30
0.0000
 40
0.1016
 41
0.1016
 70
0
  0
VERTEX
  8
21
 10
14.5059
 20
5.5091
 30
0.0000
 42
1.0000
  0
VERTEX
  8
21
 10
14.4341
 20
5.5809
 30
0.0000
  0
SEQEND
  8
0
  0
POLYLINE
  8
21
 66
1
 10
0.0000
 20
0.0000
 30
0.0000
 40
0.2032
 41
0.2032
 70
0
  0
VERTEX
  8
21
 10
12.5650
 20
4.9100
 30
0.0000
  0
VERTEX
  8
21
 10
11.9300
 20
5.5450
 30
0.0000
  0
SEQEND
  8
0
  0
POLYLINE
  8
21
 66
1
 10
0.0000
 20
0.0000
 30
0.0000
 40
0.1016
 41
0.1016
 70
0
  0
VERTEX
  8
21
 10
11.9659
 20
5.5809
 30
0.0000
 42
1.0000
  0
VERTEX
  8
21
 10
11.8941
 20
5.5091
 30
0.0000
  0
SEQEND
  8
0
  0
POLYLINE
  8
21
 66
1
 10
0.0000
 20
0.0000
 30
0.0000
 40
0.1016
 41
0.1016
 70
0
  0
VERTEX
  8
21
 10
12.5291
 20
4.8741
 30
0.0000
 42
1.0000
  0
VERTEX
  8
21
 10
12.6009
 20
4.9459
 30
0.0000
  0
SEQEND
  8
0
  0
POLYLINE
  8
21
 66
1
 10
0.0000
 20
0.0000
 30
0.0000
 40
0.2032
 41
0.2032
 70
0
  0
VERTEX
  8
21
 10
13.8350
 20
9.9900
 30
0.0000
  0
VERTEX
  8
21
 10
14.4700
 20
9.3550
 30
0.0000
  0
SEQEND
  8
0
  0
POLYLINE
  8
21
 66
1
 10
0.0000
 20
0.0000
 30
0.0000
 40
0.1016
 41
0.1016
 70
0
  0
VERTEX
  8
21
 10
14.4341
 20
9.3191
 30
0.0000
 42
1.0000
  0
VERTEX
  8
21
 10
14.5059
 20
9.3909
 30
0.0000
  0
SEQEND
  8
0
  0
POLYLINE
  8
21
 66
1
 10
0.0000
 20
0.0000
 30
0.0000
 40
0.1016
 41
0.1016
 70
0
  0
VERTEX
  8
21
 10
13.8709
 20
10.0259
 30
0.0000
 42
1.0000
  0
VERTEX
  8
21
 10
13.7991
 20
9.9541
 30
0.0000
  0
SEQEND
  8
0
  0
POLYLINE
  8
21
 66
1
 10
0.0000
 20
0.0000
 30
0.0000
 40
0.2032
 41
0.2032
 70
0
  0
VERTEX
  8
21
 10
14.4700
 20
9.3550
 30
0.0000
  0
VERTEX
  8
21
 10
14.4700
 20
8.0850
 30
0.0000
  0
SEQEND
  8
0
  0
POLYLINE
  8
21
 66
1
 10
0.0000
 20
0.0000
 30
0.0000
 40
0.1016
 41
0.1016
 70
0
  0
VERTEX
  8
21
 10
14.4192
 20
8.0850
 30
0.0000
 42
1.0000
  0
VERTEX
  8
21
 10
14.5208
 20
8.0850
 30
0.0000
  0
SEQEND
  8
0
  0
POLYLINE
  8
21
 66
1
 10
0.0000
 20
0.0000
 30
0.0000
 40
0.1016
 41
0.1016
 70
0
  0
VERTEX
  8
21
 10
14.5208
 20
9.3550
 30
0.0000
 42
1.0000
  0
VERTEX
  8
21
 10
14.4192
 20
9.3550
 30
0.0000
  0
SEQEND
  8
0
  0
POLYLINE
  8
21
 66
1
 10
0.0000
 20
0.0000
 30
0.0000
 40
0.2032
 41
0.2032
 70
0
  0
VERTEX
  8
21
 10
14.4700
 20
8.0850
 30
0.0000
  0
VERTEX
  8
21
 10
13.8350
 20
7.4500
 30
0.0000
  0
SEQEND
  8
0
  0
POLYLINE
  8
21
 66
1
 10
0.0000
 20
0.0000
 30
0.0000
 40
0.1016
 41
0.1016
 70
0
  0
VERTEX
  8
21
 10
13.7991
 20
7.4859
 30
0.0000
 42
1.0000
  0
VERTEX
  8
21
 10
13.8709
 20
7.4141
 30
0.0000
  0
SEQEND
  8
0
  0
POLYLINE
  8
21
 66
1
 10
0.0000
 20
0.0000
 30
0.0000
 40
0.1016
 41
0.1016
 70
0
  0
VERTEX
  8
21
 10
14.5059
 20
8.0491
 30
0.0000
 42
1.0000
  0
VERTEX
  8
21
 10
14.4341
 20
8.1209
 30
0.0000
  0
SEQEND
  8
0
  0
POLYLINE
  8
21
 66
1
 10
0.0000
 20
0.0000
 30
0.0000
 40
0.2032
 41
0.2032
 70
0
  0
VERTEX
  8
21
 10
12.5650
 20
7.4500
 30
0.0000
  0
VERTEX
  8
21
 10
11.9300
 20
8.0850
 30
0.0000
  0
SEQEND
  8
0
  0
POLYLINE
  8
21
 66
1
 10
0.0000
 20
0.0000
 30
0.0000
 40
0.1016
 41
0.1016
 70
0
  0
VERTEX
  8
21
 10
11.9659
 20
8.1209
 30
0.0000
 42
1.0000
  0
VERTEX
  8
21
 10
11.8941
 20
8.0491
 30
0.0000
  0
SEQEND
  8
0
  0
POLYLINE
  8
21
 66
1
 10
0.0000
 20
0.0000
 30
0.0000
 40
0.1016
 41
0.1016
 70
0
  0
VERTEX
  8
21
 10
12.5291
 20
7.4141
 30
0.0000
 42
1.0000
  0
VERTEX
  8
21
 10
12.6009
 20
7.4859
 30
0.0000
  0
SEQEND
  8
0
  0
POLYLINE
  8
21
 66
1
 10
0.0000
 20
0.0000
 30
0.0000
 40
0.2032
 41
0.2032
 70
0
  0
VERTEX
  8
21
 10
11.9300
 20
8.0850
 30
0.0000
  0
VERTEX
  8
21
 10
11.9300
 20
9.3550
 30
0.0000
  0
SEQEND
  8
0
  0
POLYLINE
  8
21
 66
1
 10
0.0000
 20
0.0000
 30
0.0000
 40
0.1016
 41
0.1016
 70
0
  0
VERTEX
  8
21
 10
11.9808
 20
9.3550
 30
0.0000
 42
1.0000
  0
VERTEX
  8
21
 10
11.8792
 20
9.3550
 30
0.0000
  0
SEQEND
  8
0
  0
POLYLINE
  8
21
 66
1
 10
0.0000
 20
0.0000
 30
0.0000
 40
0.1016
 41
0.1016
 70
0
  0
VERTEX
  8
21
 10
11.8792
 20
8.0850
 30
0.0000
 42
1.0000
  0
VERTEX
  8
21
 10
11.9808
 20
8.0850
 30
0.0000
  0
SEQEND
  8
0
  0
POLYLINE
  8
21
 66
1
 10
0.0000
 20
0.0000
 30
0.0000
 40
0.2032
 41
0.2032
 70
0
  0
VERTEX
  8
21
 10
11.9300
 20
9.3550
 30
0.0000
  0
VERTEX
  8
21
 10
12.5650
 20
9.9900
 30
0.0000
  0
SEQEND
  8
0
  0
POLYLINE
  8
21
 66
1
 10
0.0000
 20
0.0000
 30
0.0000
 40
0.1016
 41
0.1016
 70
0
  0
VERTEX
  8
21
 10
12.6009
 20
9.9541
 30
0.0000
 42
1.0000
  0
VERTEX
  8
21
 10
12.5291
 20
10.0259
 30
0.0000
  0
SEQEND
  8
0
  0
POLYLINE
  8
21
 66
1
 10
0.0000
 20
0.0000
 30
0.0000
 40
0.1016
 41
0.1016
 70
0
  0
VERTEX
  8
21
 10
11.8941
 20
9.3909
 30
0.0000
 42
1.0000
  0
VERTEX
  8
21
 10
11.9659
 20
9.3191
 30
0.0000
  0
SEQEND
  8
0
  0
POLYLINE
  8
21
 66
1
 10
0.0000
 20
0.0000
 30
0.0000
 40
0.2032
 41
0.2032
 70
0
  0
VERTEX
  8
21
 10
14.4700
 20
6.8150
 30
0.0000
  0
VERTEX
  8
21
 10
13.8350
 20
7.4500
 30
0.0000
  0
SEQEND
  8
0
  0
POLYLINE
  8
21
 66
1
 10
0.0000
 20
0.0000
 30
0.0000
 40
0.1016
 41
0.1016
 70
0
  0
VERTEX
  8
21
 10
13.8709
 20
7.4859
 30
0.0000
 42
1.0000
  0
VERTEX
  8
21
 10
13.7991
 20
7.4141
 30
0.0000
  0
SEQEND
  8
0
  0
POLYLINE
  8
21
 66
1
 10
0.0000
 20
0.0000
 30
0.0000
 40
0.1016
 41
0.1016
 70
0
  0
VERTEX
  8
21
 10
14.4341
 20
6.7791
 30
0.0000
 42
1.0000
  0
VERTEX
  8
21
 10
14.5059
 20
6.8509
 30
0.0000
  0
SEQEND
  8
0
  0
POLYLINE
  8
21
 66
1
 10
0.0000
 20
0.0000
 30
0.0000
 40
0.2032
 41
0.2032
 70
0
  0
VERTEX
  8
21
 10
12.5650
 20
7.4500
 30
0.0000
  0
VERTEX
  8
21
 10
11.9300
 20
6.8150
 30
0.0000
  0
SEQEND
  8
0
  0
POLYLINE
  8
21
 66
1
 10
0.0000
 20
0.0000
 30
0.0000
 40
0.1016
 41
0.1016
 70
0
  0
VERTEX
  8
21
 10
11.8941
 20
6.8509
 30
0.0000
 42
1.0000
  0
VERTEX
  8
21
 10
11.9659
 20
6.7791
 30
0.0000
  0
SEQEND
  8
0
  0
POLYLINE
  8
21
 66
1
 10
0.0000
 20
0.0000
 30
0.0000
 40
0.1016
 41
0.1016
 70
0
  0
VERTEX
  8
21
 10
12.6009
 20
7.4141
 30
0.0000
 42
1.0000
  0
VERTEX
  8
21
 10
12.5291
 20
7.4859
 30
0.0000
  0
SEQEND
  8
0
  0
POLYLINE
  8
21
 66
1
 10
0.0000
 20
0.0000
 30
0.0000
 40
0.2032
 41
0.2032
 70
0
  0
VERTEX
  8
21
 10
11.9300
 20
5.5450
 30
0.0000
  0
VERTEX
  8
21
 10
11.9300
 20
6.8150
 30
0.0000
  0
SEQEND
  8
0
  0
POLYLINE
  8
21
 66
1
 10
0.0000
 20
0.0000
 30
0.0000
 40
0.1016
 41
0.1016
 70
0
  0
VERTEX
  8
21
 10
11.9808
 20
6.8150
 30
0.0000
 42
1.0000
  0
VERTEX
  8
21
 10
11.8792
 20
6.8150
 30
0.0000
  0
SEQEND
  8
0
  0
POLYLINE
  8
21
 66
1
 10
0.0000
 20
0.0000
 30
0.0000
 40
0.1016
 41
0.1016
 70
0
  0
VERTEX
  8
21
 10
11.8792
 20
5.5450
 30
0.0000
 42
1.0000
  0
VERTEX
  8
21
 10
11.9808
 20
5.5450
 30
0.0000
  0
SEQEND
  8
0
  0
POLYLINE
  8
21
 66
1
 10
0.0000
 20
0.0000
 30
0.0000
 40
0.2032
 41
0.2032
 70
0
  0
VERTEX
  8
21
 10
14.4700
 20
14.4350
 30
0.0000
  0
VERTEX
  8
21
 10
14.4700
 20
13.1650
 30
0.0000
  0
SEQEND
  8
0
  0
POLYLINE
  8
21
 66
1
 10
0.0000
 20
0.0000
 30
0.0000
 40
0.1016
 41
0.1016
 70
0
  0
VERTEX
  8
21
 10
14.4192
 20
13.1650
 30
0.0000
 42
1.0000
  0
VERTEX
  8
21
 10
14.5208
 20
13.1650
 30
0.0000
  0
SEQEND
  8
0
  0
POLYLINE
  8
21
 66
1
 10
0.0000
 20
0.0000
 30
0.0000
 40
0.1016
 41
0.1016
 70
0
  0
VERTEX
  8
21
 10
14.5208
 20
14.4350
 30
0.0000
 42
1.0000
  0
VERTEX
  8
21
 10
14.4192
 20
14.4350
 30
0.0000
  0
SEQEND
  8
0
  0
POLYLINE
  8
21
 66
1
 10
0.0000
 20
0.0000
 30
0.0000
 40
0.2032
 41
0.2032
 70
0
  0
VERTEX
  8
21
 10
14.4700
 20
13.1650
 30
0.0000
  0
VERTEX
  8
21
 10
13.8350
 20
12.5300
 30
0.0000
  0
SEQEND
  8
0
  0
POLYLINE
  8
21
 66
1
 10
0.0000
 20
0.0000
 30
0.0000
 40
0.1016
 41
0.1016
 70
0
  0
VERTEX
  8
21
 10
13.7991
 20
12.5659
 30
0.0000
 42
1.0000
  0
VERTEX
  8
21
 10
13.8709
 20
12.4941
 30
0.0000
  0
SEQEND
  8
0
  0
POLYLINE
  8
21
 66
1
 10
0.0000
 20
0.0000
 30
0.0000
 40
0.1016
 41
0.1016
 70
0
  0
VERTEX
  8
21
 10
14.5059
 20
13.1291
 30
0.0000
 42
1.0000
  0
VERTEX
  8
21
 10
14.4341
 20
13.2009
 30
0.0000
  0
SEQEND
  8
0
  0
POLYLINE
  8
21
 66
1
 10
0.0000
 20
0.0000
 30
0.0000
 40
0.2032
 41
0.2032
 70
0
  0
VERTEX
  8
21
 10
12.5650
 20
12.5300
 30
0.0000
  0
VERTEX
  8
21
 10
11.9300
 20
13.1650
 30
0.0000
  0
SEQEND
  8
0
  0
POLYLINE
  8
21
 66
1
 10
0.0000
 20
0.0000
 30
0.0000
 40
0.1016
 41
0.1016
 70
0
  0
VERTEX
  8
21
 10
11.9659
 20
13.2009
 30
0.0000
 42
1.0000
  0
VERTEX
  8
21
 10
11.8941
 20
13.1291
 30
0.0000
  0
SEQEND
  8
0
  0
POLYLINE
  8
21
 66
1
 10
0.0000
 20
0.0000
 30
0.0000
 40
0.1016
 41
0.1016
 70
0
  0
VERTEX
  8
21
 10
12.5291
 20
12.4941
 30
0.0000
 42
1.0000
  0
VERTEX
  8
21
 10
12.6009
 20
12.5659
 30
0.0000
  0
SEQEND
  8
0
  0
POLYLINE
  8
21
 66
1
 10
0.0000
 20
0.0000
 30
0.0000
 40
0.2032
 41
0.2032
 70
0
  0
VERTEX
  8
21
 10
13.8350
 20
12.5300
 30
0.0000
  0
VERTEX
  8
21
 10
14.4700
 20
11.8950
 30
0.0000
  0
SEQEND
  8
0
  0
POLYLINE
  8
21
 66
1
 10
0.0000
 20
0.0000
 30
0.0000
 40
0.1016
 41
0.1016
 70
0
  0
VERTEX
  8
21
 10
14.4341
 20
11.8591
 30
0.0000
 42
1.0000
  0
VERTEX
  8
21
 10
14.5059
 20
11.9309
 30
0.0000
  0
SEQEND
  8
0
  0
POLYLINE
  8
21
 66
1
 10
0.0000
 20
0.0000
 30
0.0000
 40
0.1016
 41
0.1016
 70
0
  0
VERTEX
  8
21
 10
13.8709
 20
12.5659
 30
0.0000
 42
1.0000
  0
VERTEX
  8
21
 10
13.7991
 20
12.4941
 30
0.0000
  0
SEQEND
  8
0
  0
POLYLINE
  8
21
 66
1
 10
0.0000
 20
0.0000
 30
0.0000
 40
0.2032
 41
0.2032
 70
0
  0
VERTEX
  8
21
 10
14.4700
 20
11.8950
 30
0.0000
  0
VERTEX
  8
21
 10
14.4700
 20
10.6250
 30
0.0000
  0
SEQEND
  8
0
  0
POLYLINE
  8
21
 66
1
 10
0.0000
 20
0.0000
 30
0.0000
 40
0.1016
 41
0.1016
 70
0
  0
VERTEX
  8
21
 10
14.4192
 20
10.6250
 30
0.0000
 42
1.0000
  0
VERTEX
  8
21
 10
14.5208
 20
10.6250
 30
0.0000
  0
SEQEND
  8
0
  0
POLYLINE
  8
21
 66
1
 10
0.0000
 20
0.0000
 30
0.0000
 40
0.1016
 41
0.1016
 70
0
  0
VERTEX
  8
21
 10
14.5208
 20
11.8950
 30
0.0000
 42
1.0000
  0
VERTEX
  8
21
 10
14.4192
 20
11.8950
 30
0.0000
  0
SEQEND
  8
0
  0
POLYLINE
  8
21
 66
1
 10
0.0000
 20
0.0000
 30
0.0000
 40
0.2032
 41
0.2032
 70
0
  0
VERTEX
  8
21
 10
14.4700
 20
10.6250
 30
0.0000
  0
VERTEX
  8
21
 10
13.8350
 20
9.9900
 30
0.0000
  0
SEQEND
  8
0
  0
POLYLINE
  8
21
 66
1
 10
0.0000
 20
0.0000
 30
0.0000
 40
0.1016
 41
0.1016
 70
0
  0
VERTEX
  8
21
 10
13.7991
 20
10.0259
 30
0.0000
 42
1.0000
  0
VERTEX
  8
21
 10
13.8709
 20
9.9541
 30
0.0000
  0
SEQEND
  8
0
  0
POLYLINE
  8
21
 66
1
 10
0.0000
 20
0.0000
 30
0.0000
 40
0.1016
 41
0.1016
 70
0
  0
VERTEX
  8
21
 10
14.5059
 20
10.5891
 30
0.0000
 42
1.0000
  0
VERTEX
  8
21
 10
14.4341
 20
10.6609
 30
0.0000
  0
SEQEND
  8
0
  0
POLYLINE
  8
21
 66
1
 10
0.0000
 20
0.0000
 30
0.0000
 40
0.2032
 41
0.2032
 70
0
  0
VERTEX
  8
21
 10
12.5650
 20
9.9900
 30
0.0000
  0
VERTEX
  8
21
 10
11.9300
 20
10.6250
 30
0.0000
  0
SEQEND
  8
0
  0
POLYLINE
  8
21
 66
1
 10
0.0000
 20
0.0000
 30
0.0000
 40
0.1016
 41
0.1016
 70
0
  0
VERTEX
  8
21
 10
11.9659
 20
10.6609
 30
0.0000
 42
1.0000
  0
VERTEX
  8
21
 10
11.8941
 20
10.5891
 30
0.0000
  0
SEQEND
  8
0
  0
POLYLINE
  8
21
 66
1
 10
0.0000
 20
0.0000
 30
0.0000
 40
0.1016
 41
0.1016
 70
0
  0
VERTEX
  8
21
 10
12.5291
 20
9.9541
 30
0.0000
 42
1.0000
  0
VERTEX
  8
21
 10
12.6009
 20
10.0259
 30
0.0000
  0
SEQEND
  8
0
  0
POLYLINE
  8
21
 66
1
 10
0.0000
 20
0.0000
 30
0.0000
 40
0.2032
 41
0.2032
 70
0
  0
VERTEX
  8
21
 10
11.9300
 20
10.6250
 30
0.0000
  0
VERTEX
  8
21
 10
11.9300
 20
11.8950
 30
0.0000
  0
SEQEND
  8
0
  0
POLYLINE
  8
21
 66
1
 10
0.0000
 20
0.0000
 30
0.0000
 40
0.1016
 41
0.1016
 70
0
  0
VERTEX
  8
21
 10
11.9808
 20
11.8950
 30
0.0000
 42
1.0000
  0
VERTEX
  8
21
 10
11.8792
 20
11.8950
 30
0.0000
  0
SEQEND
  8
0
  0
POLYLINE
  8
21
 66
1
 10
0.0000
 20
0.0000
 30
0.0000
 40
0.1016
 41
0.1016
 70
0
  0
VERTEX
  8
21
 10
11.8792
 20
10.6250
 30
0.0000
 42
1.0000
  0
VERTEX
  8
21
 10
11.9808
 20
10.6250
 30
0.0000
  0
SEQEND
  8
0
  0
POLYLINE
  8
21
 66
1
 10
0.0000
 20
0.0000
 30
0.0000
 40
0.2032
 41
0.2032
 70
0
  0
VERTEX
  8
21
 10
11.9300
 20
11.8950
 30
0.0000
  0
VERTEX
  8
21
 10
12.5650
 20
12.5300
 30
0.0000
  0
SEQEND
  8
0
  0
POLYLINE
  8
21
 66
1
 10
0.0000
 20
0.0000
 30
0.0000
 40
0.1016
 41
0.1016
 70
0
  0
VERTEX
  8
21
 10
12.6009
 20
12.4941
 30
0.0000
 42
1.0000
  0
VERTEX
  8
21
 10
12.5291
 20
12.5659
 30
0.0000
  0
SEQEND
  8
0
  0
POLYLINE
  8
21
 66
1
 10
0.0000
 20
0.0000
 30
0.0000
 40
0.1016
 41
0.1016
 70
0
  0
VERTEX
  8
21
 10
11.8941
 20
11.9309
 30
0.0000
 42
1.0000
  0
VERTEX
  8
21
 10
11.9659
 20
11.8591
 30
0.0000
  0
SEQEND
  8
0
  0
POLYLINE
  8
21
 66
1
 10
0.0000
 20
0.0000
 30
0.0000
 40
0.2032
 41
0.2032
 70
0
  0
VERTEX
  8
21
 10
13.8350
 20
15.0700
 30
0.0000
  0
VERTEX
  8
21
 10
12.5650
 20
15.0700
 30
0.0000
  0
SEQEND
  8
0
  0
POLYLINE
  8
21
 66
1
 10
0.0000
 20
0.0000
 30
0.0000
 40
0.1016
 41
0.1016
 70
0
  0
VERTEX
  8
21
 10
12.5650
 20
15.1208
 30
0.0000
 42
1.0000
  0
VERTEX
  8
21
 10
12.5650
 20
15.0192
 30
0.0000
  0
SEQEND
  8
0
  0
POLYLINE
  8
21
 66
1
 10
0.0000
 20
0.0000
 30
0.0000
 40
0.1016
 41
0.1016
 70
0
  0
VERTEX
  8
21
 10
13.8350
 20
15.0192
 30
0.0000
 42
1.0000
  0
VERTEX
  8
21
 10
13.8350
 20
15.1208
 30
0.0000
  0
SEQEND
  8
0
  0
POLYLINE
  8
21
 66
1
 10
0.0000
 20
0.0000
 30
0.0000
 40
0.2032
 41
0.2032
 70
0
  0
VERTEX
  8
21
 10
14.4700
 20
14.4350
 30
0.0000
  0
VERTEX
  8
21
 10
13.8350
 20
15.0700
 30
0.0000
  0
SEQEND
  8
0
  0
POLYLINE
  8
21
 66
1
 10
0.0000
 20
0.0000
 30
0.0000
 40
0.1016
 41
0.1016
 70
0
  0
VERTEX
  8
21
 10
13.8709
 20
15.1059
 30
0.0000
 42
1.0000
  0
VERTEX
  8
21
 10
13.7991
 20
15.0341
 30
0.0000
  0
SEQEND
  8
0
  0
POLYLINE
  8
21
 66
1
 10
0.0000
 20
0.0000
 30
0.0000
 40
0.1016
 41
0.1016
 70
0
  0
VERTEX
  8
21
 10
14.4341
 20
14.3991
 30
0.0000
 42
1.0000
  0
VERTEX
  8
21
 10
14.5059
 20
14.4709
 30
0.0000
  0
SEQEND
  8
0
  0
POLYLINE
  8
21
 66
1
 10
0.0000
 20
0.0000
 30
0.0000
 40
0.2032
 41
0.2032
 70
0
  0
VERTEX
  8
21
 10
12.5650
 20
15.0700
 30
0.0000
  0
VERTEX
  8
21
 10
11.9300
 20
14.4350
 30
0.0000
  0
SEQEND
  8
0
  0
POLYLINE
  8
21
 66
1
 10
0.0000
 20
0.0000
 30
0.0000
 40
0.1016
 41
0.1016
 70
0
  0
VERTEX
  8
21
 10
11.8941
 20
14.4709
 30
0.0000
 42
1.0000
  0
VERTEX
  8
21
 10
11.9659
 20
14.3991
 30
0.0000
  0
SEQEND
  8
0
  0
POLYLINE
  8
21
 66
1
 10
0.0000
 20
0.0000
 30
0.0000
 40
0.1016
 41
0.1016
 70
0
  0
VERTEX
  8
21
 10
12.6009
 20
15.0341
 30
0.0000
 42
1.0000
  0
VERTEX
  8
21
 10
12.5291
 20
15.1059
 30
0.0000
  0
SEQEND
  8
0
  0
POLYLINE
  8
21
 66
1
 10
0.0000
 20
0.0000
 30
0.0000
 40
0.2032
 41
0.2032
 70
0
  0
VERTEX
  8
21
 10
11.9300
 20
13.1650
 30
0.0000
  0
VERTEX
  8
21
 10
11.9300
 20
14.4350
 30
0.0000
  0
SEQEND
  8
0
  0
POLYLINE
  8
21
 66
1
 10
0.0000
 20
0.0000
 30
0.0000
 40
0.1016
 41
0.1016
 70
0
  0
VERTEX
  8
21
 10
11.9808
 20
14.4350
 30
0.0000
 42
1.0000
  0
VERTEX
  8
21
 10
11.8792
 20
14.4350
 30
0.0000
  0
SEQEND
  8
0
  0
POLYLINE
  8
21
 66
1
 10
0.0000
 20
0.0000
 30
0.0000
 40
0.1016
 41
0.1016
 70
0
  0
VERTEX
  8
21
 10
11.8792
 20
13.1650
 30
0.0000
 42
1.0000
  0
VERTEX
  8
21
 10
11.9808
 20
13.1650
 30
0.0000
  0
SEQEND
  8
0
  0
POLYLINE
  8
21
 66
1
 10
0.0000
 20
0.0000
 30
0.0000
 40
0.2032
 41
0.2032
 70
0
  0
VERTEX
  8
21
 10
13.8350
 20
4.9100
 30
0.0000
  0
VERTEX
  8
21
 10
12.5650
 20
4.9100
 30
0.0000
  0
SEQEND
  8
0
  0
POLYLINE
  8
21
 66
1
 10
0.0000
 20
0.0000
 30
0.0000
 40
0.1016
 41
0.1016
 70
0
  0
VERTEX
  8
21
 10
12.5650
 20
4.9608
 30
0.0000
 42
1.0000
  0
VERTEX
  8
21
 10
12.5650
 20
4.8592
 30
0.0000
  0
SEQEND
  8
0
  0
POLYLINE
  8
21
 66
1
 10
0.0000
 20
0.0000
 30
0.0000
 40
0.1016
 41
0.1016
 70
0
  0
VERTEX
  8
21
 10
13.8350
 20
4.8592
 30
0.0000
 42
1.0000
  0
VERTEX
  8
21
 10
13.8350
 20
4.9608
 30
0.0000
  0
SEQEND
  8
0
  0
INSERT
  8
51
  2
RECT
 10
13.2000
 20
6.1800
 30
0.0000
 41
0.5080
 42
0.5080
 43
1.0000
 50
270.0000
  0
INSERT
  8
51
  2
RECT
 10
13.2000
 20
8.7200
 30
0.0000
 41
0.5080
 42
0.5080
 43
1.0000
 50
270.0000
  0
INSERT
  8
51
  2
RECT
 10
13.2000
 20
11.2600
 30
0.0000
 41
0.5080
 42
0.5080
 43
1.0000
 50
270.0000
  0
INSERT
  8
51
  2
RECT
 10
13.2000
 20
13.8000
 30
0.0000
 41
0.5080
 42
0.5080
 43
1.0000
 50
270.0000
  0
INSERT
  8
17
  2
SQUAREP
 10
13.2000
 20
13.8000
 30
0.0000
 41
1.8796
 42
1.8796
 43
1.0000
 50
0.0000
  0
INSERT
  8
17
  2
SQUAREP
 10
13.2000
 20
13.8000
 30
0.0000
 41
1.8796
 42
1.8796
 43
1.0000
 50
0.0000
  0
INSERT
  8
17
  2
ROUNDP
 10
13.2000
 20
11.2600
 30
0.0000
 41
1.8796
 42
1.8796
 43
1.0000
 50
0.0000
  0
INSERT
  8
17
  2
ROUNDP
 10
13.2000
 20
11.2600
 30
0.0000
 41
1.8796
 42
1.8796
 43
1.0000
 50
0.0000
  0
INSERT
  8
17
  2
ROUNDP
 10
13.2000
 20
8.7200
 30
0.0000
 41
1.8796
 42
1.8796
 43
1.0000
 50
0.0000
  0
INSERT
  8
17
  2
ROUNDP
 10
13.2000
 20
8.7200
 30
0.0000
 41
1.8796
 42
1.8796
 43
1.0000
 50
0.0000
  0
INSERT
  8
17
  2
ROUNDP
 10
13.2000
 20
6.1800
 30
0.0000
 41
1.8796
 42
1.8796
 43
1.0000
 50
0.0000
  0
INSERT
  8
17
  2
ROUNDP
 10
13.2000
 20
6.1800
 30
0.0000
 41
1.8796
 42
1.8796
 43
1.0000
 50
0.0000
  0
POINT
  8
23
 10
2.4000
 20
10.0000
 30
0.0000
  0
POLYLINE
  8
51
 66
1
 10
0.0000
 20
0.0000
 30
0.0000
 40
0.1270
 41
0.1270
 70
0
  0
VERTEX
  8
51
 10
6.0957
 20
16.5659
 30
0.0000
  0
VERTEX
  8
51
 10
-7.8870
 20
16.5659
 30
0.0000
  0
SEQEND
  8
0
  0
POLYLINE
  8
51
 66
1
 10
0.0000
 20
0.0000
 30
0.0000
 40
0.0635
 41
0.0635
 70
0
  0
VERTEX
  8
51
 10
-7.8870
 20
16.5976
 30
0.0000
 42
1.0000
  0
VERTEX
  8
51
 10
-7.8870
 20
16.5342
 30
0.0000
  0
SEQEND
  8
0
  0
POLYLINE
  8
51
 66
1
 10
0.0000
 20
0.0000
 30
0.0000
 40
0.0635
 41
0.0635
 70
0
  0
VERTEX
  8
51
 10
6.0957
 20
16.5342
 30
0.0000
 42
1.0000
  0
VERTEX
  8
51
 10
6.0957
 20
16.5976
 30
0.0000
  0
SEQEND
  8
0
  0
POLYLINE
  8
51
 66
1
 10
0.0000
 20
0.0000
 30
0.0000
 40
0.1270
 41
0.1270
 70
0
  0
VERTEX
  8
51
 10
6.0957
 20
3.4341
 30
0.0000
  0
VERTEX
  8
51
 10
-7.8870
 20
3.4341
 30
0.0000
  0
SEQEND
  8
0
  0
POLYLINE
  8
51
 66
1
 10
0.0000
 20
0.0000
 30
0.0000
 40
0.0635
 41
0.0635
 70
0
  0
VERTEX
  8
51
 10
-7.8870
 20
3.4659
 30
0.0000
 42
1.0000
  0
VERTEX
  8
51
 10
-7.8870
 20
3.4024
 30
0.0000
  0
SEQEND
  8
0
  0
POLYLINE
  8
51
 66
1
 10
0.0000
 20
0.0000
 30
0.0000
 40
0.0635
 41
0.0635
 70
0
  0
VERTEX
  8
51
 10
6.0957
 20
3.4024
 30
0.0000
 42
1.0000
  0
VERTEX
  8
51
 10
6.0957
 20
3.4659
 30
0.0000
  0
SEQEND
  8
0
  0
POLYLINE
  8
51
 66
1
 10
0.0000
 20
0.0000
 30
0.0000
 40
0.1270
 41
0.1270
 70
0
  0
VERTEX
  8
51
 10
-7.8870
 20
16.4770
 30
0.0000
  0
VERTEX
  8
51
 10
-7.8870
 20
3.5230
 30
0.0000
  0
SEQEND
  8
0
  0
POLYLINE
  8
51
 66
1
 10
0.0000
 20
0.0000
 30
0.0000
 40
0.0635
 41
0.0635
 70
0
  0
VERTEX
  8
51
 10
-7.9188
 20
3.5230
 30
0.0000
 42
1.0000
  0
VERTEX
  8
51
 10
-7.8553
 20
3.5230
 30
0.0000
  0
SEQEND
  8
0
  0
POLYLINE
  8
51
 66
1
 10
0.0000
 20
0.0000
 30
0.0000
 40
0.0635
 41
0.0635
 70
0
  0
VERTEX
  8
51
 10
-7.8553
 20
16.4770
 30
0.0000
 42
1.0000
  0
VERTEX
  8
51
 10
-7.9188
 20
16.4770
 30
0.0000
  0
SEQEND
  8
0
  0
POLYLINE
  8
51
 66
1
 10
0.0000
 20
0.0000
 30
0.0000
 40
0.1270
 41
0.1270
 70
0
  0
VERTEX
  8
51
 10
6.1084
 20
16.5024
 30
0.0000
  0
VERTEX
  8
51
 10
6.1084
 20
3.4976
 30
0.0000
  0
SEQEND
  8
0
  0
POLYLINE
  8
51
 66
1
 10
0.0000
 20
0.0000
 30
0.0000
 40
0.0635
 41
0.0635
 70
0
  0
VERTEX
  8
51
 10
6.0767
 20
3.4976
 30
0.0000
 42
1.0000
  0
VERTEX
  8
51
 10
6.1402
 20
3.4976
 30
0.0000
  0
SEQEND
  8
0
  0
POLYLINE
  8
51
 66
1
 10
0.0000
 20
0.0000
 30
0.0000
 40
0.0635
 41
0.0635
 70
0
  0
VERTEX
  8
51
 10
6.1402
 20
16.5024
 30
0.0000
 42
1.0000
  0
VERTEX
  8
51
 10
6.0767
 20
16.5024
 30
0.0000
  0
SEQEND
  8
0
  0
POLYLINE
  8
51
 66
1
 10
0.0000
 20
0.0000
 30
0.0000
 40
0.1270
 41
0.1270
 70
0
  0
VERTEX
  8
51
 10
-0.1400
 20
4.9200
 30
0.0000
  0
VERTEX
  8
51
 10
-6.4900
 20
5.5550
 30
0.0000
  0
SEQEND
  8
0
  0
POLYLINE
  8
51
 66
1
 10
0.0000
 20
0.0000
 30
0.0000
 40
0.0635
 41
0.0635
 70
0
  0
VERTEX
  8
51
 10
-6.4868
 20
5.5866
 30
0.0000
 42
1.0000
  0
VERTEX
  8
51
 10
-6.4932
 20
5.5234
 30
0.0000
  0
SEQEND
  8
0
  0
POLYLINE
  8
51
 66
1
 10
0.0000
 20
0.0000
 30
0.0000
 40
0.0635
 41
0.0635
 70
0
  0
VERTEX
  8
51
 10
-0.1432
 20
4.8884
 30
0.0000
 42
1.0000
  0
VERTEX
  8
51
 10
-0.1368
 20
4.9516
 30
0.0000
  0
SEQEND
  8
0
  0
POLYLINE
  8
51
 66
1
 10
0.0000
 20
0.0000
 30
0.0000
 40
0.1270
 41
0.1270
 70
0
  0
VERTEX
  8
51
 10
-6.4900
 20
5.5550
 30
0.0000
  0
VERTEX
  8
51
 10
-6.4900
 20
8.7300
 30
0.0000
  0
SEQEND
  8
0
  0
POLYLINE
  8
51
 66
1
 10
0.0000
 20
0.0000
 30
0.0000
 40
0.0635
 41
0.0635
 70
0
  0
VERTEX
  8
51
 10
-6.4583
 20
8.7300
 30
0.0000
 42
1.0000
  0
VERTEX
  8
51
 10
-6.5217
 20
8.7300
 30
0.0000
  0
SEQEND
  8
0
  0
POLYLINE
  8
51
 66
1
 10
0.0000
 20
0.0000
 30
0.0000
 40
0.0635
 41
0.0635
 70
0
  0
VERTEX
  8
51
 10
-6.5217
 20
5.5550
 30
0.0000
 42
1.0000
  0
VERTEX
  8
51
 10
-6.4583
 20
5.5550
 30
0.0000
  0
SEQEND
  8
0
  0
POLYLINE
  8
51
 66
1
 10
0.0000
 20
0.0000
 30
0.0000
 40
0.1270
 41
0.1270
 70
0
  0
VERTEX
  8
51
 10
-6.4900
 20
8.7300
 30
0.0000
  0
VERTEX
  8
51
 10
-0.1400
 20
9.3650
 30
0.0000
  0
SEQEND
  8
0
  0
POLYLINE
  8
51
 66
1
 10
0.0000
 20
0.0000
 30
0.0000
 40
0.0635
 41
0.0635
 70
0
  0
VERTEX
  8
51
 10
-0.1368
 20
9.3334
 30
0.0000
 42
1.0000
  0
VERTEX
  8
51
 10
-0.1432
 20
9.3966
 30
0.0000
  0
SEQEND
  8
0
  0
POLYLINE
  8
51
 66
1
 10
0.0000
 20
0.0000
 30
0.0000
 40
0.0635
 41
0.0635
 70
0
  0
VERTEX
  8
51
 10
-6.4932
 20
8.7616
 30
0.0000
 42
1.0000
  0
VERTEX
  8
51
 10
-6.4868
 20
8.6984
 30
0.0000
  0
SEQEND
  8
0
  0
POLYLINE
  8
51
 66
1
 10
0.0000
 20
0.0000
 30
0.0000
 40
0.1270
 41
0.1270
 70
0
  0
VERTEX
  8
51
 10
-0.1400
 20
15.0800
 30
0.0000
  0
VERTEX
  8
51
 10
-6.4900
 20
14.4450
 30
0.0000
  0
SEQEND
  8
0
  0
POLYLINE
  8
51
 66
1
 10
0.0000
 20
0.0000
 30
0.0000
 40
0.0635
 41
0.0635
 70
0
  0
VERTEX
  8
51
 10
-6.4932
 20
14.4766
 30
0.0000
 42
1.0000
  0
VERTEX
  8
51
 10
-6.4868
 20
14.4134
 30
0.0000
  0
SEQEND
  8
0
  0
POLYLINE
  8
51
 66
1
 10
0.0000
 20
0.0000
 30
0.0000
 40
0.0635
 41
0.0635
 70
0
  0
VERTEX
  8
51
 10
-0.1368
 20
15.0484
 30
0.0000
 42
1.0000
  0
VERTEX
  8
51
 10
-0.1432
 20
15.1116
 30
0.0000
  0
SEQEND
  8
0
  0
POLYLINE
  8
51
 66
1
 10
0.0000
 20
0.0000
 30
0.0000
 40
0.1270
 41
0.1270
 70
0
  0
VERTEX
  8
51
 10
-6.4900
 20
14.4450
 30
0.0000
  0
VERTEX
  8
51
 10
-6.4900
 20
11.2700
 30
0.0000
  0
SEQEND
  8
0
  0
POLYLINE
  8
51
 66
1
 10
0.0000
 20
0.0000
 30
0.0000
 40
0.0635
 41
0.0635
 70
0
  0
VERTEX
  8
51
 10
-6.5217
 20
11.2700
 30
0.0000
 42
1.0000
  0
VERTEX
  8
51
 10
-6.4583
 20
11.2700
 30
0.0000
  0
SEQEND
  8
0
  0
POLYLINE
  8
51
 66
1
 10
0.0000
 20
0.0000
 30
0.0000
 40
0.0635
 41
0.0635
 70
0
  0
VERTEX
  8
51
 10
-6.4583
 20
14.4450
 30
0.0000
 42
1.0000
  0
VERTEX
  8
51
 10
-6.5217
 20
14.4450
 30
0.0000
  0
SEQEND
  8
0
  0
POLYLINE
  8
51
 66
1
 10
0.0000
 20
0.0000
 30
0.0000
 40
0.1270
 41
0.1270
 70
0
  0
VERTEX
  8
51
 10
-6.4900
 20
11.2700
 30
0.0000
  0
VERTEX
  8
51
 10
-0.1400
 20
10.6350
 30
0.0000
  0
SEQEND
  8
0
  0
POLYLINE
  8
51
 66
1
 10
0.0000
 20
0.0000
 30
0.0000
 40
0.0635
 41
0.0635
 70
0
  0
VERTEX
  8
51
 10
-0.1432
 20
10.6034
 30
0.0000
 42
1.0000
  0
VERTEX
  8
51
 10
-0.1368
 20
10.6666
 30
0.0000
  0
SEQEND
  8
0
  0
POLYLINE
  8
51
 66
1
 10
0.0000
 20
0.0000
 30
0.0000
 40
0.0635
 41
0.0635
 70
0
  0
VERTEX
  8
51
 10
-6.4868
 20
11.3016
 30
0.0000
 42
1.0000
  0
VERTEX
  8
51
 10
-6.4932
 20
11.2384
 30
0.0000
  0
SEQEND
  8
0
  0
INSERT
  8
1
  2
RECT
 10
6.6120
 20
9.0000
 30
0.0000
 41
3.0000
 42
0.9000
 43
1.0000
 50
0.0000
  0
INSERT
  8
1
  2
RECT
 10
6.6120
 20
11.0000
 30
0.0000
 41
3.0000
 42
0.9000
 43
1.0000
 50
0.0000
  0
INSERT
  8
1
  2
RECT
 10
6.6120
 20
6.5000
 30
0.0000
 41
3.0000
 42
0.9000
 43
1.0000
 50
0.0000
  0
INSERT
  8
17
  2
ROUNDP
 10
2.4000
 20
3.4341
 30
0.0000
 41
3.3274
 42
3.3274
 43
1.0000
 50
270.0000
  0
INSERT
  8
17
  2
ROUNDP
 10
2.4000
 20
3.4341
 30
0.0000
 41
3.3274
 42
3.3274
 43
1.0000
 50
270.0000
  0
INSERT
  8
17
  2
ROUNDP
 10
2.4000
 20
16.5659
 30
0.0000
 41
3.3274
 42
3.3274
 43
1.0000
 50
270.0000
  0
INSERT
  8
17
  2
ROUNDP
 10
2.4000
 20
16.5659
 30
0.0000
 41
3.3274
 42
3.3274
 43
1.0000
 50
270.0000
  0
INSERT
  8
1
  2
RECT
 10
6.6120
 20
13.5000
 30
0.0000
 41
3.0000
 42
0.9000
 43
1.0000
 50
0.0000
  0
POINT
  8
23
 10
9.5000
 20
17.0000
 30
0.0000
  0
POLYLINE
  8
41
 66
1
 10
0.0000
 20
0.0000
 30
0.0000
 40
0.2032
 41
0.2032
 70
0
  0
VERTEX
  8
41
 10
9.5000
 20
15.1458
 30
0.0000
 42
1.0000
  0
VERTEX
  8
41
 10
9.5000
 20
18.8542
 30
0.0000
  0
SEQEND
  8
0
  0
POLYLINE
  8
41
 66
1
 10
0.0000
 20
0.0000
 30
0.0000
 40
0.1016
 41
0.1016
 70
0
  0
VERTEX
  8
41
 10
9.5000
 20
15.1966
 30
0.0000
 42
1.0000
  0
VERTEX
  8
41
 10
9.5000
 20
15.0950
 30
0.0000
  0
SEQEND
  8
0
  0
POLYLINE
  8
41
 66
1
 10
0.0000
 20
0.0000
 30
0.0000
 40
0.1016
 41
0.1016
 70
0
  0
VERTEX
  8
41
 10
9.5000
 20
18.9050
 30
0.0000
 42
1.0000
  0
VERTEX
  8
41
 10
9.5000
 20
18.8034
 30
0.0000
  0
SEQEND
  8
0
  0
POLYLINE
  8
41
 66
1
 10
0.0000
 20
0.0000
 30
0.0000
 40
0.2032
 41
0.2032
 70
0
  0
VERTEX
  8
41
 10
9.5000
 20
18.8542
 30
0.0000
 42
1.0000
  0
VERTEX
  8
41
 10
9.5000
 20
15.1458
 30
0.0000
  0
SEQEND
  8
0
  0
POLYLINE
  8
41
 66
1
 10
0.0000
 20
0.0000
 30
0.0000
 40
0.1016
 41
0.1016
 70
0
  0
VERTEX
  8
41
 10
9.5000
 20
18.8034
 30
0.0000
 42
1.0000
  0
VERTEX
  8
41
 10
9.5000
 20
18.9050
 30
0.0000
  0
SEQEND
  8
0
  0
POLYLINE
  8
41
 66
1
 10
0.0000
 20
0.0000
 30
0.0000
 40
0.1016
 41
0.1016
 70
0
  0
VERTEX
  8
41
 10
9.5000
 20
15.0950
 30
0.0000
 42
1.0000
  0
VERTEX
  8
41
 10
9.5000
 20
15.1966
 30
0.0000
  0
SEQEND
  8
0
  0
POLYLINE
  8
42
 66
1
 10
0.0000
 20
0.0000
 30
0.0000
 40
0.2032
 41
0.2032
 70
0
  0
VERTEX
  8
42
 10
9.5000
 20
15.1458
 30
0.0000
 42
1.0000
  0
VERTEX
  8
42
 10
9.5000
 20
18.8542
 30
0.0000
  0
SEQEND
  8
0
  0
POLYLINE
  8
42
 66
1
 10
0.0000
 20
0.0000
 30
0.0000
 40
0.1016
 41
0.1016
 70
0
  0
VERTEX
  8
42
 10
9.5000
 20
15.1966
 30
0.0000
 42
1.0000
  0
VERTEX
  8
42
 10
9.5000
 20
15.0950
 30
0.0000
  0
SEQEND
  8
0
  0
POLYLINE
  8
42
 66
1
 10
0.0000
 20
0.0000
 30
0.0000
 40
0.1016
 41
0.1016
 70
0
  0
VERTEX
  8
42
 10
9.5000
 20
18.9050
 30
0.0000
 42
1.0000
  0
VERTEX
  8
42
 10
9.5000
 20
18.8034
 30
0.0000
  0
SEQEND
  8
0
  0
POLYLINE
  8
42
 66
1
 10
0.0000
 20
0.0000
 30
0.0000
 40
0.2032
 41
0.2032
 70
0
  0
VERTEX
  8
42
 10
9.5000
 20
18.8542
 30
0.0000
 42
1.0000
  0
VERTEX
  8
42
 10
9.5000
 20
15.1458
 30
0.0000
  0
SEQEND
  8
0
  0
POLYLINE
  8
42
 66
1
 10
0.0000
 20
0.0000
 30
0.0000
 40
0.1016
 41
0.1016
 70
0
  0
VERTEX
  8
42
 10
9.5000
 20
18.8034
 30
0.0000
 42
1.0000
  0
VERTEX
  8
42
 10
9.5000
 20
18.9050
 30
0.0000
  0
SEQEND
  8
0
  0
POLYLINE
  8
42
 66
1
 10
0.0000
 20
0.0000
 30
0.0000
 40
0.1016
 41
0.1016
 70
0
  0
VERTEX
  8
42
 10
9.5000
 20
15.0950
 30
0.0000
 42
1.0000
  0
VERTEX
  8
42
 10
9.5000
 20
15.1966
 30
0.0000
  0
SEQEND
  8
0
  0
POLYLINE
  8
39
 66
1
 10
0.0000
 20
0.0000
 30
0.0000
 40
0.1270
 41
0.1270
 70
0
  0
VERTEX
  8
39
 10
9.5000
 20
14.2060
 30
0.0000
 42
1.0000
  0
VERTEX
  8
39
 10
9.5000
 20
19.7940
 30
0.0000
 42
1.0000
  0
VERTEX
  8
39
 10
9.5000
 20
14.2060
 30
0.0000
  0
SEQEND
  8
0
  0
CIRCLE
  8
20
 10
9.5000
 20
17.0000
 30
0.0000
 40
1.6510
  0
POINT
  8
23
 10
9.5000
 20
3.0000
 30
0.0000
  0
POLYLINE
  8
41
 66
1
 10
0.0000
 20
0.0000
 30
0.0000
 40
0.2032
 41
0.2032
 70
0
  0
VERTEX
  8
41
 10
9.5000
 20
1.1458
 30
0.0000
 42
1.0000
  0
VERTEX
  8
41
 10
9.5000
 20
4.8542
 30
0.0000
  0
SEQEND
  8
0
  0
POLYLINE
  8
41
 66
1
 10
0.0000
 20
0.0000
 30
0.0000
 40
0.1016
 41
0.1016
 70
0
  0
VERTEX
  8
41
 10
9.5000
 20
1.1966
 30
0.0000
 42
1.0000
  0
VERTEX
  8
41
 10
9.5000
 20
1.0950
 30
0.0000
  0
SEQEND
  8
0
  0
POLYLINE
  8
41
 66
1
 10
0.0000
 20
0.0000
 30
0.0000
 40
0.1016
 41
0.1016
 70
0
  0
VERTEX
  8
41
 10
9.5000
 20
4.9050
 30
0.0000
 42
1.0000
  0
VERTEX
  8
41
 10
9.5000
 20
4.8034
 30
0.0000
  0
SEQEND
  8
0
  0
POLYLINE
  8
41
 66
1
 10
0.0000
 20
0.0000
 30
0.0000
 40
0.2032
 41
0.2032
 70
0
  0
VERTEX
  8
41
 10
9.5000
 20
4.8542
 30
0.0000
 42
1.0000
  0
VERTEX
  8
41
 10
9.5000
 20
1.1458
 30
0.0000
  0
SEQEND
  8
0
  0
POLYLINE
  8
41
 66
1
 10
0.0000
 20
0.0000
 30
0.0000
 40
0.1016
 41
0.1016
 70
0
  0
VERTEX
  8
41
 10
9.5000
 20
4.8034
 30
0.0000
 42
1.0000
  0
VERTEX
  8
41
 10
9.5000
 20
4.9050
 30
0.0000
  0
SEQEND
  8
0
  0
POLYLINE
  8
41
 66
1
 10
0.0000
 20
0.0000
 30
0.0000
 40
0.1016
 41
0.1016
 70
0
  0
VERTEX
  8
41
 10
9.5000
 20
1.0950
 30
0.0000
 42
1.0000
  0
VERTEX
  8
41
 10
9.5000
 20
1.1966
 30
0.0000
  0
SEQEND
  8
0
  0
POLYLINE
  8
42
 66
1
 10
0.0000
 20
0.0000
 30
0.0000
 40
0.2032
 41
0.2032
 70
0
  0
VERTEX
  8
42
 10
9.5000
 20
1.1458
 30
0.0000
 42
1.0000
  0
VERTEX
  8
42
 10
9.5000
 20
4.8542
 30
0.0000
  0
SEQEND
  8
0
  0
POLYLINE
  8
42
 66
1
 10
0.0000
 20
0.0000
 30
0.0000
 40
0.1016
 41
0.1016
 70
0
  0
VERTEX
  8
42
 10
9.5000
 20
1.1966
 30
0.0000
 42
1.0000
  0
VERTEX
  8
42
 10
9.5000
 20
1.0950
 30
0.0000
  0
SEQEND
  8
0
  0
POLYLINE
  8
42
 66
1
 10
0.0000
 20
0.0000
 30
0.0000
 40
0.1016
 41
0.1016
 70
0
  0
VERTEX
  8
42
 10
9.5000
 20
4.9050
 30
0.0000
 42
1.0000
  0
VERTEX
  8
42
 10
9.5000
 20
4.8034
 30
0.0000
  0
SEQEND
  8
0
  0
POLYLINE
  8
42
 66
1
 10
0.0000
 20
0.0000
 30
0.0000
 40
0.2032
 41
0.2032
 70
0
  0
VERTEX
  8
42
 10
9.5000
 20
4.8542
 30
0.0000
 42
1.0000
  0
VERTEX
  8
42
 10
9.5000
 20
1.1458
 30
0.0000
  0
SEQEND
  8
0
  0
POLYLINE
  8
42
 66
1
 10
0.0000
 20
0.0000
 30
0.0000
 40
0.1016
 41
0.1016
 70
0
  0
VERTEX
  8
42
 10
9.5000
 20
4.8034
 30
0.0000
 42
1.0000
  0
VERTEX
  8
42
 10
9.5000
 20
4.9050
 30
0.0000
  0
SEQEND
  8
0
  0
POLYLINE
  8
42
 66
1
 10
0.0000
 20
0.0000
 30
0.0000
 40
0.1016
 41
0.1016
 70
0
  0
VERTEX
  8
42
 10
9.5000
 20
1.0950
 30
0.0000
 42
1.0000
  0
VERTEX
  8
42
 10
9.5000
 20
1.1966
 30
0.0000
  0
SEQEND
  8
0
  0
POLYLINE
  8
39
 66
1
 10
0.0000
 20
0.0000
 30
0.0000
 40
0.1270
 41
0.1270
 70
0
  0
VERTEX
  8
39
 10
9.5000
 20
0.2060
 30
0.0000
 42
1.0000
  0
VERTEX
  8
39
 10
9.5000
 20
5.7940
 30
0.0000
 42
1.0000
  0
VERTEX
  8
39
 10
9.5000
 20
0.2060
 30
0.0000
  0
SEQEND
  8
0
  0
CIRCLE
  8
20
 10
9.5000
 20
3.0000
 30
0.0000
 40
1.6510
  0
POLYLINE
  8
1
 66
1
 10
0.0000
 20
0.0000
 30
0.0000
 40
0.4064
 41
0.4064
 70
0
  0
VERTEX
  8
1
 10
6.6120
 20
13.5000
 30
0.0000
  0
VERTEX
  8
1
 10
8.6000
 20
13.5000
 30
0.0000
  0
SEQEND
  8
0
  0
POLYLINE
  8
1
 66
1
 10
0.0000
 20
0.0000
 30
0.0000
 40
0.2032
 41
0.2032
 70
0
  0
VERTEX
  8
1
 10
8.6000
 20
13.3984
 30
0.0000
 42
1.0000
  0
VERTEX
  8
1
 10
8.6000
 20
13.6016
 30
0.0000
  0
SEQEND
  8
0
  0
POLYLINE
  8
1
 66
1
 10
0.0000
 20
0.0000
 30
0.0000
 40
0.2032
 41
0.2032
 70
0
  0
VERTEX
  8
1
 10
6.6120
 20
13.6016
 30
0.0000
 42
1.0000
  0
VERTEX
  8
1
 10
6.6120
 20
13.3984
 30
0.0000
  0
SEQEND
  8
0
  0
POLYLINE
  8
1
 66
1
 10
0.0000
 20
0.0000
 30
0.0000
 40
0.4064
 41
0.4064
 70
0
  0
VERTEX
  8
1
 10
8.6000
 20
13.5000
 30
0.0000
  0
VERTEX
  8
1
 10
10.9000
 20
11.2000
 30
0.0000
  0
SEQEND
  8
0
  0
POLYLINE
  8
1
 66
1
 10
0.0000
 20
0.0000
 30
0.0000
 40
0.2032
 41
0.2032
 70
0
  0
VERTEX
  8
1
 10
10.8282
 20
11.1282
 30
0.0000
 42
1.0000
  0
VERTEX
  8
1
 10
10.9718
 20
11.2718
 30
0.0000
  0
SEQEND
  8
0
  0
POLYLINE
  8
1
 66
1
 10
0.0000
 20
0.0000
 30
0.0000
 40
0.2032
 41
0.2032
 70
0
  0
VERTEX
  8
1
 10
8.6718
 20
13.5718
 30
0.0000
 42
1.0000
  0
VERTEX
  8
1
 10
8.5282
 20
13.4282
 30
0.0000
  0
SEQEND
  8
0
  0
POLYLINE
  8
1
 66
1
 10
0.0000
 20
0.0000
 30
0.0000
 40
0.4064
 41
0.4064
 70
0
  0
VERTEX
  8
1
 10
10.9000
 20
11.2000
 30
0.0000
  0
VERTEX
  8
1
 10
13.1400
 20
11.2000
 30
0.0000
  0
SEQEND
  8
0
  0
POLYLINE
  8
1
 66
1
 10
0.0000
 20
0.0000
 30
0.0000
 40
0.2032
 41
0.2032
 70
0
  0
VERTEX
  8
1
 10
13.1400
 20
11.0984
 30
0.0000
 42
1.0000
  0
VERTEX
  8
1
 10
13.1400
 20
11.3016
 30
0.0000
  0
SEQEND
  8
0
  0
POLYLINE
  8
1
 66
1
 10
0.0000
 20
0.0000
 30
0.0000
 40
0.2032
 41
0.2032
 70
0
  0
VERTEX
  8
1
 10
10.9000
 20
11.3016
 30
0.0000
 42
1.0000
  0
VERTEX
  8
1
 10
10.9000
 20
11.0984
 30
0.0000
  0
SEQEND
  8
0
  0
POLYLINE
  8
1
 66
1
 10
0.0000
 20
0.0000
 30
0.0000
 40
0.4064
 41
0.4064
 70
0
  0
VERTEX
  8
1
 10
13.1400
 20
11.2000
 30
0.0000
  0
VERTEX
  8
1
 10
13.2000
 20
11.2600
 30
0.0000
  0
SEQEND
  8
0
  0
POLYLINE
  8
1
 66
1
 10
0.0000
 20
0.0000
 30
0.0000
 40
0.2032
 41
0.2032
 70
0
  0
VERTEX
  8
1
 10
13.2718
 20
11.1882
 30
0.0000
 42
1.0000
  0
VERTEX
  8
1
 10
13.1282
 20
11.3318
 30
0.0000
  0
SEQEND
  8
0
  0
POLYLINE
  8
1
 66
1
 10
0.0000
 20
0.0000
 30
0.0000
 40
0.2032
 41
0.2032
 70
0
  0
VERTEX
  8
1
 10
13.0682
 20
11.2718
 30
0.0000
 42
1.0000
  0
VERTEX
  8
1
 10
13.2118
 20
11.1282
 30
0.0000
  0
SEQEND
  8
0
  0
POLYLINE
  8
1
 66
1
 10
0.0000
 20
0.0000
 30
0.0000
 40
0.4064
 41
0.4064
 70
0
  0
VERTEX
  8
1
 10
6.6120
 20
6.5000
 30
0.0000
  0
VERTEX
  8
1
 10
4.5000
 20
6.5000
 30
0.0000
  0
SEQEND
  8
0
  0
POLYLINE
  8
1
 66
1
 10
0.0000
 20
0.0000
 30
0.0000
 40
0.2032
 41
0.2032
 70
0
  0
VERTEX
  8
1
 10
4.5000
 20
6.6016
 30
0.0000
 42
1.0000
  0
VERTEX
  8
1
 10
4.5000
 20
6.3984
 30
0.0000
  0
SEQEND
  8
0
  0
POLYLINE
  8
1
 66
1
 10
0.0000
 20
0.0000
 30
0.0000
 40
0.2032
 41
0.2032
 70
0
  0
VERTEX
  8
1
 10
6.6120
 20
6.3984
 30
0.0000
 42
1.0000
  0
VERTEX
  8
1
 10
6.6120
 20
6.6016
 30
0.0000
  0
SEQEND
  8
0
  0
POLYLINE
  8
1
 66
1
 10
0.0000
 20
0.0000
 30
0.0000
 40
0.4064
 41
0.4064
 70
0
  0
VERTEX
  8
1
 10
4.5000
 20
6.5000
 30
0.0000
  0
VERTEX
  8
1
 10
4.0000
 20
7.0000
 30
0.0000
  0
SEQEND
  8
0
  0
POLYLINE
  8
1
 66
1
 10
0.0000
 20
0.0000
 30
0.0000
 40
0.2032
 41
0.2032
 70
0
  0
VERTEX
  8
1
 10
4.0718
 20
7.0718
 30
0.0000
 42
1.0000
  0
VERTEX
  8
1
 10
3.9282
 20
6.9282
 30
0.0000
  0
SEQEND
  8
0
  0
POLYLINE
  8
1
 66
1
 10
0.0000
 20
0.0000
 30
0.0000
 40
0.2032
 41
0.2032
 70
0
  0
VERTEX
  8
1
 10
4.4282
 20
6.4282
 30
0.0000
 42
1.0000
  0
VERTEX
  8
1
 10
4.5718
 20
6.5718
 30
0.0000
  0
SEQEND
  8
0
  0
POLYLINE
  8
16
 66
1
 10
0.0000
 20
0.0000
 30
0.0000
 40
0.4064
 41
0.4064
 70
0
  0
VERTEX
  8
16
 10
4.0000
 20
7.0000
 30
0.0000
  0
VERTEX
  8
16
 10
6.4000
 20
7.0000
 30
0.0000
  0
SEQEND
  8
0
  0
POLYLINE
  8
16
 66
1
 10
0.0000
 20
0.0000
 30
0.0000
 40
0.2032
 41
0.2032
 70
0
  0
VERTEX
  8
16
 10
6.4000
 20
6.8984
 30
0.0000
 42
1.0000
  0
VERTEX
  8
16
 10
6.4000
 20
7.1016
 30
0.0000
  0
SEQEND
  8
0
  0
POLYLINE
  8
16
 66
1
 10
0.0000
 20
0.0000
 30
0.0000
 40
0.2032
 41
0.2032
 70
0
  0
VERTEX
  8
16
 10
4.0000
 20
7.1016
 30
0.0000
 42
1.0000
  0
VERTEX
  8
16
 10
4.0000
 20
6.8984
 30
0.0000
  0
SEQEND
  8
0
  0
POLYLINE
  8
16
 66
1
 10
0.0000
 20
0.0000
 30
0.0000
 40
0.4064
 41
0.4064
 70
0
  0
VERTEX
  8
16
 10
6.4000
 20
7.0000
 30
0.0000
  0
VERTEX
  8
16
 10
13.2000
 20
13.8000
 30
0.0000
  0
SEQEND
  8
0
  0
POLYLINE
  8
16
 66
1
 10
0.0000
 20
0.0000
 30
0.0000
 40
0.2032
 41
0.2032
 70
0
  0
VERTEX
  8
16
 10
13.2718
 20
13.7282
 30
0.0000
 42
1.0000
  0
VERTEX
  8
16
 10
13.1282
 20
13.8718
 30
0.0000
  0
SEQEND
  8
0
  0
POLYLINE
  8
16
 66
1
 10
0.0000
 20
0.0000
 30
0.0000
 40
0.2032
 41
0.2032
 70
0
  0
VERTEX
  8
16
 10
6.3282
 20
7.0718
 30
0.0000
 42
1.0000
  0
VERTEX
  8
16
 10
6.4718
 20
6.9282
 30
0.0000
  0
SEQEND
  8
0
  0
INSERT
  8
18
  2
ROUNDV
 10
4.0000
 20
7.0000
 30
0.0000
 41
1.1080
 42
1.1080
 43
1.0000
 50
0.0000
  0
INSERT
  8
18
  2
ROUNDV
 10
4.0000
 20
7.0000
 30
0.0000
 41
1.1080
 42
1.1080
 43
1.0000
 50
0.0000
  0
POLYLINE
  8
1
 66
1
 10
0.0000
 20
0.0000
 30
0.0000
 40
0.4064
 41
0.4064
 70
0
  0
VERTEX
  8
1
 10
6.6120
 20
9.0000
 30
0.0000
  0
VERTEX
  8
1
 10
8.7000
 20
9.0000
 30
0.0000
  0
SEQEND
  8
0
  0
POLYLINE
  8
1
 66
1
 10
0.0000
 20
0.0000
 30
0.0000
 40
0.2032
 41
0.2032
 70
0
  0
VERTEX
  8
1
 10
8.7000
 20
8.8984
 30
0.0000
 42
1.0000
  0
VERTEX
  8
1
 10
8.7000
 20
9.1016
 30
0.0000
  0
SEQEND
  8
0
  0
POLYLINE
  8
1
 66
1
 10
0.0000
 20
0.0000
 30
0.0000
 40
0.2032
 41
0.2032
 70
0
  0
VERTEX
  8
1
 10
6.6120
 20
9.1016
 30
0.0000
 42
1.0000
  0
VERTEX
  8
1
 10
6.6120
 20
8.8984
 30
0.0000
  0
SEQEND
  8
0
  0
POLYLINE
  8
1
 66
1
 10
0.0000
 20
0.0000
 30
0.0000
 40
0.4064
 41
0.4064
 70
0
  0
VERTEX
  8
1
 10
8.7000
 20
9.0000
 30
0.0000
  0
VERTEX
  8
1
 10
11.5000
 20
6.2000
 30
0.0000
  0
SEQEND
  8
0
  0
POLYLINE
  8
1
 66
1
 10
0.0000
 20
0.0000
 30
0.0000
 40
0.2032
 41
0.2032
 70
0
  0
VERTEX
  8
1
 10
11.4282
 20
6.1282
 30
0.0000
 42
1.0000
  0
VERTEX
  8
1
 10
11.5718
 20
6.2718
 30
0.0000
  0
SEQEND
  8
0
  0
POLYLINE
  8
1
 66
1
 10
0.0000
 20
0.0000
 30
0.0000
 40
0.2032
 41
0.2032
 70
0
  0
VERTEX
  8
1
 10
8.7718
 20
9.0718
 30
0.0000
 42
1.0000
  0
VERTEX
  8
1
 10
8.6282
 20
8.9282
 30
0.0000
  0
SEQEND
  8
0
  0
POLYLINE
  8
1
 66
1
 10
0.0000
 20
0.0000
 30
0.0000
 40
0.4064
 41
0.4064
 70
0
  0
VERTEX
  8
1
 10
11.5000
 20
6.2000
 30
0.0000
  0
VERTEX
  8
1
 10
13.1800
 20
6.2000
 30
0.0000
  0
SEQEND
  8
0
  0
POLYLINE
  8
1
 66
1
 10
0.0000
 20
0.0000
 30
0.0000
 40
0.2032
 41
0.2032
 70
0
  0
VERTEX
  8
1
 10
13.1800
 20
6.0984
 30
0.0000
 42
1.0000
  0
VERTEX
  8
1
 10
13.1800
 20
6.3016
 30
0.0000
  0
SEQEND
  8
0
  0
POLYLINE
  8
1
 66
1
 10
0.0000
 20
0.0000
 30
0.0000
 40
0.2032
 41
0.2032
 70
0
  0
VERTEX
  8
1
 10
11.5000
 20
6.3016
 30
0.0000
 42
1.0000
  0
VERTEX
  8
1
 10
11.5000
 20
6.0984
 30
0.0000
  0
SEQEND
  8
0
  0
POLYLINE
  8
1
 66
1
 10
0.0000
 20
0.0000
 30
0.0000
 40
0.4064
 41
0.4064
 70
0
  0
VERTEX
  8
1
 10
13.1800
 20
6.2000
 30
0.0000
  0
VERTEX
  8
1
 10
13.2000
 20
6.1800
 30
0.0000
  0
SEQEND
  8
0
  0
POLYLINE
  8
1
 66
1
 10
0.0000
 20
0.0000
 30
0.0000
 40
0.2032
 41
0.2032
 70
0
  0
VERTEX
  8
1
 10
13.1282
 20
6.1082
 30
0.0000
 42
1.0000
  0
VERTEX
  8
1
 10
13.2718
 20
6.2518
 30
0.0000
  0
SEQEND
  8
0
  0
POLYLINE
  8
1
 66
1
 10
0.0000
 20
0.0000
 30
0.0000
 40
0.2032
 41
0.2032
 70
0
  0
VERTEX
  8
1
 10
13.2518
 20
6.2718
 30
0.0000
 42
1.0000
  0
VERTEX
  8
1
 10
13.1082
 20
6.1282
 30
0.0000
  0
SEQEND
  8
0
  0
POLYLINE
  8
1
 66
1
 10
0.0000
 20
0.0000
 30
0.0000
 40
0.4064
 41
0.4064
 70
0
  0
VERTEX
  8
1
 10
6.6120
 20
11.0000
 30
0.0000
  0
VERTEX
  8
1
 10
8.9000
 20
11.0000
 30
0.0000
  0
SEQEND
  8
0
  0
POLYLINE
  8
1
 66
1
 10
0.0000
 20
0.0000
 30
0.0000
 40
0.2032
 41
0.2032
 70
0
  0
VERTEX
  8
1
 10
8.9000
 20
10.8984
 30
0.0000
 42
1.0000
  0
VERTEX
  8
1
 10
8.9000
 20
11.1016
 30
0.0000
  0
SEQEND
  8
0
  0
POLYLINE
  8
1
 66
1
 10
0.0000
 20
0.0000
 30
0.0000
 40
0.2032
 41
0.2032
 70
0
  0
VERTEX
  8
1
 10
6.6120
 20
11.1016
 30
0.0000
 42
1.0000
  0
VERTEX
  8
1
 10
6.6120
 20
10.8984
 30
0.0000
  0
SEQEND
  8
0
  0
POLYLINE
  8
1
 66
1
 10
0.0000
 20
0.0000
 30
0.0000
 40
0.4064
 41
0.4064
 70
0
  0
VERTEX
  8
1
 10
8.9000
 20
11.0000
 30
0.0000
  0
VERTEX
  8
1
 10
11.1000
 20
8.8000
 30
0.0000
  0
SEQEND
  8
0
  0
POLYLINE
  8
1
 66
1
 10
0.0000
 20
0.0000
 30
0.0000
 40
0.2032
 41
0.2032
 70
0
  0
VERTEX
  8
1
 10
11.0282
 20
8.7282
 30
0.0000
 42
1.0000
  0
VERTEX
  8
1
 10
11.1718
 20
8.8718
 30
0.0000
  0
SEQEND
  8
0
  0
POLYLINE
  8
1
 66
1
 10
0.0000
 20
0.0000
 30
0.0000
 40
0.2032
 41
0.2032
 70
0
  0
VERTEX
  8
1
 10
8.9718
 20
11.0718
 30
0.0000
 42
1.0000
  0
VERTEX
  8
1
 10
8.8282
 20
10.9282
 30
0.0000
  0
SEQEND
  8
0
  0
POLYLINE
  8
1
 66
1
 10
0.0000
 20
0.0000
 30
0.0000
 40
0.4064
 41
0.4064
 70
0
  0
VERTEX
  8
1
 10
11.1000
 20
8.8000
 30
0.0000
  0
VERTEX
  8
1
 10
13.1200
 20
8.8000
 30
0.0000
  0
SEQEND
  8
0
  0
POLYLINE
  8
1
 66
1
 10
0.0000
 20
0.0000
 30
0.0000
 40
0.2032
 41
0.2032
 70
0
  0
VERTEX
  8
1
 10
13.1200
 20
8.6984
 30
0.0000
 42
1.0000
  0
VERTEX
  8
1
 10
13.1200
 20
8.9016
 30
0.0000
  0
SEQEND
  8
0
  0
POLYLINE
  8
1
 66
1
 10
0.0000
 20
0.0000
 30
0.0000
 40
0.2032
 41
0.2032
 70
0
  0
VERTEX
  8
1
 10
11.1000
 20
8.9016
 30
0.0000
 42
1.0000
  0
VERTEX
  8
1
 10
11.1000
 20
8.6984
 30
0.0000
  0
SEQEND
  8
0
  0
POLYLINE
  8
1
 66
1
 10
0.0000
 20
0.0000
 30
0.0000
 40
0.4064
 41
0.4064
 70
0
  0
VERTEX
  8
1
 10
13.1200
 20
8.8000
 30
0.0000
  0
VERTEX
  8
1
 10
13.2000
 20
8.7200
 30
0.0000
  0
SEQEND
  8
0
  0
POLYLINE
  8
1
 66
1
 10
0.0000
 20
0.0000
 30
0.0000
 40
0.2032
 41
0.2032
 70
0
  0
VERTEX
  8
1
 10
13.1282
 20
8.6482
 30
0.0000
 42
1.0000
  0
VERTEX
  8
1
 10
13.2718
 20
8.7918
 30
0.0000
  0
SEQEND
  8
0
  0
POLYLINE
  8
1
 66
1
 10
0.0000
 20
0.0000
 30
0.0000
 40
0.2032
 41
0.2032
 70
0
  0
VERTEX
  8
1
 10
13.1918
 20
8.8718
 30
0.0000
 42
1.0000
  0
VERTEX
  8
1
 10
13.0482
 20
8.7282
 30
0.0000
  0
SEQEND
  8
0
  0
ENDSEC
  0
EOF
