G75*
%MOIN*%
%OFA0B0*%
%FSLAX24Y24*%
%IPPOS*%
%LPD*%
%AMOC8*
5,1,8,0,0,1.08239X$1,22.5*
%
%ADD10C,0.0000*%
%ADD11C,0.0030*%
%ADD12C,0.0080*%
%ADD13C,0.0010*%
D10*
X001230Y000100D02*
X001230Y010100D01*
X004730Y010100D01*
X004730Y000100D01*
X001230Y000100D01*
X002330Y009000D02*
X002332Y009050D01*
X002338Y009100D01*
X002348Y009150D01*
X002361Y009198D01*
X002378Y009246D01*
X002399Y009292D01*
X002423Y009336D01*
X002451Y009378D01*
X002482Y009418D01*
X002516Y009455D01*
X002553Y009490D01*
X002592Y009521D01*
X002633Y009550D01*
X002677Y009575D01*
X002723Y009597D01*
X002770Y009615D01*
X002818Y009629D01*
X002867Y009640D01*
X002917Y009647D01*
X002967Y009650D01*
X003018Y009649D01*
X003068Y009644D01*
X003118Y009635D01*
X003166Y009623D01*
X003214Y009606D01*
X003260Y009586D01*
X003305Y009563D01*
X003348Y009536D01*
X003388Y009506D01*
X003426Y009473D01*
X003461Y009437D01*
X003494Y009398D01*
X003523Y009357D01*
X003549Y009314D01*
X003572Y009269D01*
X003591Y009222D01*
X003606Y009174D01*
X003618Y009125D01*
X003626Y009075D01*
X003630Y009025D01*
X003630Y008975D01*
X003626Y008925D01*
X003618Y008875D01*
X003606Y008826D01*
X003591Y008778D01*
X003572Y008731D01*
X003549Y008686D01*
X003523Y008643D01*
X003494Y008602D01*
X003461Y008563D01*
X003426Y008527D01*
X003388Y008494D01*
X003348Y008464D01*
X003305Y008437D01*
X003260Y008414D01*
X003214Y008394D01*
X003166Y008377D01*
X003118Y008365D01*
X003068Y008356D01*
X003018Y008351D01*
X002967Y008350D01*
X002917Y008353D01*
X002867Y008360D01*
X002818Y008371D01*
X002770Y008385D01*
X002723Y008403D01*
X002677Y008425D01*
X002633Y008450D01*
X002592Y008479D01*
X002553Y008510D01*
X002516Y008545D01*
X002482Y008582D01*
X002451Y008622D01*
X002423Y008664D01*
X002399Y008708D01*
X002378Y008754D01*
X002361Y008802D01*
X002348Y008850D01*
X002338Y008900D01*
X002332Y008950D01*
X002330Y009000D01*
D11*
X002333Y004655D02*
X002333Y004365D01*
X002237Y004462D01*
X002140Y004365D01*
X002140Y004655D01*
X002039Y004607D02*
X001990Y004655D01*
X001893Y004655D01*
X001845Y004607D01*
X001845Y004558D01*
X001893Y004510D01*
X001990Y004510D01*
X002039Y004462D01*
X002039Y004413D01*
X001990Y004365D01*
X001893Y004365D01*
X001845Y004413D01*
X001843Y003905D02*
X001795Y003857D01*
X001795Y003663D01*
X001843Y003615D01*
X001940Y003615D01*
X001989Y003663D01*
X001989Y003760D01*
X001892Y003760D01*
X001989Y003857D02*
X001940Y003905D01*
X001843Y003905D01*
X002090Y003905D02*
X002090Y003615D01*
X002283Y003615D02*
X002090Y003905D01*
X002283Y003905D02*
X002283Y003615D01*
X002384Y003615D02*
X002530Y003615D01*
X002578Y003663D01*
X002578Y003857D01*
X002530Y003905D01*
X002384Y003905D01*
X002384Y003615D01*
X002434Y004365D02*
X002628Y004558D01*
X002628Y004607D01*
X002580Y004655D01*
X002483Y004655D01*
X002434Y004607D01*
X002434Y004365D02*
X002628Y004365D01*
X003195Y003905D02*
X003195Y003615D01*
X003195Y003712D02*
X003340Y003712D01*
X003389Y003760D01*
X003389Y003857D01*
X003340Y003905D01*
X003195Y003905D01*
X003292Y003712D02*
X003389Y003615D01*
X003490Y003663D02*
X003538Y003615D01*
X003635Y003615D01*
X003683Y003663D01*
X003683Y003712D01*
X003635Y003760D01*
X003538Y003760D01*
X003490Y003808D01*
X003490Y003857D01*
X003538Y003905D01*
X003635Y003905D01*
X003683Y003857D01*
X003784Y003905D02*
X003978Y003905D01*
X003881Y003905D02*
X003881Y003615D01*
X003834Y004365D02*
X004028Y004365D01*
X003931Y004365D02*
X003931Y004655D01*
X003834Y004558D01*
X003733Y004655D02*
X003733Y004365D01*
X003637Y004462D01*
X003540Y004365D01*
X003540Y004655D01*
X003439Y004607D02*
X003390Y004655D01*
X003293Y004655D01*
X003245Y004607D01*
X003245Y004558D01*
X003293Y004510D01*
X003390Y004510D01*
X003439Y004462D01*
X003439Y004413D01*
X003390Y004365D01*
X003293Y004365D01*
X003245Y004413D01*
D12*
X003230Y004800D02*
X002980Y005050D01*
X002730Y004800D01*
X002230Y004800D01*
X001980Y005050D01*
X001980Y005550D01*
X002230Y005800D01*
X002730Y005800D01*
X002980Y005550D01*
X003230Y005800D01*
X003730Y005800D01*
X003980Y005550D01*
X003980Y005050D01*
X003730Y004800D01*
X003230Y004800D01*
X003586Y005900D02*
X002374Y005900D01*
X001980Y006412D02*
X001980Y007388D01*
X002374Y007900D02*
X003586Y007900D01*
X003980Y007388D02*
X003980Y006400D01*
X002480Y006900D02*
X002482Y006944D01*
X002488Y006988D01*
X002498Y007031D01*
X002511Y007073D01*
X002528Y007114D01*
X002549Y007153D01*
X002573Y007190D01*
X002600Y007225D01*
X002630Y007257D01*
X002663Y007287D01*
X002699Y007313D01*
X002736Y007337D01*
X002776Y007356D01*
X002817Y007373D01*
X002860Y007385D01*
X002903Y007394D01*
X002947Y007399D01*
X002991Y007400D01*
X003035Y007397D01*
X003079Y007390D01*
X003122Y007379D01*
X003164Y007365D01*
X003204Y007347D01*
X003243Y007325D01*
X003279Y007301D01*
X003313Y007273D01*
X003345Y007242D01*
X003374Y007208D01*
X003400Y007172D01*
X003422Y007134D01*
X003441Y007094D01*
X003456Y007052D01*
X003468Y007010D01*
X003476Y006966D01*
X003480Y006922D01*
X003480Y006878D01*
X003476Y006834D01*
X003468Y006790D01*
X003456Y006748D01*
X003441Y006706D01*
X003422Y006666D01*
X003400Y006628D01*
X003374Y006592D01*
X003345Y006558D01*
X003313Y006527D01*
X003279Y006499D01*
X003243Y006475D01*
X003204Y006453D01*
X003164Y006435D01*
X003122Y006421D01*
X003079Y006410D01*
X003035Y006403D01*
X002991Y006400D01*
X002947Y006401D01*
X002903Y006406D01*
X002860Y006415D01*
X002817Y006427D01*
X002776Y006444D01*
X002736Y006463D01*
X002699Y006487D01*
X002663Y006513D01*
X002630Y006543D01*
X002600Y006575D01*
X002573Y006610D01*
X002549Y006647D01*
X002528Y006686D01*
X002511Y006727D01*
X002498Y006769D01*
X002488Y006812D01*
X002482Y006856D01*
X002480Y006900D01*
X002230Y003500D02*
X001980Y003250D01*
X001980Y002750D01*
X002230Y002500D01*
X002730Y002500D01*
X002980Y002750D01*
X003230Y002500D01*
X003730Y002500D01*
X003980Y002750D01*
X003980Y003250D01*
X003730Y003500D01*
X003230Y003500D01*
X002980Y003250D01*
X002730Y003500D01*
X002230Y003500D01*
X002374Y002388D02*
X003586Y002388D01*
X003980Y001876D02*
X003980Y000900D01*
X003586Y000388D02*
X002374Y000388D01*
X001980Y000900D02*
X001980Y001888D01*
X002480Y001388D02*
X002482Y001432D01*
X002488Y001476D01*
X002498Y001519D01*
X002511Y001561D01*
X002528Y001602D01*
X002549Y001641D01*
X002573Y001678D01*
X002600Y001713D01*
X002630Y001745D01*
X002663Y001775D01*
X002699Y001801D01*
X002736Y001825D01*
X002776Y001844D01*
X002817Y001861D01*
X002860Y001873D01*
X002903Y001882D01*
X002947Y001887D01*
X002991Y001888D01*
X003035Y001885D01*
X003079Y001878D01*
X003122Y001867D01*
X003164Y001853D01*
X003204Y001835D01*
X003243Y001813D01*
X003279Y001789D01*
X003313Y001761D01*
X003345Y001730D01*
X003374Y001696D01*
X003400Y001660D01*
X003422Y001622D01*
X003441Y001582D01*
X003456Y001540D01*
X003468Y001498D01*
X003476Y001454D01*
X003480Y001410D01*
X003480Y001366D01*
X003476Y001322D01*
X003468Y001278D01*
X003456Y001236D01*
X003441Y001194D01*
X003422Y001154D01*
X003400Y001116D01*
X003374Y001080D01*
X003345Y001046D01*
X003313Y001015D01*
X003279Y000987D01*
X003243Y000963D01*
X003204Y000941D01*
X003164Y000923D01*
X003122Y000909D01*
X003079Y000898D01*
X003035Y000891D01*
X002991Y000888D01*
X002947Y000889D01*
X002903Y000894D01*
X002860Y000903D01*
X002817Y000915D01*
X002776Y000932D01*
X002736Y000951D01*
X002699Y000975D01*
X002663Y001001D01*
X002630Y001031D01*
X002600Y001063D01*
X002573Y001098D01*
X002549Y001135D01*
X002528Y001174D01*
X002511Y001215D01*
X002498Y001257D01*
X002488Y001300D01*
X002482Y001344D01*
X002480Y001388D01*
D13*
X002660Y002093D02*
X002635Y002118D01*
X002660Y002093D02*
X002710Y002093D01*
X002735Y002118D01*
X002735Y002143D01*
X002710Y002168D01*
X002660Y002168D01*
X002635Y002193D01*
X002635Y002218D01*
X002660Y002243D01*
X002710Y002243D01*
X002735Y002218D01*
X002782Y002218D02*
X002807Y002243D01*
X002857Y002243D01*
X002883Y002218D01*
X002883Y002193D01*
X002782Y002093D01*
X002883Y002093D01*
X003065Y006045D02*
X003040Y006070D01*
X003065Y006045D02*
X003116Y006045D01*
X003141Y006070D01*
X003141Y006095D01*
X003116Y006120D01*
X003065Y006120D01*
X003040Y006145D01*
X003040Y006170D01*
X003065Y006195D01*
X003116Y006195D01*
X003141Y006170D01*
X003188Y006145D02*
X003238Y006195D01*
X003238Y006045D01*
X003188Y006045D02*
X003288Y006045D01*
M02*
