G75*
%MOIN*%
%OFA0B0*%
%FSLAX24Y24*%
%IPPOS*%
%LPD*%
%AMOC8*
5,1,8,0,0,1.08239X$1,22.5*
%
%ADD10C,0.0000*%
D10*
X001230Y000100D02*
X001230Y010100D01*
X004730Y010100D01*
X004730Y000100D01*
X001230Y000100D01*
X002330Y009000D02*
X002332Y009050D01*
X002338Y009100D01*
X002348Y009150D01*
X002361Y009198D01*
X002378Y009246D01*
X002399Y009292D01*
X002423Y009336D01*
X002451Y009378D01*
X002482Y009418D01*
X002516Y009455D01*
X002553Y009490D01*
X002592Y009521D01*
X002633Y009550D01*
X002677Y009575D01*
X002723Y009597D01*
X002770Y009615D01*
X002818Y009629D01*
X002867Y009640D01*
X002917Y009647D01*
X002967Y009650D01*
X003018Y009649D01*
X003068Y009644D01*
X003118Y009635D01*
X003166Y009623D01*
X003214Y009606D01*
X003260Y009586D01*
X003305Y009563D01*
X003348Y009536D01*
X003388Y009506D01*
X003426Y009473D01*
X003461Y009437D01*
X003494Y009398D01*
X003523Y009357D01*
X003549Y009314D01*
X003572Y009269D01*
X003591Y009222D01*
X003606Y009174D01*
X003618Y009125D01*
X003626Y009075D01*
X003630Y009025D01*
X003630Y008975D01*
X003626Y008925D01*
X003618Y008875D01*
X003606Y008826D01*
X003591Y008778D01*
X003572Y008731D01*
X003549Y008686D01*
X003523Y008643D01*
X003494Y008602D01*
X003461Y008563D01*
X003426Y008527D01*
X003388Y008494D01*
X003348Y008464D01*
X003305Y008437D01*
X003260Y008414D01*
X003214Y008394D01*
X003166Y008377D01*
X003118Y008365D01*
X003068Y008356D01*
X003018Y008351D01*
X002967Y008350D01*
X002917Y008353D01*
X002867Y008360D01*
X002818Y008371D01*
X002770Y008385D01*
X002723Y008403D01*
X002677Y008425D01*
X002633Y008450D01*
X002592Y008479D01*
X002553Y008510D01*
X002516Y008545D01*
X002482Y008582D01*
X002451Y008622D01*
X002423Y008664D01*
X002399Y008708D01*
X002378Y008754D01*
X002361Y008802D01*
X002348Y008850D01*
X002338Y008900D01*
X002332Y008950D01*
X002330Y009000D01*
M02*
