G75*
%MOIN*%
%OFA0B0*%
%FSLAX24Y24*%
%IPPOS*%
%LPD*%
%AMOC8*
5,1,8,0,0,1.08239X$1,22.5*
%
%ADD10C,0.0000*%
%ADD11C,0.0030*%
%ADD12C,0.0010*%
%ADD13C,0.0120*%
%ADD14C,0.0050*%
D10*
X001635Y000777D02*
X001635Y006414D01*
X001638Y006492D01*
X001645Y006569D01*
X001656Y006646D01*
X001670Y006723D01*
X001688Y006799D01*
X001709Y006874D01*
X001734Y006947D01*
X001762Y007020D01*
X001794Y007091D01*
X001829Y007161D01*
X001868Y007228D01*
X001909Y007294D01*
X001954Y007358D01*
X002002Y007419D01*
X002052Y007479D01*
X002106Y007535D01*
X002162Y007589D01*
X002220Y007641D01*
X002281Y007689D01*
X002344Y007735D01*
X002409Y007778D01*
X002476Y007817D01*
X002545Y007853D01*
X002616Y007886D01*
X002688Y007916D01*
X002761Y007942D01*
X002836Y007964D01*
X002912Y007983D01*
X002988Y007998D01*
X003065Y008010D01*
X003142Y008018D01*
X003220Y008022D01*
X003298Y008023D01*
X003328Y008021D01*
X003298Y008023D02*
X010855Y008023D01*
X010855Y000777D01*
X001635Y000777D01*
X002834Y002029D02*
X002836Y002054D01*
X002842Y002079D01*
X002851Y002103D01*
X002864Y002125D01*
X002881Y002145D01*
X002900Y002162D01*
X002921Y002176D01*
X002945Y002186D01*
X002969Y002193D01*
X002995Y002196D01*
X003020Y002195D01*
X003045Y002190D01*
X003069Y002181D01*
X003092Y002169D01*
X003112Y002154D01*
X003130Y002135D01*
X003145Y002114D01*
X003156Y002091D01*
X003164Y002067D01*
X003168Y002042D01*
X003168Y002016D01*
X003164Y001991D01*
X003156Y001967D01*
X003145Y001944D01*
X003130Y001923D01*
X003112Y001904D01*
X003092Y001889D01*
X003069Y001877D01*
X003045Y001868D01*
X003020Y001863D01*
X002995Y001862D01*
X002969Y001865D01*
X002945Y001872D01*
X002921Y001882D01*
X002900Y001896D01*
X002881Y001913D01*
X002864Y001933D01*
X002851Y001955D01*
X002842Y001979D01*
X002836Y002004D01*
X002834Y002029D01*
X002834Y003525D02*
X002836Y003550D01*
X002842Y003575D01*
X002851Y003599D01*
X002864Y003621D01*
X002881Y003641D01*
X002900Y003658D01*
X002921Y003672D01*
X002945Y003682D01*
X002969Y003689D01*
X002995Y003692D01*
X003020Y003691D01*
X003045Y003686D01*
X003069Y003677D01*
X003092Y003665D01*
X003112Y003650D01*
X003130Y003631D01*
X003145Y003610D01*
X003156Y003587D01*
X003164Y003563D01*
X003168Y003538D01*
X003168Y003512D01*
X003164Y003487D01*
X003156Y003463D01*
X003145Y003440D01*
X003130Y003419D01*
X003112Y003400D01*
X003092Y003385D01*
X003069Y003373D01*
X003045Y003364D01*
X003020Y003359D01*
X002995Y003358D01*
X002969Y003361D01*
X002945Y003368D01*
X002921Y003378D01*
X002900Y003392D01*
X002881Y003409D01*
X002864Y003429D01*
X002851Y003451D01*
X002842Y003475D01*
X002836Y003500D01*
X002834Y003525D01*
X002685Y006377D02*
X002687Y006427D01*
X002693Y006477D01*
X002703Y006527D01*
X002716Y006575D01*
X002733Y006623D01*
X002754Y006669D01*
X002778Y006713D01*
X002806Y006755D01*
X002837Y006795D01*
X002871Y006832D01*
X002908Y006867D01*
X002947Y006898D01*
X002988Y006927D01*
X003032Y006952D01*
X003078Y006974D01*
X003125Y006992D01*
X003173Y007006D01*
X003222Y007017D01*
X003272Y007024D01*
X003322Y007027D01*
X003373Y007026D01*
X003423Y007021D01*
X003473Y007012D01*
X003521Y007000D01*
X003569Y006983D01*
X003615Y006963D01*
X003660Y006940D01*
X003703Y006913D01*
X003743Y006883D01*
X003781Y006850D01*
X003816Y006814D01*
X003849Y006775D01*
X003878Y006734D01*
X003904Y006691D01*
X003927Y006646D01*
X003946Y006599D01*
X003961Y006551D01*
X003973Y006502D01*
X003981Y006452D01*
X003985Y006402D01*
X003985Y006352D01*
X003981Y006302D01*
X003973Y006252D01*
X003961Y006203D01*
X003946Y006155D01*
X003927Y006108D01*
X003904Y006063D01*
X003878Y006020D01*
X003849Y005979D01*
X003816Y005940D01*
X003781Y005904D01*
X003743Y005871D01*
X003703Y005841D01*
X003660Y005814D01*
X003615Y005791D01*
X003569Y005771D01*
X003521Y005754D01*
X003473Y005742D01*
X003423Y005733D01*
X003373Y005728D01*
X003322Y005727D01*
X003272Y005730D01*
X003222Y005737D01*
X003173Y005748D01*
X003125Y005762D01*
X003078Y005780D01*
X003032Y005802D01*
X002988Y005827D01*
X002947Y005856D01*
X002908Y005887D01*
X002871Y005922D01*
X002837Y005959D01*
X002806Y005999D01*
X002778Y006041D01*
X002754Y006085D01*
X002733Y006131D01*
X002716Y006179D01*
X002703Y006227D01*
X002693Y006277D01*
X002687Y006327D01*
X002685Y006377D01*
D11*
X004352Y005862D02*
X004475Y005862D01*
X004413Y005862D02*
X004413Y005492D01*
X004352Y005492D02*
X004475Y005492D01*
X004597Y005492D02*
X004597Y005739D01*
X004782Y005739D01*
X004844Y005677D01*
X004844Y005492D01*
X004965Y005492D02*
X005151Y005492D01*
X005212Y005554D01*
X005212Y005677D01*
X005151Y005739D01*
X004965Y005739D01*
X004965Y005369D01*
X005089Y005262D02*
X005089Y004892D01*
X005212Y004892D02*
X004965Y004892D01*
X004965Y005139D02*
X005089Y005262D01*
X005334Y005554D02*
X005396Y005492D01*
X005581Y005492D01*
X005581Y005739D01*
X005702Y005739D02*
X005826Y005739D01*
X005764Y005801D02*
X005764Y005554D01*
X005826Y005492D01*
X005334Y005554D02*
X005334Y005739D01*
X005212Y006892D02*
X005088Y006892D01*
X005150Y006892D02*
X005150Y007262D01*
X005088Y007262D01*
X004905Y007139D02*
X004967Y007077D01*
X004967Y006954D01*
X004905Y006892D01*
X004782Y006892D01*
X004720Y006954D01*
X004720Y007077D01*
X004782Y007139D01*
X004905Y007139D01*
X004599Y007262D02*
X004599Y007015D01*
X004475Y006892D01*
X004352Y007015D01*
X004352Y007262D01*
X004689Y007554D02*
X004751Y007492D01*
X004874Y007492D01*
X004936Y007554D01*
X004936Y007615D01*
X004874Y007677D01*
X004813Y007677D01*
X004874Y007677D02*
X004936Y007739D01*
X004936Y007801D01*
X004874Y007862D01*
X004751Y007862D01*
X004689Y007801D01*
X005058Y007554D02*
X005058Y007492D01*
X005119Y007492D01*
X005119Y007554D01*
X005058Y007554D01*
X005242Y007554D02*
X005303Y007492D01*
X005427Y007492D01*
X005489Y007554D01*
X005489Y007615D01*
X005427Y007677D01*
X005365Y007677D01*
X005427Y007677D02*
X005489Y007739D01*
X005489Y007801D01*
X005427Y007862D01*
X005303Y007862D01*
X005242Y007801D01*
X005396Y007201D02*
X005396Y006954D01*
X005457Y006892D01*
X005579Y006892D02*
X005765Y006892D01*
X005826Y006954D01*
X005765Y007015D01*
X005641Y007015D01*
X005579Y007077D01*
X005641Y007139D01*
X005826Y007139D01*
X005457Y007139D02*
X005334Y007139D01*
X004475Y003912D02*
X004352Y003912D01*
X004413Y003912D02*
X004413Y003542D01*
X004352Y003542D02*
X004475Y003542D01*
X004597Y003542D02*
X004597Y003789D01*
X004782Y003789D01*
X004844Y003727D01*
X004844Y003542D01*
X004965Y003542D02*
X005151Y003542D01*
X005212Y003604D01*
X005212Y003727D01*
X005151Y003789D01*
X004965Y003789D01*
X004965Y003419D01*
X005027Y003312D02*
X005151Y003312D01*
X005212Y003251D01*
X004965Y003004D01*
X005027Y002942D01*
X005151Y002942D01*
X005212Y003004D01*
X005212Y003251D01*
X005027Y003312D02*
X004965Y003251D01*
X004965Y003004D01*
X005396Y003542D02*
X005581Y003542D01*
X005581Y003789D01*
X005702Y003789D02*
X005826Y003789D01*
X005764Y003851D02*
X005764Y003604D01*
X005826Y003542D01*
X005396Y003542D02*
X005334Y003604D01*
X005334Y003789D01*
X005802Y001712D02*
X005802Y001342D01*
X005617Y001342D01*
X005556Y001404D01*
X005556Y001527D01*
X005617Y001589D01*
X005802Y001589D01*
X005434Y001527D02*
X005434Y001342D01*
X005434Y001527D02*
X005372Y001589D01*
X005187Y001589D01*
X005187Y001342D01*
X005066Y001342D02*
X005066Y001589D01*
X005066Y001342D02*
X004881Y001342D01*
X004819Y001404D01*
X004819Y001589D01*
X004698Y001527D02*
X004636Y001589D01*
X004512Y001589D01*
X004451Y001527D01*
X004451Y001404D01*
X004512Y001342D01*
X004636Y001342D01*
X004698Y001404D01*
X004698Y001527D01*
X004329Y001589D02*
X004267Y001589D01*
X004144Y001465D01*
X004144Y001342D02*
X004144Y001589D01*
X004022Y001651D02*
X003961Y001712D01*
X003837Y001712D01*
X003775Y001651D01*
X003775Y001404D01*
X003837Y001342D01*
X003961Y001342D01*
X004022Y001404D01*
X004022Y001527D01*
X003899Y001527D01*
D12*
X002034Y005132D02*
X001934Y005132D01*
X001984Y005132D02*
X001984Y005282D01*
X001934Y005232D01*
X001887Y005207D02*
X001862Y005182D01*
X001787Y005182D01*
X001787Y005132D02*
X001787Y005282D01*
X001862Y005282D01*
X001887Y005257D01*
X001887Y005207D01*
X001740Y005282D02*
X001690Y005282D01*
X001715Y005282D02*
X001715Y005157D01*
X001690Y005132D01*
X001665Y005132D01*
X001640Y005157D01*
D13*
X002922Y004352D02*
X002922Y004349D01*
X003309Y004349D01*
X003316Y004352D02*
X003316Y003958D01*
X003316Y001596D02*
X003316Y001202D01*
X002922Y001202D01*
D14*
X005924Y000125D02*
X010845Y000125D01*
X010845Y008629D01*
X005924Y008629D01*
X005924Y000125D01*
M02*
