G75*
%MOIN*%
%OFA0B0*%
%FSLAX24Y24*%
%IPPOS*%
%LPD*%
%AMOC8*
5,1,8,0,0,1.08239X$1,22.5*
%
%ADD10C,0.0000*%
%ADD11C,0.0030*%
D10*
X001635Y000205D02*
X001635Y007452D01*
X012005Y007452D01*
X012005Y000205D01*
X001635Y000205D01*
X002834Y001457D02*
X002836Y001482D01*
X002842Y001507D01*
X002851Y001531D01*
X002864Y001553D01*
X002881Y001573D01*
X002900Y001590D01*
X002921Y001604D01*
X002945Y001614D01*
X002969Y001621D01*
X002995Y001624D01*
X003020Y001623D01*
X003045Y001618D01*
X003069Y001609D01*
X003092Y001597D01*
X003112Y001582D01*
X003130Y001563D01*
X003145Y001542D01*
X003156Y001519D01*
X003164Y001495D01*
X003168Y001470D01*
X003168Y001444D01*
X003164Y001419D01*
X003156Y001395D01*
X003145Y001372D01*
X003130Y001351D01*
X003112Y001332D01*
X003092Y001317D01*
X003069Y001305D01*
X003045Y001296D01*
X003020Y001291D01*
X002995Y001290D01*
X002969Y001293D01*
X002945Y001300D01*
X002921Y001310D01*
X002900Y001324D01*
X002881Y001341D01*
X002864Y001361D01*
X002851Y001383D01*
X002842Y001407D01*
X002836Y001432D01*
X002834Y001457D01*
X002834Y002953D02*
X002836Y002978D01*
X002842Y003003D01*
X002851Y003027D01*
X002864Y003049D01*
X002881Y003069D01*
X002900Y003086D01*
X002921Y003100D01*
X002945Y003110D01*
X002969Y003117D01*
X002995Y003120D01*
X003020Y003119D01*
X003045Y003114D01*
X003069Y003105D01*
X003092Y003093D01*
X003112Y003078D01*
X003130Y003059D01*
X003145Y003038D01*
X003156Y003015D01*
X003164Y002991D01*
X003168Y002966D01*
X003168Y002940D01*
X003164Y002915D01*
X003156Y002891D01*
X003145Y002868D01*
X003130Y002847D01*
X003112Y002828D01*
X003092Y002813D01*
X003069Y002801D01*
X003045Y002792D01*
X003020Y002787D01*
X002995Y002786D01*
X002969Y002789D01*
X002945Y002796D01*
X002921Y002806D01*
X002900Y002820D01*
X002881Y002837D01*
X002864Y002857D01*
X002851Y002879D01*
X002842Y002903D01*
X002836Y002928D01*
X002834Y002953D01*
X002685Y005805D02*
X002687Y005855D01*
X002693Y005905D01*
X002703Y005955D01*
X002716Y006003D01*
X002733Y006051D01*
X002754Y006097D01*
X002778Y006141D01*
X002806Y006183D01*
X002837Y006223D01*
X002871Y006260D01*
X002908Y006295D01*
X002947Y006326D01*
X002988Y006355D01*
X003032Y006380D01*
X003078Y006402D01*
X003125Y006420D01*
X003173Y006434D01*
X003222Y006445D01*
X003272Y006452D01*
X003322Y006455D01*
X003373Y006454D01*
X003423Y006449D01*
X003473Y006440D01*
X003521Y006428D01*
X003569Y006411D01*
X003615Y006391D01*
X003660Y006368D01*
X003703Y006341D01*
X003743Y006311D01*
X003781Y006278D01*
X003816Y006242D01*
X003849Y006203D01*
X003878Y006162D01*
X003904Y006119D01*
X003927Y006074D01*
X003946Y006027D01*
X003961Y005979D01*
X003973Y005930D01*
X003981Y005880D01*
X003985Y005830D01*
X003985Y005780D01*
X003981Y005730D01*
X003973Y005680D01*
X003961Y005631D01*
X003946Y005583D01*
X003927Y005536D01*
X003904Y005491D01*
X003878Y005448D01*
X003849Y005407D01*
X003816Y005368D01*
X003781Y005332D01*
X003743Y005299D01*
X003703Y005269D01*
X003660Y005242D01*
X003615Y005219D01*
X003569Y005199D01*
X003521Y005182D01*
X003473Y005170D01*
X003423Y005161D01*
X003373Y005156D01*
X003322Y005155D01*
X003272Y005158D01*
X003222Y005165D01*
X003173Y005176D01*
X003125Y005190D01*
X003078Y005208D01*
X003032Y005230D01*
X002988Y005255D01*
X002947Y005284D01*
X002908Y005315D01*
X002871Y005350D01*
X002837Y005387D01*
X002806Y005427D01*
X002778Y005469D01*
X002754Y005513D01*
X002733Y005559D01*
X002716Y005607D01*
X002703Y005655D01*
X002693Y005705D01*
X002687Y005755D01*
X002685Y005805D01*
D11*
X010150Y006227D02*
X010211Y006166D01*
X010150Y006227D02*
X010150Y006351D01*
X010211Y006412D01*
X010273Y006412D01*
X010335Y006351D01*
X010335Y006289D01*
X010335Y006351D02*
X010397Y006412D01*
X010458Y006412D01*
X010520Y006351D01*
X010520Y006227D01*
X010458Y006166D01*
X010520Y006534D02*
X010273Y006534D01*
X010150Y006657D01*
X010273Y006781D01*
X010520Y006781D01*
X010458Y006902D02*
X010520Y006964D01*
X010520Y007087D01*
X010458Y007149D01*
X010397Y007149D01*
X010335Y007087D01*
X010273Y007149D01*
X010211Y007149D01*
X010150Y007087D01*
X010150Y006964D01*
X010211Y006902D01*
X010335Y007026D02*
X010335Y007087D01*
X010150Y005199D02*
X010150Y004952D01*
X010150Y004831D02*
X010520Y004831D01*
X010397Y004952D02*
X010520Y005076D01*
X010150Y005076D01*
X010150Y004831D02*
X010520Y004584D01*
X010150Y004584D01*
X010150Y004462D02*
X010150Y004338D01*
X010150Y004400D02*
X010520Y004400D01*
X010520Y004338D02*
X010520Y004462D01*
X010508Y003149D02*
X010261Y003149D01*
X010200Y003087D01*
X010200Y002964D01*
X010261Y002902D01*
X010508Y003149D01*
X010570Y003087D01*
X010570Y002964D01*
X010508Y002902D01*
X010261Y002902D01*
X010200Y002781D02*
X010570Y002781D01*
X010570Y002534D02*
X010200Y002534D01*
X010200Y002412D02*
X010200Y002288D01*
X010200Y002350D02*
X010570Y002350D01*
X010570Y002288D02*
X010570Y002412D01*
X010570Y002534D02*
X010200Y002781D01*
X010261Y001399D02*
X010508Y001399D01*
X010570Y001337D01*
X010570Y001152D01*
X010200Y001152D01*
X010200Y001337D01*
X010261Y001399D01*
X010200Y001031D02*
X010570Y001031D01*
X010570Y000784D02*
X010200Y000784D01*
X010261Y000662D02*
X010200Y000601D01*
X010200Y000477D01*
X010261Y000416D01*
X010508Y000416D01*
X010570Y000477D01*
X010570Y000601D01*
X010508Y000662D01*
X010385Y000662D02*
X010385Y000539D01*
X010385Y000662D02*
X010261Y000662D01*
X010570Y000784D02*
X010200Y001031D01*
M02*
