G75*
%MOIN*%
%OFA0B0*%
%FSLAX24Y24*%
%IPPOS*%
%LPD*%
%AMOC8*
5,1,8,0,0,1.08239X$1,22.5*
%
%ADD10R,0.0315X0.0591*%
%ADD11R,0.0591X0.0315*%
%ADD12C,0.0394*%
%ADD13R,0.2953X0.0591*%
%ADD14R,0.2559X0.0394*%
%ADD15R,0.0630X0.0709*%
%ADD16R,0.0551X0.0472*%
%ADD17R,0.0433X0.0394*%
%ADD18C,0.0700*%
%ADD19C,0.0100*%
%ADD20C,0.0160*%
%ADD21C,0.0436*%
D10*
X003511Y002278D03*
X003983Y002278D03*
X004456Y002278D03*
X004928Y002278D03*
X005401Y002278D03*
X005873Y002278D03*
X006345Y002278D03*
X006818Y002278D03*
X006818Y006609D03*
X006345Y006609D03*
X005873Y006609D03*
X005401Y006609D03*
X004928Y006609D03*
X004456Y006609D03*
X003983Y006609D03*
X003511Y006609D03*
D11*
X007704Y005625D03*
X007704Y005152D03*
X007704Y004680D03*
X007704Y004208D03*
X007704Y003735D03*
X007704Y003263D03*
D12*
X007802Y002180D03*
X007802Y006708D03*
D13*
X013931Y005808D03*
X013931Y003052D03*
D14*
X013734Y004036D03*
X013734Y004824D03*
D15*
X005103Y007680D03*
X004001Y007680D03*
D16*
X010552Y007771D03*
X010552Y006589D03*
X010552Y005521D03*
X010552Y004339D03*
X010552Y003271D03*
X010552Y002089D03*
D17*
X009637Y002930D03*
X008968Y002930D03*
X008968Y005180D03*
X009637Y005180D03*
X009637Y007430D03*
X008968Y007430D03*
D18*
X006552Y001180D03*
X005552Y001180D03*
X004052Y001180D03*
X003052Y001180D03*
D19*
X004052Y001180D02*
X004102Y001180D01*
X004602Y001680D01*
X006202Y001680D01*
X006352Y001830D01*
X006352Y002272D01*
X006345Y002278D01*
X005952Y002358D02*
X005873Y002278D01*
X005952Y002358D02*
X005952Y003030D01*
X005452Y003430D02*
X005452Y002330D01*
X005401Y002278D01*
X006802Y002263D02*
X006802Y001680D01*
X006552Y001430D01*
X006552Y001180D01*
X006802Y002263D02*
X006818Y002278D01*
X007704Y003263D02*
X008635Y003263D01*
X008968Y002930D01*
X009637Y002930D02*
X010212Y002930D01*
X010552Y003271D01*
X011702Y004030D02*
X011708Y004036D01*
X013734Y004036D01*
X013734Y004824D02*
X011708Y004824D01*
X011702Y004830D01*
X010552Y005521D02*
X010212Y005180D01*
X009637Y005180D01*
X009002Y005145D02*
X008968Y005180D01*
X009002Y005145D02*
X009002Y004380D01*
X008357Y003735D01*
X007704Y003735D01*
X007704Y004208D02*
X008080Y004208D01*
X008452Y004580D01*
X008452Y005730D01*
X009002Y006280D01*
X009002Y007395D01*
X008968Y007430D01*
X009637Y007430D02*
X010212Y007430D01*
X010552Y007771D01*
X007704Y005625D02*
X007649Y005680D01*
X006052Y005680D01*
X005402Y005030D01*
X005402Y004530D01*
X006052Y005680D02*
X004552Y005680D01*
X003983Y006249D01*
X003983Y006609D01*
X003983Y007662D01*
X004001Y007680D01*
X003511Y006609D02*
X003511Y002278D01*
D20*
X002232Y000360D02*
X011472Y000360D01*
X011472Y002105D01*
X011578Y002210D01*
X015622Y002210D01*
X015622Y006650D01*
X011478Y006650D01*
X011372Y006755D01*
X011372Y008496D01*
X002232Y008496D01*
X002232Y003854D01*
X002737Y003854D01*
X002784Y003808D01*
X002784Y002875D01*
X002737Y002828D01*
X002232Y002828D01*
X002232Y000360D01*
X002232Y000497D02*
X011472Y000497D01*
X011472Y000656D02*
X002232Y000656D01*
X002232Y000814D02*
X002697Y000814D01*
X002763Y000748D02*
X002620Y000891D01*
X002542Y001079D01*
X002542Y001281D01*
X002620Y001469D01*
X002763Y001612D01*
X002951Y001690D01*
X003154Y001690D01*
X003341Y001612D01*
X003485Y001469D01*
X003552Y001306D01*
X003620Y001469D01*
X003763Y001612D01*
X003951Y001690D01*
X004154Y001690D01*
X004268Y001643D01*
X004392Y001767D01*
X004448Y001823D01*
X004232Y001823D01*
X004219Y001836D01*
X004207Y001823D01*
X003760Y001823D01*
X003756Y001826D01*
X003738Y001815D01*
X003692Y001803D01*
X003511Y001803D01*
X003511Y002278D01*
X003511Y002278D01*
X003511Y001803D01*
X003330Y001803D01*
X003284Y001815D01*
X003243Y001839D01*
X003209Y001873D01*
X003186Y001914D01*
X003173Y001959D01*
X003173Y002278D01*
X003511Y002278D01*
X003511Y002278D01*
X003173Y002278D01*
X003173Y002310D01*
X003166Y002295D01*
X003165Y002295D01*
X003165Y002294D01*
X003140Y002274D01*
X003121Y002249D01*
X003120Y002249D01*
X003119Y002248D01*
X003091Y002235D01*
X003066Y002215D01*
X003065Y002215D01*
X003064Y002214D01*
X003033Y002207D01*
X003005Y002193D01*
X003004Y002194D01*
X003003Y002193D01*
X002971Y002193D01*
X002940Y002186D01*
X002929Y002193D01*
X002675Y002193D01*
X002664Y002186D01*
X002633Y002193D01*
X002601Y002193D01*
X002601Y002194D01*
X002600Y002193D01*
X002571Y002207D01*
X002540Y002214D01*
X002540Y002215D01*
X002538Y002215D01*
X002514Y002235D01*
X002485Y002248D01*
X002485Y002249D01*
X002484Y002249D01*
X002464Y002274D01*
X002439Y002294D01*
X002439Y002295D01*
X002438Y002295D01*
X002424Y002324D01*
X002404Y002349D01*
X002405Y002350D01*
X002404Y002350D01*
X002397Y002381D01*
X002383Y002410D01*
X002383Y002411D01*
X002382Y002411D01*
X002382Y002443D01*
X002375Y002474D01*
X002382Y002485D01*
X002382Y002495D01*
X002382Y002505D01*
X002375Y002516D01*
X002382Y002547D01*
X002382Y002579D01*
X002383Y002579D01*
X002383Y002580D01*
X002397Y002609D01*
X002404Y002640D01*
X002405Y002640D01*
X002404Y002641D01*
X002424Y002666D01*
X002438Y002695D01*
X002439Y002695D01*
X002439Y002696D01*
X002464Y002716D01*
X002232Y002716D01*
X002464Y002716D02*
X002484Y002740D01*
X002485Y002741D01*
X002485Y002742D01*
X002514Y002755D01*
X002538Y002775D01*
X002540Y002775D01*
X002540Y002776D01*
X002571Y002783D01*
X002600Y002796D01*
X002601Y002796D01*
X002601Y002797D01*
X002633Y002797D01*
X002664Y002804D01*
X002675Y002797D01*
X002929Y002797D01*
X002940Y002804D01*
X002971Y002797D01*
X003003Y002797D01*
X003004Y002796D01*
X003005Y002796D01*
X003033Y002783D01*
X003064Y002776D01*
X003065Y002775D01*
X003066Y002775D01*
X003091Y002755D01*
X003119Y002742D01*
X003120Y002741D01*
X003121Y002740D01*
X003140Y002716D01*
X003241Y002716D01*
X003243Y002718D02*
X003209Y002684D01*
X003191Y002652D01*
X003180Y002666D01*
X003166Y002695D01*
X003165Y002695D01*
X003165Y002696D01*
X003140Y002716D01*
X003243Y002718D02*
X003284Y002741D01*
X003330Y002754D01*
X003511Y002754D01*
X003511Y002278D01*
X003511Y002278D01*
X003511Y002754D01*
X003692Y002754D01*
X003738Y002741D01*
X003756Y002731D01*
X003760Y002734D01*
X004207Y002734D01*
X004219Y002721D01*
X004232Y002734D01*
X004679Y002734D01*
X004692Y002721D01*
X004704Y002734D01*
X005152Y002734D01*
X005164Y002721D01*
X005177Y002734D01*
X005242Y002734D01*
X005242Y003108D01*
X005238Y003109D01*
X005132Y003216D01*
X005074Y003355D01*
X005074Y003505D01*
X005132Y003644D01*
X005238Y003751D01*
X005377Y003808D01*
X005527Y003808D01*
X005666Y003751D01*
X005773Y003644D01*
X005830Y003505D01*
X005830Y003389D01*
X005877Y003408D01*
X006027Y003408D01*
X006166Y003351D01*
X006273Y003244D01*
X006330Y003105D01*
X006330Y002955D01*
X006273Y002816D01*
X006191Y002734D01*
X006569Y002734D01*
X006582Y002721D01*
X006594Y002734D01*
X007042Y002734D01*
X007093Y002683D01*
X007093Y002684D01*
X007110Y002710D01*
X007114Y002711D01*
X007114Y002715D01*
X007141Y002731D01*
X007163Y002754D01*
X007167Y002754D01*
X007169Y002757D01*
X007198Y002768D01*
X007225Y002784D01*
X007229Y002784D01*
X007231Y002786D01*
X007262Y002790D01*
X007292Y002800D01*
X007300Y002797D01*
X007324Y002797D01*
X007361Y002801D01*
X007366Y002797D01*
X007450Y002797D01*
X007456Y002801D01*
X007493Y002797D01*
X007517Y002797D01*
X007525Y002800D01*
X007555Y002790D01*
X007586Y002786D01*
X007588Y002784D01*
X007592Y002784D01*
X007618Y002768D01*
X007648Y002757D01*
X007650Y002754D01*
X007653Y002754D01*
X007676Y002731D01*
X007703Y002715D01*
X007703Y002711D01*
X007707Y002710D01*
X007724Y002684D01*
X007746Y002661D01*
X007746Y002658D01*
X007749Y002656D01*
X007760Y002626D01*
X007777Y002599D01*
X007776Y002596D01*
X007779Y002594D01*
X007782Y002562D01*
X007793Y002532D01*
X007791Y002529D01*
X007793Y002526D01*
X007790Y002495D01*
X007793Y002463D01*
X007791Y002461D01*
X007793Y002458D01*
X007784Y002432D01*
X007784Y002198D01*
X007784Y002162D01*
X007425Y002162D01*
X007425Y002143D01*
X007440Y002070D01*
X007468Y002001D01*
X007509Y001940D01*
X007562Y001887D01*
X007624Y001846D01*
X007692Y001818D01*
X007765Y001803D01*
X007784Y001803D01*
X007784Y002162D01*
X007821Y002162D01*
X007821Y002198D01*
X008179Y002198D01*
X008179Y002217D01*
X008165Y002290D01*
X008136Y002359D01*
X008095Y002420D01*
X008042Y002473D01*
X007981Y002514D01*
X007912Y002542D01*
X007839Y002557D01*
X007821Y002557D01*
X007821Y002198D01*
X007784Y002198D01*
X007550Y002198D01*
X007525Y002190D01*
X007517Y002193D01*
X007493Y002193D01*
X007456Y002189D01*
X007450Y002193D01*
X007366Y002193D01*
X007361Y002189D01*
X007324Y002193D01*
X007300Y002193D01*
X007292Y002190D01*
X007262Y002200D01*
X007231Y002204D01*
X007229Y002206D01*
X007225Y002206D01*
X007198Y002222D01*
X007169Y002233D01*
X007167Y002236D01*
X007163Y002236D01*
X007141Y002258D01*
X007135Y002262D01*
X007135Y001917D01*
X007042Y001823D01*
X007012Y001823D01*
X007012Y001593D01*
X006936Y001517D01*
X006985Y001469D01*
X007062Y001281D01*
X007062Y001079D01*
X006985Y000891D01*
X006841Y000748D01*
X006654Y000670D01*
X006451Y000670D01*
X006263Y000748D01*
X006120Y000891D01*
X006052Y001054D01*
X005985Y000891D01*
X005841Y000748D01*
X005654Y000670D01*
X005451Y000670D01*
X005263Y000748D01*
X005120Y000891D01*
X005042Y001079D01*
X005042Y001281D01*
X005120Y001469D01*
X005121Y001470D01*
X004689Y001470D01*
X004544Y001325D01*
X004562Y001281D01*
X004562Y001079D01*
X004485Y000891D01*
X004341Y000748D01*
X004154Y000670D01*
X003951Y000670D01*
X003763Y000748D01*
X003620Y000891D01*
X003552Y001054D01*
X003485Y000891D01*
X003341Y000748D01*
X003154Y000670D01*
X002951Y000670D01*
X002763Y000748D01*
X002586Y000973D02*
X002232Y000973D01*
X002232Y001131D02*
X002542Y001131D01*
X002546Y001290D02*
X002232Y001290D01*
X002232Y001448D02*
X002611Y001448D01*
X002757Y001607D02*
X002232Y001607D01*
X002232Y001765D02*
X004390Y001765D01*
X004667Y001448D02*
X005111Y001448D01*
X005046Y001290D02*
X004559Y001290D01*
X004562Y001131D02*
X005042Y001131D01*
X005086Y000973D02*
X004518Y000973D01*
X004407Y000814D02*
X005197Y000814D01*
X005907Y000814D02*
X006197Y000814D01*
X006086Y000973D02*
X006018Y000973D01*
X006907Y000814D02*
X011472Y000814D01*
X011472Y000973D02*
X007018Y000973D01*
X007062Y001131D02*
X011472Y001131D01*
X011472Y001290D02*
X007059Y001290D01*
X006993Y001448D02*
X011472Y001448D01*
X011472Y001607D02*
X007012Y001607D01*
X007012Y001765D02*
X010120Y001765D01*
X010109Y001784D02*
X010133Y001743D01*
X010166Y001709D01*
X010207Y001685D01*
X010253Y001673D01*
X010514Y001673D01*
X010514Y002051D01*
X010590Y002051D01*
X010590Y001673D01*
X010851Y001673D01*
X010897Y001685D01*
X010938Y001709D01*
X010972Y001743D01*
X010995Y001784D01*
X011008Y001830D01*
X011008Y002051D01*
X010590Y002051D01*
X010590Y002128D01*
X010514Y002128D01*
X010514Y002506D01*
X010253Y002506D01*
X010207Y002493D01*
X010166Y002470D01*
X010133Y002436D01*
X010109Y002395D01*
X010097Y002349D01*
X010097Y002128D01*
X010514Y002128D01*
X010514Y002051D01*
X010097Y002051D01*
X010097Y001830D01*
X010109Y001784D01*
X010097Y001924D02*
X008079Y001924D01*
X008095Y001940D02*
X008136Y002001D01*
X008165Y002070D01*
X008179Y002143D01*
X008179Y002162D01*
X007821Y002162D01*
X007821Y001803D01*
X007839Y001803D01*
X007912Y001818D01*
X007981Y001846D01*
X008042Y001887D01*
X008095Y001940D01*
X007821Y001924D02*
X007784Y001924D01*
X007526Y001924D02*
X007135Y001924D01*
X007135Y002082D02*
X007437Y002082D01*
X007159Y002241D02*
X007135Y002241D01*
X007784Y002241D02*
X007821Y002241D01*
X007821Y002399D02*
X007784Y002399D01*
X007784Y002558D02*
X015622Y002558D01*
X015551Y002646D02*
X015575Y002687D01*
X015587Y002733D01*
X015587Y002984D01*
X013999Y002984D01*
X013999Y003120D01*
X015587Y003120D01*
X015587Y003371D01*
X015575Y003417D01*
X015551Y003458D01*
X015518Y003491D01*
X015477Y003515D01*
X015431Y003527D01*
X013999Y003527D01*
X013999Y003120D01*
X013863Y003120D01*
X013863Y003527D01*
X012431Y003527D01*
X012385Y003515D01*
X012344Y003491D01*
X012310Y003458D01*
X012287Y003417D01*
X012275Y003371D01*
X012275Y003120D01*
X013863Y003120D01*
X013863Y002984D01*
X013999Y002984D01*
X013999Y002577D01*
X015431Y002577D01*
X015477Y002589D01*
X015518Y002613D01*
X015551Y002646D01*
X015583Y002716D02*
X015622Y002716D01*
X015622Y002875D02*
X015587Y002875D01*
X015622Y003033D02*
X013999Y003033D01*
X013863Y003033D02*
X010988Y003033D01*
X010988Y002968D02*
X010988Y003573D01*
X010894Y003667D01*
X010210Y003667D01*
X010117Y003573D01*
X010117Y003140D01*
X010013Y003140D01*
X010013Y003193D01*
X009920Y003287D01*
X009354Y003287D01*
X009302Y003235D01*
X009250Y003287D01*
X008908Y003287D01*
X008722Y003473D01*
X008159Y003473D01*
X008159Y003486D01*
X008147Y003499D01*
X008159Y003511D01*
X008159Y003525D01*
X008444Y003525D01*
X009089Y004170D01*
X009212Y004293D01*
X009212Y004823D01*
X009250Y004823D01*
X009302Y004875D01*
X009354Y004823D01*
X009920Y004823D01*
X010013Y004917D01*
X010013Y004970D01*
X010299Y004970D01*
X010453Y005124D01*
X010894Y005124D01*
X010988Y005218D01*
X010988Y005823D01*
X010894Y005917D01*
X010210Y005917D01*
X010117Y005823D01*
X010117Y005390D01*
X010013Y005390D01*
X010013Y005443D01*
X009920Y005537D01*
X009354Y005537D01*
X009302Y005485D01*
X009250Y005537D01*
X008685Y005537D01*
X008662Y005514D01*
X008662Y005643D01*
X009089Y006070D01*
X009212Y006193D01*
X009212Y007073D01*
X009250Y007073D01*
X009302Y007125D01*
X009354Y007073D01*
X009920Y007073D01*
X010013Y007167D01*
X010013Y007220D01*
X010299Y007220D01*
X010422Y007343D01*
X010453Y007374D01*
X010894Y007374D01*
X010988Y007468D01*
X010988Y008073D01*
X010894Y008167D01*
X010210Y008167D01*
X010117Y008073D01*
X010117Y007640D01*
X010013Y007640D01*
X010013Y007693D01*
X009920Y007787D01*
X009354Y007787D01*
X009302Y007735D01*
X009250Y007787D01*
X008685Y007787D01*
X008591Y007693D01*
X008591Y007167D01*
X008685Y007073D01*
X008792Y007073D01*
X008792Y006367D01*
X008242Y005817D01*
X008242Y004667D01*
X008159Y004584D01*
X008159Y004904D01*
X008147Y004916D01*
X008159Y004929D01*
X008159Y005376D01*
X008147Y005389D01*
X008159Y005401D01*
X008159Y005849D01*
X008065Y005942D01*
X007342Y005942D01*
X007290Y005890D01*
X004639Y005890D01*
X004375Y006154D01*
X004679Y006154D01*
X004692Y006166D01*
X004704Y006154D01*
X005152Y006154D01*
X005164Y006166D01*
X005177Y006154D01*
X005624Y006154D01*
X005637Y006166D01*
X005649Y006154D01*
X006097Y006154D01*
X006109Y006166D01*
X006122Y006154D01*
X006569Y006154D01*
X006582Y006166D01*
X006594Y006154D01*
X007042Y006154D01*
X007093Y006205D01*
X007093Y006204D01*
X007110Y006177D01*
X007114Y006176D01*
X007114Y006173D01*
X007141Y006156D01*
X007163Y006134D01*
X007167Y006134D01*
X007169Y006130D01*
X007198Y006120D01*
X007225Y006103D01*
X007229Y006104D01*
X007231Y006101D01*
X007262Y006098D01*
X007292Y006087D01*
X007300Y006091D01*
X007324Y006091D01*
X007361Y006087D01*
X007366Y006091D01*
X007450Y006091D01*
X007456Y006087D01*
X007493Y006091D01*
X007517Y006091D01*
X007525Y006087D01*
X007555Y006098D01*
X007586Y006101D01*
X007588Y006104D01*
X007592Y006103D01*
X007618Y006120D01*
X007648Y006130D01*
X007650Y006134D01*
X007653Y006134D01*
X007676Y006156D01*
X007703Y006173D01*
X007703Y006176D01*
X007707Y006177D01*
X007724Y006204D01*
X007746Y006226D01*
X007746Y006230D01*
X007749Y006231D01*
X007760Y006261D01*
X007777Y006288D01*
X007776Y006292D01*
X007779Y006294D01*
X007782Y006325D01*
X007793Y006355D01*
X007791Y006358D01*
X007793Y006361D01*
X007790Y006393D01*
X007793Y006424D01*
X007791Y006427D01*
X007793Y006430D01*
X007784Y006455D01*
X007784Y006689D01*
X007821Y006689D01*
X007821Y006726D01*
X008179Y006726D01*
X008179Y006745D01*
X008165Y006817D01*
X008136Y006886D01*
X008095Y006948D01*
X008042Y007000D01*
X007981Y007042D01*
X007912Y007070D01*
X007839Y007084D01*
X007821Y007084D01*
X007821Y006726D01*
X007784Y006726D01*
X007784Y007084D01*
X007765Y007084D01*
X007692Y007070D01*
X007624Y007042D01*
X007562Y007000D01*
X007509Y006948D01*
X007468Y006886D01*
X007440Y006817D01*
X007425Y006745D01*
X007425Y006726D01*
X007784Y006726D01*
X007784Y006689D01*
X007550Y006689D01*
X007525Y006698D01*
X007517Y006694D01*
X007493Y006694D01*
X007456Y006699D01*
X007450Y006694D01*
X007366Y006694D01*
X007361Y006699D01*
X007324Y006694D01*
X007300Y006694D01*
X007292Y006698D01*
X007262Y006688D01*
X007231Y006684D01*
X007229Y006681D01*
X007225Y006682D01*
X007198Y006665D01*
X007169Y006655D01*
X007167Y006652D01*
X007163Y006652D01*
X007141Y006629D01*
X007135Y006626D01*
X007135Y006971D01*
X007042Y007064D01*
X006594Y007064D01*
X006582Y007052D01*
X006569Y007064D01*
X006122Y007064D01*
X006109Y007052D01*
X006097Y007064D01*
X005649Y007064D01*
X005637Y007052D01*
X005624Y007064D01*
X005177Y007064D01*
X005164Y007052D01*
X005152Y007064D01*
X004704Y007064D01*
X004692Y007052D01*
X004679Y007064D01*
X004232Y007064D01*
X004219Y007052D01*
X004207Y007064D01*
X004193Y007064D01*
X004193Y007166D01*
X004382Y007166D01*
X004476Y007259D01*
X004476Y008101D01*
X004382Y008194D01*
X003620Y008194D01*
X003526Y008101D01*
X003526Y007259D01*
X003620Y007166D01*
X003773Y007166D01*
X003773Y007064D01*
X003760Y007064D01*
X003756Y007061D01*
X003738Y007072D01*
X003692Y007084D01*
X003511Y007084D01*
X003511Y006609D01*
X003511Y006134D01*
X003692Y006134D01*
X003738Y006146D01*
X003756Y006157D01*
X003760Y006154D01*
X003781Y006154D01*
X004342Y005593D01*
X004465Y005470D01*
X005545Y005470D01*
X005192Y005117D01*
X005192Y004852D01*
X005188Y004851D01*
X005082Y004744D01*
X005024Y004605D01*
X005024Y004455D01*
X005082Y004316D01*
X005188Y004209D01*
X005327Y004152D01*
X005477Y004152D01*
X005616Y004209D01*
X005723Y004316D01*
X005780Y004455D01*
X005780Y004605D01*
X005723Y004744D01*
X005616Y004851D01*
X005612Y004852D01*
X005612Y004943D01*
X006139Y005470D01*
X007248Y005470D01*
X007248Y005401D01*
X007261Y005389D01*
X007248Y005376D01*
X007248Y004929D01*
X007261Y004916D01*
X007248Y004904D01*
X007248Y004456D01*
X007261Y004444D01*
X007248Y004431D01*
X007248Y003984D01*
X002232Y003984D01*
X002232Y004143D02*
X007248Y004143D01*
X007248Y004301D02*
X005708Y004301D01*
X005780Y004460D02*
X007248Y004460D01*
X007248Y004618D02*
X005775Y004618D01*
X005690Y004777D02*
X007248Y004777D01*
X007248Y004935D02*
X005612Y004935D01*
X005763Y005094D02*
X007248Y005094D01*
X007248Y005252D02*
X005921Y005252D01*
X006080Y005411D02*
X007248Y005411D01*
X008122Y005886D02*
X008311Y005886D01*
X008242Y005728D02*
X008159Y005728D01*
X008159Y005569D02*
X008242Y005569D01*
X008242Y005411D02*
X008159Y005411D01*
X008159Y005252D02*
X008242Y005252D01*
X008242Y005094D02*
X008159Y005094D01*
X008159Y004935D02*
X008242Y004935D01*
X008242Y004777D02*
X008159Y004777D01*
X008159Y004618D02*
X008193Y004618D01*
X009062Y004143D02*
X010097Y004143D01*
X010097Y004080D02*
X010109Y004034D01*
X010133Y003993D01*
X010166Y003959D01*
X010207Y003935D01*
X010253Y003923D01*
X010514Y003923D01*
X010514Y004301D01*
X010590Y004301D01*
X010590Y003923D01*
X010851Y003923D01*
X010897Y003935D01*
X010938Y003959D01*
X010972Y003993D01*
X010995Y004034D01*
X011008Y004080D01*
X011008Y004301D01*
X011438Y004301D01*
X011488Y004351D02*
X011382Y004244D01*
X011324Y004105D01*
X011324Y003955D01*
X011382Y003816D01*
X011488Y003709D01*
X011627Y003652D01*
X011777Y003652D01*
X011916Y003709D01*
X012023Y003816D01*
X012027Y003826D01*
X012295Y003826D01*
X012295Y003773D01*
X012388Y003679D01*
X015080Y003679D01*
X015174Y003773D01*
X015174Y004299D01*
X015080Y004393D01*
X012388Y004393D01*
X012295Y004299D01*
X012295Y004246D01*
X012021Y004246D01*
X011916Y004351D01*
X011777Y004408D01*
X011627Y004408D01*
X011488Y004351D01*
X011488Y004509D02*
X011627Y004452D01*
X011777Y004452D01*
X011916Y004509D01*
X012021Y004614D01*
X012295Y004614D01*
X012295Y004561D01*
X012388Y004467D01*
X015080Y004467D01*
X015174Y004561D01*
X015174Y005087D01*
X015080Y005181D01*
X012388Y005181D01*
X012295Y005087D01*
X012295Y005034D01*
X012027Y005034D01*
X012023Y005044D01*
X011916Y005151D01*
X011777Y005208D01*
X011627Y005208D01*
X011488Y005151D01*
X011382Y005044D01*
X011324Y004905D01*
X011324Y004755D01*
X011382Y004616D01*
X011488Y004509D01*
X011609Y004460D02*
X011008Y004460D01*
X011008Y004378D02*
X011008Y004599D01*
X010995Y004645D01*
X010972Y004686D01*
X010938Y004720D01*
X010897Y004743D01*
X010851Y004756D01*
X010590Y004756D01*
X010590Y004378D01*
X010514Y004378D01*
X010514Y004756D01*
X010253Y004756D01*
X010207Y004743D01*
X010166Y004720D01*
X010133Y004686D01*
X010109Y004645D01*
X010097Y004599D01*
X010097Y004378D01*
X010514Y004378D01*
X010514Y004301D01*
X010590Y004301D01*
X010590Y004378D01*
X011008Y004378D01*
X011008Y004301D02*
X010590Y004301D01*
X010514Y004301D02*
X010097Y004301D01*
X009212Y004301D01*
X009212Y004460D02*
X010097Y004460D01*
X010102Y004618D02*
X009212Y004618D01*
X009212Y004777D02*
X011324Y004777D01*
X011381Y004618D02*
X011003Y004618D01*
X010590Y004618D02*
X010514Y004618D01*
X010514Y004460D02*
X010590Y004460D01*
X010097Y004301D02*
X010097Y004080D01*
X010141Y003984D02*
X008903Y003984D01*
X008745Y003826D02*
X011378Y003826D01*
X011324Y003984D02*
X010963Y003984D01*
X011008Y004143D02*
X011340Y004143D01*
X011796Y004460D02*
X015622Y004460D01*
X015622Y004618D02*
X015174Y004618D01*
X015174Y004777D02*
X015622Y004777D01*
X015622Y004935D02*
X015174Y004935D01*
X015167Y005094D02*
X015622Y005094D01*
X015622Y005252D02*
X010988Y005252D01*
X010988Y005411D02*
X012330Y005411D01*
X012295Y005446D02*
X012388Y005353D01*
X015474Y005353D01*
X015567Y005446D01*
X015567Y006170D01*
X015474Y006263D01*
X012388Y006263D01*
X012295Y006170D01*
X012295Y006048D01*
X011969Y006048D01*
X011866Y006151D01*
X011727Y006208D01*
X011577Y006208D01*
X011438Y006151D01*
X011332Y006044D01*
X011274Y005905D01*
X011274Y005755D01*
X011332Y005616D01*
X011438Y005509D01*
X011577Y005452D01*
X011727Y005452D01*
X011866Y005509D01*
X011925Y005568D01*
X012295Y005568D01*
X012295Y005446D01*
X012301Y005094D02*
X011973Y005094D01*
X011431Y005094D02*
X010422Y005094D01*
X010013Y004935D02*
X011336Y004935D01*
X011378Y005569D02*
X010988Y005569D01*
X010988Y005728D02*
X011285Y005728D01*
X011274Y005886D02*
X010925Y005886D01*
X011332Y006045D02*
X009064Y006045D01*
X009212Y006203D02*
X010177Y006203D01*
X010166Y006209D02*
X010207Y006185D01*
X010253Y006173D01*
X010514Y006173D01*
X010514Y006551D01*
X010590Y006551D01*
X010590Y006173D01*
X010851Y006173D01*
X010897Y006185D01*
X010938Y006209D01*
X010972Y006243D01*
X010995Y006284D01*
X011008Y006330D01*
X011008Y006551D01*
X010590Y006551D01*
X010590Y006628D01*
X010514Y006628D01*
X010514Y007006D01*
X010253Y007006D01*
X010207Y006993D01*
X010166Y006970D01*
X010133Y006936D01*
X010109Y006895D01*
X010097Y006849D01*
X010097Y006628D01*
X010514Y006628D01*
X010514Y006551D01*
X010097Y006551D01*
X010097Y006330D01*
X010109Y006284D01*
X010133Y006243D01*
X010166Y006209D01*
X010097Y006362D02*
X009212Y006362D01*
X009212Y006520D02*
X010097Y006520D01*
X010097Y006679D02*
X009212Y006679D01*
X009212Y006837D02*
X010097Y006837D01*
X010215Y006996D02*
X009212Y006996D01*
X008792Y006996D02*
X008047Y006996D01*
X008156Y006837D02*
X008792Y006837D01*
X008792Y006679D02*
X008179Y006679D01*
X008179Y006670D02*
X008179Y006689D01*
X007821Y006689D01*
X007821Y006331D01*
X007839Y006331D01*
X007912Y006345D01*
X007981Y006374D01*
X008042Y006415D01*
X008095Y006467D01*
X008136Y006529D01*
X008165Y006598D01*
X008179Y006670D01*
X008130Y006520D02*
X008792Y006520D01*
X008787Y006362D02*
X007951Y006362D01*
X007821Y006362D02*
X007793Y006362D01*
X007723Y006203D02*
X008628Y006203D01*
X008470Y006045D02*
X004485Y006045D01*
X004049Y005886D02*
X002232Y005886D01*
X002232Y005728D02*
X004208Y005728D01*
X004366Y005569D02*
X002232Y005569D01*
X002232Y005411D02*
X005486Y005411D01*
X005327Y005252D02*
X002232Y005252D01*
X002232Y005094D02*
X005192Y005094D01*
X005192Y004935D02*
X002232Y004935D01*
X002232Y004777D02*
X005114Y004777D01*
X005029Y004618D02*
X002232Y004618D01*
X002232Y004460D02*
X005024Y004460D01*
X005096Y004301D02*
X002232Y004301D01*
X002766Y003826D02*
X007248Y003826D01*
X007248Y003959D02*
X007248Y003511D01*
X007261Y003499D01*
X007248Y003486D01*
X007248Y003039D01*
X007342Y002945D01*
X008065Y002945D01*
X008159Y003039D01*
X008159Y003053D01*
X008548Y003053D01*
X008591Y003010D01*
X008591Y002667D01*
X008685Y002573D01*
X009250Y002573D01*
X009302Y002625D01*
X009354Y002573D01*
X009920Y002573D01*
X010013Y002667D01*
X010013Y002720D01*
X010299Y002720D01*
X010453Y002874D01*
X010894Y002874D01*
X010988Y002968D01*
X010894Y002875D02*
X012275Y002875D01*
X012275Y002984D02*
X012275Y002733D01*
X012287Y002687D01*
X012310Y002646D01*
X012344Y002613D01*
X012385Y002589D01*
X012431Y002577D01*
X013863Y002577D01*
X013863Y002984D01*
X012275Y002984D01*
X012275Y003192D02*
X010988Y003192D01*
X010988Y003350D02*
X012275Y003350D01*
X012374Y003509D02*
X010988Y003509D01*
X011590Y003667D02*
X008586Y003667D01*
X008156Y003509D02*
X010117Y003509D01*
X010117Y003350D02*
X008844Y003350D01*
X008568Y003033D02*
X008153Y003033D01*
X008591Y002875D02*
X006297Y002875D01*
X006330Y003033D02*
X007254Y003033D01*
X007248Y003192D02*
X006295Y003192D01*
X006167Y003350D02*
X007248Y003350D01*
X007251Y003509D02*
X005829Y003509D01*
X005750Y003667D02*
X007248Y003667D01*
X007248Y003959D02*
X007261Y003971D01*
X007248Y003984D01*
X005154Y003667D02*
X002784Y003667D01*
X002784Y003509D02*
X005075Y003509D01*
X005076Y003350D02*
X002784Y003350D01*
X002784Y003192D02*
X005156Y003192D01*
X005242Y003033D02*
X002784Y003033D01*
X002783Y002875D02*
X005242Y002875D01*
X003511Y002716D02*
X003511Y002716D01*
X003511Y002558D02*
X003511Y002558D01*
X003511Y002399D02*
X003511Y002399D01*
X003511Y002241D02*
X003511Y002241D01*
X003511Y002082D02*
X003511Y002082D01*
X003511Y001924D02*
X003511Y001924D01*
X003183Y001924D02*
X002232Y001924D01*
X002232Y002082D02*
X003173Y002082D01*
X003173Y002241D02*
X003103Y002241D01*
X002501Y002241D02*
X002232Y002241D01*
X002232Y002399D02*
X002388Y002399D01*
X002382Y002558D02*
X002232Y002558D01*
X003347Y001607D02*
X003757Y001607D01*
X003611Y001448D02*
X003493Y001448D01*
X003518Y000973D02*
X003586Y000973D01*
X003697Y000814D02*
X003407Y000814D01*
X007059Y002716D02*
X007116Y002716D01*
X007700Y002716D02*
X008591Y002716D01*
X008109Y002399D02*
X010111Y002399D01*
X010097Y002241D02*
X008174Y002241D01*
X008167Y002082D02*
X010514Y002082D01*
X010590Y002082D02*
X011472Y002082D01*
X011472Y001924D02*
X011008Y001924D01*
X010985Y001765D02*
X011472Y001765D01*
X011008Y002128D02*
X010590Y002128D01*
X010590Y002506D01*
X010851Y002506D01*
X010897Y002493D01*
X010938Y002470D01*
X010972Y002436D01*
X010995Y002395D01*
X011008Y002349D01*
X011008Y002128D01*
X011008Y002241D02*
X015622Y002241D01*
X015622Y002399D02*
X010993Y002399D01*
X010590Y002399D02*
X010514Y002399D01*
X010514Y002241D02*
X010590Y002241D01*
X010590Y001924D02*
X010514Y001924D01*
X010514Y001765D02*
X010590Y001765D01*
X010013Y002716D02*
X012279Y002716D01*
X013863Y002716D02*
X013999Y002716D01*
X013999Y002875D02*
X013863Y002875D01*
X013863Y003192D02*
X013999Y003192D01*
X013999Y003350D02*
X013863Y003350D01*
X013863Y003509D02*
X013999Y003509D01*
X015174Y003826D02*
X015622Y003826D01*
X015622Y003984D02*
X015174Y003984D01*
X015174Y004143D02*
X015622Y004143D01*
X015622Y004301D02*
X015172Y004301D01*
X015622Y003667D02*
X011814Y003667D01*
X012027Y003826D02*
X012295Y003826D01*
X012296Y004301D02*
X011966Y004301D01*
X010590Y004143D02*
X010514Y004143D01*
X010514Y003984D02*
X010590Y003984D01*
X010117Y003192D02*
X010013Y003192D01*
X007821Y002082D02*
X007784Y002082D01*
X010013Y005411D02*
X010117Y005411D01*
X010117Y005569D02*
X008662Y005569D01*
X008747Y005728D02*
X010117Y005728D01*
X010180Y005886D02*
X008905Y005886D01*
X007821Y006520D02*
X007784Y006520D01*
X007784Y006679D02*
X007821Y006679D01*
X007821Y006837D02*
X007784Y006837D01*
X007784Y006996D02*
X007821Y006996D01*
X007557Y006996D02*
X007111Y006996D01*
X007135Y006837D02*
X007448Y006837D01*
X007220Y006679D02*
X007135Y006679D01*
X007094Y006203D02*
X007091Y006203D01*
X008604Y007154D02*
X005473Y007154D01*
X005488Y007158D02*
X005529Y007182D01*
X005562Y007215D01*
X005586Y007256D01*
X005598Y007302D01*
X005598Y007603D01*
X005181Y007603D01*
X005181Y007757D01*
X005598Y007757D01*
X005598Y008058D01*
X005586Y008104D01*
X005562Y008145D01*
X005529Y008178D01*
X005488Y008202D01*
X005442Y008214D01*
X005181Y008214D01*
X005181Y007757D01*
X005026Y007757D01*
X005026Y007603D01*
X004608Y007603D01*
X004608Y007302D01*
X004621Y007256D01*
X004644Y007215D01*
X004678Y007182D01*
X004719Y007158D01*
X004765Y007146D01*
X005026Y007146D01*
X005026Y007603D01*
X005181Y007603D01*
X005181Y007146D01*
X005442Y007146D01*
X005488Y007158D01*
X005598Y007313D02*
X008591Y007313D01*
X008591Y007471D02*
X005598Y007471D01*
X005181Y007471D02*
X005026Y007471D01*
X005026Y007313D02*
X005181Y007313D01*
X005181Y007154D02*
X005026Y007154D01*
X004734Y007154D02*
X004193Y007154D01*
X004476Y007313D02*
X004608Y007313D01*
X004608Y007471D02*
X004476Y007471D01*
X004476Y007630D02*
X005026Y007630D01*
X005026Y007757D02*
X004608Y007757D01*
X004608Y008058D01*
X004621Y008104D01*
X004644Y008145D01*
X004678Y008178D01*
X004719Y008202D01*
X004765Y008214D01*
X005026Y008214D01*
X005026Y007757D01*
X005026Y007788D02*
X005181Y007788D01*
X005181Y007630D02*
X008591Y007630D01*
X010000Y007154D02*
X011372Y007154D01*
X011372Y006996D02*
X010889Y006996D01*
X010897Y006993D02*
X010851Y007006D01*
X010590Y007006D01*
X010590Y006628D01*
X011008Y006628D01*
X011008Y006849D01*
X010995Y006895D01*
X010972Y006936D01*
X010938Y006970D01*
X010897Y006993D01*
X011008Y006837D02*
X011372Y006837D01*
X011449Y006679D02*
X011008Y006679D01*
X011008Y006520D02*
X015622Y006520D01*
X015622Y006362D02*
X011008Y006362D01*
X010928Y006203D02*
X011565Y006203D01*
X011740Y006203D02*
X012328Y006203D01*
X011674Y005808D02*
X011652Y005830D01*
X011674Y005808D02*
X013931Y005808D01*
X015567Y005886D02*
X015622Y005886D01*
X015622Y005728D02*
X015567Y005728D01*
X015567Y005569D02*
X015622Y005569D01*
X015622Y005411D02*
X015531Y005411D01*
X015567Y006045D02*
X015622Y006045D01*
X015622Y006203D02*
X015534Y006203D01*
X011372Y007313D02*
X010391Y007313D01*
X010422Y007343D02*
X010422Y007343D01*
X010988Y007471D02*
X011372Y007471D01*
X011372Y007630D02*
X010988Y007630D01*
X010988Y007788D02*
X011372Y007788D01*
X011372Y007947D02*
X010988Y007947D01*
X010956Y008105D02*
X011372Y008105D01*
X011372Y008264D02*
X002232Y008264D01*
X002232Y008422D02*
X011372Y008422D01*
X010149Y008105D02*
X005585Y008105D01*
X005598Y007947D02*
X010117Y007947D01*
X010117Y007788D02*
X005598Y007788D01*
X005181Y007947D02*
X005026Y007947D01*
X005026Y008105D02*
X005181Y008105D01*
X004621Y008105D02*
X004472Y008105D01*
X004476Y007947D02*
X004608Y007947D01*
X004608Y007788D02*
X004476Y007788D01*
X003526Y007788D02*
X002232Y007788D01*
X002232Y007630D02*
X003526Y007630D01*
X003526Y007471D02*
X002232Y007471D01*
X002232Y007313D02*
X003526Y007313D01*
X003773Y007154D02*
X002232Y007154D01*
X002232Y006996D02*
X003198Y006996D01*
X003209Y007015D02*
X003186Y006974D01*
X003173Y006928D01*
X003173Y006609D01*
X003173Y006578D01*
X003166Y006592D01*
X003165Y006593D01*
X003165Y006594D01*
X003140Y006613D01*
X003121Y006638D01*
X003120Y006638D01*
X003119Y006639D01*
X003091Y006653D01*
X003066Y006673D01*
X003065Y006672D01*
X003064Y006673D01*
X003033Y006680D01*
X003005Y006694D01*
X003004Y006694D01*
X003003Y006694D01*
X002971Y006694D01*
X002940Y006701D01*
X002929Y006694D01*
X002675Y006694D01*
X002664Y006701D01*
X002633Y006694D01*
X002601Y006694D01*
X002601Y006694D01*
X002600Y006694D01*
X002571Y006680D01*
X002540Y006673D01*
X002540Y006672D01*
X002538Y006673D01*
X002514Y006653D01*
X002485Y006639D01*
X002485Y006638D01*
X002484Y006638D01*
X002464Y006613D01*
X002439Y006594D01*
X002439Y006593D01*
X002438Y006592D01*
X002424Y006564D01*
X002404Y006539D01*
X002405Y006538D01*
X002404Y006537D01*
X002397Y006506D01*
X002383Y006478D01*
X002383Y006477D01*
X002382Y006476D01*
X002382Y006445D01*
X002375Y006414D01*
X002382Y006402D01*
X002382Y006393D01*
X002382Y006383D01*
X002375Y006372D01*
X002382Y006341D01*
X002382Y006309D01*
X002383Y006308D01*
X002383Y006307D01*
X002397Y006279D01*
X002404Y006248D01*
X002405Y006247D01*
X002404Y006246D01*
X002424Y006221D01*
X002438Y006193D01*
X002439Y006193D01*
X002439Y006192D01*
X002464Y006172D01*
X002484Y006147D01*
X002485Y006147D01*
X002485Y006146D01*
X002514Y006132D01*
X002538Y006113D01*
X002540Y006113D01*
X002540Y006112D01*
X002571Y006105D01*
X002600Y006091D01*
X002601Y006091D01*
X002633Y006091D01*
X002664Y006084D01*
X002675Y006091D01*
X002929Y006091D01*
X002940Y006084D01*
X002971Y006091D01*
X003003Y006091D01*
X003004Y006091D01*
X003005Y006091D01*
X003033Y006105D01*
X003064Y006112D01*
X003065Y006113D01*
X003066Y006113D01*
X003091Y006132D01*
X003119Y006146D01*
X003120Y006147D01*
X003121Y006147D01*
X003140Y006172D01*
X003165Y006192D01*
X003165Y006193D01*
X003166Y006193D01*
X003180Y006221D01*
X003191Y006235D01*
X003209Y006203D01*
X003243Y006170D01*
X003284Y006146D01*
X003330Y006134D01*
X003511Y006134D01*
X003511Y006609D01*
X003511Y006609D01*
X003511Y006609D01*
X003173Y006609D01*
X003511Y006609D01*
X003511Y006609D01*
X003511Y007084D01*
X003330Y007084D01*
X003284Y007072D01*
X003243Y007048D01*
X003209Y007015D01*
X003173Y006837D02*
X002232Y006837D01*
X002232Y006679D02*
X002563Y006679D01*
X002400Y006520D02*
X002232Y006520D01*
X002232Y006362D02*
X002377Y006362D01*
X002433Y006203D02*
X002232Y006203D01*
X002232Y006045D02*
X003891Y006045D01*
X003511Y006203D02*
X003511Y006203D01*
X003511Y006362D02*
X003511Y006362D01*
X003511Y006520D02*
X003511Y006520D01*
X003511Y006679D02*
X003511Y006679D01*
X003511Y006837D02*
X003511Y006837D01*
X003511Y006996D02*
X003511Y006996D01*
X003173Y006679D02*
X003042Y006679D01*
X003171Y006203D02*
X003210Y006203D01*
X002601Y006091D02*
X002601Y006091D01*
X002232Y007947D02*
X003526Y007947D01*
X003530Y008105D02*
X002232Y008105D01*
X010514Y006996D02*
X010590Y006996D01*
X010590Y006837D02*
X010514Y006837D01*
X010514Y006679D02*
X010590Y006679D01*
X010590Y006520D02*
X010514Y006520D01*
X010514Y006362D02*
X010590Y006362D01*
X010590Y006203D02*
X010514Y006203D01*
X015488Y003509D02*
X015622Y003509D01*
X015622Y003350D02*
X015587Y003350D01*
X015587Y003192D02*
X015622Y003192D01*
D21*
X011702Y004030D03*
X011702Y004830D03*
X011652Y005830D03*
X005952Y003030D03*
X005452Y003430D03*
X005402Y004530D03*
M02*
