G75*
%MOIN*%
%OFA0B0*%
%FSLAX24Y24*%
%IPPOS*%
%LPD*%
%AMOC8*
5,1,8,0,0,1.08239X$1,22.5*
%
%ADD10R,0.0315X0.0591*%
%ADD11R,0.0591X0.0315*%
%ADD12C,0.0394*%
%ADD13R,0.2953X0.0591*%
%ADD14R,0.2559X0.0394*%
%ADD15R,0.0630X0.0709*%
%ADD16R,0.0551X0.0472*%
%ADD17R,0.0433X0.0394*%
D10*
X003511Y002278D03*
X003983Y002278D03*
X004456Y002278D03*
X004928Y002278D03*
X005401Y002278D03*
X005873Y002278D03*
X006345Y002278D03*
X006818Y002278D03*
X006818Y006609D03*
X006345Y006609D03*
X005873Y006609D03*
X005401Y006609D03*
X004928Y006609D03*
X004456Y006609D03*
X003983Y006609D03*
X003511Y006609D03*
D11*
X007704Y005625D03*
X007704Y005152D03*
X007704Y004680D03*
X007704Y004208D03*
X007704Y003735D03*
X007704Y003263D03*
D12*
X007802Y002180D03*
X007802Y006708D03*
D13*
X013931Y005808D03*
X013931Y003052D03*
D14*
X013734Y004036D03*
X013734Y004824D03*
D15*
X005103Y007680D03*
X004001Y007680D03*
D16*
X010552Y007771D03*
X010552Y006589D03*
X010552Y005521D03*
X010552Y004339D03*
X010552Y003271D03*
X010552Y002089D03*
D17*
X009637Y002930D03*
X008968Y002930D03*
X008968Y005180D03*
X009637Y005180D03*
X009637Y007430D03*
X008968Y007430D03*
M02*
