G75*
%MOIN*%
%OFA0B0*%
%FSLAX24Y24*%
%IPPOS*%
%LPD*%
%AMOC8*
5,1,8,0,0,1.08239X$1,22.5*
%
%ADD10R,0.0710X0.0790*%
%ADD11R,0.0380X0.0680*%
%ADD12C,0.0820*%
%ADD13C,0.1380*%
%ADD14C,0.0516*%
D10*
G36*
X001808Y000524D02*
X001306Y001026D01*
X001864Y001584D01*
X002366Y001082D01*
X001808Y000524D01*
G37*
G36*
X001016Y001316D02*
X000514Y001818D01*
X001072Y002376D01*
X001574Y001874D01*
X001016Y001316D01*
G37*
G36*
X001574Y004526D02*
X001072Y004024D01*
X000514Y004582D01*
X001016Y005084D01*
X001574Y004526D01*
G37*
G36*
X002366Y005318D02*
X001864Y004816D01*
X001306Y005374D01*
X001808Y005876D01*
X002366Y005318D01*
G37*
G36*
X004976Y004816D02*
X004474Y005318D01*
X005032Y005876D01*
X005534Y005374D01*
X004976Y004816D01*
G37*
G36*
X005768Y004024D02*
X005266Y004526D01*
X005824Y005084D01*
X006326Y004582D01*
X005768Y004024D01*
G37*
G36*
X005266Y001874D02*
X005768Y002376D01*
X006326Y001818D01*
X005824Y001316D01*
X005266Y001874D01*
G37*
G36*
X004474Y001082D02*
X004976Y001584D01*
X005534Y001026D01*
X005032Y000524D01*
X004474Y001082D01*
G37*
D11*
X004150Y002100D03*
X002650Y002100D03*
X002650Y004300D03*
X004150Y004300D03*
D12*
X003900Y007200D03*
X004900Y007200D03*
X005900Y007200D03*
X006900Y007200D03*
X007900Y007200D03*
X002900Y007200D03*
X001900Y007200D03*
X000900Y007200D03*
D13*
X007150Y003200D03*
D14*
X005150Y002700D03*
M02*
