G75*
%MOIN*%
%OFA0B0*%
%FSLAX24Y24*%
%IPPOS*%
%LPD*%
%AMOC8*
5,1,8,0,0,1.08239X$1,22.5*
%
%ADD10R,0.0630X0.0710*%
%ADD11R,0.0300X0.0600*%
D10*
G36*
X001808Y000581D02*
X001363Y001026D01*
X001864Y001527D01*
X002309Y001082D01*
X001808Y000581D01*
G37*
G36*
X001016Y001373D02*
X000571Y001818D01*
X001072Y002319D01*
X001517Y001874D01*
X001016Y001373D01*
G37*
G36*
X001517Y004526D02*
X001072Y004081D01*
X000571Y004582D01*
X001016Y005027D01*
X001517Y004526D01*
G37*
G36*
X002309Y005318D02*
X001864Y004873D01*
X001363Y005374D01*
X001808Y005819D01*
X002309Y005318D01*
G37*
G36*
X004976Y004873D02*
X004531Y005318D01*
X005032Y005819D01*
X005477Y005374D01*
X004976Y004873D01*
G37*
G36*
X005768Y004081D02*
X005323Y004526D01*
X005824Y005027D01*
X006269Y004582D01*
X005768Y004081D01*
G37*
G36*
X005323Y001874D02*
X005768Y002319D01*
X006269Y001818D01*
X005824Y001373D01*
X005323Y001874D01*
G37*
G36*
X004531Y001082D02*
X004976Y001527D01*
X005477Y001026D01*
X005032Y000581D01*
X004531Y001082D01*
G37*
D11*
X004150Y002100D03*
X002650Y002100D03*
X002650Y004300D03*
X004150Y004300D03*
M02*
