G75*
%MOIN*%
%OFA0B0*%
%FSLAX24Y24*%
%IPPOS*%
%LPD*%
%AMOC8*
5,1,8,0,0,1.08239X$1,22.5*
%
%ADD10C,0.0000*%
D10*
X000140Y000100D02*
X000140Y008100D01*
X002440Y010600D02*
X004440Y010600D01*
X002790Y009400D02*
X002792Y009450D01*
X002798Y009500D01*
X002808Y009550D01*
X002821Y009598D01*
X002838Y009646D01*
X002859Y009692D01*
X002883Y009736D01*
X002911Y009778D01*
X002942Y009818D01*
X002976Y009855D01*
X003013Y009890D01*
X003052Y009921D01*
X003093Y009950D01*
X003137Y009975D01*
X003183Y009997D01*
X003230Y010015D01*
X003278Y010029D01*
X003327Y010040D01*
X003377Y010047D01*
X003427Y010050D01*
X003478Y010049D01*
X003528Y010044D01*
X003578Y010035D01*
X003626Y010023D01*
X003674Y010006D01*
X003720Y009986D01*
X003765Y009963D01*
X003808Y009936D01*
X003848Y009906D01*
X003886Y009873D01*
X003921Y009837D01*
X003954Y009798D01*
X003983Y009757D01*
X004009Y009714D01*
X004032Y009669D01*
X004051Y009622D01*
X004066Y009574D01*
X004078Y009525D01*
X004086Y009475D01*
X004090Y009425D01*
X004090Y009375D01*
X004086Y009325D01*
X004078Y009275D01*
X004066Y009226D01*
X004051Y009178D01*
X004032Y009131D01*
X004009Y009086D01*
X003983Y009043D01*
X003954Y009002D01*
X003921Y008963D01*
X003886Y008927D01*
X003848Y008894D01*
X003808Y008864D01*
X003765Y008837D01*
X003720Y008814D01*
X003674Y008794D01*
X003626Y008777D01*
X003578Y008765D01*
X003528Y008756D01*
X003478Y008751D01*
X003427Y008750D01*
X003377Y008753D01*
X003327Y008760D01*
X003278Y008771D01*
X003230Y008785D01*
X003183Y008803D01*
X003137Y008825D01*
X003093Y008850D01*
X003052Y008879D01*
X003013Y008910D01*
X002976Y008945D01*
X002942Y008982D01*
X002911Y009022D01*
X002883Y009064D01*
X002859Y009108D01*
X002838Y009154D01*
X002821Y009202D01*
X002808Y009250D01*
X002798Y009300D01*
X002792Y009350D01*
X002790Y009400D01*
X002440Y010600D02*
X002343Y010594D01*
X002247Y010584D01*
X002151Y010570D01*
X002056Y010553D01*
X001962Y010531D01*
X001869Y010506D01*
X001776Y010477D01*
X001685Y010445D01*
X001595Y010409D01*
X001507Y010369D01*
X001421Y010325D01*
X001336Y010279D01*
X001253Y010228D01*
X001173Y010175D01*
X001094Y010118D01*
X001018Y010059D01*
X000945Y009996D01*
X000874Y009930D01*
X000805Y009862D01*
X000740Y009790D01*
X000677Y009717D01*
X000618Y009640D01*
X000561Y009562D01*
X000508Y009481D01*
X000458Y009398D01*
X000412Y009313D01*
X000369Y009227D01*
X000329Y009138D01*
X000293Y009049D01*
X000261Y008958D01*
X000232Y008865D01*
X000207Y008772D01*
X000186Y008677D01*
X000169Y008582D01*
X000155Y008486D01*
X000146Y008390D01*
X000140Y008293D01*
X000138Y008197D01*
X000140Y008100D01*
X004440Y010600D02*
X004536Y010593D01*
X004632Y010581D01*
X004727Y010566D01*
X004822Y010547D01*
X004915Y010524D01*
X005008Y010498D01*
X005100Y010468D01*
X005190Y010434D01*
X005279Y010397D01*
X005366Y010356D01*
X005452Y010313D01*
X005536Y010265D01*
X005618Y010215D01*
X005698Y010161D01*
X005776Y010104D01*
X005852Y010044D01*
X005925Y009981D01*
X005995Y009916D01*
X006064Y009848D01*
X006129Y009777D01*
X006191Y009703D01*
X006251Y009627D01*
X006307Y009549D01*
X006361Y009469D01*
X006411Y009387D01*
X006458Y009302D01*
X006501Y009216D01*
X006541Y009129D01*
X006578Y009040D01*
X006611Y008949D01*
X006641Y008857D01*
X006667Y008765D01*
X006689Y008671D01*
X006708Y008576D01*
X006723Y008481D01*
X006734Y008385D01*
X006741Y008289D01*
X006745Y008193D01*
X006744Y008096D01*
X006740Y008000D01*
X006740Y000100D01*
X000140Y000100D01*
M02*
