G75*
%MOIN*%
%OFA0B0*%
%FSLAX24Y24*%
%IPPOS*%
%LPD*%
%AMOC8*
5,1,8,0,0,1.08239X$1,22.5*
%
%ADD10R,0.0630X0.0710*%
%ADD11R,0.0512X0.0610*%
%ADD12R,0.0740X0.0740*%
%ADD13C,0.0740*%
%ADD14R,0.0394X0.0433*%
%ADD15R,0.0433X0.0394*%
%ADD16C,0.0160*%
%ADD17C,0.0436*%
D10*
G36*
X001708Y001581D02*
X001263Y002026D01*
X001764Y002527D01*
X002209Y002082D01*
X001708Y001581D01*
G37*
G36*
X000916Y002373D02*
X000471Y002818D01*
X000972Y003319D01*
X001417Y002874D01*
X000916Y002373D01*
G37*
G36*
X001417Y005526D02*
X000972Y005081D01*
X000471Y005582D01*
X000916Y006027D01*
X001417Y005526D01*
G37*
G36*
X002209Y006318D02*
X001764Y005873D01*
X001263Y006374D01*
X001708Y006819D01*
X002209Y006318D01*
G37*
G36*
X005116Y005873D02*
X004671Y006318D01*
X005172Y006819D01*
X005617Y006374D01*
X005116Y005873D01*
G37*
G36*
X005908Y005081D02*
X005463Y005526D01*
X005964Y006027D01*
X006409Y005582D01*
X005908Y005081D01*
G37*
G36*
X005463Y002874D02*
X005908Y003319D01*
X006409Y002818D01*
X005964Y002373D01*
X005463Y002874D01*
G37*
G36*
X004671Y002082D02*
X005116Y002527D01*
X005617Y002026D01*
X005172Y001581D01*
X004671Y002082D01*
G37*
D11*
X004326Y002675D03*
X002554Y002675D03*
X002554Y005825D03*
X004326Y005825D03*
D12*
X001440Y007550D03*
X001440Y000800D03*
D13*
X002440Y000800D03*
X003440Y000800D03*
X004440Y000800D03*
X004440Y007550D03*
X003440Y007550D03*
X002440Y007550D03*
D14*
X001590Y004535D03*
X001590Y003865D03*
X005628Y001200D03*
X005628Y000531D03*
X005746Y007151D03*
X005746Y007820D03*
D15*
X003775Y002000D03*
X003105Y002000D03*
D16*
X000944Y001296D02*
X000944Y002846D01*
X001084Y002856D01*
X000740Y003200D01*
X000740Y005210D01*
X000944Y005554D01*
X000940Y005698D01*
X001590Y005050D02*
X001726Y005186D01*
X001736Y006346D01*
X002640Y006600D02*
X001690Y007550D01*
X001440Y007550D01*
X002440Y007550D02*
X002651Y007550D01*
X002901Y007300D01*
X004326Y005825D01*
X004394Y006346D02*
X003440Y007300D01*
X003440Y007550D01*
X002990Y006600D02*
X003390Y006200D01*
X003390Y004850D01*
X004140Y004100D01*
X004640Y004100D01*
X005640Y003100D01*
X005682Y003100D01*
X005936Y002846D01*
X005144Y002054D02*
X005144Y001954D01*
X005628Y001470D01*
X005628Y001200D01*
X005628Y000531D02*
X005597Y000500D01*
X005190Y000500D01*
X004890Y000800D01*
X004440Y000800D01*
X003790Y001400D02*
X003790Y001985D01*
X003775Y002000D01*
X003790Y001400D02*
X003440Y001050D01*
X003440Y000800D01*
X003105Y002000D02*
X003051Y002054D01*
X001736Y002054D01*
X000944Y001296D02*
X001440Y000800D01*
X001705Y003750D02*
X001590Y003865D01*
X001705Y003750D02*
X002590Y003750D01*
X003140Y004100D02*
X002554Y004686D01*
X002554Y005825D01*
X002640Y006600D02*
X002990Y006600D01*
X004394Y006346D02*
X005144Y006346D01*
X005836Y007061D02*
X005746Y007151D01*
X005836Y007061D02*
X005836Y005654D01*
X005936Y005554D01*
X004640Y007550D02*
X004910Y007820D01*
X005746Y007820D01*
X004640Y007550D02*
X004440Y007550D01*
X001590Y005050D02*
X001590Y004535D01*
D17*
X002590Y003750D03*
X003140Y004100D03*
M02*
