%
M48
M72
T01C0.0200
T02C0.0335
T03C0.0400
T04C0.1200
%
T01
X7983Y6900
X10733Y7750
X11583Y7600
X13883Y8650
X14333Y9250
X13333Y9250
X13333Y10250
X14333Y10250
X15333Y10250
X15333Y9250
X17333Y10250
X17783Y10500
X18133Y9950
X19083Y10000
X18083Y8750
X17533Y8800
X15283Y7350
X14333Y6800
X15633Y6100
X16333Y5700
X15783Y5450
X17633Y5750
X18783Y4950
X19433Y6300
X18883Y6500
X17633Y6600
X18583Y7150
X19933Y7300
X11433Y8900
X11233Y9900
X9483Y11500
X7983Y12250
X10983Y14200
X12833Y13300
X14783Y13600
X14833Y14450
X15033Y11850
X20683Y13400
X8733Y15100
X8033Y15050
T02
X7699Y10998
X7699Y9502
T03
X6833Y5250
X6833Y6250
X6833Y7250
X8833Y7250
X8833Y6250
X8833Y5250
X20333Y5250
X21333Y5250
X22333Y5250
X23333Y5250
X24333Y5250
X24333Y6250
X24333Y7250
X24333Y8250
X24333Y9250
X24333Y10250
X24333Y11250
X18333Y15500
X17333Y15500
X16333Y15500
X15333Y15500
X14333Y15500
X13333Y15500
X12333Y15500
X11333Y15500
X6833Y15500
X6833Y14500
T04
X19183Y13250
M30
