G75*
%MOIN*%
%OFA0B0*%
%FSLAX24Y24*%
%IPPOS*%
%LPD*%
%AMOC8*
5,1,8,0,0,1.08239X$1,22.5*
%
%ADD10C,0.0080*%
%ADD11R,0.0028X0.0009*%
%ADD12R,0.0047X0.0009*%
%ADD13R,0.0113X0.0009*%
%ADD14R,0.0066X0.0009*%
%ADD15R,0.0236X0.0009*%
%ADD16R,0.0084X0.0009*%
%ADD17R,0.0235X0.0009*%
%ADD18R,0.0274X0.0009*%
%ADD19R,0.0104X0.0009*%
%ADD20R,0.0273X0.0009*%
%ADD21R,0.0302X0.0009*%
%ADD22R,0.0122X0.0009*%
%ADD23R,0.0301X0.0009*%
%ADD24R,0.0321X0.0009*%
%ADD25R,0.0141X0.0009*%
%ADD26R,0.0320X0.0009*%
%ADD27R,0.0339X0.0009*%
%ADD28R,0.0160X0.0009*%
%ADD29R,0.0358X0.0009*%
%ADD30R,0.0179X0.0009*%
%ADD31R,0.0357X0.0009*%
%ADD32R,0.0368X0.0010*%
%ADD33R,0.0198X0.0010*%
%ADD34R,0.0376X0.0010*%
%ADD35R,0.0377X0.0009*%
%ADD36R,0.0216X0.0009*%
%ADD37R,0.0386X0.0009*%
%ADD38R,0.0396X0.0009*%
%ADD39R,0.0236X0.0009*%
%ADD40R,0.0395X0.0009*%
%ADD41R,0.0405X0.0009*%
%ADD42R,0.0254X0.0009*%
%ADD43R,0.0415X0.0009*%
%ADD44R,0.0414X0.0009*%
%ADD45R,0.0424X0.0009*%
%ADD46R,0.0292X0.0009*%
%ADD47R,0.0423X0.0009*%
%ADD48R,0.0434X0.0010*%
%ADD49R,0.0310X0.0010*%
%ADD50R,0.0433X0.0010*%
%ADD51R,0.0434X0.0009*%
%ADD52R,0.0330X0.0009*%
%ADD53R,0.0442X0.0009*%
%ADD54R,0.0443X0.0009*%
%ADD55R,0.0452X0.0009*%
%ADD56R,0.0452X0.0009*%
%ADD57R,0.0377X0.0009*%
%ADD58R,0.0462X0.0009*%
%ADD59R,0.0461X0.0009*%
%ADD60R,0.0471X0.0009*%
%ADD61R,0.0433X0.0009*%
%ADD62R,0.0470X0.0009*%
%ADD63R,0.0471X0.0009*%
%ADD64R,0.0452X0.0009*%
%ADD65R,0.0480X0.0009*%
%ADD66R,0.0481X0.0009*%
%ADD67R,0.0480X0.0009*%
%ADD68R,0.0489X0.0009*%
%ADD69R,0.0490X0.0009*%
%ADD70R,0.0509X0.0009*%
%ADD71R,0.0527X0.0009*%
%ADD72R,0.0546X0.0009*%
%ADD73R,0.0368X0.0009*%
%ADD74R,0.0321X0.0010*%
%ADD75R,0.0565X0.0010*%
%ADD76R,0.0330X0.0010*%
%ADD77R,0.0583X0.0009*%
%ADD78R,0.0283X0.0009*%
%ADD79R,0.0603X0.0009*%
%ADD80R,0.0621X0.0009*%
%ADD81R,0.0641X0.0009*%
%ADD82R,0.0264X0.0009*%
%ADD83R,0.0659X0.0009*%
%ADD84R,0.0254X0.0010*%
%ADD85R,0.0678X0.0010*%
%ADD86R,0.0264X0.0010*%
%ADD87R,0.0697X0.0009*%
%ADD88R,0.0715X0.0009*%
%ADD89R,0.0255X0.0009*%
%ADD90R,0.0735X0.0009*%
%ADD91R,0.0753X0.0009*%
%ADD92R,0.0245X0.0009*%
%ADD93R,0.0244X0.0009*%
%ADD94R,0.0772X0.0009*%
%ADD95R,0.0244X0.0010*%
%ADD96R,0.0791X0.0010*%
%ADD97R,0.0809X0.0009*%
%ADD98R,0.0829X0.0009*%
%ADD99R,0.0847X0.0009*%
%ADD100R,0.0235X0.0009*%
%ADD101R,0.0867X0.0009*%
%ADD102R,0.0885X0.0009*%
%ADD103R,0.0245X0.0009*%
%ADD104R,0.0904X0.0009*%
%ADD105R,0.0923X0.0009*%
%ADD106R,0.0941X0.0009*%
%ADD107R,0.0961X0.0009*%
%ADD108R,0.0979X0.0009*%
%ADD109R,0.0998X0.0009*%
%ADD110R,0.1017X0.0009*%
%ADD111R,0.0254X0.0009*%
%ADD112R,0.1035X0.0009*%
%ADD113R,0.1055X0.0009*%
%ADD114R,0.1064X0.0009*%
%ADD115R,0.1083X0.0009*%
%ADD116R,0.1102X0.0009*%
%ADD117R,0.1120X0.0009*%
%ADD118R,0.0245X0.0010*%
%ADD119R,0.1140X0.0010*%
%ADD120R,0.1158X0.0009*%
%ADD121R,0.1177X0.0009*%
%ADD122R,0.1187X0.0009*%
%ADD123R,0.1205X0.0009*%
%ADD124R,0.1224X0.0009*%
%ADD125R,0.1243X0.0010*%
%ADD126R,0.1261X0.0009*%
%ADD127R,0.0254X0.0009*%
%ADD128R,0.1281X0.0009*%
%ADD129R,0.1290X0.0009*%
%ADD130R,0.1309X0.0009*%
%ADD131R,0.1328X0.0009*%
%ADD132R,0.0254X0.0009*%
%ADD133R,0.1346X0.0009*%
%ADD134R,0.0244X0.0009*%
%ADD135R,0.1366X0.0009*%
%ADD136R,0.1375X0.0009*%
%ADD137R,0.1393X0.0009*%
%ADD138R,0.1413X0.0009*%
%ADD139R,0.1422X0.0009*%
%ADD140R,0.1440X0.0009*%
%ADD141R,0.1460X0.0009*%
%ADD142R,0.1478X0.0009*%
%ADD143R,0.1497X0.0009*%
%ADD144R,0.1507X0.0009*%
%ADD145R,0.1525X0.0009*%
%ADD146R,0.0254X0.0010*%
%ADD147R,0.1535X0.0010*%
%ADD148R,0.1554X0.0009*%
%ADD149R,0.1572X0.0009*%
%ADD150R,0.1592X0.0009*%
%ADD151R,0.1610X0.0009*%
%ADD152R,0.1619X0.0009*%
%ADD153R,0.1629X0.0009*%
%ADD154R,0.1648X0.0009*%
%ADD155R,0.1666X0.0009*%
%ADD156R,0.1686X0.0009*%
%ADD157R,0.1695X0.0009*%
%ADD158R,0.1704X0.0009*%
%ADD159R,0.1723X0.0009*%
%ADD160R,0.1742X0.0009*%
%ADD161R,0.1761X0.0009*%
%ADD162R,0.1780X0.0009*%
%ADD163R,0.1798X0.0009*%
%ADD164R,0.1818X0.0009*%
%ADD165R,0.0255X0.0010*%
%ADD166R,0.1836X0.0010*%
%ADD167R,0.1836X0.0009*%
%ADD168R,0.1855X0.0009*%
%ADD169R,0.1874X0.0009*%
%ADD170R,0.1883X0.0009*%
%ADD171R,0.1892X0.0009*%
%ADD172R,0.1912X0.0010*%
%ADD173R,0.1930X0.0009*%
%ADD174R,0.1940X0.0009*%
%ADD175R,0.1949X0.0009*%
%ADD176R,0.1968X0.0009*%
%ADD177R,0.1987X0.0009*%
%ADD178R,0.1987X0.0010*%
%ADD179R,0.2006X0.0009*%
%ADD180R,0.2024X0.0009*%
%ADD181R,0.2034X0.0009*%
%ADD182R,0.2044X0.0009*%
%ADD183R,0.2062X0.0009*%
%ADD184R,0.2072X0.0009*%
%ADD185R,0.2081X0.0009*%
%ADD186R,0.2100X0.0009*%
%ADD187R,0.0263X0.0009*%
%ADD188R,0.2109X0.0009*%
%ADD189R,0.2118X0.0009*%
%ADD190R,0.2138X0.0009*%
%ADD191R,0.0264X0.0009*%
%ADD192R,0.2147X0.0009*%
%ADD193R,0.0283X0.0010*%
%ADD194R,0.2156X0.0010*%
%ADD195R,0.0273X0.0010*%
%ADD196R,0.0282X0.0009*%
%ADD197R,0.2175X0.0009*%
%ADD198R,0.2184X0.0009*%
%ADD199R,0.0292X0.0009*%
%ADD200R,0.2194X0.0009*%
%ADD201R,0.2204X0.0009*%
%ADD202R,0.0310X0.0009*%
%ADD203R,0.2222X0.0009*%
%ADD204R,0.0339X0.0010*%
%ADD205R,0.2232X0.0010*%
%ADD206R,0.2241X0.0009*%
%ADD207R,0.2250X0.0009*%
%ADD208R,0.2260X0.0009*%
%ADD209R,0.2279X0.0009*%
%ADD210R,0.2288X0.0009*%
%ADD211R,0.2298X0.0010*%
%ADD212R,0.2307X0.0009*%
%ADD213R,0.0349X0.0009*%
%ADD214R,0.2316X0.0009*%
%ADD215R,0.0348X0.0009*%
%ADD216R,0.2326X0.0009*%
%ADD217R,0.2344X0.0009*%
%ADD218R,0.2354X0.0009*%
%ADD219R,0.0283X0.0009*%
%ADD220R,0.2364X0.0009*%
%ADD221R,0.0292X0.0009*%
%ADD222R,0.2373X0.0009*%
%ADD223R,0.2382X0.0009*%
%ADD224R,0.2392X0.0009*%
%ADD225R,0.2401X0.0009*%
%ADD226R,0.2410X0.0009*%
%ADD227R,0.0311X0.0009*%
%ADD228R,0.2420X0.0009*%
%ADD229R,0.0320X0.0009*%
%ADD230R,0.2430X0.0009*%
%ADD231R,0.2439X0.0009*%
%ADD232R,0.2448X0.0009*%
%ADD233R,0.2458X0.0009*%
%ADD234R,0.0376X0.0009*%
%ADD235R,0.2467X0.0009*%
%ADD236R,0.0386X0.0010*%
%ADD237R,0.2476X0.0010*%
%ADD238R,0.0395X0.0010*%
%ADD239R,0.2476X0.0009*%
%ADD240R,0.2496X0.0009*%
%ADD241R,0.2514X0.0009*%
%ADD242R,0.0311X0.0009*%
%ADD243R,0.2533X0.0009*%
%ADD244R,0.0292X0.0009*%
%ADD245R,0.2533X0.0009*%
%ADD246R,0.0302X0.0009*%
%ADD247R,0.2543X0.0009*%
%ADD248R,0.2552X0.0009*%
%ADD249R,0.2561X0.0009*%
%ADD250R,0.2570X0.0009*%
%ADD251R,0.2580X0.0009*%
%ADD252R,0.0264X0.0009*%
%ADD253R,0.2580X0.0009*%
%ADD254R,0.2590X0.0009*%
%ADD255R,0.2599X0.0009*%
%ADD256R,0.2617X0.0009*%
%ADD257R,0.2627X0.0010*%
%ADD258R,0.2637X0.0009*%
%ADD259R,0.2655X0.0009*%
%ADD260R,0.2655X0.0010*%
%ADD261R,0.2675X0.0009*%
%ADD262R,0.2684X0.0009*%
%ADD263R,0.2693X0.0009*%
%ADD264R,0.2693X0.0010*%
%ADD265R,0.2703X0.0009*%
%ADD266R,0.2712X0.0009*%
%ADD267R,0.2721X0.0009*%
%ADD268R,0.2721X0.0009*%
%ADD269R,0.2731X0.0009*%
%ADD270R,0.2740X0.0009*%
%ADD271R,0.2740X0.0010*%
%ADD272R,0.2749X0.0009*%
%ADD273R,0.2759X0.0009*%
%ADD274R,0.2759X0.0010*%
%ADD275R,0.2759X0.0009*%
%ADD276R,0.1365X0.0009*%
%ADD277R,0.1384X0.0009*%
%ADD278R,0.1356X0.0009*%
%ADD279R,0.1346X0.0010*%
%ADD280R,0.1366X0.0010*%
%ADD281R,0.1346X0.0009*%
%ADD282R,0.1337X0.0009*%
%ADD283R,0.1337X0.0009*%
%ADD284R,0.1318X0.0009*%
%ADD285R,0.1327X0.0009*%
%ADD286R,0.1300X0.0010*%
%ADD287R,0.1318X0.0010*%
%ADD288R,0.1300X0.0009*%
%ADD289R,0.1271X0.0009*%
%ADD290R,0.1252X0.0009*%
%ADD291R,0.1272X0.0009*%
%ADD292R,0.1252X0.0009*%
%ADD293R,0.1262X0.0009*%
%ADD294R,0.1243X0.0009*%
%ADD295R,0.1253X0.0009*%
%ADD296R,0.1233X0.0009*%
%ADD297R,0.1215X0.0009*%
%ADD298R,0.1205X0.0009*%
%ADD299R,0.1215X0.0009*%
%ADD300R,0.1196X0.0009*%
%ADD301R,0.1206X0.0009*%
%ADD302R,0.1187X0.0009*%
%ADD303R,0.1186X0.0009*%
%ADD304R,0.1168X0.0009*%
%ADD305R,0.1149X0.0010*%
%ADD306R,0.1148X0.0010*%
%ADD307R,0.1140X0.0009*%
%ADD308R,0.1148X0.0009*%
%ADD309R,0.1130X0.0009*%
%ADD310R,0.1121X0.0009*%
%ADD311R,0.1102X0.0009*%
%ADD312R,0.1112X0.0009*%
%ADD313R,0.1092X0.0009*%
%ADD314R,0.1082X0.0010*%
%ADD315R,0.1083X0.0010*%
%ADD316R,0.1064X0.0009*%
%ADD317R,0.1046X0.0009*%
%ADD318R,0.1036X0.0009*%
%ADD319R,0.1045X0.0009*%
%ADD320R,0.1026X0.0009*%
%ADD321R,0.1008X0.0009*%
%ADD322R,0.0988X0.0010*%
%ADD323R,0.0989X0.0010*%
%ADD324R,0.0970X0.0009*%
%ADD325R,0.0989X0.0009*%
%ADD326R,0.0952X0.0009*%
%ADD327R,0.0951X0.0009*%
%ADD328R,0.0329X0.0009*%
%ADD329R,0.0932X0.0009*%
%ADD330R,0.0932X0.0009*%
%ADD331R,0.0914X0.0009*%
%ADD332R,0.0913X0.0009*%
%ADD333R,0.0894X0.0009*%
%ADD334R,0.0895X0.0009*%
%ADD335R,0.0481X0.0010*%
%ADD336R,0.0866X0.0010*%
%ADD337R,0.0876X0.0010*%
%ADD338R,0.0489X0.0010*%
%ADD339R,0.0847X0.0009*%
%ADD340R,0.0857X0.0009*%
%ADD341R,0.0828X0.0009*%
%ADD342R,0.0800X0.0009*%
%ADD343R,0.0810X0.0009*%
%ADD344R,0.0772X0.0009*%
%ADD345R,0.0791X0.0009*%
%ADD346R,0.0754X0.0009*%
%ADD347R,0.0452X0.0010*%
%ADD348R,0.0725X0.0010*%
%ADD349R,0.0734X0.0010*%
%ADD350R,0.0461X0.0010*%
%ADD351R,0.0697X0.0009*%
%ADD352R,0.0696X0.0009*%
%ADD353R,0.0669X0.0009*%
%ADD354R,0.0678X0.0009*%
%ADD355R,0.0640X0.0009*%
%ADD356R,0.0602X0.0009*%
%ADD357R,0.0612X0.0009*%
%ADD358R,0.0556X0.0009*%
%ADD359R,0.0575X0.0009*%
%ADD360R,0.0405X0.0010*%
%ADD361R,0.0518X0.0010*%
%ADD362R,0.0414X0.0010*%
%ADD363R,0.0387X0.0009*%
%ADD364R,0.0217X0.0009*%
%ADD365R,0.0367X0.0009*%
%ADD366R,0.0330X0.0009*%
%ADD367R,0.0339X0.0009*%
%ADD368R,0.0217X0.0009*%
%ADD369C,0.0000*%
D10*
X006333Y004500D02*
X006333Y016000D01*
X024833Y016000D01*
X024833Y004500D01*
X006333Y004500D01*
X021662Y012575D02*
X021662Y012890D01*
X022646Y012890D01*
X022646Y013363D01*
X023040Y012575D02*
X021662Y012575D01*
X024614Y013363D02*
X024614Y014937D01*
X023040Y015725D02*
X021662Y015725D01*
X021662Y015410D01*
X022646Y015410D01*
X022646Y014937D01*
D11*
X012173Y004754D03*
D12*
X012172Y004764D03*
D13*
X010445Y004773D03*
X013910Y004773D03*
D14*
X012173Y004773D03*
D15*
X010384Y004783D03*
D16*
X012173Y004783D03*
D17*
X013971Y004783D03*
D18*
X014348Y005941D03*
X014348Y006336D03*
X010365Y004792D03*
X010139Y007231D03*
D19*
X012173Y004792D03*
D20*
X012172Y004877D03*
X013990Y004792D03*
X014225Y005046D03*
X014545Y006129D03*
X014545Y006148D03*
X014338Y006346D03*
X010129Y007212D03*
X010016Y006336D03*
X010007Y006327D03*
X010016Y005931D03*
X010129Y005056D03*
D21*
X010153Y005027D03*
X010351Y004801D03*
X009833Y006110D03*
X009833Y006167D03*
X014202Y007250D03*
X014381Y005978D03*
X014202Y005027D03*
D22*
X012173Y004801D03*
D23*
X014004Y004801D03*
X009964Y005988D03*
D24*
X010341Y004811D03*
D25*
X012172Y004811D03*
D26*
X014014Y004811D03*
X014409Y005997D03*
X014522Y006101D03*
X014409Y006280D03*
X014014Y007466D03*
X009955Y006280D03*
X009842Y006101D03*
X009955Y005997D03*
D27*
X009851Y006195D03*
X009936Y006270D03*
X010332Y004820D03*
X014023Y004820D03*
X014512Y006091D03*
X014512Y006186D03*
D28*
X012173Y004820D03*
D29*
X010323Y004830D03*
X010191Y005009D03*
X009861Y006073D03*
X009861Y006204D03*
X014503Y006204D03*
X014503Y006073D03*
D30*
X012172Y004830D03*
D31*
X012177Y004914D03*
X014032Y004830D03*
X014032Y007447D03*
D32*
X009866Y006063D03*
X010318Y004839D03*
D33*
X012173Y004839D03*
D34*
X014042Y004839D03*
X014494Y006063D03*
D35*
X010313Y004849D03*
X009870Y006054D03*
X009870Y006223D03*
X009908Y006261D03*
X010313Y007429D03*
D36*
X013962Y007494D03*
X012173Y004849D03*
D37*
X014047Y004849D03*
X014452Y006016D03*
X014489Y006054D03*
X014489Y006223D03*
X014452Y006261D03*
X009904Y006016D03*
X009875Y006044D03*
D38*
X009880Y006035D03*
X009880Y006242D03*
X010304Y007410D03*
X014155Y007268D03*
X010304Y004858D03*
D39*
X012173Y004858D03*
D40*
X012177Y004933D03*
X014051Y004858D03*
X014484Y006044D03*
X014051Y007419D03*
X010209Y007268D03*
D41*
X011447Y007419D03*
X012907Y007419D03*
X014056Y007410D03*
X014479Y006242D03*
X014479Y006035D03*
X014056Y004867D03*
X010299Y004867D03*
X009884Y006026D03*
X009884Y006252D03*
D42*
X010045Y006383D03*
X010045Y006393D03*
X010054Y006402D03*
X010064Y006440D03*
X010073Y006478D03*
X010101Y007080D03*
X010101Y007090D03*
X010111Y007146D03*
X010111Y007155D03*
X010120Y007174D03*
X010120Y007184D03*
X010120Y007193D03*
X010045Y005875D03*
X010054Y005865D03*
X010054Y005856D03*
X010064Y005818D03*
X010073Y005790D03*
X010073Y005781D03*
X010111Y005112D03*
X010111Y005103D03*
X010111Y005093D03*
X010120Y005084D03*
X012173Y004867D03*
X014254Y005122D03*
X014254Y005140D03*
X014254Y005150D03*
X014273Y005668D03*
X014273Y005677D03*
X014273Y005687D03*
X014273Y005696D03*
X014273Y005705D03*
X014301Y005847D03*
X014301Y005856D03*
X014310Y005865D03*
X014310Y005875D03*
X014320Y005894D03*
X014329Y005913D03*
X014555Y006139D03*
X014310Y006393D03*
X014310Y006402D03*
X014301Y006421D03*
X014301Y006430D03*
X014273Y006543D03*
X014273Y006553D03*
X014273Y006562D03*
X014273Y006572D03*
X014273Y006591D03*
X014273Y006600D03*
X014273Y006609D03*
X014273Y006619D03*
X014263Y006638D03*
X014263Y006656D03*
X014263Y006666D03*
X014263Y006675D03*
X014263Y006685D03*
X014263Y006694D03*
X014263Y006713D03*
X014263Y006722D03*
X014263Y006732D03*
X014263Y006741D03*
X014263Y006751D03*
X014263Y006769D03*
X014263Y006779D03*
X014263Y006788D03*
X014263Y006798D03*
X014263Y006807D03*
X014263Y006826D03*
X014263Y006835D03*
X014263Y006845D03*
X014263Y006854D03*
X014263Y006864D03*
X014263Y006882D03*
X014263Y006892D03*
X014263Y006901D03*
X014263Y006911D03*
X014263Y006920D03*
X014263Y006929D03*
X014263Y006948D03*
X014263Y006958D03*
X014263Y006967D03*
X014254Y007118D03*
X014235Y007203D03*
D43*
X010294Y007391D03*
X012177Y004943D03*
X010294Y004877D03*
D44*
X014061Y004877D03*
X014475Y006026D03*
X014475Y006252D03*
D45*
X010290Y007381D03*
X010290Y004886D03*
D46*
X012173Y004886D03*
X014216Y005037D03*
X014536Y006157D03*
X014367Y006308D03*
X010356Y007476D03*
X010148Y007240D03*
X009988Y005969D03*
D47*
X014065Y004886D03*
X014065Y007391D03*
D48*
X010285Y004896D03*
D49*
X012173Y004896D03*
D50*
X014070Y004896D03*
D51*
X010285Y004905D03*
X010285Y007372D03*
D52*
X011448Y007429D03*
X009847Y006186D03*
X009847Y006091D03*
X012173Y004905D03*
X014188Y007259D03*
D53*
X014075Y007363D03*
X014075Y007372D03*
X014075Y004905D03*
D54*
X010280Y004914D03*
X010280Y007353D03*
X010280Y007363D03*
D55*
X014080Y007353D03*
X014080Y004924D03*
X014080Y004914D03*
D56*
X010276Y004924D03*
D57*
X012177Y004924D03*
D58*
X010271Y004933D03*
X010271Y004943D03*
X010271Y007325D03*
X011448Y007410D03*
D59*
X014084Y007334D03*
X014084Y004943D03*
X014084Y004933D03*
D60*
X012177Y004971D03*
X010266Y004952D03*
X010266Y007306D03*
X010266Y007316D03*
X012902Y007410D03*
D61*
X014070Y007381D03*
X012177Y004952D03*
D62*
X014089Y004952D03*
X014089Y007316D03*
X014089Y007325D03*
D63*
X010266Y004961D03*
D64*
X012178Y004961D03*
D65*
X014094Y004961D03*
D66*
X010261Y004971D03*
X010261Y004980D03*
X010261Y007297D03*
D67*
X014094Y007297D03*
X014094Y007306D03*
X014094Y004980D03*
X014094Y004971D03*
D68*
X014098Y004990D03*
X014098Y004999D03*
X012177Y004980D03*
X014098Y007278D03*
D69*
X010257Y007278D03*
X010257Y004999D03*
X010257Y004990D03*
D70*
X012177Y004990D03*
D71*
X012177Y004999D03*
D72*
X012178Y005009D03*
D73*
X014169Y005009D03*
X009866Y006214D03*
X010318Y007438D03*
D74*
X010162Y005018D03*
D75*
X012177Y005018D03*
D76*
X014188Y005018D03*
D77*
X012177Y005027D03*
D78*
X010143Y005037D03*
X010134Y005046D03*
X009823Y006157D03*
X010002Y006317D03*
X014211Y007240D03*
X014352Y006327D03*
X014371Y005969D03*
D79*
X012177Y005037D03*
D80*
X012177Y005046D03*
D81*
X012177Y005056D03*
D82*
X010125Y005065D03*
X010040Y005894D03*
X010031Y005913D03*
X010021Y005922D03*
X009814Y006129D03*
X009814Y006148D03*
X010021Y006346D03*
X010031Y006365D03*
X010125Y007203D03*
X010370Y007485D03*
X014230Y007212D03*
X014240Y007193D03*
X014315Y006383D03*
X014343Y005931D03*
X014334Y005922D03*
X014240Y005084D03*
X014230Y005065D03*
X014230Y005056D03*
D83*
X012177Y005065D03*
D84*
X010120Y005074D03*
X010073Y005771D03*
X010064Y005828D03*
X010054Y006412D03*
X010111Y007165D03*
X014263Y006939D03*
X014263Y006873D03*
X014263Y006703D03*
X014263Y006647D03*
X014301Y006412D03*
X014254Y005131D03*
D85*
X012178Y005074D03*
D86*
X014240Y005074D03*
X010134Y007221D03*
D87*
X012177Y005084D03*
D88*
X012177Y005093D03*
D89*
X010082Y005687D03*
X010082Y005696D03*
X010082Y005705D03*
X010082Y005724D03*
X010035Y005903D03*
X010035Y006374D03*
X010082Y006534D03*
X014291Y006459D03*
X014291Y006449D03*
X014291Y006440D03*
X014291Y005818D03*
X014291Y005809D03*
X014244Y005103D03*
X014244Y005093D03*
X014244Y007174D03*
X014244Y007184D03*
D90*
X012177Y005103D03*
D91*
X012177Y005112D03*
X011433Y007334D03*
D92*
X011452Y007438D03*
X010096Y007071D03*
X010096Y007061D03*
X010096Y007042D03*
X010096Y007033D03*
X010096Y007024D03*
X010096Y007014D03*
X010096Y007005D03*
X010096Y006986D03*
X010096Y006977D03*
X010096Y006967D03*
X010096Y006958D03*
X010096Y006948D03*
X010096Y006929D03*
X010096Y006920D03*
X010096Y006911D03*
X010096Y006901D03*
X010096Y006892D03*
X010096Y006882D03*
X010096Y006864D03*
X010096Y006854D03*
X010096Y006845D03*
X010096Y006835D03*
X010096Y006826D03*
X010096Y006807D03*
X010096Y006798D03*
X010096Y006788D03*
X010096Y006779D03*
X010096Y006769D03*
X010096Y006751D03*
X010096Y006741D03*
X010096Y006732D03*
X010096Y006722D03*
X010096Y006713D03*
X010096Y006694D03*
X010096Y006685D03*
X010087Y006628D03*
X010087Y006619D03*
X010087Y006609D03*
X010087Y006600D03*
X010087Y006591D03*
X010087Y006572D03*
X010087Y006562D03*
X010087Y006553D03*
X010087Y006543D03*
X010077Y006515D03*
X010077Y006506D03*
X010077Y006496D03*
X010077Y006487D03*
X010068Y006459D03*
X010068Y006449D03*
X009804Y006139D03*
X010068Y005809D03*
X010068Y005800D03*
X010077Y005762D03*
X010077Y005752D03*
X010077Y005743D03*
X010077Y005734D03*
X010087Y005677D03*
X010087Y005668D03*
X010087Y005649D03*
X010087Y005639D03*
X010096Y005376D03*
X010096Y005357D03*
X010096Y005348D03*
X010096Y005338D03*
X010096Y005329D03*
X010096Y005319D03*
X010096Y005300D03*
X010096Y005291D03*
X010096Y005282D03*
X010096Y005272D03*
X010096Y005263D03*
X010096Y005253D03*
X010096Y005235D03*
X010096Y005225D03*
X010096Y005216D03*
X010096Y005206D03*
X010096Y005197D03*
X010096Y005178D03*
X014249Y005112D03*
X014258Y005159D03*
X014258Y005169D03*
X014258Y005178D03*
X014258Y005197D03*
X014258Y005206D03*
X014258Y005216D03*
X014258Y005225D03*
X014258Y005235D03*
X014277Y005724D03*
X014277Y005734D03*
X014277Y005743D03*
X014277Y005752D03*
X014286Y005781D03*
X014286Y005790D03*
X014286Y005800D03*
X014296Y005837D03*
X014286Y006478D03*
X014277Y006534D03*
X014258Y006977D03*
X014258Y006986D03*
X014258Y007005D03*
X014258Y007014D03*
X014258Y007024D03*
X014258Y007033D03*
X014258Y007042D03*
X014258Y007061D03*
X014258Y007071D03*
X014258Y007080D03*
X014258Y007090D03*
X014258Y007099D03*
X014249Y007127D03*
X014249Y007137D03*
X014249Y007146D03*
X014249Y007155D03*
D93*
X014268Y006628D03*
X014268Y005649D03*
X014268Y005639D03*
X014268Y005630D03*
X014268Y005621D03*
X014268Y005611D03*
X014268Y005592D03*
X014268Y005583D03*
X014268Y005574D03*
X014268Y005564D03*
X014268Y005555D03*
X014268Y005545D03*
X014268Y005526D03*
X014268Y005517D03*
X014268Y005508D03*
X014268Y005498D03*
X014268Y005489D03*
X014268Y005470D03*
X014268Y005461D03*
X014268Y005451D03*
X014268Y005442D03*
X014268Y005432D03*
X014268Y005413D03*
X014268Y005404D03*
X014268Y005395D03*
X014268Y005385D03*
X014268Y005376D03*
X014268Y005357D03*
X014268Y005348D03*
X014268Y005338D03*
X014268Y005329D03*
X014268Y005319D03*
X014268Y005300D03*
X014268Y005291D03*
X014268Y005282D03*
X014268Y005272D03*
X014268Y005263D03*
X014268Y005253D03*
X010106Y005159D03*
X010106Y005150D03*
X010106Y005140D03*
X010106Y005122D03*
X010059Y005837D03*
X010059Y005847D03*
X010059Y006421D03*
X010059Y006430D03*
X010106Y007099D03*
X010106Y007118D03*
X010106Y007127D03*
X010106Y007137D03*
D94*
X012178Y005122D03*
D95*
X010106Y005131D03*
X010106Y007108D03*
X014268Y005536D03*
X014268Y005366D03*
X014268Y005310D03*
D96*
X012177Y005131D03*
D97*
X012177Y005140D03*
D98*
X012177Y005150D03*
X011433Y007306D03*
D99*
X012177Y005159D03*
D100*
X010101Y005169D03*
D101*
X012177Y005169D03*
D102*
X012177Y005178D03*
D103*
X010096Y005187D03*
X010096Y005244D03*
X010087Y005658D03*
X010087Y006581D03*
X010096Y006760D03*
X010096Y006816D03*
X010096Y006995D03*
X010096Y007052D03*
X014258Y007052D03*
X014258Y006995D03*
X014258Y005187D03*
D104*
X012178Y005187D03*
D105*
X012177Y005197D03*
D106*
X012177Y005206D03*
D107*
X012177Y005216D03*
X011424Y007240D03*
D108*
X012177Y005225D03*
D109*
X012178Y005235D03*
D110*
X012177Y005244D03*
D111*
X010045Y005884D03*
X014273Y005658D03*
X014310Y005884D03*
X014263Y005244D03*
X014273Y006581D03*
X014263Y006760D03*
X014263Y006816D03*
D112*
X012177Y005253D03*
D113*
X012177Y005263D03*
D114*
X012173Y005272D03*
X011429Y007174D03*
D115*
X012172Y005282D03*
D116*
X012173Y005291D03*
X012917Y007155D03*
D117*
X011429Y007137D03*
X011429Y007127D03*
X012173Y005300D03*
D118*
X010096Y005310D03*
X010096Y005366D03*
X010068Y006468D03*
X010096Y006703D03*
X010096Y006873D03*
X010096Y006939D03*
X014258Y007108D03*
X014277Y006525D03*
X014286Y006468D03*
X014296Y005828D03*
X014277Y005715D03*
D119*
X012173Y005310D03*
D120*
X012173Y005319D03*
X011429Y007099D03*
D121*
X012172Y005329D03*
D122*
X012177Y005338D03*
D123*
X012177Y005348D03*
D124*
X012178Y005357D03*
X011443Y007033D03*
D125*
X012177Y005366D03*
D126*
X012177Y005376D03*
D127*
X010092Y005385D03*
X010092Y005395D03*
X010092Y005404D03*
X010092Y005413D03*
X010092Y005432D03*
X010092Y005442D03*
X010092Y005451D03*
X010092Y005461D03*
X010092Y005470D03*
X010092Y005489D03*
X010092Y005498D03*
X010092Y005508D03*
X010092Y005517D03*
X010092Y005526D03*
X010092Y005545D03*
X010092Y005555D03*
X010092Y005564D03*
X010092Y005574D03*
X010092Y005583D03*
X010092Y005592D03*
X010092Y005611D03*
X010092Y005621D03*
X010092Y005630D03*
X010092Y006638D03*
X010092Y006656D03*
X010092Y006666D03*
X010092Y006675D03*
X014282Y006515D03*
X014282Y006506D03*
X014282Y006496D03*
X014282Y006487D03*
X014282Y005762D03*
D128*
X012177Y005385D03*
X011452Y006967D03*
X012902Y006986D03*
D129*
X012898Y006977D03*
X012898Y006967D03*
X011457Y006958D03*
X011457Y006948D03*
X012173Y005395D03*
D130*
X012172Y005404D03*
X011457Y006929D03*
D131*
X011467Y006911D03*
X011467Y006901D03*
X012173Y005413D03*
D132*
X010092Y005423D03*
X010092Y005479D03*
X010092Y005602D03*
D133*
X012173Y005423D03*
D134*
X014268Y005423D03*
X014268Y005479D03*
X014268Y005602D03*
D135*
X012173Y005432D03*
X012879Y006882D03*
D136*
X012874Y006864D03*
X012177Y005442D03*
D137*
X012177Y005451D03*
D138*
X012177Y005461D03*
D139*
X012173Y005470D03*
D140*
X012173Y005479D03*
D141*
X012173Y005489D03*
D142*
X012173Y005498D03*
D143*
X012172Y005508D03*
D144*
X012177Y005517D03*
D145*
X012177Y005526D03*
D146*
X010092Y005536D03*
X010092Y006647D03*
X014282Y005771D03*
D147*
X012172Y005536D03*
D148*
X012173Y005545D03*
D149*
X012173Y005555D03*
D150*
X012173Y005564D03*
D151*
X012173Y005574D03*
D152*
X012177Y005583D03*
D153*
X012172Y005592D03*
D154*
X012173Y005602D03*
D155*
X012173Y005611D03*
D156*
X012173Y005621D03*
D157*
X012177Y005630D03*
D158*
X012173Y005639D03*
D159*
X012172Y005649D03*
D160*
X012173Y005658D03*
D161*
X012172Y005668D03*
X012172Y005677D03*
D162*
X012173Y005687D03*
D163*
X012173Y005696D03*
D164*
X012173Y005705D03*
D165*
X010082Y005715D03*
X010082Y006525D03*
X014244Y007165D03*
D166*
X012173Y005715D03*
D167*
X012173Y005724D03*
D168*
X012172Y005734D03*
D169*
X012173Y005743D03*
D170*
X012168Y005752D03*
D171*
X012173Y005762D03*
D172*
X012173Y005771D03*
D173*
X012173Y005781D03*
D174*
X012168Y005790D03*
D175*
X012172Y005800D03*
D176*
X012173Y005809D03*
D177*
X012172Y005818D03*
D178*
X012172Y005828D03*
D179*
X012173Y005837D03*
D180*
X012173Y005847D03*
D181*
X012168Y005856D03*
D182*
X012173Y005865D03*
D183*
X012173Y005875D03*
D184*
X012168Y005884D03*
D185*
X012172Y005894D03*
D186*
X012173Y005903D03*
D187*
X014324Y005903D03*
X014324Y006365D03*
X014324Y006374D03*
X013985Y007485D03*
D188*
X012168Y005913D03*
D189*
X012173Y005922D03*
D190*
X012173Y005931D03*
D191*
X010012Y005941D03*
D192*
X012168Y005941D03*
D193*
X010002Y005950D03*
D194*
X012173Y005950D03*
D195*
X014357Y005950D03*
X014225Y007221D03*
D196*
X014221Y007231D03*
X014362Y006317D03*
X014362Y005960D03*
X009993Y005960D03*
X009993Y006308D03*
D197*
X012172Y005960D03*
D198*
X012168Y005969D03*
D199*
X009979Y005978D03*
X014000Y007476D03*
D200*
X012173Y005978D03*
D201*
X012168Y005988D03*
D202*
X014395Y005988D03*
X014527Y006110D03*
X014527Y006167D03*
X014395Y006289D03*
D203*
X012168Y005997D03*
D204*
X009936Y006007D03*
X014428Y006007D03*
D205*
X012173Y006007D03*
D206*
X012168Y006016D03*
D207*
X012173Y006026D03*
D208*
X012168Y006035D03*
D209*
X012168Y006044D03*
D210*
X012173Y006054D03*
D211*
X012168Y006063D03*
D212*
X012172Y006073D03*
D213*
X009856Y006082D03*
X010327Y007447D03*
X014423Y006270D03*
D214*
X012168Y006082D03*
D215*
X014508Y006082D03*
X014508Y006195D03*
D216*
X012173Y006091D03*
D217*
X012173Y006101D03*
D218*
X012168Y006110D03*
D219*
X009823Y006120D03*
D220*
X012173Y006120D03*
D221*
X014536Y006120D03*
D222*
X012168Y006129D03*
D223*
X012173Y006139D03*
D224*
X012168Y006148D03*
D225*
X012172Y006157D03*
D226*
X012168Y006167D03*
D227*
X009837Y006176D03*
D228*
X012173Y006176D03*
D229*
X014522Y006176D03*
D230*
X012168Y006186D03*
D231*
X012172Y006195D03*
D232*
X012168Y006204D03*
D233*
X012173Y006214D03*
D234*
X014042Y007429D03*
X014494Y006214D03*
D235*
X012168Y006223D03*
D236*
X009875Y006233D03*
D237*
X012173Y006233D03*
D238*
X014484Y006233D03*
D239*
X012173Y006242D03*
D240*
X012173Y006252D03*
X012173Y006261D03*
D241*
X012173Y006270D03*
X012173Y006280D03*
D242*
X009969Y006289D03*
X010157Y007250D03*
X010346Y007466D03*
D243*
X012172Y006289D03*
D244*
X009979Y006299D03*
D245*
X012172Y006299D03*
D246*
X014381Y006299D03*
D247*
X012177Y006308D03*
D248*
X012173Y006317D03*
D249*
X012177Y006327D03*
D250*
X012173Y006336D03*
D251*
X012178Y006346D03*
D252*
X010031Y006355D03*
X014334Y006355D03*
D253*
X012178Y006355D03*
D254*
X012173Y006365D03*
D255*
X012177Y006374D03*
X012177Y006383D03*
D256*
X012177Y006393D03*
X012177Y006402D03*
D257*
X012172Y006412D03*
D258*
X012177Y006421D03*
X012177Y006430D03*
X012177Y006440D03*
D259*
X012177Y006449D03*
X012177Y006459D03*
D260*
X012177Y006468D03*
D261*
X012177Y006478D03*
X012177Y006487D03*
X012177Y006496D03*
D262*
X012182Y006506D03*
D263*
X012177Y006515D03*
X012177Y006534D03*
D264*
X012177Y006525D03*
D265*
X012182Y006543D03*
D266*
X012178Y006553D03*
X012178Y006562D03*
X012178Y006572D03*
D267*
X012182Y006581D03*
D268*
X012182Y006591D03*
D269*
X012177Y006600D03*
X012177Y006609D03*
D270*
X012182Y006619D03*
X012182Y006628D03*
X012182Y006638D03*
X012182Y006656D03*
D271*
X012182Y006647D03*
D272*
X012177Y006666D03*
D273*
X012182Y006675D03*
X012182Y006685D03*
X012182Y006694D03*
X012182Y006713D03*
X012182Y006722D03*
X012182Y006732D03*
X012182Y006741D03*
X012182Y006751D03*
X012182Y006769D03*
X012182Y006779D03*
X012182Y006788D03*
X012182Y006798D03*
X012182Y006807D03*
X012182Y006826D03*
X012182Y006835D03*
D274*
X012182Y006703D03*
D275*
X012182Y006760D03*
X012182Y006816D03*
D276*
X011485Y006845D03*
D277*
X012870Y006845D03*
X012870Y006854D03*
D278*
X012884Y006892D03*
X012884Y006901D03*
X011481Y006864D03*
X011481Y006854D03*
D279*
X011476Y006873D03*
D280*
X012879Y006873D03*
D281*
X011476Y006882D03*
D282*
X011471Y006892D03*
D283*
X012883Y006911D03*
D284*
X012893Y006948D03*
X011462Y006920D03*
D285*
X012888Y006920D03*
X012888Y006929D03*
D286*
X011462Y006939D03*
D287*
X012893Y006939D03*
D288*
X012893Y006958D03*
D289*
X011447Y006977D03*
X011447Y006986D03*
D290*
X011448Y006995D03*
D291*
X012898Y006995D03*
D292*
X011448Y007005D03*
D293*
X012903Y007005D03*
D294*
X012902Y007024D03*
X011443Y007014D03*
D295*
X012907Y007014D03*
D296*
X012907Y007033D03*
X012907Y007042D03*
X011438Y007024D03*
D297*
X011438Y007042D03*
D298*
X011433Y007052D03*
D299*
X012907Y007052D03*
D300*
X012907Y007071D03*
X011438Y007061D03*
D301*
X012912Y007061D03*
D302*
X011433Y007071D03*
X011433Y007080D03*
D303*
X012912Y007080D03*
D304*
X012912Y007090D03*
X012912Y007099D03*
X011434Y007090D03*
D305*
X011433Y007108D03*
D306*
X012912Y007108D03*
D307*
X011429Y007118D03*
D308*
X012912Y007118D03*
D309*
X012912Y007127D03*
D310*
X012916Y007137D03*
D311*
X011429Y007146D03*
D312*
X012912Y007146D03*
D313*
X011424Y007155D03*
D314*
X011429Y007165D03*
D315*
X012916Y007165D03*
D316*
X012917Y007174D03*
X012917Y007184D03*
D317*
X011429Y007184D03*
D318*
X011424Y007193D03*
D319*
X012916Y007193D03*
D320*
X012917Y007203D03*
X011429Y007203D03*
D321*
X011429Y007212D03*
X012917Y007212D03*
D322*
X011429Y007221D03*
D323*
X012916Y007221D03*
D324*
X012917Y007240D03*
X011429Y007231D03*
D325*
X012916Y007231D03*
D326*
X011429Y007250D03*
D327*
X012916Y007250D03*
D328*
X012907Y007429D03*
X010176Y007259D03*
D329*
X011429Y007259D03*
D330*
X012917Y007259D03*
D331*
X011429Y007268D03*
D332*
X012916Y007268D03*
D333*
X011429Y007278D03*
D334*
X012916Y007278D03*
D335*
X010261Y007287D03*
D336*
X011434Y007287D03*
D337*
X012917Y007287D03*
D338*
X014098Y007287D03*
D339*
X011433Y007297D03*
D340*
X012916Y007297D03*
D341*
X012912Y007306D03*
D342*
X011429Y007316D03*
D343*
X012912Y007316D03*
D344*
X011434Y007325D03*
D345*
X012912Y007325D03*
D346*
X012912Y007334D03*
D347*
X010276Y007344D03*
D348*
X011438Y007344D03*
D349*
X012912Y007344D03*
D350*
X014084Y007344D03*
D351*
X011443Y007353D03*
D352*
X012912Y007353D03*
D353*
X011438Y007363D03*
D354*
X012912Y007363D03*
D355*
X012912Y007372D03*
X011443Y007372D03*
D356*
X011443Y007381D03*
D357*
X012907Y007381D03*
D358*
X011448Y007391D03*
D359*
X012907Y007391D03*
D360*
X010299Y007400D03*
D361*
X011448Y007400D03*
X012907Y007400D03*
D362*
X014061Y007400D03*
D363*
X010308Y007419D03*
D364*
X012907Y007438D03*
D365*
X014037Y007438D03*
D366*
X010337Y007457D03*
D367*
X014023Y007457D03*
D368*
X010393Y007494D03*
D369*
X007532Y009502D02*
X007534Y009527D01*
X007540Y009552D01*
X007549Y009576D01*
X007562Y009598D01*
X007579Y009618D01*
X007598Y009635D01*
X007619Y009649D01*
X007643Y009659D01*
X007667Y009666D01*
X007693Y009669D01*
X007718Y009668D01*
X007743Y009663D01*
X007767Y009654D01*
X007790Y009642D01*
X007810Y009627D01*
X007828Y009608D01*
X007843Y009587D01*
X007854Y009564D01*
X007862Y009540D01*
X007866Y009515D01*
X007866Y009489D01*
X007862Y009464D01*
X007854Y009440D01*
X007843Y009417D01*
X007828Y009396D01*
X007810Y009377D01*
X007790Y009362D01*
X007767Y009350D01*
X007743Y009341D01*
X007718Y009336D01*
X007693Y009335D01*
X007667Y009338D01*
X007643Y009345D01*
X007619Y009355D01*
X007598Y009369D01*
X007579Y009386D01*
X007562Y009406D01*
X007549Y009428D01*
X007540Y009452D01*
X007534Y009477D01*
X007532Y009502D01*
X007532Y010998D02*
X007534Y011023D01*
X007540Y011048D01*
X007549Y011072D01*
X007562Y011094D01*
X007579Y011114D01*
X007598Y011131D01*
X007619Y011145D01*
X007643Y011155D01*
X007667Y011162D01*
X007693Y011165D01*
X007718Y011164D01*
X007743Y011159D01*
X007767Y011150D01*
X007790Y011138D01*
X007810Y011123D01*
X007828Y011104D01*
X007843Y011083D01*
X007854Y011060D01*
X007862Y011036D01*
X007866Y011011D01*
X007866Y010985D01*
X007862Y010960D01*
X007854Y010936D01*
X007843Y010913D01*
X007828Y010892D01*
X007810Y010873D01*
X007790Y010858D01*
X007767Y010846D01*
X007743Y010837D01*
X007718Y010832D01*
X007693Y010831D01*
X007667Y010834D01*
X007643Y010841D01*
X007619Y010851D01*
X007598Y010865D01*
X007579Y010882D01*
X007562Y010902D01*
X007549Y010924D01*
X007540Y010948D01*
X007534Y010973D01*
X007532Y010998D01*
X018583Y013250D02*
X018585Y013299D01*
X018591Y013347D01*
X018601Y013395D01*
X018615Y013442D01*
X018632Y013488D01*
X018653Y013532D01*
X018678Y013574D01*
X018706Y013614D01*
X018738Y013652D01*
X018772Y013687D01*
X018809Y013719D01*
X018848Y013748D01*
X018890Y013774D01*
X018934Y013796D01*
X018979Y013814D01*
X019026Y013829D01*
X019073Y013840D01*
X019122Y013847D01*
X019171Y013850D01*
X019220Y013849D01*
X019268Y013844D01*
X019317Y013835D01*
X019364Y013822D01*
X019410Y013805D01*
X019454Y013785D01*
X019497Y013761D01*
X019538Y013734D01*
X019576Y013703D01*
X019612Y013670D01*
X019644Y013634D01*
X019674Y013595D01*
X019701Y013554D01*
X019724Y013510D01*
X019743Y013465D01*
X019759Y013419D01*
X019771Y013372D01*
X019779Y013323D01*
X019783Y013274D01*
X019783Y013226D01*
X019779Y013177D01*
X019771Y013128D01*
X019759Y013081D01*
X019743Y013035D01*
X019724Y012990D01*
X019701Y012946D01*
X019674Y012905D01*
X019644Y012866D01*
X019612Y012830D01*
X019576Y012797D01*
X019538Y012766D01*
X019497Y012739D01*
X019454Y012715D01*
X019410Y012695D01*
X019364Y012678D01*
X019317Y012665D01*
X019268Y012656D01*
X019220Y012651D01*
X019171Y012650D01*
X019122Y012653D01*
X019073Y012660D01*
X019026Y012671D01*
X018979Y012686D01*
X018934Y012704D01*
X018890Y012726D01*
X018848Y012752D01*
X018809Y012781D01*
X018772Y012813D01*
X018738Y012848D01*
X018706Y012886D01*
X018678Y012926D01*
X018653Y012968D01*
X018632Y013012D01*
X018615Y013058D01*
X018601Y013105D01*
X018591Y013153D01*
X018585Y013201D01*
X018583Y013250D01*
M02*
