G75*
%MOIN*%
%OFA0B0*%
%FSLAX24Y24*%
%IPPOS*%
%LPD*%
%AMOC8*
5,1,8,0,0,1.08239X$1,22.5*
%
%ADD10R,0.0513X0.0474*%
%ADD11R,0.0710X0.0789*%
%ADD12R,0.0474X0.0513*%
%ADD13R,0.0580X0.0659*%
%ADD14R,0.0407X0.0328*%
%ADD15R,0.0631X0.0237*%
%ADD16C,0.0415*%
%ADD17R,0.0669X0.0787*%
%ADD18R,0.0669X0.1063*%
%ADD19R,0.0434X0.0395*%
%ADD20R,0.0671X0.0277*%
%ADD21R,0.0277X0.0671*%
%ADD22R,0.0671X0.0237*%
%ADD23R,0.0552X0.0297*%
%ADD24R,0.0297X0.0552*%
%ADD25R,0.0513X0.0828*%
%ADD26C,0.0820*%
%ADD27C,0.1280*%
%ADD28C,0.0480*%
D10*
X010249Y008650D03*
X009668Y008900D03*
X008999Y008900D03*
X008999Y009950D03*
X009668Y009950D03*
X009668Y010750D03*
X008999Y010750D03*
X010499Y011750D03*
X011168Y011750D03*
X011168Y012750D03*
X010499Y012750D03*
X013499Y013600D03*
X014168Y013600D03*
X014168Y014450D03*
X013499Y014450D03*
X017999Y011750D03*
X018668Y011750D03*
X018349Y010750D03*
X019018Y010750D03*
X017668Y007800D03*
X016999Y007800D03*
X020649Y006350D03*
X021318Y006350D03*
X010918Y008650D03*
D11*
X007935Y013150D03*
X006832Y013150D03*
X019882Y015400D03*
X020985Y015400D03*
D12*
X017533Y013485D03*
X016333Y013715D03*
X016333Y014385D03*
X017533Y012815D03*
X022833Y011585D03*
X022833Y010915D03*
X022833Y010085D03*
X022833Y009415D03*
X022833Y008585D03*
X022833Y007915D03*
X019083Y008565D03*
X019083Y009235D03*
X014083Y005835D03*
X014083Y005165D03*
X011283Y005115D03*
X011283Y005785D03*
X011283Y006415D03*
X011283Y007085D03*
X012083Y012465D03*
X012083Y013135D03*
D13*
X009930Y014250D03*
X008237Y014250D03*
D14*
X021683Y011703D03*
X021683Y010797D03*
X021683Y010203D03*
X021683Y009297D03*
X021683Y008703D03*
X021683Y007797D03*
D15*
X007896Y009738D03*
X007896Y009994D03*
X007896Y010250D03*
X007896Y010506D03*
X007896Y010762D03*
D16*
X007699Y010998D03*
X007699Y009502D03*
D17*
X006833Y008800D03*
X006833Y011700D03*
D18*
X006833Y010250D03*
D19*
X019940Y010124D03*
X020766Y009750D03*
X019940Y009376D03*
X019940Y008624D03*
X020766Y008250D03*
X019940Y007876D03*
X019940Y010876D03*
X020766Y011250D03*
X019940Y011624D03*
D20*
X016617Y011510D03*
X016617Y011825D03*
X016617Y011195D03*
X016617Y010880D03*
X016617Y010565D03*
X016617Y010250D03*
X016617Y009935D03*
X016617Y009620D03*
X016617Y009305D03*
X016617Y008990D03*
X016617Y008675D03*
X012050Y008675D03*
X012050Y008990D03*
X012050Y009305D03*
X012050Y009620D03*
X012050Y009935D03*
X012050Y010250D03*
X012050Y010565D03*
X012050Y010880D03*
X012050Y011195D03*
X012050Y011510D03*
X012050Y011825D03*
D21*
X012759Y012533D03*
X013073Y012533D03*
X013388Y012533D03*
X013703Y012533D03*
X014018Y012533D03*
X014333Y012533D03*
X014648Y012533D03*
X014963Y012533D03*
X015278Y012533D03*
X015593Y012533D03*
X015908Y012533D03*
X015908Y007967D03*
X015593Y007967D03*
X015278Y007967D03*
X014963Y007967D03*
X014648Y007967D03*
X014333Y007967D03*
X014018Y007967D03*
X013703Y007967D03*
X013388Y007967D03*
X013073Y007967D03*
X012759Y007967D03*
D22*
X014968Y006725D03*
X014968Y006475D03*
X014968Y006225D03*
X014968Y005975D03*
X014968Y005725D03*
X014968Y005475D03*
X014968Y005225D03*
X014968Y004975D03*
X016998Y004975D03*
X016998Y005225D03*
X016998Y005475D03*
X016998Y005725D03*
X016998Y005975D03*
X016998Y006225D03*
X016998Y006475D03*
X016998Y006725D03*
D23*
X012845Y013876D03*
X011821Y013876D03*
X011821Y014250D03*
X011821Y014624D03*
X012845Y014624D03*
D24*
X009707Y013262D03*
X009333Y013262D03*
X008959Y013262D03*
X008959Y012238D03*
X009707Y012238D03*
D25*
X012281Y006728D03*
X013186Y006728D03*
X013186Y005272D03*
X012281Y005272D03*
D26*
X006833Y005250D03*
X006833Y006250D03*
X006833Y007250D03*
X008833Y007250D03*
X008833Y006250D03*
X008833Y005250D03*
X020333Y005250D03*
X021333Y005250D03*
X022333Y005250D03*
X023333Y005250D03*
X024333Y005250D03*
X024333Y006250D03*
X024333Y007250D03*
X024333Y008250D03*
X024333Y009250D03*
X024333Y010250D03*
X024333Y011250D03*
X018333Y015500D03*
X017333Y015500D03*
X016333Y015500D03*
X015333Y015500D03*
X014333Y015500D03*
X013333Y015500D03*
X012333Y015500D03*
X011333Y015500D03*
X006833Y015500D03*
X006833Y014500D03*
D27*
X019183Y013250D03*
D28*
X020683Y013400D03*
X017783Y010500D03*
X017333Y010250D03*
X018133Y009950D03*
X019083Y010000D03*
X018083Y008750D03*
X017533Y008800D03*
X015333Y009250D03*
X014333Y009250D03*
X013333Y009250D03*
X013883Y008650D03*
X015283Y007350D03*
X014333Y006800D03*
X015633Y006100D03*
X016333Y005700D03*
X015783Y005450D03*
X017633Y005750D03*
X018783Y004950D03*
X019433Y006300D03*
X018883Y006500D03*
X017633Y006600D03*
X018583Y007150D03*
X019933Y007300D03*
X015333Y010250D03*
X014333Y010250D03*
X013333Y010250D03*
X011233Y009900D03*
X011433Y008900D03*
X010733Y007750D03*
X011583Y007600D03*
X007983Y006900D03*
X009483Y011500D03*
X007983Y012250D03*
X010983Y014200D03*
X012833Y013300D03*
X014783Y013600D03*
X014833Y014450D03*
X015033Y011850D03*
X008733Y015100D03*
X008033Y015050D03*
M02*
