G75*
%MOIN*%
%OFA0B0*%
%FSLAX24Y24*%
%IPPOS*%
%LPD*%
%AMOC8*
5,1,8,0,0,1.08239X$1,22.5*
%
%ADD10R,0.1811X0.0394*%
%ADD11R,0.1339X0.0630*%
%ADD12C,0.0740*%
%ADD13C,0.0400*%
%ADD14C,0.0100*%
%ADD15C,0.0240*%
D10*
X021977Y013756D03*
X021977Y014544D03*
D11*
X024024Y015489D03*
X024024Y012811D03*
D12*
X024333Y011250D03*
X024333Y010250D03*
X024333Y009250D03*
X024333Y008250D03*
X024333Y007250D03*
X024333Y006250D03*
X024333Y005250D03*
X023333Y005250D03*
X022333Y005250D03*
X021333Y005250D03*
X020333Y005250D03*
X008833Y005250D03*
X008833Y006250D03*
X008833Y007250D03*
X006833Y007250D03*
X006833Y006250D03*
X006833Y005250D03*
X006833Y014500D03*
X006833Y015500D03*
X011333Y015500D03*
X012333Y015500D03*
X013333Y015500D03*
X014333Y015500D03*
X015333Y015500D03*
X016333Y015500D03*
X017333Y015500D03*
X018333Y015500D03*
D13*
X014833Y014450D03*
X014783Y013600D03*
X012833Y013300D03*
X010983Y014200D03*
X008733Y015100D03*
X008033Y015050D03*
X007983Y012250D03*
X009483Y011500D03*
X011233Y009900D03*
X011433Y008900D03*
X013333Y009250D03*
X014333Y009250D03*
X015333Y009250D03*
X013883Y008650D03*
X015283Y007350D03*
X014333Y006800D03*
X015633Y006100D03*
X016333Y005700D03*
X015783Y005450D03*
X017633Y005750D03*
X018783Y004950D03*
X019433Y006300D03*
X018883Y006500D03*
X017633Y006600D03*
X018583Y007150D03*
X019933Y007300D03*
X018083Y008750D03*
X017533Y008800D03*
X018133Y009950D03*
X017333Y010250D03*
X017783Y010500D03*
X019083Y010000D03*
X015333Y010250D03*
X014333Y010250D03*
X013333Y010250D03*
X015033Y011850D03*
X020683Y013400D03*
X010733Y007750D03*
X011583Y007600D03*
X007983Y006900D03*
D14*
X006543Y004786D02*
X006543Y004710D01*
X024623Y004710D01*
X024623Y004786D01*
X024441Y004710D01*
X024226Y004710D01*
X024027Y004792D01*
X023876Y004944D01*
X023822Y005072D01*
X023815Y005050D01*
X023778Y004977D01*
X023730Y004911D01*
X023672Y004853D01*
X023606Y004805D01*
X023533Y004768D01*
X023455Y004743D01*
X023383Y004731D01*
X023383Y005200D01*
X023283Y005200D01*
X023283Y004731D01*
X023212Y004743D01*
X023134Y004768D01*
X023061Y004805D01*
X022995Y004853D01*
X022937Y004911D01*
X022889Y004977D01*
X022851Y005050D01*
X022844Y005072D01*
X022791Y004944D01*
X022639Y004792D01*
X022441Y004710D01*
X022226Y004710D01*
X022027Y004792D01*
X021876Y004944D01*
X021833Y005046D01*
X021791Y004944D01*
X021639Y004792D01*
X021441Y004710D01*
X021226Y004710D01*
X021027Y004792D01*
X020876Y004944D01*
X020833Y005046D01*
X020791Y004944D01*
X020639Y004792D01*
X020441Y004710D01*
X020226Y004710D01*
X020027Y004792D01*
X019876Y004944D01*
X019840Y005030D01*
X019242Y005030D01*
X019113Y005159D01*
X017914Y006358D01*
X017843Y006286D01*
X017707Y006230D01*
X017560Y006230D01*
X017424Y006286D01*
X017320Y006390D01*
X017263Y006526D01*
X017263Y006674D01*
X017287Y006730D01*
X016692Y006730D01*
X016563Y006859D01*
X016553Y006869D01*
X016553Y006003D01*
X016647Y005910D01*
X016703Y005774D01*
X016703Y005626D01*
X016647Y005490D01*
X016543Y005386D01*
X016407Y005330D01*
X016260Y005330D01*
X016153Y005374D01*
X016109Y005270D01*
X017209Y005270D01*
X017352Y005508D01*
X017320Y005540D01*
X017263Y005676D01*
X017263Y005824D01*
X017320Y005960D01*
X017424Y006064D01*
X017560Y006120D01*
X017707Y006120D01*
X017843Y006064D01*
X017947Y005960D01*
X018003Y005824D01*
X018003Y005676D01*
X017947Y005540D01*
X017843Y005436D01*
X017822Y005428D01*
X017808Y005414D01*
X017553Y004989D01*
X017553Y004959D01*
X017508Y004914D01*
X017475Y004859D01*
X017446Y004851D01*
X017424Y004830D01*
X017360Y004830D01*
X017298Y004814D01*
X017272Y004830D01*
X015404Y004830D01*
X015387Y004818D01*
X015315Y004830D01*
X015242Y004830D01*
X015228Y004845D01*
X015207Y004848D01*
X015165Y004907D01*
X015113Y004959D01*
X015113Y004979D01*
X014665Y005607D01*
X014613Y005659D01*
X014613Y005679D01*
X014601Y005696D01*
X014613Y005768D01*
X014613Y006557D01*
X014543Y006486D01*
X014407Y006430D01*
X014260Y006430D01*
X014124Y006486D01*
X014030Y006580D01*
X010374Y006580D01*
X009308Y005514D01*
X009373Y005357D01*
X009373Y005143D01*
X009291Y004944D01*
X009139Y004792D01*
X008941Y004710D01*
X008726Y004710D01*
X008527Y004792D01*
X008376Y004944D01*
X008293Y005143D01*
X008293Y005357D01*
X008376Y005556D01*
X008527Y005708D01*
X008629Y005750D01*
X008527Y005792D01*
X008376Y005944D01*
X008293Y006143D01*
X008293Y006357D01*
X008376Y006556D01*
X008527Y006708D01*
X008629Y006750D01*
X008527Y006792D01*
X008376Y006944D01*
X008293Y007143D01*
X008293Y007357D01*
X008376Y007556D01*
X008527Y007708D01*
X008726Y007790D01*
X008941Y007790D01*
X009139Y007708D01*
X009291Y007556D01*
X009373Y007357D01*
X009373Y007143D01*
X009291Y006944D01*
X009139Y006792D01*
X009037Y006750D01*
X009139Y006708D01*
X009291Y006556D01*
X009373Y006357D01*
X009373Y006201D01*
X010192Y007020D01*
X014030Y007020D01*
X014124Y007114D01*
X014260Y007170D01*
X014407Y007170D01*
X014543Y007114D01*
X014613Y007043D01*
X014613Y008198D01*
X014272Y008880D01*
X014260Y008880D01*
X014124Y008936D01*
X014020Y009040D01*
X013963Y009176D01*
X013963Y009324D01*
X014020Y009460D01*
X014124Y009564D01*
X014260Y009620D01*
X014407Y009620D01*
X014543Y009564D01*
X014647Y009460D01*
X014703Y009324D01*
X014703Y009176D01*
X014664Y009081D01*
X015014Y008380D01*
X015053Y008341D01*
X015053Y008302D01*
X015071Y008267D01*
X015053Y008214D01*
X015053Y005821D01*
X015447Y005270D01*
X015457Y005270D01*
X015413Y005376D01*
X015413Y005524D01*
X015470Y005660D01*
X015546Y005736D01*
X015424Y005786D01*
X015320Y005890D01*
X015263Y006026D01*
X015263Y006174D01*
X015320Y006310D01*
X015413Y006403D01*
X015413Y008356D01*
X015185Y008911D01*
X015124Y008936D01*
X015020Y009040D01*
X014963Y009176D01*
X014963Y009324D01*
X015020Y009460D01*
X015124Y009564D01*
X015260Y009620D01*
X015392Y009620D01*
X015713Y009941D01*
X015713Y010359D01*
X015671Y010401D01*
X015703Y010324D01*
X015703Y010176D01*
X015647Y010040D01*
X015543Y009936D01*
X015407Y009880D01*
X015260Y009880D01*
X015124Y009936D01*
X015020Y010040D01*
X014963Y010176D01*
X014963Y010324D01*
X015020Y010460D01*
X015124Y010564D01*
X015260Y010620D01*
X015407Y010620D01*
X015484Y010588D01*
X015392Y010680D01*
X013174Y010680D01*
X011676Y009181D01*
X011747Y009110D01*
X011803Y008974D01*
X011803Y008826D01*
X011747Y008690D01*
X011643Y008586D01*
X011507Y008530D01*
X011360Y008530D01*
X011224Y008586D01*
X011120Y008690D01*
X011063Y008826D01*
X011063Y008869D01*
X010903Y008709D01*
X010903Y008080D01*
X010943Y008064D01*
X011047Y007960D01*
X011103Y007824D01*
X011103Y007676D01*
X011047Y007540D01*
X010943Y007436D01*
X010807Y007380D01*
X010660Y007380D01*
X010524Y007436D01*
X010420Y007540D01*
X010363Y007676D01*
X010363Y007824D01*
X010420Y007960D01*
X010463Y008003D01*
X010463Y008891D01*
X010592Y009020D01*
X011119Y009547D01*
X011024Y009586D01*
X010920Y009690D01*
X010863Y009826D01*
X010863Y009899D01*
X009555Y011130D01*
X009410Y011130D01*
X009274Y011186D01*
X009170Y011290D01*
X009113Y011426D01*
X009113Y011574D01*
X009170Y011710D01*
X009274Y011814D01*
X009410Y011870D01*
X009542Y011870D01*
X010763Y013091D01*
X010763Y013897D01*
X010670Y013990D01*
X010613Y014126D01*
X010613Y014274D01*
X010670Y014410D01*
X010774Y014514D01*
X010798Y014524D01*
X010763Y014559D01*
X010442Y014880D01*
X009037Y014880D01*
X008943Y014786D01*
X008807Y014730D01*
X008660Y014730D01*
X008524Y014786D01*
X008420Y014890D01*
X008363Y015026D01*
X008363Y015174D01*
X008420Y015310D01*
X008524Y015414D01*
X008660Y015470D01*
X008807Y015470D01*
X008943Y015414D01*
X009037Y015320D01*
X010624Y015320D01*
X010753Y015191D01*
X011074Y014870D01*
X013302Y014870D01*
X013203Y014970D01*
X013027Y015042D01*
X012876Y015194D01*
X012833Y015296D01*
X012791Y015194D01*
X012639Y015042D01*
X012441Y014960D01*
X012226Y014960D01*
X012027Y015042D01*
X011876Y015194D01*
X011833Y015296D01*
X011791Y015194D01*
X011639Y015042D01*
X011441Y014960D01*
X011226Y014960D01*
X011027Y015042D01*
X010876Y015194D01*
X010793Y015393D01*
X010793Y015607D01*
X010869Y015790D01*
X007298Y015790D01*
X007373Y015607D01*
X007373Y015393D01*
X007291Y015194D01*
X007139Y015042D01*
X007037Y015000D01*
X007139Y014958D01*
X007291Y014806D01*
X007373Y014607D01*
X007373Y014393D01*
X007291Y014194D01*
X007139Y014042D01*
X006941Y013960D01*
X006726Y013960D01*
X006543Y014036D01*
X006543Y007714D01*
X006726Y007790D01*
X006941Y007790D01*
X007139Y007708D01*
X007291Y007556D01*
X007373Y007357D01*
X007373Y007143D01*
X007291Y006944D01*
X007139Y006792D01*
X007011Y006739D01*
X007033Y006732D01*
X007106Y006695D01*
X007172Y006647D01*
X007230Y006589D01*
X007278Y006523D01*
X007315Y006450D01*
X007341Y006372D01*
X007352Y006300D01*
X006883Y006300D01*
X006883Y006200D01*
X007352Y006200D01*
X007341Y006128D01*
X007315Y006050D01*
X007278Y005977D01*
X007230Y005911D01*
X007172Y005853D01*
X007106Y005805D01*
X007033Y005768D01*
X007011Y005761D01*
X007139Y005708D01*
X007291Y005556D01*
X007373Y005357D01*
X007373Y005143D01*
X007291Y004944D01*
X007139Y004792D01*
X006941Y004710D01*
X006726Y004710D01*
X006543Y004786D01*
X007143Y004796D02*
X008524Y004796D01*
X008426Y004894D02*
X007241Y004894D01*
X007311Y004993D02*
X008355Y004993D01*
X008315Y005091D02*
X007352Y005091D01*
X007373Y005190D02*
X008293Y005190D01*
X008293Y005288D02*
X007373Y005288D01*
X007361Y005387D02*
X008305Y005387D01*
X008346Y005485D02*
X007320Y005485D01*
X007264Y005584D02*
X008403Y005584D01*
X008502Y005682D02*
X007165Y005682D01*
X007057Y005781D02*
X008556Y005781D01*
X008441Y005879D02*
X007198Y005879D01*
X007278Y005978D02*
X008362Y005978D01*
X008321Y006076D02*
X007324Y006076D01*
X007348Y006175D02*
X008293Y006175D01*
X008293Y006273D02*
X006883Y006273D01*
X007341Y006372D02*
X008299Y006372D01*
X008340Y006470D02*
X007305Y006470D01*
X007245Y006569D02*
X008388Y006569D01*
X008487Y006667D02*
X007144Y006667D01*
X007075Y006766D02*
X008592Y006766D01*
X008456Y006864D02*
X007211Y006864D01*
X007299Y006963D02*
X008368Y006963D01*
X008327Y007061D02*
X007340Y007061D01*
X007373Y007160D02*
X008293Y007160D01*
X008293Y007258D02*
X007373Y007258D01*
X007373Y007357D02*
X008293Y007357D01*
X008334Y007455D02*
X007333Y007455D01*
X007292Y007554D02*
X008375Y007554D01*
X008472Y007652D02*
X007195Y007652D01*
X007036Y007751D02*
X008631Y007751D01*
X009036Y007751D02*
X010363Y007751D01*
X010374Y007849D02*
X006543Y007849D01*
X006543Y007751D02*
X006631Y007751D01*
X006543Y007948D02*
X010415Y007948D01*
X010463Y008046D02*
X006543Y008046D01*
X006543Y008145D02*
X010463Y008145D01*
X010463Y008243D02*
X006543Y008243D01*
X006543Y008342D02*
X010463Y008342D01*
X010463Y008440D02*
X006543Y008440D01*
X006543Y008539D02*
X010463Y008539D01*
X010463Y008637D02*
X006543Y008637D01*
X006543Y008736D02*
X010463Y008736D01*
X010463Y008834D02*
X006543Y008834D01*
X006543Y008933D02*
X010505Y008933D01*
X010603Y009031D02*
X006543Y009031D01*
X006543Y009130D02*
X010702Y009130D01*
X010800Y009228D02*
X007903Y009228D01*
X007891Y009216D02*
X007985Y009311D01*
X008037Y009435D01*
X008037Y009569D01*
X007985Y009693D01*
X007891Y009788D01*
X007767Y009839D01*
X007632Y009839D01*
X007508Y009788D01*
X007414Y009693D01*
X007362Y009569D01*
X007362Y009435D01*
X007414Y009311D01*
X007508Y009216D01*
X007632Y009165D01*
X007767Y009165D01*
X007891Y009216D01*
X007992Y009327D02*
X010899Y009327D01*
X010997Y009425D02*
X008033Y009425D01*
X008037Y009524D02*
X011096Y009524D01*
X010988Y009622D02*
X008015Y009622D01*
X007958Y009721D02*
X010907Y009721D01*
X010866Y009819D02*
X007816Y009819D01*
X007583Y009819D02*
X006543Y009819D01*
X006543Y009721D02*
X007441Y009721D01*
X007384Y009622D02*
X006543Y009622D01*
X006543Y009524D02*
X007362Y009524D01*
X007366Y009425D02*
X006543Y009425D01*
X006543Y009327D02*
X007407Y009327D01*
X007496Y009228D02*
X006543Y009228D01*
X006543Y009918D02*
X010844Y009918D01*
X010739Y010016D02*
X006543Y010016D01*
X006543Y010115D02*
X010634Y010115D01*
X010530Y010213D02*
X006543Y010213D01*
X006543Y010312D02*
X010425Y010312D01*
X010320Y010410D02*
X006543Y010410D01*
X006543Y010509D02*
X010216Y010509D01*
X010111Y010607D02*
X006543Y010607D01*
X006543Y010706D02*
X007524Y010706D01*
X007508Y010712D02*
X007632Y010661D01*
X007767Y010661D01*
X007891Y010712D01*
X007985Y010807D01*
X008037Y010931D01*
X008037Y011065D01*
X007985Y011189D01*
X007891Y011284D01*
X007767Y011335D01*
X007632Y011335D01*
X007508Y011284D01*
X007414Y011189D01*
X007362Y011065D01*
X007362Y010931D01*
X007414Y010807D01*
X007508Y010712D01*
X007416Y010804D02*
X006543Y010804D01*
X006543Y010903D02*
X007374Y010903D01*
X007362Y011001D02*
X006543Y011001D01*
X006543Y011100D02*
X007376Y011100D01*
X007422Y011198D02*
X006543Y011198D01*
X006543Y011297D02*
X007539Y011297D01*
X007860Y011297D02*
X009167Y011297D01*
X009126Y011395D02*
X006543Y011395D01*
X006543Y011494D02*
X009113Y011494D01*
X009121Y011592D02*
X006543Y011592D01*
X006543Y011691D02*
X009162Y011691D01*
X009249Y011789D02*
X006543Y011789D01*
X006543Y011888D02*
X009560Y011888D01*
X009658Y011986D02*
X006543Y011986D01*
X006543Y012085D02*
X009757Y012085D01*
X009855Y012183D02*
X006543Y012183D01*
X006543Y012282D02*
X009954Y012282D01*
X010052Y012380D02*
X006543Y012380D01*
X006543Y012479D02*
X010151Y012479D01*
X010249Y012577D02*
X006543Y012577D01*
X006543Y012676D02*
X010348Y012676D01*
X010446Y012774D02*
X006543Y012774D01*
X006543Y012873D02*
X010545Y012873D01*
X010643Y012971D02*
X006543Y012971D01*
X006543Y013070D02*
X010742Y013070D01*
X010763Y013168D02*
X006543Y013168D01*
X006543Y013267D02*
X010763Y013267D01*
X010763Y013365D02*
X006543Y013365D01*
X006543Y013464D02*
X010763Y013464D01*
X010763Y013562D02*
X006543Y013562D01*
X006543Y013661D02*
X010763Y013661D01*
X010763Y013759D02*
X006543Y013759D01*
X006543Y013858D02*
X010763Y013858D01*
X010704Y013956D02*
X006543Y013956D01*
X007152Y014055D02*
X010643Y014055D01*
X010613Y014153D02*
X007250Y014153D01*
X007315Y014252D02*
X010613Y014252D01*
X010645Y014350D02*
X007356Y014350D01*
X007373Y014449D02*
X010709Y014449D01*
X010775Y014547D02*
X007373Y014547D01*
X007358Y014646D02*
X010677Y014646D01*
X010578Y014744D02*
X008841Y014744D01*
X008999Y014843D02*
X010480Y014843D01*
X010533Y015100D02*
X008733Y015100D01*
X008389Y015237D02*
X007309Y015237D01*
X007349Y015335D02*
X008445Y015335D01*
X008572Y015434D02*
X007373Y015434D01*
X007373Y015532D02*
X010793Y015532D01*
X010793Y015434D02*
X008895Y015434D01*
X009022Y015335D02*
X010817Y015335D01*
X010858Y015237D02*
X010708Y015237D01*
X010806Y015138D02*
X010932Y015138D01*
X010905Y015040D02*
X011034Y015040D01*
X011003Y014941D02*
X013231Y014941D01*
X013034Y015040D02*
X012633Y015040D01*
X012735Y015138D02*
X012932Y015138D01*
X012858Y015237D02*
X012809Y015237D01*
X013333Y015150D02*
X013333Y015500D01*
X013844Y015322D02*
X013851Y015300D01*
X013889Y015227D01*
X013937Y015161D01*
X013995Y015103D01*
X014061Y015055D01*
X014134Y015018D01*
X014212Y014993D01*
X014283Y014981D01*
X014283Y015450D01*
X014383Y015450D01*
X014383Y014981D01*
X014455Y014993D01*
X014533Y015018D01*
X014606Y015055D01*
X014672Y015103D01*
X014730Y015161D01*
X014778Y015227D01*
X014815Y015300D01*
X014822Y015322D01*
X014876Y015194D01*
X015027Y015042D01*
X015226Y014960D01*
X015441Y014960D01*
X015639Y015042D01*
X015791Y015194D01*
X015844Y015322D01*
X015851Y015300D01*
X015889Y015227D01*
X015937Y015161D01*
X015995Y015103D01*
X016061Y015055D01*
X016134Y015018D01*
X016212Y014993D01*
X016283Y014981D01*
X016283Y015450D01*
X016383Y015450D01*
X016383Y014981D01*
X016455Y014993D01*
X016533Y015018D01*
X016606Y015055D01*
X016672Y015103D01*
X016730Y015161D01*
X016778Y015227D01*
X016815Y015300D01*
X016822Y015322D01*
X016876Y015194D01*
X017027Y015042D01*
X017226Y014960D01*
X017441Y014960D01*
X017639Y015042D01*
X017791Y015194D01*
X017844Y015322D01*
X017851Y015300D01*
X017889Y015227D01*
X017937Y015161D01*
X017995Y015103D01*
X018061Y015055D01*
X018134Y015018D01*
X018212Y014993D01*
X018283Y014981D01*
X018283Y015450D01*
X018383Y015450D01*
X018383Y014981D01*
X018455Y014993D01*
X018533Y015018D01*
X018606Y015055D01*
X018672Y015103D01*
X018730Y015161D01*
X018778Y015227D01*
X018815Y015300D01*
X018841Y015378D01*
X018852Y015450D01*
X018383Y015450D01*
X018383Y015550D01*
X018852Y015550D01*
X018841Y015622D01*
X018815Y015700D01*
X018778Y015773D01*
X018765Y015790D01*
X023185Y015790D01*
X023185Y015103D01*
X023284Y015004D01*
X024623Y015004D01*
X024623Y013296D01*
X023284Y013296D01*
X023185Y013197D01*
X023185Y012426D01*
X023284Y012326D01*
X024623Y012326D01*
X024623Y011714D01*
X024441Y011790D01*
X024226Y011790D01*
X024027Y011708D01*
X023876Y011556D01*
X023869Y011540D01*
X021953Y011540D01*
X020973Y012520D01*
X020973Y013167D01*
X020997Y013190D01*
X021053Y013326D01*
X021053Y013409D01*
X021928Y013409D01*
X021928Y013708D01*
X022025Y013708D01*
X022025Y013805D01*
X021928Y013805D01*
X021928Y014103D01*
X021097Y014103D01*
X021170Y014177D01*
X022953Y014177D01*
X023052Y014276D01*
X023052Y014811D01*
X022953Y014911D01*
X021001Y014911D01*
X020901Y014811D01*
X020901Y014728D01*
X020469Y014296D01*
X020434Y014261D01*
X019903Y014791D01*
X019774Y014920D01*
X018442Y014920D01*
X017742Y014220D01*
X015127Y014220D01*
X015147Y014240D01*
X015203Y014376D01*
X015203Y014524D01*
X015147Y014660D01*
X015043Y014764D01*
X014907Y014820D01*
X014774Y014820D01*
X014674Y014920D01*
X013874Y014920D01*
X013696Y015099D01*
X013791Y015194D01*
X013844Y015322D01*
X013809Y015237D02*
X013884Y015237D01*
X013960Y015138D02*
X013735Y015138D01*
X013755Y015040D02*
X014092Y015040D01*
X014283Y015040D02*
X014383Y015040D01*
X014383Y015138D02*
X014283Y015138D01*
X014283Y015237D02*
X014383Y015237D01*
X014383Y015335D02*
X014283Y015335D01*
X014283Y015434D02*
X014383Y015434D01*
X014707Y015138D02*
X014932Y015138D01*
X014858Y015237D02*
X014783Y015237D01*
X014575Y015040D02*
X015034Y015040D01*
X014752Y014843D02*
X018365Y014843D01*
X018266Y014744D02*
X015063Y014744D01*
X015153Y014646D02*
X018168Y014646D01*
X018069Y014547D02*
X015194Y014547D01*
X015203Y014449D02*
X017971Y014449D01*
X017872Y014350D02*
X015192Y014350D01*
X015152Y014252D02*
X017774Y014252D01*
X017833Y014000D02*
X013983Y014000D01*
X013333Y014650D01*
X010983Y014650D01*
X010533Y015100D01*
X011633Y015040D02*
X012034Y015040D01*
X011932Y015138D02*
X011735Y015138D01*
X011809Y015237D02*
X011858Y015237D01*
X010844Y015729D02*
X007323Y015729D01*
X007364Y015631D02*
X010803Y015631D01*
X008626Y014744D02*
X007317Y014744D01*
X007254Y014843D02*
X008468Y014843D01*
X008399Y014941D02*
X007156Y014941D01*
X007133Y015040D02*
X008363Y015040D01*
X008363Y015138D02*
X007235Y015138D01*
X010983Y014200D02*
X010983Y013000D01*
X009483Y011500D01*
X011183Y009900D01*
X011233Y009900D01*
X011586Y010016D02*
X011588Y010016D01*
X011586Y010014D02*
X011547Y010110D01*
X011443Y010214D01*
X011307Y010270D01*
X011160Y010270D01*
X011126Y010256D01*
X009853Y011454D01*
X009853Y011559D01*
X011203Y012909D01*
X011203Y013897D01*
X011297Y013990D01*
X011353Y014126D01*
X011353Y014274D01*
X011297Y014410D01*
X011277Y014430D01*
X013242Y014430D01*
X013763Y013909D01*
X013892Y013780D01*
X017924Y013780D01*
X018053Y013909D01*
X018624Y014480D01*
X019592Y014480D01*
X020292Y013780D01*
X020343Y013780D01*
X020343Y013546D01*
X020313Y013474D01*
X020313Y013326D01*
X020370Y013190D01*
X020393Y013167D01*
X020393Y012342D01*
X020437Y012236D01*
X021587Y011086D01*
X021693Y010980D01*
X021693Y009492D01*
X021737Y009386D01*
X021819Y009304D01*
X023793Y007330D01*
X023793Y007143D01*
X023876Y006944D01*
X024027Y006792D01*
X024129Y006750D01*
X024027Y006708D01*
X023876Y006556D01*
X023793Y006357D01*
X023793Y006143D01*
X023823Y006072D01*
X023724Y006170D01*
X019780Y006170D01*
X019803Y006226D01*
X019803Y006359D01*
X020024Y006580D01*
X020153Y006709D01*
X020153Y006997D01*
X020247Y007090D01*
X020303Y007226D01*
X020303Y007374D01*
X020247Y007510D01*
X020143Y007614D01*
X020007Y007670D01*
X019860Y007670D01*
X019724Y007614D01*
X019620Y007510D01*
X019563Y007374D01*
X019563Y007226D01*
X019620Y007090D01*
X019713Y006997D01*
X019713Y006891D01*
X019492Y006670D01*
X019360Y006670D01*
X019235Y006618D01*
X019197Y006710D01*
X019093Y006814D01*
X018957Y006870D01*
X018827Y006870D01*
X018897Y006940D01*
X018953Y007076D01*
X018953Y007224D01*
X018897Y007360D01*
X018793Y007464D01*
X018657Y007520D01*
X018510Y007520D01*
X018379Y007466D01*
X018274Y007570D01*
X017164Y007570D01*
X017624Y008030D01*
X017974Y008030D01*
X018124Y008180D01*
X018324Y008180D01*
X018574Y008430D01*
X018703Y008559D01*
X018703Y009486D01*
X018713Y009563D01*
X018703Y009575D01*
X018703Y009591D01*
X018649Y009646D01*
X018491Y009848D01*
X018503Y009876D01*
X018503Y010024D01*
X018447Y010160D01*
X018343Y010264D01*
X018207Y010320D01*
X018109Y010320D01*
X018153Y010426D01*
X018153Y010574D01*
X018121Y010651D01*
X018713Y010059D01*
X018713Y009926D01*
X018770Y009790D01*
X018874Y009686D01*
X019010Y009630D01*
X019157Y009630D01*
X019293Y009686D01*
X019397Y009790D01*
X019453Y009926D01*
X019453Y010074D01*
X019397Y010210D01*
X019293Y010314D01*
X019157Y010370D01*
X019024Y010370D01*
X018074Y011320D01*
X012892Y011320D01*
X011586Y010014D01*
X011542Y010115D02*
X011687Y010115D01*
X011785Y010213D02*
X011444Y010213D01*
X011067Y010312D02*
X011884Y010312D01*
X011982Y010410D02*
X010962Y010410D01*
X010858Y010509D02*
X012081Y010509D01*
X012179Y010607D02*
X010753Y010607D01*
X010648Y010706D02*
X012278Y010706D01*
X012376Y010804D02*
X010544Y010804D01*
X010439Y010903D02*
X012475Y010903D01*
X012573Y011001D02*
X010334Y011001D01*
X010230Y011100D02*
X012672Y011100D01*
X012770Y011198D02*
X010125Y011198D01*
X010021Y011297D02*
X012869Y011297D01*
X012983Y011100D02*
X010683Y008800D01*
X010683Y007800D01*
X010733Y007750D01*
X011103Y007751D02*
X011245Y007751D01*
X011270Y007810D02*
X011213Y007674D01*
X011213Y007526D01*
X011270Y007390D01*
X011374Y007286D01*
X011510Y007230D01*
X011657Y007230D01*
X011793Y007286D01*
X011897Y007390D01*
X011953Y007526D01*
X011953Y007559D01*
X013274Y008880D01*
X013407Y008880D01*
X013543Y008936D01*
X013647Y009040D01*
X013703Y009176D01*
X013703Y009324D01*
X013647Y009460D01*
X013543Y009564D01*
X013407Y009620D01*
X013260Y009620D01*
X013124Y009564D01*
X013020Y009460D01*
X012963Y009324D01*
X012963Y009191D01*
X011717Y007945D01*
X011657Y007970D01*
X011510Y007970D01*
X011374Y007914D01*
X011270Y007810D01*
X011309Y007849D02*
X011093Y007849D01*
X011052Y007948D02*
X011455Y007948D01*
X011711Y007948D02*
X011720Y007948D01*
X011818Y008046D02*
X010961Y008046D01*
X010903Y008145D02*
X011917Y008145D01*
X012015Y008243D02*
X010903Y008243D01*
X010903Y008342D02*
X012114Y008342D01*
X012212Y008440D02*
X010903Y008440D01*
X010903Y008539D02*
X011339Y008539D01*
X011527Y008539D02*
X012311Y008539D01*
X012409Y008637D02*
X011694Y008637D01*
X011766Y008736D02*
X012508Y008736D01*
X012606Y008834D02*
X011803Y008834D01*
X011803Y008933D02*
X012705Y008933D01*
X012803Y009031D02*
X011780Y009031D01*
X011727Y009130D02*
X012902Y009130D01*
X012963Y009228D02*
X011722Y009228D01*
X011821Y009327D02*
X012965Y009327D01*
X013005Y009425D02*
X011919Y009425D01*
X012018Y009524D02*
X013084Y009524D01*
X013333Y009250D02*
X011683Y007600D01*
X011583Y007600D01*
X011243Y007455D02*
X010962Y007455D01*
X011052Y007554D02*
X011213Y007554D01*
X011213Y007652D02*
X011093Y007652D01*
X011304Y007357D02*
X009373Y007357D01*
X009373Y007258D02*
X011442Y007258D01*
X011725Y007258D02*
X014613Y007258D01*
X014613Y007160D02*
X014432Y007160D01*
X014596Y007061D02*
X014613Y007061D01*
X014333Y006800D02*
X010283Y006800D01*
X008833Y005350D01*
X008833Y005250D01*
X009373Y005288D02*
X014893Y005288D01*
X014963Y005190D02*
X009373Y005190D01*
X009352Y005091D02*
X015034Y005091D01*
X015104Y004993D02*
X009311Y004993D01*
X009241Y004894D02*
X015174Y004894D01*
X015333Y005050D02*
X017333Y005050D01*
X017633Y005550D01*
X017633Y005750D01*
X017286Y005879D02*
X016660Y005879D01*
X016700Y005781D02*
X017263Y005781D01*
X017263Y005682D02*
X016703Y005682D01*
X016686Y005584D02*
X017302Y005584D01*
X017338Y005485D02*
X016642Y005485D01*
X016543Y005387D02*
X017279Y005387D01*
X017220Y005288D02*
X016117Y005288D01*
X015783Y005450D02*
X015983Y006000D01*
X015983Y008250D01*
X017333Y009550D01*
X017333Y010250D01*
X017783Y010500D02*
X017783Y009700D01*
X016333Y008250D01*
X016333Y005700D01*
X016579Y005978D02*
X017338Y005978D01*
X017454Y006076D02*
X016553Y006076D01*
X016553Y006175D02*
X018098Y006175D01*
X017999Y006273D02*
X017811Y006273D01*
X017813Y006076D02*
X018196Y006076D01*
X018295Y005978D02*
X017929Y005978D01*
X017980Y005879D02*
X018393Y005879D01*
X018492Y005781D02*
X018003Y005781D01*
X018003Y005682D02*
X018590Y005682D01*
X018689Y005584D02*
X017965Y005584D01*
X017892Y005485D02*
X018787Y005485D01*
X018886Y005387D02*
X017792Y005387D01*
X017733Y005288D02*
X018984Y005288D01*
X019083Y005190D02*
X017674Y005190D01*
X017614Y005091D02*
X019181Y005091D01*
X019333Y005250D02*
X020333Y005250D01*
X020811Y004993D02*
X020856Y004993D01*
X020926Y004894D02*
X020741Y004894D01*
X020643Y004796D02*
X021024Y004796D01*
X021643Y004796D02*
X022024Y004796D01*
X021926Y004894D02*
X021741Y004894D01*
X021811Y004993D02*
X021856Y004993D01*
X022643Y004796D02*
X023080Y004796D01*
X022954Y004894D02*
X022741Y004894D01*
X022811Y004993D02*
X022881Y004993D01*
X023283Y004993D02*
X023383Y004993D01*
X023383Y005091D02*
X023283Y005091D01*
X023283Y005190D02*
X023383Y005190D01*
X023786Y004993D02*
X023855Y004993D01*
X023926Y004894D02*
X023713Y004894D01*
X023587Y004796D02*
X024024Y004796D01*
X023383Y004796D02*
X023283Y004796D01*
X023283Y004894D02*
X023383Y004894D01*
X024333Y005250D02*
X023633Y005950D01*
X018933Y005950D01*
X017933Y006950D01*
X016783Y006950D01*
X016533Y007200D01*
X016533Y007950D01*
X017383Y008750D01*
X017533Y008800D01*
X017433Y008450D02*
X017783Y008450D01*
X018083Y008750D01*
X018233Y008400D02*
X018483Y008650D01*
X018483Y009500D01*
X018133Y009950D01*
X018466Y010115D02*
X018658Y010115D01*
X018713Y010016D02*
X018503Y010016D01*
X018503Y009918D02*
X018717Y009918D01*
X018758Y009819D02*
X018514Y009819D01*
X018591Y009721D02*
X018840Y009721D01*
X018672Y009622D02*
X021693Y009622D01*
X021693Y009524D02*
X018708Y009524D01*
X018703Y009425D02*
X021721Y009425D01*
X021797Y009327D02*
X018703Y009327D01*
X018703Y009228D02*
X021895Y009228D01*
X021994Y009130D02*
X018703Y009130D01*
X018703Y009031D02*
X022092Y009031D01*
X022191Y008933D02*
X018703Y008933D01*
X018703Y008834D02*
X022289Y008834D01*
X022388Y008736D02*
X018703Y008736D01*
X018703Y008637D02*
X022486Y008637D01*
X022585Y008539D02*
X018683Y008539D01*
X018584Y008440D02*
X022683Y008440D01*
X022782Y008342D02*
X018486Y008342D01*
X018387Y008243D02*
X022880Y008243D01*
X022979Y008145D02*
X018089Y008145D01*
X017990Y008046D02*
X023077Y008046D01*
X023176Y007948D02*
X017542Y007948D01*
X017443Y007849D02*
X023274Y007849D01*
X023373Y007751D02*
X017345Y007751D01*
X017246Y007652D02*
X019816Y007652D01*
X019664Y007554D02*
X018291Y007554D01*
X018183Y007350D02*
X016983Y007350D01*
X016933Y007400D01*
X016933Y007650D01*
X017533Y008250D01*
X017883Y008250D01*
X018033Y008400D01*
X018233Y008400D01*
X017433Y008450D02*
X016733Y007750D01*
X016733Y007300D01*
X016883Y007150D01*
X018083Y007150D01*
X018733Y006500D01*
X018883Y006500D01*
X019141Y006766D02*
X019588Y006766D01*
X019686Y006864D02*
X018971Y006864D01*
X018906Y006963D02*
X019713Y006963D01*
X019649Y007061D02*
X018947Y007061D01*
X018953Y007160D02*
X019591Y007160D01*
X019563Y007258D02*
X018939Y007258D01*
X018898Y007357D02*
X019563Y007357D01*
X019597Y007455D02*
X018802Y007455D01*
X018583Y007150D02*
X018383Y007150D01*
X018183Y007350D01*
X017933Y006650D02*
X019333Y005250D01*
X019855Y004993D02*
X017555Y004993D01*
X017496Y004894D02*
X019926Y004894D01*
X020024Y004796D02*
X009143Y004796D01*
X009361Y005387D02*
X014823Y005387D01*
X014752Y005485D02*
X009320Y005485D01*
X009378Y005584D02*
X014682Y005584D01*
X014612Y005682D02*
X009476Y005682D01*
X009575Y005781D02*
X014613Y005781D01*
X014613Y005879D02*
X009673Y005879D01*
X009772Y005978D02*
X014613Y005978D01*
X014613Y006076D02*
X009870Y006076D01*
X009969Y006175D02*
X014613Y006175D01*
X014613Y006273D02*
X010067Y006273D01*
X010166Y006372D02*
X014613Y006372D01*
X014613Y006470D02*
X014504Y006470D01*
X014163Y006470D02*
X010264Y006470D01*
X010363Y006569D02*
X014042Y006569D01*
X014071Y007061D02*
X009340Y007061D01*
X009373Y007160D02*
X014234Y007160D01*
X014613Y007357D02*
X011863Y007357D01*
X011924Y007455D02*
X014613Y007455D01*
X014613Y007554D02*
X011953Y007554D01*
X012046Y007652D02*
X014613Y007652D01*
X014613Y007751D02*
X012145Y007751D01*
X012243Y007849D02*
X014613Y007849D01*
X014613Y007948D02*
X012342Y007948D01*
X012440Y008046D02*
X014613Y008046D01*
X014613Y008145D02*
X012539Y008145D01*
X012637Y008243D02*
X014591Y008243D01*
X014542Y008342D02*
X012736Y008342D01*
X012834Y008440D02*
X014492Y008440D01*
X014443Y008539D02*
X012933Y008539D01*
X013031Y008637D02*
X014394Y008637D01*
X014345Y008736D02*
X013130Y008736D01*
X013228Y008834D02*
X014295Y008834D01*
X014133Y008933D02*
X013534Y008933D01*
X013638Y009031D02*
X014029Y009031D01*
X013983Y009130D02*
X013684Y009130D01*
X013703Y009228D02*
X013963Y009228D01*
X013965Y009327D02*
X013702Y009327D01*
X013661Y009425D02*
X014005Y009425D01*
X014084Y009524D02*
X013583Y009524D01*
X014044Y010016D02*
X012510Y010016D01*
X012412Y009918D02*
X014169Y009918D01*
X014124Y009936D02*
X014260Y009880D01*
X014407Y009880D01*
X014543Y009936D01*
X014647Y010040D01*
X014703Y010176D01*
X014703Y010324D01*
X014647Y010460D01*
X014543Y010564D01*
X014407Y010620D01*
X014260Y010620D01*
X014124Y010564D01*
X014020Y010460D01*
X013963Y010324D01*
X013963Y010176D01*
X014020Y010040D01*
X014124Y009936D01*
X013989Y010115D02*
X012609Y010115D01*
X012707Y010213D02*
X013963Y010213D01*
X013963Y010312D02*
X012806Y010312D01*
X012904Y010410D02*
X013999Y010410D01*
X014069Y010509D02*
X013003Y010509D01*
X013101Y010607D02*
X014228Y010607D01*
X014438Y010607D02*
X015228Y010607D01*
X015069Y010509D02*
X014598Y010509D01*
X014668Y010410D02*
X014999Y010410D01*
X014963Y010312D02*
X014703Y010312D01*
X014703Y010213D02*
X014963Y010213D01*
X014989Y010115D02*
X014678Y010115D01*
X014623Y010016D02*
X015044Y010016D01*
X015169Y009918D02*
X014497Y009918D01*
X014583Y009524D02*
X015084Y009524D01*
X015005Y009425D02*
X014661Y009425D01*
X014702Y009327D02*
X014965Y009327D01*
X014963Y009228D02*
X014703Y009228D01*
X014684Y009130D02*
X014983Y009130D01*
X015029Y009031D02*
X014689Y009031D01*
X014738Y008933D02*
X015133Y008933D01*
X015217Y008834D02*
X014787Y008834D01*
X014837Y008736D02*
X015257Y008736D01*
X015298Y008637D02*
X014886Y008637D01*
X014935Y008539D02*
X015338Y008539D01*
X015379Y008440D02*
X014984Y008440D01*
X015053Y008342D02*
X015413Y008342D01*
X015413Y008243D02*
X015063Y008243D01*
X015053Y008145D02*
X015413Y008145D01*
X015413Y008046D02*
X015053Y008046D01*
X015053Y007948D02*
X015413Y007948D01*
X015413Y007849D02*
X015053Y007849D01*
X015053Y007751D02*
X015413Y007751D01*
X015413Y007652D02*
X015053Y007652D01*
X015053Y007554D02*
X015413Y007554D01*
X015413Y007455D02*
X015053Y007455D01*
X015053Y007357D02*
X015413Y007357D01*
X015413Y007258D02*
X015053Y007258D01*
X015053Y007160D02*
X015413Y007160D01*
X015413Y007061D02*
X015053Y007061D01*
X015053Y006963D02*
X015413Y006963D01*
X015413Y006864D02*
X015053Y006864D01*
X015053Y006766D02*
X015413Y006766D01*
X015413Y006667D02*
X015053Y006667D01*
X015053Y006569D02*
X015413Y006569D01*
X015413Y006470D02*
X015053Y006470D01*
X015053Y006372D02*
X015382Y006372D01*
X015305Y006273D02*
X015053Y006273D01*
X015053Y006175D02*
X015264Y006175D01*
X015263Y006076D02*
X015053Y006076D01*
X015053Y005978D02*
X015284Y005978D01*
X015331Y005879D02*
X015053Y005879D01*
X015082Y005781D02*
X015438Y005781D01*
X015492Y005682D02*
X015152Y005682D01*
X015223Y005584D02*
X015438Y005584D01*
X015413Y005485D02*
X015293Y005485D01*
X015363Y005387D02*
X015413Y005387D01*
X015434Y005288D02*
X015450Y005288D01*
X015333Y005050D02*
X014833Y005750D01*
X014833Y008250D01*
X014333Y009250D01*
X015283Y009250D02*
X015633Y008400D01*
X015633Y006100D01*
X016553Y006273D02*
X017456Y006273D01*
X017339Y006372D02*
X016553Y006372D01*
X016553Y006470D02*
X017287Y006470D01*
X017263Y006569D02*
X016553Y006569D01*
X016553Y006667D02*
X017263Y006667D01*
X017633Y006600D02*
X017933Y006650D01*
X016657Y006766D02*
X016553Y006766D01*
X016553Y006864D02*
X016558Y006864D01*
X019215Y006667D02*
X019353Y006667D01*
X019433Y006300D02*
X019933Y006800D01*
X019933Y007300D01*
X020276Y007160D02*
X023793Y007160D01*
X023793Y007258D02*
X020303Y007258D01*
X020303Y007357D02*
X023767Y007357D01*
X023668Y007455D02*
X020270Y007455D01*
X020203Y007554D02*
X023570Y007554D01*
X023471Y007652D02*
X020050Y007652D01*
X020218Y007061D02*
X023827Y007061D01*
X023868Y006963D02*
X020153Y006963D01*
X020153Y006864D02*
X023956Y006864D01*
X024092Y006766D02*
X020153Y006766D01*
X020111Y006667D02*
X023987Y006667D01*
X023888Y006569D02*
X020013Y006569D01*
X019914Y006470D02*
X023840Y006470D01*
X023799Y006372D02*
X019816Y006372D01*
X019803Y006273D02*
X023793Y006273D01*
X023793Y006175D02*
X019782Y006175D01*
X023818Y006076D02*
X023821Y006076D01*
X021693Y009721D02*
X019327Y009721D01*
X019409Y009819D02*
X021693Y009819D01*
X021693Y009918D02*
X019450Y009918D01*
X019453Y010016D02*
X021693Y010016D01*
X021693Y010115D02*
X019436Y010115D01*
X019394Y010213D02*
X021693Y010213D01*
X021693Y010312D02*
X019295Y010312D01*
X018984Y010410D02*
X021693Y010410D01*
X021693Y010509D02*
X018886Y010509D01*
X018787Y010607D02*
X021693Y010607D01*
X021693Y010706D02*
X018689Y010706D01*
X018590Y010804D02*
X021693Y010804D01*
X021693Y010903D02*
X018492Y010903D01*
X018393Y011001D02*
X021672Y011001D01*
X021587Y011086D02*
X021587Y011086D01*
X021574Y011100D02*
X018295Y011100D01*
X018196Y011198D02*
X021475Y011198D01*
X021377Y011297D02*
X018098Y011297D01*
X017983Y011100D02*
X019083Y010000D01*
X018559Y010213D02*
X018394Y010213D01*
X018461Y010312D02*
X018227Y010312D01*
X018147Y010410D02*
X018362Y010410D01*
X018264Y010509D02*
X018153Y010509D01*
X018139Y010607D02*
X018165Y010607D01*
X017983Y011100D02*
X012983Y011100D01*
X013083Y010900D02*
X015483Y010900D01*
X015933Y010450D01*
X015933Y009850D01*
X015333Y009250D01*
X015283Y009250D01*
X015394Y009622D02*
X012116Y009622D01*
X012215Y009721D02*
X015493Y009721D01*
X015591Y009819D02*
X012313Y009819D01*
X011433Y009250D02*
X013083Y010900D01*
X015438Y010607D02*
X015465Y010607D01*
X015703Y010312D02*
X015713Y010312D01*
X015703Y010213D02*
X015713Y010213D01*
X015713Y010115D02*
X015678Y010115D01*
X015713Y010016D02*
X015623Y010016D01*
X015690Y009918D02*
X015497Y009918D01*
X011433Y009250D02*
X011433Y008900D01*
X011101Y008736D02*
X010930Y008736D01*
X010903Y008637D02*
X011173Y008637D01*
X011063Y008834D02*
X011028Y008834D01*
X010373Y007652D02*
X009195Y007652D01*
X009292Y007554D02*
X010414Y007554D01*
X010505Y007455D02*
X009333Y007455D01*
X009299Y006963D02*
X010135Y006963D01*
X010036Y006864D02*
X009211Y006864D01*
X009075Y006766D02*
X009938Y006766D01*
X009839Y006667D02*
X009180Y006667D01*
X009279Y006569D02*
X009741Y006569D01*
X009642Y006470D02*
X009327Y006470D01*
X009367Y006372D02*
X009544Y006372D01*
X009445Y006273D02*
X009373Y006273D01*
X010006Y010706D02*
X007875Y010706D01*
X007983Y010804D02*
X009902Y010804D01*
X009797Y010903D02*
X008025Y010903D01*
X008037Y011001D02*
X009693Y011001D01*
X009588Y011100D02*
X008023Y011100D01*
X007977Y011198D02*
X009262Y011198D01*
X009853Y011494D02*
X021180Y011494D01*
X021081Y011592D02*
X009886Y011592D01*
X009985Y011691D02*
X020983Y011691D01*
X020884Y011789D02*
X010083Y011789D01*
X010182Y011888D02*
X020786Y011888D01*
X020687Y011986D02*
X010280Y011986D01*
X010379Y012085D02*
X020589Y012085D01*
X020490Y012183D02*
X010477Y012183D01*
X010576Y012282D02*
X020419Y012282D01*
X020393Y012380D02*
X019541Y012380D01*
X019661Y012423D02*
X019349Y012310D01*
X019096Y012310D01*
X019018Y012310D01*
X018706Y012423D01*
X018706Y012423D01*
X018452Y012636D01*
X018452Y012636D01*
X018286Y012924D01*
X018286Y012924D01*
X018229Y013250D01*
X018229Y013250D01*
X018286Y013576D01*
X018286Y013576D01*
X018452Y013864D01*
X018452Y013864D01*
X018452Y013864D01*
X018706Y014077D01*
X018706Y014077D01*
X019018Y014190D01*
X019349Y014190D01*
X019661Y014077D01*
X019661Y014077D01*
X019915Y013864D01*
X019915Y013864D01*
X020080Y013576D01*
X020080Y013576D01*
X020138Y013250D01*
X020138Y013250D01*
X020080Y012924D01*
X020080Y012924D01*
X019915Y012636D01*
X019915Y012636D01*
X019915Y012636D01*
X019661Y012423D01*
X019661Y012423D01*
X019726Y012479D02*
X020393Y012479D01*
X020393Y012577D02*
X019844Y012577D01*
X019937Y012676D02*
X020393Y012676D01*
X020393Y012774D02*
X019994Y012774D01*
X020051Y012873D02*
X020393Y012873D01*
X020393Y012971D02*
X020089Y012971D01*
X020106Y013070D02*
X020393Y013070D01*
X020392Y013168D02*
X020123Y013168D01*
X020135Y013267D02*
X020338Y013267D01*
X020313Y013365D02*
X020118Y013365D01*
X020100Y013464D02*
X020313Y013464D01*
X020343Y013562D02*
X020083Y013562D01*
X020032Y013661D02*
X020343Y013661D01*
X020343Y013759D02*
X019975Y013759D01*
X019918Y013858D02*
X020215Y013858D01*
X020116Y013956D02*
X019804Y013956D01*
X019687Y014055D02*
X020018Y014055D01*
X019919Y014153D02*
X019451Y014153D01*
X019722Y014350D02*
X018494Y014350D01*
X018396Y014252D02*
X019821Y014252D01*
X019624Y014449D02*
X018593Y014449D01*
X018533Y014700D02*
X017833Y014000D01*
X018002Y013858D02*
X018449Y013858D01*
X018392Y013759D02*
X011203Y013759D01*
X011203Y013661D02*
X018335Y013661D01*
X018284Y013562D02*
X011203Y013562D01*
X011203Y013464D02*
X018266Y013464D01*
X018249Y013365D02*
X011203Y013365D01*
X011203Y013267D02*
X018232Y013267D01*
X018243Y013168D02*
X011203Y013168D01*
X011203Y013070D02*
X018261Y013070D01*
X018278Y012971D02*
X011203Y012971D01*
X011167Y012873D02*
X018316Y012873D01*
X018373Y012774D02*
X011068Y012774D01*
X010970Y012676D02*
X018430Y012676D01*
X018523Y012577D02*
X010871Y012577D01*
X010773Y012479D02*
X018640Y012479D01*
X018825Y012380D02*
X010674Y012380D01*
X009916Y011395D02*
X021278Y011395D01*
X021704Y011789D02*
X024224Y011789D01*
X024443Y011789D02*
X024623Y011789D01*
X024623Y011888D02*
X021606Y011888D01*
X021507Y011986D02*
X024623Y011986D01*
X024623Y012085D02*
X021409Y012085D01*
X021310Y012183D02*
X024623Y012183D01*
X024623Y012282D02*
X021212Y012282D01*
X021113Y012380D02*
X023231Y012380D01*
X023185Y012479D02*
X021015Y012479D01*
X020973Y012577D02*
X023185Y012577D01*
X023185Y012676D02*
X020973Y012676D01*
X020973Y012774D02*
X023185Y012774D01*
X023185Y012873D02*
X020973Y012873D01*
X020973Y012971D02*
X023185Y012971D01*
X023185Y013070D02*
X020973Y013070D01*
X020975Y013168D02*
X023185Y013168D01*
X023254Y013267D02*
X021029Y013267D01*
X021053Y013365D02*
X024623Y013365D01*
X024623Y013464D02*
X022998Y013464D01*
X023002Y013467D02*
X023022Y013502D01*
X023032Y013540D01*
X023032Y013708D01*
X022025Y013708D01*
X022025Y013409D01*
X022902Y013409D01*
X022940Y013420D01*
X022974Y013439D01*
X023002Y013467D01*
X023032Y013562D02*
X024623Y013562D01*
X024623Y013661D02*
X023032Y013661D01*
X023032Y013805D02*
X023032Y013973D01*
X023022Y014011D01*
X023002Y014045D01*
X022974Y014073D01*
X022940Y014093D01*
X022902Y014103D01*
X022025Y014103D01*
X022025Y013805D01*
X023032Y013805D01*
X023032Y013858D02*
X024623Y013858D01*
X024623Y013956D02*
X023032Y013956D01*
X022993Y014055D02*
X024623Y014055D01*
X024623Y014153D02*
X021146Y014153D01*
X020633Y014000D02*
X020383Y014000D01*
X019683Y014700D01*
X018533Y014700D01*
X018575Y015040D02*
X023248Y015040D01*
X023185Y015138D02*
X018707Y015138D01*
X018783Y015237D02*
X023185Y015237D01*
X023185Y015335D02*
X018826Y015335D01*
X018849Y015434D02*
X023185Y015434D01*
X023185Y015532D02*
X018383Y015532D01*
X018383Y015434D02*
X018283Y015434D01*
X018283Y015335D02*
X018383Y015335D01*
X018383Y015237D02*
X018283Y015237D01*
X018283Y015138D02*
X018383Y015138D01*
X018383Y015040D02*
X018283Y015040D01*
X018092Y015040D02*
X017633Y015040D01*
X017735Y015138D02*
X017960Y015138D01*
X017884Y015237D02*
X017809Y015237D01*
X017034Y015040D02*
X016575Y015040D01*
X016707Y015138D02*
X016932Y015138D01*
X016858Y015237D02*
X016783Y015237D01*
X016383Y015237D02*
X016283Y015237D01*
X016283Y015335D02*
X016383Y015335D01*
X016383Y015434D02*
X016283Y015434D01*
X016283Y015138D02*
X016383Y015138D01*
X016383Y015040D02*
X016283Y015040D01*
X016092Y015040D02*
X015633Y015040D01*
X015735Y015138D02*
X015960Y015138D01*
X015884Y015237D02*
X015809Y015237D01*
X014833Y014450D02*
X014583Y014700D01*
X013783Y014700D01*
X013333Y015150D01*
X013853Y014941D02*
X024623Y014941D01*
X024623Y014843D02*
X023021Y014843D01*
X023052Y014744D02*
X024623Y014744D01*
X024623Y014646D02*
X023052Y014646D01*
X023052Y014547D02*
X024623Y014547D01*
X024623Y014449D02*
X023052Y014449D01*
X023052Y014350D02*
X024623Y014350D01*
X024623Y014252D02*
X023027Y014252D01*
X022025Y014055D02*
X021928Y014055D01*
X021928Y013956D02*
X022025Y013956D01*
X022025Y013858D02*
X021928Y013858D01*
X022025Y013759D02*
X024623Y013759D01*
X022025Y013661D02*
X021928Y013661D01*
X021928Y013562D02*
X022025Y013562D01*
X022025Y013464D02*
X021928Y013464D01*
X020523Y014350D02*
X020344Y014350D01*
X020246Y014449D02*
X020622Y014449D01*
X020720Y014547D02*
X020147Y014547D01*
X020049Y014646D02*
X020819Y014646D01*
X020901Y014744D02*
X019950Y014744D01*
X019852Y014843D02*
X020933Y014843D01*
X018916Y014153D02*
X018297Y014153D01*
X018199Y014055D02*
X018680Y014055D01*
X018562Y013956D02*
X018100Y013956D01*
X018838Y015631D02*
X023185Y015631D01*
X023185Y015729D02*
X018800Y015729D01*
X013815Y013858D02*
X011203Y013858D01*
X011263Y013956D02*
X013716Y013956D01*
X013618Y014055D02*
X011324Y014055D01*
X011353Y014153D02*
X013519Y014153D01*
X013421Y014252D02*
X011353Y014252D01*
X011322Y014350D02*
X013322Y014350D01*
X021803Y011691D02*
X024010Y011691D01*
X023912Y011592D02*
X021901Y011592D01*
D15*
X021833Y011250D02*
X022008Y011075D01*
X021983Y011050D01*
X021983Y009550D01*
X024283Y007250D01*
X024333Y007250D01*
X024333Y009250D02*
X023833Y009250D01*
X022008Y011075D01*
X021833Y011250D02*
X024333Y011250D01*
X021833Y011250D02*
X020683Y012400D01*
X020683Y013400D01*
X020633Y013450D01*
X020633Y014000D01*
X020633Y014050D01*
X021127Y014544D01*
X021977Y014544D01*
M02*
