G75*
%MOIN*%
%OFA0B0*%
%FSLAX24Y24*%
%IPPOS*%
%LPD*%
%AMOC8*
5,1,8,0,0,1.08239X$1,22.5*
%
%ADD10R,0.0433X0.0394*%
%ADD11R,0.0630X0.0709*%
%ADD12R,0.0394X0.0433*%
%ADD13R,0.0500X0.0579*%
%ADD14R,0.0327X0.0248*%
%ADD15R,0.0551X0.0157*%
%ADD16R,0.0591X0.0709*%
%ADD17R,0.0591X0.0984*%
%ADD18R,0.0354X0.0315*%
%ADD19R,0.0591X0.0197*%
%ADD20R,0.0197X0.0591*%
%ADD21R,0.0591X0.0157*%
%ADD22R,0.0472X0.0217*%
%ADD23R,0.0217X0.0472*%
%ADD24R,0.0433X0.0748*%
%ADD25C,0.0740*%
%ADD26C,0.0400*%
%ADD27C,0.0100*%
D10*
X010249Y008650D03*
X009668Y008900D03*
X008999Y008900D03*
X008999Y009950D03*
X009668Y009950D03*
X009668Y010750D03*
X008999Y010750D03*
X010499Y011750D03*
X011168Y011750D03*
X011168Y012750D03*
X010499Y012750D03*
X013499Y013600D03*
X014168Y013600D03*
X014168Y014450D03*
X013499Y014450D03*
X017999Y011750D03*
X018668Y011750D03*
X018349Y010750D03*
X019018Y010750D03*
X017668Y007800D03*
X016999Y007800D03*
X020649Y006350D03*
X021318Y006350D03*
X010918Y008650D03*
D11*
X007935Y013150D03*
X006832Y013150D03*
X019882Y015400D03*
X020985Y015400D03*
D12*
X017533Y013485D03*
X016333Y013715D03*
X016333Y014385D03*
X017533Y012815D03*
X022833Y011585D03*
X022833Y010915D03*
X022833Y010085D03*
X022833Y009415D03*
X022833Y008585D03*
X022833Y007915D03*
X019083Y008565D03*
X019083Y009235D03*
X014083Y005835D03*
X014083Y005165D03*
X011283Y005115D03*
X011283Y005785D03*
X011283Y006415D03*
X011283Y007085D03*
X012083Y012465D03*
X012083Y013135D03*
D13*
X009930Y014250D03*
X008237Y014250D03*
D14*
X021683Y011703D03*
X021683Y010797D03*
X021683Y010203D03*
X021683Y009297D03*
X021683Y008703D03*
X021683Y007797D03*
D15*
X007896Y009738D03*
X007896Y009994D03*
X007896Y010250D03*
X007896Y010506D03*
X007896Y010762D03*
D16*
X006833Y011707D03*
X006833Y008793D03*
D17*
X006833Y010250D03*
D18*
X019940Y010124D03*
X020766Y009750D03*
X019940Y009376D03*
X019940Y008624D03*
X020766Y008250D03*
X019940Y007876D03*
X019940Y010876D03*
X020766Y011250D03*
X019940Y011624D03*
D19*
X016617Y011510D03*
X016617Y011825D03*
X016617Y011195D03*
X016617Y010880D03*
X016617Y010565D03*
X016617Y010250D03*
X016617Y009935D03*
X016617Y009620D03*
X016617Y009305D03*
X016617Y008990D03*
X016617Y008675D03*
X012050Y008675D03*
X012050Y008990D03*
X012050Y009305D03*
X012050Y009620D03*
X012050Y009935D03*
X012050Y010250D03*
X012050Y010565D03*
X012050Y010880D03*
X012050Y011195D03*
X012050Y011510D03*
X012050Y011825D03*
D20*
X012759Y012533D03*
X013073Y012533D03*
X013388Y012533D03*
X013703Y012533D03*
X014018Y012533D03*
X014333Y012533D03*
X014648Y012533D03*
X014963Y012533D03*
X015278Y012533D03*
X015593Y012533D03*
X015908Y012533D03*
X015908Y007967D03*
X015593Y007967D03*
X015278Y007967D03*
X014963Y007967D03*
X014648Y007967D03*
X014333Y007967D03*
X014018Y007967D03*
X013703Y007967D03*
X013388Y007967D03*
X013073Y007967D03*
X012759Y007967D03*
D21*
X014968Y006725D03*
X014968Y006475D03*
X014968Y006225D03*
X014968Y005975D03*
X014968Y005725D03*
X014968Y005475D03*
X014968Y005225D03*
X014968Y004975D03*
X016998Y004975D03*
X016998Y005225D03*
X016998Y005475D03*
X016998Y005725D03*
X016998Y005975D03*
X016998Y006225D03*
X016998Y006475D03*
X016998Y006725D03*
D22*
X012845Y013876D03*
X011821Y013876D03*
X011821Y014250D03*
X011821Y014624D03*
X012845Y014624D03*
D23*
X009707Y013262D03*
X009333Y013262D03*
X008959Y013262D03*
X008959Y012238D03*
X009707Y012238D03*
D24*
X012281Y006728D03*
X013186Y006728D03*
X013186Y005272D03*
X012281Y005272D03*
D25*
X008833Y005250D03*
X008833Y006250D03*
X008833Y007250D03*
X006833Y007250D03*
X006833Y006250D03*
X006833Y005250D03*
X020333Y005250D03*
X021333Y005250D03*
X022333Y005250D03*
X023333Y005250D03*
X024333Y005250D03*
X024333Y006250D03*
X024333Y007250D03*
X024333Y008250D03*
X024333Y009250D03*
X024333Y010250D03*
X024333Y011250D03*
X018333Y015500D03*
X017333Y015500D03*
X016333Y015500D03*
X015333Y015500D03*
X014333Y015500D03*
X013333Y015500D03*
X012333Y015500D03*
X011333Y015500D03*
X006833Y015500D03*
X006833Y014500D03*
D26*
X008033Y015050D03*
X008733Y015100D03*
X010983Y014200D03*
X012833Y013300D03*
X014783Y013600D03*
X014833Y014450D03*
X015033Y011850D03*
X017783Y010500D03*
X017333Y010250D03*
X018133Y009950D03*
X019083Y010000D03*
X018083Y008750D03*
X017533Y008800D03*
X015333Y009250D03*
X014333Y009250D03*
X013333Y009250D03*
X013883Y008650D03*
X015283Y007350D03*
X014333Y006800D03*
X015633Y006100D03*
X016333Y005700D03*
X015783Y005450D03*
X017633Y005750D03*
X018783Y004950D03*
X019433Y006300D03*
X018883Y006500D03*
X017633Y006600D03*
X018583Y007150D03*
X019933Y007300D03*
X015333Y010250D03*
X014333Y010250D03*
X013333Y010250D03*
X011233Y009900D03*
X011433Y008900D03*
X010733Y007750D03*
X011583Y007600D03*
X007983Y006900D03*
X009483Y011500D03*
X007983Y012250D03*
X020683Y013400D03*
D27*
X006543Y004786D02*
X006543Y004710D01*
X015405Y004710D01*
X015353Y004746D01*
X015334Y004726D01*
X014603Y004726D01*
X014503Y004826D01*
X014503Y005124D01*
X014523Y005144D01*
X014523Y005225D01*
X014968Y005225D01*
X014523Y005225D01*
X014523Y005306D01*
X014503Y005326D01*
X014503Y005826D01*
X014503Y006005D01*
X014430Y006005D01*
X014430Y005883D01*
X014132Y005883D01*
X014132Y005786D01*
X014430Y005786D01*
X014430Y005598D01*
X014420Y005560D01*
X014400Y005526D01*
X014388Y005514D01*
X014450Y005452D01*
X014450Y004878D01*
X014351Y004779D01*
X013816Y004779D01*
X013716Y004878D01*
X013716Y004980D01*
X013573Y004980D01*
X013573Y004827D01*
X013473Y004728D01*
X012899Y004728D01*
X012800Y004827D01*
X012800Y005716D01*
X012899Y005816D01*
X012963Y005816D01*
X012963Y005941D01*
X013092Y006070D01*
X013207Y006184D01*
X012899Y006184D01*
X012800Y006284D01*
X012800Y007080D01*
X012674Y007080D01*
X012667Y007073D01*
X012667Y006284D01*
X012568Y006184D01*
X012479Y006184D01*
X012110Y005816D01*
X012568Y005816D01*
X012667Y005716D01*
X012667Y004827D01*
X012568Y004728D01*
X011994Y004728D01*
X011894Y004827D01*
X011894Y005716D01*
X011908Y005730D01*
X011650Y005730D01*
X011650Y005498D01*
X011588Y005436D01*
X011600Y005424D01*
X011620Y005390D01*
X011630Y005352D01*
X011630Y005164D01*
X011332Y005164D01*
X011332Y005067D01*
X011630Y005067D01*
X011630Y004879D01*
X011620Y004841D01*
X011600Y004807D01*
X011572Y004779D01*
X011538Y004759D01*
X011500Y004749D01*
X011332Y004749D01*
X011332Y005067D01*
X011235Y005067D01*
X011235Y004749D01*
X011067Y004749D01*
X011029Y004759D01*
X010994Y004779D01*
X010966Y004807D01*
X010947Y004841D01*
X010936Y004879D01*
X010936Y005067D01*
X011235Y005067D01*
X011235Y005164D01*
X010936Y005164D01*
X010936Y005352D01*
X010947Y005390D01*
X010966Y005424D01*
X010978Y005436D01*
X010916Y005498D01*
X010916Y006072D01*
X010945Y006100D01*
X010916Y006128D01*
X010916Y006702D01*
X010964Y006750D01*
X010916Y006798D01*
X010916Y006865D01*
X009759Y006865D01*
X009338Y006443D01*
X009373Y006357D01*
X009373Y006143D01*
X009291Y005944D01*
X009139Y005792D01*
X009037Y005750D01*
X009139Y005708D01*
X009291Y005556D01*
X009373Y005357D01*
X009373Y005143D01*
X009291Y004944D01*
X009139Y004792D01*
X008941Y004710D01*
X008726Y004710D01*
X008527Y004792D01*
X008376Y004944D01*
X008293Y005143D01*
X008293Y005357D01*
X008376Y005556D01*
X008527Y005708D01*
X008629Y005750D01*
X008527Y005792D01*
X008376Y005944D01*
X008293Y006143D01*
X008293Y006357D01*
X008376Y006556D01*
X008527Y006708D01*
X008629Y006750D01*
X008527Y006792D01*
X008376Y006944D01*
X008293Y007143D01*
X008293Y007357D01*
X008376Y007556D01*
X008527Y007708D01*
X008726Y007790D01*
X008941Y007790D01*
X009027Y007754D01*
X009302Y008030D01*
X008424Y008030D01*
X007728Y007334D01*
X007728Y005834D01*
X007599Y005705D01*
X007338Y005443D01*
X007373Y005357D01*
X007373Y005143D01*
X007291Y004944D01*
X007139Y004792D01*
X006941Y004710D01*
X006726Y004710D01*
X006543Y004786D01*
X006833Y005250D02*
X007508Y005925D01*
X007508Y007425D01*
X007333Y007250D01*
X006833Y007250D01*
X007302Y007530D02*
X007291Y007556D01*
X007139Y007708D01*
X006941Y007790D01*
X006726Y007790D01*
X006543Y007714D01*
X006543Y008269D01*
X007199Y008269D01*
X007299Y008369D01*
X007299Y009218D01*
X007199Y009318D01*
X006543Y009318D01*
X006543Y009588D01*
X007199Y009588D01*
X007299Y009687D01*
X007299Y010813D01*
X007199Y010912D01*
X006543Y010912D01*
X006543Y011182D01*
X007199Y011182D01*
X007299Y011282D01*
X007299Y012131D01*
X007199Y012231D01*
X006543Y012231D01*
X006543Y012646D01*
X006782Y012646D01*
X006782Y013100D01*
X006882Y013100D01*
X006882Y012646D01*
X007167Y012646D01*
X007205Y012656D01*
X007239Y012676D01*
X007267Y012704D01*
X007287Y012738D01*
X007297Y012776D01*
X007297Y013100D01*
X006882Y013100D01*
X006882Y013200D01*
X006782Y013200D01*
X006782Y013654D01*
X006543Y013654D01*
X006543Y014036D01*
X006726Y013960D01*
X006767Y013960D01*
X007088Y013654D01*
X006882Y013654D01*
X006882Y013200D01*
X007297Y013200D01*
X007297Y013454D01*
X007450Y013309D01*
X007450Y012725D01*
X007549Y012626D01*
X008261Y012626D01*
X008681Y012205D01*
X008681Y011932D01*
X008739Y011873D01*
X008739Y011567D01*
X008663Y011491D01*
X008183Y011011D01*
X008037Y011011D01*
X008037Y011065D01*
X007985Y011189D01*
X007891Y011284D01*
X007767Y011335D01*
X007632Y011335D01*
X007508Y011284D01*
X007414Y011189D01*
X007362Y011065D01*
X007362Y010931D01*
X007414Y010807D01*
X007451Y010770D01*
X007451Y009845D01*
X007471Y009825D01*
X007471Y009750D01*
X007414Y009693D01*
X007362Y009569D01*
X007362Y009435D01*
X007414Y009311D01*
X007508Y009216D01*
X007632Y009165D01*
X007767Y009165D01*
X007891Y009216D01*
X007985Y009311D01*
X008037Y009435D01*
X008037Y009509D01*
X008192Y009509D01*
X008230Y009520D01*
X008264Y009539D01*
X008292Y009567D01*
X008312Y009602D01*
X008322Y009640D01*
X008322Y009738D01*
X007940Y009738D01*
X008322Y009738D01*
X008322Y009825D01*
X008342Y009845D01*
X008342Y009980D01*
X008467Y009855D01*
X008513Y009794D01*
X008530Y009792D01*
X008542Y009780D01*
X008612Y009780D01*
X008612Y009683D01*
X008712Y009583D01*
X009286Y009583D01*
X009333Y009631D01*
X009381Y009583D01*
X009955Y009583D01*
X010055Y009683D01*
X010055Y010046D01*
X010315Y010330D01*
X010674Y010330D01*
X010803Y010459D01*
X010974Y010630D01*
X011605Y010630D01*
X011605Y010565D01*
X012050Y010565D01*
X012050Y010565D01*
X011605Y010565D01*
X011605Y010470D01*
X010927Y010470D01*
X009724Y009267D01*
X009381Y009267D01*
X009319Y009205D01*
X009307Y009217D01*
X009273Y009237D01*
X009235Y009247D01*
X009047Y009247D01*
X009047Y008948D01*
X008950Y008948D01*
X008950Y008852D01*
X008632Y008852D01*
X008632Y008683D01*
X008642Y008645D01*
X008662Y008611D01*
X008690Y008583D01*
X008724Y008563D01*
X008762Y008553D01*
X008950Y008553D01*
X008950Y008852D01*
X009047Y008852D01*
X009047Y008553D01*
X009235Y008553D01*
X009273Y008563D01*
X009307Y008583D01*
X009319Y008595D01*
X009343Y008571D01*
X009242Y008470D01*
X008242Y008470D01*
X008113Y008341D01*
X007417Y007645D01*
X007302Y007530D01*
X007292Y007554D02*
X007326Y007554D01*
X007417Y007645D02*
X007417Y007645D01*
X007424Y007652D02*
X007195Y007652D01*
X007036Y007751D02*
X007523Y007751D01*
X007621Y007849D02*
X006543Y007849D01*
X006543Y007751D02*
X006631Y007751D01*
X006543Y007948D02*
X007720Y007948D01*
X007818Y008046D02*
X006543Y008046D01*
X006543Y008145D02*
X007917Y008145D01*
X008015Y008243D02*
X006543Y008243D01*
X007272Y008342D02*
X008114Y008342D01*
X008212Y008440D02*
X007299Y008440D01*
X007299Y008539D02*
X009311Y008539D01*
X009047Y008637D02*
X008950Y008637D01*
X008950Y008736D02*
X009047Y008736D01*
X009047Y008834D02*
X008950Y008834D01*
X008950Y008933D02*
X007299Y008933D01*
X007299Y009031D02*
X008632Y009031D01*
X008632Y008948D02*
X008632Y009117D01*
X008642Y009155D01*
X008662Y009189D01*
X008690Y009217D01*
X008724Y009237D01*
X008762Y009247D01*
X008950Y009247D01*
X008950Y008948D01*
X008632Y008948D01*
X008632Y008834D02*
X007299Y008834D01*
X007299Y008736D02*
X008632Y008736D01*
X008647Y008637D02*
X007299Y008637D01*
X007299Y009130D02*
X008636Y009130D01*
X008709Y009228D02*
X007903Y009228D01*
X007992Y009327D02*
X009783Y009327D01*
X009882Y009425D02*
X008033Y009425D01*
X008236Y009524D02*
X009980Y009524D01*
X009994Y009622D02*
X010079Y009622D01*
X010055Y009721D02*
X010177Y009721D01*
X010276Y009819D02*
X010055Y009819D01*
X010055Y009918D02*
X010374Y009918D01*
X010473Y010016D02*
X010055Y010016D01*
X010117Y010115D02*
X010571Y010115D01*
X010670Y010213D02*
X010208Y010213D01*
X010298Y010312D02*
X010768Y010312D01*
X010754Y010410D02*
X010867Y010410D01*
X010853Y010509D02*
X011605Y010509D01*
X011605Y010607D02*
X010951Y010607D01*
X010883Y010850D02*
X010583Y010550D01*
X010218Y010550D01*
X009668Y009950D01*
X009342Y009622D02*
X009325Y009622D01*
X009342Y009228D02*
X009288Y009228D01*
X009047Y009228D02*
X008950Y009228D01*
X008950Y009130D02*
X009047Y009130D01*
X009047Y009031D02*
X008950Y009031D01*
X009668Y008900D02*
X011018Y010250D01*
X012050Y010250D01*
X012433Y010250D01*
X012733Y010550D01*
X012733Y011900D01*
X013233Y011900D01*
X013383Y012050D01*
X013983Y011450D01*
X015333Y011450D01*
X015333Y010250D01*
X015333Y009900D01*
X016033Y009200D01*
X016033Y009050D01*
X016093Y008990D01*
X016033Y008930D01*
X016033Y008500D01*
X016183Y008350D01*
X016183Y007600D01*
X016333Y007450D01*
X017583Y007450D01*
X017683Y007550D01*
X017683Y007785D01*
X017668Y007800D01*
X018833Y007800D01*
X019233Y007400D01*
X019833Y007400D01*
X019933Y007300D01*
X020276Y007160D02*
X023113Y007160D01*
X023113Y007258D02*
X020303Y007258D01*
X020303Y007226D02*
X020303Y007374D01*
X020247Y007510D01*
X020177Y007580D01*
X020209Y007598D01*
X020237Y007626D01*
X020257Y007661D01*
X020267Y007699D01*
X020267Y007847D01*
X019968Y007847D01*
X019968Y007905D01*
X019911Y007905D01*
X019911Y008183D01*
X019743Y008183D01*
X019705Y008173D01*
X019670Y008153D01*
X019642Y008126D01*
X019623Y008091D01*
X019612Y008053D01*
X019612Y007905D01*
X019911Y007905D01*
X019911Y007847D01*
X019612Y007847D01*
X019612Y007699D01*
X019623Y007661D01*
X019642Y007626D01*
X019649Y007620D01*
X019324Y007620D01*
X018924Y008020D01*
X018055Y008020D01*
X018055Y008067D01*
X017955Y008167D01*
X017381Y008167D01*
X017319Y008105D01*
X017307Y008117D01*
X017273Y008137D01*
X017235Y008147D01*
X017047Y008147D01*
X017047Y007848D01*
X016950Y007848D01*
X016950Y007752D01*
X016632Y007752D01*
X016632Y007670D01*
X016424Y007670D01*
X016403Y007691D01*
X016403Y008427D01*
X016617Y008427D01*
X016932Y008427D01*
X016970Y008437D01*
X017004Y008457D01*
X017032Y008485D01*
X017052Y008519D01*
X017062Y008557D01*
X017062Y008675D01*
X016617Y008675D01*
X016617Y008675D01*
X016617Y008427D01*
X016617Y008675D01*
X016617Y008675D01*
X017062Y008675D01*
X017062Y008793D01*
X017060Y008800D01*
X017082Y008821D01*
X017082Y008940D01*
X017163Y008859D01*
X017163Y008726D01*
X017220Y008590D01*
X017324Y008486D01*
X017460Y008430D01*
X017607Y008430D01*
X017743Y008486D01*
X017783Y008527D01*
X017874Y008436D01*
X018010Y008380D01*
X018157Y008380D01*
X018293Y008436D01*
X018397Y008540D01*
X018453Y008676D01*
X018453Y008824D01*
X018397Y008960D01*
X018303Y009053D01*
X018303Y009541D01*
X018248Y009597D01*
X018343Y009636D01*
X018447Y009740D01*
X018503Y009876D01*
X018503Y010024D01*
X018447Y010160D01*
X018343Y010264D01*
X018207Y010320D01*
X018109Y010320D01*
X018135Y010383D01*
X018636Y010383D01*
X018683Y010431D01*
X018731Y010383D01*
X019305Y010383D01*
X019337Y010415D01*
X019592Y010160D01*
X019592Y009896D01*
X019692Y009797D01*
X020187Y009797D01*
X020287Y009896D01*
X020287Y010352D01*
X020187Y010451D01*
X019923Y010451D01*
X019806Y010569D01*
X019911Y010569D01*
X019911Y010847D01*
X019968Y010847D01*
X019968Y010569D01*
X020137Y010569D01*
X020175Y010579D01*
X020209Y010598D01*
X020237Y010626D01*
X020257Y010661D01*
X020267Y010699D01*
X020267Y010847D01*
X019968Y010847D01*
X019968Y010905D01*
X019911Y010905D01*
X019911Y011183D01*
X019743Y011183D01*
X019705Y011173D01*
X019670Y011153D01*
X019642Y011126D01*
X019623Y011091D01*
X019612Y011053D01*
X019612Y010905D01*
X019911Y010905D01*
X019911Y010847D01*
X019612Y010847D01*
X019612Y010762D01*
X019405Y010970D01*
X019405Y010970D01*
X019405Y011017D01*
X019305Y011117D01*
X018731Y011117D01*
X018683Y011069D01*
X018636Y011117D01*
X018062Y011117D01*
X018045Y011100D01*
X017660Y011100D01*
X017943Y011383D01*
X018286Y011383D01*
X018333Y011431D01*
X018381Y011383D01*
X018955Y011383D01*
X019055Y011483D01*
X019055Y011530D01*
X019592Y011530D01*
X019592Y011396D01*
X019692Y011297D01*
X020187Y011297D01*
X020287Y011396D01*
X020287Y011852D01*
X020187Y011951D01*
X019923Y011951D01*
X019905Y011970D01*
X019055Y011970D01*
X019055Y012017D01*
X018955Y012117D01*
X018381Y012117D01*
X018333Y012069D01*
X018286Y012117D01*
X017753Y012117D01*
X017753Y012429D01*
X017801Y012429D01*
X017900Y012528D01*
X017900Y013102D01*
X017852Y013150D01*
X017900Y013198D01*
X017900Y013772D01*
X017801Y013871D01*
X017553Y013871D01*
X017553Y015007D01*
X017639Y015042D01*
X017791Y015194D01*
X017844Y015322D01*
X017851Y015300D01*
X017889Y015227D01*
X017937Y015161D01*
X017995Y015103D01*
X018061Y015055D01*
X018134Y015018D01*
X018212Y014993D01*
X018283Y014981D01*
X018283Y015450D01*
X018383Y015450D01*
X018383Y014981D01*
X018455Y014993D01*
X018533Y015018D01*
X018606Y015055D01*
X018672Y015103D01*
X018730Y015161D01*
X018778Y015227D01*
X018815Y015300D01*
X018841Y015378D01*
X018852Y015450D01*
X018383Y015450D01*
X018383Y015550D01*
X018852Y015550D01*
X018841Y015622D01*
X018815Y015700D01*
X018778Y015773D01*
X018765Y015790D01*
X019397Y015790D01*
X019397Y014975D01*
X019497Y014876D01*
X019662Y014876D01*
X019662Y014260D01*
X020353Y013569D01*
X020313Y013474D01*
X020313Y013326D01*
X020370Y013190D01*
X020474Y013086D01*
X020610Y013030D01*
X020757Y013030D01*
X020893Y013086D01*
X020997Y013190D01*
X021053Y013326D01*
X021053Y013474D01*
X020997Y013610D01*
X020893Y013714D01*
X020787Y013758D01*
X020724Y013820D01*
X020102Y014442D01*
X020102Y014876D01*
X020268Y014876D01*
X020367Y014975D01*
X020367Y015790D01*
X020524Y015790D01*
X020520Y015774D01*
X020520Y015450D01*
X020935Y015450D01*
X020935Y015350D01*
X021035Y015350D01*
X021035Y015450D01*
X021449Y015450D01*
X021449Y015774D01*
X021445Y015790D01*
X024623Y015790D01*
X024623Y011714D01*
X024441Y011790D01*
X024226Y011790D01*
X024140Y011754D01*
X024090Y011805D01*
X023200Y011805D01*
X023200Y011872D01*
X023101Y011971D01*
X022566Y011971D01*
X022515Y011920D01*
X021994Y011920D01*
X021917Y011997D01*
X021450Y011997D01*
X021350Y011897D01*
X021350Y011508D01*
X021450Y011409D01*
X021917Y011409D01*
X021988Y011480D01*
X022442Y011480D01*
X022466Y011456D01*
X022466Y011298D01*
X022514Y011250D01*
X022466Y011202D01*
X022466Y011017D01*
X021991Y011017D01*
X021917Y011091D01*
X021700Y011091D01*
X021451Y011341D01*
X021322Y011470D01*
X021114Y011470D01*
X021114Y011478D01*
X021014Y011577D01*
X020519Y011577D01*
X020419Y011478D01*
X020419Y011022D01*
X020519Y010923D01*
X021014Y010923D01*
X021114Y011022D01*
X021114Y011030D01*
X021139Y011030D01*
X021350Y010820D01*
X021350Y010603D01*
X021450Y010503D01*
X021917Y010503D01*
X021991Y010577D01*
X022518Y010577D01*
X022566Y010529D01*
X022909Y010529D01*
X022966Y010471D01*
X022566Y010471D01*
X022470Y010375D01*
X022424Y010420D01*
X021994Y010420D01*
X021917Y010497D01*
X021450Y010497D01*
X021350Y010397D01*
X021350Y010008D01*
X021450Y009909D01*
X021917Y009909D01*
X021988Y009980D01*
X022242Y009980D01*
X022358Y009865D01*
X022466Y009865D01*
X022466Y009798D01*
X022514Y009750D01*
X022466Y009702D01*
X022466Y009517D01*
X021991Y009517D01*
X021917Y009591D01*
X021450Y009591D01*
X021376Y009517D01*
X021310Y009517D01*
X021114Y009714D01*
X021114Y009978D01*
X021014Y010077D01*
X020519Y010077D01*
X020419Y009978D01*
X020419Y009522D01*
X020519Y009423D01*
X020783Y009423D01*
X020999Y009206D01*
X021128Y009077D01*
X021376Y009077D01*
X021450Y009003D01*
X021917Y009003D01*
X021991Y009077D01*
X022518Y009077D01*
X022566Y009029D01*
X022909Y009029D01*
X022966Y008971D01*
X022566Y008971D01*
X022495Y008900D01*
X022474Y008920D01*
X021994Y008920D01*
X021917Y008997D01*
X021450Y008997D01*
X021350Y008897D01*
X021350Y008508D01*
X021450Y008409D01*
X021917Y008409D01*
X021988Y008480D01*
X022292Y008480D01*
X022408Y008365D01*
X022466Y008365D01*
X022466Y008298D01*
X022514Y008250D01*
X022466Y008202D01*
X022466Y008017D01*
X021991Y008017D01*
X021917Y008091D01*
X021450Y008091D01*
X021376Y008017D01*
X021310Y008017D01*
X021114Y008214D01*
X021114Y008478D01*
X021014Y008577D01*
X020519Y008577D01*
X020419Y008478D01*
X020419Y008022D01*
X020519Y007923D01*
X020783Y007923D01*
X020999Y007706D01*
X021128Y007577D01*
X021376Y007577D01*
X021450Y007503D01*
X021917Y007503D01*
X021991Y007577D01*
X022518Y007577D01*
X022566Y007529D01*
X022909Y007529D01*
X023113Y007324D01*
X023113Y006659D01*
X023613Y006159D01*
X023742Y006030D01*
X023840Y006030D01*
X023876Y005944D01*
X024027Y005792D01*
X024129Y005750D01*
X024027Y005708D01*
X023876Y005556D01*
X023822Y005428D01*
X023815Y005450D01*
X023778Y005523D01*
X023730Y005589D01*
X023672Y005647D01*
X023606Y005695D01*
X023533Y005732D01*
X023455Y005757D01*
X023383Y005769D01*
X023383Y005300D01*
X023283Y005300D01*
X023283Y005769D01*
X023212Y005757D01*
X023134Y005732D01*
X023061Y005695D01*
X022995Y005647D01*
X022937Y005589D01*
X022889Y005523D01*
X022851Y005450D01*
X022844Y005428D01*
X022791Y005556D01*
X022639Y005708D01*
X022553Y005743D01*
X022553Y006491D01*
X022424Y006620D01*
X021924Y007120D01*
X020259Y007120D01*
X020303Y007226D01*
X020303Y007357D02*
X023081Y007357D01*
X022983Y007455D02*
X020270Y007455D01*
X020203Y007554D02*
X021399Y007554D01*
X021219Y007797D02*
X021683Y007797D01*
X022715Y007797D01*
X022833Y007915D01*
X023333Y007415D01*
X023333Y006750D01*
X023833Y006250D01*
X024333Y006250D01*
X023862Y005978D02*
X022553Y005978D01*
X022553Y006076D02*
X023696Y006076D01*
X023598Y006175D02*
X022553Y006175D01*
X022553Y006273D02*
X023499Y006273D01*
X023401Y006372D02*
X022553Y006372D01*
X022553Y006470D02*
X023302Y006470D01*
X023204Y006569D02*
X022476Y006569D01*
X022377Y006667D02*
X023113Y006667D01*
X023113Y006766D02*
X022279Y006766D01*
X022180Y006864D02*
X023113Y006864D01*
X023113Y006963D02*
X022082Y006963D01*
X021983Y007061D02*
X023113Y007061D01*
X022541Y007554D02*
X021967Y007554D01*
X021219Y007797D02*
X020766Y008250D01*
X020419Y008243D02*
X019415Y008243D01*
X019450Y008278D02*
X019450Y008345D01*
X019643Y008345D01*
X019692Y008297D01*
X020187Y008297D01*
X020287Y008396D01*
X020287Y008852D01*
X020187Y008951D01*
X019692Y008951D01*
X019592Y008852D01*
X019592Y008785D01*
X019450Y008785D01*
X019450Y008852D01*
X019402Y008900D01*
X019450Y008948D01*
X019450Y009522D01*
X019351Y009621D01*
X019303Y009621D01*
X019303Y009697D01*
X019397Y009790D01*
X019453Y009926D01*
X019453Y010074D01*
X019397Y010210D01*
X019293Y010314D01*
X019157Y010370D01*
X019010Y010370D01*
X018874Y010314D01*
X018770Y010210D01*
X018713Y010074D01*
X018713Y009926D01*
X018770Y009790D01*
X018863Y009697D01*
X018863Y009621D01*
X018816Y009621D01*
X018716Y009522D01*
X018716Y008948D01*
X018764Y008900D01*
X018716Y008852D01*
X018716Y008278D01*
X018816Y008179D01*
X019351Y008179D01*
X019450Y008278D01*
X019450Y008342D02*
X019647Y008342D01*
X019881Y008565D02*
X019940Y008624D01*
X019825Y008624D01*
X019881Y008565D02*
X019083Y008565D01*
X018716Y008539D02*
X018395Y008539D01*
X018437Y008637D02*
X018716Y008637D01*
X018716Y008736D02*
X018453Y008736D01*
X018449Y008834D02*
X018716Y008834D01*
X018732Y008933D02*
X018408Y008933D01*
X018326Y009031D02*
X018716Y009031D01*
X018716Y009130D02*
X018303Y009130D01*
X018303Y009228D02*
X018716Y009228D01*
X018716Y009327D02*
X018303Y009327D01*
X018303Y009425D02*
X018716Y009425D01*
X018718Y009524D02*
X018303Y009524D01*
X018308Y009622D02*
X018863Y009622D01*
X018840Y009721D02*
X018427Y009721D01*
X018480Y009819D02*
X018758Y009819D01*
X018717Y009918D02*
X018503Y009918D01*
X018503Y010016D02*
X018713Y010016D01*
X018730Y010115D02*
X018466Y010115D01*
X018394Y010213D02*
X018773Y010213D01*
X018872Y010312D02*
X018227Y010312D01*
X017783Y010500D02*
X017633Y010650D01*
X017133Y010650D01*
X017048Y010565D01*
X016617Y010565D01*
X016617Y010880D02*
X018219Y010880D01*
X018349Y010750D01*
X018663Y010410D02*
X018704Y010410D01*
X019018Y010750D02*
X019314Y010750D01*
X019940Y010124D01*
X020287Y010115D02*
X021350Y010115D01*
X021350Y010213D02*
X020287Y010213D01*
X020287Y010312D02*
X021350Y010312D01*
X021363Y010410D02*
X020229Y010410D01*
X020217Y010607D02*
X021350Y010607D01*
X021350Y010706D02*
X020267Y010706D01*
X020267Y010804D02*
X021350Y010804D01*
X021267Y010903D02*
X019968Y010903D01*
X019968Y010905D02*
X020267Y010905D01*
X020267Y011053D01*
X020257Y011091D01*
X020237Y011126D01*
X020209Y011153D01*
X020175Y011173D01*
X020137Y011183D01*
X019968Y011183D01*
X019968Y010905D01*
X019911Y010903D02*
X019472Y010903D01*
X019405Y011001D02*
X019612Y011001D01*
X019627Y011100D02*
X019322Y011100D01*
X019911Y011100D02*
X019968Y011100D01*
X019968Y011001D02*
X019911Y011001D01*
X019911Y010804D02*
X019968Y010804D01*
X019968Y010706D02*
X019911Y010706D01*
X019911Y010607D02*
X019968Y010607D01*
X019866Y010509D02*
X021444Y010509D01*
X021683Y010203D02*
X021686Y010200D01*
X022333Y010200D01*
X022449Y010085D01*
X022833Y010085D01*
X023668Y009250D01*
X024333Y009250D01*
X023999Y008250D02*
X022833Y009415D01*
X022715Y009297D01*
X021683Y009297D01*
X021219Y009297D01*
X020766Y009750D01*
X020419Y009721D02*
X019327Y009721D01*
X019303Y009622D02*
X019640Y009622D01*
X019642Y009626D02*
X019623Y009591D01*
X019612Y009553D01*
X019612Y009405D01*
X019911Y009405D01*
X019911Y009683D01*
X019743Y009683D01*
X019705Y009673D01*
X019670Y009653D01*
X019642Y009626D01*
X019612Y009524D02*
X019448Y009524D01*
X019450Y009425D02*
X019612Y009425D01*
X019612Y009347D02*
X019612Y009199D01*
X019623Y009161D01*
X019642Y009126D01*
X019670Y009098D01*
X019705Y009079D01*
X019743Y009069D01*
X019911Y009069D01*
X019911Y009347D01*
X019968Y009347D01*
X019968Y009069D01*
X020137Y009069D01*
X020175Y009079D01*
X020209Y009098D01*
X020237Y009126D01*
X020257Y009161D01*
X020267Y009199D01*
X020267Y009347D01*
X019968Y009347D01*
X019968Y009405D01*
X019911Y009405D01*
X019911Y009347D01*
X019612Y009347D01*
X019612Y009327D02*
X019450Y009327D01*
X019450Y009228D02*
X019612Y009228D01*
X019641Y009130D02*
X019450Y009130D01*
X019450Y009031D02*
X021422Y009031D01*
X021385Y008933D02*
X020206Y008933D01*
X020287Y008834D02*
X021350Y008834D01*
X021350Y008736D02*
X020287Y008736D01*
X020287Y008637D02*
X021350Y008637D01*
X021350Y008539D02*
X021053Y008539D01*
X021114Y008440D02*
X021418Y008440D01*
X021114Y008342D02*
X022466Y008342D01*
X022507Y008243D02*
X021114Y008243D01*
X021183Y008145D02*
X022466Y008145D01*
X022466Y008046D02*
X021962Y008046D01*
X021404Y008046D02*
X021282Y008046D01*
X020856Y007849D02*
X019968Y007849D01*
X019968Y007905D02*
X020267Y007905D01*
X020267Y008053D01*
X020257Y008091D01*
X020237Y008126D01*
X020209Y008153D01*
X020175Y008173D01*
X020137Y008183D01*
X019968Y008183D01*
X019968Y007905D01*
X019968Y007948D02*
X019911Y007948D01*
X019911Y008046D02*
X019968Y008046D01*
X019968Y008145D02*
X019911Y008145D01*
X019661Y008145D02*
X017977Y008145D01*
X018055Y008046D02*
X019612Y008046D01*
X019612Y007948D02*
X018997Y007948D01*
X019095Y007849D02*
X019911Y007849D01*
X019612Y007751D02*
X019194Y007751D01*
X019292Y007652D02*
X019628Y007652D01*
X019233Y007400D02*
X019733Y006900D01*
X021833Y006900D01*
X022333Y006400D01*
X022333Y005250D01*
X021833Y005046D02*
X021876Y004944D01*
X022027Y004792D01*
X022226Y004710D01*
X022441Y004710D01*
X022639Y004792D01*
X022791Y004944D01*
X022844Y005072D01*
X022851Y005050D01*
X022889Y004977D01*
X022937Y004911D01*
X022995Y004853D01*
X023061Y004805D01*
X023134Y004768D01*
X023212Y004743D01*
X023283Y004731D01*
X023283Y005200D01*
X023383Y005200D01*
X023383Y004731D01*
X023455Y004743D01*
X023533Y004768D01*
X023606Y004805D01*
X023672Y004853D01*
X023730Y004911D01*
X023778Y004977D01*
X023815Y005050D01*
X023822Y005072D01*
X023876Y004944D01*
X024027Y004792D01*
X024226Y004710D01*
X024441Y004710D01*
X024623Y004786D01*
X024623Y004710D01*
X018201Y004710D01*
X019381Y005930D01*
X019507Y005930D01*
X019643Y005986D01*
X019747Y006090D01*
X019801Y006221D01*
X019892Y006130D01*
X020262Y006130D01*
X020262Y006083D01*
X020362Y005983D01*
X020936Y005983D01*
X020983Y006031D01*
X021031Y005983D01*
X021098Y005983D01*
X021098Y005737D01*
X021027Y005708D01*
X020876Y005556D01*
X020833Y005454D01*
X020791Y005556D01*
X020639Y005708D01*
X020441Y005790D01*
X020226Y005790D01*
X020027Y005708D01*
X019876Y005556D01*
X019793Y005357D01*
X019793Y005143D01*
X019876Y004944D01*
X020027Y004792D01*
X020226Y004710D01*
X020441Y004710D01*
X020639Y004792D01*
X020791Y004944D01*
X020833Y005046D01*
X020876Y004944D01*
X021027Y004792D01*
X021226Y004710D01*
X021441Y004710D01*
X021639Y004792D01*
X021791Y004944D01*
X021833Y005046D01*
X021811Y004993D02*
X021855Y004993D01*
X021926Y004894D02*
X021741Y004894D01*
X021643Y004796D02*
X022024Y004796D01*
X022643Y004796D02*
X023080Y004796D01*
X022954Y004894D02*
X022741Y004894D01*
X022811Y004993D02*
X022881Y004993D01*
X023283Y004993D02*
X023383Y004993D01*
X023383Y005091D02*
X023283Y005091D01*
X023283Y005190D02*
X023383Y005190D01*
X023383Y005387D02*
X023283Y005387D01*
X023283Y005485D02*
X023383Y005485D01*
X023383Y005584D02*
X023283Y005584D01*
X023283Y005682D02*
X023383Y005682D01*
X023623Y005682D02*
X024002Y005682D01*
X024056Y005781D02*
X022553Y005781D01*
X022553Y005879D02*
X023941Y005879D01*
X023903Y005584D02*
X023734Y005584D01*
X023797Y005485D02*
X023846Y005485D01*
X023043Y005682D02*
X022665Y005682D01*
X022764Y005584D02*
X022933Y005584D01*
X022869Y005485D02*
X022820Y005485D01*
X023786Y004993D02*
X023855Y004993D01*
X023926Y004894D02*
X023713Y004894D01*
X023587Y004796D02*
X024024Y004796D01*
X023383Y004796D02*
X023283Y004796D01*
X023283Y004894D02*
X023383Y004894D01*
X021333Y005250D02*
X021318Y005265D01*
X021318Y006350D01*
X020649Y006350D02*
X019983Y006350D01*
X018733Y007600D01*
X018283Y007600D01*
X017933Y007250D01*
X015983Y007250D01*
X015908Y007325D01*
X015908Y007967D01*
X016403Y007948D02*
X016632Y007948D01*
X016632Y008017D02*
X016632Y007848D01*
X016950Y007848D01*
X016950Y008147D01*
X016762Y008147D01*
X016724Y008137D01*
X016690Y008117D01*
X016662Y008089D01*
X016642Y008055D01*
X016632Y008017D01*
X016640Y008046D02*
X016403Y008046D01*
X016403Y008145D02*
X016754Y008145D01*
X016950Y008145D02*
X017047Y008145D01*
X017047Y008046D02*
X016950Y008046D01*
X016950Y007948D02*
X017047Y007948D01*
X017047Y007849D02*
X016950Y007849D01*
X016632Y007849D02*
X016403Y007849D01*
X016403Y007751D02*
X016632Y007751D01*
X017244Y008145D02*
X017359Y008145D01*
X017436Y008440D02*
X016975Y008440D01*
X017057Y008539D02*
X017272Y008539D01*
X017200Y008637D02*
X017062Y008637D01*
X017062Y008736D02*
X017163Y008736D01*
X017163Y008834D02*
X017082Y008834D01*
X017082Y008933D02*
X017090Y008933D01*
X017028Y009305D02*
X017533Y008800D01*
X017631Y008440D02*
X017870Y008440D01*
X018083Y008750D02*
X018083Y009450D01*
X017913Y009620D01*
X016617Y009620D01*
X017033Y009950D02*
X017133Y009850D01*
X017583Y009850D01*
X017683Y009950D01*
X018133Y009950D01*
X017333Y010250D02*
X016617Y010250D01*
X016632Y009950D02*
X017033Y009950D01*
X016632Y009950D02*
X016617Y009935D01*
X016152Y009918D02*
X015627Y009918D01*
X015576Y009969D02*
X015647Y010040D01*
X015703Y010176D01*
X015703Y010324D01*
X015647Y010460D01*
X015553Y010553D01*
X015553Y011359D01*
X016103Y011909D01*
X016103Y012095D01*
X016177Y012168D01*
X016177Y012899D01*
X016143Y012933D01*
X016424Y013215D01*
X016539Y013329D01*
X016601Y013329D01*
X016700Y013428D01*
X016700Y014002D01*
X016638Y014064D01*
X016650Y014076D01*
X016670Y014110D01*
X016680Y014148D01*
X016680Y014336D01*
X016382Y014336D01*
X016382Y014433D01*
X016680Y014433D01*
X016680Y014621D01*
X016670Y014659D01*
X016650Y014693D01*
X016622Y014721D01*
X016588Y014741D01*
X016550Y014751D01*
X016382Y014751D01*
X016382Y014433D01*
X016285Y014433D01*
X016285Y014751D01*
X016117Y014751D01*
X016079Y014741D01*
X016053Y014726D01*
X016053Y014890D01*
X016061Y014971D01*
X016053Y014980D01*
X016053Y014991D01*
X015996Y015049D01*
X015819Y015261D01*
X015844Y015322D01*
X015851Y015300D01*
X015889Y015227D01*
X015937Y015161D01*
X015995Y015103D01*
X016061Y015055D01*
X016134Y015018D01*
X016212Y014993D01*
X016283Y014981D01*
X016283Y015450D01*
X016383Y015450D01*
X016383Y014981D01*
X016455Y014993D01*
X016533Y015018D01*
X016606Y015055D01*
X016672Y015103D01*
X016730Y015161D01*
X016778Y015227D01*
X016815Y015300D01*
X016822Y015322D01*
X016876Y015194D01*
X017027Y015042D01*
X017113Y015007D01*
X017113Y013594D01*
X017166Y013540D01*
X017166Y013198D01*
X017214Y013150D01*
X017166Y013102D01*
X017166Y012528D01*
X017266Y012429D01*
X017313Y012429D01*
X017313Y011941D01*
X017092Y011720D01*
X017062Y011720D01*
X017062Y011825D01*
X017062Y011943D01*
X017052Y011981D01*
X017032Y012015D01*
X017004Y012043D01*
X016970Y012063D01*
X016932Y012073D01*
X016617Y012073D01*
X016617Y011825D01*
X017062Y011825D01*
X016617Y011825D01*
X016617Y011825D01*
X016617Y011825D01*
X016617Y012073D01*
X016302Y012073D01*
X016264Y012063D01*
X016229Y012043D01*
X016201Y012015D01*
X016182Y011981D01*
X016172Y011943D01*
X016172Y011825D01*
X016617Y011825D01*
X016617Y011825D01*
X016172Y011825D01*
X016172Y011707D01*
X016173Y011700D01*
X016152Y011679D01*
X016152Y009393D01*
X016124Y009420D01*
X015576Y009969D01*
X015623Y010016D02*
X016152Y010016D01*
X016152Y010115D02*
X015678Y010115D01*
X015703Y010213D02*
X016152Y010213D01*
X016152Y010312D02*
X015703Y010312D01*
X015668Y010410D02*
X016152Y010410D01*
X016152Y010509D02*
X015598Y010509D01*
X015553Y010607D02*
X016152Y010607D01*
X016152Y010706D02*
X015553Y010706D01*
X015553Y010804D02*
X016152Y010804D01*
X016152Y010903D02*
X015553Y010903D01*
X015553Y011001D02*
X016152Y011001D01*
X016152Y011100D02*
X015553Y011100D01*
X015553Y011198D02*
X016152Y011198D01*
X016152Y011297D02*
X015553Y011297D01*
X015589Y011395D02*
X016152Y011395D01*
X016152Y011494D02*
X015688Y011494D01*
X015786Y011592D02*
X016152Y011592D01*
X016163Y011691D02*
X015885Y011691D01*
X015983Y011789D02*
X016172Y011789D01*
X016172Y011888D02*
X016082Y011888D01*
X016103Y011986D02*
X016185Y011986D01*
X016103Y012085D02*
X017313Y012085D01*
X017313Y012183D02*
X016177Y012183D01*
X016177Y012282D02*
X017313Y012282D01*
X017313Y012380D02*
X016177Y012380D01*
X016177Y012479D02*
X017216Y012479D01*
X017166Y012577D02*
X016177Y012577D01*
X016177Y012676D02*
X017166Y012676D01*
X017166Y012774D02*
X016177Y012774D01*
X016177Y012873D02*
X017166Y012873D01*
X017166Y012971D02*
X016181Y012971D01*
X016279Y013070D02*
X017166Y013070D01*
X017196Y013168D02*
X016378Y013168D01*
X016476Y013267D02*
X017166Y013267D01*
X017166Y013365D02*
X016637Y013365D01*
X016700Y013464D02*
X017166Y013464D01*
X017145Y013562D02*
X016700Y013562D01*
X016700Y013661D02*
X017113Y013661D01*
X017113Y013759D02*
X016700Y013759D01*
X016700Y013858D02*
X017113Y013858D01*
X017113Y013956D02*
X016700Y013956D01*
X016648Y014055D02*
X017113Y014055D01*
X017113Y014153D02*
X016680Y014153D01*
X016680Y014252D02*
X017113Y014252D01*
X017113Y014350D02*
X016382Y014350D01*
X016382Y014449D02*
X016285Y014449D01*
X016285Y014547D02*
X016382Y014547D01*
X016382Y014646D02*
X016285Y014646D01*
X016285Y014744D02*
X016382Y014744D01*
X016577Y014744D02*
X017113Y014744D01*
X017113Y014646D02*
X016674Y014646D01*
X016680Y014547D02*
X017113Y014547D01*
X017113Y014449D02*
X016680Y014449D01*
X017113Y014843D02*
X016053Y014843D01*
X016058Y014941D02*
X017113Y014941D01*
X017034Y015040D02*
X016575Y015040D01*
X016707Y015138D02*
X016932Y015138D01*
X016858Y015237D02*
X016783Y015237D01*
X016383Y015237D02*
X016283Y015237D01*
X016283Y015335D02*
X016383Y015335D01*
X016383Y015434D02*
X016283Y015434D01*
X016283Y015138D02*
X016383Y015138D01*
X016383Y015040D02*
X016283Y015040D01*
X016092Y015040D02*
X016005Y015040D01*
X015960Y015138D02*
X015921Y015138D01*
X015884Y015237D02*
X015839Y015237D01*
X015483Y014977D02*
X015613Y014820D01*
X015613Y014331D01*
X015403Y014541D01*
X015274Y014670D01*
X015137Y014670D01*
X015043Y014764D01*
X014907Y014820D01*
X014760Y014820D01*
X014624Y014764D01*
X014533Y014673D01*
X014524Y014705D01*
X014505Y014739D01*
X014477Y014767D01*
X014442Y014787D01*
X014404Y014797D01*
X014216Y014797D01*
X014216Y014498D01*
X014120Y014498D01*
X014120Y014797D01*
X013932Y014797D01*
X013894Y014787D01*
X013859Y014767D01*
X013847Y014755D01*
X013786Y014817D01*
X013237Y014817D01*
X013152Y014902D01*
X012553Y014902D01*
X012553Y015007D01*
X012639Y015042D01*
X012791Y015194D01*
X012833Y015296D01*
X012876Y015194D01*
X013027Y015042D01*
X013226Y014960D01*
X013441Y014960D01*
X013639Y015042D01*
X013791Y015194D01*
X013844Y015322D01*
X013851Y015300D01*
X013889Y015227D01*
X013937Y015161D01*
X013995Y015103D01*
X014061Y015055D01*
X014134Y015018D01*
X014212Y014993D01*
X014283Y014981D01*
X014283Y015450D01*
X014383Y015450D01*
X014383Y014981D01*
X014455Y014993D01*
X014533Y015018D01*
X014606Y015055D01*
X014672Y015103D01*
X014730Y015161D01*
X014778Y015227D01*
X014815Y015300D01*
X014822Y015322D01*
X014876Y015194D01*
X015027Y015042D01*
X015226Y014960D01*
X015441Y014960D01*
X015483Y014977D01*
X015513Y014941D02*
X012553Y014941D01*
X012633Y015040D02*
X013034Y015040D01*
X012932Y015138D02*
X012735Y015138D01*
X012809Y015237D02*
X012858Y015237D01*
X013212Y014843D02*
X015595Y014843D01*
X015613Y014744D02*
X015063Y014744D01*
X015299Y014646D02*
X015613Y014646D01*
X015613Y014547D02*
X015397Y014547D01*
X015496Y014449D02*
X015613Y014449D01*
X015613Y014350D02*
X015594Y014350D01*
X015583Y014050D02*
X015183Y014450D01*
X014833Y014450D01*
X014604Y014744D02*
X014499Y014744D01*
X014216Y014744D02*
X014120Y014744D01*
X014120Y014646D02*
X014216Y014646D01*
X014216Y014547D02*
X014120Y014547D01*
X014120Y014402D02*
X014216Y014402D01*
X014216Y014103D01*
X014404Y014103D01*
X014442Y014113D01*
X014477Y014133D01*
X014505Y014161D01*
X014524Y014195D01*
X014533Y014227D01*
X014624Y014136D01*
X014760Y014080D01*
X014907Y014080D01*
X015043Y014136D01*
X015114Y014208D01*
X015363Y013959D01*
X015363Y013591D01*
X015242Y013470D01*
X014535Y013470D01*
X014535Y013552D01*
X014216Y013552D01*
X014216Y013253D01*
X014275Y013253D01*
X014113Y013091D01*
X014113Y012999D01*
X013872Y012999D01*
X013753Y012999D01*
X013753Y013233D01*
X013786Y013233D01*
X013847Y013295D01*
X013859Y013283D01*
X013894Y013263D01*
X013932Y013253D01*
X014120Y013253D01*
X014120Y013552D01*
X014216Y013552D01*
X014216Y013648D01*
X014535Y013648D01*
X014535Y013817D01*
X014524Y013855D01*
X014505Y013889D01*
X014477Y013917D01*
X014442Y013937D01*
X014404Y013947D01*
X014216Y013947D01*
X014216Y013648D01*
X014120Y013648D01*
X014120Y013947D01*
X013932Y013947D01*
X013894Y013937D01*
X013859Y013917D01*
X013847Y013905D01*
X013786Y013967D01*
X013719Y013967D01*
X013719Y014083D01*
X013786Y014083D01*
X013847Y014145D01*
X013859Y014133D01*
X013894Y014113D01*
X013932Y014103D01*
X014120Y014103D01*
X014120Y014402D01*
X014120Y014350D02*
X014216Y014350D01*
X014216Y014252D02*
X014120Y014252D01*
X014120Y014153D02*
X014216Y014153D01*
X014497Y014153D02*
X014607Y014153D01*
X015060Y014153D02*
X015169Y014153D01*
X015268Y014055D02*
X013719Y014055D01*
X013796Y013956D02*
X015363Y013956D01*
X015363Y013858D02*
X014523Y013858D01*
X014535Y013759D02*
X015363Y013759D01*
X015363Y013661D02*
X014535Y013661D01*
X014216Y013661D02*
X014120Y013661D01*
X014120Y013759D02*
X014216Y013759D01*
X014216Y013858D02*
X014120Y013858D01*
X014216Y013562D02*
X015334Y013562D01*
X015583Y013500D02*
X015333Y013250D01*
X014583Y013250D01*
X014333Y013000D01*
X014333Y012533D01*
X014648Y012533D02*
X014683Y012569D01*
X014683Y012950D01*
X014783Y013050D01*
X015483Y013050D01*
X015833Y013400D01*
X015833Y014900D01*
X015333Y015500D01*
X014932Y015138D02*
X014707Y015138D01*
X014783Y015237D02*
X014858Y015237D01*
X015034Y015040D02*
X014575Y015040D01*
X014383Y015040D02*
X014283Y015040D01*
X014283Y015138D02*
X014383Y015138D01*
X014383Y015237D02*
X014283Y015237D01*
X014283Y015335D02*
X014383Y015335D01*
X014383Y015434D02*
X014283Y015434D01*
X013960Y015138D02*
X013735Y015138D01*
X013809Y015237D02*
X013884Y015237D01*
X014092Y015040D02*
X013633Y015040D01*
X013499Y014450D02*
X012919Y014550D01*
X012845Y014624D01*
X013499Y014450D02*
X013499Y013600D01*
X013533Y013715D01*
X013533Y013090D01*
X013388Y012945D01*
X013388Y012533D01*
X013383Y012528D01*
X013383Y012050D01*
X013676Y012068D02*
X013872Y012068D01*
X015447Y012068D01*
X015469Y012090D01*
X015475Y012088D01*
X015593Y012088D01*
X015593Y012533D01*
X015593Y012533D01*
X015593Y012088D01*
X015660Y012088D01*
X015242Y011670D01*
X014074Y011670D01*
X013676Y012068D01*
X013758Y011986D02*
X015558Y011986D01*
X015463Y012085D02*
X015657Y012085D01*
X015593Y012183D02*
X015593Y012183D01*
X015593Y012282D02*
X015593Y012282D01*
X015593Y012380D02*
X015593Y012380D01*
X015593Y012479D02*
X015593Y012479D01*
X015883Y012509D02*
X015883Y012000D01*
X015333Y011450D01*
X015263Y011691D02*
X014054Y011691D01*
X013955Y011789D02*
X015361Y011789D01*
X015460Y011888D02*
X013857Y011888D01*
X012733Y011900D02*
X012733Y012508D01*
X012759Y012533D01*
X012490Y012577D02*
X012430Y012577D01*
X012430Y012514D02*
X012430Y012702D01*
X012420Y012740D01*
X012400Y012774D01*
X012490Y012774D01*
X012450Y012848D02*
X012450Y013422D01*
X012408Y013464D01*
X012542Y013598D01*
X013112Y013598D01*
X013112Y013333D01*
X013212Y013233D01*
X013313Y013233D01*
X013313Y013181D01*
X013297Y013165D01*
X013168Y013036D01*
X013168Y012979D01*
X013073Y012979D01*
X012955Y012979D01*
X012949Y012977D01*
X012927Y012999D01*
X012590Y012999D01*
X012490Y012899D01*
X012490Y012168D01*
X012513Y012145D01*
X012513Y011995D01*
X012416Y012093D01*
X011684Y012093D01*
X011585Y011994D01*
X011585Y011420D01*
X011454Y011420D01*
X011477Y011433D01*
X011505Y011461D01*
X011524Y011495D01*
X011535Y011533D01*
X011535Y011702D01*
X011216Y011702D01*
X011216Y011798D01*
X011535Y011798D01*
X011535Y011967D01*
X011524Y012005D01*
X011505Y012039D01*
X011477Y012067D01*
X011442Y012087D01*
X011404Y012097D01*
X011216Y012097D01*
X011216Y011798D01*
X011120Y011798D01*
X011120Y012097D01*
X010932Y012097D01*
X010894Y012087D01*
X010859Y012067D01*
X010847Y012055D01*
X010786Y012117D01*
X010212Y012117D01*
X010176Y012081D01*
X009986Y012271D01*
X009986Y012545D01*
X009886Y012644D01*
X009529Y012644D01*
X009429Y012545D01*
X009429Y011932D01*
X009491Y011870D01*
X009410Y011870D01*
X009274Y011814D01*
X009179Y011719D01*
X009179Y011873D01*
X009238Y011932D01*
X009238Y012545D01*
X009138Y012644D01*
X008864Y012644D01*
X008419Y013089D01*
X008419Y013575D01*
X008320Y013674D01*
X007704Y013674D01*
X007227Y014130D01*
X007291Y014194D01*
X007373Y014393D01*
X007373Y014607D01*
X007291Y014806D01*
X007139Y014958D01*
X007037Y015000D01*
X007139Y015042D01*
X007291Y015194D01*
X007347Y015330D01*
X008440Y015330D01*
X008420Y015310D01*
X008363Y015174D01*
X008363Y015041D01*
X008146Y014824D01*
X008032Y014709D01*
X007916Y014709D01*
X007817Y014610D01*
X007817Y013890D01*
X007916Y013791D01*
X008316Y013791D01*
X008681Y013324D01*
X008681Y012955D01*
X008781Y012856D01*
X009138Y012856D01*
X009168Y012886D01*
X009205Y012876D01*
X009329Y012876D01*
X009329Y013258D01*
X009337Y013258D01*
X009337Y012876D01*
X009461Y012876D01*
X009499Y012886D01*
X009529Y012856D01*
X009802Y012856D01*
X009999Y012659D01*
X010112Y012546D01*
X010112Y012483D01*
X010212Y012383D01*
X010786Y012383D01*
X010833Y012431D01*
X010881Y012383D01*
X011455Y012383D01*
X011555Y012483D01*
X011555Y013017D01*
X011455Y013117D01*
X011278Y013117D01*
X011259Y013135D01*
X011159Y013135D01*
X010774Y013520D01*
X010424Y013520D01*
X010154Y013791D01*
X010250Y013791D01*
X010350Y013890D01*
X010350Y013980D01*
X010680Y013980D01*
X010774Y013886D01*
X010910Y013830D01*
X011057Y013830D01*
X011193Y013886D01*
X011297Y013990D01*
X011353Y014126D01*
X011353Y014259D01*
X011435Y014341D01*
X011435Y014254D01*
X011817Y014254D01*
X011817Y014246D01*
X011435Y014246D01*
X011435Y014122D01*
X011445Y014085D01*
X011415Y014055D01*
X011415Y013697D01*
X011515Y013598D01*
X011920Y013598D01*
X011863Y013541D01*
X011863Y013521D01*
X011816Y013521D01*
X011716Y013422D01*
X011716Y012848D01*
X011778Y012786D01*
X011766Y012774D01*
X011747Y012740D01*
X011736Y012702D01*
X011736Y012514D01*
X012035Y012514D01*
X012035Y012417D01*
X012132Y012417D01*
X012132Y012514D01*
X012430Y012514D01*
X012490Y012479D02*
X012132Y012479D01*
X012132Y012417D02*
X012430Y012417D01*
X012430Y012229D01*
X012420Y012191D01*
X012400Y012157D01*
X012372Y012129D01*
X012338Y012109D01*
X012300Y012099D01*
X012132Y012099D01*
X012132Y012417D01*
X012132Y012380D02*
X012035Y012380D01*
X012035Y012417D02*
X012035Y012099D01*
X011867Y012099D01*
X011829Y012109D01*
X011794Y012129D01*
X011766Y012157D01*
X011747Y012191D01*
X011736Y012229D01*
X011736Y012417D01*
X012035Y012417D01*
X012035Y012479D02*
X011550Y012479D01*
X011555Y012577D02*
X011736Y012577D01*
X011736Y012676D02*
X011555Y012676D01*
X011555Y012774D02*
X011766Y012774D01*
X011716Y012873D02*
X011555Y012873D01*
X011555Y012971D02*
X011716Y012971D01*
X011716Y013070D02*
X011502Y013070D01*
X011716Y013168D02*
X011126Y013168D01*
X011028Y013267D02*
X011716Y013267D01*
X011716Y013365D02*
X010929Y013365D01*
X010831Y013464D02*
X011758Y013464D01*
X011884Y013562D02*
X010382Y013562D01*
X010284Y013661D02*
X011452Y013661D01*
X011415Y013759D02*
X010185Y013759D01*
X010317Y013858D02*
X010843Y013858D01*
X010704Y013956D02*
X010350Y013956D01*
X009980Y014200D02*
X010983Y014200D01*
X011333Y014550D01*
X011333Y015500D01*
X012333Y015500D02*
X012333Y014050D01*
X012133Y013850D01*
X011847Y013850D01*
X011821Y013876D01*
X011415Y013858D02*
X011123Y013858D01*
X011263Y013956D02*
X011415Y013956D01*
X011415Y014055D02*
X011324Y014055D01*
X011353Y014153D02*
X011435Y014153D01*
X011353Y014252D02*
X011817Y014252D01*
X011797Y014600D02*
X011383Y014600D01*
X011333Y014550D01*
X011797Y014600D02*
X011821Y014624D01*
X012483Y013850D02*
X012083Y013450D01*
X012083Y013135D01*
X012450Y013168D02*
X013300Y013168D01*
X013202Y013070D02*
X012450Y013070D01*
X012450Y012971D02*
X012562Y012971D01*
X012490Y012873D02*
X012450Y012873D01*
X012450Y012848D02*
X012388Y012786D01*
X012400Y012774D01*
X012430Y012676D02*
X012490Y012676D01*
X012490Y012380D02*
X012430Y012380D01*
X012430Y012282D02*
X012490Y012282D01*
X012490Y012183D02*
X012415Y012183D01*
X012424Y012085D02*
X012513Y012085D01*
X012132Y012183D02*
X012035Y012183D01*
X012035Y012282D02*
X012132Y012282D01*
X011751Y012183D02*
X010074Y012183D01*
X009986Y012282D02*
X011736Y012282D01*
X011736Y012380D02*
X009986Y012380D01*
X009986Y012479D02*
X010116Y012479D01*
X010081Y012577D02*
X009953Y012577D01*
X009983Y012676D02*
X008833Y012676D01*
X008735Y012774D02*
X009884Y012774D01*
X010219Y012750D02*
X010499Y012750D01*
X010219Y012750D02*
X009707Y013262D01*
X009337Y013168D02*
X009329Y013168D01*
X009329Y013070D02*
X009337Y013070D01*
X009329Y012971D02*
X009337Y012971D01*
X009512Y012873D02*
X009155Y012873D01*
X009205Y012577D02*
X009461Y012577D01*
X009429Y012479D02*
X009238Y012479D01*
X009238Y012380D02*
X009429Y012380D01*
X009429Y012282D02*
X009238Y012282D01*
X009238Y012183D02*
X009429Y012183D01*
X009429Y012085D02*
X009238Y012085D01*
X009238Y011986D02*
X009429Y011986D01*
X009473Y011888D02*
X009194Y011888D01*
X009179Y011789D02*
X009249Y011789D01*
X009483Y011500D02*
X009383Y011400D01*
X008933Y011400D01*
X008959Y011426D01*
X008959Y012238D01*
X008047Y013150D01*
X007935Y013150D01*
X006833Y014201D01*
X006833Y014500D01*
X007317Y014744D02*
X008066Y014744D01*
X008165Y014843D02*
X007254Y014843D01*
X007156Y014941D02*
X008263Y014941D01*
X008362Y015040D02*
X007133Y015040D01*
X007235Y015138D02*
X008363Y015138D01*
X008389Y015237D02*
X007309Y015237D01*
X006883Y015550D02*
X009383Y015550D01*
X009633Y015300D01*
X009633Y015000D01*
X009383Y014750D01*
X009333Y014750D01*
X008983Y014400D01*
X008983Y014150D01*
X009383Y013750D01*
X009883Y013750D01*
X010333Y013300D01*
X010683Y013300D01*
X011168Y012815D01*
X011168Y012750D01*
X011168Y012915D01*
X012450Y013267D02*
X013178Y013267D01*
X013112Y013365D02*
X012450Y013365D01*
X012408Y013464D02*
X013112Y013464D01*
X013112Y013562D02*
X012506Y013562D01*
X012483Y013850D02*
X012819Y013850D01*
X012845Y013876D01*
X013819Y013267D02*
X013888Y013267D01*
X013753Y013168D02*
X014190Y013168D01*
X014216Y013267D02*
X014120Y013267D01*
X014120Y013365D02*
X014216Y013365D01*
X014216Y013464D02*
X014120Y013464D01*
X014113Y013070D02*
X013753Y013070D01*
X013073Y012979D02*
X013073Y012533D01*
X013073Y012979D01*
X013073Y012971D02*
X013073Y012971D01*
X013073Y012873D02*
X013073Y012873D01*
X013073Y012774D02*
X013073Y012774D01*
X013073Y012676D02*
X013073Y012676D01*
X013073Y012577D02*
X013073Y012577D01*
X013073Y012533D02*
X013073Y012533D01*
X011675Y012085D02*
X011446Y012085D01*
X011529Y011986D02*
X011585Y011986D01*
X011585Y011888D02*
X011535Y011888D01*
X011585Y011789D02*
X011216Y011789D01*
X011216Y011888D02*
X011120Y011888D01*
X011120Y011986D02*
X011216Y011986D01*
X011216Y012085D02*
X011120Y012085D01*
X010890Y012085D02*
X010818Y012085D01*
X010179Y012085D02*
X010172Y012085D01*
X010195Y011750D02*
X010499Y011750D01*
X010195Y011750D02*
X009707Y012238D01*
X008681Y012183D02*
X007247Y012183D01*
X007299Y012085D02*
X008681Y012085D01*
X008681Y011986D02*
X007299Y011986D01*
X007299Y011888D02*
X008725Y011888D01*
X008739Y011789D02*
X007299Y011789D01*
X007299Y011691D02*
X008739Y011691D01*
X008739Y011592D02*
X007299Y011592D01*
X007299Y011494D02*
X008666Y011494D01*
X008567Y011395D02*
X007299Y011395D01*
X007299Y011297D02*
X007539Y011297D01*
X007422Y011198D02*
X007215Y011198D01*
X007376Y011100D02*
X006543Y011100D01*
X006543Y011001D02*
X007362Y011001D01*
X007374Y010903D02*
X007209Y010903D01*
X007299Y010804D02*
X007416Y010804D01*
X007451Y010706D02*
X007299Y010706D01*
X007299Y010607D02*
X007451Y010607D01*
X007451Y010509D02*
X007299Y010509D01*
X007299Y010410D02*
X007451Y010410D01*
X007451Y010312D02*
X007299Y010312D01*
X007299Y010213D02*
X007451Y010213D01*
X007451Y010115D02*
X007299Y010115D01*
X007299Y010016D02*
X007451Y010016D01*
X007451Y009918D02*
X007299Y009918D01*
X007299Y009819D02*
X007471Y009819D01*
X007441Y009721D02*
X007299Y009721D01*
X007233Y009622D02*
X007384Y009622D01*
X007362Y009524D02*
X006543Y009524D01*
X006543Y009425D02*
X007366Y009425D01*
X007407Y009327D02*
X006543Y009327D01*
X007289Y009228D02*
X007496Y009228D01*
X008317Y009622D02*
X008673Y009622D01*
X008612Y009721D02*
X008322Y009721D01*
X008322Y009819D02*
X008495Y009819D01*
X008405Y009918D02*
X008342Y009918D01*
X008633Y010000D02*
X008999Y009950D01*
X008633Y010000D02*
X008383Y010250D01*
X007896Y010250D01*
X007896Y010506D02*
X008589Y010506D01*
X008783Y010700D01*
X008949Y010700D01*
X008999Y010750D01*
X008883Y011400D02*
X008245Y010762D01*
X007896Y010762D01*
X007908Y010750D01*
X008023Y011100D02*
X008272Y011100D01*
X008370Y011198D02*
X007977Y011198D01*
X007860Y011297D02*
X008469Y011297D01*
X008883Y011400D02*
X008933Y011400D01*
X009668Y010750D02*
X010483Y010750D01*
X010933Y011200D01*
X012045Y011200D01*
X012050Y011195D01*
X012050Y010880D02*
X012020Y010850D01*
X010883Y010850D01*
X011523Y011494D02*
X011585Y011494D01*
X011585Y011592D02*
X011535Y011592D01*
X011535Y011691D02*
X011585Y011691D01*
X012633Y010100D02*
X013183Y010650D01*
X014533Y010650D01*
X014883Y010300D01*
X014883Y009800D01*
X014333Y009250D01*
X013933Y009150D02*
X013733Y009150D01*
X013483Y008900D01*
X013483Y008650D01*
X013383Y008550D01*
X013383Y007972D01*
X013388Y007967D01*
X013388Y007555D01*
X013333Y007500D01*
X012483Y007500D01*
X012283Y007300D01*
X011933Y007300D01*
X011883Y007250D01*
X011883Y007015D01*
X011283Y006415D01*
X010916Y006372D02*
X009367Y006372D01*
X009364Y006470D02*
X010916Y006470D01*
X010916Y006569D02*
X009463Y006569D01*
X009561Y006667D02*
X010916Y006667D01*
X010949Y006766D02*
X009660Y006766D01*
X009758Y006864D02*
X010916Y006864D01*
X011283Y007085D02*
X009668Y007085D01*
X008833Y006250D01*
X009373Y006273D02*
X010916Y006273D01*
X010916Y006175D02*
X009373Y006175D01*
X009346Y006076D02*
X010921Y006076D01*
X010916Y005978D02*
X009305Y005978D01*
X009226Y005879D02*
X010916Y005879D01*
X010916Y005781D02*
X009111Y005781D01*
X009165Y005682D02*
X010916Y005682D01*
X010916Y005584D02*
X009264Y005584D01*
X009320Y005485D02*
X010929Y005485D01*
X010946Y005387D02*
X009361Y005387D01*
X009373Y005288D02*
X010936Y005288D01*
X010936Y005190D02*
X009373Y005190D01*
X009352Y005091D02*
X011235Y005091D01*
X011332Y005091D02*
X011894Y005091D01*
X011894Y004993D02*
X011630Y004993D01*
X011630Y004894D02*
X011894Y004894D01*
X011926Y004796D02*
X011589Y004796D01*
X011332Y004796D02*
X011235Y004796D01*
X011235Y004894D02*
X011332Y004894D01*
X011332Y004993D02*
X011235Y004993D01*
X010936Y004993D02*
X009311Y004993D01*
X009241Y004894D02*
X010936Y004894D01*
X010978Y004796D02*
X009143Y004796D01*
X008524Y004796D02*
X007143Y004796D01*
X007241Y004894D02*
X008426Y004894D01*
X008355Y004993D02*
X007311Y004993D01*
X007352Y005091D02*
X008315Y005091D01*
X008293Y005190D02*
X007373Y005190D01*
X007373Y005288D02*
X008293Y005288D01*
X008305Y005387D02*
X007361Y005387D01*
X007379Y005485D02*
X008346Y005485D01*
X008403Y005584D02*
X007478Y005584D01*
X007576Y005682D02*
X008502Y005682D01*
X008556Y005781D02*
X007675Y005781D01*
X007728Y005879D02*
X008441Y005879D01*
X008362Y005978D02*
X007728Y005978D01*
X007728Y006076D02*
X008321Y006076D01*
X008293Y006175D02*
X007728Y006175D01*
X007728Y006273D02*
X008293Y006273D01*
X008299Y006372D02*
X007728Y006372D01*
X007728Y006470D02*
X008340Y006470D01*
X008388Y006569D02*
X007728Y006569D01*
X007728Y006667D02*
X008487Y006667D01*
X008592Y006766D02*
X007728Y006766D01*
X007728Y006864D02*
X008456Y006864D01*
X008368Y006963D02*
X007728Y006963D01*
X007728Y007061D02*
X008327Y007061D01*
X008293Y007160D02*
X007728Y007160D01*
X007728Y007258D02*
X008293Y007258D01*
X008293Y007357D02*
X007751Y007357D01*
X007849Y007455D02*
X008334Y007455D01*
X008375Y007554D02*
X007948Y007554D01*
X008046Y007652D02*
X008472Y007652D01*
X008631Y007751D02*
X008145Y007751D01*
X008243Y007849D02*
X009121Y007849D01*
X009220Y007948D02*
X008342Y007948D01*
X008333Y008250D02*
X007508Y007425D01*
X008833Y007250D02*
X010233Y008650D01*
X010249Y008650D01*
X009668Y008585D02*
X009668Y008900D01*
X009668Y008585D02*
X009333Y008250D01*
X008333Y008250D01*
X010733Y007750D02*
X010983Y008000D01*
X012383Y008000D01*
X012550Y007967D01*
X012759Y007967D01*
X013073Y007967D02*
X013073Y008490D01*
X013083Y008500D01*
X013083Y009000D01*
X013333Y009250D01*
X012883Y009300D02*
X012583Y009000D01*
X012060Y009000D01*
X012050Y008990D01*
X012050Y008675D02*
X012025Y008650D01*
X011583Y008650D01*
X011483Y008750D01*
X011483Y008850D01*
X011433Y008900D01*
X010918Y008935D02*
X011583Y009600D01*
X012030Y009600D01*
X012050Y009620D01*
X012085Y009900D02*
X011233Y009900D01*
X012050Y009935D02*
X012085Y009900D01*
X012633Y010100D02*
X012633Y009400D01*
X012533Y009300D01*
X012155Y009300D01*
X012105Y009250D01*
X012050Y009305D01*
X012883Y009300D02*
X012883Y009650D01*
X013133Y009900D01*
X013983Y009900D01*
X014333Y010250D01*
X013999Y010410D02*
X013254Y010410D01*
X013274Y010430D02*
X014007Y010430D01*
X013963Y010324D01*
X013963Y010191D01*
X013892Y010120D01*
X013042Y010120D01*
X012853Y009931D01*
X012853Y010009D01*
X013274Y010430D01*
X013156Y010312D02*
X013963Y010312D01*
X013963Y010213D02*
X013057Y010213D01*
X013037Y010115D02*
X012959Y010115D01*
X012938Y010016D02*
X012860Y010016D01*
X013933Y009150D02*
X014333Y008750D01*
X014583Y008750D01*
X014783Y008950D01*
X014783Y009350D01*
X015333Y009900D01*
X015725Y009819D02*
X016152Y009819D01*
X016152Y009721D02*
X015824Y009721D01*
X015922Y009622D02*
X016152Y009622D01*
X016152Y009524D02*
X016021Y009524D01*
X016119Y009425D02*
X016152Y009425D01*
X015813Y009109D02*
X015703Y009219D01*
X015703Y009176D01*
X015647Y009040D01*
X015543Y008936D01*
X015407Y008880D01*
X015260Y008880D01*
X015124Y008936D01*
X015020Y009040D01*
X015003Y009080D01*
X015003Y008859D01*
X014674Y008530D01*
X014242Y008530D01*
X013842Y008930D01*
X013824Y008930D01*
X013703Y008809D01*
X013703Y008559D01*
X013603Y008459D01*
X013603Y008412D01*
X013703Y008412D01*
X013703Y007967D01*
X013703Y007967D01*
X013703Y008412D01*
X013822Y008412D01*
X013828Y008410D01*
X013850Y008432D01*
X015813Y008432D01*
X015813Y009109D01*
X015793Y009130D02*
X015684Y009130D01*
X015638Y009031D02*
X015813Y009031D01*
X015813Y008933D02*
X015534Y008933D01*
X015813Y008834D02*
X014978Y008834D01*
X015003Y008933D02*
X015133Y008933D01*
X015029Y009031D02*
X015003Y009031D01*
X014880Y008736D02*
X015813Y008736D01*
X015813Y008637D02*
X014781Y008637D01*
X014683Y008539D02*
X015813Y008539D01*
X015813Y008440D02*
X013603Y008440D01*
X013683Y008539D02*
X014234Y008539D01*
X014135Y008637D02*
X013703Y008637D01*
X013703Y008736D02*
X014037Y008736D01*
X013938Y008834D02*
X013728Y008834D01*
X013703Y008342D02*
X013703Y008342D01*
X013703Y008243D02*
X013703Y008243D01*
X013703Y008145D02*
X013703Y008145D01*
X013703Y008046D02*
X013703Y008046D01*
X013983Y007931D02*
X013983Y007550D01*
X013733Y007300D01*
X012583Y007300D01*
X012283Y007000D01*
X012283Y006781D01*
X012281Y006728D01*
X012281Y006297D01*
X011933Y005950D01*
X011349Y005950D01*
X011283Y005785D01*
X011650Y005682D02*
X011894Y005682D01*
X011894Y005584D02*
X011650Y005584D01*
X011637Y005485D02*
X011894Y005485D01*
X011894Y005387D02*
X011621Y005387D01*
X011630Y005288D02*
X011894Y005288D01*
X011894Y005190D02*
X011630Y005190D01*
X012667Y005190D02*
X012800Y005190D01*
X012800Y005288D02*
X012667Y005288D01*
X012667Y005387D02*
X012800Y005387D01*
X012800Y005485D02*
X012667Y005485D01*
X012667Y005584D02*
X012800Y005584D01*
X012800Y005682D02*
X012667Y005682D01*
X012603Y005781D02*
X012864Y005781D01*
X012963Y005879D02*
X012173Y005879D01*
X012272Y005978D02*
X013000Y005978D01*
X013098Y006076D02*
X012370Y006076D01*
X012469Y006175D02*
X013197Y006175D01*
X012810Y006273D02*
X012656Y006273D01*
X012667Y006372D02*
X012800Y006372D01*
X012800Y006470D02*
X012667Y006470D01*
X012667Y006569D02*
X012800Y006569D01*
X012800Y006667D02*
X012667Y006667D01*
X012667Y006766D02*
X012800Y006766D01*
X012800Y006864D02*
X012667Y006864D01*
X012667Y006963D02*
X012800Y006963D01*
X012800Y007061D02*
X012667Y007061D01*
X013633Y006900D02*
X013633Y006300D01*
X013183Y005850D01*
X013183Y005324D01*
X013509Y005324D01*
X013633Y005200D01*
X014049Y005200D01*
X014083Y005165D01*
X014450Y005190D02*
X014523Y005190D01*
X014523Y005288D02*
X014450Y005288D01*
X014450Y005387D02*
X014503Y005387D01*
X014503Y005485D02*
X014417Y005485D01*
X014426Y005584D02*
X014503Y005584D01*
X014503Y005682D02*
X014430Y005682D01*
X014430Y005781D02*
X014503Y005781D01*
X014503Y005879D02*
X014132Y005879D01*
X014035Y005879D02*
X013523Y005879D01*
X013473Y005816D02*
X013460Y005816D01*
X013724Y006080D01*
X013724Y006080D01*
X013744Y006100D01*
X013736Y006071D01*
X013736Y005883D01*
X014035Y005883D01*
X014035Y005786D01*
X013736Y005786D01*
X013736Y005598D01*
X013747Y005560D01*
X013766Y005526D01*
X013778Y005514D01*
X013716Y005452D01*
X013716Y005428D01*
X013600Y005544D01*
X013573Y005544D01*
X013573Y005716D01*
X013473Y005816D01*
X013508Y005781D02*
X013736Y005781D01*
X013736Y005682D02*
X013573Y005682D01*
X013573Y005584D02*
X013740Y005584D01*
X013749Y005485D02*
X013659Y005485D01*
X013183Y005324D02*
X013186Y005272D01*
X012800Y005091D02*
X012667Y005091D01*
X012667Y004993D02*
X012800Y004993D01*
X012800Y004894D02*
X012667Y004894D01*
X012635Y004796D02*
X012831Y004796D01*
X013541Y004796D02*
X013799Y004796D01*
X013716Y004894D02*
X013573Y004894D01*
X014367Y004796D02*
X014533Y004796D01*
X014503Y004894D02*
X014450Y004894D01*
X014450Y004993D02*
X014503Y004993D01*
X014503Y005091D02*
X014450Y005091D01*
X014968Y004975D02*
X015408Y004975D01*
X015733Y004750D01*
X017933Y004750D01*
X019433Y006300D01*
X019782Y006175D02*
X019848Y006175D01*
X019733Y006076D02*
X020269Y006076D01*
X020203Y005781D02*
X019237Y005781D01*
X019332Y005879D02*
X021098Y005879D01*
X021098Y005781D02*
X020464Y005781D01*
X020665Y005682D02*
X021002Y005682D01*
X020903Y005584D02*
X020764Y005584D01*
X020820Y005485D02*
X020846Y005485D01*
X020002Y005682D02*
X019141Y005682D01*
X019046Y005584D02*
X019903Y005584D01*
X019846Y005485D02*
X018951Y005485D01*
X018855Y005387D02*
X019805Y005387D01*
X019793Y005288D02*
X018760Y005288D01*
X018665Y005190D02*
X019793Y005190D01*
X019815Y005091D02*
X018569Y005091D01*
X018474Y004993D02*
X019855Y004993D01*
X019926Y004894D02*
X018379Y004894D01*
X018284Y004796D02*
X020024Y004796D01*
X020643Y004796D02*
X021024Y004796D01*
X020926Y004894D02*
X020741Y004894D01*
X020811Y004993D02*
X020856Y004993D01*
X021098Y005978D02*
X019622Y005978D01*
X018967Y006134D02*
X017840Y004970D01*
X017444Y004970D01*
X017444Y004975D01*
X017444Y005005D01*
X017570Y005005D01*
X017572Y005003D01*
X017661Y005005D01*
X017749Y005005D01*
X017751Y005007D01*
X017754Y005007D01*
X017815Y005071D01*
X017878Y005134D01*
X017878Y005136D01*
X018833Y006130D01*
X018957Y006130D01*
X018967Y006134D01*
X018910Y006076D02*
X018781Y006076D01*
X018815Y005978D02*
X018686Y005978D01*
X018720Y005879D02*
X018592Y005879D01*
X018624Y005781D02*
X018497Y005781D01*
X018529Y005682D02*
X018403Y005682D01*
X018434Y005584D02*
X018308Y005584D01*
X018338Y005485D02*
X018213Y005485D01*
X018243Y005387D02*
X018119Y005387D01*
X018148Y005288D02*
X018024Y005288D01*
X018053Y005190D02*
X017929Y005190D01*
X017957Y005091D02*
X017835Y005091D01*
X017862Y004993D02*
X017444Y004993D01*
X017444Y004975D02*
X016998Y004975D01*
X016553Y004975D01*
X016998Y004975D01*
X016998Y004975D01*
X016998Y004975D01*
X017444Y004975D01*
X017658Y005225D02*
X016998Y005225D01*
X016533Y005190D02*
X016046Y005190D01*
X016097Y005240D02*
X016153Y005374D01*
X016260Y005330D01*
X016407Y005330D01*
X016533Y005382D01*
X016533Y005076D01*
X016553Y005056D01*
X016553Y004975D01*
X016553Y004970D01*
X015802Y004970D01*
X015550Y005145D01*
X015499Y005195D01*
X015477Y005195D01*
X015459Y005208D01*
X015414Y005200D01*
X015414Y005225D01*
X015414Y005255D01*
X015464Y005255D01*
X015470Y005240D01*
X015574Y005136D01*
X015710Y005080D01*
X015857Y005080D01*
X015993Y005136D01*
X016097Y005240D01*
X016117Y005288D02*
X016533Y005288D01*
X016533Y005091D02*
X015883Y005091D01*
X015770Y004993D02*
X016553Y004993D01*
X015683Y005091D02*
X015627Y005091D01*
X015521Y005190D02*
X015505Y005190D01*
X015414Y005225D02*
X014968Y005225D01*
X014968Y005225D01*
X015414Y005225D01*
X014968Y005225D02*
X014968Y005225D01*
X014968Y005475D02*
X015708Y005475D01*
X015783Y005450D01*
X016333Y005700D02*
X016320Y005864D01*
X016320Y005992D01*
X015837Y006475D01*
X014968Y006475D01*
X014968Y006725D02*
X014408Y006725D01*
X014333Y006800D01*
X013983Y006950D02*
X014183Y007150D01*
X014433Y007150D01*
X014648Y007365D01*
X014648Y007967D01*
X014333Y007967D02*
X014333Y007550D01*
X014133Y007350D01*
X014083Y007350D01*
X013633Y006900D01*
X013983Y006950D02*
X013983Y006450D01*
X014208Y006225D01*
X014968Y006225D01*
X014968Y005975D02*
X015508Y005975D01*
X015633Y006100D01*
X016083Y006700D02*
X016483Y006300D01*
X016483Y006150D01*
X016658Y005975D01*
X016998Y005975D01*
X017023Y006200D02*
X017933Y006200D01*
X018583Y006800D01*
X018583Y007150D01*
X018213Y007160D02*
X018154Y007160D01*
X018213Y007219D02*
X018213Y007076D01*
X018270Y006940D01*
X018338Y006873D01*
X018003Y006564D01*
X018003Y006674D01*
X017947Y006810D01*
X017843Y006914D01*
X017707Y006970D01*
X017560Y006970D01*
X017424Y006914D01*
X017410Y006900D01*
X017386Y006924D01*
X017352Y006944D01*
X017313Y006954D01*
X016998Y006954D01*
X016683Y006954D01*
X016645Y006944D01*
X016611Y006924D01*
X016583Y006896D01*
X016563Y006862D01*
X016553Y006823D01*
X016553Y006725D01*
X016998Y006725D01*
X016553Y006725D01*
X016553Y006644D01*
X016533Y006624D01*
X016533Y006561D01*
X016303Y006791D01*
X016174Y006920D01*
X015724Y006920D01*
X015424Y007220D01*
X015124Y007220D01*
X015103Y007241D01*
X015103Y007409D01*
X015196Y007501D01*
X015688Y007501D01*
X015688Y007234D01*
X015763Y007159D01*
X015892Y007030D01*
X018024Y007030D01*
X018213Y007219D01*
X018220Y007061D02*
X018055Y007061D01*
X018261Y006963D02*
X017725Y006963D01*
X017542Y006963D02*
X015682Y006963D01*
X015583Y007061D02*
X015861Y007061D01*
X015833Y007050D02*
X015483Y007400D01*
X015283Y007350D01*
X015149Y007455D02*
X015688Y007455D01*
X015688Y007357D02*
X015103Y007357D01*
X015103Y007258D02*
X015688Y007258D01*
X015763Y007160D02*
X015485Y007160D01*
X015333Y007000D02*
X015033Y007000D01*
X014883Y007150D01*
X014883Y007500D01*
X014983Y007600D01*
X014983Y007946D01*
X014963Y007967D01*
X014018Y007967D02*
X013983Y007931D01*
X015333Y007000D02*
X015633Y006700D01*
X016083Y006700D01*
X016230Y006864D02*
X016565Y006864D01*
X016553Y006766D02*
X016329Y006766D01*
X016303Y006791D02*
X016303Y006791D01*
X016427Y006667D02*
X016553Y006667D01*
X016533Y006569D02*
X016526Y006569D01*
X016808Y006875D02*
X016633Y007050D01*
X015833Y007050D01*
X016808Y006875D02*
X016998Y006725D01*
X016998Y006725D01*
X016998Y006954D01*
X016998Y006725D01*
X016998Y006725D01*
X016998Y006766D02*
X016998Y006766D01*
X016998Y006864D02*
X016998Y006864D01*
X016998Y006475D02*
X017508Y006475D01*
X017633Y006600D01*
X017965Y006766D02*
X018222Y006766D01*
X018328Y006864D02*
X017893Y006864D01*
X018003Y006667D02*
X018115Y006667D01*
X018008Y006569D02*
X018003Y006569D01*
X018883Y006500D02*
X017658Y005225D01*
X017608Y005725D02*
X016998Y005725D01*
X017608Y005725D02*
X017633Y005750D01*
X017023Y006200D02*
X016998Y006225D01*
X014503Y005978D02*
X014430Y005978D01*
X013736Y005978D02*
X013622Y005978D01*
X013720Y006076D02*
X013738Y006076D01*
X011283Y007085D02*
X011283Y007200D01*
X011333Y007250D01*
X011333Y007350D01*
X011583Y007600D01*
X010918Y008650D02*
X010918Y008935D01*
X007940Y009738D02*
X007940Y009738D01*
X008605Y012282D02*
X006543Y012282D01*
X006543Y012380D02*
X008506Y012380D01*
X008408Y012479D02*
X006543Y012479D01*
X006543Y012577D02*
X008309Y012577D01*
X008636Y012873D02*
X008764Y012873D01*
X008681Y012971D02*
X008538Y012971D01*
X008439Y013070D02*
X008681Y013070D01*
X008681Y013168D02*
X008419Y013168D01*
X008419Y013267D02*
X008681Y013267D01*
X008649Y013365D02*
X008419Y013365D01*
X008419Y013464D02*
X008572Y013464D01*
X008495Y013562D02*
X008419Y013562D01*
X008418Y013661D02*
X008334Y013661D01*
X008341Y013759D02*
X007615Y013759D01*
X007512Y013858D02*
X007850Y013858D01*
X007817Y013956D02*
X007409Y013956D01*
X007306Y014055D02*
X007817Y014055D01*
X007817Y014153D02*
X007250Y014153D01*
X007315Y014252D02*
X007817Y014252D01*
X007817Y014350D02*
X007356Y014350D01*
X007373Y014449D02*
X007817Y014449D01*
X007817Y014547D02*
X007373Y014547D01*
X007358Y014646D02*
X007853Y014646D01*
X008237Y014604D02*
X008237Y014250D01*
X008987Y013289D01*
X008959Y013262D01*
X007450Y013267D02*
X007297Y013267D01*
X007297Y013365D02*
X007391Y013365D01*
X007450Y013168D02*
X006882Y013168D01*
X006882Y013070D02*
X006782Y013070D01*
X006782Y012971D02*
X006882Y012971D01*
X006882Y012873D02*
X006782Y012873D01*
X006782Y012774D02*
X006882Y012774D01*
X006882Y012676D02*
X006782Y012676D01*
X007239Y012676D02*
X007499Y012676D01*
X007450Y012774D02*
X007297Y012774D01*
X007297Y012873D02*
X007450Y012873D01*
X007450Y012971D02*
X007297Y012971D01*
X007297Y013070D02*
X007450Y013070D01*
X006882Y013267D02*
X006782Y013267D01*
X006782Y013365D02*
X006882Y013365D01*
X006882Y013464D02*
X006782Y013464D01*
X006782Y013562D02*
X006882Y013562D01*
X006978Y013759D02*
X006543Y013759D01*
X006543Y013661D02*
X007081Y013661D01*
X006875Y013858D02*
X006543Y013858D01*
X006543Y013956D02*
X006772Y013956D01*
X008237Y014604D02*
X008733Y015100D01*
X009930Y014250D02*
X009980Y014200D01*
X006883Y015550D02*
X006833Y015500D01*
X015583Y014050D02*
X015583Y013500D01*
X015908Y013009D02*
X016333Y013435D01*
X016333Y013715D01*
X017333Y013685D02*
X017533Y013485D01*
X017333Y013685D02*
X017333Y015500D01*
X017735Y015138D02*
X017960Y015138D01*
X017884Y015237D02*
X017809Y015237D01*
X017633Y015040D02*
X018092Y015040D01*
X018283Y015040D02*
X018383Y015040D01*
X018383Y015138D02*
X018283Y015138D01*
X018283Y015237D02*
X018383Y015237D01*
X018383Y015335D02*
X018283Y015335D01*
X018283Y015434D02*
X018383Y015434D01*
X018383Y015532D02*
X019397Y015532D01*
X019397Y015434D02*
X018849Y015434D01*
X018826Y015335D02*
X019397Y015335D01*
X019397Y015237D02*
X018783Y015237D01*
X018707Y015138D02*
X019397Y015138D01*
X019397Y015040D02*
X018575Y015040D01*
X019431Y014941D02*
X017553Y014941D01*
X017553Y014843D02*
X019662Y014843D01*
X019662Y014744D02*
X017553Y014744D01*
X017553Y014646D02*
X019662Y014646D01*
X019662Y014547D02*
X017553Y014547D01*
X017553Y014449D02*
X019662Y014449D01*
X019662Y014350D02*
X017553Y014350D01*
X017553Y014252D02*
X019671Y014252D01*
X019769Y014153D02*
X019451Y014153D01*
X019349Y014190D02*
X019018Y014190D01*
X018706Y014077D01*
X018452Y013864D01*
X018452Y013864D01*
X018452Y013864D01*
X018286Y013576D01*
X018229Y013250D01*
X018286Y012924D01*
X018286Y012924D01*
X018452Y012636D01*
X018706Y012423D01*
X019018Y012310D01*
X019096Y012310D01*
X019349Y012310D01*
X019661Y012423D01*
X019915Y012636D01*
X019915Y012636D01*
X019915Y012636D01*
X020080Y012924D01*
X020138Y013250D01*
X020080Y013576D01*
X020080Y013576D01*
X019915Y013864D01*
X019661Y014077D01*
X019349Y014190D01*
X019661Y014077D02*
X019661Y014077D01*
X019687Y014055D02*
X019868Y014055D01*
X019804Y013956D02*
X019966Y013956D01*
X019915Y013864D02*
X019915Y013864D01*
X019918Y013858D02*
X020065Y013858D01*
X019975Y013759D02*
X020163Y013759D01*
X020262Y013661D02*
X020032Y013661D01*
X020083Y013562D02*
X020350Y013562D01*
X020313Y013464D02*
X020100Y013464D01*
X020118Y013365D02*
X020313Y013365D01*
X020338Y013267D02*
X020135Y013267D01*
X020138Y013250D02*
X020138Y013250D01*
X020123Y013168D02*
X020392Y013168D01*
X020514Y013070D02*
X020106Y013070D01*
X020089Y012971D02*
X024623Y012971D01*
X024623Y012873D02*
X020051Y012873D01*
X020080Y012924D02*
X020080Y012924D01*
X019994Y012774D02*
X024623Y012774D01*
X024623Y012676D02*
X019937Y012676D01*
X019844Y012577D02*
X024623Y012577D01*
X024623Y012479D02*
X019726Y012479D01*
X019661Y012423D02*
X019661Y012423D01*
X019541Y012380D02*
X024623Y012380D01*
X024623Y012282D02*
X017753Y012282D01*
X017753Y012380D02*
X018825Y012380D01*
X018640Y012479D02*
X017850Y012479D01*
X017900Y012577D02*
X018523Y012577D01*
X018452Y012636D02*
X018452Y012636D01*
X018430Y012676D02*
X017900Y012676D01*
X017900Y012774D02*
X018373Y012774D01*
X018316Y012873D02*
X017900Y012873D01*
X017900Y012971D02*
X018278Y012971D01*
X018261Y013070D02*
X017900Y013070D01*
X017871Y013168D02*
X018243Y013168D01*
X018229Y013250D02*
X018229Y013250D01*
X018232Y013267D02*
X017900Y013267D01*
X017900Y013365D02*
X018249Y013365D01*
X018266Y013464D02*
X017900Y013464D01*
X017900Y013562D02*
X018284Y013562D01*
X018286Y013576D02*
X018286Y013576D01*
X018335Y013661D02*
X017900Y013661D01*
X017900Y013759D02*
X018392Y013759D01*
X018449Y013858D02*
X017814Y013858D01*
X017553Y013956D02*
X018562Y013956D01*
X018680Y014055D02*
X017553Y014055D01*
X017553Y014153D02*
X018916Y014153D01*
X018706Y014077D02*
X018706Y014077D01*
X019882Y014351D02*
X020633Y013600D01*
X020633Y013450D01*
X020683Y013400D01*
X021029Y013267D02*
X024623Y013267D01*
X024623Y013365D02*
X021053Y013365D01*
X021053Y013464D02*
X024623Y013464D01*
X024623Y013562D02*
X021017Y013562D01*
X020946Y013661D02*
X024623Y013661D01*
X024623Y013759D02*
X020785Y013759D01*
X020687Y013858D02*
X024623Y013858D01*
X024623Y013956D02*
X020588Y013956D01*
X020490Y014055D02*
X024623Y014055D01*
X024623Y014153D02*
X020391Y014153D01*
X020293Y014252D02*
X024623Y014252D01*
X024623Y014350D02*
X020194Y014350D01*
X020102Y014449D02*
X024623Y014449D01*
X024623Y014547D02*
X020102Y014547D01*
X020102Y014646D02*
X024623Y014646D01*
X024623Y014744D02*
X020102Y014744D01*
X020102Y014843D02*
X024623Y014843D01*
X024623Y014941D02*
X021407Y014941D01*
X021420Y014954D02*
X021392Y014926D01*
X021357Y014906D01*
X021319Y014896D01*
X021035Y014896D01*
X021035Y015350D01*
X021449Y015350D01*
X021449Y015026D01*
X021439Y014988D01*
X021420Y014954D01*
X021449Y015040D02*
X024623Y015040D01*
X024623Y015138D02*
X021449Y015138D01*
X021449Y015237D02*
X024623Y015237D01*
X024623Y015335D02*
X021449Y015335D01*
X021449Y015532D02*
X024623Y015532D01*
X024623Y015434D02*
X021035Y015434D01*
X021035Y015335D02*
X020935Y015335D01*
X020935Y015350D02*
X020935Y014896D01*
X020650Y014896D01*
X020612Y014906D01*
X020577Y014926D01*
X020550Y014954D01*
X020530Y014988D01*
X020520Y015026D01*
X020520Y015350D01*
X020935Y015350D01*
X020935Y015434D02*
X020367Y015434D01*
X020367Y015532D02*
X020520Y015532D01*
X020520Y015631D02*
X020367Y015631D01*
X020367Y015729D02*
X020520Y015729D01*
X020520Y015335D02*
X020367Y015335D01*
X020367Y015237D02*
X020520Y015237D01*
X020520Y015138D02*
X020367Y015138D01*
X020367Y015040D02*
X020520Y015040D01*
X020562Y014941D02*
X020333Y014941D01*
X020935Y014941D02*
X021035Y014941D01*
X021035Y015040D02*
X020935Y015040D01*
X020935Y015138D02*
X021035Y015138D01*
X021035Y015237D02*
X020935Y015237D01*
X021449Y015631D02*
X024623Y015631D01*
X024623Y015729D02*
X021449Y015729D01*
X019882Y015400D02*
X019882Y014351D01*
X020975Y013168D02*
X024623Y013168D01*
X024623Y013070D02*
X020852Y013070D01*
X018987Y012085D02*
X024623Y012085D01*
X024623Y012183D02*
X017753Y012183D01*
X017313Y011986D02*
X017049Y011986D01*
X017062Y011888D02*
X017260Y011888D01*
X017161Y011789D02*
X017062Y011789D01*
X017183Y011500D02*
X017533Y011850D01*
X017533Y012815D01*
X018318Y012085D02*
X018349Y012085D01*
X018668Y011750D02*
X019814Y011750D01*
X019940Y011624D01*
X020287Y011592D02*
X021350Y011592D01*
X021350Y011691D02*
X020287Y011691D01*
X020287Y011789D02*
X021350Y011789D01*
X021350Y011888D02*
X020251Y011888D01*
X020287Y011494D02*
X020435Y011494D01*
X020419Y011395D02*
X020286Y011395D01*
X020419Y011297D02*
X017856Y011297D01*
X017758Y011198D02*
X020419Y011198D01*
X020419Y011100D02*
X020252Y011100D01*
X020267Y011001D02*
X020440Y011001D01*
X020766Y011250D02*
X021231Y011250D01*
X021683Y010797D01*
X022715Y010797D01*
X022833Y010915D01*
X023499Y010250D01*
X024333Y010250D01*
X022929Y010509D02*
X021922Y010509D01*
X022434Y010410D02*
X022505Y010410D01*
X022305Y009918D02*
X021926Y009918D01*
X021441Y009918D02*
X021114Y009918D01*
X021114Y009819D02*
X022466Y009819D01*
X022485Y009721D02*
X021114Y009721D01*
X021206Y009622D02*
X022466Y009622D01*
X022466Y009524D02*
X021985Y009524D01*
X021382Y009524D02*
X021304Y009524D01*
X020977Y009228D02*
X020267Y009228D01*
X020267Y009327D02*
X020879Y009327D01*
X021076Y009130D02*
X020239Y009130D01*
X019968Y009130D02*
X019911Y009130D01*
X019911Y009228D02*
X019968Y009228D01*
X019968Y009327D02*
X019911Y009327D01*
X019968Y009405D02*
X020267Y009405D01*
X020267Y009553D01*
X020257Y009591D01*
X020237Y009626D01*
X020209Y009653D01*
X020175Y009673D01*
X020137Y009683D01*
X019968Y009683D01*
X019968Y009405D01*
X019968Y009425D02*
X019911Y009425D01*
X019911Y009524D02*
X019968Y009524D01*
X019968Y009622D02*
X019911Y009622D01*
X019670Y009819D02*
X019409Y009819D01*
X019450Y009918D02*
X019592Y009918D01*
X019592Y010016D02*
X019453Y010016D01*
X019436Y010115D02*
X019592Y010115D01*
X019540Y010213D02*
X019394Y010213D01*
X019441Y010312D02*
X019295Y010312D01*
X019332Y010410D02*
X019343Y010410D01*
X019571Y010804D02*
X019612Y010804D01*
X018714Y011100D02*
X018653Y011100D01*
X018369Y011395D02*
X018298Y011395D01*
X017999Y011750D02*
X017444Y011195D01*
X016617Y011195D01*
X016627Y011500D02*
X017183Y011500D01*
X016627Y011500D02*
X016617Y011510D01*
X016617Y011888D02*
X016617Y011888D01*
X016617Y011986D02*
X016617Y011986D01*
X015908Y012533D02*
X015883Y012509D01*
X015908Y012533D02*
X015908Y013009D01*
X016053Y014744D02*
X016090Y014744D01*
X018800Y015729D02*
X019397Y015729D01*
X019397Y015631D02*
X018838Y015631D01*
X019055Y011986D02*
X021439Y011986D01*
X021928Y011986D02*
X024623Y011986D01*
X024623Y011888D02*
X023184Y011888D01*
X022833Y011585D02*
X023999Y011585D01*
X024333Y011250D01*
X024224Y011789D02*
X024105Y011789D01*
X024443Y011789D02*
X024623Y011789D01*
X022833Y011585D02*
X022649Y011585D01*
X022533Y011700D01*
X021686Y011700D01*
X021683Y011703D01*
X021365Y011494D02*
X021098Y011494D01*
X021397Y011395D02*
X022466Y011395D01*
X022468Y011297D02*
X021495Y011297D01*
X021594Y011198D02*
X022466Y011198D01*
X022466Y011100D02*
X021692Y011100D01*
X021168Y011001D02*
X021092Y011001D01*
X019594Y011395D02*
X018967Y011395D01*
X019055Y011494D02*
X019592Y011494D01*
X019083Y010000D02*
X019083Y009235D01*
X019435Y008933D02*
X019673Y008933D01*
X019592Y008834D02*
X019450Y008834D01*
X020287Y008539D02*
X020480Y008539D01*
X020419Y008440D02*
X020287Y008440D01*
X020232Y008342D02*
X020419Y008342D01*
X020419Y008145D02*
X020218Y008145D01*
X020267Y008046D02*
X020419Y008046D01*
X020494Y007948D02*
X020267Y007948D01*
X020267Y007751D02*
X020955Y007751D01*
X021053Y007652D02*
X020252Y007652D01*
X018752Y008243D02*
X016403Y008243D01*
X016403Y008342D02*
X018716Y008342D01*
X018716Y008440D02*
X018297Y008440D01*
X017028Y009305D02*
X016617Y009305D01*
X016617Y008990D02*
X016093Y008990D01*
X016617Y008637D02*
X016617Y008637D01*
X016617Y008539D02*
X016617Y008539D01*
X016617Y008440D02*
X016617Y008440D01*
X020267Y009425D02*
X020516Y009425D01*
X020419Y009524D02*
X020267Y009524D01*
X020239Y009622D02*
X020419Y009622D01*
X020419Y009819D02*
X020210Y009819D01*
X020287Y009918D02*
X020419Y009918D01*
X020457Y010016D02*
X020287Y010016D01*
X021075Y010016D02*
X021350Y010016D01*
X021945Y009031D02*
X022564Y009031D01*
X022527Y008933D02*
X021981Y008933D01*
X021686Y008700D02*
X022383Y008700D01*
X022499Y008585D01*
X022833Y008585D01*
X024168Y007250D01*
X024333Y007250D01*
X024333Y008250D02*
X023999Y008250D01*
X022332Y008440D02*
X021948Y008440D01*
X021686Y008700D02*
X021683Y008703D01*
M02*
