G75*
%MOIN*%
%OFA0B0*%
%FSLAX24Y24*%
%IPPOS*%
%LPD*%
%AMOC8*
5,1,8,0,0,1.08239X$1,22.5*
%
%ADD10R,0.0433X0.0394*%
%ADD11R,0.0630X0.0709*%
%ADD12R,0.0394X0.0433*%
%ADD13R,0.0500X0.0579*%
%ADD14R,0.0327X0.0248*%
%ADD15R,0.0551X0.0157*%
%ADD16R,0.0591X0.0709*%
%ADD17R,0.0276X0.0591*%
%ADD18R,0.0354X0.0315*%
%ADD19R,0.0591X0.0197*%
%ADD20R,0.0197X0.0591*%
%ADD21R,0.0591X0.0157*%
%ADD22R,0.0472X0.0217*%
%ADD23R,0.0217X0.0472*%
%ADD24R,0.0433X0.0748*%
D10*
X010249Y008650D03*
X009668Y008900D03*
X008999Y008900D03*
X008999Y009950D03*
X009668Y009950D03*
X009668Y010750D03*
X008999Y010750D03*
X010499Y011750D03*
X011168Y011750D03*
X011168Y012750D03*
X010499Y012750D03*
X013499Y013600D03*
X014168Y013600D03*
X014168Y014450D03*
X013499Y014450D03*
X017999Y011750D03*
X018668Y011750D03*
X018349Y010750D03*
X019018Y010750D03*
X017668Y007800D03*
X016999Y007800D03*
X020649Y006350D03*
X021318Y006350D03*
X010918Y008650D03*
D11*
X007935Y013150D03*
X006832Y013150D03*
X019882Y015400D03*
X020985Y015400D03*
D12*
X011283Y005115D03*
X011283Y005785D03*
X011283Y006415D03*
X011283Y007085D03*
X014083Y005835D03*
X014083Y005165D03*
X019083Y008565D03*
X019083Y009235D03*
X022833Y009415D03*
X022833Y010085D03*
X022833Y010915D03*
X022833Y011585D03*
X017533Y012815D03*
X017533Y013485D03*
X016333Y013715D03*
X016333Y014385D03*
X012083Y013135D03*
X012083Y012465D03*
X022833Y008585D03*
X022833Y007915D03*
D13*
X009930Y014250D03*
X008237Y014250D03*
D14*
X021683Y011703D03*
X021683Y010797D03*
X021683Y010203D03*
X021683Y009297D03*
X021683Y008703D03*
X021683Y007797D03*
D15*
X007896Y009738D03*
X007896Y009994D03*
X007896Y010250D03*
X007896Y010506D03*
X007896Y010762D03*
D16*
X006833Y011700D03*
X006833Y008800D03*
D17*
X006833Y010250D03*
D18*
X019940Y010124D03*
X020766Y009750D03*
X019940Y009376D03*
X019940Y008624D03*
X020766Y008250D03*
X019940Y007876D03*
X019940Y010876D03*
X020766Y011250D03*
X019940Y011624D03*
D19*
X016617Y011510D03*
X016617Y011825D03*
X016617Y011195D03*
X016617Y010880D03*
X016617Y010565D03*
X016617Y010250D03*
X016617Y009935D03*
X016617Y009620D03*
X016617Y009305D03*
X016617Y008990D03*
X016617Y008675D03*
X012050Y008675D03*
X012050Y008990D03*
X012050Y009305D03*
X012050Y009620D03*
X012050Y009935D03*
X012050Y010250D03*
X012050Y010565D03*
X012050Y010880D03*
X012050Y011195D03*
X012050Y011510D03*
X012050Y011825D03*
D20*
X012759Y012533D03*
X013073Y012533D03*
X013388Y012533D03*
X013703Y012533D03*
X014018Y012533D03*
X014333Y012533D03*
X014648Y012533D03*
X014963Y012533D03*
X015278Y012533D03*
X015593Y012533D03*
X015908Y012533D03*
X015908Y007967D03*
X015593Y007967D03*
X015278Y007967D03*
X014963Y007967D03*
X014648Y007967D03*
X014333Y007967D03*
X014018Y007967D03*
X013703Y007967D03*
X013388Y007967D03*
X013073Y007967D03*
X012759Y007967D03*
D21*
X014968Y006725D03*
X014968Y006475D03*
X014968Y006225D03*
X014968Y005975D03*
X014968Y005725D03*
X014968Y005475D03*
X014968Y005225D03*
X014968Y004975D03*
X016998Y004975D03*
X016998Y005225D03*
X016998Y005475D03*
X016998Y005725D03*
X016998Y005975D03*
X016998Y006225D03*
X016998Y006475D03*
X016998Y006725D03*
D22*
X012845Y013876D03*
X011821Y013876D03*
X011821Y014250D03*
X011821Y014624D03*
X012845Y014624D03*
D23*
X009707Y013262D03*
X009333Y013262D03*
X008959Y013262D03*
X008959Y012238D03*
X009707Y012238D03*
D24*
X012281Y006728D03*
X013186Y006728D03*
X013186Y005272D03*
X012281Y005272D03*
M02*
