G75*
%MOIN*%
%OFA0B0*%
%FSLAX24Y24*%
%IPPOS*%
%LPD*%
%AMOC8*
5,1,8,0,0,1.08239X$1,22.5*
%
%ADD10C,0.0080*%
%ADD11C,0.0040*%
%ADD12C,0.0100*%
%ADD13R,0.0017X0.0006*%
%ADD14R,0.0029X0.0006*%
%ADD15R,0.0068X0.0006*%
%ADD16R,0.0039X0.0006*%
%ADD17R,0.0142X0.0006*%
%ADD18R,0.0051X0.0006*%
%ADD19R,0.0141X0.0006*%
%ADD20R,0.0164X0.0006*%
%ADD21R,0.0063X0.0006*%
%ADD22R,0.0181X0.0006*%
%ADD23R,0.0073X0.0006*%
%ADD24R,0.0192X0.0006*%
%ADD25R,0.0085X0.0006*%
%ADD26R,0.0192X0.0006*%
%ADD27R,0.0204X0.0006*%
%ADD28R,0.0096X0.0006*%
%ADD29R,0.0203X0.0006*%
%ADD30R,0.0215X0.0006*%
%ADD31R,0.0107X0.0006*%
%ADD32R,0.0221X0.0006*%
%ADD33R,0.0119X0.0006*%
%ADD34R,0.0226X0.0006*%
%ADD35R,0.0226X0.0006*%
%ADD36R,0.0129X0.0006*%
%ADD37R,0.0232X0.0006*%
%ADD38R,0.0238X0.0006*%
%ADD39R,0.0237X0.0006*%
%ADD40R,0.0243X0.0006*%
%ADD41R,0.0153X0.0006*%
%ADD42R,0.0249X0.0006*%
%ADD43R,0.0163X0.0006*%
%ADD44R,0.0255X0.0006*%
%ADD45R,0.0175X0.0006*%
%ADD46R,0.0254X0.0006*%
%ADD47R,0.0260X0.0006*%
%ADD48R,0.0187X0.0006*%
%ADD49R,0.0260X0.0006*%
%ADD50R,0.0197X0.0006*%
%ADD51R,0.0266X0.0006*%
%ADD52R,0.0266X0.0006*%
%ADD53R,0.0215X0.0006*%
%ADD54R,0.0271X0.0006*%
%ADD55R,0.0271X0.0006*%
%ADD56R,0.0277X0.0006*%
%ADD57R,0.0237X0.0006*%
%ADD58R,0.0277X0.0006*%
%ADD59R,0.0277X0.0006*%
%ADD60R,0.0249X0.0006*%
%ADD61R,0.0277X0.0006*%
%ADD62R,0.0283X0.0006*%
%ADD63R,0.0282X0.0006*%
%ADD64R,0.0283X0.0006*%
%ADD65R,0.0288X0.0006*%
%ADD66R,0.0288X0.0006*%
%ADD67R,0.0294X0.0006*%
%ADD68R,0.0294X0.0006*%
%ADD69R,0.0305X0.0006*%
%ADD70R,0.0317X0.0006*%
%ADD71R,0.0327X0.0006*%
%ADD72R,0.0220X0.0006*%
%ADD73R,0.0339X0.0006*%
%ADD74R,0.0197X0.0006*%
%ADD75R,0.0350X0.0006*%
%ADD76R,0.0180X0.0006*%
%ADD77R,0.0170X0.0006*%
%ADD78R,0.0361X0.0006*%
%ADD79R,0.0169X0.0006*%
%ADD80R,0.0373X0.0006*%
%ADD81R,0.0164X0.0006*%
%ADD82R,0.0163X0.0006*%
%ADD83R,0.0384X0.0006*%
%ADD84R,0.0158X0.0006*%
%ADD85R,0.0158X0.0006*%
%ADD86R,0.0395X0.0006*%
%ADD87R,0.0152X0.0006*%
%ADD88R,0.0407X0.0006*%
%ADD89R,0.0152X0.0006*%
%ADD90R,0.0418X0.0006*%
%ADD91R,0.0153X0.0006*%
%ADD92R,0.0429X0.0006*%
%ADD93R,0.0153X0.0006*%
%ADD94R,0.0441X0.0006*%
%ADD95R,0.0452X0.0006*%
%ADD96R,0.0147X0.0006*%
%ADD97R,0.0147X0.0006*%
%ADD98R,0.0463X0.0006*%
%ADD99R,0.0475X0.0006*%
%ADD100R,0.0486X0.0006*%
%ADD101R,0.0147X0.0006*%
%ADD102R,0.0497X0.0006*%
%ADD103R,0.0152X0.0006*%
%ADD104R,0.0509X0.0006*%
%ADD105R,0.0141X0.0006*%
%ADD106R,0.0520X0.0006*%
%ADD107R,0.0147X0.0006*%
%ADD108R,0.0531X0.0006*%
%ADD109R,0.0147X0.0006*%
%ADD110R,0.0543X0.0006*%
%ADD111R,0.0553X0.0006*%
%ADD112R,0.0147X0.0006*%
%ADD113R,0.0565X0.0006*%
%ADD114R,0.0576X0.0006*%
%ADD115R,0.0587X0.0006*%
%ADD116R,0.0599X0.0006*%
%ADD117R,0.0610X0.0006*%
%ADD118R,0.0621X0.0006*%
%ADD119R,0.0633X0.0006*%
%ADD120R,0.0639X0.0006*%
%ADD121R,0.0649X0.0006*%
%ADD122R,0.0661X0.0006*%
%ADD123R,0.0673X0.0006*%
%ADD124R,0.0683X0.0006*%
%ADD125R,0.0695X0.0006*%
%ADD126R,0.0707X0.0006*%
%ADD127R,0.0712X0.0006*%
%ADD128R,0.0723X0.0006*%
%ADD129R,0.0735X0.0006*%
%ADD130R,0.0746X0.0006*%
%ADD131R,0.0757X0.0006*%
%ADD132R,0.0152X0.0006*%
%ADD133R,0.0769X0.0006*%
%ADD134R,0.0152X0.0006*%
%ADD135R,0.0774X0.0006*%
%ADD136R,0.0785X0.0006*%
%ADD137R,0.0152X0.0006*%
%ADD138R,0.0797X0.0006*%
%ADD139R,0.0807X0.0006*%
%ADD140R,0.0819X0.0006*%
%ADD141R,0.0825X0.0006*%
%ADD142R,0.0836X0.0006*%
%ADD143R,0.0847X0.0006*%
%ADD144R,0.0853X0.0006*%
%ADD145R,0.0865X0.0006*%
%ADD146R,0.0875X0.0006*%
%ADD147R,0.0887X0.0006*%
%ADD148R,0.0899X0.0006*%
%ADD149R,0.0904X0.0006*%
%ADD150R,0.0915X0.0006*%
%ADD151R,0.0921X0.0006*%
%ADD152R,0.0933X0.0006*%
%ADD153R,0.0943X0.0006*%
%ADD154R,0.0955X0.0006*%
%ADD155R,0.0967X0.0006*%
%ADD156R,0.0972X0.0006*%
%ADD157R,0.0977X0.0006*%
%ADD158R,0.0989X0.0006*%
%ADD159R,0.1000X0.0006*%
%ADD160R,0.1011X0.0006*%
%ADD161R,0.1017X0.0006*%
%ADD162R,0.1023X0.0006*%
%ADD163R,0.1033X0.0006*%
%ADD164R,0.1045X0.0006*%
%ADD165R,0.1057X0.0006*%
%ADD166R,0.1057X0.0006*%
%ADD167R,0.1067X0.0006*%
%ADD168R,0.1079X0.0006*%
%ADD169R,0.1091X0.0006*%
%ADD170R,0.1101X0.0006*%
%ADD171R,0.1101X0.0006*%
%ADD172R,0.1113X0.0006*%
%ADD173R,0.1125X0.0006*%
%ADD174R,0.1130X0.0006*%
%ADD175R,0.1135X0.0006*%
%ADD176R,0.1147X0.0006*%
%ADD177R,0.1159X0.0006*%
%ADD178R,0.1164X0.0006*%
%ADD179R,0.1169X0.0006*%
%ADD180R,0.1181X0.0006*%
%ADD181R,0.1193X0.0006*%
%ADD182R,0.1193X0.0006*%
%ADD183R,0.1203X0.0006*%
%ADD184R,0.1215X0.0006*%
%ADD185R,0.1220X0.0006*%
%ADD186R,0.1226X0.0006*%
%ADD187R,0.1237X0.0006*%
%ADD188R,0.1243X0.0006*%
%ADD189R,0.1249X0.0006*%
%ADD190R,0.1259X0.0006*%
%ADD191R,0.0159X0.0006*%
%ADD192R,0.1265X0.0006*%
%ADD193R,0.0159X0.0006*%
%ADD194R,0.1271X0.0006*%
%ADD195R,0.0164X0.0006*%
%ADD196R,0.1283X0.0006*%
%ADD197R,0.0158X0.0006*%
%ADD198R,0.1288X0.0006*%
%ADD199R,0.0169X0.0006*%
%ADD200R,0.1293X0.0006*%
%ADD201R,0.1305X0.0006*%
%ADD202R,0.0170X0.0006*%
%ADD203R,0.1311X0.0006*%
%ADD204R,0.0169X0.0006*%
%ADD205R,0.0175X0.0006*%
%ADD206R,0.1317X0.0006*%
%ADD207R,0.0181X0.0006*%
%ADD208R,0.1322X0.0006*%
%ADD209R,0.0186X0.0006*%
%ADD210R,0.0192X0.0006*%
%ADD211R,0.1333X0.0006*%
%ADD212R,0.0192X0.0006*%
%ADD213R,0.0203X0.0006*%
%ADD214R,0.1339X0.0006*%
%ADD215R,0.0232X0.0006*%
%ADD216R,0.1345X0.0006*%
%ADD217R,0.0243X0.0006*%
%ADD218R,0.1351X0.0006*%
%ADD219R,0.0248X0.0006*%
%ADD220R,0.1356X0.0006*%
%ADD221R,0.0243X0.0006*%
%ADD222R,0.0232X0.0006*%
%ADD223R,0.1367X0.0006*%
%ADD224R,0.0237X0.0006*%
%ADD225R,0.1373X0.0006*%
%ADD226R,0.0231X0.0006*%
%ADD227R,0.0221X0.0006*%
%ADD228R,0.1379X0.0006*%
%ADD229R,0.1385X0.0006*%
%ADD230R,0.0209X0.0006*%
%ADD231R,0.1390X0.0006*%
%ADD232R,0.0209X0.0006*%
%ADD233R,0.0198X0.0006*%
%ADD234R,0.1395X0.0006*%
%ADD235R,0.1407X0.0006*%
%ADD236R,0.1413X0.0006*%
%ADD237R,0.0186X0.0006*%
%ADD238R,0.0170X0.0006*%
%ADD239R,0.1419X0.0006*%
%ADD240R,0.0175X0.0006*%
%ADD241R,0.1424X0.0006*%
%ADD242R,0.0164X0.0006*%
%ADD243R,0.1429X0.0006*%
%ADD244R,0.1435X0.0006*%
%ADD245R,0.1441X0.0006*%
%ADD246R,0.1446X0.0006*%
%ADD247R,0.0187X0.0006*%
%ADD248R,0.1452X0.0006*%
%ADD249R,0.1458X0.0006*%
%ADD250R,0.0204X0.0006*%
%ADD251R,0.1463X0.0006*%
%ADD252R,0.0209X0.0006*%
%ADD253R,0.1469X0.0006*%
%ADD254R,0.1475X0.0006*%
%ADD255R,0.1480X0.0006*%
%ADD256R,0.0232X0.0006*%
%ADD257R,0.1485X0.0006*%
%ADD258R,0.0237X0.0006*%
%ADD259R,0.1485X0.0006*%
%ADD260R,0.1497X0.0006*%
%ADD261R,0.0248X0.0006*%
%ADD262R,0.1497X0.0006*%
%ADD263R,0.1509X0.0006*%
%ADD264R,0.0209X0.0006*%
%ADD265R,0.1509X0.0006*%
%ADD266R,0.0187X0.0006*%
%ADD267R,0.1519X0.0006*%
%ADD268R,0.0186X0.0006*%
%ADD269R,0.1519X0.0006*%
%ADD270R,0.1525X0.0006*%
%ADD271R,0.1531X0.0006*%
%ADD272R,0.1537X0.0006*%
%ADD273R,0.1543X0.0006*%
%ADD274R,0.0159X0.0006*%
%ADD275R,0.1548X0.0006*%
%ADD276R,0.1548X0.0006*%
%ADD277R,0.1553X0.0006*%
%ADD278R,0.0159X0.0006*%
%ADD279R,0.1559X0.0006*%
%ADD280R,0.1559X0.0006*%
%ADD281R,0.1571X0.0006*%
%ADD282R,0.1571X0.0006*%
%ADD283R,0.1577X0.0006*%
%ADD284R,0.1582X0.0006*%
%ADD285R,0.1582X0.0006*%
%ADD286R,0.1582X0.0006*%
%ADD287R,0.1593X0.0006*%
%ADD288R,0.1593X0.0006*%
%ADD289R,0.1605X0.0006*%
%ADD290R,0.1605X0.0006*%
%ADD291R,0.1605X0.0006*%
%ADD292R,0.1610X0.0006*%
%ADD293R,0.1616X0.0006*%
%ADD294R,0.1616X0.0006*%
%ADD295R,0.1622X0.0006*%
%ADD296R,0.1627X0.0006*%
%ADD297R,0.1627X0.0006*%
%ADD298R,0.1627X0.0006*%
%ADD299R,0.1633X0.0006*%
%ADD300R,0.1633X0.0006*%
%ADD301R,0.1639X0.0006*%
%ADD302R,0.1639X0.0006*%
%ADD303R,0.1644X0.0006*%
%ADD304R,0.1644X0.0006*%
%ADD305R,0.1650X0.0006*%
%ADD306R,0.1656X0.0006*%
%ADD307R,0.1656X0.0006*%
%ADD308R,0.1656X0.0006*%
%ADD309R,0.0820X0.0006*%
%ADD310R,0.0831X0.0006*%
%ADD311R,0.0814X0.0006*%
%ADD312R,0.0831X0.0006*%
%ADD313R,0.0814X0.0006*%
%ADD314R,0.0808X0.0006*%
%ADD315R,0.0819X0.0006*%
%ADD316R,0.0808X0.0006*%
%ADD317R,0.0819X0.0006*%
%ADD318R,0.0803X0.0006*%
%ADD319R,0.0797X0.0006*%
%ADD320R,0.0802X0.0006*%
%ADD321R,0.0791X0.0006*%
%ADD322R,0.0796X0.0006*%
%ADD323R,0.0786X0.0006*%
%ADD324R,0.0796X0.0006*%
%ADD325R,0.0780X0.0006*%
%ADD326R,0.0791X0.0006*%
%ADD327R,0.0774X0.0006*%
%ADD328R,0.0769X0.0006*%
%ADD329R,0.0774X0.0006*%
%ADD330R,0.0763X0.0006*%
%ADD331R,0.0763X0.0006*%
%ADD332R,0.0769X0.0006*%
%ADD333R,0.0751X0.0006*%
%ADD334R,0.0751X0.0006*%
%ADD335R,0.0752X0.0006*%
%ADD336R,0.0740X0.0006*%
%ADD337R,0.0746X0.0006*%
%ADD338R,0.0735X0.0006*%
%ADD339R,0.0740X0.0006*%
%ADD340R,0.0729X0.0006*%
%ADD341R,0.0740X0.0006*%
%ADD342R,0.0724X0.0006*%
%ADD343R,0.0729X0.0006*%
%ADD344R,0.0718X0.0006*%
%ADD345R,0.0724X0.0006*%
%ADD346R,0.0712X0.0006*%
%ADD347R,0.0718X0.0006*%
%ADD348R,0.0712X0.0006*%
%ADD349R,0.0712X0.0006*%
%ADD350R,0.0700X0.0006*%
%ADD351R,0.0700X0.0006*%
%ADD352R,0.0690X0.0006*%
%ADD353R,0.0684X0.0006*%
%ADD354R,0.0690X0.0006*%
%ADD355R,0.0672X0.0006*%
%ADD356R,0.0678X0.0006*%
%ADD357R,0.0672X0.0006*%
%ADD358R,0.0672X0.0006*%
%ADD359R,0.0666X0.0006*%
%ADD360R,0.0655X0.0006*%
%ADD361R,0.0661X0.0006*%
%ADD362R,0.0650X0.0006*%
%ADD363R,0.0638X0.0006*%
%ADD364R,0.0627X0.0006*%
%ADD365R,0.0638X0.0006*%
%ADD366R,0.0621X0.0006*%
%ADD367R,0.0627X0.0006*%
%ADD368R,0.0616X0.0006*%
%ADD369R,0.0604X0.0006*%
%ADD370R,0.0604X0.0006*%
%ADD371R,0.0593X0.0006*%
%ADD372R,0.0582X0.0006*%
%ADD373R,0.0593X0.0006*%
%ADD374R,0.0577X0.0006*%
%ADD375R,0.0582X0.0006*%
%ADD376R,0.0187X0.0006*%
%ADD377R,0.0571X0.0006*%
%ADD378R,0.0570X0.0006*%
%ADD379R,0.0180X0.0006*%
%ADD380R,0.0198X0.0006*%
%ADD381R,0.0559X0.0006*%
%ADD382R,0.0560X0.0006*%
%ADD383R,0.0548X0.0006*%
%ADD384R,0.0294X0.0006*%
%ADD385R,0.0537X0.0006*%
%ADD386R,0.0537X0.0006*%
%ADD387R,0.0520X0.0006*%
%ADD388R,0.0526X0.0006*%
%ADD389R,0.0508X0.0006*%
%ADD390R,0.0514X0.0006*%
%ADD391R,0.0498X0.0006*%
%ADD392R,0.0480X0.0006*%
%ADD393R,0.0486X0.0006*%
%ADD394R,0.0282X0.0006*%
%ADD395R,0.0464X0.0006*%
%ADD396R,0.0474X0.0006*%
%ADD397R,0.0452X0.0006*%
%ADD398R,0.0452X0.0006*%
%ADD399R,0.0435X0.0006*%
%ADD400R,0.0440X0.0006*%
%ADD401R,0.0418X0.0006*%
%ADD402R,0.0401X0.0006*%
%ADD403R,0.0406X0.0006*%
%ADD404R,0.0384X0.0006*%
%ADD405R,0.0255X0.0006*%
%ADD406R,0.0361X0.0006*%
%ADD407R,0.0367X0.0006*%
%ADD408R,0.0249X0.0006*%
%ADD409R,0.0333X0.0006*%
%ADD410R,0.0345X0.0006*%
%ADD411R,0.0254X0.0006*%
%ADD412R,0.0311X0.0006*%
%ADD413R,0.0238X0.0006*%
%ADD414R,0.0277X0.0006*%
%ADD415R,0.0232X0.0006*%
%ADD416R,0.0226X0.0006*%
%ADD417R,0.0197X0.0006*%
%ADD418R,0.0198X0.0006*%
%ADD419R,0.0130X0.0006*%
%ADD420R,0.0215X0.0006*%
%ADD421C,0.0220*%
%ADD422C,0.0000*%
%ADD423C,0.0120*%
%ADD424R,0.0300X0.0180*%
%ADD425R,0.0180X0.0300*%
D10*
X006333Y004500D02*
X006333Y016000D01*
X024833Y016000D01*
X024833Y004500D01*
X006333Y004500D01*
X006583Y004750D02*
X007083Y004750D01*
X007333Y005000D01*
X007333Y005500D01*
X007083Y005750D01*
X007333Y006000D01*
X007333Y006500D01*
X007083Y006750D01*
X006583Y006750D01*
X006333Y006500D01*
X006333Y006000D01*
X006583Y005750D01*
X007083Y005750D01*
X006583Y005750D01*
X006333Y005500D01*
X006333Y005000D01*
X006583Y004750D01*
X008333Y005000D02*
X008333Y005500D01*
X008583Y005750D01*
X009083Y005750D01*
X009333Y006000D01*
X009333Y006500D01*
X009083Y006750D01*
X008583Y006750D01*
X008333Y006500D01*
X008333Y006000D01*
X008583Y005750D01*
X009083Y005750D01*
X009333Y005500D01*
X009333Y005000D01*
X009083Y004750D01*
X008583Y004750D01*
X008333Y005000D01*
X008583Y006750D02*
X009083Y006750D01*
X009333Y007000D01*
X009333Y007500D01*
X009083Y007750D01*
X008583Y007750D01*
X008333Y007500D01*
X008333Y007000D01*
X008583Y006750D01*
X007333Y007000D02*
X007333Y007500D01*
X007083Y007750D01*
X006583Y007750D01*
X006333Y007500D01*
X006333Y007000D01*
X006583Y006750D01*
X007083Y006750D01*
X007333Y007000D01*
X012103Y006236D02*
X012103Y005764D01*
X012615Y005016D02*
X012851Y005016D01*
X013363Y005764D02*
X013363Y006236D01*
X012851Y006984D02*
X012615Y006984D01*
X012601Y008360D02*
X012444Y008518D01*
X012444Y011982D01*
X012601Y012140D01*
X016066Y012140D01*
X016223Y011982D01*
X016223Y008518D01*
X016066Y008360D01*
X012601Y008360D01*
X015333Y006900D02*
X015333Y004800D01*
X016633Y004800D01*
X016633Y006900D01*
X015333Y006900D01*
X016271Y005100D02*
X016273Y005121D01*
X016279Y005140D01*
X016288Y005159D01*
X016300Y005175D01*
X016316Y005189D01*
X016333Y005200D01*
X016352Y005208D01*
X016373Y005212D01*
X016393Y005212D01*
X016414Y005208D01*
X016433Y005200D01*
X016450Y005189D01*
X016466Y005175D01*
X016478Y005159D01*
X016487Y005140D01*
X016493Y005121D01*
X016495Y005100D01*
X016493Y005079D01*
X016487Y005060D01*
X016478Y005041D01*
X016466Y005025D01*
X016450Y005011D01*
X016433Y005000D01*
X016414Y004992D01*
X016393Y004988D01*
X016373Y004988D01*
X016352Y004992D01*
X016333Y005000D01*
X016316Y005011D01*
X016300Y005025D01*
X016288Y005041D01*
X016279Y005060D01*
X016273Y005079D01*
X016271Y005100D01*
X019833Y005000D02*
X020083Y004750D01*
X020583Y004750D01*
X020833Y005000D01*
X021083Y004750D01*
X021583Y004750D01*
X021833Y005000D01*
X021833Y005500D01*
X021583Y005750D01*
X021083Y005750D01*
X020833Y005500D01*
X020833Y005000D01*
X020833Y005500D01*
X020583Y005750D01*
X020083Y005750D01*
X019833Y005500D01*
X019833Y005000D01*
X021833Y005000D02*
X022083Y004750D01*
X022583Y004750D01*
X022833Y005000D01*
X023083Y004750D01*
X023583Y004750D01*
X023833Y005000D01*
X023833Y005500D01*
X023583Y005750D01*
X023083Y005750D01*
X022833Y005500D01*
X022833Y005000D01*
X022833Y005500D01*
X022583Y005750D01*
X022083Y005750D01*
X021833Y005500D01*
X021833Y005000D01*
X023833Y005000D02*
X024083Y004750D01*
X024583Y004750D01*
X024833Y005000D01*
X024833Y005500D01*
X024583Y005750D01*
X024083Y005750D01*
X023833Y005500D01*
X023833Y005000D01*
X024083Y005750D02*
X024583Y005750D01*
X024833Y006000D01*
X024833Y006500D01*
X024583Y006750D01*
X024083Y006750D01*
X023833Y006500D01*
X023833Y006000D01*
X024083Y005750D01*
X024083Y006750D02*
X024583Y006750D01*
X024833Y007000D01*
X024833Y007500D01*
X024583Y007750D01*
X024083Y007750D01*
X023833Y007500D01*
X023833Y007000D01*
X024083Y006750D01*
X024083Y007750D02*
X024583Y007750D01*
X024833Y008000D01*
X024833Y008500D01*
X024583Y008750D01*
X024083Y008750D01*
X023833Y008500D01*
X023833Y008000D01*
X024083Y007750D01*
X024083Y008750D02*
X024583Y008750D01*
X024833Y009000D01*
X024833Y009500D01*
X024583Y009750D01*
X024083Y009750D01*
X023833Y009500D01*
X023833Y009000D01*
X024083Y008750D01*
X024083Y009750D02*
X024583Y009750D01*
X024833Y010000D01*
X024833Y010500D01*
X024583Y010750D01*
X024083Y010750D01*
X023833Y010500D01*
X023833Y010000D01*
X024083Y009750D01*
X024083Y010750D02*
X024583Y010750D01*
X024833Y011000D01*
X024833Y011500D01*
X024583Y011750D01*
X024083Y011750D01*
X023833Y011500D01*
X023833Y011000D01*
X024083Y010750D01*
X021939Y010896D02*
X021939Y011447D01*
X021427Y011447D01*
X021427Y010896D01*
X021427Y011447D02*
X021427Y011604D01*
X021939Y011604D02*
X021939Y011447D01*
X020609Y011565D02*
X020609Y011801D01*
X020294Y011801D01*
X020609Y010935D02*
X020609Y010699D01*
X020294Y010699D01*
X020294Y010301D02*
X020609Y010301D01*
X020609Y010065D01*
X021427Y010104D02*
X021427Y009947D01*
X021939Y009947D01*
X021939Y009396D01*
X021427Y009396D02*
X021427Y009947D01*
X021939Y009947D02*
X021939Y010104D01*
X020609Y009435D02*
X020609Y009199D01*
X020294Y009199D01*
X020294Y008801D02*
X020609Y008801D01*
X020609Y008565D01*
X021427Y008604D02*
X021427Y008447D01*
X021939Y008447D01*
X021939Y007896D01*
X021427Y007896D02*
X021427Y008447D01*
X021939Y008447D02*
X021939Y008604D01*
X020609Y007935D02*
X020609Y007699D01*
X020294Y007699D01*
X009893Y012581D02*
X009893Y012919D01*
X009439Y012431D02*
X009228Y012431D01*
X008773Y012581D02*
X008773Y012919D01*
X008178Y013679D02*
X008178Y013856D01*
X008178Y013679D02*
X009989Y013679D01*
X009989Y013856D01*
X009477Y013856D02*
X009477Y014644D01*
X009989Y014644D02*
X009989Y014821D01*
X008178Y014821D01*
X008178Y014644D01*
X007333Y014750D02*
X007333Y014250D01*
X007083Y014000D01*
X006583Y014000D01*
X006333Y014250D01*
X006333Y014750D01*
X006583Y015000D01*
X007083Y015000D01*
X007333Y014750D01*
X007083Y015000D02*
X006583Y015000D01*
X006333Y015250D01*
X006333Y015750D01*
X006583Y016000D01*
X007083Y016000D01*
X007333Y015750D01*
X007333Y015250D01*
X007083Y015000D01*
X010833Y015250D02*
X011083Y015000D01*
X011583Y015000D01*
X011833Y015250D01*
X012083Y015000D01*
X012583Y015000D01*
X012833Y015250D01*
X013083Y015000D01*
X013583Y015000D01*
X013833Y015250D01*
X013833Y015750D01*
X013583Y016000D01*
X013083Y016000D01*
X012833Y015750D01*
X012833Y015250D01*
X012833Y015750D01*
X012583Y016000D01*
X012083Y016000D01*
X011833Y015750D01*
X011833Y015250D01*
X011833Y015750D01*
X011583Y016000D01*
X011083Y016000D01*
X010833Y015750D01*
X010833Y015250D01*
X012164Y014810D02*
X012502Y014810D01*
X012652Y014356D02*
X012652Y014144D01*
X012502Y013690D02*
X012164Y013690D01*
X013833Y015250D02*
X014083Y015000D01*
X014583Y015000D01*
X014833Y015250D01*
X015083Y015000D01*
X015583Y015000D01*
X015833Y015250D01*
X015833Y015750D01*
X015583Y016000D01*
X015083Y016000D01*
X014833Y015750D01*
X014833Y015250D01*
X014833Y015750D01*
X014583Y016000D01*
X014083Y016000D01*
X013833Y015750D01*
X013833Y015250D01*
X015833Y015250D02*
X016083Y015000D01*
X016583Y015000D01*
X016833Y015250D01*
X017083Y015000D01*
X017583Y015000D01*
X017833Y015250D01*
X017833Y015750D01*
X017583Y016000D01*
X017083Y016000D01*
X016833Y015750D01*
X016833Y015250D01*
X016833Y015750D01*
X016583Y016000D01*
X016083Y016000D01*
X015833Y015750D01*
X015833Y015250D01*
X017833Y015250D02*
X018083Y015000D01*
X018583Y015000D01*
X018833Y015250D01*
X018833Y015750D01*
X018583Y016000D01*
X018083Y016000D01*
X017833Y015750D01*
X017833Y015250D01*
D11*
X017787Y015076D02*
X017462Y014750D01*
X017679Y014533D01*
X017787Y014424D02*
X018004Y014207D01*
X018113Y014099D02*
X018275Y013936D01*
X018384Y013936D01*
X018601Y014153D01*
X018601Y014262D01*
X018438Y014424D01*
X018113Y014099D01*
X017787Y014424D02*
X018113Y014750D01*
X018330Y014533D01*
X018058Y014479D02*
X017950Y014587D01*
X017542Y014376D02*
X017542Y014268D01*
X017325Y014051D01*
X017216Y014051D01*
X017053Y014213D01*
X017379Y014539D01*
X017542Y014376D01*
X017270Y014647D02*
X016945Y014322D01*
X017053Y014865D01*
X016728Y014539D01*
X016673Y014702D02*
X016565Y014702D01*
X016456Y014810D01*
X016456Y014919D01*
X016673Y015136D01*
X016782Y015136D01*
X016890Y015027D01*
X016890Y014919D01*
X016782Y014810D02*
X016673Y014919D01*
X016782Y014810D02*
X016673Y014702D01*
X016221Y014735D02*
X016112Y014843D01*
X016004Y014843D01*
X015841Y014898D02*
X015624Y014681D01*
X015733Y014572D02*
X016167Y014572D01*
X016221Y014626D01*
X016221Y014735D01*
X015841Y014898D02*
X015841Y015115D01*
X015624Y015115D01*
X015407Y014898D01*
X015570Y015060D02*
X015787Y014843D01*
X015733Y014572D02*
X015950Y014355D01*
X015500Y014204D02*
X015423Y014280D01*
X015193Y014280D01*
X015193Y013820D01*
X015423Y013820D01*
X015500Y013897D01*
X015500Y014204D01*
X015039Y014280D02*
X015039Y013820D01*
X014733Y014280D01*
X014733Y013820D01*
X014579Y013897D02*
X014579Y014050D01*
X014426Y014050D01*
X014579Y013897D02*
X014502Y013820D01*
X014349Y013820D01*
X014272Y013897D01*
X014272Y014204D01*
X014349Y014280D01*
X014502Y014280D01*
X014579Y014204D01*
X013771Y014647D02*
X013694Y014570D01*
X013540Y014570D01*
X013464Y014647D01*
X013310Y014570D02*
X013310Y014877D01*
X013157Y015030D01*
X013003Y014877D01*
X013003Y014570D01*
X013003Y014800D02*
X013310Y014800D01*
X013464Y014954D02*
X013540Y015030D01*
X013694Y015030D01*
X013771Y014954D01*
X013771Y014877D01*
X013694Y014800D01*
X013771Y014723D01*
X013771Y014647D01*
X013694Y014800D02*
X013617Y014800D01*
X011531Y013804D02*
X011454Y013880D01*
X011301Y013880D01*
X011224Y013804D01*
X011071Y013880D02*
X011071Y013420D01*
X010917Y013573D01*
X010764Y013420D01*
X010764Y013880D01*
X010610Y013804D02*
X010534Y013880D01*
X010380Y013880D01*
X010303Y013804D01*
X010303Y013727D01*
X010380Y013650D01*
X010534Y013650D01*
X010610Y013573D01*
X010610Y013497D01*
X010534Y013420D01*
X010380Y013420D01*
X010303Y013497D01*
X011224Y013420D02*
X011531Y013727D01*
X011531Y013804D01*
X011531Y013420D02*
X011224Y013420D01*
X008652Y013850D02*
X008345Y013850D01*
X008498Y013697D02*
X008498Y014004D01*
X008191Y014004D02*
X008115Y014080D01*
X007885Y014080D01*
X007885Y013620D01*
X008115Y013620D01*
X008191Y013697D01*
X008191Y014004D01*
X007731Y014080D02*
X007424Y014080D01*
X007424Y013620D01*
X007731Y013620D01*
X007578Y013850D02*
X007424Y013850D01*
X007271Y013620D02*
X006964Y013620D01*
X006964Y014080D01*
X006810Y014004D02*
X006734Y014080D01*
X006580Y014080D01*
X006503Y014004D01*
X006503Y013697D01*
X006580Y013620D01*
X006734Y013620D01*
X006810Y013697D01*
X007530Y015370D02*
X007684Y015370D01*
X007760Y015447D01*
X007914Y015370D02*
X008221Y015370D01*
X008374Y015370D02*
X008681Y015370D01*
X008835Y015370D02*
X009065Y015370D01*
X009141Y015447D01*
X009141Y015754D01*
X009065Y015830D01*
X008835Y015830D01*
X008835Y015370D01*
X008528Y015600D02*
X008374Y015600D01*
X008374Y015830D02*
X008374Y015370D01*
X007914Y015370D02*
X007914Y015830D01*
X007760Y015754D02*
X007684Y015830D01*
X007530Y015830D01*
X007453Y015754D01*
X007453Y015447D01*
X007530Y015370D01*
X008374Y015830D02*
X008681Y015830D01*
X009295Y015600D02*
X009602Y015600D01*
X009603Y015627D02*
X009680Y015550D01*
X009834Y015550D01*
X009910Y015473D01*
X009910Y015397D01*
X009834Y015320D01*
X009680Y015320D01*
X009603Y015397D01*
X009603Y015627D02*
X009603Y015704D01*
X009680Y015780D01*
X009834Y015780D01*
X009910Y015704D01*
X010064Y015780D02*
X010064Y015320D01*
X010217Y015473D01*
X010371Y015320D01*
X010371Y015780D01*
X010524Y015627D02*
X010678Y015780D01*
X010678Y015320D01*
X010831Y015320D02*
X010524Y015320D01*
X018601Y013936D02*
X018818Y013719D01*
X018818Y013936D02*
X018601Y013719D01*
X019307Y014234D02*
X019469Y014071D01*
X019578Y014071D01*
X019795Y014289D01*
X019795Y014397D01*
X019632Y014560D01*
X019307Y014234D01*
X019198Y014343D02*
X019524Y014668D01*
X019307Y014885D02*
X018981Y014560D01*
X018927Y014723D02*
X019035Y014831D01*
X018927Y014940D01*
X018927Y015157D02*
X018710Y014940D01*
X018710Y014831D01*
X018818Y014723D01*
X018927Y014723D01*
X019144Y014940D02*
X019144Y015048D01*
X019035Y015157D01*
X018927Y015157D01*
X019307Y014885D02*
X019198Y014343D01*
X022229Y012511D02*
X022306Y012588D01*
X022459Y012588D01*
X022536Y012511D01*
X022229Y012204D01*
X022306Y012128D01*
X022459Y012128D01*
X022536Y012204D01*
X022536Y012511D01*
X022229Y012511D02*
X022229Y012204D01*
X022076Y012435D02*
X021922Y012128D01*
X021769Y012435D01*
X022690Y012204D02*
X022766Y012204D01*
X022766Y012128D01*
X022690Y012128D01*
X022690Y012204D01*
X022920Y012204D02*
X022997Y012128D01*
X023150Y012128D01*
X023227Y012204D01*
X023227Y012281D01*
X023150Y012358D01*
X023073Y012358D01*
X023150Y012358D02*
X023227Y012435D01*
X023227Y012511D01*
X023150Y012588D01*
X022997Y012588D01*
X022920Y012511D01*
X023257Y011480D02*
X023257Y011020D01*
X023410Y011020D02*
X023103Y011020D01*
X023103Y011327D02*
X023257Y011480D01*
X023564Y011250D02*
X023871Y011250D01*
X023717Y011404D02*
X023717Y011097D01*
X023257Y010580D02*
X023257Y010120D01*
X023410Y010120D02*
X023103Y010120D01*
X023564Y010350D02*
X023871Y010350D01*
X023257Y010580D02*
X023103Y010427D01*
X023180Y009580D02*
X023103Y009504D01*
X023180Y009580D02*
X023334Y009580D01*
X023410Y009504D01*
X023410Y009427D01*
X023103Y009120D01*
X023410Y009120D01*
X023717Y009197D02*
X023717Y009504D01*
X023564Y009350D02*
X023871Y009350D01*
X023384Y008580D02*
X023230Y008580D01*
X023153Y008504D01*
X023384Y008580D02*
X023460Y008504D01*
X023460Y008427D01*
X023153Y008120D01*
X023460Y008120D01*
X023614Y008350D02*
X023921Y008350D01*
X023334Y007480D02*
X023410Y007404D01*
X023410Y007327D01*
X023334Y007250D01*
X023410Y007173D01*
X023410Y007097D01*
X023334Y007020D01*
X023180Y007020D01*
X023103Y007097D01*
X023257Y007250D02*
X023334Y007250D01*
X023564Y007250D02*
X023871Y007250D01*
X023717Y007404D02*
X023717Y007097D01*
X023360Y006804D02*
X023360Y006727D01*
X023284Y006650D01*
X023360Y006573D01*
X023360Y006497D01*
X023284Y006420D01*
X023130Y006420D01*
X023053Y006497D01*
X023207Y006650D02*
X023284Y006650D01*
X023360Y006804D02*
X023284Y006880D01*
X023130Y006880D01*
X023053Y006804D01*
X022731Y006870D02*
X022731Y007330D01*
X022424Y007330D02*
X022731Y006870D01*
X022424Y006870D02*
X022424Y007330D01*
X022271Y007330D02*
X021964Y007330D01*
X022117Y007330D02*
X022117Y006870D01*
X021971Y006680D02*
X021664Y006220D01*
X021971Y006220D02*
X021664Y006680D01*
X021510Y006680D02*
X021203Y006680D01*
X021357Y006680D02*
X021357Y006220D01*
X022124Y006450D02*
X022431Y006450D01*
X022278Y006297D02*
X022278Y006604D01*
X022580Y006280D02*
X022503Y006204D01*
X022503Y005897D01*
X022580Y005820D01*
X022734Y005820D01*
X022810Y005897D01*
X022810Y006050D01*
X022657Y006050D01*
X022810Y006204D02*
X022734Y006280D01*
X022580Y006280D01*
X022964Y006280D02*
X023271Y005820D01*
X023271Y006280D01*
X023424Y006280D02*
X023654Y006280D01*
X023731Y006204D01*
X023731Y005897D01*
X023654Y005820D01*
X023424Y005820D01*
X023424Y006280D01*
X022964Y006280D02*
X022964Y005820D01*
X023514Y006650D02*
X023821Y006650D01*
X023103Y007404D02*
X023180Y007480D01*
X023334Y007480D01*
X021810Y007254D02*
X021810Y007177D01*
X021734Y007100D01*
X021503Y007100D01*
X021503Y006870D02*
X021734Y006870D01*
X021810Y006947D01*
X021810Y007023D01*
X021734Y007100D01*
X021810Y007254D02*
X021734Y007330D01*
X021503Y007330D01*
X021503Y006870D01*
X020431Y007050D02*
X020124Y007050D01*
X019971Y006820D02*
X019664Y007280D01*
X019510Y007280D02*
X019203Y007280D01*
X019357Y007280D02*
X019357Y006820D01*
X019664Y006820D02*
X019971Y007280D01*
X019738Y005580D02*
X019738Y005120D01*
X019585Y005120D02*
X019891Y005120D01*
X019585Y005427D02*
X019738Y005580D01*
X019431Y005580D02*
X019124Y005580D01*
X018971Y005580D02*
X018971Y005197D01*
X018894Y005120D01*
X018740Y005120D01*
X018664Y005197D01*
X018664Y005580D01*
X018510Y005504D02*
X018434Y005580D01*
X018280Y005580D01*
X018203Y005504D01*
X018203Y005197D01*
X018280Y005120D01*
X018434Y005120D01*
X018510Y005197D01*
X018510Y005504D01*
X019278Y005580D02*
X019278Y005120D01*
X010677Y006668D02*
X010460Y006451D01*
X010460Y006885D01*
X010406Y006940D01*
X010297Y006940D01*
X010189Y006831D01*
X010189Y006723D01*
X010026Y006668D02*
X009809Y006451D01*
X009700Y006343D02*
X009972Y006072D01*
X009972Y005963D01*
X009863Y005855D01*
X009755Y005855D01*
X009483Y006126D01*
X009429Y005963D02*
X009321Y005963D01*
X009212Y005855D01*
X009212Y005746D01*
X009429Y005529D01*
X009538Y005529D01*
X009646Y005638D01*
X009646Y005746D01*
X009429Y005963D01*
X009513Y006458D02*
X009187Y006783D01*
X009350Y006946D01*
X009458Y006946D01*
X009567Y006837D01*
X009567Y006729D01*
X009404Y006566D01*
X009513Y006675D02*
X009730Y006675D01*
X009784Y006837D02*
X009892Y006837D01*
X010001Y006946D01*
X010001Y007054D01*
X009947Y007109D01*
X009838Y007109D01*
X009730Y007000D01*
X009621Y007000D01*
X009567Y007054D01*
X009567Y007163D01*
X009675Y007271D01*
X009784Y007271D01*
X009838Y007434D02*
X010055Y007651D01*
X009947Y007543D02*
X010272Y007217D01*
X009433Y007628D02*
X009108Y007954D01*
X009271Y008117D01*
X009379Y008117D01*
X009488Y008008D01*
X009488Y007900D01*
X009325Y007737D01*
X009433Y007845D02*
X009650Y007845D01*
X009759Y007954D02*
X009650Y008496D01*
X009922Y008442D02*
X010139Y008659D01*
X009976Y008171D02*
X009433Y008279D01*
X008174Y008328D02*
X007957Y008545D01*
X007957Y008328D02*
X008174Y008545D01*
X007686Y008382D02*
X007794Y007839D01*
X007686Y007731D02*
X007469Y007731D01*
X007523Y007785D02*
X007360Y007622D01*
X007469Y007514D02*
X007143Y007839D01*
X007306Y008002D01*
X007414Y008002D01*
X007523Y007893D01*
X007523Y007785D01*
X007838Y007405D02*
X008001Y007568D01*
X008109Y007568D01*
X008326Y007351D01*
X008326Y007242D01*
X008164Y007079D01*
X007838Y007405D01*
X007730Y007296D02*
X008055Y006971D01*
X007513Y007079D01*
X007838Y006754D01*
X007675Y006700D02*
X007675Y006591D01*
X007567Y006483D01*
X007458Y006483D01*
X007241Y006700D01*
X007241Y006808D01*
X007350Y006917D01*
X007458Y006917D01*
X007567Y006808D02*
X007458Y006700D01*
X007567Y006808D02*
X007675Y006700D01*
X007951Y006468D02*
X008059Y006468D01*
X008114Y006413D01*
X008114Y006305D01*
X008222Y006305D01*
X008276Y006251D01*
X008276Y006142D01*
X008168Y006034D01*
X008059Y006034D01*
X007897Y005979D02*
X007680Y006196D01*
X007842Y006251D02*
X007842Y006359D01*
X007951Y006468D01*
X008114Y006305D02*
X008059Y006251D01*
X007897Y005979D02*
X007897Y005762D01*
X007680Y005762D01*
X007463Y005979D01*
X007408Y005817D02*
X007463Y005762D01*
X007463Y005654D01*
X007571Y005654D01*
X007625Y005600D01*
X007625Y005491D01*
X007517Y005383D01*
X007408Y005383D01*
X007408Y005600D02*
X007463Y005654D01*
X007408Y005817D02*
X007300Y005817D01*
X007191Y005708D01*
X007191Y005600D01*
X009917Y006560D02*
X010243Y006234D01*
X008011Y008056D02*
X007469Y008165D01*
D12*
X012648Y011825D02*
X012650Y011845D01*
X012655Y011865D01*
X012665Y011883D01*
X012677Y011900D01*
X012692Y011914D01*
X012710Y011924D01*
X012729Y011932D01*
X012749Y011936D01*
X012769Y011936D01*
X012789Y011932D01*
X012808Y011924D01*
X012826Y011914D01*
X012841Y011900D01*
X012853Y011883D01*
X012863Y011865D01*
X012868Y011845D01*
X012870Y011825D01*
X012868Y011805D01*
X012863Y011785D01*
X012853Y011767D01*
X012841Y011750D01*
X012826Y011736D01*
X012808Y011726D01*
X012789Y011718D01*
X012769Y011714D01*
X012749Y011714D01*
X012729Y011718D01*
X012710Y011726D01*
X012692Y011736D01*
X012677Y011750D01*
X012665Y011767D01*
X012655Y011785D01*
X012650Y011805D01*
X012648Y011825D01*
X010683Y013850D02*
X011933Y015100D01*
X014683Y015050D02*
X015433Y014300D01*
X019833Y006750D02*
X020983Y005650D01*
X021833Y006000D02*
X022033Y005700D01*
X022733Y006700D02*
X023933Y005700D01*
D13*
X022730Y013201D03*
D14*
X022730Y013207D03*
D15*
X021693Y013212D03*
X023772Y013212D03*
D16*
X022730Y013212D03*
D17*
X021656Y013218D03*
D18*
X022730Y013218D03*
D19*
X022730Y013263D03*
X023809Y013218D03*
D20*
X023820Y013224D03*
X024040Y013919D03*
X021645Y013224D03*
X021430Y014145D03*
D21*
X022730Y013224D03*
D22*
X023829Y013229D03*
X024055Y013935D03*
X024055Y014128D03*
X021637Y013229D03*
X021518Y013365D03*
X021326Y014015D03*
X021326Y014048D03*
D23*
X022730Y013229D03*
D24*
X021631Y013235D03*
X021331Y014009D03*
D25*
X022730Y013235D03*
D26*
X023834Y013235D03*
X024139Y014009D03*
X024139Y014054D03*
X023834Y014828D03*
X021523Y013359D03*
D27*
X021625Y013241D03*
D28*
X022730Y013241D03*
D29*
X023840Y013241D03*
X024134Y014003D03*
X024134Y014060D03*
X023840Y014822D03*
D30*
X023846Y013246D03*
X021620Y013246D03*
D31*
X022730Y013246D03*
D32*
X021617Y013252D03*
X021617Y014811D03*
D33*
X022730Y013252D03*
D34*
X023851Y013252D03*
X021348Y013981D03*
X021348Y014082D03*
X021371Y014105D03*
D35*
X021614Y013258D03*
X022732Y013303D03*
X024122Y013986D03*
X024122Y014077D03*
D36*
X022730Y013258D03*
D37*
X023854Y013258D03*
D38*
X021608Y013263D03*
D39*
X023857Y013263D03*
X021552Y014709D03*
X023857Y014800D03*
D40*
X023860Y014794D03*
X021357Y014099D03*
X021606Y013269D03*
X023860Y013269D03*
D41*
X023990Y013760D03*
X023990Y013772D03*
X024007Y013862D03*
X024018Y013885D03*
X024024Y013896D03*
X024007Y014201D03*
X024001Y014224D03*
X023990Y014291D03*
X023990Y014303D03*
X023984Y014337D03*
X023984Y014348D03*
X023984Y014359D03*
X023984Y014382D03*
X023984Y014393D03*
X023984Y014416D03*
X023984Y014427D03*
X023984Y014450D03*
X023984Y014461D03*
X023984Y014484D03*
X023984Y014506D03*
X023984Y014517D03*
X022730Y013269D03*
X021493Y013416D03*
X021476Y013760D03*
X021476Y013772D03*
X021476Y013783D03*
X021470Y013817D03*
X021459Y013862D03*
X021453Y014178D03*
X021470Y014235D03*
X021476Y014269D03*
X021493Y014642D03*
D42*
X023863Y014789D03*
X023863Y013274D03*
X021603Y013274D03*
D43*
X022730Y013274D03*
D44*
X021600Y013280D03*
D45*
X021419Y013930D03*
X022730Y013280D03*
X023956Y013371D03*
D46*
X023865Y013280D03*
D47*
X023868Y013286D03*
X022732Y013320D03*
X021597Y013286D03*
X023868Y014777D03*
D48*
X022730Y013286D03*
D49*
X021597Y013291D03*
X021597Y014772D03*
D50*
X022730Y013291D03*
D51*
X023871Y013291D03*
X023871Y014772D03*
X021594Y014760D03*
D52*
X021594Y014766D03*
X023871Y014766D03*
X021594Y013297D03*
D53*
X021541Y013354D03*
X021343Y013992D03*
X021343Y014071D03*
X022733Y013297D03*
X024128Y013992D03*
X024128Y014071D03*
D54*
X023874Y013297D03*
X021592Y014755D03*
D55*
X023874Y014760D03*
X023874Y013303D03*
X022733Y013325D03*
X021592Y013303D03*
D56*
X021589Y013308D03*
X021589Y014743D03*
D57*
X021354Y014094D03*
X021354Y013969D03*
X022733Y013308D03*
X023919Y014709D03*
D58*
X023877Y014755D03*
X023877Y013308D03*
D59*
X021589Y013314D03*
X021589Y014749D03*
D60*
X022733Y013314D03*
D61*
X023877Y013314D03*
X023877Y014749D03*
D62*
X021586Y014732D03*
X021586Y013320D03*
X022733Y013331D03*
D63*
X023879Y013320D03*
X023879Y014743D03*
D64*
X023168Y014794D03*
X021586Y014738D03*
X021586Y013325D03*
D65*
X021583Y013337D03*
X023882Y013337D03*
X023882Y013325D03*
X023882Y014726D03*
X021583Y014726D03*
D66*
X021583Y014721D03*
X023882Y014732D03*
X023882Y013331D03*
X021583Y013331D03*
D67*
X021580Y013348D03*
X022732Y013337D03*
X023885Y013348D03*
D68*
X023885Y013342D03*
X021580Y013342D03*
X023885Y014721D03*
D69*
X022733Y013342D03*
D70*
X022733Y013348D03*
D71*
X022733Y013354D03*
D72*
X023927Y013354D03*
X023848Y014811D03*
D73*
X022733Y013359D03*
D74*
X023939Y013359D03*
X023939Y014704D03*
D75*
X022732Y013365D03*
D76*
X023947Y013365D03*
D77*
X021512Y013371D03*
D78*
X022733Y013371D03*
D79*
X021507Y013376D03*
X021422Y013924D03*
X021428Y014139D03*
X023953Y014693D03*
D80*
X022733Y013376D03*
D81*
X023961Y013376D03*
X024035Y013913D03*
X024035Y014150D03*
X023961Y014681D03*
X021436Y014150D03*
D82*
X021504Y014676D03*
X021504Y013382D03*
D83*
X022732Y013382D03*
X022292Y014772D03*
D84*
X021444Y014167D03*
X021444Y013896D03*
X021450Y013885D03*
X023964Y013382D03*
X023970Y013393D03*
X024015Y014178D03*
X023970Y014664D03*
X023964Y014676D03*
D85*
X024026Y014161D03*
X024026Y013902D03*
X023970Y013399D03*
X023964Y013387D03*
X021501Y013387D03*
X021433Y013913D03*
X021314Y014026D03*
X021314Y014037D03*
X021444Y014161D03*
X021501Y014670D03*
X021506Y014681D03*
D86*
X022733Y013387D03*
D87*
X023978Y013427D03*
X023978Y014619D03*
X021498Y014664D03*
X021498Y013393D03*
D88*
X022733Y013393D03*
D89*
X023978Y013421D03*
X023978Y013433D03*
X024012Y013868D03*
X024012Y013879D03*
X024012Y014184D03*
X023967Y014670D03*
X021498Y014659D03*
X021447Y014173D03*
X021447Y013890D03*
X021464Y013845D03*
X021498Y013399D03*
D90*
X022732Y013399D03*
D91*
X023973Y013404D03*
X023984Y013495D03*
X023990Y013749D03*
X024001Y013839D03*
X024001Y014212D03*
X023990Y014280D03*
X023990Y014314D03*
X023984Y014371D03*
X023984Y014404D03*
X023984Y014438D03*
X023984Y014472D03*
X023984Y014495D03*
X023984Y014529D03*
X023973Y014653D03*
X021487Y014597D03*
X021459Y014190D03*
X021453Y013873D03*
X021493Y013404D03*
D92*
X022733Y013404D03*
D93*
X023973Y013410D03*
X023990Y013743D03*
X023990Y013755D03*
X023990Y013766D03*
X024001Y013834D03*
X024007Y013856D03*
X024007Y014195D03*
X024007Y014207D03*
X024001Y014218D03*
X023990Y014274D03*
X023990Y014286D03*
X023990Y014297D03*
X023990Y014308D03*
X023990Y014320D03*
X023984Y014331D03*
X023984Y014342D03*
X023984Y014354D03*
X023984Y014365D03*
X023984Y014376D03*
X023984Y014387D03*
X023984Y014399D03*
X023984Y014410D03*
X023984Y014421D03*
X023984Y014433D03*
X023984Y014444D03*
X023984Y014455D03*
X023984Y014467D03*
X023984Y014478D03*
X023984Y014489D03*
X023984Y014500D03*
X023984Y014512D03*
X023984Y014523D03*
X023973Y014647D03*
X023973Y014659D03*
X021493Y014647D03*
X021493Y014636D03*
X021487Y014602D03*
X021476Y014263D03*
X021459Y014195D03*
X021453Y014184D03*
X021453Y013879D03*
X021459Y013868D03*
X021470Y013822D03*
X021470Y013811D03*
X021476Y013777D03*
X021476Y013766D03*
X021493Y013410D03*
D94*
X022733Y013410D03*
D95*
X022732Y013416D03*
D96*
X023976Y013416D03*
X023981Y013450D03*
X023981Y013461D03*
X023981Y013484D03*
X023987Y013506D03*
X023987Y013517D03*
X023987Y013540D03*
X023987Y013551D03*
X023987Y013574D03*
X023987Y013585D03*
X023987Y013608D03*
X023987Y013619D03*
X023987Y013630D03*
X023987Y013642D03*
X023987Y013664D03*
X023987Y013676D03*
X023987Y013698D03*
X023987Y013704D03*
X023987Y013726D03*
X023987Y013738D03*
X023987Y014325D03*
X023981Y014540D03*
X023981Y014551D03*
X023981Y014574D03*
X023981Y014585D03*
X023981Y014608D03*
X023976Y014630D03*
X023976Y014642D03*
X021490Y014630D03*
X021490Y014619D03*
X021490Y014608D03*
X021467Y014224D03*
X021462Y014201D03*
X021462Y013851D03*
X021467Y013828D03*
X021490Y013427D03*
D97*
X021490Y013421D03*
X021490Y013433D03*
X021490Y013444D03*
X021467Y013834D03*
X021462Y013856D03*
X021462Y014207D03*
X021467Y014218D03*
X021467Y014229D03*
X021490Y014613D03*
X021490Y014625D03*
X023976Y014625D03*
X023976Y014636D03*
X023981Y014613D03*
X023981Y014602D03*
X023981Y014591D03*
X023981Y014580D03*
X023981Y014568D03*
X023981Y014557D03*
X023981Y014546D03*
X023981Y014534D03*
X023987Y013732D03*
X023987Y013721D03*
X023987Y013709D03*
X023987Y013693D03*
X023987Y013681D03*
X023987Y013670D03*
X023987Y013659D03*
X023987Y013647D03*
X023987Y013636D03*
X023987Y013625D03*
X023987Y013613D03*
X023987Y013602D03*
X023987Y013591D03*
X023987Y013580D03*
X023987Y013568D03*
X023987Y013557D03*
X023987Y013546D03*
X023987Y013534D03*
X023987Y013523D03*
X023987Y013512D03*
X023987Y013500D03*
X023981Y013489D03*
X023981Y013478D03*
X023981Y013467D03*
X023981Y013455D03*
X023981Y013444D03*
D98*
X022733Y013421D03*
D99*
X022733Y013427D03*
D100*
X022732Y013433D03*
D101*
X023981Y013472D03*
X023987Y013529D03*
X023987Y013563D03*
X023987Y013597D03*
X023987Y013653D03*
X023987Y013687D03*
X023987Y013715D03*
X023981Y014563D03*
X023981Y014597D03*
X021490Y013438D03*
D102*
X022733Y013438D03*
D103*
X023978Y013438D03*
X024012Y013873D03*
X024159Y014032D03*
X024012Y014190D03*
X021464Y014212D03*
X021464Y013839D03*
X021498Y014653D03*
D104*
X022733Y013444D03*
D105*
X021487Y013450D03*
D106*
X022732Y013450D03*
D107*
X023993Y013777D03*
X023993Y013789D03*
X023993Y013800D03*
X023998Y013822D03*
X024004Y013845D03*
X023998Y014229D03*
X023993Y014263D03*
X022298Y014811D03*
X021484Y014591D03*
X021484Y014580D03*
X021484Y014568D03*
X021484Y014557D03*
X021484Y014546D03*
X021484Y014534D03*
X021484Y014523D03*
X021484Y014512D03*
X021484Y014500D03*
X021484Y014489D03*
X021484Y014478D03*
X021484Y014467D03*
X021484Y014455D03*
X021484Y014444D03*
X021484Y014433D03*
X021484Y014421D03*
X021484Y014410D03*
X021484Y014399D03*
X021484Y014387D03*
X021484Y014376D03*
X021484Y014365D03*
X021479Y014320D03*
X021479Y014308D03*
X021479Y014297D03*
X021479Y014286D03*
X021479Y014274D03*
X021473Y014252D03*
X021473Y014241D03*
X021473Y013800D03*
X021473Y013789D03*
X021479Y013755D03*
X021479Y013743D03*
X021479Y013732D03*
X021484Y013568D03*
X021484Y013557D03*
X021484Y013546D03*
X021484Y013534D03*
X021484Y013523D03*
X021484Y013512D03*
X021484Y013500D03*
X021484Y013489D03*
X021484Y013478D03*
X021484Y013467D03*
X021484Y013455D03*
D108*
X022733Y013455D03*
D109*
X023993Y013783D03*
X023993Y013794D03*
X023998Y013817D03*
X023998Y013828D03*
X024004Y013851D03*
X023998Y014235D03*
X023993Y014269D03*
X021484Y014359D03*
X021484Y014382D03*
X021484Y014393D03*
X021484Y014416D03*
X021484Y014427D03*
X021484Y014450D03*
X021484Y014461D03*
X021484Y014484D03*
X021484Y014506D03*
X021484Y014517D03*
X021484Y014540D03*
X021484Y014551D03*
X021484Y014574D03*
X021484Y014585D03*
X021479Y014325D03*
X021479Y014303D03*
X021479Y014291D03*
X021473Y014258D03*
X021473Y013794D03*
X021479Y013738D03*
X021484Y013574D03*
X021484Y013551D03*
X021484Y013540D03*
X021484Y013517D03*
X021484Y013506D03*
X021484Y013484D03*
X021484Y013461D03*
D110*
X022733Y013461D03*
D111*
X022733Y013467D03*
D112*
X021484Y013472D03*
X021484Y013495D03*
X021484Y013529D03*
X021484Y013563D03*
X021479Y013749D03*
X021473Y013806D03*
X021309Y014032D03*
X021473Y014246D03*
X021479Y014280D03*
X021479Y014314D03*
X021484Y014371D03*
X021484Y014404D03*
X021484Y014438D03*
X021484Y014472D03*
X021484Y014495D03*
X021484Y014529D03*
X021484Y014563D03*
D113*
X022733Y013472D03*
D114*
X022732Y013478D03*
D115*
X022733Y013484D03*
D116*
X022733Y013489D03*
D117*
X022732Y013495D03*
D118*
X022733Y013500D03*
D119*
X022733Y013506D03*
D120*
X022730Y013512D03*
D121*
X022730Y013517D03*
D122*
X022730Y013523D03*
X022284Y014636D03*
D123*
X022730Y013529D03*
D124*
X022730Y013534D03*
D125*
X022730Y013540D03*
X022284Y014608D03*
D126*
X022730Y013546D03*
D127*
X022732Y013551D03*
D128*
X022733Y013557D03*
D129*
X022733Y013563D03*
D130*
X022732Y013568D03*
X022292Y014557D03*
D131*
X023168Y014551D03*
X022733Y013574D03*
D132*
X023995Y013811D03*
X023995Y014241D03*
X023995Y014252D03*
X021481Y014331D03*
X021481Y014342D03*
X021481Y014354D03*
X021481Y013721D03*
X021481Y013709D03*
X021481Y013693D03*
X021481Y013681D03*
X021481Y013670D03*
X021481Y013659D03*
X021481Y013647D03*
X021481Y013636D03*
X021481Y013625D03*
X021481Y013613D03*
X021481Y013602D03*
X021481Y013591D03*
X021481Y013580D03*
D133*
X022733Y013580D03*
D134*
X021481Y013585D03*
X021481Y013608D03*
X021481Y013619D03*
X021481Y013630D03*
X021481Y013642D03*
X021481Y013664D03*
X021481Y013676D03*
X021481Y013698D03*
X021481Y013704D03*
X021481Y013726D03*
X021481Y014337D03*
X021481Y014348D03*
X023995Y014258D03*
D135*
X022730Y013585D03*
X022300Y014517D03*
D136*
X022730Y013591D03*
D137*
X023995Y013806D03*
X023995Y014246D03*
X021481Y013715D03*
X021481Y013687D03*
X021481Y013653D03*
X021481Y013597D03*
D138*
X022730Y013597D03*
X022306Y014495D03*
D139*
X022730Y013602D03*
D140*
X022730Y013608D03*
D141*
X022733Y013613D03*
X023151Y014467D03*
D142*
X022732Y013619D03*
D143*
X022733Y013625D03*
D144*
X022730Y013630D03*
D145*
X022730Y013636D03*
D146*
X022730Y013642D03*
D147*
X022730Y013647D03*
D148*
X022730Y013653D03*
D149*
X022732Y013659D03*
D150*
X022733Y013664D03*
D151*
X022730Y013670D03*
D152*
X022730Y013676D03*
D153*
X022730Y013681D03*
D154*
X022730Y013687D03*
D155*
X022730Y013693D03*
D156*
X022732Y013698D03*
D157*
X022730Y013704D03*
D158*
X022730Y013709D03*
D159*
X022730Y013715D03*
D160*
X022730Y013721D03*
D161*
X022733Y013726D03*
D162*
X022730Y013732D03*
D163*
X022730Y013738D03*
D164*
X022730Y013743D03*
D165*
X022730Y013749D03*
D166*
X022730Y013755D03*
D167*
X022730Y013760D03*
D168*
X022730Y013766D03*
D169*
X022730Y013772D03*
D170*
X022730Y013777D03*
D171*
X022730Y013783D03*
D172*
X022730Y013789D03*
D173*
X022730Y013794D03*
D174*
X022727Y013800D03*
D175*
X022730Y013806D03*
D176*
X022730Y013811D03*
D177*
X022730Y013817D03*
D178*
X022727Y013822D03*
D179*
X022730Y013828D03*
D180*
X022730Y013834D03*
D181*
X022730Y013839D03*
D182*
X022730Y013845D03*
D183*
X022730Y013851D03*
D184*
X022730Y013856D03*
D185*
X022727Y013862D03*
D186*
X022730Y013868D03*
D187*
X022730Y013873D03*
D188*
X022727Y013879D03*
D189*
X022730Y013885D03*
D190*
X022730Y013890D03*
D191*
X024021Y013890D03*
X024021Y014173D03*
D192*
X022727Y013896D03*
D193*
X021439Y013902D03*
D194*
X022730Y013902D03*
D195*
X024029Y014156D03*
X021509Y014687D03*
X021436Y013907D03*
D196*
X022730Y013907D03*
D197*
X024032Y013907D03*
X023817Y014839D03*
X021648Y014839D03*
D198*
X022727Y013913D03*
D199*
X021428Y013919D03*
X021422Y014133D03*
X024038Y014145D03*
D200*
X022730Y013919D03*
D201*
X022730Y013924D03*
D202*
X024043Y013924D03*
X024043Y014139D03*
D203*
X022727Y013930D03*
D204*
X024049Y013930D03*
X023959Y014687D03*
D205*
X023826Y014834D03*
X021640Y014834D03*
X021515Y014693D03*
X021414Y014128D03*
X021414Y013935D03*
D206*
X022730Y013935D03*
D207*
X021405Y013941D03*
D208*
X022727Y013941D03*
D209*
X024063Y013941D03*
D210*
X021399Y013947D03*
X021399Y014116D03*
D211*
X022727Y013947D03*
D212*
X024071Y013947D03*
X024071Y014116D03*
D213*
X024083Y013952D03*
X021388Y013952D03*
X021388Y014111D03*
D214*
X022730Y013952D03*
D215*
X021368Y013958D03*
X024097Y013958D03*
X024097Y014105D03*
D216*
X022727Y013958D03*
D217*
X021357Y013964D03*
D218*
X022730Y013964D03*
D219*
X024111Y013964D03*
D220*
X022727Y013969D03*
D221*
X024114Y013969D03*
X024114Y014094D03*
X023171Y014800D03*
X022295Y014800D03*
X021606Y014789D03*
D222*
X021351Y013975D03*
D223*
X022727Y013975D03*
D224*
X024117Y013975D03*
D225*
X022730Y013981D03*
D226*
X024120Y013981D03*
X024120Y014082D03*
D227*
X021346Y014077D03*
X021346Y013986D03*
D228*
X022727Y013986D03*
D229*
X022730Y013992D03*
D230*
X021340Y013998D03*
D231*
X022727Y013998D03*
D232*
X024131Y013998D03*
D233*
X021628Y014822D03*
X021334Y014060D03*
X021334Y014003D03*
D234*
X022730Y014003D03*
D235*
X022730Y014009D03*
D236*
X022727Y014015D03*
D237*
X024142Y014015D03*
X024142Y014048D03*
D238*
X021320Y014043D03*
X021320Y014020D03*
D239*
X022730Y014020D03*
D240*
X024046Y014133D03*
X024148Y014043D03*
X024148Y014020D03*
D241*
X022727Y014026D03*
D242*
X024153Y014026D03*
X024153Y014037D03*
D243*
X022730Y014032D03*
D244*
X022727Y014037D03*
D245*
X022730Y014043D03*
D246*
X022727Y014048D03*
D247*
X021329Y014054D03*
X021634Y014828D03*
D248*
X022730Y014054D03*
D249*
X022727Y014060D03*
D250*
X021337Y014065D03*
D251*
X022730Y014065D03*
D252*
X024131Y014065D03*
D253*
X022727Y014071D03*
D254*
X022730Y014077D03*
D255*
X022727Y014082D03*
D256*
X021351Y014088D03*
D257*
X022730Y014088D03*
D258*
X024117Y014088D03*
D259*
X022730Y014094D03*
D260*
X022730Y014099D03*
D261*
X024111Y014099D03*
D262*
X022730Y014105D03*
D263*
X022730Y014111D03*
D264*
X021623Y014817D03*
X024080Y014111D03*
D265*
X022730Y014116D03*
D266*
X021408Y014122D03*
D267*
X022730Y014122D03*
D268*
X024063Y014122D03*
D269*
X022730Y014128D03*
D270*
X022733Y014133D03*
D271*
X022730Y014139D03*
D272*
X022733Y014145D03*
D273*
X022730Y014150D03*
D274*
X021439Y014156D03*
D275*
X022732Y014156D03*
D276*
X022732Y014161D03*
D277*
X022730Y014167D03*
D278*
X024021Y014167D03*
D279*
X022733Y014173D03*
D280*
X022733Y014178D03*
D281*
X022733Y014184D03*
D282*
X022733Y014190D03*
D283*
X022730Y014195D03*
D284*
X022732Y014201D03*
D285*
X022732Y014207D03*
D286*
X022732Y014212D03*
D287*
X022733Y014218D03*
X022733Y014229D03*
D288*
X022733Y014224D03*
D289*
X022733Y014235D03*
D290*
X022733Y014241D03*
D291*
X022733Y014246D03*
D292*
X022735Y014252D03*
D293*
X022732Y014258D03*
X022732Y014269D03*
D294*
X022732Y014263D03*
D295*
X022735Y014274D03*
D296*
X022733Y014280D03*
D297*
X022733Y014286D03*
D298*
X022733Y014291D03*
D299*
X022736Y014297D03*
D300*
X022736Y014303D03*
D301*
X022733Y014308D03*
D302*
X022733Y014314D03*
D303*
X022735Y014320D03*
X022735Y014331D03*
X022735Y014342D03*
D304*
X022735Y014337D03*
X022735Y014325D03*
D305*
X022732Y014348D03*
D306*
X022735Y014354D03*
X022735Y014365D03*
X022735Y014376D03*
X022735Y014387D03*
X022735Y014399D03*
X022735Y014410D03*
X022735Y014421D03*
X022735Y014433D03*
X022735Y014444D03*
D307*
X022735Y014450D03*
X022735Y014427D03*
X022735Y014416D03*
X022735Y014393D03*
X022735Y014382D03*
X022735Y014359D03*
D308*
X022735Y014371D03*
X022735Y014404D03*
X022735Y014438D03*
D309*
X022317Y014455D03*
D310*
X023148Y014455D03*
D311*
X023156Y014484D03*
X022314Y014461D03*
D312*
X023148Y014461D03*
D313*
X023156Y014489D03*
X022314Y014467D03*
D314*
X022311Y014472D03*
D315*
X023154Y014472D03*
D316*
X022311Y014478D03*
D317*
X023154Y014478D03*
D318*
X022309Y014484D03*
D319*
X022306Y014489D03*
D320*
X023156Y014495D03*
D321*
X023162Y014512D03*
X022303Y014500D03*
D322*
X023159Y014500D03*
D323*
X022300Y014506D03*
D324*
X023159Y014506D03*
D325*
X023162Y014523D03*
X022303Y014512D03*
D326*
X023162Y014517D03*
D327*
X023165Y014534D03*
X022300Y014523D03*
D328*
X022298Y014529D03*
D329*
X023165Y014529D03*
D330*
X023165Y014546D03*
X022295Y014534D03*
D331*
X022295Y014540D03*
D332*
X023168Y014540D03*
D333*
X022295Y014546D03*
D334*
X022295Y014551D03*
D335*
X023170Y014557D03*
D336*
X022289Y014563D03*
D337*
X023167Y014563D03*
D338*
X022292Y014568D03*
D339*
X023170Y014568D03*
D340*
X022289Y014574D03*
D341*
X023170Y014574D03*
D342*
X022286Y014580D03*
D343*
X023171Y014580D03*
D344*
X022289Y014585D03*
D345*
X023173Y014585D03*
D346*
X022286Y014591D03*
D347*
X023170Y014591D03*
D348*
X022286Y014597D03*
D349*
X023173Y014597D03*
D350*
X023173Y014602D03*
X022286Y014602D03*
D351*
X023173Y014608D03*
D352*
X023173Y014613D03*
X022286Y014613D03*
D353*
X022283Y014619D03*
D354*
X023173Y014619D03*
D355*
X022283Y014625D03*
D356*
X023173Y014625D03*
D357*
X022283Y014630D03*
D358*
X023176Y014630D03*
D359*
X023173Y014636D03*
D360*
X022281Y014642D03*
D361*
X023176Y014642D03*
D362*
X023176Y014647D03*
X022283Y014647D03*
D363*
X022283Y014653D03*
X023176Y014653D03*
D364*
X022284Y014659D03*
D365*
X023176Y014659D03*
D366*
X022281Y014664D03*
D367*
X023176Y014664D03*
D368*
X023176Y014670D03*
X022283Y014670D03*
D369*
X022283Y014676D03*
D370*
X023176Y014676D03*
D371*
X023176Y014681D03*
X022284Y014681D03*
D372*
X022283Y014687D03*
D373*
X023176Y014687D03*
D374*
X022281Y014693D03*
D375*
X023176Y014693D03*
D376*
X021521Y014698D03*
D377*
X022284Y014698D03*
D378*
X023176Y014698D03*
D379*
X023947Y014698D03*
D380*
X021532Y014704D03*
D381*
X022284Y014704D03*
D382*
X023176Y014704D03*
D383*
X023176Y014709D03*
X022283Y014709D03*
D384*
X021580Y014715D03*
X023885Y014715D03*
D385*
X022284Y014715D03*
D386*
X023176Y014715D03*
D387*
X022286Y014721D03*
D388*
X023176Y014721D03*
D389*
X022286Y014726D03*
D390*
X023176Y014726D03*
D391*
X023173Y014732D03*
X022286Y014732D03*
D392*
X022283Y014738D03*
D393*
X023173Y014738D03*
D394*
X023879Y014738D03*
D395*
X022286Y014743D03*
D396*
X023173Y014743D03*
D397*
X022286Y014749D03*
D398*
X023173Y014749D03*
D399*
X022289Y014755D03*
D400*
X023173Y014755D03*
D401*
X023173Y014760D03*
X022292Y014760D03*
D402*
X022289Y014766D03*
D403*
X023173Y014766D03*
D404*
X023173Y014772D03*
D405*
X021600Y014777D03*
D406*
X022292Y014777D03*
D407*
X023171Y014777D03*
D408*
X021603Y014783D03*
D409*
X022295Y014783D03*
D410*
X023171Y014783D03*
D411*
X023865Y014783D03*
D412*
X023171Y014789D03*
X022295Y014789D03*
D413*
X021608Y014794D03*
D414*
X022295Y014794D03*
D415*
X021611Y014800D03*
D416*
X021614Y014806D03*
X023851Y014806D03*
D417*
X022295Y014806D03*
D418*
X023170Y014806D03*
D419*
X023170Y014811D03*
X023803Y014845D03*
X021662Y014845D03*
D420*
X023846Y014817D03*
D421*
X022845Y011250D02*
X022821Y011250D01*
X022845Y009750D02*
X022821Y009750D01*
X022845Y008250D02*
X022821Y008250D01*
X017333Y007812D02*
X017333Y007788D01*
X014095Y005500D02*
X014071Y005500D01*
X011295Y005450D02*
X011271Y005450D01*
X009333Y008888D02*
X009333Y008912D01*
X012071Y012800D02*
X012095Y012800D01*
X013833Y013588D02*
X013833Y013612D01*
X013833Y014438D02*
X013833Y014462D01*
X016321Y014050D02*
X016345Y014050D01*
D422*
X018583Y013250D02*
X018585Y013299D01*
X018591Y013347D01*
X018601Y013395D01*
X018615Y013442D01*
X018632Y013488D01*
X018653Y013532D01*
X018678Y013574D01*
X018706Y013614D01*
X018738Y013652D01*
X018772Y013687D01*
X018809Y013719D01*
X018848Y013748D01*
X018890Y013774D01*
X018934Y013796D01*
X018979Y013814D01*
X019026Y013829D01*
X019073Y013840D01*
X019122Y013847D01*
X019171Y013850D01*
X019220Y013849D01*
X019268Y013844D01*
X019317Y013835D01*
X019364Y013822D01*
X019410Y013805D01*
X019454Y013785D01*
X019497Y013761D01*
X019538Y013734D01*
X019576Y013703D01*
X019612Y013670D01*
X019644Y013634D01*
X019674Y013595D01*
X019701Y013554D01*
X019724Y013510D01*
X019743Y013465D01*
X019759Y013419D01*
X019771Y013372D01*
X019779Y013323D01*
X019783Y013274D01*
X019783Y013226D01*
X019779Y013177D01*
X019771Y013128D01*
X019759Y013081D01*
X019743Y013035D01*
X019724Y012990D01*
X019701Y012946D01*
X019674Y012905D01*
X019644Y012866D01*
X019612Y012830D01*
X019576Y012797D01*
X019538Y012766D01*
X019497Y012739D01*
X019454Y012715D01*
X019410Y012695D01*
X019364Y012678D01*
X019317Y012665D01*
X019268Y012656D01*
X019220Y012651D01*
X019171Y012650D01*
X019122Y012653D01*
X019073Y012660D01*
X019026Y012671D01*
X018979Y012686D01*
X018934Y012704D01*
X018890Y012726D01*
X018848Y012752D01*
X018809Y012781D01*
X018772Y012813D01*
X018738Y012848D01*
X018706Y012886D01*
X018678Y012926D01*
X018653Y012968D01*
X018632Y013012D01*
X018615Y013058D01*
X018601Y013105D01*
X018591Y013153D01*
X018585Y013201D01*
X018583Y013250D01*
X007532Y010998D02*
X007534Y011023D01*
X007540Y011048D01*
X007549Y011072D01*
X007562Y011094D01*
X007579Y011114D01*
X007598Y011131D01*
X007619Y011145D01*
X007643Y011155D01*
X007667Y011162D01*
X007693Y011165D01*
X007718Y011164D01*
X007743Y011159D01*
X007767Y011150D01*
X007790Y011138D01*
X007810Y011123D01*
X007828Y011104D01*
X007843Y011083D01*
X007854Y011060D01*
X007862Y011036D01*
X007866Y011011D01*
X007866Y010985D01*
X007862Y010960D01*
X007854Y010936D01*
X007843Y010913D01*
X007828Y010892D01*
X007810Y010873D01*
X007790Y010858D01*
X007767Y010846D01*
X007743Y010837D01*
X007718Y010832D01*
X007693Y010831D01*
X007667Y010834D01*
X007643Y010841D01*
X007619Y010851D01*
X007598Y010865D01*
X007579Y010882D01*
X007562Y010902D01*
X007549Y010924D01*
X007540Y010948D01*
X007534Y010973D01*
X007532Y010998D01*
X007532Y009502D02*
X007534Y009527D01*
X007540Y009552D01*
X007549Y009576D01*
X007562Y009598D01*
X007579Y009618D01*
X007598Y009635D01*
X007619Y009649D01*
X007643Y009659D01*
X007667Y009666D01*
X007693Y009669D01*
X007718Y009668D01*
X007743Y009663D01*
X007767Y009654D01*
X007790Y009642D01*
X007810Y009627D01*
X007828Y009608D01*
X007843Y009587D01*
X007854Y009564D01*
X007862Y009540D01*
X007866Y009515D01*
X007866Y009489D01*
X007862Y009464D01*
X007854Y009440D01*
X007843Y009417D01*
X007828Y009396D01*
X007810Y009377D01*
X007790Y009362D01*
X007767Y009350D01*
X007743Y009341D01*
X007718Y009336D01*
X007693Y009335D01*
X007667Y009338D01*
X007643Y009345D01*
X007619Y009355D01*
X007598Y009369D01*
X007579Y009386D01*
X007562Y009406D01*
X007549Y009428D01*
X007540Y009452D01*
X007534Y009477D01*
X007532Y009502D01*
D423*
X008014Y009069D02*
X008014Y008675D01*
X007621Y008675D01*
X008014Y011431D02*
X008014Y011825D01*
X008007Y011822D02*
X007621Y011822D01*
X007621Y011825D01*
D424*
X017533Y013150D03*
X019083Y008900D03*
X011283Y006750D03*
D425*
X010583Y008650D03*
X009333Y009950D03*
X009333Y010750D03*
X010833Y011750D03*
X010833Y012750D03*
X018333Y011750D03*
X018683Y010750D03*
X020983Y006350D03*
M02*
