G75*
%MOIN*%
%OFA0B0*%
%FSLAX24Y24*%
%IPPOS*%
%LPD*%
%AMOC8*
5,1,8,0,0,1.08239X$1,22.5*
%
%ADD10C,0.0000*%
D10*
X001184Y001400D02*
X007884Y001400D01*
X008484Y000850D01*
X008484Y000100D01*
X012408Y000100D01*
X012408Y006400D01*
X008484Y006400D01*
X008484Y005650D01*
X007884Y005100D01*
X001184Y005100D01*
X001184Y001400D01*
X007884Y005100D02*
X007894Y005100D01*
X008882Y005800D02*
X008884Y005825D01*
X008890Y005849D01*
X008899Y005871D01*
X008912Y005892D01*
X008928Y005911D01*
X008947Y005927D01*
X008968Y005940D01*
X008990Y005949D01*
X009014Y005955D01*
X009039Y005957D01*
X009064Y005955D01*
X009088Y005949D01*
X009110Y005940D01*
X009131Y005927D01*
X009150Y005911D01*
X009166Y005892D01*
X009179Y005871D01*
X009188Y005849D01*
X009194Y005825D01*
X009196Y005800D01*
X009194Y005775D01*
X009188Y005751D01*
X009179Y005729D01*
X009166Y005708D01*
X009150Y005689D01*
X009131Y005673D01*
X009110Y005660D01*
X009088Y005651D01*
X009064Y005645D01*
X009039Y005643D01*
X009014Y005645D01*
X008990Y005651D01*
X008968Y005660D01*
X008947Y005673D01*
X008928Y005689D01*
X008912Y005708D01*
X008899Y005729D01*
X008890Y005751D01*
X008884Y005775D01*
X008882Y005800D01*
X009039Y005800D02*
X009041Y005825D01*
X009047Y005849D01*
X009056Y005871D01*
X009069Y005892D01*
X009085Y005911D01*
X009104Y005927D01*
X009125Y005940D01*
X009147Y005949D01*
X009171Y005955D01*
X009196Y005957D01*
X009221Y005955D01*
X009245Y005949D01*
X009267Y005940D01*
X009288Y005927D01*
X009307Y005911D01*
X009323Y005892D01*
X009336Y005871D01*
X009345Y005849D01*
X009351Y005825D01*
X009353Y005800D01*
X009351Y005775D01*
X009345Y005751D01*
X009336Y005729D01*
X009323Y005708D01*
X009307Y005689D01*
X009288Y005673D01*
X009267Y005660D01*
X009245Y005651D01*
X009221Y005645D01*
X009196Y005643D01*
X009171Y005645D01*
X009147Y005651D01*
X009125Y005660D01*
X009104Y005673D01*
X009085Y005689D01*
X009069Y005708D01*
X009056Y005729D01*
X009047Y005751D01*
X009041Y005775D01*
X009039Y005800D01*
X009354Y005800D02*
X009356Y005825D01*
X009362Y005849D01*
X009371Y005871D01*
X009384Y005892D01*
X009400Y005911D01*
X009419Y005927D01*
X009440Y005940D01*
X009462Y005949D01*
X009486Y005955D01*
X009511Y005957D01*
X009536Y005955D01*
X009560Y005949D01*
X009582Y005940D01*
X009603Y005927D01*
X009622Y005911D01*
X009638Y005892D01*
X009651Y005871D01*
X009660Y005849D01*
X009666Y005825D01*
X009668Y005800D01*
X009666Y005775D01*
X009660Y005751D01*
X009651Y005729D01*
X009638Y005708D01*
X009622Y005689D01*
X009603Y005673D01*
X009582Y005660D01*
X009560Y005651D01*
X009536Y005645D01*
X009511Y005643D01*
X009486Y005645D01*
X009462Y005651D01*
X009440Y005660D01*
X009419Y005673D01*
X009400Y005689D01*
X009384Y005708D01*
X009371Y005729D01*
X009362Y005751D01*
X009356Y005775D01*
X009354Y005800D01*
X009512Y005800D02*
X009514Y005825D01*
X009520Y005849D01*
X009529Y005871D01*
X009542Y005892D01*
X009558Y005911D01*
X009577Y005927D01*
X009598Y005940D01*
X009620Y005949D01*
X009644Y005955D01*
X009669Y005957D01*
X009694Y005955D01*
X009718Y005949D01*
X009740Y005940D01*
X009761Y005927D01*
X009780Y005911D01*
X009796Y005892D01*
X009809Y005871D01*
X009818Y005849D01*
X009824Y005825D01*
X009826Y005800D01*
X009824Y005775D01*
X009818Y005751D01*
X009809Y005729D01*
X009796Y005708D01*
X009780Y005689D01*
X009761Y005673D01*
X009740Y005660D01*
X009718Y005651D01*
X009694Y005645D01*
X009669Y005643D01*
X009644Y005645D01*
X009620Y005651D01*
X009598Y005660D01*
X009577Y005673D01*
X009558Y005689D01*
X009542Y005708D01*
X009529Y005729D01*
X009520Y005751D01*
X009514Y005775D01*
X009512Y005800D01*
X010962Y005800D02*
X010964Y005825D01*
X010970Y005849D01*
X010979Y005871D01*
X010992Y005892D01*
X011008Y005911D01*
X011027Y005927D01*
X011048Y005940D01*
X011070Y005949D01*
X011094Y005955D01*
X011119Y005957D01*
X011144Y005955D01*
X011168Y005949D01*
X011190Y005940D01*
X011211Y005927D01*
X011230Y005911D01*
X011246Y005892D01*
X011259Y005871D01*
X011268Y005849D01*
X011274Y005825D01*
X011276Y005800D01*
X011274Y005775D01*
X011268Y005751D01*
X011259Y005729D01*
X011246Y005708D01*
X011230Y005689D01*
X011211Y005673D01*
X011190Y005660D01*
X011168Y005651D01*
X011144Y005645D01*
X011119Y005643D01*
X011094Y005645D01*
X011070Y005651D01*
X011048Y005660D01*
X011027Y005673D01*
X011008Y005689D01*
X010992Y005708D01*
X010979Y005729D01*
X010970Y005751D01*
X010964Y005775D01*
X010962Y005800D01*
X011119Y005800D02*
X011121Y005825D01*
X011127Y005849D01*
X011136Y005871D01*
X011149Y005892D01*
X011165Y005911D01*
X011184Y005927D01*
X011205Y005940D01*
X011227Y005949D01*
X011251Y005955D01*
X011276Y005957D01*
X011301Y005955D01*
X011325Y005949D01*
X011347Y005940D01*
X011368Y005927D01*
X011387Y005911D01*
X011403Y005892D01*
X011416Y005871D01*
X011425Y005849D01*
X011431Y005825D01*
X011433Y005800D01*
X011431Y005775D01*
X011425Y005751D01*
X011416Y005729D01*
X011403Y005708D01*
X011387Y005689D01*
X011368Y005673D01*
X011347Y005660D01*
X011325Y005651D01*
X011301Y005645D01*
X011276Y005643D01*
X011251Y005645D01*
X011227Y005651D01*
X011205Y005660D01*
X011184Y005673D01*
X011165Y005689D01*
X011149Y005708D01*
X011136Y005729D01*
X011127Y005751D01*
X011121Y005775D01*
X011119Y005800D01*
X011434Y005800D02*
X011436Y005825D01*
X011442Y005849D01*
X011451Y005871D01*
X011464Y005892D01*
X011480Y005911D01*
X011499Y005927D01*
X011520Y005940D01*
X011542Y005949D01*
X011566Y005955D01*
X011591Y005957D01*
X011616Y005955D01*
X011640Y005949D01*
X011662Y005940D01*
X011683Y005927D01*
X011702Y005911D01*
X011718Y005892D01*
X011731Y005871D01*
X011740Y005849D01*
X011746Y005825D01*
X011748Y005800D01*
X011746Y005775D01*
X011740Y005751D01*
X011731Y005729D01*
X011718Y005708D01*
X011702Y005689D01*
X011683Y005673D01*
X011662Y005660D01*
X011640Y005651D01*
X011616Y005645D01*
X011591Y005643D01*
X011566Y005645D01*
X011542Y005651D01*
X011520Y005660D01*
X011499Y005673D01*
X011480Y005689D01*
X011464Y005708D01*
X011451Y005729D01*
X011442Y005751D01*
X011436Y005775D01*
X011434Y005800D01*
X011592Y005800D02*
X011594Y005825D01*
X011600Y005849D01*
X011609Y005871D01*
X011622Y005892D01*
X011638Y005911D01*
X011657Y005927D01*
X011678Y005940D01*
X011700Y005949D01*
X011724Y005955D01*
X011749Y005957D01*
X011774Y005955D01*
X011798Y005949D01*
X011820Y005940D01*
X011841Y005927D01*
X011860Y005911D01*
X011876Y005892D01*
X011889Y005871D01*
X011898Y005849D01*
X011904Y005825D01*
X011906Y005800D01*
X011904Y005775D01*
X011898Y005751D01*
X011889Y005729D01*
X011876Y005708D01*
X011860Y005689D01*
X011841Y005673D01*
X011820Y005660D01*
X011798Y005651D01*
X011774Y005645D01*
X011749Y005643D01*
X011724Y005645D01*
X011700Y005651D01*
X011678Y005660D01*
X011657Y005673D01*
X011638Y005689D01*
X011622Y005708D01*
X011609Y005729D01*
X011600Y005751D01*
X011594Y005775D01*
X011592Y005800D01*
X011434Y000700D02*
X011436Y000725D01*
X011442Y000749D01*
X011451Y000771D01*
X011464Y000792D01*
X011480Y000811D01*
X011499Y000827D01*
X011520Y000840D01*
X011542Y000849D01*
X011566Y000855D01*
X011591Y000857D01*
X011616Y000855D01*
X011640Y000849D01*
X011662Y000840D01*
X011683Y000827D01*
X011702Y000811D01*
X011718Y000792D01*
X011731Y000771D01*
X011740Y000749D01*
X011746Y000725D01*
X011748Y000700D01*
X011746Y000675D01*
X011740Y000651D01*
X011731Y000629D01*
X011718Y000608D01*
X011702Y000589D01*
X011683Y000573D01*
X011662Y000560D01*
X011640Y000551D01*
X011616Y000545D01*
X011591Y000543D01*
X011566Y000545D01*
X011542Y000551D01*
X011520Y000560D01*
X011499Y000573D01*
X011480Y000589D01*
X011464Y000608D01*
X011451Y000629D01*
X011442Y000651D01*
X011436Y000675D01*
X011434Y000700D01*
X011119Y000700D02*
X011121Y000725D01*
X011127Y000749D01*
X011136Y000771D01*
X011149Y000792D01*
X011165Y000811D01*
X011184Y000827D01*
X011205Y000840D01*
X011227Y000849D01*
X011251Y000855D01*
X011276Y000857D01*
X011301Y000855D01*
X011325Y000849D01*
X011347Y000840D01*
X011368Y000827D01*
X011387Y000811D01*
X011403Y000792D01*
X011416Y000771D01*
X011425Y000749D01*
X011431Y000725D01*
X011433Y000700D01*
X011431Y000675D01*
X011425Y000651D01*
X011416Y000629D01*
X011403Y000608D01*
X011387Y000589D01*
X011368Y000573D01*
X011347Y000560D01*
X011325Y000551D01*
X011301Y000545D01*
X011276Y000543D01*
X011251Y000545D01*
X011227Y000551D01*
X011205Y000560D01*
X011184Y000573D01*
X011165Y000589D01*
X011149Y000608D01*
X011136Y000629D01*
X011127Y000651D01*
X011121Y000675D01*
X011119Y000700D01*
X010962Y000700D02*
X010964Y000725D01*
X010970Y000749D01*
X010979Y000771D01*
X010992Y000792D01*
X011008Y000811D01*
X011027Y000827D01*
X011048Y000840D01*
X011070Y000849D01*
X011094Y000855D01*
X011119Y000857D01*
X011144Y000855D01*
X011168Y000849D01*
X011190Y000840D01*
X011211Y000827D01*
X011230Y000811D01*
X011246Y000792D01*
X011259Y000771D01*
X011268Y000749D01*
X011274Y000725D01*
X011276Y000700D01*
X011274Y000675D01*
X011268Y000651D01*
X011259Y000629D01*
X011246Y000608D01*
X011230Y000589D01*
X011211Y000573D01*
X011190Y000560D01*
X011168Y000551D01*
X011144Y000545D01*
X011119Y000543D01*
X011094Y000545D01*
X011070Y000551D01*
X011048Y000560D01*
X011027Y000573D01*
X011008Y000589D01*
X010992Y000608D01*
X010979Y000629D01*
X010970Y000651D01*
X010964Y000675D01*
X010962Y000700D01*
X011592Y000700D02*
X011594Y000725D01*
X011600Y000749D01*
X011609Y000771D01*
X011622Y000792D01*
X011638Y000811D01*
X011657Y000827D01*
X011678Y000840D01*
X011700Y000849D01*
X011724Y000855D01*
X011749Y000857D01*
X011774Y000855D01*
X011798Y000849D01*
X011820Y000840D01*
X011841Y000827D01*
X011860Y000811D01*
X011876Y000792D01*
X011889Y000771D01*
X011898Y000749D01*
X011904Y000725D01*
X011906Y000700D01*
X011904Y000675D01*
X011898Y000651D01*
X011889Y000629D01*
X011876Y000608D01*
X011860Y000589D01*
X011841Y000573D01*
X011820Y000560D01*
X011798Y000551D01*
X011774Y000545D01*
X011749Y000543D01*
X011724Y000545D01*
X011700Y000551D01*
X011678Y000560D01*
X011657Y000573D01*
X011638Y000589D01*
X011622Y000608D01*
X011609Y000629D01*
X011600Y000651D01*
X011594Y000675D01*
X011592Y000700D01*
X009512Y000700D02*
X009514Y000725D01*
X009520Y000749D01*
X009529Y000771D01*
X009542Y000792D01*
X009558Y000811D01*
X009577Y000827D01*
X009598Y000840D01*
X009620Y000849D01*
X009644Y000855D01*
X009669Y000857D01*
X009694Y000855D01*
X009718Y000849D01*
X009740Y000840D01*
X009761Y000827D01*
X009780Y000811D01*
X009796Y000792D01*
X009809Y000771D01*
X009818Y000749D01*
X009824Y000725D01*
X009826Y000700D01*
X009824Y000675D01*
X009818Y000651D01*
X009809Y000629D01*
X009796Y000608D01*
X009780Y000589D01*
X009761Y000573D01*
X009740Y000560D01*
X009718Y000551D01*
X009694Y000545D01*
X009669Y000543D01*
X009644Y000545D01*
X009620Y000551D01*
X009598Y000560D01*
X009577Y000573D01*
X009558Y000589D01*
X009542Y000608D01*
X009529Y000629D01*
X009520Y000651D01*
X009514Y000675D01*
X009512Y000700D01*
X009354Y000700D02*
X009356Y000725D01*
X009362Y000749D01*
X009371Y000771D01*
X009384Y000792D01*
X009400Y000811D01*
X009419Y000827D01*
X009440Y000840D01*
X009462Y000849D01*
X009486Y000855D01*
X009511Y000857D01*
X009536Y000855D01*
X009560Y000849D01*
X009582Y000840D01*
X009603Y000827D01*
X009622Y000811D01*
X009638Y000792D01*
X009651Y000771D01*
X009660Y000749D01*
X009666Y000725D01*
X009668Y000700D01*
X009666Y000675D01*
X009660Y000651D01*
X009651Y000629D01*
X009638Y000608D01*
X009622Y000589D01*
X009603Y000573D01*
X009582Y000560D01*
X009560Y000551D01*
X009536Y000545D01*
X009511Y000543D01*
X009486Y000545D01*
X009462Y000551D01*
X009440Y000560D01*
X009419Y000573D01*
X009400Y000589D01*
X009384Y000608D01*
X009371Y000629D01*
X009362Y000651D01*
X009356Y000675D01*
X009354Y000700D01*
X009039Y000700D02*
X009041Y000725D01*
X009047Y000749D01*
X009056Y000771D01*
X009069Y000792D01*
X009085Y000811D01*
X009104Y000827D01*
X009125Y000840D01*
X009147Y000849D01*
X009171Y000855D01*
X009196Y000857D01*
X009221Y000855D01*
X009245Y000849D01*
X009267Y000840D01*
X009288Y000827D01*
X009307Y000811D01*
X009323Y000792D01*
X009336Y000771D01*
X009345Y000749D01*
X009351Y000725D01*
X009353Y000700D01*
X009351Y000675D01*
X009345Y000651D01*
X009336Y000629D01*
X009323Y000608D01*
X009307Y000589D01*
X009288Y000573D01*
X009267Y000560D01*
X009245Y000551D01*
X009221Y000545D01*
X009196Y000543D01*
X009171Y000545D01*
X009147Y000551D01*
X009125Y000560D01*
X009104Y000573D01*
X009085Y000589D01*
X009069Y000608D01*
X009056Y000629D01*
X009047Y000651D01*
X009041Y000675D01*
X009039Y000700D01*
X008882Y000700D02*
X008884Y000725D01*
X008890Y000749D01*
X008899Y000771D01*
X008912Y000792D01*
X008928Y000811D01*
X008947Y000827D01*
X008968Y000840D01*
X008990Y000849D01*
X009014Y000855D01*
X009039Y000857D01*
X009064Y000855D01*
X009088Y000849D01*
X009110Y000840D01*
X009131Y000827D01*
X009150Y000811D01*
X009166Y000792D01*
X009179Y000771D01*
X009188Y000749D01*
X009194Y000725D01*
X009196Y000700D01*
X009194Y000675D01*
X009188Y000651D01*
X009179Y000629D01*
X009166Y000608D01*
X009150Y000589D01*
X009131Y000573D01*
X009110Y000560D01*
X009088Y000551D01*
X009064Y000545D01*
X009039Y000543D01*
X009014Y000545D01*
X008990Y000551D01*
X008968Y000560D01*
X008947Y000573D01*
X008928Y000589D01*
X008912Y000608D01*
X008899Y000629D01*
X008890Y000651D01*
X008884Y000675D01*
X008882Y000700D01*
M02*
