G75*
%MOIN*%
%OFA0B0*%
%FSLAX24Y24*%
%IPPOS*%
%LPD*%
%AMOC8*
5,1,8,0,0,1.08239X$1,22.5*
%
%ADD10R,0.3033X0.0671*%
%ADD11R,0.2639X0.0474*%
%ADD12C,0.0600*%
%ADD13C,0.0780*%
%ADD14C,0.0395*%
%ADD15C,0.0142*%
%ADD16R,0.0474X0.0513*%
D10*
X003055Y001872D03*
X003055Y004628D03*
D11*
X003251Y003644D03*
X003251Y002856D03*
D12*
X008374Y002500D03*
X009124Y002500D03*
X009124Y003250D03*
X008374Y003250D03*
X008374Y004000D03*
X009124Y004000D03*
D13*
X009004Y005800D02*
X009704Y005800D01*
X011084Y005800D02*
X011784Y005800D01*
X011784Y000700D02*
X011084Y000700D01*
X009704Y000700D02*
X009004Y000700D01*
D14*
X009039Y000700D03*
X009196Y000700D03*
X009511Y000700D03*
X009669Y000700D03*
X011119Y000700D03*
X011276Y000700D03*
X011591Y000700D03*
X011749Y000700D03*
X011749Y005800D03*
X011591Y005800D03*
X011276Y005800D03*
X011119Y005800D03*
X009669Y005800D03*
X009511Y005800D03*
X009196Y005800D03*
X009039Y005800D03*
D15*
X007650Y003761D02*
X007318Y003761D01*
X007650Y003761D02*
X007650Y003429D01*
X007318Y003429D01*
X007318Y003761D01*
X007318Y003570D02*
X007650Y003570D01*
X007650Y003711D02*
X007318Y003711D01*
X007318Y003071D02*
X007650Y003071D01*
X007650Y002739D01*
X007318Y002739D01*
X007318Y003071D01*
X007318Y002880D02*
X007650Y002880D01*
X007650Y003021D02*
X007318Y003021D01*
D16*
X006784Y002915D03*
X006784Y003585D03*
M02*
