%
M48
M72
T01C0.0236
T02C0.0280
T03C0.0315
%
T01
X6884Y2300
X4984Y4600
T02
X8374Y4000
X9124Y4000
X9124Y3250
X8374Y3250
X8374Y2500
X9124Y2500
T03
X9196Y700
X9039Y700
X9354Y700
X9511Y700
X9669Y700
X11119Y700
X11276Y700
X11434Y700
X11591Y700
X11749Y700
X11749Y5800
X11591Y5800
X11434Y5800
X11276Y5800
X11119Y5800
X9669Y5800
X9511Y5800
X9354Y5800
X9196Y5800
X9039Y5800
M30
