G75*
%MOIN*%
%OFA0B0*%
%FSLAX24Y24*%
%IPPOS*%
%LPD*%
%AMOC8*
5,1,8,0,0,1.08239X$1,22.5*
%
%ADD10C,0.0000*%
%ADD11C,0.0020*%
%ADD12C,0.0080*%
D10*
X003230Y001281D02*
X003230Y006793D01*
X003232Y006859D01*
X003237Y006925D01*
X003247Y006991D01*
X003260Y007056D01*
X003276Y007120D01*
X003296Y007183D01*
X003320Y007245D01*
X003347Y007305D01*
X003377Y007364D01*
X003411Y007421D01*
X003448Y007476D01*
X003488Y007529D01*
X003530Y007580D01*
X003576Y007628D01*
X003624Y007674D01*
X003675Y007716D01*
X003728Y007756D01*
X003783Y007793D01*
X003840Y007827D01*
X003899Y007857D01*
X003959Y007884D01*
X004021Y007908D01*
X004084Y007928D01*
X004148Y007944D01*
X004213Y007957D01*
X004279Y007967D01*
X004345Y007972D01*
X004411Y007974D01*
X006970Y007974D01*
X006320Y006793D02*
X006322Y006843D01*
X006328Y006893D01*
X006338Y006943D01*
X006351Y006991D01*
X006368Y007039D01*
X006389Y007085D01*
X006413Y007129D01*
X006441Y007171D01*
X006472Y007211D01*
X006506Y007248D01*
X006543Y007283D01*
X006582Y007314D01*
X006623Y007343D01*
X006667Y007368D01*
X006713Y007390D01*
X006760Y007408D01*
X006808Y007422D01*
X006857Y007433D01*
X006907Y007440D01*
X006957Y007443D01*
X007008Y007442D01*
X007058Y007437D01*
X007108Y007428D01*
X007156Y007416D01*
X007204Y007399D01*
X007250Y007379D01*
X007295Y007356D01*
X007338Y007329D01*
X007378Y007299D01*
X007416Y007266D01*
X007451Y007230D01*
X007484Y007191D01*
X007513Y007150D01*
X007539Y007107D01*
X007562Y007062D01*
X007581Y007015D01*
X007596Y006967D01*
X007608Y006918D01*
X007616Y006868D01*
X007620Y006818D01*
X007620Y006768D01*
X007616Y006718D01*
X007608Y006668D01*
X007596Y006619D01*
X007581Y006571D01*
X007562Y006524D01*
X007539Y006479D01*
X007513Y006436D01*
X007484Y006395D01*
X007451Y006356D01*
X007416Y006320D01*
X007378Y006287D01*
X007338Y006257D01*
X007295Y006230D01*
X007250Y006207D01*
X007204Y006187D01*
X007156Y006170D01*
X007108Y006158D01*
X007058Y006149D01*
X007008Y006144D01*
X006957Y006143D01*
X006907Y006146D01*
X006857Y006153D01*
X006808Y006164D01*
X006760Y006178D01*
X006713Y006196D01*
X006667Y006218D01*
X006623Y006243D01*
X006582Y006272D01*
X006543Y006303D01*
X006506Y006338D01*
X006472Y006375D01*
X006441Y006415D01*
X006413Y006457D01*
X006389Y006501D01*
X006368Y006547D01*
X006351Y006595D01*
X006338Y006643D01*
X006328Y006693D01*
X006322Y006743D01*
X006320Y006793D01*
X006970Y007974D02*
X007070Y007972D01*
X007171Y007966D01*
X007271Y007956D01*
X007370Y007942D01*
X007469Y007925D01*
X007567Y007903D01*
X007665Y007878D01*
X007761Y007849D01*
X007856Y007816D01*
X007949Y007779D01*
X008041Y007739D01*
X008132Y007695D01*
X008220Y007648D01*
X008307Y007597D01*
X008392Y007543D01*
X008474Y007485D01*
X008554Y007425D01*
X008632Y007361D01*
X008707Y007294D01*
X008779Y007224D01*
X008849Y007152D01*
X008916Y007077D01*
X008980Y006999D01*
X009040Y006919D01*
X009098Y006837D01*
X009152Y006752D01*
X009203Y006665D01*
X009250Y006577D01*
X009294Y006486D01*
X009334Y006394D01*
X009371Y006301D01*
X009404Y006206D01*
X009433Y006110D01*
X009458Y006012D01*
X009480Y005914D01*
X009497Y005815D01*
X009511Y005716D01*
X009521Y005616D01*
X009527Y005515D01*
X009529Y005415D01*
X009529Y002659D01*
X009527Y002559D01*
X009521Y002458D01*
X009511Y002358D01*
X009497Y002259D01*
X009480Y002160D01*
X009458Y002062D01*
X009433Y001964D01*
X009404Y001868D01*
X009371Y001773D01*
X009334Y001680D01*
X009294Y001588D01*
X009250Y001497D01*
X009203Y001409D01*
X009152Y001322D01*
X009098Y001237D01*
X009040Y001155D01*
X008980Y001075D01*
X008916Y000997D01*
X008849Y000922D01*
X008779Y000850D01*
X008707Y000780D01*
X008632Y000713D01*
X008554Y000649D01*
X008474Y000589D01*
X008392Y000531D01*
X008307Y000477D01*
X008220Y000426D01*
X008132Y000379D01*
X008041Y000335D01*
X007949Y000295D01*
X007856Y000258D01*
X007761Y000225D01*
X007665Y000196D01*
X007567Y000171D01*
X007469Y000149D01*
X007370Y000132D01*
X007271Y000118D01*
X007171Y000108D01*
X007070Y000102D01*
X006970Y000100D01*
X004411Y000100D01*
X004345Y000102D01*
X004279Y000107D01*
X004213Y000117D01*
X004148Y000130D01*
X004084Y000146D01*
X004021Y000166D01*
X003959Y000190D01*
X003899Y000217D01*
X003840Y000247D01*
X003783Y000281D01*
X003728Y000318D01*
X003675Y000358D01*
X003624Y000400D01*
X003576Y000446D01*
X003530Y000494D01*
X003488Y000545D01*
X003448Y000598D01*
X003411Y000653D01*
X003377Y000710D01*
X003347Y000769D01*
X003320Y000829D01*
X003296Y000891D01*
X003276Y000954D01*
X003260Y001018D01*
X003247Y001083D01*
X003237Y001149D01*
X003232Y001215D01*
X003230Y001281D01*
X006320Y001281D02*
X006322Y001331D01*
X006328Y001381D01*
X006338Y001431D01*
X006351Y001479D01*
X006368Y001527D01*
X006389Y001573D01*
X006413Y001617D01*
X006441Y001659D01*
X006472Y001699D01*
X006506Y001736D01*
X006543Y001771D01*
X006582Y001802D01*
X006623Y001831D01*
X006667Y001856D01*
X006713Y001878D01*
X006760Y001896D01*
X006808Y001910D01*
X006857Y001921D01*
X006907Y001928D01*
X006957Y001931D01*
X007008Y001930D01*
X007058Y001925D01*
X007108Y001916D01*
X007156Y001904D01*
X007204Y001887D01*
X007250Y001867D01*
X007295Y001844D01*
X007338Y001817D01*
X007378Y001787D01*
X007416Y001754D01*
X007451Y001718D01*
X007484Y001679D01*
X007513Y001638D01*
X007539Y001595D01*
X007562Y001550D01*
X007581Y001503D01*
X007596Y001455D01*
X007608Y001406D01*
X007616Y001356D01*
X007620Y001306D01*
X007620Y001256D01*
X007616Y001206D01*
X007608Y001156D01*
X007596Y001107D01*
X007581Y001059D01*
X007562Y001012D01*
X007539Y000967D01*
X007513Y000924D01*
X007484Y000883D01*
X007451Y000844D01*
X007416Y000808D01*
X007378Y000775D01*
X007338Y000745D01*
X007295Y000718D01*
X007250Y000695D01*
X007204Y000675D01*
X007156Y000658D01*
X007108Y000646D01*
X007058Y000637D01*
X007008Y000632D01*
X006957Y000631D01*
X006907Y000634D01*
X006857Y000641D01*
X006808Y000652D01*
X006760Y000666D01*
X006713Y000684D01*
X006667Y000706D01*
X006623Y000731D01*
X006582Y000760D01*
X006543Y000791D01*
X006506Y000826D01*
X006472Y000863D01*
X006441Y000903D01*
X006413Y000945D01*
X006389Y000989D01*
X006368Y001035D01*
X006351Y001083D01*
X006338Y001131D01*
X006328Y001181D01*
X006322Y001231D01*
X006320Y001281D01*
D11*
X007020Y002433D02*
X007093Y002433D01*
X007056Y002433D02*
X007056Y002653D01*
X007020Y002653D02*
X007093Y002653D01*
X007167Y002653D02*
X007314Y002433D01*
X007314Y002653D01*
X007388Y002580D02*
X007461Y002653D01*
X007461Y002433D01*
X007388Y002433D02*
X007535Y002433D01*
X007167Y002433D02*
X007167Y002653D01*
X007167Y003417D02*
X007167Y003637D01*
X007314Y003417D01*
X007314Y003637D01*
X007388Y003601D02*
X007425Y003637D01*
X007498Y003637D01*
X007535Y003601D01*
X007388Y003454D01*
X007425Y003417D01*
X007498Y003417D01*
X007535Y003454D01*
X007535Y003601D01*
X007388Y003601D02*
X007388Y003454D01*
X007093Y003417D02*
X007020Y003417D01*
X007056Y003417D02*
X007056Y003637D01*
X007020Y003637D02*
X007093Y003637D01*
X007012Y004441D02*
X006938Y004441D01*
X006902Y004477D01*
X006975Y004551D02*
X007012Y004551D01*
X007048Y004514D01*
X007048Y004477D01*
X007012Y004441D01*
X007012Y004551D02*
X007048Y004588D01*
X007048Y004624D01*
X007012Y004661D01*
X006938Y004661D01*
X006902Y004624D01*
X007123Y004661D02*
X007123Y004514D01*
X007196Y004441D01*
X007269Y004514D01*
X007269Y004661D01*
X007344Y004624D02*
X007380Y004661D01*
X007454Y004661D01*
X007490Y004624D01*
X007490Y004588D01*
X007454Y004551D01*
X007490Y004514D01*
X007490Y004477D01*
X007454Y004441D01*
X007380Y004441D01*
X007344Y004477D01*
X007417Y004551D02*
X007454Y004551D01*
X007414Y005386D02*
X007304Y005386D01*
X007304Y005606D01*
X007414Y005606D01*
X007451Y005569D01*
X007451Y005422D01*
X007414Y005386D01*
X007230Y005386D02*
X007230Y005606D01*
X007083Y005606D02*
X007230Y005386D01*
X007083Y005386D02*
X007083Y005606D01*
X007009Y005569D02*
X006972Y005606D01*
X006899Y005606D01*
X006862Y005569D01*
X006862Y005422D01*
X006899Y005386D01*
X006972Y005386D01*
X007009Y005422D01*
X007009Y005496D01*
X006936Y005496D01*
D12*
X008177Y006033D02*
X008677Y006033D01*
X008677Y002033D02*
X008177Y002033D01*
M02*
