G75*
%MOIN*%
%OFA0B0*%
%FSLAX24Y24*%
%IPPOS*%
%LPD*%
%AMOC8*
5,1,8,0,0,1.08239X$1,22.5*
%
%ADD10C,0.0000*%
D10*
X000710Y000100D02*
X000710Y007974D01*
X009766Y007974D01*
X009766Y000100D01*
X000710Y000100D01*
X006753Y001281D02*
X006755Y001331D01*
X006761Y001381D01*
X006771Y001431D01*
X006784Y001479D01*
X006801Y001527D01*
X006822Y001573D01*
X006846Y001617D01*
X006874Y001659D01*
X006905Y001699D01*
X006939Y001736D01*
X006976Y001771D01*
X007015Y001802D01*
X007056Y001831D01*
X007100Y001856D01*
X007146Y001878D01*
X007193Y001896D01*
X007241Y001910D01*
X007290Y001921D01*
X007340Y001928D01*
X007390Y001931D01*
X007441Y001930D01*
X007491Y001925D01*
X007541Y001916D01*
X007589Y001904D01*
X007637Y001887D01*
X007683Y001867D01*
X007728Y001844D01*
X007771Y001817D01*
X007811Y001787D01*
X007849Y001754D01*
X007884Y001718D01*
X007917Y001679D01*
X007946Y001638D01*
X007972Y001595D01*
X007995Y001550D01*
X008014Y001503D01*
X008029Y001455D01*
X008041Y001406D01*
X008049Y001356D01*
X008053Y001306D01*
X008053Y001256D01*
X008049Y001206D01*
X008041Y001156D01*
X008029Y001107D01*
X008014Y001059D01*
X007995Y001012D01*
X007972Y000967D01*
X007946Y000924D01*
X007917Y000883D01*
X007884Y000844D01*
X007849Y000808D01*
X007811Y000775D01*
X007771Y000745D01*
X007728Y000718D01*
X007683Y000695D01*
X007637Y000675D01*
X007589Y000658D01*
X007541Y000646D01*
X007491Y000637D01*
X007441Y000632D01*
X007390Y000631D01*
X007340Y000634D01*
X007290Y000641D01*
X007241Y000652D01*
X007193Y000666D01*
X007146Y000684D01*
X007100Y000706D01*
X007056Y000731D01*
X007015Y000760D01*
X006976Y000791D01*
X006939Y000826D01*
X006905Y000863D01*
X006874Y000903D01*
X006846Y000945D01*
X006822Y000989D01*
X006801Y001035D01*
X006784Y001083D01*
X006771Y001131D01*
X006761Y001181D01*
X006755Y001231D01*
X006753Y001281D01*
X006753Y006793D02*
X006755Y006843D01*
X006761Y006893D01*
X006771Y006943D01*
X006784Y006991D01*
X006801Y007039D01*
X006822Y007085D01*
X006846Y007129D01*
X006874Y007171D01*
X006905Y007211D01*
X006939Y007248D01*
X006976Y007283D01*
X007015Y007314D01*
X007056Y007343D01*
X007100Y007368D01*
X007146Y007390D01*
X007193Y007408D01*
X007241Y007422D01*
X007290Y007433D01*
X007340Y007440D01*
X007390Y007443D01*
X007441Y007442D01*
X007491Y007437D01*
X007541Y007428D01*
X007589Y007416D01*
X007637Y007399D01*
X007683Y007379D01*
X007728Y007356D01*
X007771Y007329D01*
X007811Y007299D01*
X007849Y007266D01*
X007884Y007230D01*
X007917Y007191D01*
X007946Y007150D01*
X007972Y007107D01*
X007995Y007062D01*
X008014Y007015D01*
X008029Y006967D01*
X008041Y006918D01*
X008049Y006868D01*
X008053Y006818D01*
X008053Y006768D01*
X008049Y006718D01*
X008041Y006668D01*
X008029Y006619D01*
X008014Y006571D01*
X007995Y006524D01*
X007972Y006479D01*
X007946Y006436D01*
X007917Y006395D01*
X007884Y006356D01*
X007849Y006320D01*
X007811Y006287D01*
X007771Y006257D01*
X007728Y006230D01*
X007683Y006207D01*
X007637Y006187D01*
X007589Y006170D01*
X007541Y006158D01*
X007491Y006149D01*
X007441Y006144D01*
X007390Y006143D01*
X007340Y006146D01*
X007290Y006153D01*
X007241Y006164D01*
X007193Y006178D01*
X007146Y006196D01*
X007100Y006218D01*
X007056Y006243D01*
X007015Y006272D01*
X006976Y006303D01*
X006939Y006338D01*
X006905Y006375D01*
X006874Y006415D01*
X006846Y006457D01*
X006822Y006501D01*
X006801Y006547D01*
X006784Y006595D01*
X006771Y006643D01*
X006761Y006693D01*
X006755Y006743D01*
X006753Y006793D01*
M02*
